<svg xmlns="http://www.w3.org/2000/svg" width="729" height="235" fill="#1D3847">
<path d="M24.832 46.27s15.152 9.214 17.996 9.896c2.843.692 5.355-1.127 5.355-1.127s44.735-26.902 45.223-27.198c-.145.089-.136.069 0 0 .282-.188.107-.07 0 0 2.444-1.414 4.119-1.552 4.577-1.562H98.627c.456.01 2.131.158 4.575 1.562-.106-.07-.282-.188 0 0 .137.069.157.089 0 0 .488.306 45.223 27.198 45.223 27.198s2.513 1.82 5.347 1.127c2.844-.682 18.005-9.897 18.005-9.897s2.045-1.482 0-3.193c-2.045-1.7-64.943-39.398-64.943-39.398l-4.236-2.373S100.145-.02 98.295 0C96.445-.01 94 1.305 94 1.305l-4.245 2.373S26.867 41.376 24.812 43.076c-2.035 1.71.02 3.193.02 3.193ZM171.796 181.903s-15.161-9.223-18.005-9.905c-2.842-.673-5.345 1.145-5.345 1.145s-44.737 26.893-45.223 27.199c.155-.088.136-.079 0 0-.282.178-.108.059 0 0-2.445 1.405-4.119 1.543-4.577 1.552h-.644c-.456-.009-2.133-.158-4.575-1.552.105.059.282.178 0 0-.137-.079-.147-.088 0 0-.488-.306-45.224-27.199-45.224-27.199s-2.512-1.818-5.356-1.145c-2.843.691-17.995 9.905-17.995 9.905s-2.055 1.484 0 3.184c2.055 1.711 64.942 39.408 64.942 39.408l4.245 2.373s2.445 1.325 4.295 1.304c1.849.021 4.304-1.304 4.304-1.304l4.236-2.373s62.898-37.697 64.943-39.408c2.034-1.7-.021-3.184-.021-3.184Z"/>
<path d="m196.648 102.524-.009-37.262c.009-8.147-3.721-10.767-4.958-11.479-5.035-2.896-10.079.168-10.079.168L98.314 102.15l-30.868 17.924-38.563 22.255s-4.528 2.827-5.726.959c-.575-.89-.448-2.037-.439-5.645V92.45c-.01-3.618-.136-4.755.439-5.645 1.198-1.859 5.726.959 5.726.959l30.976 17.875 1.5.87c1.285.642 3.184 1.315 4.694.811 2.57-.851 16.31-8.938 16.31-8.938s2.484-1.256 2.659-2.413c.194-1.304-1.033-2.095-2.045-2.679L15.045 53.962s-5.044-3.075-10.089-.169C3.73 54.505-.01 57.125.01 65.272L0 102.534V126.984l.01 37.262c-.01 8.147 3.72 10.767 4.946 11.48 5.045 2.895 10.089-.178 10.089-.178l83.279-48.208 30.869-17.915 38.573-22.245s4.518-2.827 5.715-.969c.574.9.448 2.037.439 5.656v45.181c0 3.619.135 4.756-.439 5.655-1.197 1.859-5.715-.958-5.715-.958l-30.977-17.876-1.5-.86c-1.285-.642-3.174-1.314-4.684-.82-2.571.86-16.31 8.937-16.31 8.937s-2.494 1.266-2.669 2.423c-.185 1.305 1.032 2.095 2.044 2.679l67.942 39.32s5.044 3.073 10.08.178c1.237-.713 4.966-3.333 4.956-11.48V102.524ZM339.25 83.03a3.46 3.46 0 0 1 3.46-3.46h13.838a3.46 3.46 0 0 1 3.46 3.46v90.708a3.46 3.46 0 0 1-3.46 3.459H342.71a3.46 3.46 0 0 1-3.46-3.459V83.029ZM712.544 80.333c2.244-1.811 5.525-.195 5.525 2.722v17.911a3.556 3.556 0 0 1-1.318 2.769l-90.391 72.637c-2.237 1.798-5.5.199-5.518-2.704l-.11-17.516a3.558 3.558 0 0 1 1.313-2.788l90.499-73.031ZM658.661 112.291a4 4 0 0 0-.031-6.25l-31.96-25.669c-2.248-1.78-5.5-.153-5.5 2.752l.053 18.904a3.55 3.55 0 0 0 1.332 2.78l20.297 16.077a3.998 3.998 0 0 0 4.996-.023l10.813-8.571ZM680.425 150.585a4 4 0 0 1-.017-6.249l10.396-8.376a4 4 0 0 1 4.994-.015l20.877 16.507a3.547 3.547 0 0 1 1.335 2.782l-.05 17.895c0 2.906-3.255 4.533-5.502 2.75l-32.033-25.294ZM480.232 83.164a3.46 3.46 0 0 1 3.46-3.46h13.838a3.46 3.46 0 0 1 3.46 3.46v90.523a3.46 3.46 0 0 1-3.46 3.459h-13.838a3.459 3.459 0 0 1-3.459-3.459l-.001-90.523ZM525.206 55.98a3.46 3.46 0 0 1 3.46-3.46h13.838a3.46 3.46 0 0 1 3.46 3.46v117.696a3.46 3.46 0 0 1-3.46 3.46h-13.838a3.459 3.459 0 0 1-3.459-3.46l-.001-117.697Z"/>
<path d="M582.266 82.212a6.92 6.92 0 0 1 5.313-2.487h16.297c2.937 0 4.538 3.429 2.653 5.68l-61.178 73.079-12.963-11.162a3.46 3.46 0 0 1-.399-4.838l50.277-60.272ZM313.304 79.57a3.459 3.459 0 0 1 3.459 3.46v13.837c0 1.911-1.548 3.46-3.459 3.46h-51.893a3.46 3.46 0 0 1-3.46-3.46V83.03a3.46 3.46 0 0 1 3.46-3.46h51.893Z"/>
<path d="M297.736 55.981a3.46 3.46 0 0 0-3.46-3.46h-13.838a3.459 3.459 0 0 0-3.459 3.46v100.44c0 11.464 9.293 20.757 20.757 20.757h19.027a3.46 3.46 0 0 0 3.46-3.46V159.88a3.46 3.46 0 0 0-3.46-3.459h-8.649c-5.732 0-10.378-4.647-10.378-10.379v-90.06Z"/>
<path fill-rule="evenodd" d="M359.489 92.419c9.87-7.86 21.725-11.94 31.66-12.719 1.905-.149 3.454 1.411 3.454 3.322V96.86c0 1.91-1.553 3.45-3.447 3.706-5.611.759-12.72 3.3-18.737 8.091-6.973 5.552-12.411 14.028-12.411 26.704H339.25c0-19.626 8.833-33.86 20.239-42.942ZM451.691 100.018c-15.763 0-28.541 12.778-28.541 28.541s12.778 28.541 28.541 28.541 28.541-12.778 28.541-28.541-12.778-28.541-28.541-28.541Zm-49.298 28.541c0-27.227 22.071-49.298 49.298-49.298s49.299 22.071 49.299 49.298-22.072 49.299-49.299 49.299-49.298-22.072-49.298-49.299Z" clip-rule="evenodd"/>
<path d="m548.6 132.489 32.28 42.006a6.917 6.917 0 0 0 5.488 2.706h15.83c2.872 0 4.494-3.298 2.74-5.572l-41.276-53.484c-5.555 5.425-11.679 11.32-15.062 14.344ZM312.819 207.478h.951v4.651h-1.475c-2.225 0-3.778.62-4.657 1.86-.867 1.24-1.3 3.138-1.3 5.694v7.535h-4.929v-19.436h4.812v4.517c1.152-3.214 3.351-4.821 6.598-4.821ZM332.107 207.782h4.735l-7.684 20.594c-.35.987-.673 1.79-.971 2.41a9.717 9.717 0 0 1-1.086 1.803c-.44.595-.932 1.051-1.475 1.367-.531.316-1.184.569-1.96.759-.776.19-1.688.285-2.736.285h-4.211v-3.853h6.811l1.572-4.119h-2.406l-7.161-19.246h5.046l4.89 13.021.912 2.752.873-2.752 4.851-13.021ZM351.454 207.156c1.254 0 2.393.177 3.415.531 1.035.354 1.901.848 2.6 1.481a8.085 8.085 0 0 1 1.785 2.239c.479.873.828 1.822 1.048 2.847.22 1.013.33 2.095.33 3.246 0 1.443-.181 2.777-.543 4.005a10.236 10.236 0 0 1-1.63 3.284c-.712.949-1.669 1.695-2.872 2.239-1.19.544-2.568.816-4.133.816-3.377 0-5.789-1.246-7.238-3.739V235h-4.929v-27.218h4.929v3.075c1.436-2.468 3.848-3.701 7.238-3.701Zm-1.359 16.873c2.005 0 3.441-.525 4.308-1.575.867-1.05 1.3-2.702 1.3-4.954s-.433-3.904-1.3-4.954c-.867-1.05-2.303-1.575-4.308-1.575-1.979 0-3.454.531-4.424 1.594-.97 1.063-1.455 2.708-1.455 4.935 0 2.227.485 3.872 1.455 4.935.97 1.063 2.445 1.594 4.424 1.594ZM372.779 227.218c-2.509 0-4.243-.5-5.2-1.499-.957-1.013-1.436-2.639-1.436-4.878v-9.396h-3.687v-2.372l4.094-1.519 2.019-4.289h2.503v4.517h6.035v3.663h-6.035v11.92h5.569v3.853h-3.862ZM394.396 227.009c-1.384.557-2.975.835-4.773.835-1.798 0-3.39-.272-4.774-.816-1.384-.557-2.497-1.316-3.337-2.277a10.31 10.31 0 0 1-1.883-3.284c-.414-1.227-.621-2.562-.621-4.005 0-1.417.207-2.733.621-3.948a10.084 10.084 0 0 1 1.883-3.265c.84-.961 1.953-1.714 3.337-2.258 1.384-.557 2.976-.835 4.774-.835 1.449 0 2.768.183 3.958.55 1.19.367 2.193.867 3.008 1.5a8.857 8.857 0 0 1 2.057 2.258 9.424 9.424 0 0 1 1.242 2.828 12.6 12.6 0 0 1 .388 3.17c0 1.43-.214 2.759-.64 3.986a9.844 9.844 0 0 1-1.883 3.284c-.841.961-1.96 1.72-3.357 2.277Zm-9.12-14.52c-.893 1-1.339 2.67-1.339 5.011s.446 4.018 1.339 5.03c.906.999 2.354 1.499 4.347 1.499 1.992 0 3.434-.5 4.327-1.499.906-1.012 1.358-2.689 1.358-5.03s-.452-4.011-1.358-5.011c-.893-1.012-2.335-1.518-4.327-1.518-1.993 0-3.441.506-4.347 1.518ZM422.727 227.218c-2.509 0-4.243-.5-5.2-1.499-.958-1.013-1.436-2.639-1.436-4.878v-9.396h-3.687v-2.372l4.094-1.519 2.018-4.289h2.504v4.517h6.034v3.663h-6.034v11.92h5.569v3.853h-3.862ZM442.132 207.478h.951v4.651h-1.475c-2.225 0-3.777.62-4.657 1.86-.867 1.24-1.3 3.138-1.3 5.694v7.535h-4.929v-19.436h4.812v4.517c1.152-3.214 3.351-4.821 6.598-4.821ZM451.815 227.73c-2.018 0-3.622-.506-4.813-1.518-1.19-1.025-1.785-2.41-1.785-4.157 0-1.645.479-2.954 1.436-3.929.958-.987 2.588-1.664 4.89-2.031l4.813-.816c.944-.152 1.617-.379 2.018-.683.401-.316.601-.785.601-1.405 0-.835-.297-1.467-.892-1.898-.583-.442-1.598-.664-3.047-.664-2.859 0-4.366 1.114-4.521 3.341h-4.851c.038-2.088.873-3.752 2.503-4.992 1.63-1.24 3.881-1.86 6.753-1.86 2.82 0 4.954.563 6.403 1.689 1.449 1.126 2.174 2.676 2.174 4.65v9.016c0 1.265.084 2.847.252 4.745h-4.386a38.912 38.912 0 0 1-.233-4.271c-.478 1.405-1.332 2.556-2.561 3.455-1.216.886-2.801 1.328-4.754 1.328Zm1.436-3.473c1.785 0 3.182-.582 4.191-1.746 1.022-1.177 1.533-2.721 1.533-4.631v-1.044c-.724.544-1.863.987-3.415 1.328l-2.193.494c-1.164.278-1.998.645-2.503 1.101-.504.455-.757 1.088-.757 1.898 0 .835.285 1.48.854 1.936.582.443 1.345.664 2.29.664ZM483.755 200h4.929v27.218h-4.929v-3.113c-1.488 2.493-3.9 3.739-7.238 3.739-1.255 0-2.4-.183-3.435-.55-1.022-.354-1.888-.842-2.6-1.462a8.698 8.698 0 0 1-1.804-2.258 10.467 10.467 0 0 1-1.048-2.828 15.274 15.274 0 0 1-.33-3.246c0-1.151.11-2.233.33-3.246.22-1.012.569-1.955 1.048-2.828a8.41 8.41 0 0 1 1.804-2.239c.712-.633 1.578-1.127 2.6-1.481 1.035-.367 2.18-.55 3.435-.55 3.338 0 5.75 1.246 7.238 3.739V200Zm-5.918 24.029c1.979 0 3.46-.531 4.443-1.594.983-1.063 1.475-2.708 1.475-4.935 0-2.227-.492-3.872-1.475-4.935-.983-1.063-2.464-1.594-4.443-1.594-1.993 0-3.422.525-4.289 1.575-.854 1.05-1.281 2.702-1.281 4.954s.427 3.904 1.281 4.954c.867 1.05 2.296 1.575 4.289 1.575ZM499.551 227.73c-2.019 0-3.623-.506-4.813-1.518-1.19-1.025-1.785-2.41-1.785-4.157 0-1.645.479-2.954 1.436-3.929.957-.987 2.587-1.664 4.89-2.031l4.812-.816c.945-.152 1.617-.379 2.018-.683.401-.316.602-.785.602-1.405 0-.835-.298-1.467-.893-1.898-.582-.442-1.597-.664-3.046-.664-2.859 0-4.366 1.114-4.522 3.341h-4.851c.039-2.088.873-3.752 2.503-4.992 1.63-1.24 3.881-1.86 6.753-1.86 2.82 0 4.955.563 6.404 1.689 1.449 1.126 2.173 2.676 2.173 4.65v9.016c0 1.265.084 2.847.252 4.745h-4.385a38.912 38.912 0 0 1-.233-4.271c-.479 1.405-1.332 2.556-2.561 3.455-1.216.886-2.801 1.328-4.754 1.328Zm1.435-3.473c1.786 0 3.183-.582 4.192-1.746 1.022-1.177 1.533-2.721 1.533-4.631v-1.044c-.725.544-1.863.987-3.415 1.328l-2.193.494c-1.164.278-1.999.645-2.503 1.101-.505.455-.757 1.088-.757 1.898 0 .835.285 1.48.854 1.936.582.443 1.345.664 2.289.664ZM528.192 207.156c1.565 0 2.943.272 4.133.816 1.203.544 2.161 1.297 2.872 2.258a9.998 9.998 0 0 1 1.63 3.265c.362 1.228.543 2.562.543 4.005s-.181 2.777-.543 4.005a10.216 10.216 0 0 1-1.63 3.284c-.711.949-1.669 1.695-2.872 2.239-1.19.544-2.568.816-4.133.816-3.402 0-5.815-1.246-7.238-3.739v3.113h-4.929V200h4.929v10.895c1.423-2.493 3.836-3.739 7.238-3.739Zm-1.358 16.873c2.005 0 3.441-.525 4.307-1.575.867-1.05 1.301-2.702 1.301-4.954s-.434-3.904-1.301-4.954c-.866-1.05-2.302-1.575-4.307-1.575-1.98 0-3.454.531-4.425 1.594-.97 1.063-1.455 2.708-1.455 4.935 0 2.227.485 3.872 1.455 4.935.971 1.063 2.445 1.594 4.425 1.594ZM541.135 227.218V200h4.929v27.218h-4.929ZM560.384 224.428c2.73 0 4.425-1.025 5.084-3.075h4.638a7.047 7.047 0 0 1-.504 1.803c-.246.57-.628 1.152-1.145 1.746a7.598 7.598 0 0 1-1.824 1.519c-.712.417-1.624.759-2.736 1.025-1.1.265-2.329.398-3.687.398-1.786 0-3.357-.272-4.716-.816-1.358-.557-2.438-1.316-3.24-2.277a10.309 10.309 0 0 1-1.785-3.284c-.389-1.227-.583-2.562-.583-4.005 0-1.442.207-2.777.621-4.005a10.005 10.005 0 0 1 1.863-3.264c.828-.95 1.908-1.69 3.241-2.221 1.345-.544 2.878-.816 4.599-.816 1.681 0 3.169.265 4.463.797 1.293.531 2.335 1.265 3.124 2.202a9.496 9.496 0 0 1 1.805 3.207c.401 1.19.601 2.493.601 3.91 0 .456-.045.962-.136 1.519H554.66c.168 2.037.737 3.486 1.708 4.346.983.861 2.322 1.291 4.016 1.291Zm-.077-13.894c-1.63 0-2.911.386-3.842 1.158-.919.772-1.495 2.075-1.727 3.91h10.73c-.194-3.379-1.914-5.068-5.161-5.068ZM583.786 205.068v-3.701h5.725v3.701h-5.725Zm.389 22.15v-19.436h4.928v19.436h-4.928ZM605.966 207.156c2.562 0 4.418.683 5.569 2.05 1.152 1.353 1.727 3.353 1.727 5.997v12.015h-4.909v-11.426c0-1.696-.356-2.898-1.067-3.607-.699-.708-1.708-1.062-3.028-1.062-1.798 0-3.156.607-4.075 1.822-.918 1.202-1.377 3.119-1.377 5.751v8.522h-4.929v-19.436h4.929v4.119c1.384-3.164 3.771-4.745 7.16-4.745ZM633.56 200h4.928v27.218h-4.928v-3.113c-1.488 2.493-3.901 3.739-7.238 3.739-1.255 0-2.4-.183-3.435-.55-1.022-.354-1.889-.842-2.6-1.462a8.701 8.701 0 0 1-1.805-2.258 10.467 10.467 0 0 1-1.048-2.828 15.274 15.274 0 0 1-.33-3.246c0-1.151.11-2.233.33-3.246.22-1.012.569-1.955 1.048-2.828a8.413 8.413 0 0 1 1.805-2.239c.711-.633 1.578-1.127 2.6-1.481 1.035-.367 2.18-.55 3.435-.55 3.337 0 5.75 1.246 7.238 3.739V200Zm-5.919 24.029c1.979 0 3.461-.531 4.444-1.594.983-1.063 1.475-2.708 1.475-4.935 0-2.227-.492-3.872-1.475-4.935-.983-1.063-2.465-1.594-4.444-1.594-1.992 0-3.422.525-4.288 1.575-.854 1.05-1.281 2.702-1.281 4.954s.427 3.904 1.281 4.954c.866 1.05 2.296 1.575 4.288 1.575ZM643.087 205.068v-3.701h5.725v3.701h-5.725Zm.388 22.15v-19.436h4.929v19.436h-4.929ZM652.984 221.486c-.427-1.228-.641-2.556-.641-3.986 0-1.43.214-2.758.641-3.986a9.921 9.921 0 0 1 1.921-3.265c.841-.961 1.94-1.714 3.299-2.258 1.371-.557 2.93-.835 4.676-.835 3.144 0 5.563.759 7.258 2.277 1.707 1.506 2.613 3.48 2.716 5.922h-4.735c-.142-1.341-.627-2.404-1.455-3.189-.828-.797-2.05-1.195-3.667-1.195-1.863 0-3.286.506-4.269 1.518-.971 1.012-1.456 2.683-1.456 5.011 0 2.366.472 4.049 1.417 5.049.957.987 2.367 1.48 4.23 1.48 1.656 0 2.917-.417 3.784-1.252.88-.836 1.404-1.936 1.572-3.303h4.734a8.408 8.408 0 0 1-.718 3.17 8.569 8.569 0 0 1-1.862 2.657c-.802.785-1.85 1.405-3.144 1.86-1.281.456-2.723.683-4.327.683-1.76 0-3.331-.272-4.716-.816-1.371-.557-2.483-1.309-3.337-2.258a10.143 10.143 0 0 1-1.921-3.284ZM686.127 224.428c2.73 0 4.424-1.025 5.084-3.075h4.638a7.049 7.049 0 0 1-.505 1.803c-.245.57-.627 1.152-1.145 1.746a7.56 7.56 0 0 1-1.824 1.519c-.711.417-1.623.759-2.736 1.025-1.099.265-2.328.398-3.687.398-1.785 0-3.357-.272-4.715-.816-1.358-.557-2.438-1.316-3.241-2.277a10.309 10.309 0 0 1-1.785-3.284c-.388-1.227-.582-2.562-.582-4.005 0-1.442.207-2.777.621-4.005a10.005 10.005 0 0 1 1.863-3.264c.828-.95 1.908-1.69 3.241-2.221 1.345-.544 2.878-.816 4.598-.816 1.682 0 3.17.265 4.463.797 1.294.531 2.336 1.265 3.125 2.202a9.494 9.494 0 0 1 1.804 3.207c.401 1.19.602 2.493.602 3.91 0 .456-.045.962-.136 1.519h-15.407c.168 2.037.737 3.486 1.707 4.346.983.861 2.322 1.291 4.017 1.291Zm-.078-13.894c-1.63 0-2.91.386-3.842 1.158-.918.772-1.494 2.075-1.727 3.91h10.731c-.194-3.379-1.914-5.068-5.162-5.068ZM698.585 220.803h4.541c.077 1.126.543 2.037 1.397 2.733.854.696 2.095 1.044 3.725 1.044 1.475 0 2.504-.215 3.086-.646.595-.442.892-1.094.892-1.955 0-.721-.226-1.29-.679-1.708-.452-.43-1.196-.708-2.231-.835l-4.677-.645c-1.798-.241-3.169-.829-4.114-1.766-.944-.936-1.416-2.176-1.416-3.72 0-1.986.77-3.511 2.309-4.574 1.539-1.076 3.642-1.613 6.307-1.613 2.639 0 4.747.55 6.325 1.651 1.592 1.101 2.465 2.638 2.62 4.612h-4.676c-.104-.898-.524-1.619-1.262-2.164-.724-.556-1.753-.835-3.085-.835-1.32 0-2.296.222-2.93.665-.634.443-.951 1.037-.951 1.784 0 1.253.86 1.993 2.581 2.221l4.249.55c2.329.316 3.978.968 4.949 1.955.97.987 1.455 2.328 1.455 4.024 0 4.176-2.956 6.263-8.868 6.263-1.643 0-3.092-.183-4.347-.55-1.242-.367-2.231-.88-2.969-1.537-.737-.658-1.293-1.399-1.668-2.221-.363-.823-.55-1.734-.563-2.733ZM277.64 221.486c-.427-1.228-.64-2.556-.64-3.986 0-1.43.213-2.759.64-3.986a9.939 9.939 0 0 1 1.921-3.265c.841-.961 1.941-1.714 3.299-2.258 1.371-.557 2.93-.835 4.677-.835 3.143 0 5.562.759 7.257 2.277 1.708 1.506 2.613 3.48 2.717 5.922h-4.735c-.142-1.341-.627-2.404-1.455-3.189-.828-.797-2.051-1.195-3.668-1.195-1.863 0-3.286.506-4.269 1.518-.97 1.012-1.455 2.683-1.455 5.011 0 2.366.472 4.049 1.416 5.049.958.987 2.368 1.48 4.231 1.48 1.655 0 2.917-.417 3.783-1.252.88-.836 1.404-1.936 1.572-3.303h4.735a8.427 8.427 0 0 1-.718 3.17 8.589 8.589 0 0 1-1.863 2.657c-.802.784-1.85 1.405-3.143 1.86-1.281.456-2.724.683-4.328.683-1.759 0-3.331-.272-4.715-.816-1.371-.557-2.484-1.309-3.338-2.258a10.161 10.161 0 0 1-1.921-3.284Z"/>
</svg>