<svg xmlns="http://www.w3.org/2000/svg" width="72" height="72" fill="#f95"><path d="M12.463 14.6s4.854 2.907 5.765 3.123c.911.218 1.716-.356 1.716-.356l14.488-8.582c-.046.028-.043.022 0 0 .09-.06.035-.022 0 0 .783-.446 1.32-.49 1.467-.493h.206c.146.003.683.05 1.466.493-.034-.022-.09-.06 0 0 .044.022.05.028 0 0 .156.096 14.488 8.582 14.488 8.582s.805.574 1.713.356c.91-.216 5.768-3.123 5.768-3.123s.655-.468 0-1.008C58.885 13.056 38.735 1.16 38.735 1.16L37.377.411S36.591-.007 35.998 0c-.592-.003-1.375.412-1.375.412l-1.36.749S13.114 13.056 12.456 13.592c-.652.54.006 1.008.006 1.008zm47.074 42.8s-4.857-2.911-5.768-3.126c-.91-.213-1.713.361-1.713.361s-14.332 8.486-14.488 8.583c.05-.028.044-.025 0 0-.09.056-.034.019 0 0-.783.443-1.32.487-1.466.49h-.206c-.147-.003-.683-.05-1.466-.49.034.019.09.056 0 0-.044-.025-.047-.028 0 0-.156-.097-14.488-8.583-14.488-8.583s-.805-.574-1.716-.361c-.911.218-5.765 3.126-5.765 3.126s-.659.468 0 1.004c.658.54 20.805 12.435 20.805 12.435l1.36.75s.783.417 1.376.41c.593.007 1.38-.41 1.38-.41l1.356-.75s20.15-11.895 20.806-12.435c.652-.536-.007-1.004-.007-1.004z"/><path d="M67.5 32.351l-.003-11.758c.003-2.57-1.192-3.397-1.588-3.622-1.613-.914-3.229.053-3.229.053L35.997 32.233l-9.89 5.656-12.354 7.022s-1.45.893-1.834.303c-.184-.28-.144-.643-.14-1.781V29.172c-.004-1.142-.044-1.5.14-1.781.383-.587 1.834.302 1.834.302l9.924 5.64.48.276c.412.202 1.02.414 1.504.255.824-.268 5.226-2.82 5.226-2.82s.795-.396.851-.761c.063-.412-.33-.662-.655-.846L9.32 17.027s-1.616-.97-3.232-.053c-.393.225-1.591 1.051-1.585 3.622L4.5 32.354v7.716l.003 11.758c-.003 2.57 1.192 3.397 1.585 3.622 1.616.914 3.232-.056 3.232-.056L36 40.182l9.89-5.653 12.357-7.02s1.447-.892 1.831-.305c.184.284.144.642.14 1.784v14.257c0 1.142.044 1.5-.14 1.785-.384.586-1.831-.303-1.831-.303l-9.924-5.64-.48-.272c-.412-.202-1.018-.415-1.501-.259-.824.272-5.226 2.82-5.226 2.82s-.798.4-.854.765c-.06.412.33.661.655.845l21.766 12.408s1.616.97 3.229.056c.396-.225 1.591-1.052 1.588-3.622V36.21z"/></svg>