<svg xmlns="http://www.w3.org/2000/svg" width="729" height="229" fill="#E8FF8C"><path d="M24.832 46.27s15.152 9.214 17.996 9.896c2.843.692 5.355-1.127 5.355-1.127s44.735-26.902 45.223-27.198c-.145.089-.136.069 0 0 .282-.188.107-.07 0 0 2.444-1.414 4.119-1.552 4.577-1.562H98.627c.456.01 2.131.158 4.575 1.562-.106-.07-.282-.188 0 0 .137.069.157.089 0 0 .488.306 45.223 27.198 45.223 27.198s2.513 1.82 5.347 1.127c2.844-.682 18.005-9.897 18.005-9.897s2.045-1.482 0-3.193c-2.045-1.7-64.943-39.398-64.943-39.398l-4.236-2.373S100.145-.02 98.295 0C96.445-.01 94 1.305 94 1.305l-4.245 2.373S26.867 41.376 24.812 43.076c-2.035 1.71.02 3.193.02 3.193ZM171.796 181.903s-15.161-9.223-18.005-9.905c-2.842-.673-5.345 1.145-5.345 1.145s-44.737 26.893-45.223 27.199c.155-.088.136-.079 0 0-.282.178-.108.059 0 0-2.445 1.405-4.119 1.543-4.577 1.552h-.644c-.456-.009-2.133-.158-4.575-1.552.105.059.282.178 0 0-.137-.079-.147-.088 0 0-.488-.306-45.224-27.199-45.224-27.199s-2.512-1.818-5.356-1.145c-2.843.691-17.995 9.905-17.995 9.905s-2.055 1.484 0 3.184c2.055 1.711 64.942 39.408 64.942 39.408l4.245 2.373s2.445 1.325 4.295 1.304c1.849.021 4.304-1.304 4.304-1.304l4.236-2.373s62.898-37.697 64.943-39.408c2.034-1.7-.021-3.184-.021-3.184Z"/><path d="m196.648 102.524-.009-37.262c.009-8.147-3.721-10.767-4.958-11.479-5.035-2.896-10.079.168-10.079.168L98.314 102.15l-30.868 17.924-38.563 22.255s-4.528 2.827-5.726.959c-.575-.89-.448-2.037-.439-5.645V92.45c-.01-3.618-.136-4.755.439-5.645 1.198-1.859 5.726.959 5.726.959l30.976 17.875 1.5.87c1.285.642 3.184 1.315 4.694.811 2.57-.851 16.31-8.938 16.31-8.938s2.484-1.256 2.659-2.413c.194-1.304-1.033-2.095-2.045-2.679L15.045 53.962s-5.044-3.075-10.089-.169C3.73 54.505-.01 57.125.01 65.272L0 102.534V126.984l.01 37.262c-.01 8.147 3.72 10.767 4.946 11.48 5.045 2.895 10.089-.178 10.089-.178l83.279-48.208 30.869-17.915 38.573-22.245s4.518-2.827 5.715-.969c.574.9.448 2.037.439 5.656v45.181c0 3.619.135 4.756-.439 5.655-1.197 1.859-5.715-.958-5.715-.958l-30.977-17.876-1.5-.86c-1.285-.642-3.174-1.314-4.684-.82-2.571.86-16.31 8.937-16.31 8.937s-2.494 1.266-2.669 2.423c-.185 1.305 1.032 2.095 2.044 2.679l67.942 39.32s5.044 3.073 10.08.178c1.237-.713 4.966-3.333 4.956-11.48V102.524ZM339.25 83.03a3.46 3.46 0 0 1 3.46-3.46h13.838a3.46 3.46 0 0 1 3.46 3.46v90.708a3.46 3.46 0 0 1-3.46 3.459H342.71a3.46 3.46 0 0 1-3.46-3.459V83.029ZM712.544 80.333c2.244-1.811 5.525-.195 5.525 2.722v17.911a3.556 3.556 0 0 1-1.318 2.769l-90.391 72.637c-2.237 1.798-5.5.199-5.518-2.704l-.11-17.516a3.558 3.558 0 0 1 1.313-2.788l90.499-73.031ZM658.661 112.291a4 4 0 0 0-.031-6.25l-31.96-25.669c-2.248-1.78-5.5-.153-5.5 2.752l.053 18.904a3.55 3.55 0 0 0 1.332 2.78l20.297 16.077a3.998 3.998 0 0 0 4.996-.023l10.813-8.571ZM680.425 150.585a4 4 0 0 1-.017-6.249l10.396-8.376a4 4 0 0 1 4.994-.015l20.877 16.507a3.547 3.547 0 0 1 1.335 2.782l-.05 17.895c0 2.906-3.255 4.533-5.502 2.75l-32.033-25.294ZM480.232 83.164a3.46 3.46 0 0 1 3.46-3.46h13.838a3.46 3.46 0 0 1 3.46 3.46v90.523a3.46 3.46 0 0 1-3.46 3.459h-13.838a3.459 3.459 0 0 1-3.459-3.459l-.001-90.523ZM525.206 55.98a3.46 3.46 0 0 1 3.46-3.46h13.838a3.46 3.46 0 0 1 3.46 3.46v117.696a3.46 3.46 0 0 1-3.46 3.46h-13.838a3.459 3.459 0 0 1-3.459-3.46l-.001-117.697Z"/><path d="M582.266 82.212a6.92 6.92 0 0 1 5.313-2.487h16.297c2.937 0 4.538 3.429 2.653 5.68l-61.178 73.079-12.963-11.162a3.46 3.46 0 0 1-.399-4.838l50.277-60.272ZM313.304 79.57a3.459 3.459 0 0 1 3.459 3.46v13.837c0 1.911-1.548 3.46-3.459 3.46h-51.893a3.46 3.46 0 0 1-3.46-3.46V83.03a3.46 3.46 0 0 1 3.46-3.46h51.893Z"/><path d="M297.736 55.981a3.46 3.46 0 0 0-3.46-3.46h-13.838a3.46 3.46 0 0 0-3.459 3.46v100.44c0 11.464 9.293 20.757 20.757 20.757h19.027a3.46 3.46 0 0 0 3.46-3.46V159.88a3.46 3.46 0 0 0-3.46-3.459h-8.648c-5.732 0-10.379-4.647-10.379-10.379v-90.06Z"/><path fill-rule="evenodd" d="M359.489 92.419c9.87-7.86 21.725-11.94 31.66-12.719 1.905-.149 3.454 1.411 3.454 3.322V96.86c0 1.91-1.553 3.45-3.447 3.706-5.611.759-12.72 3.3-18.737 8.091-6.973 5.552-12.411 14.028-12.411 26.704H339.25c0-19.626 8.833-33.86 20.239-42.942ZM451.691 100.018c-15.763 0-28.541 12.778-28.541 28.541s12.778 28.541 28.541 28.541 28.541-12.778 28.541-28.541-12.778-28.541-28.541-28.541Zm-49.298 28.541c0-27.227 22.071-49.298 49.298-49.298s49.299 22.071 49.299 49.298-22.072 49.299-49.299 49.299-49.298-22.072-49.298-49.299Z" clip-rule="evenodd"/><path d="m548.6 132.489 32.28 42.006a6.917 6.917 0 0 0 5.488 2.706h15.83c2.872 0 4.494-3.298 2.74-5.572l-41.276-53.484c-5.555 5.425-11.679 11.32-15.062 14.344Z"/></svg>