<svg xmlns="http://www.w3.org/2000/svg" width="72" height="72" fill="#aaccff"><rect width="72" height="72" ry="9.865"/><g fill="#fff"><path d="M14.817 16.74s4.368 2.616 5.188 2.81c.82.197 1.545-.32 1.545-.32l13.039-7.724c-.042.026-.039.02 0 0 .08-.054.031-.02 0 0 .705-.4 1.188-.44 1.32-.443h.186c.13.002.614.045 1.319.443-.03-.02-.081-.054 0 0 .04.02.045.026 0 0 .14.087 13.04 7.724 13.04 7.724s.724.517 1.54.32c.82-.194 5.192-2.81 5.192-2.81s.59-.421 0-.907c-.59-.483-18.724-11.189-18.724-11.189l-1.223-.674s-.707-.376-1.24-.37c-.534-.003-1.238.37-1.238.37l-1.224.675S15.403 15.35 14.81 15.833c-.586.486.006.907.006.907zm42.366 38.52s-4.371-2.62-5.19-2.813c-.82-.192-1.543.324-1.543.324s-12.898 7.638-13.039 7.725c.045-.025.04-.022 0 0-.08.05-.03.017 0 0-.704.399-1.188.438-1.32.441h-.185c-.132-.003-.614-.045-1.319-.44.03.016.081.05 0 0-.04-.023-.042-.026 0 0-.14-.088-13.04-7.726-13.04-7.726s-.724-.516-1.544-.324c-.82.196-5.188 2.813-5.188 2.813s-.593.421 0 .904c.592.486 18.724 11.191 18.724 11.191l1.224.675s.705.375 1.239.369c.534.006 1.242-.369 1.242-.369l1.22-.675S56.6 56.65 57.19 56.164c.586-.483-.007-.904-.007-.904z"/><path d="M64.35 32.716l-.003-10.582c.003-2.313-1.072-3.058-1.429-3.26-1.452-.823-2.906.048-2.906.048L35.997 32.61l-8.9 5.09-11.12 6.32s-1.304.804-1.65.273c-.165-.252-.13-.58-.126-1.603V29.855c-.003-1.028-.04-1.35.126-1.603.345-.528 1.65.272 1.65.272L24.91 33.6l.432.248c.371.182.918.373 1.354.23.742-.242 4.703-2.538 4.703-2.538s.716-.357.766-.685c.057-.371-.297-.596-.59-.762L11.989 18.924s-1.454-.873-2.909-.047c-.353.202-1.432.945-1.426 3.26L7.65 32.718v6.944l.003 10.582c-.003 2.313 1.073 3.057 1.426 3.26 1.455.823 2.909-.05 2.909-.05L36 39.764l8.901-5.088 11.121-6.318s1.303-.803 1.648-.274c.166.255.13.577.126 1.605V42.52c0 1.028.04 1.35-.126 1.607-.345.527-1.648-.273-1.648-.273l-8.931-5.076-.432-.245c-.371-.181-.916-.373-1.351-.233-.742.245-4.704 2.538-4.704 2.538s-.718.36-.768.689c-.054.37.297.595.59.76l19.589 11.168s1.454.873 2.906.05c.356-.203 1.432-.947 1.429-3.26V36.19z"/></g></svg>