<svg xmlns="http://www.w3.org/2000/svg" width="41" height="41" fill="none"><defs><clipPath id="a"><path fill="#fff" d="M.004.002h40v40h-40z"/></clipPath></defs><g clip-path="url(#a)" transform="translate(.171 .173) scale(1.01623)"><path fill="#3a82ff" d="M20.004 40.002c11.046 0 20-8.954 20-20s-8.954-20-20-20-20 8.954-20 20 8.954 20 20 20z"/><path d="M32.06 130.246c-24.279-2.942-46.298-11.12-64-23.771-8.11-5.795-22.319-19.81-28.152-27.767C-71.69 62.886-81.44 37.497-81.44 23.119v-4.511l5.75.3 5.75.3 1.684 8.435c3.617 18.116 8.64 30.048 18.338 43.565 5.832 8.129 9.85 12.5 11.489 12.5.499 0 7.51-4.95 15.58-11 8.069-6.05 14.994-11 15.387-11 .394 0 1.798.96 3.12 2.133 12.27 10.891 31.948 17.867 50.402 17.867 14.766 0 32.778-5.077 42.453-11.966 3.27-2.328 5.666-2.582 7.385-.784 6.41 6.707 29.22 34.299 29.418 35.584.323 2.105-4.913 5.814-16.958 12.011-15.864 8.163-27.21 11.512-46.298 13.668-14.853 1.677-16.362 1.678-30 .026zm-69.065-67.359c-2.728-1.942-9.986-15.754-12.951-24.645-2.442-7.321-4.485-19.34-4.485-26.385 0-8.022-.142-8.15-9.081-8.15h-5.919V-.663c0-2.405 1.103-8.717 2.45-14.027 8.957-35.313 38.597-66.084 75.05-77.915 24.527-7.96 55.688-7.81 79.508.382 7.505 2.58 23.907 10.888 27.999 14.18a370.242 370.242 0 0 0 6.07 4.752c6.238 4.764 11.923 10.244 11.923 11.491 0 .69-3.262 3.86-7.25 7.045-13.162 10.514-22.181 17.925-25.237 20.737-4.751 4.373-6.91 4.46-11.774.48C73.953-46.1 56.796-51.026 37.224-48.488c-17.396 2.256-29.9 8.782-41.263 21.535-8.698 9.764-13.14 20.408-14.024 33.606-.752 11.236.722 19.471 5.12 28.618 1.978 4.11 3.32 7.923 2.98 8.47-.573.929-16.17 12.91-23.033 17.695-1.68 1.171-3.484 1.824-4.01 1.45z" style="fill:#000;stroke-width:.999999"/><path d="M-65.91 105.524c-24.277-2.943-46.296-11.121-64-23.772-8.109-5.794-22.317-19.81-28.15-27.767-11.599-15.822-21.35-41.21-21.35-55.588v-4.512l5.75.3 5.75.3 1.685 8.436c3.617 18.116 8.64 30.048 18.337 43.565 5.832 8.128 9.85 12.5 11.489 12.5.499 0 7.51-4.95 15.58-11 8.069-6.05 14.994-11 15.388-11 .393 0 1.797.96 3.118 2.133 12.27 10.89 31.949 17.867 50.403 17.867 14.767 0 32.778-5.077 42.453-11.967 3.27-2.328 5.666-2.582 7.385-.783 6.41 6.706 29.221 34.298 29.418 35.583.323 2.105-4.913 5.814-16.958 12.012-15.864 8.162-27.209 11.511-46.298 13.667-14.853 1.678-16.362 1.679-30 .027zm-69.064-67.36c-2.728-1.942-9.986-15.753-12.951-24.644-2.442-7.321-4.484-19.34-4.484-26.386 0-8.021-.143-8.149-9.082-8.149h-5.918v-4.372c0-2.404 1.102-8.716 2.449-14.027 8.958-35.312 38.597-66.083 75.05-77.914 24.528-7.96 55.688-7.811 79.508.381 7.505 2.581 23.907 10.889 27.999 14.181a370.242 370.242 0 0 0 6.07 4.751c6.238 4.764 11.924 10.244 11.924 11.492 0 .69-3.263 3.86-7.25 7.045C15.178-68.965 6.159-61.554 3.104-58.742c-4.752 4.374-6.91 4.461-11.775.48-15.345-12.56-32.501-17.486-52.074-14.947-17.395 2.255-29.9 8.782-41.263 21.535-8.698 9.763-13.14 20.408-14.024 33.605-.752 11.236.722 19.472 5.121 28.618 1.977 4.111 3.318 7.923 2.98 8.471-.574.928-16.172 12.91-23.034 17.694-1.68 1.172-3.484 1.824-4.01 1.45z" style="fill:#000;stroke-width:.999999"/></g><path d="M19.626 32.333c-2.526-.306-4.816-1.157-6.658-2.473-.844-.603-2.322-2.06-2.929-2.889-1.206-1.646-2.22-4.287-2.22-5.783v-.47l.597.032.599.031.175.878c.376 1.885.899 3.126 1.908 4.532.606.846 1.024 1.3 1.195 1.3.052 0 .781-.514 1.62-1.144.84-.63 1.56-1.144 1.602-1.144.04 0 .187.1.324.222 1.277 1.133 3.324 1.859 5.244 1.859 1.536 0 3.41-.529 4.416-1.245.34-.243.59-.269.769-.082.667.698 3.04 3.568 3.06 3.702.034.22-.51.605-1.764 1.25-1.65.849-2.83 1.197-4.817 1.422-1.545.174-1.702.174-3.12.002zm-7.185-7.007c-.284-.203-1.039-1.64-1.347-2.564-.254-.762-.467-2.013-.467-2.745 0-.835-.015-.848-.945-.848h-.615v-.455c0-.25.114-.907.254-1.46.932-3.673 4.016-6.875 7.808-8.105 2.552-.829 5.794-.813 8.272.04.78.268 2.487 1.132 2.913 1.475.16.128.444.35.632.494.648.496 1.24 1.066 1.24 1.195 0 .072-.34.402-.754.733-1.37 1.094-2.308 1.865-2.626 2.158-.494.455-.719.464-1.225.05-1.596-1.307-3.381-1.82-5.417-1.555-1.81.234-3.111.913-4.293 2.24-.905 1.016-1.367 2.123-1.46 3.496-.077 1.17.076 2.026.533 2.978.206.427.346.824.31.88-.06.097-1.682 1.344-2.396 1.842-.175.122-.362.19-.417.15z" style="fill:#000;stroke-width:.104036"/></svg>