<svg xmlns="http://www.w3.org/2000/svg" xml:space="preserve" width="41" height="41" fill="none"><defs><clipPath id="a"><path fill="#fff" d="M.004.002h40v40h-40z"/></clipPath></defs><g clip-path="url(#a)" style="fill:#ff9148;fill-opacity:1" transform="translate(.171 .173) scale(1.01623)"><path fill="#3a82ff" d="M20.004 40.002c11.046 0 20-8.954 20-20s-8.954-20-20-20-20 8.954-20 20 8.954 20 20 20z" style="fill:#ff9148;fill-opacity:1"/><path d="M-65.91 105.524c-24.277-2.943-46.296-11.121-64-23.772-8.109-5.794-22.317-19.81-28.15-27.767-11.599-15.822-21.35-41.21-21.35-55.588v-4.512l5.75.3 5.75.3 1.685 8.436c3.617 18.116 8.64 30.048 18.337 43.565 5.832 8.128 9.85 12.5 11.489 12.5C-91.27 15.129 19.966 66.1 27.346 79.819c.323 2.105-4.913 5.814-16.958 12.012-15.864 8.162-27.209 11.511-46.298 13.667-14.853 1.678-16.362 1.679-30 .027zm-69.064-67.36c-2.728-1.942-9.986-15.753-12.951-24.644-2.442-7.321-4.484-19.34-4.484-26.386 0-8.021-.143-8.149-9.082-8.149h-5.918v-4.372c0-2.404 1.102-8.716 2.449-14.027 8.958-35.312 38.597-66.083 75.05-77.914 24.528-7.96 55.688-7.811 79.508.381 7.505 2.581 23.907 10.889 27.999 14.181a370.242 370.242 0 0 0 6.07 4.751c6.238 4.764 11.924 10.244 11.924 11.492-164.938 9.396-86.045 66.66-166.556 123.237-1.68 1.172-3.484 1.824-4.01 1.45z" style="fill:#ff9148;fill-opacity:1;stroke-width:.999999"/></g><path d="m15.352 32.266-.373-.25c-4.698-3.164-4.438-10.258.48-13.13l.392-.23v-6.712h-.408c-2.509 0-3.126-3.369-.762-4.165.525-.177 9.279-.188 9.842-.013 2.588.806 1.754 4.178-1.034 4.178h-.69v6.689l.433.255c.237.14.62.396.849.569l.417.314.462-.462.462-.462-.095-.239c-.424-1.059.522-2.09 1.624-1.77.346.1 2.868 2.48 3.323 3.135.762 1.097-.338 2.504-1.572 2.01l-.238-.095-.81.804c-.746.743-.806.818-.778.979l.123.666c.52 2.803-.611 5.18-2.277 6.968-1.235 1.326-2.665 1.986-5.037 2.05-2.664.066-3.634-.617-4.333-1.089zm5.073-.057c2.915-.462 5.233-2.902 5.57-5.86.076-.67.102-.632-.532-.763-.779-.16-2.076-.617-3.3-1.164-2.945-1.315-3.133-1.335-4.923-.52-.91.415-2.281.87-3.583 1.192l-1.007.248.033.67c.191 3.894 3.843 6.817 7.742 6.197zm-3.764-2.17c-1.296-.582-.87-2.55.55-2.539 1.704.012 1.765 2.547.064 2.613-.279.01-.476-.013-.614-.075zm.72-1.045c.175-.175.074-.43-.17-.43a.31.31 0 0 0-.19.07.31.31 0 0 0-.07.19c0 .244.255.345.43.17zm4.794-.515c-1.09-.34-1.276-1.806-.302-2.39a1.305 1.305 0 0 1 1.69.269c.862 1.007-.124 2.515-1.388 2.12zm.555-1.085c.096-.096.087-.307-.017-.393-.116-.096-.36-.028-.405.113-.082.257.235.467.422.28zm-3.966-.071c-.544-.254-.858-.897-.716-1.468.388-1.562 2.609-1.288 2.609.321 0 .96-.997 1.564-1.893 1.147zm.76-.993c.187-.187.071-.43-.204-.43-.333 0-.29.511.044.52.038 0 .11-.04.16-.09zm6.367-2.124a7.315 7.315 0 0 0-.14-.53c-.142-.422-.125-.45.942-1.523l.997-1.003-.765-.766-.766-.766-.71.705c-.9.894-.958.906-1.608.329-.48-.426-1.001-.782-1.544-1.055-.587-.295-.54.061-.54-4.046v-3.607h-4.806v3.565c0 4.143.053 3.79-.624 4.132-1.62.819-2.878 2.315-3.379 4.016-.072.245-.115.46-.096.48.12.12 2.996-.793 4.082-1.296 1.848-.855 2.574-.806 5.142.35 1.657.746 2.292.988 3.243 1.236.71.185.669.201.572-.22zm3.456-3.23c.255-.137.144-.286-1.281-1.722-1.448-1.459-1.587-1.561-1.736-1.284-.035.065-.054.146-.044.179.03.088 2.838 2.887 2.898 2.887a.505.505 0 0 0 .163-.06zm-4.92-10.26c.685-.401.695-1.42.019-1.817l-.238-.14H15.027l-.231.13c-.824.463-.617 1.76.311 1.95.094.018 2.172.032 4.618.03l4.446-.004.256-.15z" style="fill:#000;stroke:#000;stroke-width:.258;stroke-dasharray:none;stroke-opacity:1"/></svg>