<svg width="40" height="40" viewBox="0 0 40 40" fill="none" xmlns="http://www.w3.org/2000/svg">
<g clip-path="url(#clip0_517_183)">
<path d="M19.7016 40C25.006 40 30.093 37.8929 33.8438 34.1421C37.5945 30.3914 39.7016 25.3043 39.7016 20C39.7016 14.6957 37.5945 9.60859 33.8438 5.85786C30.093 2.10714 25.006 0 19.7016 0C-6.60221 0.362812 -6.60221 39.6334 19.7016 39.9962V40Z" fill="#FFAAE4"/>
<path d="M17.6341 25.7518C16.7508 25.7518 15.8885 25.4154 15.2156 24.7634C13.8906 23.4175 13.8906 21.2513 15.2156 19.9264L20.9989 14.143H11.1146C10.4837 14.143 10 14.6477 10 15.2576V28.8644C10 29.4953 10.5047 29.979 11.1146 29.979H24.7003C25.3312 29.979 25.8149 29.4742 25.8149 28.8644V18.98L20.0526 24.7634C19.3796 25.4154 18.5174 25.7518 17.6341 25.7518Z" fill="#21242A"/>
<path d="M28.8644 10H22.1346C21.5247 10 21.02 10.5047 21.02 11.1146C21.02 11.7245 21.5247 12.2292 22.1346 12.2292H26.1725L16.8559 21.5457C16.4143 21.9874 16.4143 22.6814 16.8559 23.123C17.0663 23.3333 17.3607 23.4595 17.6551 23.4595C17.9495 23.4595 18.2229 23.3544 18.4543 23.123L27.7708 13.8065V17.8444C27.7708 18.4543 28.2755 18.959 28.8854 18.959C29.4953 18.959 30 18.4543 30 17.8444V11.1146C29.979 10.5047 29.4742 10 28.8644 10Z" fill="#21242A"/>
</g>
<defs>
<clipPath id="clip0_517_183">
<rect width="40" height="40" fill="white"/>
</clipPath>
</defs>
</svg>
