<svg width="40" height="40" viewBox="0 0 40 40" fill="none" xmlns="http://www.w3.org/2000/svg">
<g clip-path="url(#clip0_515_104)">
<path d="M20 40C25.3043 40 30.3914 37.8929 34.1421 34.1421C37.8929 30.3914 40 25.3043 40 20C40 14.6957 37.8929 9.60859 34.1421 5.85786C30.3914 2.10714 25.3043 0 20 0C14.6957 0 9.60859 2.10714 5.85786 5.85786C2.10714 9.60859 0 14.6957 0 20C0 25.3043 2.10714 30.3914 5.85786 34.1421C9.60859 37.8929 14.6957 40 20 40Z" fill="#57C4A6"/>
<path d="M30.2141 26.7137H28.6427V24.3565C28.6427 23.4899 27.9379 22.7851 27.0713 22.7851H25.4999C24.6333 22.7851 23.9285 23.4899 23.9285 24.3565V26.7137H22.3571V22.7851C22.3571 21.9185 21.6522 21.2137 20.7857 21.2137H19.2143C18.3477 21.2137 17.6429 21.9185 17.6429 22.7851V26.7137H16.0715V13.357C16.0715 12.4904 15.3666 11.7856 14.5001 11.7856H12.9286C12.0621 11.7856 11.3572 12.4904 11.3572 13.357V26.714H9.78584C9.35199 26.714 9 27.0657 9 27.4999C9 27.934 9.35171 28.2857 9.78584 28.2857H30.2141C30.6479 28.2857 30.9999 27.934 30.9999 27.4999C30.9999 27.0657 30.6482 26.714 30.2141 26.714V26.7137Z" fill="#21242A"/>
<path d="M30.7695 21.4442L27.768 18.4427C28.3167 17.6722 28.6427 16.7322 28.6427 15.7142C28.6427 13.1106 26.5321 11 23.9285 11C21.3248 11 19.2143 13.1106 19.2143 15.7142C19.2143 18.3179 21.3248 20.4284 23.9285 20.4284C24.9465 20.4284 25.8865 20.1024 26.657 19.5537L29.6584 22.5552C29.8118 22.7086 30.013 22.7854 30.2141 22.7854C30.4152 22.7854 30.6161 22.7086 30.7697 22.5552C31.0768 22.2482 31.0765 21.7512 30.7695 21.4442ZM23.9282 18.857C22.1925 18.857 20.7854 17.4499 20.7854 15.7142C20.7854 13.9785 22.1925 12.5714 23.9282 12.5714C25.6639 12.5714 27.071 13.9785 27.071 15.7142C27.071 17.4499 25.6639 18.857 23.9282 18.857Z" fill="#21242A"/>
</g>
<defs>
<clipPath id="clip0_515_104">
<rect width="40" height="40" fill="white"/>
</clipPath>
</defs>
</svg>
