<svg width="40" height="40" viewBox="0 0 40 40" fill="none" xmlns="http://www.w3.org/2000/svg">
<g clip-path="url(#clip0_515_29)">
<path d="M20 40C25.3043 40 30.3914 37.8929 34.1421 34.1421C37.8929 30.3914 40 25.3043 40 20C40 14.6957 37.8929 9.60859 34.1421 5.85786C30.3914 2.10714 25.3043 0 20 0C14.6957 0 9.60859 2.10714 5.85786 5.85786C2.10714 9.60859 0 14.6957 0 20C0 25.3043 2.10714 30.3914 5.85786 34.1421C9.60859 37.8929 14.6957 40 20 40Z" fill="#FF4B55"/>
<path d="M20.0059 16.4412C18.0514 16.4412 16.4737 18.0189 16.4737 19.9734C16.4737 21.4569 17.3921 22.705 18.6636 23.2466V24.4946C18.6636 24.5652 18.6872 24.6123 18.7343 24.6594L19.3936 25.3188C19.4878 25.413 19.4878 25.5543 19.3936 25.6249L18.7343 26.3078C18.6872 26.3549 18.6636 26.402 18.6636 26.4726V27.1084C18.6636 27.1791 18.6872 27.2262 18.7343 27.2733L19.3936 27.9326C19.4878 28.0268 19.4878 28.1681 19.3936 28.2387L18.7343 28.8981C18.6872 28.9452 18.6636 28.9923 18.6636 29.0629V29.9813C18.6636 30.0284 18.6872 30.099 18.7343 30.1461L19.841 31.3235C19.9352 31.4177 20.0765 31.4177 20.1707 31.3235L21.2775 30.1461C21.3246 30.099 21.3481 30.0519 21.3481 29.9813V23.2466C22.6433 22.7285 23.5381 21.4569 23.5381 19.9734C23.5381 18.0189 21.9604 16.4412 20.0059 16.4412ZM20.0059 19.8085C19.4643 19.8085 19.0169 19.3611 19.0169 18.8195C19.0169 18.2779 19.4643 17.8305 20.0059 17.8305C20.5475 17.8305 20.9949 18.2779 20.9949 18.8195C20.9949 19.3611 20.5475 19.8085 20.0059 19.8085Z" fill="#21242A"/>
<path d="M10.7515 20.515H14.2602C14.5427 20.515 14.7782 20.2795 14.7782 19.9969C14.7782 19.7143 14.5427 19.4789 14.2602 19.4789H10.7515L11.1989 19.0315C11.4109 18.8195 11.3873 18.5134 11.1989 18.3015C10.987 18.0895 10.6809 18.0895 10.4689 18.3015L9.15025 19.6202C8.93832 19.8321 8.96186 20.1382 9.15025 20.3501L10.4689 21.6688C10.5631 21.763 10.7044 21.8101 10.8222 21.8101C10.9634 21.8101 11.0812 21.763 11.1754 21.6688C11.3873 21.4569 11.3873 21.1508 11.1754 20.9388L10.7515 20.515Z" fill="#21242A"/>
<path d="M30.8615 19.6202L29.5428 18.3015C29.3309 18.0895 29.0248 18.0895 28.8128 18.3015C28.6245 18.5134 28.6009 18.8195 28.8128 19.0315L29.2603 19.4789H25.7516C25.469 19.4789 25.2335 19.7143 25.2335 19.9969C25.2335 20.2795 25.469 20.515 25.7516 20.515H29.2603L28.8128 20.9624C28.6009 21.1743 28.6009 21.4804 28.8128 21.6924C28.907 21.7866 29.0483 21.8337 29.1661 21.8337C29.2838 21.8337 29.4251 21.7866 29.5193 21.6924L30.838 20.3737C31.0499 20.1618 31.0499 19.8321 30.8615 19.6202Z" fill="#21242A"/>
<path d="M19.0404 11.19L19.4878 10.7426V14.2512C19.4878 14.5338 19.7233 14.7693 20.0059 14.7693C20.2885 14.7693 20.5239 14.5338 20.5239 14.2512V10.7426L20.9714 11.19C21.0655 11.2842 21.2068 11.3313 21.3246 11.3313C21.4423 11.3313 21.5836 11.2842 21.6778 11.19C21.8897 10.978 21.8897 10.6719 21.6778 10.46L20.3591 9.14129C20.1707 8.9529 19.8175 8.9529 19.6291 9.14129L18.3104 10.46C18.0985 10.6719 18.122 10.978 18.3104 11.19C18.5224 11.3784 18.852 11.3784 19.0404 11.19Z" fill="#21242A"/>
<path d="M13.8363 13.0973H14.4721C14.7547 13.0973 14.9902 12.8619 14.9902 12.5793C14.9902 12.2967 14.7547 12.0612 14.4721 12.0612H12.6118C12.3292 12.0612 12.0938 12.2967 12.0938 12.5793V14.4396C12.0938 14.7222 12.3292 14.9576 12.6118 14.9576C12.8944 14.9576 13.1299 14.7222 13.1299 14.4396V13.8038L15.6024 16.2763C15.6966 16.3705 15.8379 16.4176 15.9556 16.4176C16.0969 16.4176 16.2147 16.3705 16.3088 16.2763C16.5208 16.0644 16.5208 15.7583 16.3088 15.5463L13.8363 13.0973Z" fill="#21242A"/>
<path d="M27.4235 25.0362C27.1409 25.0362 26.9055 25.2717 26.9055 25.5543V26.1901L24.4329 23.694C24.221 23.482 23.9149 23.482 23.7029 23.694C23.491 23.9059 23.491 24.212 23.7029 24.424L26.1755 26.8965H25.5397C25.2571 26.8965 25.0216 27.132 25.0216 27.4146C25.0216 27.6971 25.2571 27.9326 25.5397 27.9326H27.4C27.6825 27.9326 27.918 27.6971 27.918 27.4146V25.5543C27.9416 25.2481 27.7061 25.0362 27.4235 25.0362Z" fill="#21242A"/>
<path d="M24.0797 16.4412C24.221 16.4412 24.3387 16.3941 24.4329 16.2999L26.9055 13.8273V14.4631C26.9055 14.7457 27.1409 14.9812 27.4235 14.9812C27.7061 14.9812 27.9416 14.7457 27.9416 14.4631V12.6028C27.9416 12.3203 27.7061 12.0848 27.4235 12.0848H25.5632C25.2806 12.0848 25.0452 12.3203 25.0452 12.6028C25.0452 12.8854 25.2806 13.1209 25.5632 13.1209H26.199L23.7029 15.5699C23.491 15.7818 23.491 16.088 23.7029 16.2999C23.7971 16.3941 23.9384 16.4412 24.0797 16.4412Z" fill="#21242A"/>
<path d="M15.5789 23.694L13.1063 26.1665V25.5307C13.1063 25.2481 12.8708 25.0127 12.5883 25.0127C12.3057 25.0127 12.0702 25.2481 12.0702 25.5307V27.391C12.0702 27.6736 12.3057 27.9091 12.5883 27.9091H14.4486C14.7311 27.9091 14.9666 27.6736 14.9666 27.391C14.9666 27.1084 14.7311 26.873 14.4486 26.873H13.8128L16.3088 24.424C16.5208 24.212 16.5208 23.9059 16.3088 23.694C16.0969 23.482 15.7908 23.482 15.5789 23.694Z" fill="#21242A"/>
</g>
<defs>
<clipPath id="clip0_515_29">
<rect width="40" height="40" fill="white"/>
</clipPath>
</defs>
</svg>
