<svg xmlns="http://www.w3.org/2000/svg" width="40" height="40" fill="none"><path fill="#3a82ff" d="M14.83 40c11.047 0 20-8.954 20-20s-8.953-20-20-20c-11.045 0-20 8.954-20 20s8.955 20 20 20z" style="stroke-width:.999999" transform="translate(5.17)"/><path d="M5.874 30.154c-.479-.192-1.822-1.21-2.55-1.933C1.8 26.706.775 24.848.246 22.639c-.159-.663-.188-1.04-.19-2.46-.002-1.105.037-1.855.113-2.195.692-3.081 2.405-5.652 4.868-7.307.633-.425.832-.516 1.2-.543.987-.072 1.61.836 1.181 1.722-.146.3-.33.475-.892.84-.84.547-1.955 1.629-2.47 2.395-.5.745-1.058 1.966-1.304 2.85-.178.644-.202.913-.198 2.238.003 1.263.033 1.611.187 2.166.61 2.2 1.933 4.05 3.768 5.272.4.266.787.575.86.686.39.596.143 1.482-.494 1.771-.402.182-.688.205-1 .08zm16.868-.396c-.434-.213-.658-.59-.657-1.1.001-.587.167-.807 1.046-1.392 1.821-1.212 3.16-3.099 3.736-5.265.227-.854.307-2.611.16-3.524-.409-2.558-1.819-4.726-4.016-6.177-.598-.394-.724-.52-.85-.849-.324-.851.235-1.684 1.132-1.684.918 0 3.232 1.934 4.376 3.657 1.31 1.975 1.937 4.05 1.937 6.417.001 3.024-1.14 5.837-3.226 7.958-1.137 1.155-2.533 2.105-3.089 2.1a1.524 1.524 0 0 1-.549-.14zm-9.326-2.01c-2.525-.426-4.854-2.231-5.924-4.592-.534-1.177-.644-1.756-.638-3.365.004-1.336.024-1.528.237-2.22.977-3.183 3.685-5.43 6.901-5.726 3.921-.36 7.375 1.958 8.532 5.727.212.691.233.883.237 2.22.005 1.272-.02 1.55-.189 2.132-.859 2.964-3.171 5.148-6.085 5.75-.812.167-2.305.204-3.07.074z" style="fill:#000;fill-opacity:1;stroke-width:.0860425" transform="translate(5.17)"/></svg>