<svg width="40" height="40" viewBox="0 0 40 40" fill="none" xmlns="http://www.w3.org/2000/svg">
<g clip-path="url(#clip0_515_64)">
<path d="M19.7071 40C22.3567 40.0364 24.9871 39.546 27.4455 38.5573C29.904 37.5685 32.1415 36.1011 34.028 34.2403C35.9145 32.3796 37.4125 30.1625 38.435 27.7178C39.4574 25.2732 39.984 22.6498 39.984 20C39.984 17.3502 39.4574 14.7268 38.435 12.2821C37.4125 9.83753 35.9145 7.62043 34.028 5.75965C32.1415 3.89886 29.904 2.43148 27.4455 1.44273C24.9871 0.453979 22.3567 -0.0364269 19.7071 -2.12074e-06C14.4504 0.072264 9.43349 2.2112 5.74172 5.95407C2.04995 9.69694 -0.0198212 14.7428 -0.0198212 20C-0.0198212 25.2572 2.04995 30.3031 5.74172 34.0459C9.43349 37.7888 14.4504 39.9277 19.7071 40Z" fill="#8D0EF1"/>
<path d="M22.7326 19.1937C22.8716 19.3326 23.08 19.4253 23.2884 19.4253C23.4968 19.4253 23.7053 19.3326 23.8442 19.1705L26.8547 15.7432L27.8968 16.6695C28.2211 16.9705 28.7537 16.7853 28.8463 16.3453L29.7032 12.1305C29.7958 11.6905 29.379 11.3432 28.9621 11.4821L24.8863 12.8716C24.4695 13.0105 24.3537 13.5432 24.7011 13.8442L25.7432 14.7705L23.2421 17.5495L21.5516 15.859C21.3895 15.6969 21.1811 15.6274 20.9726 15.6505C20.7411 15.6505 20.5558 15.7663 20.4168 15.9284L17.7305 19.3095C18.1474 19.6105 18.5179 19.9811 18.8421 20.3747L21.0653 17.5495L22.7326 19.1937Z" fill="#21242A"/>
<path d="M14.6274 18.0358V10.7642C14.6274 10.3474 14.28 10 13.8632 10C13.4463 10 13.0989 10.3474 13.0989 10.7642V18.0358C13.3537 18.0126 13.6084 17.9895 13.8632 17.9895C14.1411 17.9895 14.3958 18.0126 14.6274 18.0358Z" fill="#21242A"/>
<path d="M30.2358 23.7095H20.2547C20.2779 23.9411 20.2779 24.1495 20.2779 24.3811C20.2779 24.6589 20.2547 24.96 20.2084 25.2379H30.2358C30.6526 25.2379 31 24.8905 31 24.4737C31 24.0568 30.6526 23.7095 30.2358 23.7095Z" fill="#21242A"/>
<path fill-rule="evenodd" clip-rule="evenodd" d="M9 24.4042C9 21.6947 11.2 19.5179 13.8863 19.5179C16.5726 19.5179 18.7495 21.6947 18.7726 24.4042C18.7726 27.1137 16.5726 29.2905 13.8863 29.2905C11.1768 29.2905 9 27.0905 9 24.4042ZM10.2692 24.4058C10.2692 22.4 11.8979 20.7885 13.8865 20.7885C15.8752 20.7885 17.4867 22.4 17.5038 24.4058C17.5038 26.4116 15.8752 28.0231 13.8865 28.0231C11.8807 28.0231 10.2692 26.3944 10.2692 24.4058Z" fill="#21242A"/>
<ellipse cx="13.8865" cy="24.4058" rx="2.34808" ry="2.34808" fill="#21242A"/>
</g>
<defs>
<clipPath id="clip0_515_64">
<rect width="40" height="40" fill="white"/>
</clipPath>
</defs>
</svg>
