<svg xmlns="http://www.w3.org/2000/svg" width="40" height="40" fill="none"><g clip-path="url(#a)"><path fill="#FF4B55" d="M20 40a20 20 0 1 0 0-40 20 20 0 0 0 0 40Z"/><path d="M19.306 30.95c-.164-.077-2.043-1.1-4.175-2.272a9518.947 9518.947 0 0 0-4.425-2.434c-.727-.398-.932-.576-1.13-.983-.135-.273-.167-.42-.167-.759.001-.785.31-1.176 1.398-1.776.378-.208.686-.415.686-.462 0-.047-.314-.26-.697-.475-.384-.215-.782-.47-.885-.569a1.694 1.694 0 0 1-.337-1.952c.207-.421.398-.582 1.266-1.061.375-.208.683-.41.683-.45 0-.041-.31-.244-.69-.452-.873-.48-1.052-.63-1.258-1.049-.134-.274-.166-.42-.166-.76 0-.497.144-.843.49-1.181.242-.236 9.125-5.16 9.603-5.323.32-.11.704-.111 1.005-.005.319.112 9.242 5.02 9.507 5.229.484.381.701 1.144.512 1.795-.146.502-.446.798-1.252 1.236-.377.205-.717.41-.754.454-.077.093.032.172.857.624.575.316.828.532 1.038.89.142.241.162.339.162.782 0 .848-.236 1.154-1.382 1.797-.388.218-.705.428-.705.467 0 .04.334.258.742.485.854.476.943.549 1.165.956.213.392.258.87.125 1.327-.163.563-.447.795-2.032 1.662-.754.413-2.808 1.54-4.562 2.505-1.755.965-3.282 1.786-3.394 1.824-.342.118-.893.086-1.228-.07zm5.427-3.495c2.46-1.351 4.533-2.523 4.607-2.605a.53.53 0 0 0 .134-.29c0-.3-.128-.432-.767-.792-1.227-.689-1.422-.789-1.544-.789-.068 0-1.566.795-3.33 1.765-3.527 1.94-3.587 1.967-4.192 1.81-.228-.06-1.415-.68-3.51-1.833-1.74-.958-3.222-1.742-3.294-1.742-.142 0-1.918.96-2.134 1.153-.174.156-.186.559-.021.735.062.067 1.692.99 3.623 2.052l4.524 2.487c.857.472 1.046.554 1.222.532.128-.017 1.946-.98 4.682-2.483zm-.03-4.489c2.61-1.433 4.51-2.511 4.607-2.615.202-.218.213-.47.03-.676-.134-.15-2.04-1.226-2.172-1.228-.039 0-1.501.787-3.25 1.748-1.75.962-3.273 1.78-3.384 1.82-.304.105-.892.085-1.169-.041-.196-.09-5.1-2.767-6.147-3.357-.167-.093-.336-.17-.377-.17-.106 0-2.03 1.07-2.162 1.202-.074.074-.11.197-.11.375 0 .23.026.285.194.41.205.154 8.555 4.754 8.96 4.937.143.065.298.093.388.07.082-.02 2.148-1.133 4.592-2.475zm-1.268-3.81c1.796-.986 3.85-2.116 4.563-2.51.714-.392 1.338-.772 1.387-.842.137-.195.109-.435-.075-.635-.165-.18-8.81-4.974-9.176-5.088-.152-.048-.237-.032-.477.09-.834.42-8.84 4.85-8.954 4.954-.202.184-.187.567.03.768.09.083 1.304.777 2.698 1.542l4.47 2.453c1.197.657 2 1.064 2.102 1.064.105 0 1.363-.659 3.432-1.795z" style="fill:#111;stroke-width:.86;stroke:#000;stroke-opacity:1;stroke-dasharray:none"/></g></svg>