<svg width="40" height="40" viewBox="0 0 40 40" fill="none" xmlns="http://www.w3.org/2000/svg">
<g clip-path="url(#clip0_514_14)">
<path d="M20 40C31.046 40 40 31.046 40 20C40 8.954 31.046 0 20 0C8.954 0 0 8.954 0 20C0 31.046 8.954 40 20 40Z" fill="#FFB845"/>
<path d="M19.5916 40C22.2411 40.0364 24.8715 39.546 27.33 38.5573C29.7884 37.5685 32.0259 36.1011 33.9124 34.2403C35.799 32.3796 37.297 30.1625 38.3194 27.7178C39.3419 25.2732 39.8684 22.6498 39.8684 20C39.8684 17.3502 39.3419 14.7268 38.3194 12.2821C37.297 9.83753 35.799 7.62043 33.9124 5.75965C32.0259 3.89886 29.7884 2.43148 27.33 1.44273C24.8715 0.453979 22.2411 -0.0364269 19.5916 -2.12074e-06C14.3349 0.072264 9.31793 2.2112 5.62617 5.95407C1.9344 9.69694 -0.135376 14.7428 -0.135376 20C-0.135376 25.2572 1.9344 30.3031 5.62617 34.0459C9.31793 37.7888 14.3349 39.9277 19.5916 40Z" fill="#FFB845"/>
<path d="M13.1031 26.2062C16.4738 26.2062 19.2062 23.4738 19.2062 20.1031C19.2062 16.7325 16.4738 14 13.1031 14C9.73246 14 7 16.7325 7 20.1031C7 23.4738 9.73246 26.2062 13.1031 26.2062Z" fill="#21242A" stroke="#FFB845" stroke-width="2"/>
<path d="M26.8969 26.2062C30.2675 26.2062 33 23.4738 33 20.1031C33 16.7325 30.2675 14 26.8969 14C23.5262 14 20.7938 16.7325 20.7938 20.1031C20.7938 23.4738 23.5262 26.2062 26.8969 26.2062Z" fill="#21242A" stroke="#FFB845" stroke-width="2"/>
<path d="M19.8339 26.2102C23.2045 26.2102 25.937 23.4777 25.937 20.1071C25.937 16.7364 23.2045 14.004 19.8339 14.004C16.4632 14.004 13.7307 16.7364 13.7307 20.1071C13.7307 23.4777 16.4632 26.2102 19.8339 26.2102Z" fill="#21242A" stroke="#FFB845" stroke-width="2"/>
</g>
<defs>
<clipPath id="clip0_514_14">
<rect width="40" height="40" fill="white"/>
</clipPath>
</defs>
</svg>
