<svg xmlns="http://www.w3.org/2000/svg" width="128" height="128" viewBox="0 0 24 24"><g fill="none"><path fill="#141414" d="M6.605 3.251Q7.65 2.182 8.793 1.215l2.304 1.028 6.131 2.887.247 3.135v1.08l.203-.178.502-.286.248.134.127 1.244c-.044.139-.14.444-.191.513-.064.076-.406 1.142-.572 1.663h-.315l-.622 2.513-.8 1.441v1.567l1.142 1.935 1.784 1.283c-.635-.228-1.948-.68-2.068-.68-.128 0-.382.616-.489.927l1.078.68-1.63-.464v-1.282l-.603.825-.338 1.466v-1.003l-.684-.583-1.333.583.634 2.102-1.25-2.096h-.19l-1.245.122-1.205-.591-.717.793-.691 1.27c.126-.47.355-1.422.329-1.472-.018-.058-.634-.964-.933-1.409l-.457.696-1.37 1.703 1.021-2.095-.495-.4.495-.634.622-1.79.083-1.51-.591-1.6-.367-2.69-.667-3.89V5.332l.692-2.082Z"/><path fill="#777" d="M9.77 15.868c-.189-.14-.571-.431-.583-.47l.717-.158 2.05.102v.456h1.892l-.064.317-1.79.242v.647l-1.93-.47h-1.16l.725-.253.222-.127 2.055.26v-.616l-1.224-.12Z"/><path fill="#383838" d="m17.684 6.044-.38-1.694c-.412.19-1.256.59-1.358.684-.128.116-.153 1.481-.076 1.816.076.343.717.863.82.913.1.052.354.483.392.636.032.12.273.216.38.253l.222-1.041z"/><path fill="#323031" d="m9.91 10.69-1.136.26.635.475-.146.591.718-.374c.114-.184.348-.559.355-.591 0-.025-.28-.253-.426-.362"/><path fill="#2d2d2d" d="M6.649 9.357c.018-.07-.083-.553-.14-.787h-.28l-.069 1.77.329 1.473.35 2.691.647 1.422 2.101 2.766 2.24.946c.286.006.889.02.99 0 .127-.025 2.513-.838 2.62-.913.09-.058.42-.559.572-.806l.12-1.499.794-1.377.247-1.307.363-1.447-.527 1.587-.235 1.059-1.231 1.65-1.035.488-1.428.052H11.91l-.533.19v.482l.71.128c.084 0 .04.158 0 .241l1.835.159-1.415.633h-.597l-1.103-.348-.616-.19-.806-1.028-.585-.483-.43-.983.28-1.46.341-1.295-.939-.4h-.8L7.1 11.573l-.343-.394-.107-.545-.286-.488Z"/><path fill="#b4b4b4" d="m14.468 11.42.203-.825.792-.083c.604 0 1.804.006 1.765.075-.038.071-.28 1.016-.394 1.486l-1.11-.553-.514.641v.985l.139 1.186q-.084.42-.286.8c-.05 0-.417.21-.595.311l-1.08-.317-1.56.095-.28-.483 1.066-.875h.477l.525.342-.234-1.059-.546-.451-.87.451v.773h-.69l.469-.222-.394-.17-.54.336-.482-.572 1.016-.596.075-2.76.477-.242z"/><path fill="#dadada" d="M15.654 10.322c-.342.095-1.035.273-1.053.285l.507.044 1.015.274.045.925.508-.716.52-.21.026-.634-.546-.083-.698-.101z"/><path fill="#535353" d="M9.143 4.483c.063-.083.222-.241.355-.28l5.89-.901 1.834.604.348 1.541-.348.236-.47-.788.063.788.077 1.497h-.42v.425h-2.557l-2.113.603-2.443-.603V6.508l.71-.585-.92-1.44z"/><path fill="#a0a0a0" d="m7.943 2.06.9-.922 3.27.388 1.053 5.267-1.46 1.561V3.64l-1.611 2.258-.566-1.58-.317-.747-.577.392-.527-.8h-.76Z"/><path fill="#f8f9f4" d="M9.815 1.907a20.732 20.732 0 0 0-.964-.78l1.161-.534 1.783-.338 1.758.337 1.74.826 1.244 1.25.488.774.19.412.058.768-.248-.063-.254.368-.304-1.079-.344 1.08-.488-1.194h-.723l.57 1.53-.12.411.99.736-.476.738.591.647-.274.292-1.28-.191-1.08-.248-.61-.856-1.492-.888v-4.19L9.892 2.974z"/><path fill="#949494" d="m5.88 9.617.217.495v.686l-.134-.21v-.324l-.19-.368-.261-.279H5.26l-.07.279.19 1.13.343 1.015c.05.229.159.698.159.742 0 .052.228.134.342.172l.344-.1v.31h-.47l-.38-.382-.116-.55-.342-1.126-.14-.595L5.02 9.49l.171-.444.698.571z"/><path fill="#b3b3b3" d="m8.577 9.934-.444-.209-.126.21.317.291h.672l.458.147-.147-.317z"/><path fill="#a8a8a8" d="m9.942 8.348-.699.285 1.03.47.83.526.191-.367-.19-.317z"/><path fill="#f8f9f4" d="M11.84 12.835V9.23h.457l.222.763.527.178 1.225 1.008.697.983-.564-.202-1.168.513.286-.805h-.4l-.603.292v.627z"/><path fill="#f3f3f3" d="M13.002 13.857c-.35.19-1.055.57-1.086.609l.559.743 1.433.074 1.422-.817-.9-.184-.522-.647q.444-.11.87-.28c.096-.064-.54.025-.87.083l-.456-.241z"/><path fill="#d7d7d7" d="m9.79 15.78.139-.546.274.431.278-.43.356.316a1.48 1.48 0 0 0 .266-.317c.026-.064.362.26.522.431h-.738Z"/><path fill="#f9f9f9" d="M12.475 16.32c-.095-.128-.3-.394-.317-.439h1.332v.286z"/><path fill="#f1f1f1" d="m17.634 9.8-.228-.443.73-.54.247.19-.255.216-.494.572zm-.273 1.625.425-.45.09.572-.432.266z"/><path fill="#919191" d="m18.123 11.014.349-.591c0 .444-.235 1.047-.35 1.288-.108.267-.316.858-.316 1.08 0 .214-.255.063-.375-.045l-.039-.602.363.222.178-.572c-.089.064-.28.19-.3.222-.024.025-.17-.013-.24-.038v-.184l.413-.158.164-.077z"/><path fill="#6b6b6b" d="m16.314 18.222-.235-1.243-.172 1.46.236.602.291.655.762.17-.889-1.644z"/><path fill="#505050" d="M7.315 18.077c0-.083.14-1.212.21-1.77l.075 1.776-.076 1.117-1.136.857c.128-.19.394-.571.439-.622.05-.063.488-1.25.488-1.358"/><path fill="#5a5859" d="m8.787 18.572-1.13-2.044 1.372 1.3c.608.356 1.84 1.067 1.903 1.111.063.039.648.508.933.744v1.066l-.756-.122c-.342-.145-1.078-.456-1.205-.533a11.847 11.847 0 0 1-1.117-1.522"/><path fill="#a5a5a5" d="m5.861 5.416.736-2.132-.533 1.858-.075.997h.316l-.183.463.19.87.285 1.143-.286.722v1.397l.286 1.149.185 1.205.273 1.702.272.87 1.377 1.148.622 1.14.82.466.583-.147.68.419h.444v.99l-.655-.21-.844-.444-1.028-.761-1.999-2.101-.545-1.37c-.083-.597-.241-1.816-.274-1.91a54.791 54.791 0 0 1-.38-1.841v-.87L5.86 7.695V5.409Z"/><path fill="#6e6c6d" d="m13.921 17.766-.216-.832h.452l.545-.691.28.844-.483.368-.572.311z"/><path fill="#fafafa" d="m11.96 17.912-.082-.825 1.155-.165.38-.127.261-.216.4.343-.267.254-.285.52-.217.103-.342-.044z"/><path fill="#1c1c1c" d="m7.244 8.812.382.703.514.108.362.14c.038.013.502.063.73.082l-.242-.622h.597c.064 0 .742.311 1.078.464l-.278-.558-1.27-.73-.977-.317-.888.728z"/><path fill="#afafaf" d="m7.771 9.706-.355-.685.927.082.483-.082.462.133-.78.209z"/><path fill="#3d3d3d" d="m14.093 8.785-.477.61 1.15-.114.907.045-.838-.425-.736-.116z"/><path fill="#999" d="m15.438 9.776-1.092.133c.203.044.655.14.825.145.222.008.514-.145.616-.145.083 0 .292-.089.38-.14l-.316-.184c-.127.063-.38.19-.413.19"/></g></svg>