<svg xmlns="http://www.w3.org/2000/svg" xml:space="preserve" width="45.756" height="59.62" viewBox="0 0 12.106 15.774"><path d="M-165.253 148.83c0-.136.12-.322.265-.412.145-.09.264-.934.264-1.876 0-1.292.1-1.75.405-1.867.355-.136.35-.196-.039-.48-.372-.273-.413-.595-.253-2.02.445-3.966 2.84-6.648 6.277-7.03 1.007-.11 1.626-.352 2.143-.833l.728-.677v.706c0 .556.223.819 1.058 1.245.582.297 1.059.65 1.059.786s-.183.937-.406 1.78c-.257.974-.388 2.503-.358 4.18l.047 2.647-1.056.374c-.581.207-1.24.305-1.465.218-.524-.2-1.725-2.648-2.049-4.176l-.25-1.179.075 1.489c.094 1.846 1.08 3.948 2.695 5.745.649.72 1.179 1.382 1.179 1.47 0 .088-2.322.16-5.16.16-3.047 0-5.159-.102-5.159-.25z" style="fill:#fff;stroke:#000;stroke-width:.2;stroke-dasharray:none;stroke-opacity:1" transform="translate(165.353 -133.405)"/></svg>