<svg xmlns="http://www.w3.org/2000/svg" width="237.686" height="238.179"><path d="M104.415 237.376c-24.343-2.823-48.739-14.292-67.06-31.527C12.848 182.793-.052 152.8 0 118.993.137 32.596 88.307-24.532 167.547 10.435c23.79 10.499 46.294 32.038 58.044 55.558 13.589 27.201 15.894 61.82 6.072 91.21-17.73 53.054-71.105 86.683-127.248 80.173z" fill="#e8b693"/><path d="M100.344 229.353c-42.764-7.087-78.22-39.707-89.762-82.582-2.382-8.853-2.631-11.48-2.631-27.778 0-16.266.251-18.934 2.613-27.705 9.788-36.347 36.622-65.324 71.9-77.646 11.58-4.045 29.173-6.957 31.31-5.183 1.789 1.484 2.198 13.94.56 17.002-.541 1.01-15.954 13.658-34.25 28.109-18.298 14.45-35.63 28.254-38.518 30.676-5.25 4.402-5.25 4.402-5.25 35.24 0 30.837 0 30.837 5.25 35.01 2.887 2.296 5.57 4.74 5.963 5.431.41.723-1.608 5.32-4.75 10.82-5.586 9.777-6.685 14.064-3.882 15.14.87.333 10.89.606 22.264.606 20.682 0 20.682 0 36.66 12.583 8.789 6.921 16.313 13.109 16.722 13.75.893 1.405 1.022 13.854.166 16.086-.687 1.79-5.358 1.933-14.365.44zm22.638.474c-.91-.91-.818-15.547.107-17 .408-.642 7.933-6.83 16.72-13.75 15.98-12.584 15.98-12.584 36.661-12.584 11.375 0 21.394-.273 22.264-.607 2.803-1.075 1.705-5.285-3.918-15.025-3.025-5.24-5.5-9.886-5.5-10.325 0-.44 2.481-2.714 5.514-5.054 3.033-2.34 5.746-5.207 6.03-6.371.284-1.165.39-15.393.236-31.618-.28-29.5-.28-29.5-19.168-44.5-65.378-51.921-59.078-46.197-59.413-53.979-.397-9.2.236-11.52 3.144-11.52 1.267 0 6.546.727 11.73 1.617 46.993 8.066 83.315 44.501 91.581 91.867 2.25 12.892 1.377 32.736-2.014 45.793-9.753 37.556-38.856 67.982-75.64 79.079-12.496 3.77-26.566 5.744-28.334 3.977zm-.028-29.028c-.812-.812-.836-10.626-.031-12.724.487-1.268 2.269-1.582 9-1.582 6.084 0 8.393.347 8.393 1.26 0 .694-3.217 3.731-7.149 6.75-8.663 6.654-9.4 7.108-10.213 6.296zm-44.873-27.082c-33.734-26.724-33.734-26.724-33.75-50.474-.008-13.062.254-23.75.583-23.75.908 0 66.643 51.927 68.67 54.245 1.597 1.826 1.743 4.182 1.5 24.126-.227 18.735-.497 22.14-1.768 22.34-.825.13-16.68-11.789-35.235-26.487zm-29.687 3.526c.154-2.442 5.579-10.25 7.122-10.25 1.88 0 13.8 9.07 13.8 10.5 0 .604-4.16 1-10.5 1-7.776 0-10.48-.324-10.422-1.25zm74.588.584c-.366-.367-.666-6.668-.666-14.004 0-13.337 0-13.337-19.395-28.759-10.668-8.482-19.654-15.84-19.97-16.35-.74-1.199 34.418-62.22 35.85-62.22 1.009 0 69.63 117.709 70.338 120.655.266 1.105-5.53 1.344-32.583 1.344-18.099 0-33.207-.3-33.574-.666zm59.978-27.584c-6.246-10.024-16.716-29.034-16.443-29.854.505-1.513 24.096-19.876 25.549-19.886.964-.007 1.246 5.194 1.234 22.74-.008 12.513-.346 23.216-.75 23.785-1.088 1.533-6.374 5.465-7.346 5.465-.463 0-1.473-1.012-2.244-2.25zM61.205 102.018c-7.364-5.802-13.39-11.092-13.39-11.756 0-1.32 69.377-56.751 71-56.729 1.653.023 71 55.438 71 56.736 0 1.587-26.457 22.402-27.889 21.94-.61-.197-9.938-15.626-20.728-34.287-18.296-31.643-19.804-33.929-22.38-33.929-2.574 0-4.084 2.288-22.381 33.917-10.792 18.654-20.121 34.084-20.732 34.287-.61.204-7.136-4.377-14.5-10.179z" fill="#2b2b38"/></svg>