<svg width="224.701" height="224.671" viewBox="0 0 59.452 59.444" xmlns="http://www.w3.org/2000/svg"><path d="M25.101 59.082c-4.154-.651-8.246-2.264-12.038-4.745-2.045-1.338-6.61-5.903-7.947-7.948-6.821-10.424-6.821-22.912 0-33.337 1.337-2.045 5.902-6.61 7.947-7.947C19.549.86 26.748-.771 34.098.337c6.547.987 11.714 3.63 16.55 8.467 4.837 4.836 7.48 10.003 8.467 16.55 1.108 7.35-.523 14.549-4.767 21.035-1.338 2.045-5.903 6.61-7.948 7.948-6.514 4.262-13.895 5.906-21.299 4.745zM21.53 43.55c1.295-.68 1.787-1.376 5.379-7.61 1.886-3.275 3.53-5.934 3.655-5.909.125.025 1.743 2.635 3.596 5.799 1.852 3.165 3.638 6.047 3.968 6.406 1.366 1.485 4.42 2.097 6.38 1.278 2.007-.838 3.59-3.854 3.173-6.044-.228-1.198-.58-1.863-5.911-11.188-2.58-4.511-5.111-9.035-5.626-10.054-1.467-2.9-3.111-4.101-5.618-4.101-2.395 0-4.359 1.37-5.686 3.969-.408.8-3.193 5.725-6.187 10.944-2.995 5.22-5.521 9.9-5.615 10.4-.853 4.544 4.346 8.285 8.492 6.11z" fill="#4ad94a"/><path d="M17.93 44.134c-3.124-.531-5.452-3.716-4.893-6.695.094-.5 2.62-5.18 5.615-10.4 2.994-5.219 5.779-10.144 6.187-10.944 1.327-2.599 3.29-3.97 5.686-3.97 2.507 0 4.15 1.201 5.618 4.102.515 1.019 3.047 5.543 5.626 10.054 5.331 9.325 5.683 9.99 5.911 11.188.418 2.19-1.166 5.206-3.173 6.044-1.96.819-5.014.207-6.38-1.278-.33-.359-2.116-3.241-3.968-6.406-1.853-3.164-3.471-5.774-3.596-5.799-.124-.024-1.77 2.634-3.655 5.908-1.886 3.275-3.69 6.233-4.007 6.574-1.18 1.267-3.192 1.924-4.97 1.622zm2.467-.534c.54-.15 1.34-.573 1.774-.939.44-.37 2.346-3.388 4.296-6.802 1.928-3.376 3.76-6.34 4.072-6.589 1.088-.864 5.032-7.743 5.677-9.902.869-2.905-2.373-6.952-5.585-6.972-2.493-.015-4.128 1.173-5.57 4.047-.597 1.191-3.413 6.213-6.259 11.161-4.52 7.858-5.188 9.168-5.288 10.355-.152 1.8.266 2.96 1.502 4.166 1.583 1.546 3.365 2.034 5.38 1.475z" fill="#2d872d"/><path d="M17.062 43.486c-1.304-.465-2.976-2.086-3.364-3.261-.164-.499-.247-1.518-.184-2.266.1-1.187.769-2.497 5.288-10.355 2.846-4.948 5.662-9.97 6.26-11.16 1.441-2.875 3.076-4.063 5.569-4.048 2.228.014 4.616 1.981 5.45 4.489.521 1.57.367 2.457-.852 4.898-1.158 2.32-4.104 7.021-4.69 7.487-.312.248-2.144 3.213-4.072 6.589-1.95 3.414-3.857 6.433-4.296 6.802-1.39 1.17-3.283 1.476-5.109.825zM32.324 25.95c4.122-6.767 4.479-8.658 2.155-11.414-2.717-3.223-7.625-2.06-9.248 2.19-.572 1.5-.431 2.535.665 4.877 1.213 2.594 4.013 7.192 4.378 7.192.175 0 1.097-1.28 2.05-2.845z" fill="#1a4e1a"/><path d="M28.336 26.074c-1.979-3.321-3.208-5.905-3.414-7.177-.319-1.964 1.402-4.802 3.484-5.749 2.737-1.243 5.937.154 7.186 3.137.59 1.408.432 2.71-.59 4.844-1.322 2.764-4.346 7.666-4.728 7.666-.175 0-1.047-1.225-1.938-2.72z" fill="#010501"/></svg>