<svg version="1.0" id="Layer_1" x="0" y="0" xml:space="preserve" width="334.211" height="291.7" xmlns="http://www.w3.org/2000/svg"><style type="text/css" id="style985">.st2{fill:#626362}.st4{fill:#606160}.st5{fill:#565756}.st6{fill:#4a4a4a}.st7{fill:#4f5150}.st8{fill:#3f403f}.st9{fill:#2f302f}.st10{fill:#303130}.st12{fill:#343434}.st13{fill:#292929}.st14{fill:#5a5b5a}.st15{fill:#505150}.st18{fill:#212121}.st20{fill:#202020}.st21{fill:#2e2f2e}</style><path class="st2" d="M230.27 108c8.4 14.4 16.9 28.8 25.3 43.2 14.1 24.2 28.1 48.5 42.1 72.7 1 1.7 1.8 3.5 2.7 5.2-3.3 1.4-4.8-1.3-6.5-3-6-5.7-11.7-11.7-17.6-17.5-4.2-4.3-8.4-8.5-12.4-12.9-1.5-1-2.9-2.1-4.2-3.4-13.4-14-27.4-27.2-41-41.1-2.3-2.3-5-4.4-5.7-7.9 2.7-12.3 8.7-23.2 14.5-34.2.5-1 1.7-1.5 2.8-1.1z" id="path995"/><path class="st2" d="M58.87 183.8c22.5-39.7 45.1-79.5 67.6-119.2.2-.3.7-.5 1-.7 2.4 2.2 1.5 4.9.9 7.4-1.4 6-2.8 12-4.6 17.9-2.3 6.6-3.2 13.6-5.5 20.2-5 21.3-11 42.3-16.4 63.5-.8 3-1.3 6.1-4 8.2-4.3 3-9.4 1.6-14.1 2.5-6 1.2-12.2 1.1-18.3 2-2.2.3-4.7.3-6.6-1.8z" id="path997"/><path class="st2" d="M211.57 291.3H71.77c.8-3.4 3.9-3.2 6.2-3.8 7-1.8 14.1-3.6 21.1-5.6 6.2-1.3 12.4-3 18.5-5 2.4-1.2 4.8-2.6 7.6-2.8 12.6-1.1 24.4-6 36.7-8.6 10.1-2.1 19.9-5.7 30.2-7.1 6.6 4.1 12.5 10.7 13.4 17 .9 6.3 6.5 9.9 6.1 15.9z" id="path999"/><path d="M130.77 57.6c10.1-17.9 20.1-35.9 30.2-53.8 2.9-5 6.3-5.1 9.3-.1 3.5 5.8 6.6 11.8 9.9 17.7-6.3 16.9-14.4 33.1-21.5 49.6-1.7 3.8-2.8 7.9-5 11.5-3 1.8-4.2-.9-5.9-2.3-1.6-1.5-3.4-3.4-5.1-5.1-2.8-2.4-5.4-5-8-7.5-2.5-2.9-4.6-5.9-3.9-10z" id="path1001" style="fill:#464646"/><path class="st4" d="M203.97 62.6c8.4 13.4 16.6 27.1 23.7 41.2 0 .3-.1.6-.1.9-3.7 12.4-10.4 23.5-14.9 35.6-.3.5-.8 1-1.4 1.2-4.6-.7-6.7-4.8-9.7-7.5-5-4.6-9.7-9.6-14.3-14.6-.9-.9-1.5-1.9-1.8-3.1-1-3.3-2.2-6.6 0-10 1.1-1.6.5-3.3-.3-4.9-.6-1.2-.9-2.5-1-3.8-.2-5.4 1-6.2 6.6-4.6 1-2.5-.9-4.6-1.2-6.9-.6-5.6 1.1-6.8 6.5-4.8.9-2.3-1-4.2-1-6.3 0-3-2.1-7.8 4.4-6.4.5.1 1 .2.9-.1-.2-.6-.3-1.3-.3-1.9.6-2 .5-4.7 3.9-4z" id="path1003"/><path class="st4" d="M58.87 183.8c13.2-.5 26.4-1.8 39.5-4 .4 1.8-.4 2.9-2.2 3.3-11.8 1.5-23.7 2.2-35.5 4.1 11.9-2 23.9-2.6 35.8-3.9 2.2 1.4 1.6 3.4 1.1 5.3-1.9 8-3.8 16-6.7 23.8-1.5 2-.5 4.9-2.4 6.8-4 5.7-10.5 3.9-15.9 4.8-5.9 1-12.2-.8-17.9 2.1-2.8 4.3-7.2 5.3-11.8 6-4.6.7-7.8-.3-8.2-5.6z" id="path1005"/><path class="st4" d="M211.57 291.3c-1.8-2.5-3.6-4.9-5.5-7.3-1.7-2.3-1.7-2.3-.4-5.6.5-1.2-.7-1.9-1.3-2.8-3.8-5.3-7.6-10.7-11.5-16 1.2-3 4.1-3.2 6.6-3.8 7.3-1.9 14.6-3.7 21.9-5.5 2.3-.4 4.5-1.2 6.9-.9 3.4 1.4 6.2 4 7.9 7.2 3.9 7 10.1 12.6 14.2 19.7.9 1.5 2.5 1.5 4.1 1.3 4.5 3.6 9.2 7 9 13.7z" id="path1007"/><path class="st5" d="M203.97 62.6c-5.3 2.2 0 6.6-1.9 9.7-2.2-.4-2.3-4-4.9-3.4-4.3 5 5.5 10.6-.8 15.5-1.6-1-1.9-3.6-4.4-3.6-4.4 5 5.2 10.6-.9 15.5-1.6-.9-2.1-3.3-4.7-3.7-1.3 2.9-.6 5.8-.1 8.7-4.4 2.4-3 7-3.8 10.7-6.5-.5-8.5-6.8-13-9.9-2.5-2.8-5.7-5-7.2-8.7-1.5-7.9 3.4-13.8 6.8-20 1.2-2.3 2.7-4.1 2.8-6.8.1-2.2 1-4.7 2.9-5.7 2.5-1.3 1.6-3.7 2.5-5.2 4.1-6.7 4.1-15.4 10.3-21.1 6.1 9.1 11.6 18.4 16.4 28z" id="path1009"/><path class="st5" d="M34.67 226.4c4.5 6 11.1 5.5 19.7-1.4 6.7 2.4 13.5.9 20.2.3 4.1-.4 8.1-2 12.3-1.7 2.7 3.1-.1 5.8-.7 8.6-.7 3.6-2.4 7.1-3.2 10.7-.4 2.6-.7 5.2-2.6 7.2-10.3 1.1-20.4 3.8-30.9 3.7-6.3 0-12.7 1.1-19 2-9 1.3-9.8.8-7.9-8.2 4.1-7 8.1-14.1 12.1-21.2z" id="path1011"/><path class="st5" d="m263.57 291.3-9.3-13c-5.1-5.1-9-11.1-12.8-17-1-1.6-1.5-3.5-3.3-4.7-3.2-2-3.9-5-3-8.5 3.2-3.2 7.7-2.7 11.5-4.4 2.9-1.4 5.9-2.5 9.1-1.2.8.5-.1.2.6.1 3.8-.3 2.4 5.2 6.6 5.3 3.6 0 4.9 4.7 6.9 7.5 7.5 9.9 14.7 20 21.9 30 1.3 1.8 2.9 3.4 2.3 6z" id="path1013"/><path class="st6" d="M2.87 282.3c2.7-5.1 5.2-10.4 8.8-15 2.9 2 6.5.5 8.9 0 9.8-2.2 19.9-2.2 29.8-3.4 7.2-.9 14.5-3.4 22-1.2 1.3.4 2.7-3.6 5.2-1.3 1 4.8-2.3 8.7-2.7 13.2-.2 2-.9 3.9-2.2 5.4-4 3.2-8.7.7-12.9 1.1-8.5.6-16.6 2.7-25 3.7-5.8.6-11.7.8-17.5.6-2-.2-4 0-5.8.6-3.9 1.4-6.9.2-8.6-3.7z" id="path1015"/><path class="st6" d="M330.07 291.3h-18.6c-6.5-.7-8.5-6.7-11.3-10.9-8.9-13.2-19.2-25.4-28-38.7-.6-.9-1.4-1.7-1-2.9 2.8-3.2 7.1-2.8 10.6-4.1 1.3-.3 2.6-.3 3.9-.1 6.7 4.3 13.2 8.5 15.8 16.9 1.2 3.8 5.1 6.4 7.7 9.5 2.5 2.8 4.7 5.4 6.3 9 2.6 6.3 7.3 11.4 12.3 16.1 1.4 1.4 2.9 2.9 2.3 5.2z" id="path1017"/><path class="st7" d="M187.67 34.7c-1.5 4-5.1 7.2-3.2 12.3.7 1.9-3.3 2.5-3.3 2.8-1.4 6.8-6.1 12.2-7.6 18.8-.6 2.3-1.5 3.4-2.5 5-3.5 6-8.5 12-7.4 19.9-3.8.7-5-2.9-7.4-4.5-1.4-1.9-4.1-3.1-3.3-6.1.2-6.9 4.4-12.3 6.9-18.3 5.5-13.3 11.6-26.5 17.5-39.6.6-1.4 1.2-2.9 2.9-3.4 2.8 4 5.6 8.3 7.4 13.1z" id="path1019"/><path class="st7" d="M77.07 261c-5 4.9-11.9 3-17.5 3.7-9.3 1.1-18.8 2.2-28.2 2.9-5.7.4-11.5.9-17.1 1.7-2 .3-2.3-.4-2.5-1.9 2.9-7 7.1-13.2 10.9-19.6-.3 6.8 2.6 7.7 9.1 6.7 11.9-1.9 24-2.3 36.1-3.4 4-.4 7.7-4.6 12-.7 1.7 2.2.3 4.4 0 6.6-.6 1.5-1.2 3.1-2.8 4z" id="path1021"/><path class="st7" d="M271.47 239.7c4.6-.5 5.1 4.8 5.9 6.4 3.2 6.2 8 11.5 12.1 16.8 5.4 7 9.5 15 15.8 21.4 2.1 2.2 3.2 5.4 6.1 7h-17.3c-9.6-13.3-19.1-26.7-29-39.7-2.5-3.2-6.4-5.3-9.6-7.9 2.3-5.5 8-3.3 11.9-5.1 1.5-.4 3.1.1 4.1 1.1z" id="path1023"/><path class="st8" d="M330.07 291.3c-2.7-4.1-5.9-7.9-9.6-11.1-5.1-4.6-5-12-10.2-15.6-4.1-2.9-4.2-9.8-10.6-9.9-.2 0-.7-1.1-.6-1.6 1.5-6.9-3.5-10.6-8.1-12.2-3.5-1.2-1-5.6-4.6-5.2.4-3.8 3.9-2.9 6.1-4 2.8-.6 5.6-1.5 8.6-1.5 10.7 18.3 21.4 36.7 32.1 55 1.6 3.3 1.9 6-3.1 6.1z" id="path1025"/><path class="st8" d="M2.87 282.3c4.4 3.9 9.1 1.6 13.9 1 7.4-1 14.7.9 22.4-2 4.3-1.6 10.9-3.4 14.7-2.7 6.1 1 12.1-.5 17.9 1.1 1.7 1.8 1 3.7.5 5.7-.7 2.2-1.4 4.4-3.1 6.1-21.4.1-42.8.2-64.2.2-6-.2-6.4-2.3-2.1-9.4z" id="path1027"/><path class="st9" d="M130.77 57.6c1.4 3.2 2.6 6.5 5 9.2-1.2 8.5-6.1 15.6-9.3 23.3-1.2 2.9-3.5 3.5-4.1-.7.9-8.7 5.2-16.6 5.2-25.5 1-2.1 2.1-4.2 3.2-6.3z" id="path1029"/><path class="st10" d="M300.87 230.3c-2.3 2.1-5.1 2.6-8 2.7-6.1-6.3-10.5-13.7-15.7-20.7-1-1.4-1.8-3.1-.3-4.8 6 5.8 11.9 11.6 17.9 17.3 1.7 1.6 3 3.9 5.6 4.3.3.4.5.8.5 1.2z" id="path1031"/><path class="st9" d="m69.07 291.4 1.3-6.4c8.5-3.4 17.5-3 26.3-3.9 1.3-.1 3.3.1 2.9 2.5l-27.9 7.9z" id="path1033"/><path class="st4" d="M230.27 108c-7 11.2-12.3 23.3-16 35.9-2.1.4-3-.5-2.7-2.7 5-12.5 11.3-24.4 15.9-37.1l.2-.3c1.6 1 2 2.7 2.6 4.2z" id="path1035"/><path class="st5" d="M211.57 141.3c.5 1.2 1.4 2.2 2.7 2.7l41.4 42c1.8 1.9 3.5 4 5.2 6-2.4 1.6-4.1-.2-5.9-1.2-5.2-2.6-10.1-5.9-15.3-8.5-2-1.4-4-2.9-6.5-3.5-2.9-1.1-6.2-1.3-8.8-3.3-8.6-8.9-20.8-12.1-30.9-18.8-6.2-4.1-12.6-8-18.5-12.7-2.3-9.9 4-17.2 7.6-25.3 1.3-3 3.3 0 5 0 5.9 5.7 11.8 11.4 17.7 17 2.1 1.9 4.2 3.7 6.3 5.6z" id="path1041"/><path class="st12" d="M276.87 207.5c1.7 6.5 7.1 10.5 10.4 15.9 1.9 3.2 4.9 5.8 5.6 9.6-1.9 1.7-4.9.5-6.7 2.7h-4c-6.7-5.1-8.6-13.5-13.9-19.6-2.6-3-4.6-6.4-8-8.8-2.1-1.4-3.5-3.4-4.1-5.8 0-.6.1-1.2.3-1.8 2.4-2.4 5.6-3.4 8.4-5z" id="path1043"/><path class="st13" d="M264.77 194.7c-1.3 3.8-4.8 4.1-7.9 5.1-2.4.9-3.7-.9-5-2.2-4.1-3.9-8.2-7.8-11.9-12-.9-1.1-4-2.8-.3-4.5 7.7 2.4 13.6 8.1 21.1 10.8z" id="path1045"/><path class="st5" d="m89.07 213.1 8-29.3c-.5-.3-.6-.6-.5-.9.1-.3.3-.4.5-.4.4-.9.9-1.8 1.3-2.7 6.1-23.5 12.3-47 18.4-70.5l.9.8c2.1 4.6.6 9.6 1.3 14.4.1 8.3-.4 16.5 0 24.8 0 19.2.2 38.3.1 57.5.1 2.4-.1 4.8-.4 7.2-.4 2.6-1.9 3.7-4.6 3.8-5.1.2-10.1 1-15.2 1.6-5.7.8-8.7-.7-9.8-6.3z" id="path1047"/><path class="st12" d="M122.37 89.3c1.2 2 1.8 2.8 3.1-.2 3.2-7.6 5.9-15.4 10.4-22.4l7.9 6.7c-.2 4.7-2 9.2-4.9 12.9-1.4 2-2.3 4.4-2.6 6.8-.9 5.9-4.9 10.4-6.3 15.9-.8 3.1-3.3 3.9-5.9 4.7-1.5.2-3.1-.1-4.5-.8-1.7-.6-1.6-2.4-2.3-3.7l-.4-.1c1.7-6.4 2.6-13.4 5.5-19.8z" id="path1049"/><path class="st5" d="m222.27 251.7-29.3 8c-19.9 5.1-39.8 10.2-59.7 15.2-2.7.7-5.4 2-8.3.7.4-4.1 4.2-4.7 6.9-6.3 2.9-1.7 5.6-3.5 8.6-5 3.2-1.6 6.6-2.9 9.3-5.5 1.9-1.7 3.6-3.5 6-4.5 8.1-3.5 15.8-7.8 23-12.8 8.6-5.6 18.1-9.8 27.7-13.3 7.5 6.2 14.8 12.7 15.8 23.5z" id="path1051"/><path class="st12" d="M99.67 283.5c-4.1-2.9-8.3-.3-12.5-.2-5.6.1-11.2 1-16.8 1.6 1-1.6 1.4-3.5 1.3-5.3 1-1.6 1.5-3.4 1.4-5.3 6.7-3.1 14.1-1.8 21-3.4 5.3-1.3 10.7.6 15.7-1.6 2.7-1.2 5.2-.5 7.6.8.4.5.7 1 .9 1.6.5 2.2.5 4.4.2 6.6-6.1 2.4-12.4 4.1-18.8 5.2z" id="path1053"/><path class="st13" d="M118.47 278.3c-2.3-1.9-1.1-4.4-1.4-6.7.8-.8.4-2.3 1.5-2.8 6.5-2.7 13.2-4.7 20.1-5.8 1.1-.2 2.8-.1 2.4 2l-16.1 10.5z" id="path1055"/><path class="st8" d="M123.67 113.3c6.2-3.2 6.8-10.2 9.6-15.5 2.8-5.3 2-12.3 7.9-16.2-2.4-3.7 1.6-5.4 2.4-8.1l9.3 9.3 4 5.3c-.7.8-2.4 1.1-2.4 2.1 0 6.6-6.5 10.6-6.5 17.2 0 3.1-3.8 4.2-4.6 7.5-1.1 4.5-1 7.6 3.4 9.9 2.7 1.5 5.3 3.2 7.7 5 .8.6 1.4 1.2 2 2 1.9 2.9 3.6 6 .6 9-3.2 3.1-2.1 12.5 2.2 14.2 9.7 3.6 19.6 6.7 29.7 9.2 4.1 1 8.1 2.2 12.1 3.6 1.4.5 3.9 1 1.9 3.5-3.8 1.7-8 .6-11.9 1.9-2.3.4-4.5 1.1-6.8 1-11.2-1.6-22.5-1.3-33.8-2.5-3.6-.4-7.8-.8-6.8-5.9 1.3-6.4-.4-11-6-13.1-7.3-2.7-7.9-3.8-6.1-11.3.9-3.9 1.3-8 3-11.5 2.7-5.6.6-8.7-4.4-10.9-1.8-.8-2.6-2.8-4.4-3.6-.9-.3-1.8-1.1-2.1-2.1z" id="path1057"/><path class="st7" d="m155.67 132-1.3-1.3c1.3-4.2.7-9.3 3.7-12.5 2-1.9 3.2-4.5 3.4-7.2.5-5.4 4.5-7.7 8.9-9.5l12 10.6c2.3.4 3.1 2.3 4 4l1.4 2.6c-5 2.1-11.6 13.9-11.6 20.8 0 1.5-.3 3-.4 4.5-8.3-1.7-14.4-6.6-20.1-12z" id="path1059"/><path class="st2" d="M227.47 104.2c-.4 7.7-5.1 13.9-8 20.7-2.4 5.5-3.7 11.7-8 16.4 1.4-9 6.5-16.6 10-24.8 1.8-4.2 2.7-8.9 6-12.3z" id="path1061"/><path class="st14" d="M186.27 116c-1.8-.8-3.2-2.2-4-4-1.5-4.6-3.8-9.5 4-10.6 1.3.9 2.6 2.8 1.7 3.6-3.5 3.4-1.7 7.3-1.7 11z" id="path1063"/><path class="st15" d="M89.07 213.1c4.6 8.6 12.4 4.2 18.7 4.1 3 0 6.1-1 9.2-.1 3.3 4.5 1.5 9.7 1.8 14.6 0 1-.2 2.1-.5 3.1-1.1 3.2-3 3.9-6.6 4.6-9.7 1.8-19.6 2.1-29.3 4.3-.5.1-1-.8-1.4-1.3 2.1-6.1 5-12 5.3-18.6-.8-2.1 1.2-3.5 1.3-5.3 1.8-1.6.4-3.8 1.5-5.4z" id="path1065"/><path class="st14" d="M87.67 218.4c1.7 2.3-.6 3.6-1.3 5.3-6 3.2-12.8 3.6-19.3 4.2-1.8.2-3.6-1-5.8 0-2.9 1.4-5.4.2-6.8-2.9 2.5-1.1 4.4-2.8 7.8-2.6 7.3.4 14.8-.4 22.2-1.1 1.1 0 2.1-1.8 3.2-2.9z" id="path1067"/><path class="st2" d="M97.07 182.5v1.3l-37.1 4.1c12.1-3.6 24.6-4.6 37.1-5.4z" id="path1069"/><path class="st15" d="M222.27 251.7c-3.4-8.9-9.5-15.9-16-22.6-.6-3.4 2.4-3.7 4.3-4.7 3.7-1.9 7.7-3.1 10.6-6.3 2-2.3 3.7-5.3 7.5-2.5 6.5 4.5 12.7 9.2 13.8 18.1.2 2.6 1.9 4.9 4.3 6 2.9 1.2 3.5 3.2.8 5.4-3.8 2.1-8.4 1.4-12 4-1.7 1.8-4.4 2.3-6.7 1.4z" id="path1071"/><path d="M228.87 250.4c2-1.2 4.4-1.6 6.7-1.4.1 4.1 4.6 5.6 5.6 8.1 3 8 10.6 13 13.1 21.2-1.8 3.7-4 1.5-4.8-.3-3.9-8.6-12.5-14-15.6-23.1-.8-2.1-4.4-1.9-5-4.5z" id="path1073" style="fill:#5b5c5b"/><path class="st6" d="M170.27 101.4c-3.1 4-9.1 6.1-7.5 13 .2 1-.3 4.4-3.4 4.1-.9-.1-1.1.4-1.2 1-.5 4-.8 8-3.9 11.1-4.5-.9-7.6-4.4-11.4-6.6-3.4-2-1.9-13.1 2-14.6 2.1-.8 1.9-1.7 1.8-2.9-.5-6.9 7.2-11.1 6.1-18.5-.2-1.3 2.7.4 4.1 0l6.6 5.3z" id="path1075"/><path class="st6" d="M81.07 242.4c3.6-.7 6.8-2.8 10.9-2 2.7.5 5.7-.2 8.5-.8 4.7-1.1 9.1-3.1 14.1-1.1.4.1 1.6-1.8 2.5-2.8 3.7-.3 3.1 2.2 2.6 4.3-1.1 4.7-1.2 9.5-1.5 14.2-.2.6-.4 1.1-.9 1.6-10.7 1.6-21.7 1.4-32.4 3.8-2.7.6-4.5-1.3-6.5-2.6.4-2.2.9-4.4 1.3-6.7.5-2.6 1.9-5.1 1.4-7.9z" id="path1077"/><path class="st6" d="M247.57 245c.2-.4.5-1.1.5-1.2-9-7.2-7.3-22.6-20.4-26.7-.7-3.1 1.9-3.5 3.8-4.4 4-2 8-3.7 12.1-5.3.6-.1 1.2 0 1.8.2 1.6 2.2 2.4 4.6 5.6 5.8 4.2 1.5 5 6.7 6.6 10.1 2.1 4.7 5.2 8.8 9 12.2 1.3 1 1.7 2.7 1 4.1-3.6 2.6-8.5 1-12 4-2.9-.9-5.5.1-8 1.2z" id="path1079"/><path class="st8" d="M78.37 257c9.5.9 19.2 0 28.4-2.8 2.8 4.6 7.3-2.3 10.3 1.5 3.8 2.2.8 5.6 1.6 8.4-.2 2.1-.7 4.2-1.6 6.2-5.8.8-12 3-17.4 1.8-2.9-.6-6.3 4.5-8.2-.6-3.7 5.9-11.2-1.4-15 4.4-1.1-.4-2.3-.9-3.3-1.5l4-13.3z" id="path1081"/><path class="st8" d="M267.47 239.7c-.5-4-4.8-4.4-6.8-7.4-3.2-4.8-5.8-10-8-15.3-.6-1.5-1.6-3.4-3.1-3.1-6.5 1.5-4.2-3.3-4.7-6.1.5-4.4 4.9-4.2 7.5-6.1 1.5-.6 2.9-1.2 4.5-.5 1.7 4.3 7.4 5.4 8.2 10.4 5.3-1 2.9 7.2 7.9 6.6-1.1 5 6 6.5 4.9 11.9-.3 1.6 6.7.7 4.3 5.7-3 2.7-7.6 1.3-10.6 4z" id="path1083"/><path class="st6" d="m155.67 132 20 12c10.7 6.5 21.5 13 32.2 19.5 5.8 3.5 12.9 4.9 17.1 11-.7.8-1.8 1.1-2.8 1-4.7-.8-9.1-2.4-13.8-3.1-1.7-.2-3.5-.4-4.7-2l-37-11.2c-1.4-.4-2.9-.8-4.4-1.3-2.8-.9-5.6-1.9-8.4-2.9 2.4-4.2-1.3-8-.6-12 .2-.9-1.3-5.1 3.5-3.6 1.3.4-.9-4.8-1.1-7.4z" id="path1085"/><path d="M208.87 170.6c4.5 1.2 9.2 1.5 13.4 3.9 3.3 3.6 7.1 5.4 11.8 2.9 2.1.8 4.3 1.5 5.5 3.7-1.1 3.1 1.9 3.9 3.4 5.4 4.5 4.6 9.2 8.9 13.9 13.3v1.3l-4 1.4c-5.7-.2-7.8-5.9-12.1-8.2-1.9-1-3.2-2.9-4.8-4.5-5.9-5.8-6.4-5.8-12.7.2-.7.7-1.5 1.1-2.5 1.2-4.1-.7-7.2-3.5-10.2-5.9-4.3-3.5-7-2.3-9.4 2-.9 1.7-2.1 3.4-2.9 5.2-2 3.5-3.8 7.2-7.1 9.8-5.5 2.5-7 1.7-7.3-4-.1-1.7.4-3.5-.1-5.2.3-6.7 1.7-13.1 5.4-18.8 2.2-.3 2.1 1.8 3 2.9 3 3.7 7.4 3.9 10.7.4 2.1-2.2 3.5-5.1 6-7z" id="path1087" style="fill:#2c2d2c"/><path class="st18" d="M234.07 177.4c-1.5 2.2-4.1 4.6-6.2 2.8-1.9-1.6-7.3-.6-5.6-5.7h2.6z" id="path1089"/><path class="st6" d="M117.07 233.1v-16c0-22.6 0-45.2.1-67.9 3.1.1 2.9 2.9 3.6 4.8 2 5.6 3.2 11.5 5.4 17.1.8 1.8 1.4 3.7 1.9 5.5 4 14.9 8.1 29.8 11.5 44.9.7 2.3 1 4.8.9 7.2-.2 2.4-2.1 5.4-3.8 4.3-4.1-2.7-6 2.5-9.2 1.6-3.4-1-6.9-1.5-10.4-1.5z" id="path1091"/><path d="M124.87 172c-4-7.1-4.2-15.6-7.8-22.8v-25.3c1.5-3.8-.2-8.4 2.6-11.9l4 1.3 2.6 1.4c.9 8.4-3.2 15.9-4.6 23.9-.5 3.2-1.3 6.2 3 7.3 6.4 2.4 6.2 7.9 6.1 13.3-.1 3.8-.2 7.5-2.1 10.9-.8 1.2-2.3 2-3.8 1.9z" id="path1093" style="fill:#282828"/><path class="st20" d="M119.67 112c0 4.1-.9 8.2-2.6 11.9l.1-14.5z" id="path1095"/><path class="st6" d="M222.27 218.4c-1.9 5-7.2 4.9-10.8 7.3-1.7 1.1-4.3.9-5.2 3.4-10.6 6.5-22.6 10.1-32.7 17.8-5.2 3.9-11.1 7.6-18 8.8-.3-.5-.4-1.2-.2-1.8 3-4.7 7.9-7.7 10.9-12.3 1.3-2.1 2.8-4 4.6-5.7 9.7-9.7 20.2-18.5 29.9-28.1 7-6.9 14.9-5.2 18.2 4 .9 2.3 4.7 3.2 3.3 6.6z" id="path1097"/><path class="st21" d="M117.07 270.3c-1.3-1.8 0-3.5 0-5.3 2.8-3.3 6.9-3.6 10.7-4.9 6.1-2 12.5-2.9 18.2-6.1.9-.2 1.9.1 2.5.8 1.2 1.3 2 3.1 2 4.9-2.2 3.2-5.8 4.3-9.3 5.4-8.7-.3-16.6 2.4-24 6.6z" id="path1099"/><path d="m150.37 259.7-2.7-4c4.2-4.5 5.8-4.7 8-1.3 0 .4-.1.9-.1 1.3z" id="path1101" style="fill:#222"/><path d="M183.57 173c-11.3 3.8-22.9 6.9-34.6 9.4.5-6-2.3-9-8.2-9.6-2.4-.3-4.8-.5-7.3-.5-2.1-.1-4.2 0-5.8-1.8.5-4.3 1.3-8.5 1.5-12.8.2-5-.8-8.8-5.5-11.1-.5-.7-1.2-1.5-1-2.4 1.8-9.2 2.6-18.6 7.7-26.9 1.4.7 3 1.2 4 2.2 2.2 2.1 5.1 3.1 2.4 8-2.4 4.4-2.7 10.3-4.3 15.5-1.4 4.7.8 7 5.5 8.1 2.9.7 8.8 1.6 7.5 4.7-1.8 4.4 2.2 5.8 2 8.7-.5 5.4-.6 4.6 5.7 5.5 10.1 1.8 20.4.2 30.4 3z" id="path1105" style="fill:#333"/><path d="m190.27 174.5-.1-2.6c4.3-2.4 9-.9 13.4-1.5l5.2.2c-.8 3.6-3 6.4-5.6 8.7-1.5 1.4-2.4 4.9-5.5 3.1-3.1-1.8-9.1-1.4-7.4-7.9z" id="path1107" style="fill:#1f2020"/><path class="st21" d="m130.37 117.3-6.7 29.2c-3.9.1-5.6-1-4.2-5.5 2.6-8.7 4.6-17.6 6.9-26.4 2.4-.7 1.9 2.9 4 2.7z" id="path1109"/><path class="st8" d="M134.57 186.7c1.8 2.1 3.6 4.2 5.3 6.4 4.3 8.5 9.2 16.7 13.9 25 .8 1.3 1.4 2.8 1.7 4.4-.3 1.7.5 2.9-2.8 3.7-6.6 1.6-8.9 7.9-8.1 13.8.4 2.4.4 4.8-1.2 6.9-5.7 4.4-11.6 8.1-19.3 6.6-2.4-.5-4.5 1.8-7 .9-.8-5.1-.3-10.3 1.4-15.2.8-2.1.1-2.7-1.4-3.5v-2.6c2.3-2 5.4-2.6 7.7-1.2 5.6 3.3 7.6.6 8.4-4.3 3.6 0 .2 5.8 3.8 4.5 3.6-1.3 2.2-4.7 1.5-7.5-4-15.8-7.9-31.7-11.9-47.5 5 1.1 5.8 5.9 8 9.6z" id="path1111"/><path class="st8" d="M174.27 226.4c3.4-1.6 1.5-5.9 4-8 4.6-5.3 6.8-12.3 12-17.3 3.2-2.4 4.9-5.9 6.6-9.3 2.1-1.8 4.3-2.4 6.3.2 4.1 5.2 8.4 4.9 12.9.5 1.4-1.3 3.2-1.3 4.8-2l1.3-1.3c1.8-1.1 4.1-3 5.4.1 2.1 4.9 6.8 6.4 10.5 9.3 2.8 2.3 7 4.2 5.4 9.2-3.4 3.2-7.9 4.4-12 6.4-1.6.8-3.3 1.1-4 2.9-2.8-3.6-3.5 1.2-5.3 1.3-1.4-3.4-7-4.6-4.8-9.9.4-1-1.1-1.7-2.3-.9-1 .7-2.1 1.3-2.9.1-4.5-6.7-7.4-1.7-10.6 1.4-10 9.3-20 18.7-30 28-1.7-4.3 1.9-7.1 2.7-10.7z" id="path1113"/><path class="st12" d="M117.07 254.3c3.4-1.5 6.2-4.5 10.8-1.3 1.7 1.2 5.4-3.9 9.2-3 .4-3.1 3.9-1.9 5.2-3.7.9 1 2.3.8 3.3 1.5.8.9 1.4 1.9 1.6 3.1.3 1.2-.1 2.5-1 3.4-2.6 5.3-8.4 3.9-12.5 5.8-5.2 2.4-11.2 3.3-16.8 4.9v-9.3c.2-.5.2-.9.2-1.4z" id="path1115"/><path class="st12" d="M243.57 207.8c-1.1-6.8-8.2-7.9-12-12.1-1.8-1.9-5-1.8-4.9-6 .1-2.6-2.9-.1-4.3-.6 6.8-8 7.2-7.9 14.5-.9 5.2 4.9 10.8 9.5 16.1 14.2l-8 5.3z" id="path1117"/><path class="st12" d="M220.87 190.5c-1.9 1.6-3.7 3.1-5.5 4.7-4.6 4-9.1 3.3-12.4-1.3-1.9-2.6-3.5-2.8-6-2.1 6.8-12.7 6.8-12.7 18.5-4.9l5.4 3.6z" id="path1119"/><path d="M190.27 201.1c-3.3 6-6.4 12.1-9.8 18.1-1.1 1.9-1.9.9-2.2-.8 1.3-8.2 3.8-16.1 6.4-24 2.1 1.3.4 3.3.5 4.8.3 5.1 2.3 4.1 5.1 1.9z" id="path1121" style="fill:#363636"/><path class="st20" d="M134.57 186.7c-4.6-1.6-4.3-7.3-8.2-9.6-.5-1.7-1-3.4-1.6-5.1.6-1 1.7-1.6 2.8-1.5h6.6c8.5 3.6 10.2 8.3 5.4 14.4z" id="path1123"/><path class="st18" d="M174.27 226.4c2.9 4.5-3.1 6.8-2.7 10.6l-4 5.3c-2.6 1.7-3.5-.5-4.7-2-.8-1.4-1.4-2.9-1.7-4.5.5-9.4 1.8-11.3 9-13.4z" id="path1125"/><path class="st13" d="M163.67 239.7c1.4.8 1.9 2.9 3.9 2.6-3.4 4.5-7.4 8.6-11.9 12-3.4-3.6-5.4.4-8 1.3l-1.3-1.4v-4c-.7-2.4 1.3-3 2.7-3.7 4.8-2.2 9.3-5.3 14.6-6.8z" id="path1127"/><path class="st13" d="M139.67 185c3.6-6.8-1-10.6-5.4-14.4 4.1-.7 7.8 1.1 11.8 1.5 4 .4 5.2 6.1 2.9 10.4-2.9 1.4-6 2.3-9.3 2.5z" id="path1129"/><path d="M170.17 222.4c-4.9 3.1-8.2 7.1-7.9 13.3-.5.4-1.3.4-1.8 0-2.5-3.2-4.5-6.7-4.7-10.9 2.6-8.1 4.2-9.1 10.4-6.4 1.7.9 3.1 2.3 4 4z" id="path1131" style="fill:#2a2a2a"/><path class="st10" d="M166.17 218.4c-6-1.8-7.9 2-9.2 6.6-2.6.8-1.5-2.1-2.6-2.7-.4-1.3-.9-2.6-1.4-4-.9-1.3-1.6-2.6-2.2-4-.9-2.1-1.7-4.2.1-6.1 1.8-1.9 3.6.6 5.4.6z" id="path1133"/><path class="st12" d="M156.17 208.9c-5.6-1.1-6.4 1.3-4.4 5.9.5 1.2.8 2.5 1.2 3.7-6.1-7.2-9.2-16.1-14.2-24-.1-.2.7-.9 1.1-1.4 6.2 4.4 11.3 10.2 16.3 15.8z" id="path1135"/><path class="st12" d="m154.37 222.4 2.6 2.7 4 10.6c-1.1 3.1-4.1 3.8-6.6 5-3.6 1.5-6.9 3.9-9.4 7-1.4.7-2.7 1-2.7-1.3.6-1.4 1.9-2.9 1-4.3-3.5-5.4 3.1-9.9 1.2-15.2-.4-1 1.3-.8 2.4-.6 3.3.4 6.6.4 7.5-3.9z" id="path1137"/><path class="st21" d="M144.97 247.7c-.4-3 1.2-4.7 3.8-6 4.1-1.9 8.1-4 12.1-6h1.3l1.4 4c-4.5 5.6-12.3 5.9-17.3 10.6-.9-.5-1.4-1.5-1.3-2.6z" id="path1139"/></svg>
