<svg xmlns="http://www.w3.org/2000/svg" width="1500" height="1500" style="width:100%;height:100%;transform:translate3d(0,0,0);content-visibility:visible"><defs><clipPath id="a"><path d="M0 0h1500v1500H0z"/></clipPath><clipPath id="b"><path d="M0 0h1500v1500H0z"/></clipPath></defs><g clip-path="url(#a)"><g clip-path="url(#b)" style="display:block"><path fill="#FFF" d="m-32.019-49.293-4.759 14.698 54.291-.04-4.769-14.698-44.763.04zM32.041-49.353l-15.448.02L33.401 2.299 45.889-6.79 32.051-49.353h-.01zM3.129 28.85l12.508 9.069 36.185-26.316-4.79-14.697L3.139 28.84l-.01.01zM-36.184 23.011v.02L.03 49.297l12.488-9.089-43.923-31.894-4.779 14.697zM-37.968-30.936l-13.807 42.563 12.508 9.069 16.747-51.642-15.448.02v-.01zM-18.651-30.956l-4.779 14.698 27.605-.02-4.779-14.678h-18.057.01zM3.246-30.976 11.804-4.73l12.488-9.089-5.579-17.157H3.246zM3.166 6.108l12.508 9.058L30.271 4.568v-.02l-4.789-14.697L3.166 6.108zM-14.608 15.972.01 26.591l12.488-9.089L-9.858 1.305l-4.75 14.667zM-24.62-12.589l-5.569 17.177 12.508 9.069 8.509-26.246H-24.62z" style="display:block" transform="translate(750 750) scale(12.39)"/></g></g></svg>