<svg width="256" height="256" xmlns="http://www.w3.org/2000/svg"><circle cx="128" cy="128" r="128" fill="#1b2838"/><path d="M191.28 55.299c-5.36-.044-9.182 9.557-29.727 30.215-22.194 22.317-23.567 64.896-24.695 10.164-.24-11.653-9.705-17.548-18.654-11.327-4.942 3.436-88.346 87.534-88.346 89.08 0 1.46 27.914-.265 82.162-2.8 22.205-1.038 51.121 4.537 61.85-.352l10.723-4.886 11.106-.58.581-3.776 3.759-45.181c4.751-57.113-2.053-45.774-3.28-58.805-.215-2.271-3.692-1.738-5.48-1.752zm-3.805 22.725c.435 0 1.048 22.665.903 42.327l-2.236 36.902-23.94 1.749c-16.684.199-23.223-.237-24.125-1.14-.817-.815-1.219-7.453-1.219-15.16l.188-20.336 19.84-18.224c12.772-12.815 30.154-26.118 30.59-26.118zm-69.36 31.577c.409 0 .743 10.35.743 23l-.188 25.256c-28.729.408-13.132-1.016-33.343-1.256h-6.235c-4.343 0-6.234-.38-6.234-1.257 0-1.313 43.959-45.743 45.258-45.743z" fill="#3ec7de"/><path d="M196.917 171.25c5.186-3.163 5.225-3.58 5.225-56.611 0-53.231-1.68-56.9-6.81-59.37-8.247-3.969-8.619.654-35.94 28.168l-23.25 23.414v9.642c0 13.573-.633 13.876 25.371-12.11 12.73-12.722 23.479-23.13 23.887-23.13.408 0 .742 17.1.742 38v38h-76.82l-4.145-6.562c-2.28-3.61-4.683-6.422-5.34-6.25-2.271.594-26.924 26.633-26.25 27.724 1.426 2.307 119.483 1.43 123.33-.916z" fill="#fff"/></svg>