<svg xmlns="http://www.w3.org/2000/svg" width="1024" height="1024" fill="none"><rect width="1024" height="1024" fill="#F3F4F7" rx="512"/><path fill="url(#a)" fill-rule="evenodd" d="M648.775 656.086c-51.541 80.767-147.468 85.265-205.387 51.186-53.093-31.24-74.249-94.897 0-161.939 21.006-18.967 26.486-28.482 26.338-45.733-.085-9.794-1.549-15.015-6.853-24.413-7.056-12.5-8.211-19.048.315-30.945 7.062-9.859 7.062-9.859 6.54-36.21-2.103-106.142 71.437-205.782 179.047-211.266-309.034-33.629-513.066 293.452-348.077 532.654 133.236 193.166 396.175 74.347 348.077-73.334Z" clip-rule="evenodd"/><path fill="url(#b)" fill-rule="evenodd" d="M576.41 447.205c-11.884 8.542-13.078 14.88-8.017 42.566 1.073 5.868.419 8.15-4.3 15.015-11.549 16.8-14.252 31.792-8.502 47.137 9.142 24.396 21.082 30.568 44.777 23.149 135.527-42.438 171.154-282.926-7.701-323.571 76.528 49.907 47.964 149.558-16.257 195.704Z" clip-rule="evenodd"/><path fill="url(#c)" d="M339.056 308.131C439.543 197.12 584.951 187.269 648.095 196.775c-25.688.679-80.118 12.561-122.893 59.409-71.699-21.727-156.611 24.788-186.146 51.947Z"/><path fill="url(#d)" d="M714.535 397.748c-2.715-96.073-73.667-136.471-121.874-146.316 13.579 9.505 31.911 23.084 41.756 53.298 23.198.905 77.403 57.712 80.118 93.018Z"/><defs><linearGradient id="a" x1="448.802" x2="324.338" y1="705.252" y2="175.8" gradientUnits="userSpaceOnUse"><stop stop-color="#66AFFF"/><stop offset="1" stop-color="#4E92DE"/></linearGradient><linearGradient id="b" x1="600.732" x2="704.946" y1="770.631" y2="342.561" gradientUnits="userSpaceOnUse"><stop stop-color="#A4CFFF"/><stop offset="1" stop-color="#4E92DE"/></linearGradient><linearGradient id="c" x1="609.733" x2="403.67" y1="183.195" y2="122.396" gradientUnits="userSpaceOnUse"><stop stop-color="#87BCF7"/><stop offset="1" stop-color="#478DDC"/></linearGradient><linearGradient id="d" x1="583.545" x2="733.49" y1="241.701" y2="371.339" gradientUnits="userSpaceOnUse"><stop stop-color="#87BCF7"/><stop offset="1" stop-color="#478DDC"/></linearGradient></defs></svg>