<svg xmlns="http://www.w3.org/2000/svg" width="1018.932" height="1034.452"><path d="M309.49 1033.952l-118-.514-5.332-2.954c-6.34-3.512-9.621-7.162-12.95-14.403-2.133-4.64-2.402-6.403-2.01-13.171.42-7.247.842-8.49 5.82-17.143 49.276-85.65 107.738-186.115 109.883-188.83 1.521-1.924 5.651-4.967 9.178-6.76l6.411-3.26 135-.24 135-.24 4.739-2.354c5.451-2.71 10.217-7.737 12.87-13.58 2.176-4.789 2.425-14.384.51-19.565-1.819-4.918-142.225-247.948-144.915-250.835-3.215-3.448-11.151-7.194-16.615-7.841-6.792-.805-14.846 1.783-19.953 6.412-3.11 2.818-11.711 16.822-34.25 55.764-55.212 95.39-88.441 152.873-95.95 165.981-8.207 14.328-12.804 19.642-19.787 22.87l-4.649 2.149h-232l-5.714-2.807C6 737.341-.02 727.607 0 715.51c.013-7.85.608-9.083 23.213-48.126 10.172-17.57 39.096-67.495 64.274-110.945 25.179-43.45 52.535-90.7 60.793-105 8.258-14.3 15.995-27.575 17.193-29.5 1.198-1.925 3.897-6.65 5.998-10.5 2.1-3.85 22.715-39.625 45.81-79.5 23.094-39.875 47.835-82.625 54.98-95 7.144-12.375 21.642-37.35 32.217-55.5s36.897-63.6 58.494-101 40.673-69.501 42.392-71.335C411.118 2.964 416.387.609 425.398.15c7.628-.388 8.46-.22 14.495 2.938 3.522 1.842 7.654 4.925 9.182 6.85 1.53 1.925 17.039 28.25 34.467 58.5 17.427 30.25 42.597 73.9 55.93 97 13.335 23.1 52.268 90.6 86.517 150 34.25 59.4 72.277 125.325 84.505 146.5 12.228 21.175 44.408 76.975 71.512 124a182964.08 182964.08 0 0080.772 140c17.32 29.975 34.973 60.575 39.228 68 4.254 7.425 19.565 33.975 34.023 59 14.459 25.025 37.983 65.75 52.278 90.5 14.294 24.75 27.1 47.41 28.458 50.357 2.133 4.625 2.408 6.4 2.016 13-.265 4.465-1.17 9.019-2.178 10.952-2.78 5.333-8.605 11.145-14.05 14.018l-5.063 2.673-285 .014c-156.75.01-338.1-.217-403-.5z" fill="#cbc9d4"/><path d="M194.13 1032.861c-5.945-1.168-13.61-6.294-17.187-11.491-1.629-2.368-3.664-7.047-4.522-10.397-2.62-10.224-1.591-12.906 17.899-46.676 79.371-137.523 95.586-165.177 98.712-168.35 1.949-1.976 5.774-4.7 8.5-6.052l4.958-2.457 135.5-.5 135.5-.5 4.068-2.178c4.928-2.638 11.06-9.23 13.195-14.183 2.478-5.752 2.033-15.772-.966-21.704-1.372-2.714-20.406-35.985-42.297-73.935s-53.036-91.95-69.211-120c-16.175-28.05-30.845-52.518-32.6-54.373-10.374-10.97-28.31-10.737-38.8.503-1.986 2.128-17.135 27.27-33.665 55.87-28.533 49.368-72.228 124.696-93.05 160.413-10.106 17.338-13.606 21.673-20.45 25.33l-4.224 2.257h-234l-5.09-2.686c-11.584-6.113-17.74-18.526-15.374-31.003.754-3.977 7.26-16.064 27.856-51.75l85.03-147.343c31.988-55.43 60.105-104.03 62.483-108 2.378-3.97 17.279-29.718 33.113-57.218 15.834-27.5 36.078-62.6 44.988-78 8.91-15.4 24.765-42.85 35.234-61 10.47-18.15 34.765-60.225 53.99-93.5 19.224-33.275 40.255-69.725 46.736-81 6.481-11.275 13.19-22.001 14.909-23.835C411.117 2.964 416.387.609 425.398.15c7.628-.388 8.46-.22 14.495 2.938 3.522 1.842 7.654 4.925 9.182 6.85 1.53 1.925 17.039 28.25 34.467 58.5 17.427 30.25 42.597 73.9 55.93 97 13.335 23.1 52.268 90.6 86.517 150 34.25 59.4 72.277 125.325 84.504 146.5 26.168 45.319 85.499 148.282 140.024 243 21.37 37.125 49.617 86.175 62.768 109 13.152 22.825 27.755 48.25 32.452 56.5 4.697 8.25 22.633 39.537 39.859 69.526 32.62 56.79 34.434 60.582 32.906 68.794-1.99 10.7-9.901 20.42-19.196 23.588-4.244 1.446-41.116 1.582-402.744 1.482-218.94-.06-400.034-.495-402.432-.967z" fill="#d7a6e8"/><path d="M194.13 1032.861c-5.945-1.168-13.61-6.294-17.187-11.491-1.629-2.368-3.664-7.047-4.522-10.397-2.62-10.224-1.591-12.906 17.899-46.676 79.371-137.523 95.586-165.177 98.712-168.35 1.949-1.976 5.774-4.661 8.5-5.966l4.958-2.372 135-.086 135-.085 4.57-2.115c5.35-2.474 11.031-8.009 13.558-13.206 1.018-2.094 1.96-6.773 2.186-10.859.335-6.051.01-8.014-2.066-12.5-1.355-2.926-33.619-59.32-71.697-125.32-46.76-81.05-70.573-121.383-73.36-124.26-10.355-10.69-27.996-10.781-38.577-.2-1.715 1.715-4.842 6.12-6.95 9.788-37.64 65.51-54.773 95.135-56.216 97.2-1.767 2.527-36.807 63.039-46.887 80.972-26.26 46.718-29.018 50.797-37.337 55.243l-4.224 2.257h-234l-5.09-2.686c-11.591-6.117-17.74-18.526-15.37-31.02 1.059-5.586-.025-3.688 111.489-195.294 30.729-52.8 57.632-99.375 59.785-103.5 3.555-6.813 52.251-91.178 68.687-119 3.737-6.325 18.37-31.525 32.517-56 14.148-24.475 28.306-48.775 31.462-54 5.211-8.629 67.271-115.915 90.238-156C405.513 8.95 409.802 4.37 418.66 1.89c5.79-1.621 15.879-.733 20.927 1.842 6.542 3.338 10.098 8.256 26.537 36.706 8.581 14.85 53.75 93.15 100.377 174 46.626 80.85 111.767 193.8 144.757 251a256438.2 256438.2 0 0179.26 137.5c38.109 66.225 79.505 138.103 98.194 170.5 10.47 18.15 28.611 49.65 40.312 70 11.701 20.35 22.857 39.475 24.79 42.5 5.959 9.321 61.68 106.289 63.158 109.91 5.491 13.447-3.957 32.332-18.31 36.594-4.435 1.317-52.453 1.483-402.604 1.386-218.663-.06-399.531-.495-401.93-.967z" fill="#afa2cf"/><path d="M190.96 1031.402c-12.914-3.981-21.749-20.554-18.105-33.964 1.155-4.252 110.348-193.638 114.963-199.395 1.497-1.867 5.186-4.792 8.197-6.5l5.475-3.105 136-.5 136-.5 4.706-2.318c11.487-5.658 18.161-20.504 14.51-32.272-.783-2.525-33.295-59.9-72.249-127.5-51.922-90.106-71.944-124.008-75.02-127.024-9.287-9.103-25.527-9.902-36.176-1.78-4.464 3.405-5.534 5.133-38.04 61.394-15.413 26.675-31.306 54.125-35.319 61-4.012 6.875-20.513 35.45-36.669 63.5-16.155 28.05-30.567 52.252-32.027 53.783-1.46 1.532-5.032 3.947-7.937 5.369l-5.282 2.584-115.672-.165c-114.913-.164-115.704-.179-120.528-2.254-2.86-1.23-6.656-4.091-9.234-6.959-7.029-7.817-9.198-17.245-6.201-26.95.748-2.424 13.392-25.108 28.096-50.408 27.745-47.738 120.959-208.72 175.737-303.5a749136.03 749136.03 0 01104.963-181.5c40.406-69.85 77.974-134.875 83.484-144.5C405.544 8.875 409.664 4.408 418.66 1.89c5.79-1.621 15.879-.733 20.927 1.842 6.542 3.338 10.098 8.256 26.537 36.706 15.132 26.186 120.288 208.51 247.14 428.5 34.092 59.125 65.27 113.175 69.285 120.11 4.014 6.936 16.168 28.086 27.01 47 19.14 33.39 39.11 68.052 151.898 263.656 29.578 51.296 54.379 94.946 55.112 97 4.424 12.395-2.524 28.039-15.042 33.868l-5.038 2.346-400.5-.06c-339.875-.05-401.186-.271-405.03-1.456z" fill="#d95fe1"/><path d="M190.96 1031.402c-12.914-3.981-21.749-20.554-18.105-33.964 1.155-4.252 110.348-193.638 114.963-199.395 1.497-1.867 5.186-4.792 8.197-6.5l5.475-3.105 136-.5 136-.5 4.706-2.318c11.487-5.658 18.161-20.504 14.51-32.272-.783-2.525-33.295-59.9-72.249-127.5-51.922-90.106-71.944-124.008-75.02-127.024-9.287-9.103-25.527-9.902-36.176-1.78-4.464 3.405-5.534 5.133-38.04 61.394-15.413 26.675-31.306 54.125-35.319 61-4.012 6.875-20.513 35.45-36.669 63.5-16.155 28.05-30.567 52.252-32.027 53.783-1.46 1.532-5.032 3.947-7.937 5.369l-5.282 2.584-115.672-.165c-114.913-.164-115.704-.179-120.528-2.254-2.86-1.23-6.656-4.091-9.234-6.959-7.029-7.817-9.198-17.245-6.201-26.95.748-2.424 13.39-25.108 28.094-50.408 14.703-25.3 51.493-88.75 81.754-141 30.262-52.25 55.594-95.675 56.294-96.5.7-.825 2.688-4.331 4.419-7.791 1.73-3.46 18.058-32.035 36.281-63.5 18.224-31.465 47.714-82.41 65.534-113.21 17.82-30.8 33.213-56.9 34.207-58 1.678-1.857 66.64-113.502 77.098-132.5 10.508-19.09 18.27-31.702 21.658-35.188 5.598-5.76 12.203-8.145 20.998-7.58 8.317.533 14.602 3.707 19.346 9.769 1.506 1.925 48.52 82.925 104.477 180 55.956 97.075 110.838 192.25 121.96 211.5 36.658 63.449 130.602 226.426 148.14 257 5.363 9.35 14.551 25.1 20.417 35 29.908 50.476 64.564 110.566 65.46 113.5.42 1.375 1.647 3.754 2.727 5.287 6.34 9.001 104.702 179.793 105.78 183.673 3.481 12.533-3.391 27.05-15.468 32.674l-5.038 2.346-400.5-.06c-339.875-.05-401.186-.271-405.03-1.456z" fill="#9b98ad"/><path d="M192.164 1031.454c-12.848-4.01-21.565-17.347-19.793-30.28.815-5.944-.399-3.758 61.18-110.19 30.134-52.084 54.386-92.926 56.336-94.876 1.883-1.884 5.49-4.38 8.014-5.548 4.589-2.122 4.603-2.122 140.09-2.622l135.5-.5 4.705-2.318c11.487-5.658 18.161-20.504 14.51-32.272-.783-2.525-33.295-59.9-72.249-127.5-51.922-90.106-71.944-124.008-75.02-127.024-9.287-9.103-25.527-9.902-36.176-1.78-4.466 3.407-5.503 5.082-38.339 61.894-15.576 26.95-42.003 72.625-58.726 101.5s-32.948 56.928-36.056 62.34c-6.708 11.684-10.72 16.085-17.568 19.274l-5.082 2.366-114.572.01c-101.013.01-115.111-.174-119.133-1.544-13.577-4.627-21.726-21.035-17.107-34.446 1.042-3.025 13.628-25.75 27.97-50.5 14.343-24.75 50.94-87.975 81.326-140.5 30.386-52.525 55.82-96.175 56.52-97 .7-.825 2.688-4.331 4.419-7.79 1.73-3.46 18.058-32.036 36.281-63.5 18.224-31.466 47.714-82.41 65.534-113.21 17.82-30.8 33.213-56.9 34.207-58 1.678-1.858 66.64-113.503 77.098-132.5 10.508-19.091 18.27-31.703 21.658-35.189 5.598-5.76 12.203-8.145 20.998-7.58 8.317.533 14.602 3.707 19.346 9.769 1.506 1.925 48.52 82.925 104.477 180 55.956 97.075 110.838 192.25 121.96 211.5 36.658 63.449 130.602 226.426 148.14 257 5.363 9.35 14.551 25.1 20.417 35 29.908 50.476 64.564 110.566 65.46 113.5.42 1.375 1.647 3.754 2.727 5.287 6.34 9.001 104.702 179.793 105.78 183.673 3.481 12.533-3.391 27.05-15.468 32.674l-5.038 2.346-400-.057c-332.915-.047-400.725-.283-404.326-1.407z" fill="#a05fd4"/><path d="M192.164 1031.457c-12.853-4.02-21.565-17.35-19.793-30.284.815-5.943-.399-3.757 61.18-110.188 30.134-52.085 54.386-92.927 56.336-94.877 1.883-1.884 5.49-4.353 8.014-5.488 4.571-2.055 5.107-2.062 138.09-1.814 150.132.28 140.105.763 148.684-7.145 6.91-6.37 9.706-12.625 9.708-21.723.002-5.92-.491-8.449-2.34-12-8.363-16.073-141.894-246.145-144.42-248.835-1.723-1.835-5.158-4.535-7.633-6-3.981-2.358-5.536-2.665-13.5-2.658-7.295.006-9.766.416-13.045 2.166-4.925 2.628-11.564 9.661-14.44 15.296-2.734 5.362-53.759 93.723-56.03 97.03-2.604 3.794-50.4 86.85-52.942 92-5.892 11.936-19.918 35.591-22.961 38.727-1.88 1.937-5.706 4.587-8.5 5.888l-5.082 2.366-114.624.01c-125.031.01-118.894.284-126.662-5.64-4.652-3.549-8.88-10.497-10.33-16.978-2.188-9.78-1.247-11.884 27.628-61.77 14.534-25.109 27.516-47.104 28.85-48.877 2.575-3.426 115.364-197.803 116.391-200.587.333-.9 8.339-14.913 17.792-31.138 24.94-42.808 42.841-73.648 114.641-197.5 55.773-96.204 74.937-129.378 78.857-136.5 10.5-19.077 18.27-31.702 21.658-35.188 5.598-5.76 12.203-8.145 20.998-7.581 8.317.534 14.602 3.707 19.346 9.769 1.506 1.925 48.522 82.925 104.48 180 55.957 97.075 111.744 193.825 123.971 215 57.943 100.345 99.548 172.551 121.138 210.24 39.366 68.72 58.058 101.228 70.871 123.26 6.718 11.55 26.17 45.3 43.226 75 17.056 29.7 34.067 59.175 37.802 65.5 23.453 39.722 64.92 112.12 66.083 115.376 4.59 12.85-2.336 28.578-15.116 34.325-3.827 1.721-21.285 1.807-404 1.985-333.894.156-400.715-.037-404.326-1.167z" fill="#c629db"/><path d="M192.164 1031.457c-12.853-4.02-21.565-17.35-19.793-30.284.815-5.943-.399-3.757 61.18-110.188 30.134-52.085 54.386-92.927 56.336-94.877 1.883-1.884 5.49-4.353 8.014-5.488 4.571-2.055 5.107-2.062 138.09-1.814 150.132.28 140.105.763 148.684-7.145 6.91-6.37 9.706-12.625 9.708-21.723.002-5.92-.491-8.449-2.34-12-8.363-16.073-141.894-246.145-144.42-248.835-1.723-1.835-5.158-4.535-7.633-6-3.981-2.358-5.536-2.665-13.5-2.658-7.295.006-9.766.416-13.045 2.166-4.925 2.628-11.564 9.661-14.44 15.296-2.734 5.362-53.759 93.723-56.03 97.03-2.604 3.794-50.4 86.85-52.942 92-5.892 11.936-19.918 35.591-22.961 38.727-1.88 1.937-5.706 4.587-8.5 5.888l-5.082 2.366-114.624.01c-125.031.01-118.894.284-126.662-5.64-4.652-3.549-8.88-10.497-10.33-16.978-2.188-9.78-1.247-11.884 27.628-61.77 14.534-25.109 27.516-47.104 28.85-48.877 2.575-3.426 115.364-197.803 116.391-200.587.333-.9 8.339-14.913 17.792-31.138 26.153-44.892 50.931-87.586 102.723-177 7.168-12.375 13.811-23.4 14.762-24.5.952-1.1 5.546-8.525 10.21-16.5a8627.575 8627.575 0 0119.733-33.5c6.189-10.45 12.83-21.834 14.758-25.298 1.928-3.465 3.726-6.078 3.996-5.81.269.27-1.134 3.163-3.119 6.43-3.968 6.532-4.531 8.322-1.858 5.906.963-.87 6.25-3.902 11.75-6.737 30.012-15.472 36.368-19.172 35.798-20.837-.522-1.524-.458-1.526.818-.028.761.894 2.158 2.03 3.105 2.523 1.8.939 6.156 6.754 20.227 27.001 28.021 40.32 61.766 104.174 86.06 162.85 1.822 4.4 4.473 10.025 5.89 12.5 1.418 2.475 2.584 5.411 2.59 6.525.007 1.114 1.348 4.714 2.98 8 1.634 3.286 2.984 6.327 3 6.757.091 2.247 3.127 7.777 3.98 7.25.882-.545.405-2.146-3.66-12.282-.276-.688-.075-1.25.447-1.25s1.52 1.912 2.22 4.25c.699 2.337 2.369 6.42 3.71 9.07 6.395 12.634 29.17 82.288 41.75 127.68 2.514 9.075 4.995 17.85 5.511 19.5.517 1.65 5.09 19.092 10.163 38.76 5.074 19.668 9.404 35.58 9.624 35.36.502-.502-15.685-63.36-24.367-94.62-48.319-173.985-109.428-305.116-178.363-382.742-5.49-6.183-9.983-11.887-9.983-12.676 0-2.438 17.3-31.703 20.91-35.371 10.068-10.23 28.082-10.196 37.81.072 1.676 1.769 12.494 19.642 24.039 39.717 18.595 32.333 138.666 240.665 173.77 301.5 7.298 12.65 45.328 78.575 84.509 146.5 39.18 67.925 73.259 126.983 75.73 131.24l4.49 7.74-4.202 5.447c-12.924 16.752-32.692 31.129-51.556 37.494-5.07 1.711-7.853 3.046-6.372 3.058 1.445.011 3.188.696 3.872 1.52 1.886 2.273 3.724 1.862 13.31-2.97 16.033-8.08 29.748-19.353 40.288-33.114 3.148-4.111 6.203-7.315 6.789-7.12.585.195 5.971 8.87 11.97 19.28 6 10.408 26.875 46.549 46.392 80.312 19.516 33.763 36.894 64.007 38.618 67.209 4.332 8.048 43.238 75.23 47.22 81.54 7.55 11.96 60.203 104.156 61.258 107.263 4.267 12.555-2.822 28.17-15.345 33.802-3.827 1.72-21.285 1.807-404 1.985-333.894.155-400.715-.037-404.326-1.167zM725.767 685.21c-2.048-.215-5.648-.218-8-.007-2.352.211-.677.387 3.723.39 4.4.004 6.325-.169 4.277-.384zm-16.527-.936c-.687-.277-1.812-.277-2.5 0-.687.278-.125.505 1.25.505s1.938-.227 1.25-.505zm27.48.058c-.333-.332-1.195-.367-1.917-.078-.798.319-.561.556.604.604 1.054.043 1.645-.193 1.312-.526zm-33-1c-.333-.332-1.195-.367-1.917-.078-.798.319-.561.556.604.604 1.054.043 1.645-.193 1.312-.526zm39 0c-.333-.332-1.195-.367-1.917-.078-.798.319-.561.556.604.604 1.054.043 1.645-.193 1.312-.526zm-75.73-15.773c0-.208-.787-.995-1.75-1.75-1.586-1.244-1.621-1.208-.377.378 1.306 1.665 2.127 2.195 2.127 1.372zm-5-4c0-.208-.787-.995-1.75-1.75-1.586-1.244-1.621-1.208-.377.378 1.306 1.665 2.127 2.195 2.127 1.372zm-7-5.926c0-.167-1.687-1.855-3.75-3.75l-3.75-3.446 3.446 3.75c3.208 3.49 4.054 4.21 4.054 3.446zm-8-9.041c0-.19-1.012-1.203-2.25-2.25l-2.25-1.905 1.905 2.25c1.79 2.114 2.595 2.705 2.595 1.905zm-5-6.033c0-.208-.787-.995-1.75-1.75-1.586-1.244-1.621-1.208-.377.378 1.306 1.665 2.127 2.195 2.127 1.372zm-10-14.622c-.588-1.1-1.295-2-1.57-2-.275 0-.018.9.57 2 .589 1.1 1.296 2 1.57 2 .276 0 .019-.9-.57-2zm-5.71-10.465c-2.031-4.106-3.857-7.302-4.056-7.103-.445.446 6.603 14.568 7.27 14.568.264 0-1.182-3.36-3.214-7.465zm-6.168-13.21c-1.178-2.028-1.463-1.379-.498 1.136.343.894.834 1.414 1.091 1.157.258-.258-.009-1.29-.593-2.293zm-7.439-21.513c-.319-.798-.556-.56-.604.604-.043 1.054.193 1.645.525 1.313.333-.333.368-1.195.08-1.917zm-1-4c-.319-.798-.556-.56-.604.604-.043 1.054.193 1.645.525 1.313.333-.333.368-1.195.08-1.917zm-2-7c-.319-.798-.556-.56-.604.604-.043 1.054.193 1.645.525 1.313.333-.333.368-1.195.08-1.917zm-1-4c-.319-.798-.556-.56-.604.604-.043 1.054.193 1.645.525 1.313.333-.333.368-1.195.08-1.917zm-1-4c-.319-.798-.556-.56-.604.604-.043 1.054.193 1.645.525 1.313.333-.333.368-1.195.08-1.917zm-2-7c-.319-.798-.556-.56-.604.604-.043 1.054.193 1.645.525 1.313.333-.333.368-1.195.08-1.917zm-1-4c-.319-.798-.556-.56-.604.604-.043 1.054.193 1.645.525 1.313.333-.333.368-1.195.08-1.917zm-1-4c-.319-.798-.556-.56-.604.604-.043 1.054.193 1.645.525 1.313.333-.333.368-1.195.08-1.917zm-1-4c-.319-.798-.556-.56-.604.604-.043 1.054.193 1.645.525 1.313.333-.333.368-1.195.08-1.917zm-1.254-5.241c-.368-1.465-.862-2.472-1.097-2.236-.236.236-.128 1.628.24 3.093.368 1.466.861 2.472 1.097 2.236.236-.236.128-1.627-.24-3.093zM520.99 287.938c-.698-1.686-1.035-3.298-.75-3.583.285-.286 1.023.926 1.64 2.694.615 1.767.953 3.38.75 3.583-.204.203-.942-1.01-1.64-2.694zm-159.436-197.5c4.103-7.403 7.384-12.5 8.048-12.5.322 0-.43 1.687-1.672 3.75-1.242 2.062-2.86 4.875-3.596 6.25-.735 1.375-2.285 3.625-3.444 5-1.578 1.871-1.41 1.243.664-2.5zm12.436-21.5c.589-1.1 1.296-2 1.57-2 .276 0 .019.9-.57 2-.588 1.1-1.295 2-1.57 2-.275 0-.018-.9.57-2zm17.584-.642c-.526-1.372-.38-1.434.893-.377 1.736 1.44 1.916 2.019.63 2.019-.49 0-1.176-.739-1.523-1.642zm-13.584-5.99c0-1.223 4.234-7.468 4.728-6.974.275.275-.488 2.1-1.695 4.053-2.098 3.395-3.033 4.295-3.033 2.92z" fill="#e000db"/><path d="M192.164 1031.457c-12.853-4.02-21.565-17.35-19.793-30.284.815-5.943-.399-3.757 61.18-110.188 30.134-52.085 54.386-92.927 56.336-94.877 1.883-1.884 5.49-4.353 8.014-5.488 4.571-2.055 5.107-2.062 138.09-1.814 150.132.28 140.105.763 148.684-7.145 6.91-6.37 9.706-12.625 9.708-21.723.002-5.92-.491-8.449-2.34-12-8.363-16.073-141.894-246.145-144.42-248.835-1.723-1.835-5.158-4.535-7.633-6-3.981-2.358-5.536-2.665-13.5-2.658-7.295.006-9.766.416-13.045 2.166-4.925 2.628-11.564 9.661-14.44 15.296-2.734 5.362-53.759 93.723-56.03 97.03-2.604 3.794-50.4 86.85-52.942 92-5.892 11.936-19.918 35.591-22.961 38.727-1.88 1.937-5.706 4.587-8.5 5.888l-5.082 2.366-114.624.01c-125.031.01-118.894.284-126.662-5.64-4.652-3.549-8.88-10.497-10.33-16.978-2.188-9.78-1.247-11.884 27.628-61.77 14.534-25.109 27.516-47.104 28.85-48.877 2.575-3.426 115.364-197.803 116.391-200.587.333-.9 8.339-14.913 17.792-31.138 26.153-44.892 50.931-87.586 102.723-177 7.168-12.375 13.811-23.4 14.762-24.5.952-1.1 5.546-8.525 10.21-16.5a8627.575 8627.575 0 0119.733-33.5c6.189-10.45 12.83-21.834 14.758-25.298 1.928-3.465 3.726-6.078 3.996-5.81.269.27-1.134 3.163-3.119 6.43-3.968 6.532-4.531 8.322-1.858 5.906.963-.87 6.25-3.902 11.75-6.737 30.012-15.472 36.368-19.172 35.798-20.837-.522-1.524-.458-1.526.818-.028.761.894 2.158 2.03 3.105 2.523 1.8.939 6.156 6.754 20.227 27.001 28.021 40.32 61.766 104.174 86.06 162.85 1.822 4.4 4.473 10.025 5.89 12.5 1.418 2.475 2.584 5.411 2.59 6.525.007 1.114 1.348 4.714 2.98 8 1.634 3.286 2.984 6.327 3 6.757.091 2.247 3.127 7.777 3.98 7.25.882-.545.405-2.146-3.66-12.282-.276-.688-.075-1.25.447-1.25s1.52 1.912 2.22 4.25c.699 2.337 2.369 6.42 3.71 9.07 6.395 12.634 29.17 82.288 41.75 127.68 2.514 9.075 4.995 17.85 5.511 19.5.517 1.65 5.09 19.092 10.163 38.76 5.074 19.668 9.404 35.58 9.624 35.36.502-.501-15.685-63.36-24.367-94.62-12.198-43.924-25.95-87.47-38.97-123.404-2.97-8.198-5.227-15.078-5.016-15.29.64-.639 16.131 43.2 24.199 68.48 11.175 35.016 22.996 76.533 34.941 122.714 17.315 66.94 24.253 92.636 27.561 102.077 3.657 10.435 9.693 23.677 13.941 30.58 3.3 5.363 3.618 6.318 1.748 5.242-.726-.418-.9-.338-.416.19.458.501 1.32.91 1.916.91.596 0 1.292.626 1.547 1.39.316.95.027 1.137-.917.59-.815-.472-1.038-.427-.546.11.458.501 1.32.91 1.916.91.596 0 1.292.626 1.547 1.39.316.95.027 1.137-.917.59-.815-.472-1.038-.427-.546.11.458.501 1.32.91 1.916.91.596 0 1.292.626 1.547 1.39.32.96.037 1.133-.917.558-1.157-.697-1.155-.555.013.885.766.944 1.624 1.484 1.908 1.2.668-.667 3.2 1.429 3.2 2.65 0 .514-.563.607-1.25.205-.688-.402-.393.246.654 1.441 2.277 2.596 3.39 2.903 1.527.422-.723-.963 2.125 1.591 6.328 5.676 4.203 4.084 7.443 7.745 7.202 8.136-.242.391.317 1.325 1.241 2.075 1.156.937 1.447.973.93.113-.413-.688-.33-1.25.186-1.25 1.22 0 3.316 2.532 2.648 3.2-.283.283.283 1.141 1.26 1.907 1.612 1.267 1.649 1.234.4-.357-.754-.963-.922-1.75-.372-1.75 1.31 0 3.388 2.523 2.67 3.242-.307.307.26.49 1.259.408 1.03-.085 1.697.423 1.542 1.174-.152.729.173 1.048.72.71 1.361-.842 7.264 2.318 6.535 3.497-.333.539.154.662 1.131.287 1.157-.443 1.483-.28 1 .5-.482.781-.156.944 1 .5 1.257-.482 1.497-.303.898.666-.522.846-.43 1.085.254.662.59-.365 5.047.666 9.904 2.29 15.727 5.257 30.974 6.438 45.994 3.564 8.363-1.6 11.425-1.809 7.338-.5l-2.5.8 2.628.1c1.445.055 3.188.775 3.872 1.6 1.886 2.272 3.724 1.862 13.31-2.97 16.033-8.08 29.748-19.354 40.288-33.115 3.149-4.11 6.204-7.315 6.789-7.12.585.195 5.971 8.871 11.97 19.28 6 10.409 26.875 46.55 46.392 80.312 19.516 33.763 36.894 64.007 38.618 67.209 4.332 8.048 43.238 75.23 47.22 81.54 7.55 11.96 60.203 104.156 61.258 107.263 4.267 12.556-2.822 28.17-15.345 33.802-3.827 1.721-21.285 1.807-404 1.985-333.894.156-400.715-.037-404.326-1.167zM725.767 685.21c-2.048-.215-5.648-.218-8-.007-2.352.211-.677.387 3.723.39 4.4.004 6.325-.169 4.277-.384zm-16.527-.936c-.687-.277-1.812-.277-2.5 0-.687.278-.125.505 1.25.505s1.938-.227 1.25-.505zm27.48.058c-.333-.332-1.195-.367-1.917-.078-.798.319-.561.556.604.604 1.054.043 1.645-.193 1.312-.526zm-33-1c-.333-.332-1.195-.367-1.917-.078-.798.319-.561.556.604.604 1.054.043 1.645-.193 1.312-.526zm39 0c-.333-.332-1.195-.367-1.917-.078-.798.319-.561.556.604.604 1.054.043 1.645-.193 1.312-.526zm-87.73-25.7c0-.166-1.687-1.854-3.75-3.75l-3.75-3.445 3.446 3.75c3.208 3.49 4.054 4.21 4.054 3.446zm-23-29.695c-.588-1.1-1.295-2-1.57-2-.275 0-.018.9.57 2 .589 1.1 1.296 2 1.57 2 .276 0 .019-.9-.57-2zm-5.71-10.465c-2.031-4.106-3.857-7.302-4.056-7.103-.445.446 6.603 14.568 7.27 14.568.264 0-1.182-3.36-3.214-7.465zm-6.168-13.21c-1.178-2.028-1.463-1.379-.498 1.136.343.894.834 1.414 1.091 1.157.258-.258-.009-1.29-.593-2.293zm-7.439-21.513c-.319-.798-.556-.56-.604.604-.043 1.054.193 1.645.525 1.313.333-.333.368-1.195.08-1.917zm-1-4c-.319-.798-.556-.56-.604.604-.043 1.054.193 1.645.525 1.313.333-.333.368-1.195.08-1.917zm-2-7c-.319-.798-.556-.56-.604.604-.043 1.054.193 1.645.525 1.313.333-.333.368-1.195.08-1.917zm-1-4c-.319-.798-.556-.56-.604.604-.043 1.054.193 1.645.525 1.313.333-.333.368-1.195.08-1.917zm-1-4c-.319-.798-.556-.56-.604.604-.043 1.054.193 1.645.525 1.313.333-.333.368-1.195.08-1.917zm-2-7c-.319-.798-.556-.56-.604.604-.043 1.054.193 1.645.525 1.313.333-.333.368-1.195.08-1.917zm-1-4c-.319-.798-.556-.56-.604.604-.043 1.054.193 1.645.525 1.313.333-.333.368-1.195.08-1.917zm-1-4c-.319-.798-.556-.56-.604.604-.043 1.054.193 1.645.525 1.313.333-.333.368-1.195.08-1.917zm-1-4c-.319-.798-.556-.56-.604.604-.043 1.054.193 1.645.525 1.313.333-.333.368-1.195.08-1.917zm-1.254-5.241c-.368-1.465-.862-2.472-1.097-2.236-.236.236-.128 1.628.24 3.093.368 1.466.861 2.472 1.097 2.236.236-.236.128-1.627-.24-3.093zm108.686 120.348c-19.267-2.497-46.377-16.333-61.578-31.428-5.37-5.334-16.967-21.42-20.53-28.48-3.37-6.673-13.551-37.452-18.033-54.511-1.735-6.6-4.672-17.175-6.528-23.5-1.856-6.325-4.758-17.342-6.45-24.482-1.691-7.14-4.217-16.815-5.611-21.5-3.983-13.378-5.784-19.74-13.453-47.518-6.344-22.983-12.085-41.716-22.016-71.847-1.604-4.866-2.92-10.266-2.927-12-.013-4.039-2.187-11.175-4.768-15.653-1.109-1.925-8.385-23.075-16.17-47-22.12-67.99-29.718-90.941-32.608-98.5-12.22-31.962-15.166-44.298-17.436-73-1.184-14.976-1.104-39.006.126-37.756 1.222 1.241 20.26 34.007 85.85 147.756 34.252 59.4 68.247 118.35 75.546 131C767.55 566.403 798.99 621.072 798.99 621.765c0 1.609-4.626 5.05-14.137 10.515-15.997 9.192-27.14 13.166-44.863 16l-7.5 1.2.116 5.728.116 5.73-8.116-.127c-4.464-.07-10.99-.5-14.501-.954zM529.1 297.827c-.616-1.768-.945-3.389-.73-3.603.213-.213.892 1.057 1.508 2.825.616 1.767.945 3.388.731 3.602-.213.214-.893-1.057-1.509-2.824zm-2.487-6.428c-.965-2.515-.68-3.164.498-1.136.584 1.003.85 2.035.593 2.293-.257.257-.748-.263-1.091-1.157zm-5.624-3.461c-.698-1.686-1.035-3.298-.75-3.583.285-.286 1.023.926 1.64 2.694.615 1.767.953 3.38.75 3.583-.204.203-.942-1.01-1.64-2.694zm3.624-1.539c-.965-2.515-.68-3.164.498-1.136.584 1.003.85 2.035.593 2.293-.257.257-.748-.263-1.091-1.157zm-12-30c-.965-2.515-.68-3.164.498-1.136.584 1.003.85 2.035.593 2.293-.257.257-.748-.263-1.091-1.157zm-5-12c-.965-2.515-.68-3.164.498-1.136.584 1.003.85 2.035.593 2.293-.257.257-.748-.263-1.091-1.157zm-8-18c-.965-2.515-.68-3.164.498-1.136.584 1.003.85 2.035.593 2.293-.257.257-.748-.263-1.091-1.157zm-5-11c-.965-2.515-.68-3.164.498-1.136.584 1.003.85 2.035.593 2.293-.257.257-.748-.263-1.091-1.157zM361.554 90.438c4.103-7.403 7.384-12.5 8.048-12.5.322 0-.43 1.687-1.672 3.75-1.242 2.062-2.86 4.875-3.596 6.25-.735 1.375-2.285 3.625-3.444 5-1.578 1.871-1.41 1.243.664-2.5zm12.436-21.5c.589-1.1 1.296-2 1.57-2 .276 0 .019.9-.57 2-.588 1.1-1.295 2-1.57 2-.275 0-.018-.9.57-2zm17.584-.642c-.526-1.372-.38-1.434.893-.377 1.736 1.44 1.916 2.019.63 2.019-.49 0-1.176-.739-1.523-1.642zm-13.584-5.99c0-1.223 4.234-7.468 4.728-6.974.275.275-.488 2.1-1.695 4.053-2.098 3.395-3.033 4.295-3.033 2.92z" fill="#b725d7"/><path d="M192.164 1031.457c-12.853-4.02-21.565-17.35-19.793-30.284.815-5.943-.399-3.757 61.18-110.188 30.134-52.085 54.386-92.927 56.336-94.877 1.883-1.884 5.49-4.353 8.014-5.488 4.571-2.055 5.107-2.062 138.09-1.814 150.132.28 140.105.763 148.684-7.145 6.91-6.37 9.706-12.625 9.708-21.723.002-5.92-.491-8.449-2.34-12-8.363-16.073-141.894-246.145-144.42-248.835-1.723-1.835-5.158-4.535-7.633-6-3.981-2.358-5.536-2.665-13.5-2.658-7.295.006-9.766.416-13.045 2.166-4.925 2.628-11.564 9.661-14.44 15.296-2.734 5.362-53.759 93.723-56.03 97.03-2.604 3.794-50.4 86.85-52.942 92-5.892 11.936-19.918 35.591-22.961 38.727-1.88 1.937-5.706 4.587-8.5 5.888l-5.082 2.366-114.624.01c-125.031.01-118.894.284-126.662-5.64-4.652-3.549-8.88-10.497-10.33-16.978-2.188-9.78-1.247-11.884 27.628-61.77 14.534-25.109 27.517-47.104 28.85-48.877 1.335-1.774 25.464-43.05 53.621-91.725 28.157-48.675 53.576-92.325 56.487-97 2.911-4.675 5.635-9.618 6.053-10.985.419-1.367 8.512-15.767 17.985-32a36412.551 36412.551 0 0031.741-54.515c37.24-64.127 80.324-138.409 82.507-142.25 1.328-2.338 2.773-4.25 3.21-4.25.437 0 4.822 4.612 9.745 10.25 33.646 38.533 58.888 71.004 81.895 105.349 12.435 18.562 31.92 50.557 37.392 61.397 1.603 3.175 3.527 6.388 4.275 7.139.749.75 3.088 4.654 5.199 8.674 2.11 4.02 4.106 6.913 4.433 6.43.327-.482 4.125-2.608 8.44-4.724 4.314-2.116 8.366-4.368 9.003-5.006 1.405-1.405 19.77-11.538 32.165-17.747 7.783-3.899 25.51-13.451 26.15-14.091.12-.12-.656-2.87-1.725-6.109-2.542-7.703-1.755-8.381 1.021-.881 1.185 3.2 2.998 7.619 4.029 9.819 4.134 8.822 18.497 50.879 28.347 83 9.695 31.616 12.816 42.892 39.58 143 10.838 40.535 17.549 57.614 30.258 77 7.383 11.263 26.124 29.672 36.437 35.792 23.212 13.775 44.992 18.327 68.168 14.248 4.553-.8 8.724-1.732 9.269-2.069.545-.337 3.345-.797 6.222-1.023 6.721-.528 20.762-7.365 31.397-15.289 8.434-6.284 21.518-19.458 25.897-26.075 1.487-2.246 2.98-4.078 3.32-4.07.34.008 6.692 10.661 14.117 23.675 7.425 13.014 16.702 28.87 20.615 35.236 7.636 12.422 13.98 23.257 43.525 74.334 12.448 21.518 18.677 33.22 18.155 34.103-2.79 4.717-30.986 26.825-48.545 38.062-5.912 3.784-10.75 7.175-10.75 7.536 0 .362.648 1.531 1.44 2.599 1.416 1.912 1.503 1.907 5.75-.332 7.078-3.733 29.275-19.988 42.89-31.41 11.62-9.746 12.859-10.534 14.163-9 .787.926 8.8 14.508 17.806 30.183 9.007 15.675 19.035 32.775 22.285 38 10.375 16.68 62.311 107.368 63.511 110.899 4.267 12.556-2.822 28.17-15.345 33.802-3.827 1.721-21.285 1.807-404 1.985-333.894.156-400.715-.037-404.326-1.167zm511.342-348.119c-32.751-7.3-59.507-30.316-77.77-66.9-9.033-18.093-11.556-26.575-35.243-118.5-19.32-74.974-35.663-129.444-54.127-180.405-2.97-8.197-5.227-15.077-5.016-15.288.64-.64 16.131 43.198 24.199 68.48 11.175 35.015 22.996 76.531 34.941 122.713 17.283 66.816 24.25 92.627 27.555 102.077 12.662 36.214 36.019 65.382 62.973 78.64 17.517 8.616 39.106 11.797 57.05 8.404 10.378-1.962 12.108-1.946 5.422.05-7.519 2.246-31.242 2.678-39.984.73zm6.599-23.481c-19.267-2.497-46.377-16.333-61.578-31.428-5.37-5.334-16.967-21.42-20.53-28.48-3.37-6.673-13.551-37.452-18.033-54.511-1.735-6.6-4.672-17.175-6.528-23.5-1.856-6.325-4.758-17.342-6.45-24.482-1.691-7.14-4.217-16.815-5.611-21.5-3.983-13.378-5.784-19.74-13.453-47.518-6.344-22.983-12.085-41.716-22.016-71.847-1.604-4.866-2.92-10.266-2.927-12-.013-4.039-2.187-11.175-4.768-15.653-1.109-1.925-8.385-23.075-16.17-47-22.12-67.99-29.718-90.941-32.608-98.5-12.22-31.962-15.166-44.298-17.436-73-1.184-14.976-1.104-39.006.126-37.756 1.222 1.241 20.26 34.007 85.85 147.756 34.252 59.4 68.247 118.35 75.546 131C767.55 566.403 798.99 621.072 798.99 621.765c0 1.609-4.626 5.05-14.137 10.515-15.997 9.192-27.14 13.166-44.863 16l-7.5 1.2.116 5.728.116 5.73-8.116-.127c-4.464-.07-10.99-.5-14.501-.954zM529.1 297.827c-.616-1.768-.945-3.389-.73-3.603.213-.213.892 1.057 1.508 2.825.616 1.767.945 3.388.731 3.602-.213.214-.893-1.057-1.509-2.824zm-2.487-6.428c-.965-2.515-.68-3.164.498-1.136.584 1.003.85 2.035.593 2.293-.257.257-.748-.263-1.091-1.157zm-2-5c-.965-2.515-.68-3.164.498-1.136.584 1.003.85 2.035.593 2.293-.257.257-.748-.263-1.091-1.157zm-12-30c-.965-2.515-.68-3.164.498-1.136.584 1.003.85 2.035.593 2.293-.257.257-.748-.263-1.091-1.157zm-5-12c-.965-2.515-.68-3.164.498-1.136.584 1.003.85 2.035.593 2.293-.257.257-.748-.263-1.091-1.157zm-8-18c-.965-2.515-.68-3.164.498-1.136.584 1.003.85 2.035.593 2.293-.257.257-.748-.263-1.091-1.157zm-5-11c-.965-2.515-.68-3.164.498-1.136.584 1.003.85 2.035.593 2.293-.257.257-.748-.263-1.091-1.157z" fill="#d300d2"/><path d="M192.164 1031.457c-12.853-4.02-21.565-17.35-19.793-30.284.815-5.943-.399-3.757 61.18-110.188 30.134-52.085 54.386-92.927 56.336-94.877 1.883-1.884 5.49-4.353 8.014-5.488 4.571-2.055 5.107-2.062 138.09-1.814 150.132.28 140.105.763 148.684-7.145 6.91-6.37 9.706-12.625 9.708-21.723.002-5.92-.491-8.449-2.34-12-8.363-16.073-141.894-246.145-144.42-248.835-1.723-1.835-5.158-4.535-7.633-6-3.981-2.358-5.536-2.665-13.5-2.658-7.295.006-9.766.416-13.045 2.166-4.925 2.628-11.564 9.661-14.44 15.296-2.734 5.362-53.759 93.723-56.03 97.03-2.604 3.794-50.4 86.85-52.942 92-5.892 11.936-19.918 35.591-22.961 38.727-1.88 1.937-5.706 4.587-8.5 5.888l-5.082 2.366-114.624.01c-125.031.01-118.894.284-126.662-5.64-4.652-3.549-8.88-10.497-10.33-16.978-2.188-9.78-1.247-11.884 27.628-61.77 14.534-25.109 27.517-47.104 28.85-48.877 1.335-1.774 25.464-43.05 53.621-91.725 28.157-48.675 53.576-92.325 56.487-97 2.911-4.675 5.635-9.618 6.053-10.985.419-1.367 8.512-15.767 17.985-32a36412.551 36412.551 0 0031.741-54.515c37.24-64.127 80.324-138.409 82.507-142.25 1.328-2.338 2.773-4.25 3.21-4.25.437 0 4.822 4.612 9.745 10.25 33.646 38.533 58.888 71.004 81.895 105.349 12.435 18.562 31.92 50.557 37.392 61.397 1.603 3.175 3.527 6.388 4.275 7.139.749.75 3.088 4.654 5.199 8.674 2.11 4.02 4.106 6.913 4.433 6.43.327-.482 4.125-2.608 8.44-4.724 4.314-2.116 8.366-4.368 9.003-5.006 1.405-1.405 19.77-11.538 32.165-17.747 7.783-3.899 25.51-13.451 26.15-14.091.12-.12-.656-2.87-1.725-6.109-2.542-7.703-1.755-8.381 1.021-.881 1.185 3.2 2.998 7.619 4.029 9.819 4.134 8.822 18.497 50.879 28.347 83 9.695 31.616 12.816 42.892 39.58 143 10.838 40.535 17.549 57.614 30.258 77 7.383 11.263 26.124 29.672 36.437 35.792 23.212 13.775 44.992 18.327 68.168 14.248 4.553-.8 8.724-1.732 9.269-2.069.545-.337 3.345-.797 6.222-1.023 6.721-.528 20.762-7.365 31.397-15.289 8.434-6.284 21.518-19.458 25.897-26.075 1.487-2.246 2.98-4.078 3.32-4.07.34.008 6.692 10.661 14.117 23.675 7.425 13.014 16.702 28.87 20.615 35.236 7.636 12.422 13.98 23.257 43.525 74.334 12.448 21.518 18.677 33.22 18.155 34.103-2.79 4.717-30.986 26.825-48.545 38.062-5.912 3.784-10.75 7.175-10.75 7.536 0 .362.648 1.531 1.44 2.599 1.416 1.912 1.503 1.907 5.75-.332 7.078-3.733 29.275-19.988 42.89-31.41 11.62-9.746 12.859-10.534 14.163-9 .787.926 8.8 14.508 17.806 30.183 9.007 15.675 19.035 32.775 22.285 38 10.375 16.68 62.311 107.368 63.511 110.899 4.267 12.556-2.822 28.17-15.345 33.802-3.827 1.721-21.285 1.807-404 1.985-333.894.156-400.715-.037-404.326-1.167z" fill="#827c9e"/><path d="M195.334 1031.9c-13.425-2.667-22.61-13.86-22.53-27.46.019-3.412.68-7.734 1.469-9.603 3.309-7.845 112.241-194.716 115.47-198.088 1.943-2.028 5.83-4.69 8.64-5.916l5.107-2.229 133 .22c149.545.248 139.624.727 148.185-7.163 6.91-6.37 9.706-12.625 9.708-21.723.002-5.92-.491-8.449-2.34-12-8.363-16.073-141.894-246.145-144.42-248.835-1.723-1.835-5.158-4.535-7.633-6-3.981-2.358-5.536-2.665-13.5-2.658-7.295.006-9.766.416-13.045 2.166-4.938 2.635-11.566 9.665-14.46 15.337-1.947 3.816-25.382 44.329-73.17 126.49-17.292 29.729-26.396 45.683-45.363 79.5-11.451 20.414-16.33 26.034-24.729 28.475-4.738 1.377-18.565 1.527-119.296 1.291-113.748-.266-113.944-.27-118.526-2.39-9.806-4.535-15.092-12.62-15.725-24.056-.334-6.038-.008-8.024 2.054-12.5 2.658-5.771 49.346-86.774 53.788-93.32 1.492-2.2 25.761-43.825 53.931-92.5 28.17-48.675 53.6-92.325 56.511-97 2.911-4.675 5.635-9.619 6.053-10.985.419-1.367 8.512-15.767 17.985-32a36412.551 36412.551 0 0031.741-54.515c37.24-64.128 80.324-138.409 82.507-142.25 1.328-2.338 2.773-4.25 3.21-4.25.437 0 4.822 4.612 9.745 10.25 33.646 38.533 58.888 71.004 81.895 105.349 12.435 18.562 31.92 50.557 37.392 61.397 1.603 3.175 3.527 6.388 4.275 7.138.749.751 3.088 4.655 5.199 8.674 2.11 4.02 4.106 6.914 4.433 6.431.327-.483 4.125-2.609 8.44-4.724 4.314-2.116 8.366-4.369 9.003-5.006 1.405-1.405 19.77-11.538 32.165-17.747 7.783-3.9 25.51-13.451 26.15-14.092.12-.12-.656-2.868-1.725-6.108-2.542-7.703-1.755-8.382 1.021-.881 1.185 3.2 2.998 7.619 4.029 9.819 4.134 8.822 18.497 50.878 28.347 83 9.695 31.616 12.816 42.892 39.58 143 10.838 40.535 17.549 57.614 30.258 77 7.383 11.263 26.124 29.671 36.437 35.792 23.212 13.775 44.992 18.327 68.168 14.248 4.553-.801 8.724-1.732 9.269-2.07.545-.336 3.345-.796 6.222-1.022 6.721-.528 20.762-7.365 31.397-15.289 8.434-6.284 21.518-19.458 25.897-26.075 1.487-2.247 2.98-4.078 3.32-4.07.34.008 6.692 10.661 14.117 23.675 7.425 13.013 16.702 28.87 20.615 35.236 7.636 12.422 13.98 23.256 43.525 74.334 12.448 21.518 18.677 33.22 18.155 34.102-2.79 4.718-30.986 26.826-48.545 38.063-5.912 3.783-10.75 7.175-10.75 7.536 0 .362.648 1.53 1.44 2.598 1.416 1.912 1.503 1.907 5.75-.332 7.078-3.732 29.275-19.987 42.89-31.408 11.62-9.748 12.859-10.535 14.163-9 .787.925 8.8 14.507 17.806 30.182 9.007 15.675 19.035 32.775 22.285 38 10.375 16.68 62.311 107.368 63.511 110.899 4.267 12.555-2.822 28.17-15.345 33.802-3.827 1.721-21.178 1.805-402.5 1.942-219.175.08-400.37-.228-402.656-.682z" fill="#a820d3"/><path d="M195.334 1031.9c-13.425-2.667-22.61-13.86-22.53-27.46.019-3.412.68-7.734 1.469-9.603 3.309-7.845 112.241-194.716 115.47-198.088 1.943-2.028 5.83-4.69 8.64-5.916l5.107-2.229 133 .22c149.545.248 139.624.727 148.185-7.163 6.91-6.37 9.706-12.625 9.708-21.723.002-5.92-.491-8.449-2.34-12-8.363-16.073-141.894-246.145-144.42-248.835-1.723-1.835-5.158-4.535-7.633-6-3.981-2.358-5.536-2.665-13.5-2.658-7.295.006-9.766.416-13.045 2.166-4.928 2.63-11.565 9.662-14.443 15.304-3.093 6.061-52.52 91.517-56.696 98.023-3.389 5.28-40.422 69.848-62.316 108.65-11.73 20.791-15.725 25.342-24.476 27.886-4.465 1.298-20.315 1.462-119.087 1.23-113.748-.266-113.944-.27-118.526-2.39-9.806-4.535-15.092-12.62-15.725-24.056-.334-6.038-.008-8.024 2.054-12.5 2.652-5.759 49.332-86.751 53.785-93.32 2.112-3.116 97.284-166.747 107.69-185.154 3.716-6.573 4.178-6.754 12.495-4.9 16.861 3.76 33.601 10.714 46.65 19.382 3.455 2.294 6.637 4.172 7.071 4.172.435 0 2.428 1.111 4.43 2.47 5.23 3.549 4.481 1.418-1.61-4.585-11.753-11.578-34.04-23.603-50.75-27.382-10.66-2.41-10.233-2.197-9.428-4.733.391-1.232 8.462-15.522 17.935-31.755 20.649-35.385 35.748-61.38 78.839-135.727 35.598-61.42 37.314-64.288 38.455-64.288 1.95 0 40.632 46.16 58.66 70 53.676 70.979 86.005 131.016 130.479 242.312 10.19 25.5 17.922 43.785 20.023 47.348 1.025 1.738 3.97 8.038 6.547 14 2.575 5.962 5.246 11.43 5.934 12.151 1.436 1.507 5.902-.588 36.22-16.986 9.99-5.404 18.683-9.825 19.317-9.825.634 0 .916-.788.626-1.75-1.743-5.785-6.728-28.464-6.341-28.85.255-.256 1.384 3.262 2.507 7.817 2.936 11.904 5.17 19.983 6.162 22.283 1.805 4.186 3.097 8.577 8.089 27.5 6.51 24.675 7.935 29.381 12.396 40.932 17.593 45.555 47.189 75.35 85.08 85.65 9.198 2.5 32.136 3.017 41.5.934 4.124-.917 9.3-1.896 11.5-2.175l4-.507 14.26 24.833c7.844 13.658 15.378 26.183 16.742 27.833l2.481 3 5.258-2.901c12.687-7 39.318-25.781 50.011-35.27 2.064-1.83 4.107-3.33 4.54-3.33.432 0 5.228 7.763 10.659 17.25 5.43 9.488 10.942 18.706 12.249 20.484 3.8 5.173 38.3 65.297 38.3 66.75 0 3.074-23.846 22.573-44.417 36.32-7.657 5.117-15.202 10.38-16.766 11.697-1.564 1.316-11.05 6.424-21.081 11.351-25.944 12.745-46.914 20.383-75.737 27.588-7.975 1.994-15.85 4.054-17.5 4.578l-3 .953 3.5-.416c3.34-.396 3.385-.36 1 .77-3.317 1.574-3.918 4.12-.79 3.346 1.26-.312 6.158-1.044 10.886-1.628 25.052-3.09 65.413-18.153 96.357-35.959 4.859-2.796 10.027-5.083 11.485-5.083 4.67 0 35.791-22.119 54.071-38.43 3.477-3.102 6.643-5.287 7.035-4.855.392.431 8.465 14.285 17.94 30.785 9.474 16.5 18.017 30.9 18.986 32 3.041 3.455 8.083 11.924 37.29 62.636 15.636 27.15 28.95 50.893 29.585 52.763 4.267 12.555-2.822 28.17-15.345 33.802-3.827 1.721-21.178 1.805-402.5 1.942-219.175.08-400.37-.228-402.656-.682zm47.656-579.962c0-.55-.476-1-1.059-1-.582 0-.78.45-.44 1s.816 1 1.058 1c.243 0 .441-.45.441-1z" fill="#a21ed0"/><path d="M195.334 1031.9c-13.425-2.667-22.61-13.86-22.53-27.46.019-3.412.68-7.734 1.469-9.603 3.309-7.845 112.241-194.716 115.47-198.088 1.943-2.028 5.83-4.69 8.64-5.916l5.107-2.229 133 .22c149.545.248 139.624.727 148.185-7.163 6.91-6.37 9.706-12.625 9.708-21.723.002-5.92-.491-8.449-2.34-12-8.363-16.073-141.894-246.145-144.42-248.835-1.723-1.835-5.158-4.535-7.633-6-3.981-2.358-5.536-2.665-13.5-2.658-7.295.006-9.766.416-13.045 2.166-4.928 2.63-11.565 9.662-14.443 15.304-3.155 6.184-52.649 91.781-56.1 97.023-2.812 4.27-40.31 69.632-62.912 109.663-11.73 20.776-15.73 25.33-24.476 27.873-4.465 1.298-20.315 1.462-119.087 1.23-113.748-.266-113.944-.27-118.526-2.39-9.806-4.535-15.092-12.62-15.725-24.056-.334-6.038-.008-8.024 2.054-12.5 2.651-5.756 49.33-86.746 53.784-93.32 1.491-2.2 20.712-35.05 42.713-73 58.197-100.384 67.64-116.413 68.86-116.89 3.481-1.363 27.556 5.934 39.86 12.081 14.067 7.028 23.064 13.74 36.548 27.265 12.989 13.029 20.54 22.514 35.464 44.544 4.843 7.15 10.017 14.575 11.498 16.5 1.48 1.925 4.167 6.114 5.97 9.309 5.773 10.23 4.323 5.395-2.073-6.915-25.535-49.146-56.55-84.598-87.793-100.356-7.43-3.748-21.339-8.597-28.953-10.095-5.589-1.1-6.104-1.41-5.5-3.313.366-1.155 8.417-15.382 17.89-31.615 22.033-37.757 39.487-67.814 77.242-133.015 29.512-50.965 39.022-67 39.738-67 .19 0 7.043 7.762 15.23 17.25 53.833 62.388 90.674 116.583 122.532 180.25 18.133 36.236 27.933 58.791 53.229 122.5 35.264 88.817 58.822 134.361 92.779 179.37 8.034 10.648 19.54 22.03 21.055 20.828.653-.518 8.387-4.652 17.187-9.187 8.8-4.535 17.917-9.364 20.26-10.73l4.261-2.484-5.01-4.075c-6.974-5.673-6.312-6.876.74-1.344 10.864 8.525 30.665 18.376 43.75 21.766 12.401 3.213 35.008 3.21 46.915-.008 4.353-1.176 8.026-2.026 8.161-1.887.135.138 6.265 10.704 13.621 23.48 13.962 24.246 19.701 32.27 23.083 32.27 1.1 0 5.325-1.998 9.39-4.442 12.236-7.354 11.06-9.122 11.472 17.23.465 29.716.028 29.087 13.758 19.829 5.397-3.64 10.266-6.616 10.82-6.616 1.43 0 14.028-10.091 25.882-20.732 5.556-4.988 10.569-8.776 11.14-8.419.914.574 7.768 12.236 30.94 52.65 3.468 6.05 6.308 11.45 6.309 12 .01 2.652-25.797 23.246-46.825 37.372-7.884 5.296-15.534 10.456-17 11.467-5.893 4.064-39.516 19.824-52.558 24.635-34.536 12.74-68.952 19.755-106.406 21.688-8.31.429-12.719.989-11.203 1.423 1.597.457 1.868.752.75.816-2.146.122-2.252 1.438-.25 3.1 2.17 1.8 29.919 1.485 46.561-.53 41.638-5.038 84.175-19.525 122.114-41.589 3.67-2.135 7.496-3.873 8.5-3.862 1.335.014 6.39 7.943 18.805 29.5 9.413 16.342 17.6 29.48 18.37 29.48 2.758 0 31.742-18.617 49.558-31.832 5.999-4.45 11.288-7.855 11.754-7.567.467.288 2.579 3.083 4.694 6.212 5.92 8.754 60.682 104.24 61.99 108.087 4.266 12.555-2.823 28.17-15.346 33.802-3.827 1.721-21.178 1.805-402.5 1.942-219.175.08-400.37-.228-402.656-.682zM809.99 735.437c.685-.825 1.978-1.486 2.873-1.469 1.367.027 1.317.267-.314 1.5-2.526 1.911-4.154 1.891-2.559-.031zm8.5-5.5c.34-.55 1.068-1 1.618-1s.722.45.382 1c-.34.55-1.068 1-1.618 1s-.722-.45-.382-1zm4-3c.34-.55 1.068-1 1.618-1s.722.45.382 1c-.34.55-1.068 1-1.618 1s-.722-.45-.382-1zm4-3c.34-.55.817-1 1.06-1 .242 0 .44.45.44 1s-.476 1-1.059 1c-.582 0-.78-.45-.44-1z" fill="#961ccd"/><path d="M195.334 1031.9c-13.425-2.667-22.61-13.86-22.53-27.46.019-3.412.68-7.734 1.469-9.603 2.998-7.108 112.092-194.559 115.08-197.737 3.956-4.208 9.237-6.949 15.784-8.19 3.268-.62 27.356-.657 66.733-.103 77.65 1.092 199.915.03 205.525-1.786 5.554-1.796 13.828-10.383 15.919-16.52 2.444-7.173 2.17-15.97-.688-22.063-1.29-2.75-20.552-36.5-42.805-75s-53.706-92.947-69.895-120.993c-16.687-28.906-30.97-52.53-32.978-54.542-11.169-11.194-29.712-11.198-40.757-.01-2.585 2.619-5.81 6.963-7.168 9.653-4.613 9.146-54.267 94.882-56.023 96.732-1.676 1.766-2.42.523-18.265-30.5-21.816-42.714-32.53-61.806-46.209-82.34-22.95-34.455-43.28-54.51-68.16-67.238-9.849-5.039-22.798-9.667-30.49-10.897-4.71-.753-5.838-2.652-3.73-6.284 36.591-63.05 57.676-99.243 63.839-109.581 4.262-7.15 20.24-34.6 35.505-61 15.5-26.803 29.306-49.546 31.264-51.5 2.519-2.514 3.173-2.858 2.321-1.222-1.394 2.68-1.042 3.21 9.94 14.99 3.964 4.252 7.915 8.857 8.78 10.232.866 1.375 3.176 4.062 5.135 5.97 1.958 1.91 5.023 5.215 6.81 7.345 2.987 3.56 3.253 3.684 3.282 1.53.031-2.278.074-2.29 1.5-.404.808 1.067 1.47 3.092 1.472 4.5.005 3.556 2.901 7.95 10.073 15.283 3.375 3.452 9.105 10.776 12.732 16.276 3.627 5.5 11.611 16.98 17.741 25.512 36.52 50.827 69.07 114.011 100.967 195.988 32.366 83.181 47.613 116.798 73.161 161.298 31.583 55.013 67.993 93.618 104.88 111.204 18.8 8.963 33.629 11.965 55.505 11.238 20.856-.694 32.713-3.423 53.311-12.272 6.111-2.625 9.314-3.522 10.312-2.888.796.506 6.326 9.406 12.29 19.778 5.962 10.372 11.32 19.338 11.906 19.923 1.431 1.432 4.307.047 15.534-7.48 13.247-8.88 24.549-17.884 35.064-27.936 5.1-4.876 9.666-8.863 10.147-8.861.72.004 22.32 36.806 33.873 57.712l3 5.429-7 6.499c-9.145 8.491-27.436 22.433-40.548 30.909-5.749 3.715-11.688 7.78-13.2 9.034-3.908 3.242-30.14 16.366-44.564 22.295-30.976 12.733-64.337 21.088-96.677 24.213-7.386.714-21.209.959-36 .639-19.763-.429-26.664-.984-39.01-3.14-20.349-3.551-42.987-9.834-61.839-17.161-1.513-.589-1.778-.293-1.5 1.676.414 2.925 5.856 6.045 21.338 12.23 30.86 12.331 68.319 18.482 105.5 17.325 17.352-.54 24.789-1.1 42.338-3.182 2.89-.343 4.605-.199 4.26.36-.318.513 1.33 2.506 3.662 4.429 2.332 1.922 7.165 6.298 10.74 9.725 3.575 3.426 7.22 6.516 8.098 6.866 2.898 1.156 33.766 27.608 33.835 28.995.042.848.693 1.116 1.737.716.919-.353 3.506-1.063 5.75-1.579 7.116-1.635 18.79-5.621 30.62-10.455 11.107-4.54 43.219-20.206 47.361-23.108 3.713-2.6 8.495-1.245 9.84 2.789.333 1 1.012.989 3.339-.058 5.471-2.461 31.863-20.647 36.742-25.317 2.674-2.56 5.083-4.66 5.353-4.667.27-.01.792-.347 1.159-.756.366-.409.104-.42-.584-.024-.73.42-1.245.176-1.238-.59.01-.72 3.157-3.672 7-6.562 6.813-5.121 8.756-5.857 5.258-1.991-1.684 1.86-1.653 1.876 1.117.614 2.617-1.192 3.027-1.09 5.052 1.265 3.011 3.5 59.96 102.519 61.405 106.765 4.27 12.551-2.82 28.17-15.344 33.802-3.827 1.721-21.178 1.805-402.5 1.942-219.175.08-400.37-.228-402.656-.682zm747.732-138.632l2.424-2.67-2.718 1.92c-1.496 1.056-2.733 2.257-2.75 2.67-.052 1.231.496.885 3.044-1.92zM21.164 742.454c-8.546-2.667-15.114-9.02-18.004-17.416-1.976-5.74-1.443-14.975 1.19-20.6 2.632-5.626 49.465-86.798 53.657-93 1.487-2.2 14.53-24.25 28.985-49 36.416-62.353 51.306-87.673 65.57-111.5 12.222-20.419 16.066-26.318 14.824-22.75-.365 1.048-.117 1.75.62 1.75 1.39 0 21.143 16.518 30.918 25.855 3.539 3.38 6.805 6.145 7.258 6.145 1.068 0 38.806 31.898 38.815 32.808.004.38 1.676 1.817 3.715 3.192 2.04 1.375 12.592 10.023 23.45 19.22 10.858 9.195 19.488 16.058 19.178 15.25-.31-.809-.34-1.47-.065-1.47.806 0 12.973 19.62 19.224 31 13.584 24.73 26.491 49.262 26.491 50.35 0 .645-9.267 17.368-20.593 37.162-11.326 19.793-22.525 39.813-24.886 44.488-9.342 18.495-21.577 38.51-26.124 42.735-8.272 7.687-.949 7.273-127.328 7.198-91.565-.055-113.376-.32-116.895-1.417zm343.39-492.223c-.542-1.425-.427-1.54.56-.56.684.678.991 1.485.683 1.793-.308.308-.867-.247-1.242-1.233zm-4.564-5.352c0-.583.45-.781 1-.441s1 .816 1 1.059c0 .242-.45.44-1 .44s-1-.476-1-1.058zm-20.036-25.106c-1.145-2.233-1.118-2.26.61-.61.994.95 1.533 2.001 1.198 2.336-.335.336-1.149-.441-1.808-1.726zm-4.505-4.902c-.362-.587-.419-1.307-.125-1.6.716-.716 2.666.546 2.666 1.726 0 1.278-1.726 1.192-2.54-.126zM318.99 194.88c0-.583.45-.781 1-.441s1 .816 1 1.059c0 .242-.45.44-1 .44s-1-.476-1-1.058zm-7.54-8.008c-1.077-1.741.149-2.11 1.52-.458.789.95.865 1.525.202 1.525-.585 0-1.36-.48-1.723-1.067z" fill="#6d619a"/><path d="M191.012 1029.981c-7.618-2.63-14.282-9.693-16.57-17.561-2.081-7.16-1.482-13.515 1.904-20.197 1.357-2.679 20.58-36.126 42.719-74.328 22.138-38.202 46.476-80.257 54.083-93.457 15.456-26.817 19.303-31.45 28.19-33.95 4.379-1.233 24.888-1.454 136.652-1.478 142.905-.03 138.081.154 145.528-5.526 10.714-8.171 14.635-23.261 9.108-35.046-1.29-2.75-20.552-36.5-42.805-75s-53.706-92.947-69.895-120.993c-16.687-28.906-30.97-52.53-32.978-54.542-11.169-11.194-29.712-11.198-40.757-.01-2.585 2.619-5.81 6.963-7.168 9.653-4.613 9.146-54.267 94.882-56.023 96.732-1.676 1.766-2.42.523-18.265-30.5-21.816-42.714-32.53-61.806-46.209-82.34-22.95-34.455-43.28-54.51-68.16-67.238-9.849-5.039-22.798-9.667-30.49-10.897-2.231-.356-4.287-1.249-4.569-1.982-.282-.734 2.526-6.633 6.24-13.109 16.232-28.307 57.724-99.864 58.433-100.774.429-.55 14.839-25.3 32.023-55 17.652-30.509 32.77-55.523 34.75-57.5 2.52-2.514 3.174-2.858 2.322-1.222-1.394 2.68-1.042 3.21 9.94 14.99 3.964 4.252 7.915 8.857 8.78 10.232.866 1.375 3.176 4.062 5.135 5.97 1.958 1.91 5.023 5.215 6.81 7.345 2.987 3.56 3.253 3.684 3.282 1.53.031-2.278.074-2.29 1.5-.404.808 1.067 1.47 3.092 1.472 4.5.005 3.556 2.901 7.95 10.073 15.283 3.375 3.452 9.105 10.776 12.732 16.276 3.627 5.5 11.611 16.98 17.741 25.512 36.52 50.827 69.07 114.011 100.967 195.988 32.366 83.181 47.613 116.798 73.161 161.298 31.583 55.013 67.993 93.618 104.88 111.204 18.8 8.963 33.629 11.965 55.505 11.238 20.856-.694 32.713-3.423 53.311-12.272 6.111-2.625 9.314-3.522 10.312-2.888.796.506 6.326 9.406 12.29 19.778 5.962 10.372 11.32 19.338 11.906 19.923 1.431 1.432 4.307.047 15.534-7.48 13.247-8.88 24.549-17.884 35.064-27.936 5.1-4.876 9.666-8.863 10.147-8.861.72.004 22.32 36.806 33.873 57.712l3 5.429-7 6.499c-9.145 8.491-27.436 22.433-40.548 30.909-5.749 3.715-11.688 7.78-13.2 9.034-3.908 3.242-30.14 16.366-44.564 22.295-30.976 12.733-64.337 21.088-96.677 24.213-7.386.714-21.209.959-36 .639-19.763-.429-26.664-.984-39.01-3.14-20.349-3.551-42.987-9.834-61.839-17.161-1.513-.589-1.778-.293-1.5 1.676.414 2.925 5.856 6.045 21.338 12.23 30.86 12.331 68.319 18.482 105.5 17.325 17.352-.54 24.789-1.1 42.338-3.182 2.89-.343 4.605-.199 4.26.36-.318.513 1.33 2.506 3.662 4.429 2.332 1.922 7.165 6.298 10.74 9.725 3.575 3.426 7.22 6.516 8.098 6.866 2.898 1.156 33.766 27.608 33.835 28.995.042.848.693 1.116 1.737.716.919-.353 3.506-1.063 5.75-1.579 7.116-1.635 18.79-5.621 30.62-10.455 11.107-4.54 43.219-20.206 47.361-23.108 3.713-2.6 8.495-1.245 9.84 2.789.333 1 1.012.989 3.339-.058 5.471-2.461 31.863-20.647 36.742-25.317 2.674-2.56 5.083-4.66 5.353-4.667.27-.01.792-.347 1.159-.756.366-.409.104-.42-.584-.024-.73.42-1.245.176-1.238-.59.01-.72 3.157-3.672 7-6.562 6.813-5.121 8.756-5.857 5.258-1.991-1.682 1.858-1.652 1.876 1.042.649 2.426-1.106 3.001-1.023 4.6.666 2.69 2.843 60.231 103.175 61.88 107.899 2.994 8.575-.834 22.013-7.993 28.055-1.814 1.532-5.099 3.605-7.299 4.608-3.85 1.755-19.029 1.823-404 1.813-389.703-.01-400.14-.059-405.478-1.902zm752.054-136.713l2.424-2.67-2.718 1.92c-1.496 1.056-2.733 2.257-2.75 2.67-.052 1.231.496.885 3.044-1.92zM19.669 741.395C7.144 736.8-.624 721.41 3.261 708.89c.776-2.5 10.65-20.5 21.944-40 11.293-19.5 23.894-41.303 28.002-48.453 18.404-32.028 81.613-139.864 99.354-169.5 12.223-20.419 16.067-26.318 14.825-22.75-.365 1.048-.117 1.75.62 1.75 1.39 0 21.143 16.518 30.918 25.855 3.539 3.38 6.805 6.145 7.258 6.145 1.068 0 38.806 31.898 38.815 32.808.004.38 1.676 1.817 3.715 3.192 2.04 1.375 12.592 10.023 23.45 19.22 10.858 9.195 19.488 16.058 19.178 15.25-.31-.809-.34-1.47-.065-1.47.806 0 12.973 19.62 19.224 31 13.574 24.713 26.491 49.262 26.491 50.348 0 .644-8.37 15.792-18.602 33.661-10.231 17.87-21.18 37.216-24.331 42.99-11.312 20.734-24.369 42.563-27.439 45.873-1.72 1.855-5.378 4.438-8.128 5.74l-5 2.368-115-.06c-96.046-.051-115.63-.292-118.82-1.463zM364.555 250.23c-.543-1.425-.428-1.54.56-.56.683.678.99 1.485.682 1.793-.308.308-.867-.247-1.242-1.233zm-4.565-5.352c0-.583.45-.781 1-.441s1 .816 1 1.059c0 .242-.45.44-1 .44s-1-.476-1-1.058zm-20.036-25.106c-1.145-2.233-1.118-2.26.61-.61.994.95 1.533 2.001 1.198 2.336-.335.336-1.149-.441-1.808-1.726zm-4.505-4.902c-.362-.587-.419-1.307-.125-1.6.716-.716 2.666.546 2.666 1.726 0 1.278-1.726 1.192-2.54-.126zM318.99 194.88c0-.583.45-.781 1-.441s1 .816 1 1.059c0 .242-.45.44-1 .44s-1-.476-1-1.058zm-7.54-8.008c-1.077-1.741.149-2.11 1.52-.458.789.95.865 1.525.202 1.525-.585 0-1.36-.48-1.723-1.067z" fill="#8619c9"/><path d="M191.012 1029.981c-7.618-2.63-14.282-9.693-16.57-17.561-2.081-7.16-1.482-13.515 1.904-20.197 1.357-2.679 20.58-36.126 42.719-74.328 22.138-38.202 46.476-80.257 54.083-93.457 15.392-26.706 19.235-31.346 28.173-34.014 4.484-1.338 12.196-1.469 58.17-.987 60.582.635 84.926 1.395 82 2.563-1.1.438-1.515.829-.921.867.593.039 10.493 9.546 22 21.126 22.351 22.496 39.77 37.66 57.755 50.279 10.62 7.452 27.97 18.664 33.223 21.47 1.343.718 2.442 1.671 2.442 2.119 0 .811 26.94 23.953 34.462 29.601 2.179 1.637 5.104 4.164 6.5 5.617 3.776 3.93 35.853 30.859 36.758 30.859.43 0 3.48 2.515 6.78 5.589 3.3 3.074 8.925 8.136 12.5 11.25 3.575 3.113 6.725 5.93 7 6.259.454.543 5.679 1.043 26.536 2.542 8.88.639 38.33-1.17 51.753-3.177 47.052-7.037 93.083-22.34 134.639-44.759 6.835-3.687 13.21-6.704 14.166-6.704.957 0 2.595 1.174 3.64 2.61l1.902 2.609 6.623-4.36c17.645-11.614 27.61-18.768 32.053-23.014 2.68-2.56 5.093-4.66 5.363-4.667.27-.01.792-.346 1.159-.755.366-.41.104-.42-.584-.024-.73.42-1.245.175-1.238-.59.01-.72 3.157-3.673 7-6.562 6.813-5.122 8.756-5.858 5.258-1.992-1.682 1.858-1.652 1.876 1.042.649 2.426-1.106 3.001-1.022 4.6.666 2.69 2.844 60.231 103.175 61.88 107.899 2.994 8.575-.834 22.013-7.993 28.055-1.814 1.532-5.099 3.606-7.299 4.609-3.85 1.755-19.029 1.823-404 1.812-389.703-.01-400.14-.059-405.478-1.901zm752.054-136.713l2.424-2.67-2.718 1.92c-1.496 1.056-2.733 2.257-2.75 2.67-.052 1.231.496.885 3.044-1.92zm-285.276 7.608c-66.379-4.451-128.399-32.506-177.688-80.378-14.657-14.236-28.434-29.64-27.411-30.65.44-.434 29.228-.88 63.974-.99l63.174-.199 7.826 4.588c46.407 27.206 98.832 35.91 150.773 25.035 20.421-4.276 38.188-10.635 59.338-21.237 8.373-4.197 12.543-5.767 14.386-5.415 1.426.273 2.898.004 3.27-.598.846-1.37 2.558-1.433 2.558-.094 0 .55-.675 1-1.5 1s-1.497.337-1.494.75c.028 3.705 4.334 12.354 16.681 33.502 7.951 13.618 14.312 25.512 14.135 26.429-.64 3.316-36.92 20.875-61.322 29.68-40.026 14.44-86.581 21.267-126.7 18.577zM19.67 741.395C7.15 736.802-.625 721.41 3.256 708.905c1.956-6.304 98.5-172.162 109.558-188.217 3.23-4.69 4.536-5.937 3.666-3.5-.245.687 1.147 2.375 3.094 3.75 5.746 4.058 17.717 14.01 20.415 16.972 2.762 3.032 19.22 16.913 25.5 21.507 4.798 3.51 20.846 17.293 28.5 24.477 3.025 2.84 7.448 6.598 9.83 8.353 6.916 5.097 31.293 25.579 35.67 29.971 2.2 2.208 6.25 5.68 9 7.716 8.437 6.248 39.888 32.991 41.834 35.572 1.008 1.337 2.392 2.432 3.075 2.432.684 0 2.317 1.144 3.63 2.542l2.39 2.542 1.763-2.292c3.02-3.925 2.013-1.153-3.81 10.482-3.09 6.174-6.39 12.8-7.333 14.726-4.301 8.774-20.609 35.84-23.421 38.872-1.72 1.855-5.378 4.438-8.128 5.74l-5 2.368-115-.06c-96.046-.051-115.63-.292-118.82-1.463zm534.92-62.452c-1.499-2.753-2.49-5.005-2.204-5.005.81 0 5.905 9.032 5.387 9.55-.252.253-1.685-1.793-3.183-4.545zm-13.83-24.255c-2.59-3.994-3.995-7.008-2.973-6.376 1.019.63 5.47 8.626 4.802 8.626-.203 0-1.025-1.013-1.828-2.25zm-7.205-12.457c-.543-1.425-.428-1.54.56-.56.683.678.99 1.485.682 1.793-.308.308-.867-.247-1.242-1.233zm17.435-5.793c0-.825.177-1.5.393-1.5.216 0 .652.675.969 1.5.316.825.14 1.5-.393 1.5s-.969-.675-.969-1.5zm-21.435-1.207c-.543-1.425-.428-1.54.56-.56.683.678.99 1.485.682 1.793-.308.308-.867-.247-1.242-1.233zm-11.002-18.612c-16.829-28.683-56.164-96.19-61.52-105.577-6.66-11.675-9.487-14.926-16.224-18.658-4.783-2.65-6.225-2.946-14.319-2.946-8.107 0-9.531.294-14.355 2.966-6.853 3.796-10.215 7.88-15.662 19.034-5.77 11.812-52.69 92.789-53.983 93.166-.55.16-6.625-10.792-13.5-24.34-41.82-82.405-65.337-117.373-94.946-141.184-15.919-12.8-33.557-21.645-51.304-25.726-4.262-.98-7.75-2.225-7.75-2.766 0-1.482 60.105-105.69 64.975-112.65 1.731-2.475 16.772-28.014 33.423-56.753 16.651-28.74 30.508-52.486 30.792-52.77.441-.442 19.178 20.673 36.402 41.023 26.001 30.719 58.757 77.21 78.913 112 9.589 16.55 28.75 54.608 39.273 78 17.681 39.305 55.564 136.5 53.203 136.5-.612 0-.98 8.52-.98 22.677v22.678l8.541 14.947c4.698 8.221 8.404 15.085 8.235 15.254-.169.169-4.315-6.525-9.214-14.875zm27.437 10.76c0-.858.45-1.281 1-.941.55.34 1 1.041 1 1.559 0 .517-.45.94-1 .94s-1-.7-1-1.558zm-15.061-30.047c-11.506-23.98-13.1-27.566-12.514-28.152.286-.286.934.555 1.44 1.869 1.013 2.63 8.306 18.13 15.453 32.85 2.527 5.203 4.4 9.655 4.16 9.893-.238.239-4.08-7.168-8.539-16.46zM116.99 514.188c0-.478.653-1.742 1.45-2.81 1.4-1.872 1.43-1.86.88.325-.569 2.257-2.33 4.135-2.33 2.485z" fill="#8419b9"/><path d="M191.012 1029.981c-7.618-2.63-14.282-9.693-16.57-17.561-2.081-7.16-1.482-13.515 1.904-20.197 1.357-2.679 20.58-36.126 42.719-74.328 22.138-38.202 46.476-80.257 54.083-93.457 15.354-26.641 19.25-31.356 28.08-33.978 4.349-1.292 12.698-1.433 58.17-.987 60.429.594 85.039 1.352 82.092 2.527-1.1.438-1.514.829-.92.867.593.039 10.493 9.546 22 21.126 22.351 22.496 39.77 37.66 57.755 50.279 10.62 7.452 27.97 18.664 33.223 21.47 1.343.718 2.442 1.671 2.442 2.119 0 .811 26.94 23.953 34.462 29.601 2.179 1.637 5.104 4.164 6.5 5.617 3.776 3.93 35.853 30.859 36.758 30.859.43 0 3.48 2.515 6.78 5.589 3.3 3.074 8.925 8.136 12.5 11.25 3.575 3.113 6.725 5.932 7 6.265.976 1.178 21.746 2.394 38.5 2.252 9.35-.079 16.442.07 15.76.33-.951.364-.91.807.178 1.894.78.78 1.902 1.42 2.49 1.42.59 0 1.072.468 1.072 1.04 0 2.2 30.993-1.558 54.83-6.65 33.532-7.163 66.005-18.6 95.17-33.52 33.872-17.326 49.48-27.114 74.338-46.62 9.058-7.107 11.048-8.277 12.115-7.127 2.36 2.542 59.915 103.267 61.34 107.346 2.993 8.575-.835 22.013-7.994 28.055-1.814 1.532-5.099 3.605-7.299 4.608-3.85 1.755-19.029 1.823-404 1.813-389.703-.01-400.14-.059-405.478-1.902zm518.546-44.768c-1.812-.462-1.782-.612.5-2.44l2.432-1.947-4.25.332c-2.337.183-4.25 0-4.25-.413 0-.41-.712-.471-1.584-.137-1.275.49-1.324.773-.25 1.454.947.6.608.884-1.166.98-2.599.139 6.065 2.723 9 2.684.825-.011.63-.242-.432-.513zm10.432-6.275c.825-.534 1.95-.97 2.5-.97s.325.436-.5.97c-.825.533-1.95.969-2.5.969s-.325-.436.5-.97zm-62.2-78.062c-66.379-4.451-128.399-32.506-177.688-80.378-14.667-14.246-28.433-29.64-27.411-30.654.44-.436 29.238-.875 63.996-.976l63.197-.183 7.803 4.575c46.384 27.192 98.82 35.895 150.75 25.022 20.422-4.276 38.189-10.635 59.339-21.237 8.373-4.197 12.543-5.767 14.386-5.415 1.426.273 2.898.004 3.27-.598.846-1.37 2.558-1.433 2.558-.094 0 .55-.675 1-1.5 1s-1.497.337-1.494.75c.028 3.705 4.334 12.354 16.681 33.502 7.951 13.618 14.312 25.512 14.135 26.429-.64 3.316-36.92 20.875-61.322 29.68-40.026 14.44-86.581 21.267-126.7 18.577zM19.67 741.395C7.524 736.94-.275 722.25 2.963 709.927c1.79-6.81 104.272-182.77 111.528-191.49 1.373-1.65 2.282-2.324 2.02-1.5-.29.914.908 2.478 3.063 4 5.746 4.06 17.717 14.012 20.415 16.973 2.762 3.032 19.22 16.913 25.5 21.507 4.798 3.51 20.846 17.293 28.5 24.477 3.025 2.84 7.448 6.598 9.83 8.353 6.916 5.097 31.293 25.579 35.67 29.971 2.2 2.208 6.25 5.68 9 7.716 8.437 6.248 39.888 32.991 41.834 35.572 1.008 1.337 2.392 2.432 3.075 2.432.684 0 2.317 1.144 3.63 2.542l2.39 2.542 1.763-2.292c.97-1.26 1.774-1.993 1.786-1.628.044 1.317-18.359 36.622-25.716 49.336-8.763 15.143-11.932 18.878-18.762 22.112l-5 2.368-115-.06c-96.046-.051-115.63-.292-118.82-1.463zm534.92-62.452c-1.499-2.753-2.49-5.005-2.204-5.005.81 0 5.905 9.032 5.387 9.55-.252.253-1.685-1.793-3.183-4.545zm-13.83-24.255c-2.59-3.994-3.995-7.008-2.973-6.376 1.019.63 5.47 8.626 4.802 8.626-.203 0-1.025-1.013-1.828-2.25zm-7.205-12.457c-.543-1.425-.428-1.54.56-.56.683.678.99 1.485.682 1.793-.308.308-.867-.247-1.242-1.233zm17.435-5.793c0-.825.177-1.5.393-1.5.216 0 .652.675.969 1.5.316.825.14 1.5-.393 1.5s-.969-.675-.969-1.5zm-21.435-1.207c-.543-1.425-.428-1.54.56-.56.683.678.99 1.485.682 1.793-.308.308-.867-.247-1.242-1.233zm-11.002-18.612c-16.829-28.683-56.164-96.19-61.52-105.577-6.66-11.675-9.487-14.926-16.224-18.658-4.783-2.65-6.225-2.946-14.319-2.946-8.107 0-9.531.294-14.355 2.966-6.853 3.796-10.215 7.88-15.662 19.034-5.77 11.812-52.69 92.789-53.983 93.166-.55.16-6.625-10.792-13.5-24.34-41.82-82.405-65.337-117.373-94.946-141.184-15.919-12.8-33.557-21.645-51.304-25.726-4.262-.98-7.75-2.227-7.75-2.77 0-1.103 9.578-17.862 42.662-74.646 12.336-21.175 23.266-39.625 24.288-41 1.022-1.375 15.238-25.675 31.592-54 16.353-28.325 30.048-51.855 30.433-52.288.593-.666 16.982 17.59 36.617 40.788 26.001 30.719 58.757 77.21 78.913 112 9.589 16.55 28.75 54.608 39.273 78 17.681 39.305 55.564 136.5 53.203 136.5-.612 0-.98 8.52-.98 22.677v22.678l8.541 14.947c4.698 8.221 8.404 15.085 8.235 15.254-.169.169-4.315-6.525-9.214-14.875zm27.437 10.76c0-.858.45-1.281 1-.941.55.34 1 1.041 1 1.559 0 .517-.45.94-1 .94s-1-.7-1-1.558zm-15.061-30.047c-11.506-23.98-13.1-27.566-12.514-28.152.286-.286.934.555 1.44 1.869 1.013 2.63 8.306 18.13 15.453 32.85 2.527 5.203 4.4 9.655 4.16 9.893-.238.239-4.08-7.168-8.539-16.46zM116.99 514.188c0-.478.653-1.742 1.45-2.81 1.4-1.872 1.43-1.86.88.325-.569 2.257-2.33 4.135-2.33 2.485z" fill="#7817c3"/><path d="M191.012 1029.981c-7.618-2.63-14.282-9.693-16.57-17.561-2.081-7.16-1.482-13.515 1.904-20.197 1.357-2.679 20.58-36.126 42.719-74.328 22.138-38.202 46.476-80.257 54.083-93.457 20.57-35.692 21.11-36.05 53.245-35.265 10.504.257 19.808.777 20.676 1.157 1.064.465 1.597 2.064 1.635 4.907.086 6.39 8.603 20.664 26.375 44.2 9.833 13.022 12.702 16.218 14.141 15.75.424-.137.77.469.77 1.346 0 2.778 4.063 7.595 5.833 6.915.884-.339 1.311-.321.95.04-.36.36.554 1.77 2.031 3.133s2.011 2.14 1.186 1.725c-1.014-.508-.89-.057.384 1.396 1.036 1.182 2.273 1.907 2.75 1.613.476-.294.866.105.866.889 0 2.752 3.868 6.54 6.086 5.96 1.6-.418 3.757 1.077 9.25 6.412 40.047 38.893 88.902 66.708 146.164 83.216 26.06 7.513 85.012 15.97 107 15.35 10.418-.294 20.124.725 18.404 1.932-1.999 1.402 31.872.165 47.258-1.725 24.578-3.02 53.087-9.569 78.217-17.965 21.983-7.345 40.906-15.716 69.121-30.58a651.1 651.1 0 0110-5.158c6.654-3.322 34.29-22.077 45.96-31.19 6.027-4.707 11.472-8.558 12.1-8.558 1.352 0 60.18 101.59 62.231 107.466 2.995 8.578-.832 22.015-7.992 28.058-1.814 1.532-5.099 3.605-7.299 4.608-3.85 1.755-19.029 1.823-404 1.813-389.703-.01-400.14-.06-405.478-1.902zm479.707-44.648c-.332-.332-1.194-.367-1.916-.079-.798.32-.561.557.604.605 1.054.043 1.645-.193 1.312-.526zm-16.007-85.506c-35.466-2.726-69.536-12.188-101.655-28.232-21.973-10.977-40.256-23.353-61.165-41.404-15.135-13.066-37.902-37.254-37.902-40.267 0-1.055 10.213-1.191 54.567-.727 31.115.326 57.343.178 61.027-.344l6.46-.915 9.224 5.577c24.291 14.688 51.658 24.56 80.337 28.977 14.965 2.306 43.058 2.293 58.775-.026 25.093-3.702 45.59-10.13 70.402-22.077l15.291-7.364 1.955 3.206c1.075 1.764 1.956 3.538 1.959 3.944.01 1.03-6.43 4.942-13.16 8-3.116 1.415-6.15 3.48-6.743 4.588s-2.65 2.533-4.572 3.167c-1.922.635-3.746 1.56-4.053 2.058-.308.498 1.726 4.292 4.518 8.43 2.793 4.14 5.366 8.312 5.718 9.273.818 2.235 8.297 13.43 9.852 14.747 1.859 1.573 9.443 13.261 9.443 14.552 0 .639.675.888 1.5.555 10.888-4.406-2.845 3.299-15.978 8.965-46.02 19.853-98.448 28.957-145.8 25.317zM19.67 741.395C7.525 736.94-.274 722.25 2.964 709.927c1.712-6.517 60.922-108.285 65.895-113.258 2.99-2.99 30.632-5.82 55.631-5.694 20.37.103 40.163 2.692 50.178 6.562 3.752 1.45 8.397 2.99 10.322 3.424 5.906 1.328 17.005 5.806 24.756 9.986 28.68 15.47 52.413 38.117 77.279 73.744 4.282 6.136 4.34 6.325 3.034 10-2.032 5.722-19.899 36.302-23.44 40.12-1.72 1.854-5.379 4.437-8.129 5.74l-5 2.367-115-.06c-96.046-.051-115.63-.292-118.82-1.463zM328.78 578.68c-44.161-87.7-70.751-124.947-105.923-148.377-5.3-3.53-13.174-7.951-17.5-9.825-8.164-3.536-24.23-8.54-27.419-8.54-1.006 0-2.111-.458-2.457-1.017-.589-.953 60.111-106.607 64.32-111.954l1.945-2.471 4.159 2.882c14.969 10.373 44.307 39.415 61.178 60.56 27.795 34.836 47.677 67.254 75.08 122.415 9.414 18.952 13.759 28.725 13.402 30.149-.291 1.158-2.927 6.117-5.858 11.02-2.93 4.904-14.51 25.003-25.733 44.666-11.223 19.662-20.873 35.746-21.444 35.742-.571-.004-6.759-11.367-13.75-25.25z" fill="#6b14ba"/><path d="M191.012 1029.981c-7.618-2.63-14.282-9.693-16.57-17.561-2.081-7.16-1.482-13.515 1.904-20.197 1.357-2.679 20.58-36.126 42.719-74.328 22.138-38.202 46.476-80.257 54.083-93.457 20.048-34.785 21.043-35.5 49.369-35.5 14.142 0 16.355.218 17.699 1.75.844.962 5.702 8.275 10.794 16.25 21.306 33.367 39.982 57.124 62.923 80.04 9.106 9.097 20.85 19.959 26.096 24.137 60.336 48.058 132.243 72.83 222.79 76.75 53.933 2.335 105.795-4.906 154.313-21.546 43.248-14.833 89.947-40.098 125.32-67.801 8.734-6.84 11.211-8.33 12.188-7.333 1.707 1.744 58.602 100.45 60.38 104.753.796 1.925 1.45 6.2 1.454 9.5.013 11.16-7.119 21.343-17.52 25.012-3.705 1.308-52.551 1.484-403.34 1.455-388.813-.032-399.265-.082-404.602-1.924zM641.36 897.374c-56.712-6.876-107.887-30.821-153.604-71.873-11.135-9.998-32.986-33.401-32.513-34.821.149-.446 27.496-.82 60.771-.83l60.5-.018 9.489 5.724c16.393 9.889 37.903 19.02 56.305 23.9 10.842 2.876 28.242 6.459 31.432 6.472 1.238.005 2.25.46 2.25 1.01s-.701 1-1.559 1c-.857 0-1.289.436-.959.97 1.276 2.065-5.525 2.293-19.752.663-8.149-.934-15.25-1.43-15.778-1.103-1.264.78 1.65 5.755 17.73 30.278 7.325 11.17 13.318 20.515 13.318 20.766 0 .905 7.299 11.426 7.926 11.426.984 0 4.301 5.986 3.38 6.1-.443.054.32.46 1.694.9 4.204 1.346-28.634.89-40.63-.564zM19.67 741.394C7.15 736.803-.625 721.412 3.257 708.903c1.913-6.166 54.447-96.736 57.11-98.46 1.167-.755 7.522-2.725 14.122-4.377 60.341-15.106 109.064-7.813 152.754 22.865 10.859 7.625 32.566 28.86 42.06 41.144 9.818 12.703 18.686 25.989 18.686 27.993 0 2.446-17.557 32.629-21.372 36.743-1.72 1.855-5.378 4.438-8.128 5.74l-5 2.368-115-.06c-96.046-.051-115.63-.292-118.82-1.463zm307.462-167.472c-8.442-16.475-19.046-36.599-23.565-44.72-39.972-71.836-74.348-105.397-119.396-116.562-6.899-1.71-8.242-2.36-7.865-3.803.25-.958 13.495-23.947 29.43-51.087 15.937-27.14 29.905-51.168 31.042-53.396 3.668-7.191 3.618-7.2 16.1 2.8 33.724 27.021 65.815 65.914 95.692 115.976 10.307 17.27 32.087 58.463 40.934 77.42l5.653 12.111-25.227 44.388c-13.875 24.414-25.727 44.937-26.338 45.608-.838.919-4.889-6.153-16.46-28.735z" fill="#5610b8"/><path d="M191.012 1029.984c-7.619-2.633-14.283-9.698-16.57-17.564-2.081-7.16-1.482-13.515 1.904-20.197 1.357-2.679 20.58-36.126 42.719-74.328 22.138-38.202 46.476-80.257 54.083-93.457 19.979-34.665 21.143-35.512 48.774-35.485 8.562.008 16.076.346 16.697.75.62.404 5.684 7.822 11.252 16.484 23.782 37 45.197 64.104 67.753 85.753 65.03 62.413 147.418 93.842 253.366 96.652 62.825 1.666 123.377-9.981 178.5-34.334 31.955-14.117 68.053-35.5 93.291-55.262 5.66-4.432 10.663-8.058 11.117-8.058.933 0 59.35 100.848 61.111 105.5 1.54 4.064 1.506 12.07-.073 17.309-1.602 5.316-7.815 12.539-13.318 15.482l-4.128 2.209-400.5.22c-390.709.214-400.634.173-405.978-1.674zM562.257 873.51c-31.638-13.034-69.797-41.198-96.393-71.147-5.156-5.806-9.538-11.018-9.738-11.583-.245-.692 8.092-.924 25.5-.71 29.919.366 37.171.75 35.35 1.876-1.792 1.108.087 4.172 28.499 46.492 25.015 37.26 25.839 38.512 25.324 38.481-.17-.01-4.014-1.544-8.542-3.41zM19.67 741.395C7.15 736.802-.624 721.41 3.258 708.902c.774-2.494 13.478-25.385 28.23-50.868 23.001-39.73 27.264-46.516 29.913-47.62 4.857-2.022 27.085-7.257 38.09-8.97 5.5-.856 16.524-1.829 24.5-2.162 37.64-1.573 69.355 7.308 100 28.003 12.294 8.304 35.96 31.241 46.07 44.653 9.2 12.205 17.93 25.17 17.93 26.63 0 2.077-18.008 32.614-21.373 36.242-1.72 1.855-5.378 4.438-8.128 5.74l-5 2.368-115-.06c-96.046-.051-115.63-.292-118.82-1.463zm308.887-166.207c-7.41-14.713-16.663-32.6-20.563-39.75-35.216-64.576-64.344-98.019-100.103-114.93-8.983-4.25-25.081-9.57-28.953-9.57-1.006 0-2.11-.454-2.452-1.01-.522-.844 34.287-60.452 38.79-66.426 1.368-1.813 2.08-.989 11.244 13 5.382 8.215 12.387 18.76 15.567 23.436 3.18 4.675 9.297 13.839 13.593 20.364 6.086 9.244 28.84 43.535 34.811 52.463.55.822 7.3 11.113 15 22.868 20.207 30.85 24.513 37.327 34.263 51.545 4.806 7.007 12.09 18.114 16.19 24.684 4.098 6.569 7.841 11.703 8.317 11.409 1.202-.743-3.079 7.635-12.476 24.417-4.388 7.837-8.378 14.25-8.867 14.25-.488 0-6.95-12.038-14.36-26.75zM258.99 321.3c-5.775-4.694-12.862-10.135-15.75-12.09-5.576-3.777-6.068-4.77-3.859-7.793 1.317-1.8 1.888-1.498 10.75 5.705 10.928 8.881 20.86 18.995 20.86 21.241 0 .866-.338 1.552-.75 1.524-.413-.028-5.476-3.892-11.25-8.587z" fill="#544e73"/><path d="M194.99 1031c-8.454-1.72-15.497-7.348-18.847-15.062-2.83-6.52-3.398-11.78-1.887-17.5.828-3.135 17.389-32.8 44.38-79.5 23.684-40.975 48.605-84.175 55.382-96 18.772-32.757 20.541-34.012 47.904-33.985 8.562.008 16.076.346 16.697.75.62.404 5.684 7.822 11.252 16.484 23.782 37 45.197 64.104 67.753 85.753 65.03 62.413 147.418 93.842 253.366 96.652 62.825 1.666 123.377-9.981 178.5-34.334 31.955-14.117 68.053-35.5 93.291-55.262 5.66-4.432 10.663-8.058 11.117-8.058.933 0 59.35 100.848 61.111 105.5 1.54 4.064 1.506 12.07-.073 17.309-1.602 5.316-7.815 12.539-13.318 15.482l-4.128 2.209-399.5.137c-219.725.076-401.075-.183-403-.574zm367.267-157.49c-31.638-13.034-69.797-41.198-96.393-71.147-5.156-5.806-9.538-11.018-9.738-11.583-.245-.692 8.092-.924 25.5-.71 29.919.366 37.171.75 35.35 1.876-1.792 1.108.087 4.172 28.499 46.492 25.015 37.26 25.839 38.512 25.324 38.481-.17-.01-4.014-1.544-8.542-3.41zM21.984 742.003c-4.851-1.475-8.682-3.978-12.416-8.111-5.142-5.692-6.843-10.203-6.858-18.195-.017-8.264-1.752-4.817 30.515-60.625 21.489-37.165 25.516-43.55 28.17-44.655 4.862-2.025 27.085-7.26 38.095-8.973 5.5-.856 16.525-1.829 24.5-2.162 37.642-1.573 69.356 7.308 100 28.003 12.295 8.304 35.961 31.241 46.071 44.653 9.2 12.205 17.93 25.17 17.93 26.63 0 2.077-18.008 32.614-21.373 36.242-1.72 1.855-5.378 4.438-8.128 5.74l-5 2.368-114.5-.076c-62.975-.042-115.628-.42-117.006-.839zm306.572-166.815c-7.41-14.713-16.663-32.6-20.563-39.75-35.216-64.576-64.344-98.019-100.103-114.93-8.983-4.25-25.081-9.57-28.953-9.57-1.006 0-2.11-.454-2.452-1.01-.522-.844 34.287-60.452 38.79-66.426 1.368-1.813 2.08-.989 11.244 13 5.382 8.215 12.387 18.76 15.567 23.436 3.18 4.675 9.297 13.839 13.593 20.364 6.086 9.244 28.84 43.535 34.811 52.463.55.822 7.3 11.113 15 22.868 20.207 30.85 24.513 37.327 34.263 51.545 4.806 7.007 12.09 18.114 16.19 24.684 4.098 6.569 7.841 11.703 8.317 11.409 1.202-.743-3.079 7.635-12.476 24.417-4.388 7.837-8.378 14.25-8.867 14.25-.488 0-6.95-12.038-14.36-26.75zM258.99 321.3c-5.775-4.694-12.862-10.135-15.75-12.09-5.576-3.777-6.068-4.77-3.859-7.793 1.317-1.8 1.888-1.498 10.75 5.705 10.928 8.881 20.86 18.995 20.86 21.241 0 .866-.338 1.552-.75 1.524-.413-.028-5.476-3.892-11.25-8.587z" fill="#4b11b3"/><path d="M194.99 1031.025c-8.512-1.79-15.502-7.386-18.847-15.087-2.828-6.514-3.397-11.779-1.891-17.5 1.315-4.996 107.95-190.665 114.281-198.982 1.793-2.356 5.427-5.217 8.847-6.966 5.54-2.833 6.503-2.987 21.16-3.38 8.445-.227 16.423-.145 17.729.183 1.717.43 5.223 5.056 12.678 16.721 22.285 34.875 41.133 59.006 64.035 81.98 8.53 8.557 20.458 19.51 26.508 24.342 54.793 43.753 120.073 68.34 200.5 75.514 72.724 6.487 142.352-4.138 206.846-31.563 32.062-13.634 72.523-37.285 97.154-56.79 5.225-4.138 9.725-7.528 10-7.533.275-.01 3.627 5.5 7.449 12.232 3.822 6.733 15.462 26.867 25.867 44.742 28.647 49.21 28.186 48.293 28.148 56-.054 10.959-5.616 19.727-15.464 24.375l-4.5 2.125-398.5.161c-219.175.089-400.075-.17-402-.574zM21.984 742.003c-4.798-1.459-8.667-3.96-12.236-7.912-4.62-5.113-5.591-7.002-6.753-13.126-1.86-9.808-.988-11.75 27.1-60.323 14.377-24.863 27.097-46.197 28.267-47.41 2.34-2.423 22.543-7.938 39.628-10.815 13.267-2.234 41.354-3.05 53.612-1.557 51.55 6.28 92.187 33.532 128.24 86.003 3.932 5.721 7.148 11.226 7.148 12.232 0 3.246-17.803 33.102-22.07 37.011-7.9 7.24-.413 6.841-126.858 6.746-62.464-.048-114.7-.43-116.078-.849zM182.49 410.69c-2.75-.557-5.138-1.13-5.307-1.273-.17-.144 1.174-2.671 2.987-5.616 2.596-4.22 3.374-4.932 3.671-3.36.625 3.306 5.15 10.342 6.958 10.819 3.367.887-3.396.424-8.309-.57z" fill="#3613ac"/><path d="M195.287 1030.888c-14.448-2.854-23.552-16.118-21.215-30.906.642-4.06 6.146-14.312 27.547-51.309 63.983-110.61 85.738-147.467 89.085-150.924 6.638-6.855 10.82-7.898 30.418-7.585l17.151.274 10.735 16.66c31.315 48.604 57.834 79.392 91.866 106.659 52.447 42.02 113.908 65.505 194.616 74.363 18.558 2.037 80.246 1.756 97.652-.445 35.214-4.452 76.67-14.407 102.598-24.637 2.888-1.14 5.25-1.689 5.25-1.222 0 .468-2.137 1.629-4.75 2.58-2.612.952-6.168 2.363-7.9 3.136-1.734.773-3.647 1.406-4.25 1.406-.605 0-1.1.368-1.1.817 0 .804 22.296 17.31 24.415 18.074 1.74.628 25.064 17.819 28.382 20.92 1.663 1.552 5.781 4.593 9.151 6.756 3.37 2.163 9.254 6.284 13.074 9.159l6.947 5.226 17.266.274c9.496.15-96.997.611-236.651 1.024-309.513.914-484.685.807-490.287-.3zM20.96 741.412c-6.15-1.91-12.745-7.797-15.596-13.919-2.77-5.948-3.196-15.65-.927-21.082 1.644-3.935 52.238-91.31 53.976-93.215.623-.683 7.195-2.798 14.605-4.7 50.75-13.03 92.462-10.3 130.472 8.535 26.867 13.314 51.227 35.45 73.225 66.54 3.839 5.427 7.756 11.224 8.705 12.882l1.724 3.015-9.146 15.985c-10.021 17.512-13.145 21.385-19.964 24.745l-4.544 2.24-114 .19c-95.576.16-114.732-.036-118.53-1.216z" fill="#423a64"/><path d="M195.287 1030.888c-14.448-2.854-23.552-16.118-21.215-30.906.642-4.06 6.146-14.312 27.547-51.309 63.983-110.61 85.738-147.467 89.085-150.924 6.638-6.855 10.82-7.898 30.418-7.585l17.151.274 10.735 16.66c31.315 48.604 57.834 79.392 91.866 106.659 52.447 42.02 113.908 65.505 194.616 74.363 18.558 2.037 80.246 1.756 97.652-.445 35.214-4.452 76.67-14.407 102.598-24.637 2.888-1.14 5.25-1.689 5.25-1.222 0 .468-2.137 1.629-4.75 2.58-2.612.952-6.168 2.363-7.9 3.136-1.734.773-3.647 1.406-4.25 1.406-.605 0-1.1.368-1.1.817 0 .804 22.296 17.31 24.415 18.074 1.74.628 25.064 17.819 28.382 20.92 1.663 1.552 5.781 4.593 9.151 6.756 3.37 2.163 9.254 6.284 13.074 9.159l6.947 5.226 17.266.274c9.496.15-96.997.611-236.651 1.024-309.513.914-484.685.807-490.287-.3zM20.96 741.412c-6.15-1.91-12.745-7.797-15.596-13.919-2.77-5.948-3.196-15.65-.927-21.082 1.644-3.935 52.238-91.31 53.976-93.215.623-.683 7.195-2.798 14.605-4.7 50.75-13.03 92.462-10.3 130.472 8.535 26.867 13.314 51.227 35.45 73.225 66.54 3.839 5.427 7.756 11.224 8.705 12.882l1.724 3.015-9.146 15.985c-10.021 17.512-13.145 21.385-19.964 24.745l-4.544 2.24-114 .19c-95.576.16-114.732-.036-118.53-1.216z" fill="#2b0e93"/><path d="M189.99 1028.86c-5.55-2.51-10.53-7.17-13.198-12.35-2.59-5.027-3.436-14.1-1.789-19.177 1.508-4.646 51.307-91.056 102.524-177.895 11.731-19.89 13.593-22.174 20.901-25.631 5.04-2.384 7.243-2.843 13.062-2.722l7 .146-7 .67c-3.85.369-8.784 1.27-10.965 2.002-3.407 1.144-3.68 1.437-1.942 2.08 1.112.41 9.52 6.194 18.683 12.851 9.163 6.657 16.916 12.104 17.228 12.104.889 0 18.821 13.146 20.496 15.025.825.926 5.1 4.297 9.5 7.492 4.4 3.195 8.27 6.215 8.6 6.712.33.497 1.283 1.004 2.116 1.126.834.122 8.94 8.554 18.014 18.737 39.241 44.037 76.592 70.952 129.27 93.152 15.636 6.59 24.683 9.62 42.362 14.19 7.349 1.9 13.649 3.745 14 4.1 1.12 1.13-6.925-.696-22.362-5.075-8.25-2.34-15.088-4.174-15.196-4.077-.109.098 1.916 1.288 4.5 2.645 2.583 1.357 13.546 8.881 24.361 16.72 10.816 7.839 20.154 14.253 20.75 14.253.597 0 1.085.408 1.085.908 0 .499 6.542 5.674 14.537 11.5 12.068 8.793 15.167 10.604 18.25 10.662 2.042.039 4.613.457 5.713.93 1.124.483-93.946.88-217 .907-218.152.048-219.017.04-223.5-1.986zm172.088-196.172a296.42 296.42 0 00-2.856-4.5c-2.617-4.028-.657-2.37 2.66 2.25 1.778 2.475 2.863 4.5 2.411 4.5-.452 0-1.449-1.013-2.215-2.25zm-344.92-93.354C5.989 733.767.213 719.465 4.4 707.737c1.327-3.717 42.429-74.076 49.83-85.3 2.175-3.3 3.657-4.987 3.291-3.75-.483 1.638-.251 2.25.853 2.25.835 0 1.878.643 2.318 1.429.742 1.326 11.91 9.64 18.8 13.996 7.29 4.61 39.126 28.112 40.306 29.756.719 1 1.763 1.82 2.322 1.82.558 0 9.951 6.492 20.874 14.428 10.923 7.935 20.903 14.983 22.178 15.663 3.01 1.603 13.222 9.192 13.646 10.14.407.908 27.736 20.769 28.58 20.769.337 0 3.974 2.485 8.081 5.523l7.47 5.523 13.77.831c8.755.528-27.783.884-100.281.977l-114.054.146zM60.99 614.603c0-.258 1.453-.976 3.227-1.595 1.775-.618 2.788-.713 2.25-.21-1.138 1.066-5.477 2.496-5.477 1.805z" fill="#280d8b"/><path d="M194.853 1030.237c-1.45-.226-5.047-1.85-7.994-3.611-9.748-5.826-14.796-18.32-11.59-28.688 1.309-4.237 41.533-74.563 69.78-122 12.698-21.326 16.593-27.358 15.337-23.75-.36 1.033-.118 1.75.59 1.75.66 0 7.571 4.624 15.357 10.276 7.787 5.651 15.507 11.13 17.157 12.174 1.65 1.045 3.45 2.448 4 3.118.957 1.166 28.884 21.314 47.032 33.932 4.746 3.3 8.93 6.465 9.299 7.034.777 1.2 22.898 17.466 23.755 17.466 1 0 32.777 23.229 36.065 26.364 1.733 1.653 4.745 3.935 6.693 5.07 4.317 2.517 9.313 5.975 21.395 14.81 5.082 3.716 14.12 10.077 20.085 14.135 5.964 4.06 11.932 8.449 13.26 9.755 1.33 1.306 7.704 6.167 14.166 10.803 6.463 4.635 11.75 8.795 11.75 9.245 0 .45 1.999.818 4.441.818 2.443 0 4.714.442 5.048.982.586.947-309.566 1.259-315.626.317zM20.618 740.469c-8.494-3.027-15.737-12.015-16.978-21.068-.9-6.566 1.302-12.93 8.814-25.472 6.763-11.291 11.378-17.987 10.304-14.95-.382 1.081 1.819 3.166 7.389 7 15.772 10.853 30.374 21.426 31.843 23.055 1.775 1.969 16.699 12.904 17.61 12.904.851 0 21.623 14.989 22.91 16.531.562.673 4.837 1.665 9.5 2.206 6.527.757-2.574 1.006-39.52 1.08-38.47.076-48.769-.18-51.872-1.286z" fill="#250b82"/></svg>