<svg data-name="logosandtypes com" width="167.288" height="165.381" xmlns="http://www.w3.org/2000/svg"><ellipse style="fill:#fff;stroke:#000;stroke-width:.286342;stroke-linecap:round" cx="83.644" cy="82.691" rx="83.501" ry="82.548"/><path d="M0 0h150v150H0Z" style="fill:none" transform="translate(8.644 7.69)"/><path d="m92.304 72.95 40.29-40.07-15.29-15.2-32.65 32.46-32.64-32.45-15.29 15.2 40.29 40.06c2.11 2.1 4.88 3.15 7.64 3.15s5.53-1.05 7.64-3.15zM150.634 115.74l-32.65-32.46 32.65-32.46-15.29-15.2-40.29 40.06c-4.22 4.2-4.22 11 0 15.2l40.29 40.06zM84.604 116.47l32.65 32.46 15.29-15.2-40.29-40.06c-4.22-4.2-11.06-4.2-15.29 0l-40.3 40.06 15.29 15.2zM74.214 90.93c2.03-2.02 3.17-4.75 3.17-7.6 0-2.85-1.14-5.58-3.17-7.6l-40.3-40.05-15.29 15.2 32.65 32.46-32.64 32.46 15.29 15.2 40.29-40.06z"/></svg>