<svg xmlns="http://www.w3.org/2000/svg" height="3500" width="3500">
  <ellipse ry="1675.711" rx="1675.712" cy="1750.006" cx="1750" fill="#fff" stroke="#000" stroke-width="148.578" stroke-linejoin="round"/>
  <path d="M1353.455 2603.61c-345.27-43.572-620.722-137.728-741.352-253.412-66.58-65.3-83.596-140.153-37.29-222.577 57.172-97.486 290.222-204.249 568.09-260.248 102.05-20.566 133.095-21.478 219.301-6.446 177.16 30.892 518.25 34.68 727.1 8.073 175.533-22.36 194.9-22.37 303.894-.155 249.923 50.941 473.407 150.155 540.575 239.982 147.54 197.314-97.422 380.12-637.098 475.44-225.329 39.798-703.437 49.603-943.22 19.343zm11.54-821.576c-261.564-40.702-465.292-119.087-539.774-207.681-89.197-106.097-6.115-227.145 209.496-305.23 204.9-74.206 296.23-83.818 767.472-80.77 386.1 2.498 435.059 5.545 541.834 33.718 157.82 41.64 256.396 87.071 326.526 150.485 48.93 44.243 58.362 61.484 58.362 106.68 0 136.246-212.651 247.797-580.086 304.3-170.214 26.175-611.397 25.33-783.83-1.502zm192.375-658.114c-160.161-15.141-325.36-58.31-419.715-109.679-314.32-171.12 124.034-395.538 714.053-365.562 486.597 24.722 751.448 173.129 586.627 328.71-118.318 111.685-528.276 179.874-880.965 146.531z" fill="#0e0e0e"/>
</svg>