<svg width="122" height="122" viewBox="0 0 122 122" fill="none" xmlns="http://www.w3.org/2000/svg">
<circle cx="61" cy="61" r="61" fill="url(#paint0_linear)"/>
<path d="M54.3297 20.7835C50.9511 22.7288 44.774 26.278 40.6104 28.7011L33 33.1036V61.6342V90.1307L40.6104 94.5673C57.2988 104.259 60.4385 106 61.2235 106C61.8719 106 87.6723 91.4617 89.2422 90.1989C89.5493 89.9601 89.6517 86.7521 89.5835 75.5241L89.4811 61.1905L75.8301 53.2388C68.2538 48.8022 61.9743 45.3212 61.6671 45.4236C61.3941 45.526 59.5512 46.4474 57.5718 47.4713C55.6266 48.4951 53.8861 49.3483 53.7495 49.3483C52.794 49.3483 54.9781 50.7134 67.2982 57.846L81.1198 65.7977V75.5924V85.3528L78.9698 86.5814C77.8095 87.2298 73.3388 89.8235 69.0728 92.2807C64.7727 94.772 61.1552 96.7514 61.0528 96.6832C60.9163 96.6149 56.4798 94.0554 51.19 91.018L41.5319 85.4552V61.6342V37.8132L51.19 32.2504C56.4798 29.213 60.9163 26.6535 61.0528 26.5852C61.1552 26.5169 63.3735 27.7114 66.0013 29.1789L70.7109 31.875L70.8133 39.6902L70.8816 47.5395L73.7142 49.1094C75.2499 49.9967 77.161 51.0888 77.9801 51.5666L79.4135 52.4539V39.6902V26.9606L70.7109 22.1145C65.9331 19.4525 61.6671 17.2684 61.2235 17.2684C60.814 17.2684 57.7083 18.8382 54.3297 20.7835Z" fill="white"/>
<path d="M53.1353 63.6818C53.1353 69.8589 53.2035 74.9439 53.3059 74.9439C53.6472 74.9439 72.9292 63.8866 72.9292 63.6818C72.9292 63.5794 71.4959 62.7262 69.7554 61.7365L66.6156 59.996L63.4076 61.6683C61.633 62.5897 60.1314 63.3405 60.0973 63.3405C60.029 63.3405 59.9266 61.7024 59.8925 59.6889L59.7901 56.0372L56.7186 54.2285C55.0464 53.2388 53.5448 52.4197 53.4083 52.4197C53.2376 52.4197 53.1353 57.4706 53.1353 63.6818Z" fill="white"/>
<defs>
<linearGradient id="paint0_linear" x1="17" y1="36.5" x2="160.5" y2="61" gradientUnits="userSpaceOnUse">
<stop stop-color="#496BFB"/>
<stop offset="1" stop-color="#3294AA"/>
</linearGradient>
</defs>
</svg>
