<svg width="220" height="220" viewBox="0 0 220 220" fill="none" xmlns="http://www.w3.org/2000/svg">
<g clip-path="url(#clip0_3804_132)">
<path d="M110 220C170.751 220 220 170.751 220 110C220 49.2487 170.751 0 110 0C49.2487 0 0 49.2487 0 110C0 170.751 49.2487 220 110 220Z" fill="#0B0609"/>
<path d="M102.919 96.1328C101.64 97.2983 100.402 98.5146 99.0577 99.5994C98.5491 99.9289 97.9502 100.091 97.3448 100.063C79.5407 100.086 61.7365 100.099 43.9324 100.104C42.6493 100.106 42.1889 99.6728 42.3262 98.4425C42.3881 97.8875 42.1991 97.2698 42.3798 96.7732C42.6308 96.3147 42.9907 95.9251 43.4278 95.6386C43.5618 95.5273 43.864 95.616 44.0894 95.616C63.2458 95.6152 82.4021 95.6146 101.559 95.6142C101.891 95.6142 102.223 95.6142 102.556 95.6142L102.919 96.1328Z" fill="#F46825"/>
<path d="M103.278 80.6361C102.685 80.6361 102.092 80.6361 101.499 80.6361C82.5656 80.6331 63.632 80.6297 44.6985 80.6259C42.5867 80.6254 41.4516 78.7646 42.4349 76.8717C42.5269 76.7426 42.6436 76.6331 42.7784 76.5496C42.9132 76.4661 43.0632 76.4104 43.2198 76.3856C43.7236 76.3297 44.2311 76.3158 44.7372 76.344C61.9802 76.339 79.2235 76.3742 96.4661 76.2829C98.6726 76.2713 100.381 76.7237 101.752 78.4816C102.22 79.0822 102.971 79.4641 103.592 79.946L103.278 80.6361Z" fill="#F46825"/>
<path d="M103.75 70.1232C102.308 71.4864 101.176 72.6532 99.9287 73.6828C99.4252 74.0221 98.8267 74.1924 98.2199 74.1692C80.1388 74.1894 62.0576 74.1673 43.9765 74.2028C42.5629 74.2056 42.1473 73.642 42.3404 72.3983C42.4959 71.3967 41.6607 69.894 43.7724 69.8965C63.4306 69.9197 83.089 69.9247 102.747 69.9115C103.086 69.9611 103.421 70.0319 103.75 70.1232Z" fill="#F46825"/>
<path d="M102.941 54.8337C102.082 54.8735 101.541 54.9205 100.999 54.9205C82.2321 54.9227 63.465 54.9164 44.698 54.9019C43.9532 54.901 42.65 54.8035 42.5661 54.4932C42.2846 53.4517 42.3916 52.2901 42.469 51.1828C42.4825 50.9898 43.0568 50.7484 43.4006 50.6865C43.9043 50.6296 44.4121 50.617 44.9181 50.6489C61.8817 50.646 78.8468 50.7619 95.8076 50.5456C99.3327 50.5007 100.814 52.5889 102.941 54.8337Z" fill="#F46825"/>
<path d="M116.846 95.6138C117.399 95.6138 117.953 95.6138 118.506 95.6138C135.184 95.6151 151.863 95.6226 168.541 95.6364C169.217 95.6375 170.434 95.8256 170.475 96.0759C170.627 97.2872 170.626 98.5128 170.473 99.7239C170.459 99.8773 169.699 100.064 169.285 100.064C153.452 100.082 137.619 100.08 121.786 100.057C121.237 100.042 120.708 99.8435 120.285 99.4935C119.029 98.3797 117.86 97.1692 116.657 95.9958L116.846 95.6138Z" fill="#F46825"/>
<path d="M96.5372 102.031C94.3359 104.543 92.6226 106.484 88.9968 106.421C74.2388 106.164 59.4738 106.315 44.7113 106.313C42.5966 106.313 41.4506 104.435 42.4365 102.547C42.6256 102.289 42.9087 102.115 43.2245 102.064C43.672 102.012 44.1233 102.002 44.5727 102.033C61.1945 102.032 77.8163 102.032 94.4382 102.031C94.9987 102.031 95.5593 102.031 96.5372 102.031Z" fill="#F46825"/>
<path d="M96.5522 48.4912C95.6361 48.4912 95.1327 48.4912 94.6293 48.4912C77.8863 48.49 61.1434 48.4817 44.4004 48.4661C43.7386 48.465 42.565 48.2476 42.5073 47.9575C42.3153 46.8607 42.329 45.7377 42.5476 44.6458C42.5928 44.3993 43.6151 44.2036 44.1889 44.2004C50.3898 44.1654 56.591 44.1709 62.7921 44.1708C71.4737 44.1707 80.1631 44.3909 88.833 44.0754C92.4849 43.9425 94.34 45.8479 96.5522 48.4912Z" fill="#F46825"/>
<path d="M123.273 102.032C123.766 102.032 124.26 102.032 124.754 102.032C139.399 102.032 154.044 102.054 168.689 102.002C170.206 101.997 170.802 102.358 170.731 103.958C170.667 105.392 170.684 106.366 168.72 106.355C155.371 106.278 142.021 106.334 128.672 106.266C127.778 106.262 126.784 105.735 126.019 105.195C124.962 104.364 123.958 103.469 123.011 102.514L123.273 102.032Z" fill="#F46825"/>
<path d="M135.873 93.6649C128.838 93.6649 122.333 93.6831 115.828 93.6187C115.574 93.5505 115.341 93.4194 115.15 93.2374C114.96 93.0554 114.818 92.8284 114.738 92.5773C114.276 89.3663 114.462 89.1923 117.732 89.1921C121.554 89.1919 125.377 89.2635 129.196 89.1582C130.739 89.1157 131.875 89.5329 132.861 90.7073C133.647 91.6436 134.606 92.4357 135.873 93.6649Z" fill="#F46825"/>
<path d="M87.4111 93.6693C88.2342 92.2208 88.9403 90.8784 89.7619 89.6103C89.9409 89.334 90.5319 89.2104 90.9343 89.2078C95.0913 89.1806 99.2486 89.2135 103.405 89.1793C104.449 89.1707 104.831 89.617 104.77 90.5897C104.752 90.8686 104.771 91.1497 104.771 91.4298C104.768 93.6647 104.768 93.6678 102.567 93.6687C97.5147 93.6707 92.4627 93.6709 87.4111 93.6693Z" fill="#F46825"/>
<path d="M50.0268 93.666C47.8877 93.666 45.7482 93.639 43.6098 93.6783C42.6619 93.6957 42.3139 93.3263 42.3239 92.3869C42.3648 88.5485 42.032 89.239 45.4146 89.2019C48.9606 89.163 52.5082 89.2336 56.0532 89.1631C57.3214 89.1379 57.8132 89.5799 57.6764 90.8172C57.6272 91.3206 57.6255 91.8275 57.6713 92.3311C57.7533 93.3655 57.2802 93.7112 56.2748 93.6875C54.1932 93.6384 52.1096 93.6727 50.0268 93.6727V93.666Z" fill="#F46825"/>
<path d="M88.2355 82.7611C90.1696 82.7611 92.2221 82.7605 94.2746 82.7612C97.2511 82.7622 100.228 82.8019 103.204 82.7469C104.366 82.7254 104.779 83.1375 104.798 84.2991C104.841 86.991 104.891 87.0455 102.221 87.109C98.5168 87.1972 94.8101 87.1736 91.1052 87.2393C90.0654 87.2577 89.6779 86.9048 89.5112 85.8218C89.3544 84.8031 88.715 83.8583 88.2355 82.7611Z" fill="#F46825"/>
<path d="M49.9122 87.0904C47.892 87.0904 45.8709 87.0551 43.8519 87.1039C42.6727 87.1324 42.2112 86.6392 42.3261 85.4932C42.3761 84.9941 42.1837 84.4166 42.3755 84.0003C42.5966 83.5204 43.1134 82.8383 43.5138 82.8302C47.8363 82.7426 52.1598 82.739 56.4844 82.8197C56.8852 82.8272 57.3364 83.5353 57.6385 83.9994C57.7928 84.2364 57.6696 84.654 57.6696 84.99C57.6699 87.2217 57.6697 87.2236 55.4725 87.2269C53.6193 87.2297 51.766 87.2299 49.9128 87.2275L49.9122 87.0904Z" fill="#F46825"/>
<path d="M50.031 61.3111C47.953 61.3111 45.8739 61.2724 43.7974 61.327C42.7225 61.3553 42.2116 61.0008 42.3265 59.8813C42.3697 59.3787 42.3709 58.8733 42.3302 58.3705C42.2718 57.4737 42.6197 57.0045 43.5689 56.9965C47.8361 56.9605 52.1031 56.9125 56.3701 56.8524C57.2876 56.8389 57.7323 57.1937 57.6715 58.1415C57.6273 58.7003 57.6293 59.2617 57.6775 59.8201C57.8007 61.0287 57.2305 61.3752 56.096 61.3404C54.0761 61.2785 52.0529 61.323 50.031 61.323L50.031 61.3111Z" fill="#F46825"/>
<path d="M87.3917 56.9853C88.9644 56.9853 90.2381 56.9848 91.5117 56.9853C95.2847 56.9871 99.0599 57.0665 102.83 56.9577C104.64 56.9055 104.811 57.8018 104.806 59.2376C104.8 60.6196 104.634 61.4172 102.897 61.3588C99.0722 61.2304 95.2398 61.2991 91.4108 61.3357C90.3434 61.3459 89.7117 61.2164 89.4314 59.9168C89.2294 58.9801 88.2786 58.2041 87.3917 56.9853Z" fill="#F46825"/>
<path d="M88.2662 67.8198C88.7707 66.5437 89.1241 65.4716 89.6243 64.4726C89.8241 64.0736 90.3441 63.571 90.7248 63.5656C95.0472 63.5041 99.3701 63.5076 103.694 63.576C103.931 63.6412 104.149 63.7642 104.327 63.934C104.506 64.1038 104.64 64.3152 104.716 64.5493C105.26 67.3047 104.812 67.8157 102.049 67.8181C97.9501 67.8216 93.8512 67.8221 89.7524 67.8198C89.208 67.8199 88.6636 67.8198 88.2662 67.8198Z" fill="#F46825"/>
<path d="M122.556 82.7709C124.41 82.7716 126.271 82.8757 128.114 82.7404C129.738 82.6213 130.25 83.2689 130.037 84.7623C130 85.0968 129.998 85.4343 130.033 85.7691C130.103 86.7051 129.654 87.0925 128.742 87.0904C124.473 87.0806 120.204 87.0798 115.935 87.0881C114.99 87.0897 114.639 86.6064 114.681 85.716C114.709 85.1565 114.709 84.5958 114.678 84.0364C114.623 83.0924 115.059 82.7451 115.984 82.7593C118.174 82.7929 120.365 82.7701 122.556 82.7709Z" fill="#F46825"/>
<path d="M122.341 80.6316C120.312 80.6316 118.282 80.5941 116.255 80.6463C115.109 80.6757 114.667 80.2691 114.655 79.0849C114.628 76.3379 114.574 76.337 117.391 76.3379C121.054 76.3392 124.72 76.4161 128.38 76.3119C129.987 76.2662 130.122 77.0646 130.038 78.2809C129.96 79.3961 130.438 80.7564 128.427 80.6483C126.404 80.5396 124.37 80.6244 122.341 80.6244L122.341 80.6316Z" fill="#F46825"/>
<path d="M122.277 48.4843C120.25 48.4866 118.221 48.4487 116.194 48.5021C115.139 48.53 114.583 48.2181 114.688 47.0773C114.739 46.5202 114.541 45.885 114.748 45.4125C114.962 44.9248 115.524 44.2516 115.945 44.2434C120.224 44.16 124.504 44.1624 128.786 44.2508C129.205 44.2594 129.786 44.9289 129.972 45.4137C130.18 45.9525 129.987 46.6338 130.03 47.2486C130.1 48.238 129.597 48.5058 128.699 48.4924C126.559 48.4605 124.418 48.4821 122.277 48.4843Z" fill="#F46825"/>
<path d="M122.319 74.1814C120.234 74.1814 118.149 74.1548 116.065 74.1928C115.058 74.2112 114.485 73.7969 114.71 72.81C114.935 71.8207 113.809 70.045 115.724 69.9717C120.168 69.8019 124.624 69.9029 129.073 69.9777C129.396 69.9831 129.868 70.6188 129.984 71.04C130.142 71.6148 129.992 72.2674 130.034 72.8825C130.099 73.8327 129.669 74.1909 128.741 74.1785C126.601 74.15 124.46 74.1695 122.319 74.1695V74.1814Z" fill="#F46825"/>
<path d="M122.466 67.8121C120.381 67.8121 118.294 67.7553 116.212 67.8282C114.173 67.8995 114.773 66.4467 114.681 65.3804C114.583 64.2488 114.726 63.4578 116.25 63.4913C120.362 63.5816 124.477 63.5536 128.59 63.5145C129.699 63.504 130.042 63.9115 130.05 64.9982C130.073 67.7964 130.12 67.7979 127.369 67.8042C125.735 67.8079 124.1 67.8048 122.466 67.8048V67.8121Z" fill="#F46825"/>
<path d="M49.9762 63.5135C52.0046 63.5135 54.0354 63.5721 56.0606 63.4922C57.3389 63.4418 57.7056 63.9405 57.6953 65.1643C57.6728 67.8211 57.7291 67.8248 55.0129 67.8227C51.3504 67.8199 47.6852 67.7228 44.0267 67.8395C41.9247 67.9065 42.4195 66.5565 42.3185 65.3831C42.2046 64.06 42.5707 63.4152 44.0615 63.4991C46.0273 63.6098 48.0041 63.5263 49.9762 63.5263V63.5135Z" fill="#F46825"/>
<path d="M122.452 61.3139C120.319 61.3139 118.185 61.2815 116.052 61.328C115.032 61.3503 114.602 60.9554 114.678 59.9475C114.713 59.4446 114.714 58.9398 114.68 58.4369C114.617 57.4587 115.018 56.9882 116.037 56.9927C120.247 57.0112 124.458 57.0126 128.669 56.9968C129.672 56.9929 130.117 57.4127 130.032 58.4182C129.989 58.8646 129.99 59.314 130.034 59.7603C130.164 60.9159 129.709 61.3708 128.515 61.328C126.496 61.2557 124.473 61.3082 122.452 61.3082V61.3139Z" fill="#F46825"/>
<path d="M122.258 54.9205C120.231 54.9205 118.203 54.8837 116.178 54.9355C115.114 54.9627 114.578 54.6193 114.682 53.494C114.722 52.99 114.723 52.4837 114.687 51.9794C114.633 51.0625 115.021 50.6453 115.964 50.6494C120.242 50.6682 124.522 50.6274 128.799 50.7132C129.214 50.7215 129.771 51.3852 129.978 51.8662C130.182 52.3409 129.985 52.9732 130.033 53.5307C130.119 54.5424 129.705 54.9473 128.675 54.9254C126.537 54.88 124.397 54.9117 122.258 54.9117V54.9205Z" fill="#F46825"/>
<path d="M176.038 137.483C173.78 139.836 172.286 141.9 168.772 141.857C151.639 141.647 134.503 141.766 117.368 141.767C115.025 141.767 114.012 140.288 114.931 138.142C115.127 137.829 115.44 137.606 115.801 137.522C116.245 137.449 116.697 137.431 117.146 137.471C136.028 137.474 154.911 137.478 173.793 137.483C174.389 137.483 174.985 137.483 176.038 137.483Z" fill="#F46825"/>
<path d="M175.88 148.093C175.093 148.141 174.602 148.197 174.112 148.197C155.076 148.205 136.041 148.203 117.006 148.19C116.332 148.189 115.148 147.998 115.078 147.694C114.9 146.601 114.878 145.488 115.013 144.388C115.023 144.219 115.519 143.988 115.813 143.948C116.373 143.897 116.937 143.883 117.499 143.908C134.394 143.909 151.291 144.041 168.183 143.809C171.782 143.759 173.779 145.367 175.88 148.093Z" fill="#F46825"/>
<path d="M102.486 163.726C101.205 164.892 99.9664 166.11 98.6187 167.194C98.1057 167.518 97.5047 167.674 96.8991 167.64C81.1306 167.663 65.362 167.656 49.5935 167.618C48.7312 167.544 47.911 167.213 47.2391 166.667C46.0826 165.796 45.0753 164.728 44.0055 163.743L44.2287 163.355H102.122C102.243 163.479 102.365 163.602 102.486 163.726Z" fill="#F46825"/>
<path d="M175.268 122.493C174.277 122.493 173.718 122.493 173.158 122.493C154.559 122.497 135.96 122.5 117.361 122.504C114.92 122.504 114.163 121.465 114.918 119.049C115.006 118.863 115.132 118.698 115.288 118.565C115.445 118.432 115.628 118.334 115.825 118.278C116.381 118.188 116.946 118.168 117.507 118.216C134.303 118.217 151.1 118.342 167.892 118.123C171.44 118.077 173.114 119.991 175.268 122.493Z" fill="#F46825"/>
<path d="M168.635 116.071C162.5 116.071 156.364 116.071 150.229 116.07C139.136 116.07 128.043 116.063 116.949 116.048C116.286 116.046 115.111 115.831 115.053 115.541C114.849 114.45 114.865 113.329 115.103 112.244C115.163 111.966 116.267 111.777 116.893 111.775C125.227 111.741 133.561 111.747 141.895 111.746C148.653 111.746 155.411 111.819 162.167 111.71C164.083 111.679 165.508 112.18 166.727 113.636C167.358 114.391 168.24 114.937 169.008 115.577C168.884 115.741 168.76 115.906 168.635 116.071Z" fill="#F46825"/>
<path d="M95.9868 170.068C94.7628 171.208 93.5853 172.406 92.2882 173.456C91.7628 173.772 91.1528 173.916 90.5419 173.871C78.9854 173.894 67.4287 173.908 55.8724 173.848C55.0034 173.77 54.1761 173.44 53.4931 172.897C52.4032 172.028 51.3588 171.103 50.364 170.126L50.646 169.729H95.679L95.9868 170.068Z" fill="#F46825"/>
<path d="M83.5546 160.761C84.8599 159.547 86.135 158.298 87.4922 157.145C87.9147 156.878 88.411 156.753 88.9096 156.786C93.5331 156.759 98.1571 156.795 102.78 156.749C103.946 156.737 104.363 157.149 104.394 158.308C104.473 161.246 104.516 161.246 101.648 161.246C95.7313 161.246 89.8144 161.246 83.8975 161.246L83.5546 160.761Z" fill="#F46825"/>
<path d="M62.5181 161.243C56.1599 161.243 49.8017 161.232 43.4437 161.254C42.5235 161.257 42.0671 160.936 42.1078 159.99C42.1411 159.485 42.1379 158.979 42.0983 158.475C41.9635 157.158 42.5057 156.722 43.8432 156.745C48.1206 156.817 52.4012 156.826 56.678 156.737C57.3159 156.693 57.9553 156.798 58.5456 157.044C59.1359 157.29 59.6608 157.67 60.0788 158.154C60.9974 159.042 61.971 159.871 62.994 160.637L62.5181 161.243Z" fill="#F46825"/>
<path d="M169.855 163.194C171.879 163.195 173.904 163.232 175.927 163.18C176.966 163.153 177.381 163.568 177.272 164.57C177.265 164.682 177.265 164.795 177.271 164.907C177.304 167.655 177.304 167.655 174.605 167.656C170.951 167.657 167.295 167.598 163.643 167.686C162.269 167.719 161.794 167.237 161.949 165.94C161.998 165.494 161.999 165.043 161.95 164.597C161.835 163.458 162.389 163.149 163.447 163.176C165.582 163.231 167.719 163.192 169.855 163.194Z" fill="#F46825"/>
<path d="M169.455 161.243C167.486 161.244 165.516 161.198 163.549 161.261C162.437 161.297 161.907 161.015 161.931 159.774C162.001 156.216 161.717 156.801 164.879 156.776C168.479 156.746 172.08 156.818 175.679 156.749C176.961 156.724 177.431 157.183 177.28 158.411C177.228 158.801 177.229 159.196 177.281 159.587C177.486 160.986 176.809 161.319 175.53 161.265C173.508 161.18 171.48 161.242 169.455 161.243Z" fill="#F46825"/>
<path d="M122.329 167.656C120.357 167.657 118.383 167.604 116.413 167.677C115.233 167.721 114.744 167.287 114.84 166.122C114.877 165.562 114.879 164.999 114.847 164.438C114.807 163.484 115.278 163.174 116.191 163.18C120.361 163.207 124.531 163.207 128.701 163.182C129.64 163.176 130.055 163.54 130.014 164.47C129.979 165.031 129.981 165.594 130.019 166.155C130.123 167.358 129.556 167.712 128.414 167.674C126.388 167.607 124.358 167.655 122.329 167.656Z" fill="#F46825"/>
<path d="M122.505 156.768C124.526 156.771 126.548 156.814 128.567 156.754C129.685 156.72 130.1 157.183 130.026 158.242C129.987 158.745 129.986 159.25 130.026 159.753C130.13 160.955 129.55 161.277 128.42 161.263C124.434 161.214 120.447 161.203 116.462 161.27C115.182 161.291 114.823 160.81 114.816 159.604C114.8 156.767 114.751 156.767 117.62 156.766C119.248 156.766 120.876 156.766 122.505 156.768Z" fill="#F46825"/>
<path d="M122.447 128.899C120.418 128.898 118.388 128.863 116.36 128.912C115.306 128.938 114.854 128.595 114.812 127.479C114.703 124.581 114.786 124.442 117.751 124.435C121.246 124.427 124.742 124.487 128.234 124.406C129.661 124.373 130.089 124.898 130.064 126.268C130.016 128.896 130.079 128.898 127.52 128.9C125.829 128.902 124.138 128.902 122.447 128.899Z" fill="#F46825"/>
<path d="M159.846 124.679C160.464 124.633 160.946 124.565 161.428 124.565C166.043 124.561 170.661 124.657 175.274 124.532C177.19 124.48 177.302 125.377 177.317 126.878C177.331 128.352 177.016 128.972 175.369 128.924C171.432 128.809 167.49 128.88 163.55 128.906C162.612 128.913 162.099 128.789 161.835 127.633C161.61 126.644 160.653 125.821 159.846 124.679Z" fill="#F46825"/>
<path d="M160.798 135.369C161.141 134.19 161.545 133.03 162.008 131.892C162.139 131.681 162.318 131.502 162.529 131.37C162.741 131.238 162.98 131.156 163.228 131.131C167.506 131.08 171.786 131.075 176.063 131.163C176.473 131.172 177.064 131.836 177.222 132.311C177.406 132.963 177.407 133.653 177.224 134.305C177.116 134.713 176.59 135.311 176.249 135.314C171.076 135.348 165.903 135.298 160.731 135.263C160.701 135.262 160.672 135.18 160.798 135.369Z" fill="#F46825"/>
<path d="M160.866 150.353C165.807 150.353 170.872 150.371 175.936 150.338C176.98 150.332 177.363 150.746 177.281 151.744C177.235 152.302 177.428 152.932 177.227 153.41C177.02 153.901 176.472 154.596 176.061 154.604C171.783 154.693 167.503 154.684 163.224 154.626C162.973 154.592 162.734 154.501 162.525 154.359C162.316 154.218 162.142 154.03 162.017 153.811C161.574 152.679 161.19 151.525 160.866 150.353Z" fill="#F46825"/>
<path d="M122.356 154.804C120.499 154.804 118.636 154.707 116.787 154.833C115.17 154.943 114.636 154.287 114.824 152.788C114.861 152.396 114.865 152.002 114.836 151.61C114.795 150.671 115.252 150.328 116.169 150.333C120.334 150.356 124.498 150.364 128.662 150.331C129.705 150.323 130.001 150.78 130.044 151.748C130.169 154.59 130.126 154.669 127.249 154.674C125.618 154.677 123.987 154.677 122.357 154.675L122.356 154.804Z" fill="#F46825"/>
<path d="M96.8491 150.341C98.7597 150.341 100.673 150.398 102.58 150.321C103.851 150.271 104.434 150.65 104.397 152.014C104.312 155.096 104.844 154.809 101.625 154.796C98.0303 154.782 94.434 154.643 90.8405 154.699C88.9099 154.729 89.2186 153.502 89.1849 152.341C89.152 151.204 89.1012 150.218 90.7819 150.319C92.7975 150.441 94.8261 150.348 96.8491 150.348V150.341Z" fill="#F46825"/>
<path d="M96.9515 143.912C98.9743 143.912 100.998 143.951 103.019 143.897C104.098 143.868 104.599 144.252 104.512 145.353C104.48 145.857 104.479 146.362 104.508 146.865C104.546 147.759 104.19 148.214 103.236 148.21C98.9655 148.19 94.6953 148.186 90.4251 148.2C89.454 148.203 89.2223 147.704 89.1819 146.829C89.0475 143.922 89.0201 143.922 91.8947 143.92C93.5803 143.918 95.2659 143.918 96.9515 143.919V143.912Z" fill="#F46825"/>
<path d="M169.69 169.611C171.714 169.611 173.74 169.668 175.761 169.59C176.969 169.543 177.401 170.009 177.278 171.16C177.225 171.659 177.424 172.244 177.225 172.653C176.99 173.137 176.455 173.811 176.039 173.82C171.768 173.905 167.494 173.866 163.221 173.878C162.28 173.88 161.906 173.436 161.959 172.527C161.993 171.967 161.993 171.406 161.957 170.846C161.893 169.874 162.37 169.583 163.281 169.599C165.417 169.637 167.554 169.611 169.69 169.611Z" fill="#F46825"/>
<path d="M96.8945 141.752C94.8726 141.752 92.8487 141.699 90.8294 141.771C89.5883 141.815 89.1614 141.373 89.1713 140.125C89.1922 137.491 89.1319 137.488 91.8359 137.484C95.4867 137.479 99.1405 137.566 102.787 137.439C104.687 137.373 104.491 138.486 104.523 139.701C104.556 140.954 104.497 141.899 102.79 141.791C100.832 141.667 98.8603 141.762 96.8945 141.762V141.752Z" fill="#F46825"/>
<path d="M96.724 135.376C94.7017 135.376 92.6786 135.344 90.6573 135.389C89.5704 135.413 89.1992 134.982 89.178 133.901C89.1232 131.108 89.0783 131.107 91.838 131.104C95.5456 131.099 99.2548 131.162 102.96 131.067C104.672 131.023 104.537 132.052 104.507 133.145C104.476 134.227 104.822 135.489 102.959 135.411C100.884 135.324 98.8024 135.391 96.724 135.391V135.376Z" fill="#F46825"/>
<path d="M49.5967 154.664C47.632 154.664 45.6653 154.611 43.703 154.68C41.749 154.748 42.1555 153.384 42.1053 152.263C42.0569 151.185 42.0635 150.294 43.6265 150.325C47.6667 150.404 51.7103 150.397 55.7508 150.324C57.1603 150.299 57.3685 151.028 57.2357 152.104C57.1093 153.128 57.8595 154.668 55.8277 154.665C53.7507 154.662 51.6737 154.662 49.5967 154.664Z" fill="#F46825"/>
<path d="M96.6554 116.059C94.6256 116.059 92.5949 116.023 90.5665 116.074C89.5258 116.101 89.2183 115.674 89.1883 114.679C89.1003 111.764 89.063 111.763 91.9596 111.76C95.5117 111.757 99.0654 111.823 102.615 111.733C104.626 111.683 104.308 112.991 104.384 114.217C104.467 115.558 104.04 116.172 102.574 116.093C100.607 115.986 98.6288 116.066 96.6554 116.066V116.059Z" fill="#F46825"/>
<path d="M49.583 141.745C47.5567 141.745 45.5295 141.708 43.5044 141.757C41.6942 141.8 42.158 140.495 42.1192 139.519C42.0795 138.522 41.8985 137.451 43.5356 137.474C47.6436 137.531 51.7531 137.51 55.8617 137.481C56.8789 137.473 57.2185 137.878 57.2571 138.876C57.3684 141.749 57.4061 141.748 54.4798 141.751C52.8475 141.753 51.2153 141.753 49.583 141.752V141.745Z" fill="#F46825"/>
<path d="M49.5234 116.06C47.553 116.059 45.5815 116.019 43.6128 116.075C42.5351 116.106 42.1267 115.729 42.097 114.627C42.0212 111.815 42.0176 111.766 44.7755 111.763C48.3222 111.759 51.8723 111.857 55.4142 111.728C57.3908 111.656 57.1993 112.81 57.2563 114.099C57.3165 115.462 57.0453 116.199 55.4325 116.091C53.471 115.96 51.4938 116.06 49.5234 116.06Z" fill="#F46825"/>
<path d="M122.412 131.092C124.437 131.091 126.465 131.16 128.485 131.069C130.017 131 130.126 131.892 130.033 132.997C129.948 134.01 130.512 135.408 128.612 135.398C124.507 135.379 120.401 135.368 116.296 135.404C114.41 135.421 114.898 134.072 114.834 133.038C114.769 131.972 114.769 131.004 116.34 131.071C118.36 131.157 120.388 131.092 122.412 131.092Z" fill="#F46825"/>
<path d="M49.5469 135.374C47.5765 135.374 45.6037 135.313 43.6365 135.393C41.9235 135.462 42.0826 134.337 42.1131 133.261C42.1417 132.248 41.7845 131.057 43.571 131.087C47.6232 131.156 51.6776 131.13 55.7307 131.092C56.7822 131.083 57.2324 131.394 57.2612 132.521C57.334 135.375 57.3836 135.375 54.4448 135.38C52.8122 135.382 51.1796 135.382 49.5469 135.38V135.374Z" fill="#F46825"/>
<path d="M96.7219 128.883C94.6427 128.883 92.563 128.858 90.4844 128.894C89.5444 128.911 89.1384 128.537 89.1966 127.603C89.2292 127.043 89.23 126.482 89.1989 125.922C89.1517 125.01 89.5473 124.575 90.4772 124.577C94.6356 124.585 98.794 124.561 102.952 124.582C104.931 124.592 104.25 126.135 104.369 127.181C104.5 128.322 104.122 128.968 102.79 128.915C100.77 128.835 98.7449 128.894 96.7219 128.894L96.7219 128.883Z" fill="#F46825"/>
<path d="M49.6519 128.883C47.6797 128.885 45.7028 128.802 43.7368 128.912C42.2577 128.994 41.9998 128.246 42.1148 127.067C42.2189 126 41.6185 124.549 43.6292 124.568C47.6859 124.605 51.7433 124.589 55.8003 124.573C56.7649 124.569 57.299 124.91 57.238 125.949C57.2063 126.51 57.2066 127.073 57.2388 127.634C57.2921 128.596 56.8191 128.908 55.9065 128.893C53.8221 128.859 51.7368 128.882 49.6519 128.883Z" fill="#F46825"/>
<path d="M96.7905 122.49C94.7616 122.49 92.7318 122.454 90.7042 122.505C89.6517 122.531 89.088 122.218 89.1966 121.076C89.2374 120.572 89.2389 120.065 89.201 119.56C89.1446 118.642 89.5278 118.224 90.4744 118.227C94.6447 118.242 98.8152 118.225 102.986 118.227C104.884 118.228 104.27 119.678 104.365 120.681C104.465 121.735 104.298 122.566 102.876 122.515C100.85 122.442 98.8194 122.496 96.7905 122.496V122.49Z" fill="#F46825"/>
<path d="M49.7194 122.49C47.7502 122.49 45.7793 122.442 43.8124 122.509C42.6236 122.549 42.0876 122.216 42.0862 120.916C42.0834 118.232 42.0198 118.23 44.7507 118.228C48.2953 118.226 51.8438 118.329 55.3829 118.19C57.3135 118.115 57.2363 119.166 57.2634 120.504C57.2904 121.836 57.0931 122.632 55.4562 122.52C53.5522 122.39 51.6324 122.49 49.7194 122.49Z" fill="#F46825"/>
<path d="M122.387 169.61C124.414 169.611 126.444 169.666 128.468 169.59C129.676 169.544 130.015 170.031 130.027 171.167C130.054 173.877 130.099 173.879 127.37 173.883C123.878 173.888 120.383 173.793 116.897 173.927C115.014 174 114.825 173.111 114.81 171.587C114.796 170.076 115.201 169.456 116.814 169.577C118.662 169.715 120.529 169.609 122.387 169.61Z" fill="#F46825"/>
<path d="M49.6924 143.925C51.72 143.924 53.7508 143.994 55.7742 143.902C57.3949 143.829 57.2856 144.856 57.2368 145.888C57.1878 146.928 57.6634 148.245 55.7567 148.217C51.7025 148.158 47.6475 148.155 43.5918 148.21C41.695 148.234 42.168 146.909 42.109 145.869C42.0487 144.806 42.0264 143.832 43.6107 143.903C45.6342 143.994 47.6649 143.925 49.6924 143.925Z" fill="#F46825"/>
</g>
<defs>
<clipPath id="clip0_3804_132">
<rect width="220" height="220" rx="110" fill="white"/>
</clipPath>
</defs>
</svg>
