<svg xmlns="http://www.w3.org/2000/svg" viewBox="0 0 25 26"><path d="M4.39 4.5a3.266 3.266 0 116.477-.6v4.027a19.521 19.521 0 012.694-.004V3.901a3.266 3.266 0 116.477.6l-.884 4.732c3.033 1.324 5.327 3.625 5.327 6.515v1.749c0 2.376-1.573 4.366-3.77 5.71-2.216 1.354-5.213 2.158-8.47 2.158-3.258 0-6.255-.804-8.47-2.158C1.572 21.863 0 19.873 0 17.497v-1.75c0-2.874 2.27-5.165 5.278-6.492L4.39 4.5zm13.631 5.355l1.034-5.538A2.267 2.267 0 1014.56 3.9v5.124a17.878 17.878 0 00-2.32-.147 18.507 18.507 0 00-2.373.154V3.9a2.267 2.267 0 10-4.495.416L6.41 9.873C3.166 11.078 1 13.258 1 15.748v1.749c0 3.794 5.032 6.87 11.24 6.87 6.209 0 11.242-3.076 11.242-6.87v-1.75c0-2.501-2.19-4.69-5.46-5.892z" fill="#633001"/><path d="M23.482 17.497c0 3.794-5.033 6.87-11.241 6.87-6.209 0-11.242-3.076-11.242-6.87v-1.75h22.483v1.75z" fill="#FEDC90"/><path d="M5.372 4.317A2.267 2.267 0 119.867 3.9v5.13c.765-.1 1.56-.153 2.373-.153.796 0 1.572.05 2.32.147V3.9a2.267 2.267 0 114.495.416l-1.034 5.538c3.272 1.201 5.46 3.39 5.46 5.893 0 3.794-5.032 6.87-11.24 6.87-6.209 0-11.242-3.076-11.242-6.87 0-2.49 2.167-4.67 5.41-5.875L5.373 4.317z" fill="#D1884F"/><path d="M9.118 15.248c0 1.035-.56 1.874-1.25 1.874-.689 0-1.248-.84-1.248-1.874 0-1.035.56-1.873 1.249-1.873.69 0 1.249.838 1.249 1.873zM17.736 15.248c0 1.035-.56 1.874-1.249 1.874-.69 0-1.249-.84-1.249-1.874 0-1.035.56-1.873 1.25-1.873.689 0 1.248.838 1.248 1.873z" fill="#633001"/></svg>