<svg xmlns="http://www.w3.org/2000/svg" xml:space="preserve" width="697" height="698.09" viewBox="0 0 184.415 184.703"><path d="M243.141 119.598h156.932v150.138H243.141z" style="fill:#fff;fill-opacity:1;stroke:none;stroke-width:.0415396" transform="translate(-229.4 -102.315)"/><path d="M267.897 286.49c-8.055-.921-11.458-1.813-16.537-4.336-1.935-.96-4.45-2.434-4.762-2.79-.073-.084-.847-.697-1.72-1.364-2.215-1.692-5.492-5.021-7.178-7.293-.781-1.054-1.421-1.971-1.421-2.039 0-.068-.298-.562-.662-1.098-1.831-2.699-3.922-8.08-4.872-12.542-1.292-6.064-1.345-8.46-1.345-60.325 0-57.331-.032-56.526 2.533-64.643 1.429-4.522 3.915-9.2 6.68-12.567 1.32-1.607 4.864-5.084 6.253-6.134a66.545 66.545 0 0 0 1.544-1.194c1.426-1.195 8.033-4.627 8.908-4.627.155 0 .49-.107.742-.238.438-.227 2.133-.734 4.428-1.325 1.49-.383 4.137-.755 8.658-1.215 5.82-.593 99.102-.593 104.922 0 4.521.46 7.169.832 8.658 1.215 2.295.59 3.99 1.098 4.428 1.325.253.13.587.238.742.238.875 0 7.482 3.432 8.908 4.627.176.147.87.685 1.544 1.194 1.389 1.05 4.932 4.527 6.252 6.134 3.67 4.469 6.533 10.612 7.87 16.885 1.291 6.064 1.344 8.456 1.344 60.358 0 41.472-.058 49.098-.408 53.102-.376 4.303-.863 7.431-1.468 9.439-1.312 4.355-2.956 8.251-4.341 10.293-.364.536-.662 1.03-.662 1.098 0 .398-3.157 4.27-4.927 6.042-4.499 4.507-9.506 7.649-15.181 9.527-3.854 1.276-5.086 1.51-11.906 2.264-4.766.526-6.187.54-53.843.507-45.575-.032-49.24-.068-53.181-.519zm76.861-21.287c.655-.22 1.429-.504 1.72-.63.29-.128.946-.381 1.455-.565 5.101-1.834 11.61-5.459 17.048-9.492 9.838-7.297 18.612-18.592 23.135-29.783.47-1.164.965-2.355 1.1-2.646 1.217-2.643 2.937-9.356 3.998-15.61.5-2.948.499-17.228-.002-19.976a296.136 296.136 0 0 0-1.62-8.07c-.266-1.194-1.998-6.598-2.374-7.409a98.772 98.772 0 0 1-1.102-2.645c-1.038-2.57-3.764-7.907-5.14-10.064-1.871-2.935-5.611-7.916-7.641-10.177-2.516-2.801-6.102-6.21-8.352-7.936-.654-.503-1.25-.985-1.322-1.071-.88-1.048-8.644-5.888-12.171-7.587-5.673-2.733-6.666-3.108-14.156-5.345-.436-.13-1.746-.428-2.91-.661-1.164-.234-2.712-.547-3.44-.695-2.258-.461-8.858-1.046-11.814-1.046-2.821 0-8.98.553-11.469 1.03-2.631.506-5.573 1.137-6.35 1.363-2.52.734-6.406 1.956-6.747 2.123-.218.106-1.23.522-2.249.925-15.766 6.23-30.032 19.532-37.58 35.04-.74 1.52-1.125 2.362-1.994 4.365-.755 1.74-1.833 4.703-1.833 5.038 0 .216-.118.6-.262.853-.528.923-1.834 6.551-2.686 11.572-.248 1.459-.36 4.583-.36 10.054 0 7.543.147 9.63.926 13.23 1.077 4.977 1.638 7.212 2.124 8.466.113.29.527 1.481.921 2.646.703 2.077 1.097 3.04 2.437 5.953 1.085 2.358 1.512 3.217 2.435 4.894.935 1.699 5.082 8.053 5.64 8.642.184.195 1.01 1.188 1.834 2.206 6.81 8.415 16.745 15.984 26.546 20.226.728.315 1.561.68 1.852.812 1.474.667 3.906 1.553 5.104 1.86 1.086.278 1.63.282 2.813.017.807-.18 1.536-.44 1.62-.575.083-.136.414-.247.735-.247 1.086 0 3.822-1.572 5.26-3.02 1.471-1.484 2.83-3.899 3.362-5.976.222-.865.285-7.471.23-24.21l-.074-23.018-8.599-.135c-9.829-.155-10.153-.212-12.335-2.196-3.598-3.271-3.743-8.315-.338-11.788 1.253-1.279 2.217-1.828 4.074-2.323 1.817-.484 48.821-.526 50.979-.045 1.707.38 3.888 1.704 4.784 2.904 1.282 1.716 1.652 2.866 1.652 5.135 0 2.665-.639 4.047-2.781 6.02-2.261 2.082-2.55 2.136-12.168 2.293l-8.334.135v23.548c0 21.615.037 23.65.455 24.791 1.639 4.476 4.324 7.353 8.13 8.712 1.555.555 4.32.597 5.834.088zm25.56-57.693c-2.848-.903-4.816-2.927-5.663-5.827-1.557-5.33 3.882-11.262 9.278-10.119 1.895.402 3.044 1.038 4.314 2.39 1.368 1.454 1.788 2.161 2.22 3.732.688 2.504-.135 5.52-2.042 7.483-2.09 2.152-5.551 3.151-8.107 2.341zm-101.024-.345c-3.489-.73-6.57-4.964-6.226-8.553.165-1.727 1.582-4.498 2.787-5.45 2.208-1.746 2.934-2.02 5.367-2.026 1.883-.005 2.478.103 3.507.632 1.643.845 3.23 2.436 3.943 3.952.814 1.732.82 5.219.014 6.92-.675 1.422-2.435 3.176-3.945 3.93-1.224.612-3.947.91-5.447.595zm50.196-31.508c-3.322-.411-7.042-2.24-9.502-4.67-1.493-1.474-3.152-4.158-3.986-6.447-.633-1.736-.725-2.382-.738-5.16-.015-3.457.306-4.97 1.638-7.718 4.305-8.886 15.992-11.87 24.207-6.183 3.894 2.696 6.215 6.548 7.038 11.68.651 4.061-.721 8.859-3.567 12.466-3.523 4.466-9.25 6.756-15.09 6.032z" style="fill:#000;fill-opacity:1;stroke:none;stroke-width:.264583" transform="translate(-229.4 -102.315)"/></svg>