<svg xmlns="http://www.w3.org/2000/svg" height="3500" width="3500">
  <circle r="1750" cy="1750" cx="1750" fill="#fff"/>
  <path fill-rule="evenodd" fill="#4054a8" d="M2707.705 1332.1a69.65 69.65 0 11-69.597-69.668 69.72 69.72 0 0169.597 69.668m-65.205-148.015a152.373 152.373 0 10152.25 152.372 152.583 152.583 0 00-152.25-152.372M2446.325 2518.95a80.377 80.377 0 00-107.922-119.14 868.28 868.28 0 01-584.5 225.452c-480.008 0-870.538-390.67-870.538-870.905 0-480.235 390.53-870.922 870.537-870.922a868.28 868.28 0 01584.5 225.47 80.377 80.377 0 10107.923-119.122 1028.632 1028.632 0 00-692.352-267.138c-568.628 0-1031.24 462.84-1031.24 1031.713C722.733 2323.23 1185.256 2786 1753.885 2786a1028.563 1028.563 0 00692.352-267.12m-691.88-2353.452c-876.154 0-1589 712.792-1589 1589 0 876.207 712.776 1589 1589 1589 876.226 0 1589-712.793 1589-1589 0-876.208-712.792-1589-1589-1589M1750 3500C785.05 3500 0 2714.95 0 1750S785.05 0 1750 0s1750 785.05 1750 1750-785.05 1750-1750 1750"/>
</svg>