<svg width="220" height="220" viewBox="0 0 220 220" fill="none" xmlns="http://www.w3.org/2000/svg">
<g clip-path="url(#clip0_2496_1018)">
<path d="M110 0C49.2483 0 0 49.2483 0 110C0 170.752 49.2483 220 110 220C170.752 220 220 170.752 220 110C220 49.2483 170.752 0 110 0Z" fill="#FCFF52"/>
<path d="M165 58.4375H55V161.562H165V125.563H146.734C140.444 138.703 126.285 147.83 110.086 147.83C87.7415 147.83 69.6475 130.706 69.6475 109.919C69.6188 89.1327 87.7415 72.1695 110.086 72.1695C126.601 72.1695 140.76 81.5935 147.05 95.0294H165V58.4375Z" fill="black"/>
</g>
<defs>
<clipPath id="clip0_2496_1018">
<rect width="220" height="220" fill="white"/>
</clipPath>
</defs>
</svg>
