<svg width="900.808" height="899.055" viewBox="0 0 238.339 237.875" xmlns="http://www.w3.org/2000/svg"><g transform="translate(-3.74 -2.785)"><ellipse cx="122.699" cy="123.1" rx="116.093" ry="115.14" fill="#fff"/><path d="M114.58 240.612c-20.278-1.437-40.034-8.125-57.15-19.345-11.693-7.665-22.614-18.1-31.03-29.644C7.606 165.845.025 133.173 5.455 101.37c8.452-49.498 47.757-88.712 97.35-97.123 7.5-1.273 10.12-1.463 20.108-1.463 9.988 0 12.607.19 20.108 1.463 46.636 7.91 84.335 42.985 95.64 88.985 3.523 14.334 4.338 29.627 2.368 44.436-4.865 36.575-26.658 68.902-58.982 87.495-11.686 6.722-25.133 11.592-38.364 13.896-6.871 1.196-10.33 1.48-19.05 1.568-4.73.048-9.254.04-10.054-.016zm19.274-11.098c25.678-2.666 49.357-14.213 67.15-32.746 16.24-16.916 26.313-37.89 29.485-61.39.692-5.128.972-16.683.533-21.997-1.126-13.617-4.506-26.244-10.211-38.14-2.596-5.413-4.152-8.14-7.676-13.454-12.38-18.666-29.87-32.76-51.063-41.148-19.789-7.832-42.928-9.45-63.897-4.469-26.958 6.405-50.227 22.615-65.482 45.617-3.524 5.314-5.08 8.041-7.676 13.453-5.705 11.897-9.086 24.524-10.21 38.14-.44 5.315-.16 16.87.532 21.997 4.898 36.296 26.757 67.006 59.3 83.313 13.537 6.784 27.342 10.362 43.777 11.347 2.882.172 11.577-.122 15.438-.523zm-18.878-6.365c-7.947-.796-14.801-2.08-20.999-3.931-36.52-10.912-64.052-41.415-71.052-78.718-1.347-7.18-1.6-10.147-1.6-18.785 0-10.32.708-16.229 3.02-25.224 1.829-7.114 3.891-12.702 7.146-19.358C45.413 48.658 71.9 28.18 102.813 21.99c7.846-1.571 9.72-1.733 20.1-1.733 10.378 0 12.237.16 20.11 1.732 19.432 3.88 37.563 13.613 51.758 27.787 14.565 14.544 24.388 33.108 28.126 53.154 1.346 7.22 1.596 10.158 1.596 18.785 0 8.638-.253 11.606-1.6 18.785-3.785 20.167-13.543 38.577-28.177 53.157-16.047 15.988-36.45 25.981-59.244 29.017-3.15.42-17.698.757-20.506.475zm-43.111-77.068c3.507-.857 7.389-2.581 10.038-4.458 2.231-1.58 4.366-3.533 4.366-3.993 0-.378-2.668-3.027-5.87-5.827l-.975-.853-1.67 1.35c-3.703 2.993-6.828 4.228-11.196 4.422-4.954.22-8.057-.967-11.537-4.415-3.115-3.086-4.47-6.365-4.47-10.814 0-6.592 4.54-12.585 10.98-14.494 2.115-.627 6.268-.623 8.599.009 2.943.798 6.742 2.94 8.446 4.76.353.378.795.686.982.686.46 0 6.82-5.741 6.934-6.26.12-.544-1.211-1.9-3.766-3.833-7.53-5.698-17.377-7.324-25.733-4.25-15.13 5.566-21.184 23.999-12.259 37.323 3.919 5.85 9.77 9.707 16.755 11.044 2.518.482 7.57.288 10.376-.397zm41.952-.208c1.254-.433 3.106-1.337 4.115-2.008 1.927-1.28 4.585-3.878 4.585-4.48 0-.296-4.266-3.826-5.473-4.529-.265-.154-.752.128-1.62.935-1.605 1.493-2.756 2.179-4.53 2.7-4.743 1.393-10.041-.95-12.345-5.456-.351-.687-.638-1.549-.638-1.916v-.668l14.221-.069 14.221-.068.08-1.696c.16-3.384-.893-7.591-2.64-10.554-1.142-1.935-4.704-5.502-6.611-6.62-4.957-2.905-11.53-3.23-16.62-.823-4.844 2.29-8.228 6.085-9.982 11.193-.687 1.999-.738 2.439-.73 6.251.01 4.042.024 4.136.933 6.482 2.385 6.157 6.9 10.239 13.08 11.824 2.859.733 6.984.527 9.954-.498zm-15.02-22.974c-.189-.494.981-2.233 2.253-3.35.515-.452 1.716-1.192 2.67-1.643 1.58-.75 1.963-.82 4.377-.818 2.296.003 2.843.096 4.133.698 1.655.772 3.374 2.21 4.51 3.77 1.28 1.76 1.35 1.747-8.816 1.747-7.8 0-8.992-.053-9.127-.404zm67.986 23.525c4.293-.963 8.888-3.956 10.601-6.908.121-.208-.825-1.123-2.667-2.578-1.57-1.241-2.92-2.257-2.997-2.257-.078 0-.728.552-1.445 1.23-.716.676-2.081 1.599-3.033 2.05-1.557.738-1.982.82-4.244.82-2.276 0-2.681-.08-4.292-.843-.979-.464-2.379-1.404-3.111-2.089-1.413-1.321-3.093-4.293-2.824-4.994.136-.354 1.901-.413 14.253-.473l14.098-.068.077-2.48c.268-8.684-5.881-16.543-14.432-18.446-2.807-.624-6.932-.407-9.546.502-8.921 3.104-14.239 12.52-12.324 21.824.802 3.894 2.498 6.997 5.402 9.88 4.345 4.31 10.609 6.146 16.483 4.83zm-13.017-23.363c-.902-.571 2.407-4.089 4.94-5.252 1.303-.599 1.883-.697 4.16-.71 2.357-.013 2.817.066 4.215.72 1.918.899 3.5 2.166 4.492 3.597 1.342 1.936 1.562 1.887-8.5 1.882-4.916-.002-9.104-.109-9.307-.237zm-13.919-2.007V96.712h-8.996l-.068 24.077c-.037 13.242-.01 24.229.06 24.414.1.259 1.161.32 4.567.265l4.437-.073zm54.905 13.361c.153-12.457.141-12.38 2.29-14.272 1.403-1.235 2.944-1.81 5.718-2.135 1.132-.132 2.174-.312 2.315-.399.145-.09.257-1.699.257-3.702 0-4.124.003-4.12-2.394-3.792-3.008.411-6.944 2.14-8.31 3.65-.27.298-.578.542-.685.542-.106 0-.24-.84-.299-1.868-.071-1.26-.231-1.947-.493-2.113-.213-.134-1.901-.246-3.751-.249-3.058-.004-3.39.043-3.638.508-.424.791-.375 34.206.05 34.631.234.235 1.49.304 4.564.252l4.24-.073z" fill="#414042"/></g></svg>