<svg xmlns="http://www.w3.org/2000/svg" width="34.02" height="34.027" fill="none"><g clip-path="url(#a)" transform="translate(0 -2.022)"><path fill="#ffb0c2" d="M23.224 25.675a6.834 6.834 0 0 1-6.047 3.66c-3.778 0-6.84-3.075-6.84-6.867 0-3.793 3.062-6.867 6.84-6.867 2.623 0 4.899 1.484 6.047 3.66h7.121c-1.429-5.979-6.774-10.428-13.168-10.428-7.487 0-13.556 6.093-13.556 13.608 0 7.516 6.069 13.608 13.556 13.608 6.374 0 11.707-4.423 13.154-10.374z"/><path fill="#cc91f0" d="M27.894 14.143a6.825 6.825 0 0 0 2.505-5.293c0-3.771-3.045-6.828-6.801-6.828-3.757 0-6.802 3.057-6.802 6.828v.005c.126-.004.253-.006.38-.006 4.366 0 8.243 2.075 10.718 5.294z"/><path fill="#cc66b8" d="M23.602 15.685c1.63 0 3.125-.575 4.297-1.535-2.475-3.219-6.352-5.293-10.718-5.292-.127 0-.254.002-.38.005.003 3.769 3.047 6.822 6.801 6.822z"/></g><defs><clipPath id="a"><path fill="#fff" d="M0 0h151v38.331H0z"/></clipPath></defs></svg>