<svg xmlns="http://www.w3.org/2000/svg" width="58" height="58" fill="none"><path fill="#f73737" d="M44.418 4.377C40.014 1.642 36.16.365 30.286 0c-5.506 5.107-5.322 15.503 0 20.245 2.203-8.754 7.342-13.497 14.132-15.868zm6.424 4.925c-8.26-.365-14.683 7.113-14.683 14.409 6.79-4.56 14.683-4.742 21.29-1.095-1.1-5.836-3.184-8.913-6.607-13.314zM58 30.094c-5.14-5.471-15.233-4.924-20.19.183 8.094 1.953 12.48 5.654 16.152 13.861C56.764 39.541 58 36.114 58 30.095zm-9.177 20.428c-.55-8.755-6.524-13.905-14.5-14.409 4.129 7.174 4.957 13.862 1.286 21.157 5.48-1.49 8.626-2.918 13.214-6.748zM27.717 58c5.322-5.29 5.69-13.862 0-20.245-2.203 8.937-6.975 13.496-14.132 16.05 4.929 2.989 8.13 3.663 14.132 4.195zm-20.19-9.302c8.575-.796 14.133-6.383 14.133-14.591-5.323 4.195-14.316 4.742-21.29 1.641 1.948 5.667 3.496 8.63 7.158 12.95ZM.004 27.723c4.588 4.925 14.132 5.654 20.189 0-8.627-2.006-13.68-7.058-15.968-13.68-2.57 3.831-4.303 9.123-4.221 13.68zM9.18 7.66c1.285 8.755 6.057 13.497 14.5 14.227-4.262-7.003-4.59-13.68-1.47-21.157-6.056 1.459-9.26 3.47-13.03 6.93z"/></svg>