<?xml version="1.0" encoding="UTF-8"?>
<svg version="1.1" xmlns="http://www.w3.org/2000/svg" width="64" height="64">
<path d="M0 0 C21.12 0 42.24 0 64 0 C64 21.12 64 42.24 64 64 C42.88 64 21.76 64 0 64 C0 42.88 0 21.76 0 0 Z " fill="#FBFEFD" transform="translate(0,0)"/>
<path d="M0 0 C2.8100346 1.79363911 4.50940468 3.01880935 6 6 C6.54724071 11.69130337 5.59333707 14.56117185 2 19 C-1.47263273 20.73631636 -5.21193013 20.60190402 -9 20 C-11.75569447 17.81840855 -13.43588747 16.12822506 -15 13 C-15.39069343 8.85864965 -15.43382227 6.68813188 -13.1875 3.125 C-9.45428906 -0.50154777 -5.00095599 -0.73113392 0 0 Z " fill="#45E8B7" transform="translate(26,34)"/>
<path d="M0 0 C5.5 3 5.5 3 7 6 C7.54724071 11.69130337 6.59333707 14.56117185 3 19 C-0.47263273 20.73631636 -4.21193013 20.60190402 -8 20 C-10.75569447 17.81840855 -12.43588747 16.12822506 -14 13 C-14.12243863 8.46977058 -13.81830145 5.01667755 -10.9375 1.4375 C-7.20636061 -0.38837672 -4.03377455 -0.80360352 0 0 Z " fill="#44E8B7" transform="translate(46,13)"/>
<path d="M0 0 C2.3125 -0.25 2.3125 -0.25 5 0 C6.8125 2 6.8125 2 8 4 C9.98 3.67 11.96 3.34 14 3 C14.33 2.01 14.66 1.02 15 0 C16.98 0 18.96 0 21 0 C20.64598897 3.18609925 20.16972964 4.79066678 18.125 7.3125 C16 9 16 9 13 9 C13 9.66 13 10.32 13 11 C13.5775 11.061875 14.155 11.12375 14.75 11.1875 C17.97219753 12.35107133 19.15672861 14.16926179 21 17 C21 18.32 21 19.64 21 21 C19.02 21 17.04 21 15 21 C15 19.68 15 18.36 15 17 C12.69 16.67 10.38 16.34 8 16 C7.608125 16.825 7.21625 17.65 6.8125 18.5 C6.214375 19.325 5.61625 20.15 5 21 C2.3125 21.3125 2.3125 21.3125 0 21 C0.32493615 17.4257023 0.63870686 15.44287547 2.9375 12.625 C5 11 5 11 7 11 C7 10.34 7 9.68 7 9 C6.401875 8.938125 5.80375 8.87625 5.1875 8.8125 C2.07733153 7.65729457 1.39582292 5.93122813 0 3 C0 2.01 0 1.02 0 0 Z " fill="#46E8B7" transform="translate(32,34)"/>
<path d="M0 0 C2.3125 -0.25 2.3125 -0.25 5 0 C6 1.33333333 7 2.66666667 8 4 C10.5 4.66666667 10.5 4.66666667 13 4 C13.495 3.34 13.99 2.68 14.5 2 C14.995 1.34 15.49 0.68 16 0 C18.6875 -0.25 18.6875 -0.25 21 0 C20.64598897 3.18609925 20.16972964 4.79066678 18.125 7.3125 C16 9 16 9 13 9 C13 9.66 13 10.32 13 11 C13.5775 11.061875 14.155 11.12375 14.75 11.1875 C17.94710041 12.34200848 19.1436532 14.21547979 21 17 C21 17.99 21 18.98 21 20 C18.6875 20.25 18.6875 20.25 16 20 C14.1875 18 14.1875 18 13 16 C10.06556598 16.26656572 10.06556598 16.26656572 7 17 C6.34 17.99 5.68 18.98 5 20 C2.375 20.1875 2.375 20.1875 0 20 C0.35401103 16.81390075 0.83027036 15.20933322 2.875 12.6875 C5 11 5 11 8 11 C8 10.34 8 9.68 8 9 C7.4225 8.938125 6.845 8.87625 6.25 8.8125 C3.05289959 7.65799152 1.8563468 5.78452021 0 3 C0 2.01 0 1.02 0 0 Z " fill="#40E8B5" transform="translate(11,13)"/>
<path d="M0 0 C1.56306825 2.5399859 2.00203409 3.90439795 1.9375 6.9375 C2.0107773 10.52808749 2.88093915 12.14741809 5 15 C7.46844648 16.23422324 9.0628099 16.06595958 11.8125 16 C15.35822594 15.95894963 18.54931806 16.07981815 22 17 C22 17.33 22 17.66 22 18 C20.02 18 18.04 18 16 18 C15.67 19.32 15.34 20.64 15 22 C12.03 22.495 12.03 22.495 9 23 C8.60216309 22.34733154 8.20432617 21.69466309 7.79443359 21.0222168 C6.19487962 18.81015716 6.19487962 18.81015716 3.81103516 18.56176758 C2.97878418 18.58907959 2.1465332 18.6163916 1.2890625 18.64453125 C0.37382812 18.66193359 -0.54140625 18.67933594 -1.484375 18.69726562 C-2.43828125 18.73529297 -3.3921875 18.77332031 -4.375 18.8125 C-6.25769463 18.86508207 -8.14051426 18.91339609 -10.0234375 18.95703125 C-10.85794434 18.98772705 -11.69245117 19.01842285 -12.55224609 19.05004883 C-15.14239734 18.99708842 -17.47933637 18.57885862 -20 18 C-20 17.67 -20 17.34 -20 17 C-18.88625 16.87625 -18.88625 16.87625 -17.75 16.75 C-14.8563767 16.21797869 -14.8563767 16.21797869 -13 13.875 C-11 12 -11 12 -8.375 12 C-6 13 -6 13 -4.6875 15.0625 C-4.460625 15.701875 -4.23375 16.34125 -4 17 C-2.35 17 -0.7 17 1 17 C-0.97225861 12.32886119 -2.5667236 10.39636562 -7 8 C-7 7.34 -7 6.68 -7 6 C-5.33720673 4.9935725 -3.67016516 3.99414593 -2 3 C-1.34 2.01 -0.68 1.02 0 0 Z " fill="#CDF6EB" transform="translate(31,16)"/>
<path d="M0 0 C2.5625 0.3125 2.5625 0.3125 4.4375 1.5 C5.5625 3.3125 5.5625 3.3125 5.375 5.875 C4.5625 8.3125 4.5625 8.3125 2.5625 10.3125 C0.0625 10.5625 0.0625 10.5625 -2.4375 10.3125 C-4.4375 8.3125 -4.4375 8.3125 -4.6875 5.3125 C-4.37675292 1.58353509 -3.7821044 0.48488518 0 0 Z " fill="#F3FCFA" transform="translate(21.4375,38.6875)"/>
<path d="M0 0 C2.5 0.25 2.5 0.25 4.5 2.25 C4.75 5.25 4.75 5.25 4.5 8.25 C2.5 10.25 2.5 10.25 0.0625 10.5625 C-2.5 10.25 -2.5 10.25 -4.375 9.0625 C-5.5 7.25 -5.5 7.25 -5.3125 4.6875 C-4.22827241 1.43481722 -3.47807945 0.34780795 0 0 Z " fill="#F3FCFA" transform="translate(42.5,17.75)"/>
<path d="M0 0 C1.54122336 2.50448796 2.00771139 3.82649382 1.875 6.8125 C2.04558634 11.16245169 3.66988008 13.35918763 6 17 C4.35 17 2.7 17 1 17 C0.608125 16.071875 0.21625 15.14375 -0.1875 14.1875 C-2.14739849 10.74078196 -3.59760503 9.83913242 -7 8 C-7 7.34 -7 6.68 -7 6 C-5.33720673 4.9935725 -3.67016516 3.99414593 -2 3 C-1.34 2.01 -0.68 1.02 0 0 Z " fill="#E5F9F4" transform="translate(31,16)"/>
<path d="M0 0 C1.65 0 3.3 0 5 0 C8 5.75 8 5.75 8 8 C9.32 8.33 10.64 8.66 12 9 C12 9.66 12 10.32 12 11 C10.36739286 12.37482707 8.69774938 13.70647667 7 15 C6.34 15.66 5.68 16.32 5 17 C4.14348074 14.32337731 4.02863493 12.48457134 4.1875 9.625 C3.96370566 5.2983095 2.62788889 3.36698264 0 0 Z " fill="#EBFAF7" transform="translate(27,34)"/>
<path d="M0 0 C0 0.33 0 0.66 0 1 C-1.98 1 -3.96 1 -6 1 C-6.33 2.32 -6.66 3.64 -7 5 C-9.875 5.625 -9.875 5.625 -13 6 C-13.66 5.34 -14.32 4.68 -15 4 C-15 2.68 -15 1.36 -15 0 C-9.76528314 -0.75612577 -5.22745859 -1.2063366 0 0 Z " fill="#DEF8F2" transform="translate(53,33)"/>
</svg>
