<svg xmlns="http://www.w3.org/2000/svg" xmlns:xlink="http://www.w3.org/1999/xlink" version="1.1" id="Layer_1" x="0" y="0" viewBox="0 0 3500 3500.1" xml:space="preserve"><style type="text/css" id="style3250"></style><g id="g3262"><g id="g3260"><g transform="matrix(1.75 0 0 1.75 3002.692 -608.965)" id="g2041"><path id="path1448" fill="#070a0e" d="M-715.824 2347.98c552.29 0 1000-447.71 1000-1000s-447.71-1000-1000-1000-1000 447.72-1000 1000 447.72 1000 1000 1000z"/><path id="path1450" fill-rule="evenodd" fill="#00d395" d="M-1138.164 1683.3a100.75 100.75 0 01-48.21-85.85v-195.36a42 42 0 0163.16-36.19l440.92 257.08a84 84 0 0141.68 72.5v202.44a50.33 50.33 0 01-76.66 43zm657.25-370.95a84 84 0 0141.66 72.51v410.75a33.45 33.45 0 01-17.09 29.23l-96.54 54.35a19.72 19.72 0 01-3.88 1.61v-228.07a84.13 84.13 0 00-40.86-72.12l-387.2-231.63v-257.49a42 42 0 0163.16-36.19zm193-303.38a83.89 83.89 0 0141.79 72.64v600a33.68 33.68 0 01-17.7 29.47l-91.46 49.4V1342.8a84.08 84.08 0 00-40.73-72l-395.81-237.39V789.18a42.92 42.92 0 015.61-21.1 42.06 42.06 0 0157.42-15.22z"/></g><defs id="defs3253"><path id="SVGID_1_" d="M1750 0c966.5 0 1750 783.5 1750 1750s-783.5 1750-1750 1750S0 2716.5 0 1750 783.5 0 1750 0z"/></defs><clipPath id="SVGID_2_"><use xlink:href="#SVGID_1_" id="use3257" x="0" y="0" width="100%" height="100%" overflow="visible"/></clipPath></g></g></svg>