<svg class="prefix__icon prefix__inline-flex prefix__relative prefix__smDown:hidden prefix__svelte-1d6cdh5" width="25.602" height="25.602" fill="none" xmlns="http://www.w3.org/2000/svg"><path d="M15.077 22.174a9.375 9.375 0 008.257-4.933l-2.979-1.602a6.003 6.003 0 01-5.278 3.155zm0-15.374a6.004 6.004 0 015.278 3.155l2.98-1.603a9.377 9.377 0 00-8.258-4.932z" fill="currentColor" class="prefix__svelte-1d6cdh5"/><path d="M15.076 0C8.006 0 2.268 5.731 2.268 12.801s5.738 12.801 12.808 12.801v-3.428a9.377 9.377 0 110-18.754zm0 6.8a6.004 6.004 0 00-5.998 5.997 6.004 6.004 0 005.997 5.997z" fill="#6077eb" class="prefix__svelte-1d6cdh5"/></svg>