<svg class="icon inline-flex relative smDown:hidden svelte-1d6cdh5" width="120" height="27" viewBox="0 0 120 27" fill="none"><path d="M12.809 22.1739C16.379 22.1734 19.4825 20.1777 21.0661 17.2414L18.0877 15.6387C17.0733 17.5155 15.0872 18.7938 12.809 18.7942V22.1739ZM12.809 6.79954C15.0872 6.80001 17.0734 8.07833 18.0878 9.95524L21.0667 8.35241C19.4824 5.41613 16.3789 3.42039 12.809 3.41992V6.79954Z" fill="currentColor" class="svelte-1d6cdh5"></path><path d="M12.8079 0C5.7381 0 0 5.73124 0 12.8011C0 19.8709 5.7381 25.6021 12.8079 25.6021V22.1739H12.8077C7.62872 22.1739 3.43066 17.9757 3.43066 12.7969C3.43066 7.61812 7.62886 3.41992 12.8077 3.41992H12.8079V0ZM12.8079 6.79954H12.8077C9.50049 6.79954 6.81028 9.49017 6.81028 12.7969C6.81028 16.1036 9.50063 18.7942 12.8077 18.7942H12.8079V6.79954Z" fill="#6077EB" class="svelte-1d6cdh5"></path><path d="M23.3975 2.98584H26.1855V21.8319H23.3975V2.98584Z" fill="currentColor" class="svelte-1d6cdh5"></path><path d="M35.5441 19.612C37.0931 19.612 38.2547 18.9149 38.8744 18.0113L41.172 19.3538C39.9844 21.1093 38.0482 22.1679 35.5183 22.1679C31.2585 22.1679 28.4962 19.2508 28.4962 15.3783C28.4962 11.5576 31.2585 8.58862 35.3116 8.58862C39.1583 8.58862 41.7911 11.6865 41.7911 15.4041C41.7911 15.7914 41.7394 16.2045 41.6879 16.5659H31.4134C31.8522 18.5792 33.4787 19.612 35.5441 19.612ZM38.9775 14.2938C38.5904 12.0737 36.9638 11.1185 35.2858 11.1185C33.1948 11.1185 31.7748 12.3577 31.3872 14.2938H38.9775Z" fill="currentColor" class="svelte-1d6cdh5"></path><path d="M57.1784 8.92349V21.8317H54.3903V19.973C53.4094 21.3411 51.8862 22.1672 49.8726 22.1672C46.3616 22.1672 43.4443 19.1985 43.4443 15.3776C43.4443 11.5309 46.3616 8.58789 49.8726 8.58789C51.8862 8.58789 53.4094 9.41405 54.3903 10.7569V8.92349H57.1784ZM54.3903 15.3779C54.3903 12.9769 52.6348 11.2472 50.3114 11.2472C47.988 11.2472 46.2324 12.9769 46.2324 15.3779C46.2324 17.7789 47.9879 19.5084 50.3114 19.5084C52.6349 19.5084 54.3903 17.7785 54.3903 15.3779Z" fill="currentColor" class="svelte-1d6cdh5"></path><path d="M66.9521 8.69116V11.7113C65.1191 11.5822 62.9764 12.4342 62.9764 15.3256V21.8313H60.1884V8.92359H62.9764V11.0926C63.7509 9.33657 65.3257 8.69116 66.9521 8.69116Z" fill="currentColor" class="svelte-1d6cdh5"></path><path d="M82.9928 15.3779C82.9928 19.1987 80.0496 22.1675 76.4612 22.1675C74.2668 22.1675 72.6145 21.1865 71.5819 19.6118V26.9952H69.3359V8.92349H71.5819V11.1437C72.6145 9.5689 74.2668 8.58789 76.4612 8.58789C80.0496 8.58789 82.9928 11.5568 82.9928 15.3779ZM80.7467 15.3779C80.7467 12.7447 78.7589 10.7568 76.1772 10.7568C73.5698 10.7568 71.5819 12.7447 71.5819 15.3779C71.5819 18.0111 73.5698 19.9989 76.1772 19.9989C78.7589 19.9986 80.7467 18.0108 80.7467 15.3779Z" fill="currentColor" class="svelte-1d6cdh5"></path><path d="M84.9561 15.3783C84.9561 11.5576 87.9761 8.58862 91.7457 8.58862C95.5152 8.58862 98.5611 11.5576 98.5611 15.3783C98.5611 19.1992 95.5148 22.1679 91.7457 22.1679C87.9765 22.1679 84.9561 19.1989 84.9561 15.3783ZM96.3151 15.3783C96.3151 12.7709 94.3272 10.783 91.7457 10.783C89.1898 10.783 87.2018 12.7709 87.2018 15.3783C87.2018 17.9858 89.1896 19.9737 91.7457 19.9737C94.3272 19.9734 96.3151 17.9855 96.3151 15.3783Z" fill="currentColor" class="svelte-1d6cdh5"></path><path d="M100.497 15.3786C100.497 11.5578 103.517 8.58887 107.286 8.58887C111.056 8.58887 114.102 11.5578 114.102 15.3786C114.102 19.1995 111.056 22.1682 107.286 22.1682C103.517 22.1682 100.497 19.1992 100.497 15.3786ZM111.856 15.3786C111.856 12.7711 109.868 10.7832 107.286 10.7832C104.731 10.7832 102.742 12.7711 102.742 15.3786C102.742 17.986 104.731 19.9739 107.286 19.9739C109.868 19.9736 111.856 17.9857 111.856 15.3786Z" fill="currentColor" class="svelte-1d6cdh5"></path><path d="M116.759 2.98584H119.005V21.8319H116.759V2.98584Z" fill="currentColor" class="svelte-1d6cdh5"></path></svg>