<svg width="25.871" height="29.728" fill="none" xmlns="http://www.w3.org/2000/svg"><path d="M25.871 11.892V5.946H22.88V2.973h-5.98V0h-5.981v2.973h-5.98v2.973H1.945v17.837h2.99v2.972h5.981v2.973h5.98v-2.973h5.983v-2.972h2.992v-5.946H19.89v2.973h-2.99v2.973h-5.981V20.81h-2.99V8.92h2.99V5.946h5.98v2.973h2.99v2.973z" fill="#3a3a3a"/><path fill="#1682fe" d="M14.955 5.798h2.083V8.92h-2.083zM8.971 0h2.083v3.122H8.971z"/><path fill="#60d8a4" d="M2.991 2.973h2.083v3.122H2.991z"/><path fill="#f4bb3b" d="M0 14.865h2.104v8.918H0z"/><path fill="#60d8a4" d="M0 5.947h2.104v8.918H0z"/><path fill="#1682fe" d="M17.944 8.769h2.083v3.122h-2.083z"/><path fill="#ff5a5a" d="M17.942 17.838h2.083v3.122h-2.083zM14.954 20.811h2.083v3.122h-2.083zM8.972 26.606h2.083v3.122H8.972z"/><path fill="#f4bb3b" d="M2.991 23.634h2.083v3.122H2.991z"/><path d="M25.871 11.892V5.946H22.88V2.973h-5.98V0h-5.981v2.973h-5.98v2.973H1.945v17.837h2.99v2.972h5.981v2.973h5.98v-2.973h5.983v-2.972h2.992v-5.946H19.89v2.973h-2.99v2.973h-5.981V20.81h-2.99V8.92h2.99V5.946h5.98v2.973h2.99v2.973z" fill="#3a3a3a"/></svg>
