<svg xmlns="http://www.w3.org/2000/svg" xml:space="preserve" width="502.1" height="502.1"><g style="stroke:#fff;stroke-width:7;stroke-dasharray:none;stroke-opacity:1"><path d="M0 165.7c0-30.5 24.7-55.2 55.2-55.2 30.5 0 55.2-24.7 55.2-55.2 0-30.5 24.8-55.3 55.3-55.3 30.5 0 55.2 24.7 55.2 55.2 0 30.5-24.7 55.2-55.2 55.2-30.5 0-55.2 24.7-55.2 55.2 0 30.5 24.7 55.2 55.2 55.2 30.5 0 55.2 24.7 55.2 55.2 0 30.5-24.7 55.2-55.2 55.2-30.5 0-55.2-24.7-55.2-55.2 0-30.5-24.7-55.2-55.2-55.2-30.5 0-55.3-24.6-55.3-55.1M495.1 165.7c0 30.5-24.7 55.2-55.2 55.2-30.5 0-55.2 24.7-55.2 55.2 0 30.5-24.7 55.2-55.2 55.2-30.5 0-55.2-24.7-55.2-55.2 0-30.5 24.7-55.2 55.2-55.2 30.5 0 55.2-24.7 55.2-55.2 0-30.5-24.7-55.2-55.2-55.2-30.5 0-55.2-24.7-55.2-55.2 0-30.5 24.6-55.3 55.1-55.3s55.2 24.7 55.2 55.2c0 30.5 24.7 55.2 55.2 55.2 30.6.1 55.3 24.8 55.3 55.3" style="stroke:#fff;stroke-width:7;stroke-dasharray:none;stroke-opacity:1" transform="translate(3.5 85.4)"/><path d="M301.8 165.7c0 29.6-24 53.7-53.7 53.7-29.7 0-53.7-24-53.7-53.7 0-29.6 24-53.7 53.7-53.7 29.6 0 53.7 24 53.7 53.7" style="stroke:#fff;stroke-width:7;stroke-dasharray:none;stroke-opacity:1" transform="translate(3.5 85.4)"/></g></svg>