<svg width="33" height="33" fill="none" xmlns="http://www.w3.org/2000/svg"><path fill-rule="evenodd" clip-rule="evenodd" d="M.25 13.55c-1.542 8.917 4.23 17.425 12.739 19.328.154.034.31.065.464.094 1.285.242 2.07-1.163 1.33-2.245l-2.687-3.77c-4.885-1.96-7.91-7.144-6.975-12.558.868-5.023 5.391-7.856 7.544-8.645l6.107 8.708c.569.811.713 1.795.48 2.684a3.155 3.155 0 0 1-1.655 2.19 1.93 1.93 0 0 0-.065 2.302l.229.326a2.305 2.305 0 0 0 3.22.561l.388-.274c3.146-2.225 3.9-6.588 1.684-9.747L14.343.083C7.385.936 1.905 6.335.248 13.55Z" fill="#7E6BE4"/><path fill-rule="evenodd" clip-rule="evenodd" d="M32.295 19.45c1.54-8.917-4.23-17.425-12.74-19.328-.154-.034-.31-.065-.463-.094-1.285-.243-2.07 1.163-1.33 2.245l2.686 3.77c4.886 1.96 7.91 7.144 6.975 12.558-.868 5.023-5.39 7.856-7.544 8.645l-5.991-8.544c-.664-.7-1.001-1.696-.824-2.722a3.156 3.156 0 0 1 1.947-2.401 1.93 1.93 0 0 0 .001-2.217l-.228-.326a2.305 2.305 0 0 0-3.221-.561l-.388.274c-3.145 2.225-3.9 6.588-1.684 9.746l8.711 12.422c6.956-.853 12.436-6.253 14.093-13.468Z" fill="#7E6BE4"/></svg>
