<svg xmlns="http://www.w3.org/2000/svg" xml:space="preserve" id="Layer_1" x="0" y="0" style="enable-background:new 0 0 36.7 36.6" version="1.1" viewBox="0 0 36.7 36.6"><style>.st0{fill:#e62058}</style><path id="Path_2898" d="M27.3 13.7H9.2c-5 0-9 3.9-9.2 8.9 0 .1.1.2.2.2h18.1c5 0 9-3.9 9.2-8.9 0-.1-.1-.2-.2-.2z" class="st0"/><path id="Path_2899" d="M36.4 0H9.2c-5 0-9 3.9-9.2 8.9 0 .1.1.3.2.3h27.3c5 0 9-3.9 9.2-8.9 0-.2-.1-.3-.3-.3z" class="st0"/><circle id="Ellipse_9" cx="4.6" cy="32" r="4.6" class="st0"/></svg>