<svg xmlns="http://www.w3.org/2000/svg" width="102" height="102"><g transform="translate(0 14.5)" fill="none" fill-rule="evenodd"><rect width="102" height="79" y="-3" ry="5" fill="#000"/><path fill="#fff" d="M11.503 31.04H0v-6.888h11.503v-.502c.03-2.01-.02-4.022.106-6.03.242-3.853 1.228-7.484 3.543-10.653 2.425-3.317 5.766-5.215 9.7-6.162 3.205-.771 6.453-.85 9.723-.572a36.455 36.455 0 019.884 2.276c.179.068.358.144.575.233l-1.945 6.22c-.462-.179-.894-.358-1.335-.52C37.559 6.88 33.23 6.475 28.832 7.16c-5.006.777-8.029 3.933-8.85 8.953-.297 1.82-.273 3.649-.274 5.48v2.537h20.377V31H19.742V73.55h-8.239z"/><path fill="#f7d509" d="M77.388 52.431a.586.586 0 01-.043-.09.632.632 0 01.043-.089c2.002-3.612 4.081-7.41 6.079-11.028.768-1.396 1.6-2.819 2.413-4.303h-7.777s-3.44 7.688-5.006 11.117h-.18c-1.729-3.451-5.452-11.117-5.452-11.117l-8.184-.045a2708.547 2708.547 0 008.68 15.466l-.05.09c-2.69 4.663-8.605 15.297-8.72 15.51l8.274-.044s3.723-7.556 5.453-10.953h.179c1.566 3.379 5.006 10.958 5.006 10.958h7.867c-.817-1.468-6.58-11.911-8.582-15.472zM56.355 70.362c-1.355 1.096-2.778 2.241-4.087 3.301C40.796 63.231 39.52 43.19 52.222 31.06c1.326 1.065 2.74 2.225 4.097 3.322-.358.41-.696.798-1.03 1.19-2.772 3.255-4.692 6.844-5.502 11.067-.51 2.663-.604 5.344-.417 8.046.212 3.04.912 5.955 2.216 8.718a27.166 27.166 0 004.38 6.526c.116.122.223.247.389.434zm32.415 0c1.354 1.096 2.776 2.241 4.086 3.301 11.471-10.432 12.748-30.474.046-42.604-1.322 1.065-2.74 2.225-4.1 3.322.357.41.695.798 1.03 1.19 2.772 3.255 4.692 6.844 5.5 11.067.511 2.663.605 5.344.417 8.046-.211 3.04-.91 5.955-2.215 8.718a27.196 27.196 0 01-4.38 6.526c-.116.122-.223.247-.384.434z"/></g></svg>