<svg width="243.193" height="243.284" viewBox="0 0 64.345 64.369" xmlns="http://www.w3.org/2000/svg"><g transform="translate(-76.067 -114.218)"><circle style="fill:#fff;stroke:#e5cb22;stroke-width:0;stroke-linejoin:round" cx="108.239" cy="146.402" r="30"/><path style="fill:#041e38;stroke-width:.264583" d="M105.102 178.534c-.364-.062-1.495-.247-2.513-.41-2.627-.421-5.72-1.438-8.352-2.746-2.903-1.442-3.919-2.09-6.383-4.072-11.407-9.177-15.042-25.449-8.663-38.784 3.777-7.898 10.822-14.102 19.032-16.76 6.357-2.059 13.751-2.059 20.108 0 11.14 3.607 19.645 13.426 21.725 25.085.518 2.902.46 8.896-.112 11.641-1.6 7.678-5.491 14.19-11.244 18.818-5.895 4.743-12.084 7.043-19.497 7.247-1.891.052-3.737.043-4.1-.019zm2.22-10.589c.202-.525.208-20.153.007-20.902-.181-.674-6.69-4.484-7.048-4.126-.13.13-.2.872-.154 1.65l.08 1.414 1.619.938c2.723 1.58 2.483.731 2.483 8.777 0 5.684-.07 7.111-.346 7.111-.372 0-11.382-6.65-12.156-7.34-.423-.38-.463-1.168-.463-9.226v-8.811l-1.147-.673c-.632-.37-1.286-.673-1.456-.673-.228 0-.307 2.69-.307 10.46v10.462l1.72 1.078c4.833 3.03 16.69 10.263 16.839 10.27.093.005.242-.179.33-.409zm9.783-4.131c4.094-2.502 8.248-5.061 9.23-5.687l1.786-1.137v-10.453c0-7.66-.08-10.453-.302-10.453-.166 0-4.385 2.345-9.376 5.212-6.351 3.647-9.117 5.374-9.219 5.754-.25.933-.158 6.873.113 7.29.223.343.432.302 1.518-.292l1.259-.69.077-2.34c.042-1.286.2-2.487.352-2.67.432-.52 11.755-6.972 12.236-6.972.388 0 .432.693.432 6.838 0 6.179-.045 6.878-.463 7.252-.255.227-3.796 2.45-7.87 4.94-4.073 2.489-7.488 4.732-7.588 4.985-.356.897-.19 2.973.236 2.973.074 0 3.484-2.048 7.579-4.55zm-5.354-20.784c1.93-1.096 3.12-1.929 3.078-2.155-.038-.202-.61-.669-1.269-1.037l-1.2-.669-1.889 1.103c-1.039.607-2.02 1.104-2.18 1.104-.161 0-2.7-1.383-5.643-3.074-7.147-4.106-6.675-3.79-6.241-4.197.198-.187 2.95-1.73 6.114-3.431l5.753-3.092 7.69 4.144c5.596 3.015 7.847 4.102 8.27 3.992.927-.243 2.347-1.21 2.241-1.528-.136-.41-17.573-9.747-18.203-9.747-.73 0-18.119 9.42-18.119 9.815 0 .345 17.474 10.535 18.09 10.55.199.003 1.778-.796 3.508-1.778z"/></g></svg>
