<svg xmlns="http://www.w3.org/2000/svg" xml:space="preserve" id="Layer_1" x="0" y="0" style="enable-background:new 0 0 14.1 11.8" version="1.1" viewBox="0 0 14.1 11.8"><style>.st1{fill:#e1177c}</style><path d="M9.9.4c1.6.7 2.7 2.4 2.6 4.1H3.9c0-1.1.4-2.3 1.2-3.1C6.2 0 8.3-.4 9.9.4z" style="fill:#5fc0c1"/><path d="M9.7 11.3c.2 0 .3.1.3.2s-.1.2-.3.2H5.1c-.2 0-.3-.1-.3-.2s.1-.2.3-.2h4.6zM4.1 11.8c.2 0 .3-.1.3-.3s-.1-.3-.3-.3c-.2 0-.3.1-.3.3s.1.3.3.3zM6.9 10.6c.2 0 .3-.1.3-.3s-.1-.3-.3-.3-.3.1-.3.3.1.3.3.3zM12.3 10c.2 0 .3.1.3.3 0 .2-.1.3-.3.3H7.8c-.2 0-.3-.1-.3-.3 0-.2.1-.3.3-.3h4.5zM.9 9.4c.2 0 .3-.1.3-.3 0-.2-.1-.3-.3-.3s-.3.1-.3.3c0 .2.2.3.3.3zM5.4 8.8c.2 0 .3.1.3.3 0 .2-.1.3-.3.3H1.7c-.2 0-.3-.1-.3-.3 0-.2.1-.3.3-.3h3.7zM13.8 8.8c.2 0 .3.1.3.3 0 .2-.1.3-.3.3H6.4c-.2 0-.3-.1-.3-.3 0-.2.1-.3.3-.3h7.4zM12.4 7.6c.2 0 .3.1.3.3 0 .2-.1.3-.3.3H3.3c-.1.1-.3-.1-.3-.3 0-.2.1-.3.3-.3h9.1zM2.3 8.3c.2 0 .3-.1.3-.3s-.1-.4-.3-.4-.3.2-.3.3.1.4.3.4zM10.5 6.5c.2 0 .3.1.3.3 0 .2-.1.3-.3.3H1.4c-.1 0-.3-.1-.3-.3 0-.2.1-.3.3-.3h9.1zM.3 7.1c.2 0 .3-.1.3-.3 0-.2-.1-.3-.3-.3-.2 0-.3.1-.3.3 0 .2.1.3.3.3zM2.3 5.9c.2 0 .3-.1.3-.3 0-.2-.1-.3-.3-.3s-.3.2-.3.3c0 .2.1.3.3.3zM13.3 5.3c.2 0 .3.1.3.3 0 .2-.1.3-.3.3H3.4c-.2 0-.3-.1-.3-.3 0-.2.1-.3.3-.3h9.9z" class="st1"/></svg>