<svg width="136.75" height="136.75" xmlns="http://www.w3.org/2000/svg"><rect style="fill:#00ff7e;fill-opacity:1;stroke:none;stroke-width:1.423;stroke-dasharray:none;stop-color:#000" width="136.75" height="136.75" ry="20"/><g fill="#231f20" fill-rule="evenodd"><path d="M22.163 64.005a2.323 2.323 0 1 0 0-4.627H4.134a2.323 2.323 0 0 0 0 4.627zm-5.222 17.552a2.324 2.324 0 0 0 2.323 2.323h18.03a2.323 2.323 0 0 0 0-4.626h-18.03a2.303 2.303 0 0 0-2.323 2.303zm15.15-12.25H12.077a2.323 2.323 0 1 0 0 4.645H32.07a2.323 2.323 0 1 0 0-4.626zm-26.01 4.665a2.323 2.323 0 1 0 0-4.646h-.914a2.323 2.323 0 1 0 0 4.646zM47.4 91.485a2.303 2.303 0 0 0-2.304-2.304H6.18a2.323 2.323 0 0 0 0 4.627h38.916a2.303 2.303 0 0 0 2.304-2.323Z"/><path d="M119.038 88.903c-7.108-2.859-10.603-4.507-13.521-1.787 1.489-2.958.893-3.137-.358-5.32-2.482-4.389-9.074-11.577-11.337-25.277a73.068 73.068 0 0 0 3.97-16.003s1.39-3.972-4.685-1.986a68.303 68.303 0 0 1-11.913 5.818c-7.565-.894-18.665-6.354-22.755-14.813 0 0 3.415-7.128.437-8.776-1.985-1.131-8.18 5.242-8.18 5.242l-20.074 23.41-1.55 2.879a3.673 3.673 0 0 0 .299 3.971c5.321 7.088 26.288 35.025 38.241 49.798-34.17.278-52.637 5.52-39.532 7.346 10.722 1.49 35.204 1.053 53.61.993a49.76 49.76 0 0 0 6.533 1.43l30.815.297c3.971-.218 7.625-.516 10.504-.834a5.103 5.103 0 0 0 4.21-3.256c3.315-8.875-1.907-18.009-14.714-23.132zM57.486 71.887l-1.032-23.826 6.989 14.613 7.525-3.018 1.986 23.033-7.943-14.336z"/></g></svg>
