<svg xmlns="http://www.w3.org/2000/svg" xml:space="preserve" id="Layer_1" x="0" y="0" style="enable-background:new 0 0 2500 2500" version="1.1" viewBox="0 0 2500 2500"><style>.st1{fill:url(#SVGID_00000013901453616238340120000016966043026509452947_)}.st2{fill:url(#SVGID_00000137126939552312875510000004805903048907908995_)}</style><g id="Layer_x0020_1"><g id="_1577963705392"><linearGradient id="SVGID_1_" x1="107" x2="2393" y1="1249.276" y2="1249.276" gradientTransform="matrix(1 0 0 -1 0 2499.276)" gradientUnits="userSpaceOnUse"><stop offset="0" style="stop-color:#500586"/><stop offset=".122" style="stop-color:#50048b"/><stop offset=".271" style="stop-color:#430584"/><stop offset=".431" style="stop-color:#311085"/><stop offset=".49" style="stop-color:#29188b"/><stop offset=".741" style="stop-color:#403965"/><stop offset=".831" style="stop-color:#483956"/><stop offset=".91" style="stop-color:#2f3d5a"/><stop offset="1" style="stop-color:#2b444a"/></linearGradient><circle cx="1250" cy="1250" r="1143" style="fill-rule:evenodd;clip-rule:evenodd;fill:url(#SVGID_1_)"/><linearGradient id="SVGID_00000001631832853742334820000003621374424170148231_" x1="0" x2="2500" y1="1249.276" y2="1249.276" gradientTransform="matrix(1 0 0 -1 0 2499.276)" gradientUnits="userSpaceOnUse"><stop offset="0" style="stop-color:#4c0b57"/><stop offset=".122" style="stop-color:#8e04ac"/><stop offset=".271" style="stop-color:#242f96"/><stop offset=".431" style="stop-color:#2c8d7e"/><stop offset=".541" style="stop-color:#5ab33e"/><stop offset=".639" style="stop-color:#91ad05"/><stop offset=".741" style="stop-color:#2a9d06"/><stop offset=".831" style="stop-color:#40a55f"/><stop offset=".91" style="stop-color:#6bac80"/><stop offset="1" style="stop-color:#68b7a9"/></linearGradient><path d="M1250 2500c-345 0-658-140-884-366S0 1595 0 1250s140-658 366-884S905 0 1250 0s658 140 884 366 366 539 366 884-140 658-366 884-539 366-884 366zm-820-430c210 210 500 340 820 340s610-130 820-340 340-500 340-820-130-610-340-820-500-340-820-340-610 130-820 340S90 930 90 1250s130 610 340 820z" style="fill:url(#SVGID_00000001631832853742334820000003621374424170148231_)"/><linearGradient id="SVGID_00000093876856704973142440000005475728134957498779_" x1="37" x2="2463" y1="1249.276" y2="1249.276" gradientTransform="matrix(1 0 0 -1 0 2499.276)" gradientUnits="userSpaceOnUse"><stop offset="0" style="stop-color:#670e78"/><stop offset=".122" style="stop-color:#c204ec"/><stop offset=".271" style="stop-color:#3140cd"/><stop offset=".431" style="stop-color:#3cc1ac"/><stop offset=".541" style="stop-color:#7bf555"/><stop offset=".639" style="stop-color:#c7ed06"/><stop offset=".741" style="stop-color:#3ad609"/><stop offset=".831" style="stop-color:#58e283"/><stop offset=".91" style="stop-color:#93ecaf"/><stop offset="1" style="stop-color:#8ffae8"/></linearGradient><path d="M1250 2463c-335 0-638-136-858-355-219-219-355-523-355-858s136-638 355-858C612 172 915 37 1250 37s638 136 858 355c220 220 355 523 355 858s-136 638-355 858c-220 220-523 355-858 355zm-796-417c204 204 485 330 796 330s592-126 796-330 330-485 330-796-126-592-330-796-485-330-796-330-592 126-796 330-330 485-330 796 126 592 330 796z" style="fill:url(#SVGID_00000093876856704973142440000005475728134957498779_)"/><path d="M1250 674c-9 256-9 531 0 787 8-257 8-531 0-787zM967 2026l1 2c3-1 5-2 8-4 50-28 105-48 159-67 69-23 141-25 211-6 61 17 120 40 176 69 4 2 7 6 11 5-1-1-1-2-2-3-88-68-176-135-264-203-12-10-23-9-34 1-88 70-177 138-265 205l-1 1zm-52-969c-6 8-3 13 3 19 21 23 34 49 43 79 10 36 15 73 17 110 3 57 2 115 1 172-1 76-2 153-1 229 1 85-11 166-38 246-10 31-21 63-36 95 2-1 5-2 7-3 77-62 153-125 234-182 10-8 10-17 4-27-7-10-13-19-21-28-21-26-29-55-30-87-1-43-2-85-2-127-2-157-1-314-3-471-3-202-3-402-4-604v-7h-3c-9 80-18 160-33 239-24 124-59 242-137 345l-1 2zm495-220c-3 180 0 360-3 540-2 93-1 187-1 281 0 48-10 91-44 126-3 4-6 8-9 11-8 11-6 20 6 28 77 55 151 115 224 175 4 3 7 7 13 7-25-55-41-112-55-169-6-22-10-45-12-68-5-56-4-112-5-169-2-96-1-193-1-290 0-33 2-66 6-99 6-44 16-87 44-123 18-24 18-24 1-48-61-87-94-185-117-288-20-92-31-185-41-280h-4c-2 122-2 243-3 365l1 1z" style="fill:#fff"/></g></g></svg>