<svg width="661.386" height="660.011" viewBox="0 0 174.992 174.628" xmlns="http://www.w3.org/2000/svg"><g transform="translate(-17.504 -61.186)"><circle cx="105" cy="148.5" r="80.547" fill="#fff" stroke="#000" stroke-width=".191" stroke-linecap="round"/><g fill="#e8983e"><path d="M112.398 235.13c.013-.308.076-.37.16-.16.076.192.067.42-.02.508-.089.088-.151-.069-.14-.347zm-14.817-.793c.013-.308.076-.371.16-.16.077.19.067.42-.02.507-.089.088-.151-.068-.14-.347zm22.965-.044c-.33-.42-.32-.43.1-.1.254.2.462.408.462.463 0 .218-.217.077-.562-.363zm-5.837-3.422c.19-.077.42-.067.507.02.088.089-.068.151-.347.14-.309-.013-.371-.076-.16-.16zm2.117-.265c.19-.076.419-.067.507.021.088.088-.069.15-.348.139-.308-.013-.37-.075-.16-.16zm22.24-5.31c-.329-.419-.32-.428.1-.1.255.2.463.409.463.464 0 .218-.217.078-.563-.363zm-69.072-1.04c.191-.076.42-.067.507.021.088.088-.068.15-.347.139-.308-.013-.37-.075-.16-.16zm83.68-3.678c.012-.308.075-.37.159-.16.076.192.067.42-.02.508-.089.088-.151-.069-.14-.348zm-49.433-.035c.4-.06 1.055-.06 1.455 0 .4.06.073.11-.727.11-.8 0-1.128-.05-.728-.11zm-5.143-.256c.191-.076.42-.067.508.021.087.088-.069.15-.348.14-.308-.013-.37-.076-.16-.16zm-2.91-.264c.191-.077.42-.067.507.02.088.089-.068.151-.347.14-.308-.013-.371-.076-.16-.16zm-41.734-.503c.013-.308.076-.37.16-.16.077.191.067.42-.02.507-.089.088-.151-.068-.14-.347zm106.342-3.12c0-.055.208-.264.463-.464.42-.329.429-.32.1.1-.346.441-.563.581-.563.363zm-59.725-1.407c.258-.067.615-.063.794.01.18.073-.031.127-.468.122-.437-.005-.583-.065-.326-.132zm7.139.001c.255-.066.671-.066.926 0 .255.067.046.121-.463.121-.51 0-.718-.054-.463-.12zm57.216-2.993c.569-.582 1.093-1.058 1.166-1.058.073 0-.333.476-.901 1.058-.569.582-1.093 1.059-1.166 1.059-.073 0 .333-.477.901-1.059zm4.498-4.233c.263-.291.539-.53.611-.53.073 0-.083.239-.346.53-.264.291-.539.53-.612.53-.072 0 .084-.239.347-.53zm-130.063-.463l-.641-.728.728.642c.68.6.848.814.641.814-.047 0-.375-.328-.728-.728zm17.978-4.233c-.329-.42-.32-.43.1-.1.255.2.463.408.463.463 0 .218-.217.077-.563-.363zm93.961.363c0-.055.208-.263.463-.463.42-.33.43-.32.1.1-.346.44-.563.58-.563.363zm-63.02-.346c.19-.076.419-.067.507.021.088.088-.069.15-.347.14-.309-.013-.371-.076-.16-.16zm4.498 0c.19-.076.419-.067.507.021.088.088-.069.15-.348.14-.308-.013-.37-.076-.16-.16zm2.116-.264c.191-.077.42-.067.507.02.088.089-.068.151-.347.14-.308-.013-.37-.076-.16-.16zm-41.49-3.391c-1.084-1.092-1.911-1.985-1.839-1.985.073 0 1.02.893 2.104 1.985 1.084 1.091 1.911 1.984 1.839 1.984-.073 0-1.02-.893-2.104-1.984zm101.997.132c1.011-1.019 1.898-1.852 1.97-1.852.073 0-.694.833-1.705 1.852-1.011 1.019-1.898 1.852-1.97 1.852-.073 0 .694-.833 1.705-1.852zm-94.887-.992c-.329-.42-.32-.43.1-.1.255.2.463.408.463.463 0 .218-.217.078-.563-.363zm87.611.363c0-.055.208-.263.463-.463.42-.33.43-.32.1.1-.346.44-.563.58-.563.363zm22.357-.43c.264-.29.539-.529.612-.529.072 0-.084.239-.347.53-.263.29-.538.529-.611.529-.073 0 .083-.238.346-.53zM36.55 196.59l-.504-.595.595.504c.56.474.716.687.504.687-.05 0-.318-.268-.595-.596zm73.182.231c0-.055.209-.263.463-.463.42-.329.43-.32.1.1-.345.44-.563.581-.563.363zm-51.363-.627c-.329-.42-.32-.43.1-.1.255.2.463.408.463.463 0 .217-.217.077-.563-.363zm100.84-.166c0-.055.209-.264.463-.464.42-.329.43-.32.1.1-.345.441-.563.581-.563.364zm-47.095-1.588c0-.055.208-.263.463-.463.42-.33.429-.32.1.1-.346.44-.563.58-.563.363zm42.598-1.587c0-.055.208-.264.463-.464.42-.329.429-.32.1.1-.346.441-.563.581-.563.364zm-100.047-.628c-.329-.42-.32-.43.1-.1.255.2.463.408.463.463 0 .218-.217.078-.563-.363zm35.554-2.1c.255-.067.672-.067.926 0 .255.066.047.12-.463.12-.509 0-.717-.054-.463-.12zm-18.037-2.883c.013-.308.076-.371.16-.16.077.191.067.42-.02.507-.089.088-.151-.068-.14-.347zm43.687-2.095c.005-.436.065-.583.132-.325.067.257.063.614-.01.793-.072.18-.127-.031-.122-.468zm-88.422-1.82c0-.054.208-.263.463-.462.42-.33.429-.32.1.1-.346.44-.563.58-.563.363zm44.735-.583c.013-.308.076-.37.16-.16.077.191.067.42-.02.507-.089.088-.151-.068-.14-.347zm43.942-1.169c0-.363.06-.512.134-.33.073.182.073.48 0 .661-.074.182-.134.033-.134-.33zm.244-5.181c.013-.308.075-.37.16-.16.076.191.067.42-.021.507-.088.088-.15-.068-.14-.347zm-14.002-3.814c0-.364.06-.513.133-.331.074.182.074.48 0 .661-.073.182-.133.033-.133-.33zm-12.477-.894c0-.055.208-.263.463-.463.42-.33.429-.32.1.1-.346.44-.563.58-.563.363zm26.743-.32c.013-.307.076-.37.16-.159.077.191.067.42-.02.507-.089.088-.151-.068-.14-.347zm.059-1.961c0-.8.05-1.128.11-.728.06.4.06 1.055 0 1.455-.06.4-.11.073-.11-.727zm-38.973.958c0-.055.208-.263.463-.463.42-.33.429-.32.1.1-.346.44-.563.58-.563.363zm24.969-3.869c0-1.528.043-2.153.097-1.389.053.764.053 2.014 0 2.778-.054.764-.097.14-.097-1.389zm-20.207-.893c0-.055.209-.264.463-.463.42-.33.43-.32.1.1-.345.44-.563.58-.563.363zm104.267-3.23c.013-.308.075-.37.16-.16.076.191.067.42-.021.507-.088.088-.15-.068-.139-.347zm-69.78-3.682c0-1.164.047-1.608.103-.985.056.622.055 1.575-.002 2.116-.057.542-.102.033-.101-1.131zm59.197 1.3c.012-.307.075-.37.16-.159.076.191.067.42-.021.507-.088.088-.15-.068-.14-.347zm-142.61-1.322c.012-.308.075-.371.16-.16.076.191.066.42-.022.507-.088.088-.15-.068-.139-.347zm-11.962-2.16c-.329-.42-.32-.43.1-.1.255.199.463.407.463.462 0 .218-.217.078-.563-.363zm-2.146-.519c.33-.063.806-.06 1.059.005.253.066-.017.118-.599.115-.582-.003-.789-.057-.46-.12zm172.836-7.565l.132-7.461.07 7.258c.04 3.993-.02 7.35-.131 7.462-.112.112-.143-3.155-.07-7.259zM17.504 150.09c0-3.129.038-4.409.085-2.844.047 1.564.047 4.124 0 5.688-.047 1.565-.085.285-.085-2.844zm21.075 4.344c.013-.309.076-.371.16-.16.077.19.067.419-.02.507-.089.088-.151-.069-.14-.347zm132.821-.794c.013-.308.076-.371.16-.16.076.191.067.42-.02.507-.089.088-.151-.068-.14-.347zm-138.377-.53c.013-.308.075-.37.16-.16.076.192.067.42-.02.508-.089.088-.151-.068-.14-.347zm143.98-.771c.002-.582.056-.79.12-.46.063.33.06.805-.005 1.058-.067.253-.118-.016-.115-.598zm-138.617-3.572c0-1.237.046-1.743.102-1.124.055.618.055 1.63 0 2.249-.056.618-.102.112-.102-1.125zm133.325.132c.003-.582.057-.789.12-.46.063.33.06.806-.005 1.059-.066.253-.118-.017-.115-.599zm5.297-4.1c0-.655.051-.923.114-.596.063.327.063.863 0 1.19-.063.328-.114.06-.114-.595zm-143.964-.794c0-.364.06-.513.133-.331.074.182.074.48 0 .661-.073.182-.133.033-.133-.33zm138.356-.684c.013-.308.076-.37.16-.16.076.191.067.42-.02.507-.089.088-.151-.068-.14-.347zm-132.82-.794c.012-.308.075-.37.16-.16.076.191.066.42-.022.508-.088.088-.15-.069-.139-.348zm-18.327-1.614c.19-.076.419-.067.507.021.088.088-.069.15-.348.14-.308-.013-.37-.076-.16-.16zm169.184-.009c.4-.06 1.055-.06 1.455 0 .4.061.073.11-.727.11-.8 0-1.128-.049-.728-.11zm-167.262-1.816c.013-.308.076-.371.16-.16.076.19.067.42-.02.507-.089.088-.151-.068-.14-.347zm11.377-.53c.013-.308.076-.37.16-.16.077.192.067.42-.02.508-.089.088-.151-.069-.14-.347zm5.557-.264c.012-.308.075-.37.16-.16.076.191.066.42-.022.507-.087.088-.15-.068-.138-.347zm131.497-1.323c.013-.308.076-.37.16-.16.077.191.067.42-.02.507-.089.088-.151-.068-.14-.347zm-20.129-1.004c0-.055.209-.263.463-.463.42-.329.43-.32.1.1-.345.44-.563.581-.563.363zm-130.473-3.803c-.33-.42-.32-.429.1-.1.44.346.58.564.363.564-.055 0-.263-.209-.463-.464zm131.552.045c.013-.309.076-.371.16-.16.077.19.067.419-.02.507-.089.088-.151-.068-.14-.347zm-129.402-12.91c0-.055.209-.264.463-.464.42-.329.43-.32.1.1-.345.441-.563.581-.563.363zm77.11-11.873l-.777-.86.86.777c.801.725.981.943.777.943-.046 0-.433-.387-.86-.86zm-45.095-1.886c0-.055.208-.263.463-.463.42-.329.429-.32.1.1-.346.44-.563.58-.563.363zm101.037-.628c-.33-.42-.32-.429.1-.1.44.346.58.563.363.563-.055 0-.263-.208-.463-.463zm-97.465-3.24c.864-.874 1.63-1.588 1.703-1.588.073 0-.575.714-1.439 1.587-.864.873-1.63 1.588-1.703 1.588-.073 0 .575-.715 1.439-1.588zm94.555.065c-.33-.42-.32-.429.1-.1.44.346.58.563.363.563-.055 0-.264-.208-.463-.463zm-101.434-.86c.263-.29.538-.529.61-.529.074 0-.082.238-.346.53-.263.29-.538.529-.611.529-.073 0 .083-.238.347-.53zm45.427-.66c.006-.438.065-.584.132-.327.067.258.063.615-.01.794-.072.18-.127-.031-.122-.468zm62.233.065l-.504-.595.595.504c.328.277.595.545.595.595 0 .212-.212.056-.686-.504zm-41.33-.33c.004-.437.064-.584.131-.326.067.257.063.614-.01.793-.072.18-.127-.031-.122-.468zm61.033.198c-.33-.42-.32-.43.1-.1.44.346.58.563.363.563-.055 0-.264-.208-.463-.463zm-146.017-.695c0-.055.209-.264.463-.463.42-.33.43-.32.1.1-.345.44-.563.58-.563.363zm4.168-.34c.182-.074.48-.074.661 0 .182.073.033.133-.33.133-.364 0-.513-.06-.331-.133zm2.712-1.512c0-.055.208-.264.463-.463.42-.33.429-.32.1.1-.346.44-.563.58-.563.363zm131.498-1.852c0-.055.208-.264.463-.463.42-.33.429-.32.1.1-.346.44-.563.58-.563.363zm-17.356-.76l-.504-.596.595.504c.328.277.596.545.596.596 0 .211-.213.055-.687-.504zm-96.018-.463c.263-.292.538-.53.61-.53.074 0-.082.238-.346.53-.263.29-.538.529-.611.529-.073 0 .083-.238.347-.53zm41.407-.877c0-.046.387-.433.86-.86l.86-.777-.777.86c-.725.801-.943.981-.943.777zm15.461-.777l-.777-.86.86.777c.802.724.982.943.777.943-.045 0-.432-.387-.86-.86zm37.157.397c-.329-.42-.32-.43.1-.1.44.345.581.563.363.563-.055 0-.263-.209-.463-.463zm15.095-7.409l-.641-.727.727.641c.68.6.85.814.642.814-.048 0-.375-.327-.728-.728zM43.85 85.712c0-.045.387-.432.86-.86l.86-.777-.777.86c-.725.802-.943.982-.943.777zm67.948-3.537c.191-.076.42-.067.508.02.087.089-.069.151-.348.14-.308-.013-.37-.076-.16-.16zm-10.467-.266c.255-.067.671-.067.926 0 .255.066.046.12-.463.12-.51 0-.718-.054-.463-.12zm6.614 0c.255-.067.672-.067.926 0 .255.066.047.12-.463.12-.509 0-.717-.054-.463-.12zm-51.263-1.405c.264-.291.539-.53.612-.53.072 0-.084.239-.347.53-.263.29-.538.529-.611.529-.073 0 .083-.238.346-.53zm37.654-3.356c.19-.077.42-.067.507.02.088.089-.068.151-.347.14-.308-.013-.371-.076-.16-.16zm16.669-.53c.19-.076.419-.066.507.022.088.087-.069.15-.347.139-.309-.013-.371-.076-.16-.16zm-7.557-.278a19.341 19.341 0 012.513 0c.691.055.126.1-1.257.1-1.382 0-1.948-.045-1.256-.1zm-47.162-.699c0-.055.208-.263.463-.463.42-.329.429-.32.1.1-.346.44-.563.581-.563.363zm83.558-2.726c.191-.077.42-.068.507.02.088.088-.068.15-.347.14-.308-.013-.37-.076-.16-.16zm.844-.184c0-.055.208-.264.463-.463.42-.33.429-.32.1.1-.346.44-.563.58-.563.363zm-69.123-.87c.182-.073.48-.073.662 0 .182.074.033.134-.331.134s-.513-.06-.33-.133zm-1.026-.552c-.329-.42-.32-.429.1-.1.255.2.463.409.463.463 0 .218-.217.078-.563-.363zm-2.413-2.358c.182-.073.48-.073.661 0 .182.074.033.134-.33.134-.364 0-.513-.06-.331-.134zm48.686-2.393c.33-.063.805-.06 1.058.005.253.067-.016.118-.598.116-.582-.003-.789-.058-.46-.12zm-24.742-.26c.255-.066.672-.066.926 0 .255.067.047.121-.463.121-.509 0-.717-.054-.463-.12zm2.514-.257c.182-.074.48-.074.661 0 .182.073.034.133-.33.133s-.513-.06-.331-.133zm19.347-.553c-.33-.42-.32-.429.1-.1.44.346.58.564.363.564-.055 0-.263-.209-.463-.464zm-26.739-2.892c.191-.077.42-.067.507.02.088.089-.068.151-.347.14-.308-.013-.37-.076-.16-.16z"/><path d="M97.825 235.01c0-1.67-1.919-4.175-3.261-4.26-1.617-.1-3.537.094-4.009.408-.292.194-.83.933-1.195 1.642-1.022 1.988-1.253 2-6.913.369-2.675-.77-5.337-1.51-5.917-1.642-1.225-.28-1.988-.883-1.988-1.571 0-.266.14-1.01.312-1.652.443-1.656-.03-2.267-2.577-3.327-2.373-.988-3.183-.853-3.9.652-.236.494-.733 1.098-1.104 1.34-.643.422-.733.413-1.928-.202-1.541-.792-7.367-4.199-9.258-5.413-1.62-1.04-1.731-1.537-.751-3.38.357-.672.576-1.436.498-1.735-.13-.5-2.298-2.525-3.775-3.529-1-.68-2.142-.558-3.192.34-1.6 1.368-2.304 1.07-5.695-2.419-4.14-4.26-5.672-6.04-5.672-6.594 0-.295.298-1.187.662-1.982.98-2.141.889-3.04-.457-4.545a49.407 49.407 0 01-1.194-1.365c-.042-.063-.841.156-1.776.486-2.701.954-2.473 1.167-6.58-6.134-2.958-5.256-3.045-5.746-1.207-6.823 1.694-.992 1.838-1.675.798-3.787-.497-1.01-1.067-1.792-1.38-1.891-.291-.093-1.124-.017-1.849.17-1.213.31-1.36.295-1.84-.184-.566-.567-3.433-10.62-3.433-12.043 0-1.194.44-1.808 1.676-2.337 1.951-.837 2.088-1.32 1.422-5.046-.402-2.251-.801-2.635-2.746-2.642-2.068-.007-1.94.468-1.94-7.17v-6.843l.781-.404c.43-.222 1.079-.404 1.443-.404.97 0 1.913-.503 2.225-1.189.151-.33.358-1.845.46-3.365l.185-2.764-.73-.574c-.402-.316-.873-.574-1.046-.574-.42 0-1.362-1.05-1.576-1.759-.179-.59.318-2.765 1.866-8.163 1.12-3.906 1.518-4.366 3.78-4.366 1.124 0 1.713-.139 2.194-.517.67-.527 1.862-3.345 1.862-4.404 0-.67-.565-1.528-1.078-1.634-.822-.17-1.634-.945-1.634-1.558 0-.793.238-1.256 3.22-6.27 2.677-4.501 2.958-4.874 4.008-5.322.63-.269.909-.238 1.788.197.698.345 1.28.456 1.767.336.838-.206 3.133-2.518 3.884-3.914l.513-.952-.876-1.725c-.64-1.262-.828-1.913-.7-2.425.176-.698 1.33-1.925 6.4-6.807 1.684-1.621 2.885-2.576 3.242-2.576.31 0 1.056.476 1.656 1.059 1.512 1.467 2.216 1.42 4.363-.288 1.912-1.521 2.096-2.134 1.162-3.877-.679-1.266-.667-1.705.066-2.366.474-.428 4.83-2.994 5.082-2.994.035 0 1.3-.715 2.811-1.588 3.29-1.9 4.256-2.046 4.951-.744.248.464.726 1.13 1.061 1.482.514.538.764.61 1.588.457 1.304-.243 2.918-1.17 3.115-1.79.087-.276.078-1.196-.02-2.046-.157-1.35-.11-1.615.366-2.091.3-.3.876-.623 1.28-.717.404-.094 2.634-.692 4.956-1.33 5.854-1.606 7.263-1.522 7.86.468.446 1.492 1.087 1.949 2.697 1.926 3.9-.056 4.933-.666 4.933-2.92 0-2.398-.605-2.22 7.542-2.22h7.221l.324 1.39c.413 1.776 1.165 3.016 2.131 3.516 1.15.594 2.882.74 4.074.34.893-.298 1.166-.583 1.813-1.89 1.077-2.179 1.368-2.253 4.835-1.238a203.11 203.11 0 004.868 1.36c4.542 1.178 4.77 1.269 5.051 2.01.186.488.174 1.094-.038 1.978-.48 2.002-.227 2.502 1.7 3.366 2.55 1.145 3.214 1.23 3.885.498.31-.338.824-1.031 1.142-1.54.929-1.484 1.655-1.386 5.063.681 1.6.97 3.86 2.3 5.025 2.954 2.46 1.384 3.307 2.09 3.307 2.757 0 .263-.368 1.182-.818 2.041-.988 1.884-.897 2.161 1.254 3.801 3.276 2.499 3.472 2.531 5.239.862.693-.654 1.396-1.186 1.563-1.18.696.02 1.65.872 5.7 5.083 4.904 5.1 4.927 5.154 3.07 6.96-.772.749-1.191 1.384-1.191 1.804 0 .969 2.1 3.946 3.005 4.26.63.218.973.141 2.051-.461 1.573-.879 2.354-.911 3.063-.128.297.328 1.819 2.946 3.383 5.818 3.121 5.73 3.231 6.19 1.684 7.033-1.489.81-2.338 1.657-2.338 2.33 0 .96 1.252 3.253 1.951 3.572.446.203.956.177 1.909-.098 1.576-.456 2.518-.262 2.935.605.172.358.945 3.107 1.718 6.11 1.39 5.406 1.4 5.468.954 6.403-.345.723-.687 1.007-1.464 1.217-1.827.492-2.182 1.059-2.182 3.48 0 3.378.735 4.21 3.72 4.21h1.58l-.07 7.342-.07 7.343-1.91.132c-1.27.088-2.054.277-2.34.563-.522.523-1.327 5.143-1.073 6.156.192.763 1.55 1.745 2.42 1.747.294 0 .8.186 1.124.412.824.578.76 1.599-.324 5.177a152.89 152.89 0 00-1.58 5.656c-.746 2.954-1.328 3.743-2.519 3.421-1.747-.472-2.68-.551-3.249-.275-.895.435-1.91 2.678-1.919 4.244-.007 1.21.063 1.356.918 1.911 1.38.895 2.117 1.644 2.116 2.152 0 .25-.61 1.466-1.354 2.703a300.269 300.269 0 00-3.2 5.507c-2.276 4.019-2.487 4.151-4.769 2.996-1.474-.746-1.744-.804-2.45-.526-.736.29-3.307 3.356-3.307 3.944 0 .137-.099.25-.22.25-.12 0-.166.386-.102.86.077.574.5 1.235 1.277 1.993.639.623 1.163 1.338 1.166 1.587.004.418-6.589 7.032-9.198 9.228l-1.123.945-1.87-1.511c-1.779-1.437-1.908-1.495-2.645-1.19-.964.399-2.562 2.138-2.786 3.033-.093.37-.088 1.057.01 1.528.553 2.648.513 3.001-.426 3.698-.487.36-1.72 1.076-2.743 1.589-1.022.512-2.98 1.613-4.353 2.445-4.047 2.454-4.495 2.479-5.726.317-.724-1.271-.862-1.378-1.882-1.452-.68-.05-1.433.096-1.974.385-.482.256-.952.445-1.045.42-.094-.024-.317.31-.497.743-.259.626-.258 1.03.003 1.965.419 1.496.188 2.411-.73 2.884-.99.511-6.943 2.047-7.235 1.867-.129-.08-.235-.039-.235.091s-1.124.519-2.499.864c-2.44.612-2.512.615-3.043.135-.299-.27-.544-.623-.545-.782 0-.16-.125-.736-.277-1.281-.39-1.408-1.403-1.884-3.522-1.659-3.179.339-3.872.805-3.872 2.6 0 .5-.075 1.282-.166 1.737l-.165.827H97.825zm14.685-14.827c5.388-.478 12.022-1.957 17.065-3.803 1.092-.4 2.104-.753 2.25-.785.145-.032 1.097-.448 2.116-.924 1.018-.476 1.97-.888 2.116-.915.146-.027.92-.424 1.72-.881.8-.458 1.634-.872 1.852-.92.219-.047.457-.159.53-.248.072-.09 1.501-1.007 3.174-2.04 2.9-1.788 7.277-5.04 9.86-7.323.658-.582 1.418-1.248 1.688-1.48 2.372-2.032 6.942-7.537 10.193-12.278 11.43-16.668 15.051-39.032 9.576-59.134a249.25 249.25 0 01-.746-2.779 9.194 9.194 0 00-.331-.926 76.57 76.57 0 01-.868-2.36c-.77-2.188-3.017-7.235-3.865-8.686-.362-.618-.589-1.124-.504-1.124.084 0-.085-.257-.377-.57-.292-.313-.468-.67-.391-.793.076-.124.031-.225-.1-.225-.255 0-.974-1.325-.897-1.654.025-.109-.052-.198-.17-.198-.12 0-1.008-1.169-1.974-2.597-7.484-11.063-19.582-20.732-32.353-25.857-8.891-3.567-17.42-5.236-26.84-5.25-19.427-.03-37.664 7.58-51.39 21.442-10.503 10.608-17.183 23.48-19.769 38.096-4.1 23.171 3.32 46.796 19.942 63.493 9.258 9.3 21.137 16.018 33.65 19.033 8.392 2.022 15.58 2.51 24.843 1.686zm-12.987-5.287c-8.457-.652-18.016-3.432-25.437-7.397-4.658-2.489-11.438-7.221-12.768-8.913-.294-.373-.535-.576-.535-.45 0 .127-1.246-1.012-2.769-2.53-1.523-1.518-2.72-2.81-2.66-2.869.06-.06-.218-.383-.616-.719-.885-.745-4.96-6.196-4.869-6.512.037-.125-.038-.227-.165-.227-.299 0-2.79-4.186-4.367-7.337-2.886-5.766-4.773-11.696-6.169-19.386-.36-1.986-.457-4.07-.46-9.922-.003-6.51.068-7.803.584-10.663 1.103-6.116 2.605-11.15 4.844-16.243 1.285-2.921 3.379-6.829 3.66-6.829.11 0 .2-.158.2-.351 0-.547 3.525-5.593 5.854-8.38 4.333-5.183 10.623-10.655 16.36-14.233 2.54-1.583 8.034-4.38 8.04-4.091.002.11.092.07.198-.09.107-.16 1.028-.623 2.047-1.03 17.768-7.08 37.153-6.278 54.085 2.235 4.586 2.306 10.707 6.347 13.32 8.795.692.648 1.3 1.137 1.35 1.086.214-.214 6.91 6.992 8.73 9.395 10.348 13.663 14.955 29.743 13.397 46.749-.254 2.77-1.453 9.494-1.79 10.04-.087.14-.188.525-.223.853-.113 1.062-1.494 5.114-1.743 5.114-.133 0-.17.115-.084.256.184.297-1.26 3.88-2.788 6.919a72.017 72.017 0 01-6.459 10.417c-2.182 2.906-8.416 9.66-8.916 9.66-.14 0-.554.357-.922.794-.367.436-.836.794-1.041.794-.205 0-.373.114-.373.254 0 .539-5.838 4.582-9.714 6.728-2.298 1.272-6.464 3.23-7.352 3.456-.146.037-.716.267-1.268.511-.553.245-1.118.374-1.257.288-.14-.086-.253-.044-.253.093s-.208.313-.463.392c-10.162 3.114-17.877 4.062-27.208 3.343zm-4.429-11.928c1.138-.166 2.308-.315 2.599-.33.29-.016.589-.092.661-.169.073-.076.847-.357 1.72-.624 2.12-.646 7.108-3.051 8.637-4.163 1.13-.823 4.195-3.59 4.195-3.787 0-.047.421-.785.936-1.639 1.095-1.819 1.844-4.091 2.08-6.316.367-3.439.774-12.438 1.096-24.188.111-4.085.258-5.868.525-6.384.273-.528 2.31-1.816 7.723-4.886 4.044-2.292 8.971-5.099 10.95-6.237 1.979-1.137 3.943-2.22 4.366-2.406.422-.186.827-.403.9-.482.306-.333 5.98-3.51 6.283-3.518.182-.005.331-.086.331-.18 0-.095.498-.453 1.107-.795.61-.342 1.439-.939 1.844-1.326.707-.675.733-.793.644-2.835-.14-3.164-.139-3.163-2.805-1.889-9.73 4.653-16.85 7.969-17.128 7.977-.182.005-.33.115-.33.245s-.12.163-.265.073c-.146-.09-.265-.046-.265.099 0 .144-.24.338-.535.432-.294.093-2.408 1.067-4.696 2.164-4.302 2.062-5.056 2.394-5.455 2.41a.602.602 0 00-.397.23c-.154.21-2.55 1.412-2.815 1.412-.069 0-.125-6.668-.125-14.817 0-11.678-.07-14.816-.33-14.814-.496.004-2.698 1.087-5.226 2.57-4.86 2.85-20.74 12.013-24.87 14.351-5.109 2.891-5.95 3.476-6.484 4.508-.665 1.287-.365 4.41.416 4.323.208-.023 3.297-1.353 6.863-2.955 3.567-1.602 6.662-2.953 6.88-3 .216-.049.453-.166.526-.261.073-.095 1.74-.884 3.704-1.753l3.572-1.58.072 9.955c.054 7.482-.009 10.107-.253 10.569-.207.392-1.622 1.272-3.908 2.432-1.971 1-3.646 1.795-3.723 1.767-.076-.028-.314.102-.529.288-.672.584-6.343 4.257-6.343 4.11 0-.078-.209.091-.463.376-.255.284-1.416 1.296-2.58 2.247-4.401 3.6-8.016 7.799-9.855 11.45-1.584 3.143-2.03 5.168-2.041 9.26-.006 2.198.129 4.242.331 5.027.188.727.34 1.41.339 1.517-.002.107.494 1.177 1.102 2.379 1.528 3.022 4.303 5.814 7.215 7.26 2.17 1.077 2.942 1.372 4.1 1.567.363.062 1.256.216 1.984.344 1.942.34 5.358.337 7.72-.008zm-6.995-13.265c-1.432-.545-2.624-1.683-3.38-3.23-.65-1.326-.707-1.68-.602-3.684.078-1.481.266-2.445.568-2.906.249-.38.388-.69.309-.69-.231 0 .91-2.115 2.068-3.836 1.59-2.36 6.064-6.692 8.646-8.37 2.207-1.435 4.71-2.648 6.152-2.981l.728-.169-.005 3.776c-.01 6.61-.943 11.532-3.034 15.987-1.313 2.797-2.71 4.442-4.69 5.52-1.179.643-1.754.775-3.648.837-1.335.044-2.6-.059-3.112-.254zm22.496-79.818c.84-.32 1.865-.868 2.279-1.216.414-.349.829-.578.922-.51.093.07.122.06.065-.022-.057-.08.25-.527.68-.992.432-.464.971-1.202 1.2-1.638.228-.437.546-.881.708-.988.162-.107.21-.197.107-.199-.102-.002-.003-.51.223-1.128.227-.624.414-2.009.42-3.11.02-3.522-1.648-6.534-4.78-8.632-6.594-4.414-15.842.422-15.995 8.364-.147 7.602 7.12 12.766 14.171 10.071z"/><path d="M25.615 185.124c.012-.308.075-.37.16-.16.076.191.067.42-.021.508-.088.087-.15-.069-.14-.348z"/></g></g></svg>