<svg xmlns="http://www.w3.org/2000/svg" xmlns:xlink="http://www.w3.org/1999/xlink" height="32" width="32">
  <defs>
    <linearGradient gradientUnits="userSpaceOnUse" y2="30" y1="0" x2="16" x1="16" id="c">
      <stop stop-opacity=".5" stop-color="#FFF" offset="0%"/>
      <stop stop-opacity=".5" offset="100%"/>
    </linearGradient>
    <linearGradient id="k" gradientUnits="userSpaceOnUse" x1="78.903" y1="719.687" x2="87.063" y2="697.267" gradientTransform="translate(-15.82 -616.04)">
      <stop offset="0" stop-color="#f6e93d"/>
      <stop offset=".13" stop-color="#f8e330"/>
      <stop offset=".35" stop-color="#f7c730"/>
      <stop offset=".64" stop-color="#f59c2e"/>
      <stop offset=".98" stop-color="#eb5e2c"/>
      <stop offset="1" stop-color="#eb5c2c"/>
    </linearGradient>
    <linearGradient id="j" gradientUnits="userSpaceOnUse" x1="150.08" y1="700.41" x2="150.08" y2="726.1" gradientTransform="translate(-15.82 -616.04)">
      <stop offset="0" stop-color="#f6e93d"/>
      <stop offset=".13" stop-color="#f8e330"/>
      <stop offset=".35" stop-color="#f7c730"/>
      <stop offset=".64" stop-color="#f59c2e"/>
      <stop offset=".98" stop-color="#eb5e2c"/>
      <stop offset="1" stop-color="#eb5c2c"/>
    </linearGradient>
    <linearGradient id="i" gradientUnits="userSpaceOnUse" x1="128.46" y1="616.04" x2="128.46" y2="726.07" gradientTransform="translate(-15.82 -616.04)">
      <stop offset="0" stop-color="#f6e93d"/>
      <stop offset=".13" stop-color="#f8e330"/>
      <stop offset=".35" stop-color="#f7c730"/>
      <stop offset=".64" stop-color="#f59c2e"/>
      <stop offset=".98" stop-color="#eb5e2c"/>
      <stop offset="1" stop-color="#eb5c2c"/>
    </linearGradient>
    <linearGradient id="h" gradientUnits="userSpaceOnUse" x1="187.26" y1="657.82" x2="187.26" y2="764.75" gradientTransform="translate(-15.82 -616.04)">
      <stop offset="0" stop-color="#f6e93d"/>
      <stop offset=".13" stop-color="#f8e330"/>
      <stop offset=".35" stop-color="#f7c730"/>
      <stop offset=".64" stop-color="#f59c2e"/>
      <stop offset=".98" stop-color="#eb5e2c"/>
      <stop offset="1" stop-color="#eb5c2c"/>
    </linearGradient>
    <linearGradient id="g" gradientUnits="userSpaceOnUse" x1="66.615" y1="633.97" x2="66.615" y2="704.35" gradientTransform="translate(-15.82 -616.04)">
      <stop offset="0" stop-color="#f6e93d"/>
      <stop offset=".13" stop-color="#f8e330"/>
      <stop offset=".35" stop-color="#f7c730"/>
      <stop offset=".64" stop-color="#f59c2e"/>
      <stop offset=".98" stop-color="#eb5e2c"/>
      <stop offset="1" stop-color="#eb5c2c"/>
    </linearGradient>
    <linearGradient id="f" gradientUnits="userSpaceOnUse" x1="139.615" y1="733.63" x2="139.615" y2="824.07" gradientTransform="translate(-15.82 -616.04)">
      <stop offset="0" stop-color="#f6e93d"/>
      <stop offset=".13" stop-color="#f8e330"/>
      <stop offset=".35" stop-color="#f7c730"/>
      <stop offset=".64" stop-color="#f59c2e"/>
      <stop offset=".98" stop-color="#eb5e2c"/>
      <stop offset="1" stop-color="#eb5c2c"/>
    </linearGradient>
    <linearGradient id="e" gradientUnits="userSpaceOnUse" x1="94.485" y1="757.28" x2="94.485" y2="838.23" gradientTransform="translate(-15.82 -616.04)">
      <stop offset="0" stop-color="#f6e93d"/>
      <stop offset=".13" stop-color="#f8e330"/>
      <stop offset=".35" stop-color="#f7c730"/>
      <stop offset=".64" stop-color="#f59c2e"/>
      <stop offset=".98" stop-color="#eb5e2c"/>
      <stop offset="1" stop-color="#eb5c2c"/>
    </linearGradient>
    <linearGradient id="d" gradientUnits="userSpaceOnUse" x1="56.195" y1="700.57" x2="56.195" y2="798" gradientTransform="translate(-15.82 -616.04)">
      <stop offset="0" stop-color="#f6e93d"/>
      <stop offset=".13" stop-color="#f8e330"/>
      <stop offset=".35" stop-color="#f7c730"/>
      <stop offset=".64" stop-color="#f59c2e"/>
      <stop offset=".98" stop-color="#eb5e2c"/>
      <stop offset="1" stop-color="#eb5c2c"/>
    </linearGradient>
    <filter filterUnits="objectBoundingBox" y="-4.2%" x="-5.8%" height="111.7%" width="111.7%" id="a">
      <feOffset result="shadowOffsetOuter1" in="SourceAlpha" dy=".5"/>
      <feGaussianBlur stdDeviation=".5" result="shadowBlurOuter1" in="shadowOffsetOuter1"/>
      <feComposite result="shadowBlurOuter1" operator="out" in2="SourceAlpha" in="shadowBlurOuter1"/>
      <feColorMatrix values="0 0 0 0 0 0 0 0 0 0 0 0 0 0 0 0 0 0 0.199473505 0" in="shadowBlurOuter1"/>
    </filter>
    <circle r="15" cy="15" cx="16" id="b"/>
  </defs>
  <use filter="url(#a)" xlink:href="#b" width="100%" height="100%" fill-rule="evenodd"/>
  <use fill="#240242" xlink:href="#b" width="100%" height="100%" fill-rule="evenodd"/>
  <use fill="url(#c)" style="mix-blend-mode:soft-light" xlink:href="#b" width="100%" height="100%" fill-rule="evenodd"/>
  <circle r="14.5" cx="16" cy="15" stroke="#000" stroke-opacity=".097" fill="none"/>
  <path class="st0" transform="translate(6.209 4.007) scale(.09895)" fill="url(#d)" d="M61 100.6l1.6.6 1.7.6 1.6.7 1.7.5 1.6.6 1.7.6 1.6.7 1.7.6 1.6.5 1.6.6 1.7.7 1.7.6V84.5H43.9l-1.6.8-3.8 2-3.9 2.1-3.9 1.9-3.7 2-3.9 2.1-3.9 1.9-3.8 2.1-3.9 2-3.8 1.9-3.8 2.1-3.5 1.8-.4 57.3 3.9 2.7 3.8 2.7 3.8 2.6 3.9 2.8 3.8 2.7 3.9 2.7 1.7 1.3 2.2-2.8 3.7-5 .4-.5-.4-.3-3.7-2.7-3.9-2.7-3.9-2.7-3.8-2.7-3.9-2.8-1-.6.3-46.4.7-.4 3.9-1.9 3.8-1.9 3.9-1.9 3.9-1.9 3.7-2 3.9-1.9 3.9-1.8 3.8-2 3.8-1.9h.1l1.7.6 1.6.6 1.7.5 1.6.7 1.7.6 1.6.6 1.7.6 1.6.6z"/>
  <path class="st1" transform="translate(6.209 4.007) scale(.09895)" fill="url(#e)" d="M80.5 202.6l-3.6-1.7-3.6-1.9-3.6-1.8-3.6-1.8-3.6-1.8-3.6-1.9-3.4-1.7-3.6-1.8-.4-.2v-46.8H41.1v53.2l3.6 1.7 3.6 1.8 3.6 1.9 3.6 1.7 3.4 1.9 3.6 1.8 3.6 1.8 3.6 1.8 3.6 1.8 3.6 1.8 3.6 1.8 3.6 1.9 3.5 1.7 3.6 1.9 3.6 1.7 1.4.8 2.1-1 3.6-1.3 3.6-1.5 3.6-1.5 3.5-1.4 3.6-1.4-3.6-9-.3-.6-3.2 1.3-3.6 1.5-3.6 1.4-3.6 1.5-1.6.6-1.9-.9-3.6-1.9-3.6-1.7-3.5-1.9z"/>
  <path class="st2" transform="translate(6.209 4.007) scale(.09895)" fill="url(#f)" d="M129.3 195.2l-2.5-1.9-6-4.7-6.1-4.6-6.1-4.7-6-4.6-1.1-.8v-23.7l1.1-1 6-6.4 6.1-6.3 6.1-6.4 6-6.3 5.9-6.2H60l6.1 6.4 6 6.3 6.1 6.3 6.1 6.4 6 6.3.9.9v28.7l5.2 4.1 6.2 4.7 6 4.6 6.1 4.7 6.1 4.6 6 4.7 2.2 1.7 3.9-2.8 6.1-4.2 6-4.4 6.1-4.4 6.1-4.2 6.1-4.4 6.1-4.4 6.1-4.2 6.1-4.4 5-3.7 1-27-6-.2-5.4-.2.2 22-.9.8-6.1 4.2-6.1 4.4-6.1 4.4-6.1 4.3-6.1 4.3-6 4.4-6.1 4.3z"/>
  <path class="st3" transform="translate(6.209 4.007) scale(.09895)" fill="url(#g)" d="M48.4 35.9l4.8-3 4.9-3h.1l4.6 2.7 4.9 2.7 4.8 2.8 4.8 2.7 4.8 2.7 4.8 2.7 4.8 2.8 4.7 2.7.2-.4 4.8-8.7-4.8-2.8-4.9-2.7-4.8-2.7-4.8-2.7-4.8-2.8-4.8-2.7-4.8-2.7-4.9-2.8-4.7-2.7-.2-.1-4.7 2.8-4.8 3-4.9 3-4.7 3-4.9 2.9-4.8 2.9-4.8 3-4.8 2.9-4.9 3-4.7 2.9L5 50.2.4 53.1.2 88.2H5l4.9.1h.7l.1-29.4 3.9-2.5 4.9-2.9 4.8-2.9 4.8-3 4.8-2.9 4.9-3 4.7-2.9z"/>
  <path class="st4" transform="translate(6.209 4.007) scale(.09895)" fill="url(#h)" d="M173.3 41.8l-.7.8-2.5 3.1-2.5 3.2-.7.8.7.7 2.5 2.1 2.5 2.1 2.6 2.1 2.6 2.1 2.5 2.2 2.5 2.1 2.6 2.1 1.2 1 .1 47.3-1.3.9-2.6 1.6-2.5 1.6-2.5 1.6-2.6 1.6-2.6 1.6-2.5 1.6-2.5 1.6-2.5 1.6-2.5 1.6-2.5 1.6-2.6 1.6-2.5 1.6-2.5 1.6-2.5 1.6-2.6 1.6-2.5 1.6 2.5 4 2.6 4 .4.7 2.1-1.3 2.5-1.5 2.5-1.6 2.6-1.5 2.5-1.7 2.5-1.5 2.5-1.6 2.5-1.5 2.5-1.6 2.6-1.5 2.6-1.7 2.5-1.5 2.5-1.6 2.6-1.5 2.5-1.6 2.5-1.5 2.5-1.7 2.5-1.5 2.5-1.6V61.4l-2.5-2-2.5-2-2.5-2.1-2.5-2-2.5-2-2.6-2-2.5-2-2.5-2-2.6-2.1z"/>
  <path class="st5" transform="translate(6.209 4.007) scale(.09895)" fill="url(#i)" d="M115.4 89.6V110l.8-.3 3.4-1.3 3.4-1.4 3.3-1.3 3.4-1.4 3.4-1.4 3.3-1.3 3.4-1.4 3.4-1.3 3.3-1.4 3.4-1.3 3.3-1.4V32.9l-3.8-2.4-3.9-2.2-3.9-2.2-3.8-2.4-3.9-2.2-3.9-2.2-3.8-2.3-3.9-2.3-3.8-2.3-3.9-2.2-3.9-2.3-3.8-2.3-3.8-2.2-3.9-2.2L97.1 0l-1.8 1-3.9 2.1-3.9 2-3.7 2.2-3.9 2.1-3.9 2-3.9 2.2 3.9 2.2 3.9 2.2 2.4 1.5 1.5-.8 3.7-2 3.9-2.1 3.9-2 1.5-.8 2.4 1.4 3.9 2.2 3.8 2.2 3.8 2.3 3.9 2.3 3.9 2.2 3.8 2.3 3.9 2.3 3.8 2.2 3.9 2.2 3.9 2.4 3.8 2.2 1.3.7v45.6h-27.3"/>
  <path class="st6" transform="translate(6.209 4.007) scale(.09895)" fill="url(#j)" d="M115.4 110l37.8-15.2-37.8-10.5"/>
  <path class="st7" transform="translate(6.209 4.007) scale(.09895)" fill="url(#k)" d="M80.8 110V84.7L46.2 95l34.6 14.9"/>
</svg>