<svg width="798.867" height="798.988" viewBox="0 0 211.367 211.399" xmlns:xlink="http://www.w3.org/1999/xlink" xmlns="http://www.w3.org/2000/svg"><defs><linearGradient id="a"><stop offset="0" stop-color="#7fb6fc"/><stop offset="1" stop-color="#3249c9"/></linearGradient><linearGradient xlink:href="#a" id="b" x1="177.864" y1="190.001" x2="251.765" y2="271.984" gradientUnits="userSpaceOnUse"/></defs><path d="M93.513 211.243c-3.652-.42-12.147-1.95-13.23-2.382-.363-.145-1.554-.492-2.645-.772a85.08 85.08 0 01-8.07-2.545 288.234 288.234 0 00-3.175-1.173c-3.06-1.102-8.168-3.553-12.79-6.138-8.548-4.78-15.546-10.125-22.945-17.524-10.03-10.03-16.483-19.519-22.862-33.618a22.125 22.125 0 01-.807-2.117c-.18-.582-.412-1.177-.514-1.323-.43-.613-2.948-8.493-3.44-10.762-.147-.68-.388-1.514-.534-1.852-.266-.615-.843-3.534-1.925-9.743-.536-3.078-.576-4.16-.576-15.61s.04-12.533.576-15.61c1.082-6.21 1.659-9.129 1.925-9.744.146-.338.387-1.172.534-1.852.492-2.27 3.01-10.149 3.44-10.762.102-.146.333-.741.514-1.323.18-.582.543-1.535.807-2.117 6.38-14.1 12.833-23.589 22.862-33.618 7.399-7.4 14.397-12.744 22.945-17.524 4.622-2.585 9.73-5.036 12.79-6.138.727-.262 2.156-.79 3.175-1.173 2.512-.947 5.604-1.914 8.467-2.65 1.31-.337 2.572-.692 2.805-.79.476-.2 4.253-.939 9.233-1.807C93.151.04 94.234 0 105.683 0c11.45 0 12.533.04 15.61.576 4.981.868 8.758 1.607 9.233 1.807.234.098 1.497.453 2.806.79 2.863.736 5.955 1.703 8.467 2.65 1.019.383 2.448.911 3.175 1.173 3.06 1.102 8.168 3.553 12.79 6.138 8.548 4.78 15.546 10.125 22.945 17.524 10.03 10.03 16.483 19.519 22.862 33.618.264.582.627 1.535.807 2.117.18.582.412 1.177.514 1.323.395.564 2.786 7.993 3.45 10.715.159.655.4 1.489.536 1.852.255.683.91 4.031 1.913 9.79.536 3.078.576 4.16.576 15.61s-.04 12.533-.576 15.61c-1.004 5.76-1.658 9.108-1.913 9.79-.136.364-.377 1.198-.537 1.853-.663 2.722-3.054 10.15-3.45 10.715-.101.146-.332.741-.513 1.323-.18.582-.543 1.535-.807 2.117-6.38 14.099-12.833 23.589-22.862 33.618-7.399 7.4-14.397 12.744-22.945 17.524-4.622 2.585-9.73 5.036-12.79 6.138-.727.262-2.156.79-3.175 1.173a85.08 85.08 0 01-8.07 2.545c-1.091.28-2.282.627-2.646.772-.651.26-3.552.837-9.525 1.893-2.681.475-4.409.55-14.552.628-6.33.05-12.402-.013-13.493-.139zm45.01-59.985c28.09-28.112 41.8-42.012 42.555-43.146 3.21-4.814 4.092-9.215 2.952-14.736-.645-3.127-1.816-5.883-3.737-8.8-1.722-2.613-5.442-6.677-6.112-6.675-.234 0-19.115 18.678-41.958 41.505-30.714 30.693-41.847 41.979-42.74 43.326-2.146 3.24-3.138 6.294-3.512 10.817-.412 4.97 1.415 9.774 5.52 14.526 1.548 1.791 4.79 4.656 5.27 4.657.178 0 18.971-18.663 41.763-41.474zm-29.235-29.766c22.863-22.883 41.95-42.173 42.414-42.868 2.245-3.352 3.223-6.548 3.217-10.511-.007-4.517-1.337-8.655-4.125-12.846-1.646-2.474-4.913-6.09-5.738-6.352-.467-.149-6.925 6.194-41.945 41.195-26.34 26.324-41.864 42.031-42.687 43.188-1.53 2.15-2.69 5.013-3.27 8.067-1.119 5.905.04 10.661 3.827 15.7 1.565 2.082 5.699 6.033 6.313 6.033.234 0 19.132-18.723 41.994-41.606zM79.293 92.388c22.974-22.936 41.696-41.836 42.394-42.796 1.68-2.31 2.452-3.895 3.064-6.286 1.126-4.402.415-9.226-2.116-14.367-1.5-3.048-5.301-7.932-6.793-8.73-.65-.35-1.302.286-41.678 40.642-22.559 22.548-41.527 41.65-42.15 42.451-2.646 3.394-3.84 6.838-4.037 11.642-.21 5.122.806 8.281 4.045 12.588 1.4 1.862 5.444 5.933 5.893 5.933.129 0 18.75-18.485 41.378-41.077z" fill="#fff"/><path d="M161.898 356.72c-6.086-5.237-9.174-11.52-8.668-17.634.374-4.522 1.367-7.578 3.513-10.817.892-1.347 12.025-12.633 42.74-43.326 22.842-22.827 41.724-41.504 41.958-41.505.67-.002 4.39 4.063 6.111 6.676 1.921 2.916 3.092 5.672 3.737 8.799 1.14 5.521.259 9.922-2.951 14.736-.756 1.134-14.466 15.034-42.555 43.147-22.791 22.81-41.585 41.473-41.763 41.473-.178 0-1.133-.697-2.122-1.548zm-30.048-30.215c-3.895-3.644-6.35-7.413-7.333-11.26-1.303-5.094.03-12.002 3.167-16.41.822-1.157 16.347-16.864 42.686-43.188 35.02-35.001 41.479-41.344 41.946-41.195.824.261 4.091 3.878 5.737 6.352 2.789 4.191 4.117 8.33 4.125 12.846.007 3.963-.971 7.16-3.216 10.512-1.118 1.67-83.859 84.473-84.409 84.473-.234 0-1.45-.959-2.703-2.13zm-29.035-29.533c-3.812-3.641-6.433-7.737-7.294-11.4-.56-2.377-.367-7.669.367-10.118.68-2.269 1.985-4.819 3.385-6.615.624-.8 19.592-19.903 42.15-42.451 40.376-40.355 41.028-40.991 41.678-40.643 1.492.799 5.293 5.683 6.794 8.731 2.53 5.14 3.241 9.965 2.115 14.368-.611 2.39-1.384 3.975-3.063 6.285-1.233 1.695-83.313 83.873-83.773 83.873-.13 0-1.19-.914-2.36-2.03z" fill="url(#b)" transform="translate(-67.26 -165.537)"/></svg>