<svg version="1.0" xmlns="http://www.w3.org/2000/svg" width="250" height="250" viewBox="0 0 2500 2500"><path d="M1075 2463c-68-10-243-57-285-75-100-44-209-100-228-119-12-10-24-19-28-19-15 0-138-106-195-168-170-185-278-409-314-651-17-110-19-246-6-318 6-27 12-71 15-96 9-73 61-223 111-321 172-337 481-569 870-652 97-20 350-24 444-5 400 78 721 314 896 657 94 184 134 362 130 579-6 329-139 625-386 859-157 148-333 245-549 301-91 24-128 28-275 30-93 2-183 1-200-2z" fill="#152753"/><g fill="#131d7e"><path d="M1115 2170c-7-12 2-30 16-30 12 0 12 27 0 35-5 3-12 1-16-5zM834 2126c-8-22 3-33 18-18 9 9 9 15 0 24s-13 7-18-6zM32 1056c1-10 8-17 13-17 15 1 12 24-3 29-9 3-13-2-10-12zM630 445c0-8 7-15 15-15s15 7 15 15-7 15-15 15-15-7-15-15z"/></g><g fill="#2a3552"><path d="M976 2433c-11-11-6-23 9-23 8 0 15 4 15 9 0 13-16 22-24 14zM2015 2173c-199-44-333-95-472-179-64-39-98-54-110-49-30 12-243 14-243 3 0-6-12-8-30-5-16 4-32 2-35-3-4-6-11-8-16-4-5 3-15 1-22-4-7-6-15-10-20-10-25-1-67-15-67-23 0-6-4-7-10-4-5 3-10 1-10-5s-4-8-10-5c-5 3-10 1-10-5s-4-8-10-5c-5 3-10 1-10-5s-4-9-8-6c-5 3-19-4-30-15-12-11-22-16-22-12-1 4-9-2-19-14s-21-20-24-17-17-11-32-30-32-34-38-33c-7 1-11-3-10-10 1-6-14-23-33-38s-33-29-31-32c3-2-5-15-18-29-15-16-33-24-54-24-46 0-161-18-271-42-173-37-290-109-290-176 0-92 147-198 422-307 66-27 94-43 91-52-3-7-1-13 3-13 5 0 10-12 11-26 0-15 5-29 10-33 4-3 10-15 11-26 6-30 31-75 43-75 6 0 8-4 5-9-7-11 51-91 66-91 6 0 8-3 4-7-10-10 55-73 76-73 18 0 25 25 32 103 2 21 6 40 9 43s3 12 0 20 0 14 7 14 10 7 6 15c-3 8-2 15 2 15 5 0 13 12 19 28 9 22 11 2 12-103 2-215 48-410 141-595 42-84 108-189 119-191 46-6 101-8 101-3 0 3-16 26-36 50s-33 44-28 44c4 0-3 11-15 24-19 20-20 24-7 29 9 4 16 14 16 24 0 14 2 15 9 5 4-8 18-12 30-10l22 3-25 34c-15 19-26 30-26 25 0-6 5-15 11-21 9-9 7-12-10-10-11 1-21 7-21 14 0 8-7 16-16 20-8 3-13 12-10 20 3 7-1 16-9 19-8 4-15 13-15 21s-4 12-9 9-11 5-13 19c-3 14-1 25 3 25 5 0 9 12 9 28 0 15 13 43 28 62l27 35 115 2c101 1 165 6 165 12 0 1 13 4 28 6 40 5 117 36 117 47 0 5 5 6 10 3s10-1 10 5 4 9 9 6c21-14 251 182 243 207-1 4 2 7 8 7 11 0 87 128 92 155 2 11 7 23 11 26s9 18 11 32c1 15 5 30 9 33 3 3 3 12 0 20s0 14 6 14 11 15 11 33c6 214 2 251-24 215-7-10-16-15-19-12s-10-4-17-15c-6-12-17-21-26-21-8 0-17-7-20-15-4-8-12-15-19-15s-20-11-29-25-22-25-29-25c-15 0-87-71-87-86 0-5-9-15-20-22-12-7-18-17-15-21 2-5-2-12-11-15-8-3-12-10-9-16 3-5 2-10-2-10-5 0-17-18-27-40s-24-40-32-40-14-4-14-10c0-5-7-7-15-4-8 4-15 1-15-6 0-6-5-8-11-4-6 3-15 1-19-6s-19-12-34-12c-14 0-26-4-26-9s-7-6-15-3c-8 4-15 1-15-5s-7-8-15-5c-8 4-15 1-15-7 0-7-3-10-6-7s26 64 65 135c83 151 131 262 166 380 13 47 26 87 27 88 2 1 36 5 76 9 51 4 72 3 72-5 0-7 11-9 30-6 16 4 32 2 35-3 4-6 11-8 16-4 5 3 16 0 24-6 8-7 22-10 30-6 17 6 21 36 4 36-5 0-7 4-4 10 3 5-2 24-12 42-9 18-17 35-18 38-2 14-59 90-68 90-6 0-7 3-3 7 8 8-124 144-135 138-4-3-9 2-12 10-5 11 6 14 55 14 33 0 65 4 71 10s21 11 33 11 24 5 26 11c5 15 103 22 128 9 14-7 26-8 38-1 14 8 14 11 2 11-37 3 30 19 81 19 30 1 61 7 69 14 8 6-2-6-21-28-75-86-169-253-169-298 0-16-5-18-26-13-14 4-35 4-47 0-22-7-22-7-2-15 11-4 31-8 45-8 24-1 25-3 22-64-4-74 19-146 69-210 37-48 133-132 182-161l34-20 79 34c43 19 85 39 93 44 11 9 13 34 8 121-12 238-90 464-224 654-53 75-201 232-217 230-6-1-20-3-31-6zM640 1580c0-5-9-24-19-42-11-17-18-35-15-40 3-4 0-8-6-8-7 0-10-6-7-14s1-16-4-18-11-15-13-29c-1-13-6-30-10-37-10-16-15-275-5-287 4-6 5-16 0-23-14-24-285 96-389 172-149 110-133 196 51 264 107 40 417 86 417 62z"/><path d="M293 1285c-3-9-3-18 0-22 10-10 37 6 37 22 0 20-29 20-37 0zM460 1905c0-10 7-15 18-13 21 4 19 22-2 26-10 2-16-3-16-13zM306 915c7-17 20-20 28-6 3 5-1 12-10 15-22 9-24 8-18-9z"/></g><g fill="#103373"><path d="M1516 2283c-11-11-6-23 9-23 8 0 15 4 15 9 0 13-16 22-24 14zM2015 2173c-199-44-333-95-472-179-75-45-98-55-121-50-63 14-198 10-307-9-52-10-129-42-230-99-34-18-141-120-203-193-26-30-32-33-132-43-295-31-490-114-490-208 0-67 87-150 235-224 87-44 255-112 261-105 2 2-29 16-68 32-252 98-418 211-418 287 0 53 50 98 153 137 81 30 427 90 427 74 0-3-7-17-15-31-13-24-37-79-39-92-1-3-4-10-8-16s-9-21-12-35c-2-13-7-36-11-52-9-36-10-232 0-277 11-54 13-65 15-65 1 0 3-11 6-24 2-14 9-30 15-38 6-7 9-13 5-13-7 0 32-81 43-90 3-3 13-18 21-34 20-39 119-146 135-146 8 0 15 21 20 56 9 78 15 107 22 124 3 8 7 17 8 20s9 21 17 40c16 34 16 32 17-100 2-219 47-414 141-600 42-84 108-189 119-191 46-6 101-8 101-3 0 3-16 26-36 50s-33 44-28 44c4 0-3 11-15 24-19 20-20 24-7 29 9 4 16 14 16 24 0 14 2 15 9 5 4-8 18-12 30-10l22 3-25 34c-15 19-26 30-26 25 0-6 5-15 11-21 9-9 7-12-10-10-11 1-21 7-21 14 0 8-7 16-16 20-8 3-13 12-10 20 3 7-1 16-9 19-8 4-15 13-15 21s-4 12-9 9-11 5-13 19c-3 14-1 25 3 25 5 0 9 12 9 28 0 15 13 43 28 62l27 35 100 1c55 0 116 3 135 7 19 3 50 9 68 12 19 4 55 16 80 27 26 12 50 21 55 20 4-1 7 3 7 10 0 6 3 9 6 5 3-3 29 9 57 26 43 26 105 84 201 187 20 21 99 170 91 170-4 0-3 6 3 13s13 26 16 42c3 17 10 54 16 84 11 60 14 221 3 221-3 0-40-26-82-57-105-78-199-176-244-255-34-59-50-75-79-83-5-2-10-4-13-5s-8-3-12-5c-5-1-16-5-25-9s-25-9-35-11-19-4-20-5c-2-2-7-4-13-5-5-1-12-4-15-5s-8-3-12-4c-5-1-14-5-20-9-7-5-13-6-13-2 0 3 31 63 70 133 82 150 131 261 165 379 13 47 27 88 30 91 13 14 175 5 247-13 35-9 53 2 37 21-6 8-9 14-5 14s-2 17-13 38l-20 39 47-9 47-10-3-62c-4-73 20-145 69-209 37-48 133-132 182-161l34-20 79 34c43 19 85 39 93 44 11 9 13 34 8 121-12 238-90 464-224 654-53 75-201 232-217 230-6-1-20-3-31-6zm183-291c-70-78-168-249-168-294 0-15-8-18-45-16-52 2-54 3-85 48-13 19-29 38-35 42-5 4-6 8-1 8s-22 31-60 69c-37 38-71 68-75 65-4-2-9 3-12 11-5 11 6 14 55 14 33 0 65 4 71 10s21 11 33 11 24 5 26 11c5 15 103 22 128 9 14-7 26-8 38-1 14 8 14 11 2 11-38 3 30 19 82 19 31 1 60 6 63 11 3 6 9 10 12 10s-10-17-29-38z"/><path d="M907 314c-8-8 1-24 14-24 5 0 9 7 9 15 0 15-12 20-23 9zM1643 239c-26-23-65-62-85-88l-38-46 38-18 37-18 86 31c132 48 132 47 76 110-26 29-47 56-47 61 0 18-20 8-67-32z"/></g><path d="M830 2120c0-5 7-10 15-10s15 5 15 10c0 6-7 10-15 10s-15-4-15-10z" fill="#0c12ac"/><g fill="#324a6c"><path d="M1203 1948c-15-3-46-9-68-11-66-9-132-35-250-101-33-18-139-119-203-193-25-29-35-32-113-42-110-13-221-32-216-37 2-3 51 2 108 10 147 21 189 25 189 19 0-3-7-17-15-31-13-24-37-79-39-92-1-3-4-10-8-16s-9-21-12-35c-2-13-7-36-11-52-9-36-10-232 0-277 11-54 13-65 15-65 1 0 3-11 6-24 2-14 9-30 15-38 6-7 9-13 5-13-7 0 32-81 43-90 3-3 13-18 21-34 20-39 119-146 135-146 8 0 15 21 20 56 9 78 15 107 22 124 3 8 7 17 8 20 20 58 61 136 101 193 19 26 34 49 34 50 0 8 143 146 156 151 8 3 14 10 14 16 0 5 4 10 9 10 12 0 115 63 119 73 2 4 8 5 13 1 5-3 9 0 9 7s3 9 6 6c4-4 19 0 33 7 24 13 54 26 74 31 4 2 9 4 12 5s10 4 15 5c6 1 11 3 13 5 4 3 58 14 127 26 85 13 267 8 342-11 35-9 53 2 37 21-6 8-9 14-5 14s-2 17-13 38l-20 39 47-8c40-7 260-35 437-56 34-4 47-2 40 5-10 10-389 61-472 64-50 1-52 3-83 48-40 58-43 61-100 119-62 63-117 108-127 103-3-2-9 0-12 5-9 12-111 65-111 57 0-3-6-1-13 5-8 6-22 12-33 14-10 1-23 5-29 9-27 17-221 29-272 16zM467 1914c-8-8 1-24 14-24 5 0 9 7 9 15 0 15-12 20-23 9z"/><path d="M1935 1274c-116-87-184-155-234-232-52-80-91-126-99-117-3 3-11 0-19-6-7-6-13-8-13-4s-6 2-13-4c-8-6-24-13-38-15-13-3-25-5-26-7-2-1-7-3-13-4-5-1-12-4-15-5s-9-4-15-5c-5-1-12-4-15-5s-9-4-15-5c-5-1-12-4-15-5s-8-3-12-4c-5-1-14-5-20-9-7-5-13-6-13-3 0 5-81-22-135-45-16-7-32-13-35-14-31-8-80-31-80-38 0-4-4-5-10-2-5 3-10 1-10-5s-4-9-8-6c-5 3-18-4-30-14-12-11-25-20-31-20-5 0-21-14-36-31-30-37-30-86 1-103 10-6 22-15 25-19 3-5 15-10 25-12s20-4 22-5c1-2 5-3 10-4 4-1 12-5 19-9 29-19 237-28 313-14 19 3 50 9 68 12 19 4 55 16 80 27 26 12 50 21 55 20 4-1 7 3 7 10 0 6 3 9 6 5 3-3 29 9 57 26 43 26 105 84 201 187 20 21 99 170 91 170-4 0-3 6 3 13s13 26 16 42c3 17 10 54 16 84 12 62 14 221 3 221-5 0-35-21-68-46z"/></g><g fill="#ef7730"><path d="M1165 1943c-62-8-142-36-220-76-101-52-254-200-302-292-120-233-114-506 15-723 51-85 137-181 149-167 6 6 15 45 21 88 41 273 268 531 569 646 155 59 341 76 489 45 42-8 79-13 82-9 10 10-40 119-84 181-100 141-270 259-435 298-60 15-206 19-284 9zM1963 1563c9-2 25-2 35 0 9 3 1 5-18 5s-27-2-17-5zM1920 1263c-105-79-198-177-246-259l-40-69-235-80c-129-44-267-98-307-119-73-39-132-94-132-122 0-27 54-69 111-86 179-56 370-38 549 50 58 28 97 59 171 132 84 83 102 108 142 190 26 55 52 128 61 172 16 79 22 248 9 248-5 0-42-26-83-57z"/></g><g fill="#f8d75d"><path d="M1125 1934c-235-50-453-246-530-479-84-250-26-527 152-724 53-59 73-61 73-8 1 94 65 261 144 371 199 279 595 438 922 370 42-8 79-13 82-9 10 10-40 119-84 181-102 145-275 262-441 298-88 20-224 19-318 0zM1974 1071c-25-24-160-76-514-196-303-103-421-156-470-211-37-43-38-59-1-93 46-43 129-64 272-69 149-5 233 14 363 80 117 60 247 192 305 308 36 74 76 189 68 197-2 1-12-6-23-16z"/></g></svg>