<svg xmlns="http://www.w3.org/2000/svg" width="199.398" height="199.06" viewBox="0 0 52.757 52.668">
  <g transform="translate(-5.294 -223.464)">
    <ellipse cx="25.634" cy="250.922" rx="16.437" ry="17.64" fill="#fff"/>
    <path d="M32.218 276.108c-2.037.044-3.942.024-4.233-.044-.291-.068-1.363-.312-2.381-.542-1.019-.23-2.848-.827-4.066-1.328-1.217-.5-2.884-1.335-3.704-1.856-.82-.52-2.282-1.583-3.25-2.36-.967-.777-2.55-2.4-3.515-3.606-.966-1.206-2.347-3.384-3.07-4.839-.73-1.47-1.62-3.821-2.002-5.291-.57-2.194-.69-3.256-.703-6.218-.01-2.465.13-4.228.449-5.689.254-1.164.846-3.083 1.316-4.265.469-1.182 1.402-3.028 2.073-4.101.672-1.074 1.78-2.607 2.465-3.408.683-.8 2.02-2.13 2.971-2.953.95-.825 2.605-2 3.675-2.613 1.071-.613 2.63-1.389 3.463-1.725.834-.336 2.528-.883 3.765-1.215 1.885-.506 2.891-.601 6.218-.59 3.392.01 4.334.11 6.485.687 1.384.37 3.31 1.034 4.28 1.474.97.44 2.636 1.363 3.701 2.051 1.066.69 2.855 2.145 3.976 3.234 1.12 1.09 2.565 2.77 3.209 3.734a41.272 41.272 0 012.127 3.66c.526 1.05 1.26 2.955 1.63 4.234.371 1.278.763 3.425.871 4.77.108 1.344.111 3.516.007 4.825-.105 1.31-.44 3.291-.746 4.404a37.094 37.094 0 01-1.35 3.893c-.438 1.028-1.438 2.835-2.224 4.016-.786 1.18-2.214 2.94-3.174 3.91-.96.969-2.503 2.302-3.429 2.963-.926.66-2.797 1.727-4.157 2.37-1.361.642-3.487 1.43-4.724 1.753-1.68.437-3.186.606-5.953.665zm-13.437-11.797h.605l.004-10.781c.003-8.093.086-10.945.334-11.436.182-.36.734-.925 1.226-1.256.533-.36 1.282-.6 1.848-.594.525.005 1.21.154 1.524.33.314.177 2.516 2.045 4.895 4.15 2.378 2.106 4.711 4.207 5.184 4.67.616.602.86 1.082.86 1.688 0 .465-.199 1.265-.442 1.777s-.808 1.155-1.257 1.428c-.466.285-1.307.498-1.964.498-.633 0-1.499-.204-1.924-.456-.426-.251-1.01-.944-1.298-1.539-.288-.594-.523-1.29-.523-1.544 0-.255.129-.723.287-1.041.157-.318.723-.965 1.256-1.438l.97-.86-1.72-1.576c-.946-.867-1.843-1.581-1.994-1.587-.151-.006-.83.554-1.51 1.245-.678.691-1.426 1.72-1.661 2.284-.257.617-.43 1.797-.435 2.952-.006 1.538.138 2.249.716 3.536.436.973 1.188 2.04 1.897 2.694.646.596 1.731 1.339 2.412 1.652.956.44 1.748.57 3.486.572 1.932.002 2.462-.103 3.76-.74.85-.418 1.977-1.27 2.572-1.946.582-.661 1.3-1.85 1.596-2.64.325-.869.538-2.078.538-3.052 0-.887-.142-2.087-.315-2.667-.218-.728-.853-1.566-2.05-2.708a618.89 618.89 0 00-5.837-5.426c-2.763-2.542-4.575-3.996-5.556-4.458-1.176-.554-1.836-.683-3.44-.671-1.592.01-2.282.155-3.493.732-.904.43-1.983 1.246-2.693 2.036-.66.733-1.373 1.884-1.61 2.597-.365 1.1-.414 2.65-.349 11.085.073 9.418.097 9.836.62 10.553.3.41 1.07 1.015 1.71 1.342.64.327 1.438.595 1.77.595z" fill="#131735"/>
    <path d="M40.532 235.58c-.221.003-.432.02-.63.048-.67.097-1.815.456-2.543.798-.727.342-1.918 1.156-2.645 1.81l-1.323 1.187.793.842a20.675 20.675 0 001.776 1.625l.982.783 1.357-1.072c1.094-.866 1.57-1.073 2.458-1.072.636 0 1.47.226 1.976.535.494.301 1.056.964 1.287 1.519.361.863.388 2.288.217 11.504l-.195 10.518h.702c.386 0 1.085-.164 1.553-.364.469-.2 1.172-.706 1.563-1.124.39-.419.837-1.096.992-1.506.18-.475.281-4.125.281-10.073 0-7.742-.07-9.533-.411-10.535-.226-.664-.839-1.706-1.362-2.317-.522-.61-1.411-1.402-1.975-1.758-.564-.356-1.754-.833-2.644-1.061-.785-.202-1.545-.3-2.209-.288z" fill="#4ba8db"/>
  </g>
</svg>