<svg xmlns="http://www.w3.org/2000/svg" width="54.55" height="54.55" fill="none" class="w-32 transition-all md:w-40 xl:w-44"><g fill-rule="evenodd" clip-rule="evenodd"><path fill="#c4c4c4" d="M29.457 31.285a59.746 59.746 0 0 0 8.653-.864 1.429 1.429 0 0 1 1.684 1.407v5.417a61.268 61.268 0 0 1-12.475 1.23c-9.86 0-18.49-2.138-23.264-5.34a9.328 9.328 0 0 1-3.534-3.822 4.775 4.775 0 0 1-.443-1.972 5.262 5.262 0 0 1 .964-2.924.62.62 0 0 1 .964-.1 13.396 13.396 0 0 0 1.717 1.44 27.952 27.952 0 0 0 8.862 3.811 56.892 56.892 0 0 0 12.63 1.74v2.68a2.116 2.116 0 0 0 2.116 2.116 2.127 2.127 0 0 0 2.115-2.116z"/><path fill="#ff7900" d="M29.457 31.285a59.746 59.746 0 0 0 8.653-.864 1.429 1.429 0 0 1 1.684 1.407v5.417a61.268 61.268 0 0 1-12.475 1.23c-9.86 0-18.49-2.138-23.264-5.34a9.328 9.328 0 0 1-3.534-3.822 4.775 4.775 0 0 1-.443-1.972 5.262 5.262 0 0 1 .964-2.924.62.62 0 0 1 .964-.1 13.396 13.396 0 0 0 1.717 1.44 27.952 27.952 0 0 0 8.862 3.811 56.892 56.892 0 0 0 12.63 1.74v2.68a2.116 2.116 0 0 0 2.116 2.116 2.127 2.127 0 0 0 2.115-2.116z"/><path fill="#c4c4c4" d="M54.55 27.275a4.742 4.742 0 0 1-.455 2.016 9.45 9.45 0 0 1-3.523 3.778 26.202 26.202 0 0 1-6.58 3.002v-6.115a1.418 1.418 0 0 1 .953-1.352 23.914 23.914 0 0 0 5.938-2.913 12.97 12.97 0 0 0 1.739-1.452.62.62 0 0 1 .964.1c.613.858.949 1.882.964 2.936z"/><path fill="#ff7900" d="M54.55 27.275a4.742 4.742 0 0 1-.455 2.016 9.45 9.45 0 0 1-3.523 3.778 26.202 26.202 0 0 1-6.58 3.002v-6.115a1.418 1.418 0 0 1 .953-1.352 23.914 23.914 0 0 0 5.938-2.913 12.97 12.97 0 0 0 1.739-1.452.62.62 0 0 1 .964.1c.613.858.949 1.882.964 2.936z"/><path fill="#c4c4c4" d="M54.55 38.652a4.764 4.764 0 0 1-.455 2.006 9.45 9.45 0 0 1-3.522 3.777c-4.797 3.202-13.427 5.34-23.265 5.34-9.837 0-18.49-2.138-23.264-5.34A9.329 9.329 0 0 1 .51 40.613a4.731 4.731 0 0 1-.443-1.96 5.273 5.273 0 0 1 .963-2.936.62.62 0 0 1 .964-.1c.529.53 1.104 1.012 1.717 1.44a27.697 27.697 0 0 0 8.863 3.811 58.626 58.626 0 0 0 14.723 1.761 61.19 61.19 0 0 0 12.474-1.23v2.216a2.106 2.106 0 0 0 2.116 2.116 2.116 2.116 0 0 0 2.116-2.116v-3.323a25.036 25.036 0 0 0 6.88-3.224 11.49 11.49 0 0 0 1.739-1.451.632.632 0 0 1 .975.1c.604.86.936 1.883.953 2.935z"/><path fill="#ff7900" d="M54.55 38.652a4.764 4.764 0 0 1-.455 2.006 9.45 9.45 0 0 1-3.522 3.777c-4.797 3.202-13.427 5.34-23.265 5.34-9.837 0-18.49-2.138-23.264-5.34A9.329 9.329 0 0 1 .51 40.613a4.731 4.731 0 0 1-.443-1.96 5.273 5.273 0 0 1 .963-2.936.62.62 0 0 1 .964-.1c.529.53 1.104 1.012 1.717 1.44a27.697 27.697 0 0 0 8.863 3.811 58.626 58.626 0 0 0 14.723 1.761 61.19 61.19 0 0 0 12.474-1.23v2.216a2.106 2.106 0 0 0 2.116 2.116 2.116 2.116 0 0 0 2.116-2.116v-3.323a25.036 25.036 0 0 0 6.88-3.224 11.49 11.49 0 0 0 1.739-1.451.632.632 0 0 1 .975.1c.604.86.936 1.883.953 2.935z"/><path fill="#c4c4c4" d="M54.55 15.909a4.986 4.986 0 0 1-.477 2.093 9.328 9.328 0 0 1-3.323 3.579 21.605 21.605 0 0 1-3.69 1.994 50.229 50.229 0 0 1-17.647 3.434v-2.98a4.266 4.266 0 0 1 2.659-3.955l2.924-1.196c2.493-.909 4.077-2.271 4.077-3.778 0-2.759-5.273-4.996-11.776-4.996S15.52 12.319 15.52 15.1c0 1.507 1.584 2.87 4.077 3.778l2.935 1.196a4.276 4.276 0 0 1 2.659 3.955v2.98a50.118 50.118 0 0 1-17.725-3.445A21.852 21.852 0 0 1 3.8 21.58a9.384 9.384 0 0 1-3.324-3.579A4.986 4.986 0 0 1 0 15.91C0 9.76 12.186 4.775 27.241 4.775c15.056 0 27.308 4.985 27.308 11.134z"/><path fill="#ff7900" d="M54.55 15.909a4.986 4.986 0 0 1-.477 2.093 9.328 9.328 0 0 1-3.323 3.579 21.605 21.605 0 0 1-3.69 1.994 50.229 50.229 0 0 1-17.647 3.434v-2.98a4.266 4.266 0 0 1 2.659-3.955l2.924-1.196c2.493-.909 4.077-2.271 4.077-3.778 0-2.759-5.273-4.996-11.776-4.996S15.52 12.319 15.52 15.1c0 1.507 1.584 2.87 4.077 3.778l2.935 1.196a4.276 4.276 0 0 1 2.659 3.955v2.98a50.118 50.118 0 0 1-17.725-3.445A21.852 21.852 0 0 1 3.8 21.58a9.384 9.384 0 0 1-3.324-3.579A4.986 4.986 0 0 1 0 15.91C0 9.76 12.186 4.775 27.241 4.775c15.056 0 27.308 4.985 27.308 11.134z"/></g></svg>