<svg xmlns="http://www.w3.org/2000/svg" xml:space="preserve" width="351.68" height="351.68"><circle cx="175.84" cy="175.84" r="175.642" style="fill:#fff;stroke:none;stroke-width:.39685"/><path d="M156.744 298.27c-10.61-2.203-12.64-2.694-18.117-4.387-7.16-2.212-13.952-5.037-19.073-7.931-2.313-1.308-4.336-2.377-4.496-2.377-.745 0-14.206-9.104-17.163-11.608-5.3-4.487-14.095-13.203-17.74-17.58-6.702-8.046-15.673-22.756-15.673-25.697 0-.926 2.292-2.392 8.948-5.723 4.92-2.463 9.239-4.478 9.595-4.478.357 0 1.337 1.434 2.178 3.187 1.754 3.657 6.872 11.8 7.626 12.134.278.123.506.513.506.868 0 .737 5.501 7.522 9.724 11.992 2.957 3.13 3.831 3.907 9.419 8.365 1.834 1.464 3.486 2.833 3.67 3.043.993 1.127 8.564 5.632 14.514 8.634 18.522 9.346 40.908 12.773 61.309 9.387 5.553-.922 17.548-4.133 22.016-5.894 25.95-10.229 48.147-33.218 57.71-59.768 3.916-10.873 6.16-22.72 6.16-32.513v-5.454l3.524-1.801c1.937-.99 6.506-3.49 10.152-5.554 4.82-2.729 6.832-3.552 7.368-3.016 1.084 1.084.977 24.521-.144 31.563-3.452 21.684-12.602 42.904-25.317 58.712-8.336 10.363-20.527 21.486-29.842 27.225a506.423 506.423 0 0 0-5.032 3.133c-3.758 2.408-14.132 7.334-19.746 9.377-7.775 2.828-14.212 4.54-23.494 6.25-9.671 1.783-29.786 1.736-38.582-.09zm-115.04-75.588c.018-.276 2.51-2.523 5.535-4.991 3.025-2.468 6.407-5.23 7.514-6.137 6.892-5.644 23.449-19.167 26.84-21.921 2.214-1.799 11.272-9.193 20.13-16.432a86497.8 86497.8 0 0 1 26.125-21.345c5.512-4.5 11.098-9.11 12.413-10.243 1.316-1.132 4.657-3.85 7.424-6.037 2.768-2.189 6.09-4.958 7.381-6.155 4.046-3.748 4.129-3.486 2.604 8.213-1.829 14.04-3.358 28.658-3.032 28.984.25.25 13.684-7.087 15.526-8.48.369-.279 3.027-1.77 5.908-3.314 2.88-1.543 9.523-5.253 14.762-8.242 5.238-2.99 10.732-6.12 12.208-6.955 1.476-.836 6.708-3.815 11.626-6.62 4.919-2.807 9.263-5.102 9.655-5.102.475 0 .562 1.397.26 4.193-.25 2.307-.887 9.025-1.416 14.93-.529 5.905-1.168 12.67-1.42 15.035-.428 4.019-.375 4.273.819 3.912 10.299-3.118 46.592-14.61 48.246-15.276.739-.298 4.966-1.662 9.394-3.033 17.126-5.301 20.919-6.508 24.349-7.745 1.951-.704 4.065-1.27 4.697-1.259 1.008.019.986.145-.18 1.026-.731.553-3.75 2.245-6.71 3.76-2.96 1.516-6.182 3.319-7.162 4.007-.98.688-1.924 1.25-2.099 1.25-.175 0-2.846 1.4-5.935 3.109-3.09 1.71-7.882 4.321-10.65 5.805-2.768 1.483-5.335 2.914-5.704 3.18-.369.265-10.484 5.852-22.478 12.414-11.994 6.563-26.79 14.707-32.878 18.098-24.917 13.877-26.062 14.474-26.476 13.805-.3-.486 2.554-13.063 7.443-32.803.578-2.33.895-4.393.705-4.583-.395-.396-3.395 1.215-12.899 6.93-1.627.977-26.672 15.593-29.155 17.014-.992.568-3.89 2.272-6.441 3.787l-11.48 6.816c-8.77 5.207-10.86 6.276-11.498 5.88-.286-.176.514-6.543 1.779-14.148 1.264-7.605 2.146-13.98 1.959-14.167-.39-.389-11.476 5.088-55.615 27.471-17.215 8.73-31.482 15.873-31.705 15.873-.222 0-.389-.227-.37-.504zm11.567-30.135c-.913-3.276-.621-30.902.39-36.796 4.358-25.433 17.188-50.342 34.761-67.492 14.07-13.73 28.342-22.809 45.694-29.064 22.56-8.133 49.933-9.449 72.617-3.49 18.569 4.878 35 13.353 48.982 25.262 11.251 9.585 18.303 17.576 24.951 28.276 4.594 7.392 10.079 18.46 9.815 19.806-.143.735-3.078 1.998-9.268 3.99-4.982 1.602-9.584 2.915-10.226 2.916-.783 0-1.795-1.381-3.07-4.192-3.87-8.526-13.449-21.832-20.69-28.74-8.973-8.56-14.93-12.749-25.905-18.212-12.645-6.296-22.811-9.162-37.443-10.556-29.876-2.846-62.194 10.122-83.537 33.52-15.802 17.322-25.781 41.908-25.792 63.54-.003 4.768-.203 5.714-1.512 7.13-1.202 1.298-12.018 10.33-18.094 15.108-1.007.792-1.205.672-1.673-1.006z" style="fill:#202b5a;stroke-width:.670992"/></svg>