<svg id="logosandtypes_com" data-name="logosandtypes com" xmlns="http://www.w3.org/2000/svg" xmlns:xlink="http://www.w3.org/1999/xlink" viewBox="0 0 150 150"><defs><style>.cls-1{fill:none;}.cls-2{fill:#008477;}.cls-3{opacity:0.95;isolation:isolate;fill:url(#linear-gradient);}</style><linearGradient id="linear-gradient" x1="-212.87" y1="482.42" x2="-210.55" y2="482.42" gradientTransform="matrix(31.13, 0, 0, -31.13, 6689.57, 15092.64)" gradientUnits="userSpaceOnUse"><stop offset="0" stop-color="#67f9a5"/><stop offset="1" stop-color="#029176"/></linearGradient></defs><path class="cls-1" d="M0,0H150V150H0Z" transform="translate(0 0)"/><path class="cls-2" d="M129.78,116.48H63.72A14.64,14.64,0,0,1,51,94.63L83.51,37.69a15.2,15.2,0,0,1,26.49,0l32.51,56.94A14.68,14.68,0,0,1,129.78,116.48Z" transform="translate(0 0)"/><path class="cls-3" d="M87,116.48H20.89A14.64,14.64,0,0,1,8.16,94.63L40.67,37.69a15.2,15.2,0,0,1,26.49,0L99.68,94.63c7.74,12.39,14.62,21.85,28.9,21.85" transform="translate(0 0)"/></svg>