<svg xmlns="http://www.w3.org/2000/svg" width="30.27" height="39.729"><g style="fill:none;stroke:none;stroke-width:1"><path d="M72.365 507.77c4.044 0 7.845 1.575 10.702 4.436A15.039 15.039 0 0 1 87.5 522.91v24.59H57.23v-24.59a15.05 15.05 0 0 1 4.433-10.704 15.026 15.026 0 0 1 10.702-4.435z" style="fill:#fff;stroke:none;stroke-width:1.89187" transform="translate(-57.23 -507.77)"/><path d="M72.365 507.77c4.044 0 7.845 1.575 10.702 4.436A15.039 15.039 0 0 1 87.5 522.91v24.59H57.23v-24.59a15.05 15.05 0 0 1 4.433-10.704 15.026 15.026 0 0 1 10.702-4.435zm0 .753a14.315 14.315 0 0 0-10.194 4.223 14.277 14.277 0 0 0-4.21 10.164v23.837h28.808V522.91c0-3.836-1.495-7.447-4.21-10.164a14.315 14.315 0 0 0-10.194-4.223zm0 1.883a12.27 12.27 0 0 1 8.184 3.117c.242.216.478.441.708.678 2.375 2.446 3.681 5.697 3.685 9.157v21.5h-25.15v-21.504c0-3.46 1.306-6.71 3.681-9.157 2.376-2.443 5.533-3.791 8.892-3.791zm-7.05 30.206v2.744h4.22a12.027 12.027 0 0 1-4.22-2.744zM65.19 516a11.703 11.703 0 0 0-2.804 7.644v8.093a11.73 11.73 0 0 0 3.313 8.206c2.136 2.2 4.964 3.412 7.964 3.412 1.29 0 2.552-.226 3.738-.657v-15.786c0-7.34-7.44-10.683-12.21-10.912zm7.22 6.874c1.855 0 3.36 1.55 3.36 3.46 0 .24-.19.438-.426.438a.433.433 0 0 1-.425-.438c0-1.427-1.126-2.587-2.512-2.587-1.385 0-2.512 1.16-2.512 2.587l.002 6.638a1.43 1.43 0 0 0 .972-1.365c0-.24.19-.438.425-.438a.43.43 0 0 1 .425.438c-.006 1.19-.888 2.173-2.014 2.291l-.228.012c-1.233 0-2.237-1.034-2.237-2.303 0-.24.19-.438.426-.438a.43.43 0 0 1 .425.438c0 .635.403 1.173.959 1.36l-.001-6.436a.438.438 0 0 1-.024-.143c0-.075-.02-1.827-1.177-1.827a.422.422 0 0 1-.415-.428c0-.236.186-.428.415-.428.797 0 1.3.442 1.604 1 .561-1.088 1.676-1.831 2.959-1.831zm-7.545 2.776 1.857 1.92v-1.14c0-.24.19-.438.425-.438a.43.43 0 0 1 .426.438v2.193a.436.436 0 0 1-.426.438.42.42 0 0 1-.299-.126l-1.857-1.92v1.608c0 .24-.19.438-.425.438a.43.43 0 0 1-.426-.438v-2.665c0-.178.103-.336.263-.404a.41.41 0 0 1 .462.096zm7.542.56c.92 0 1.672.774 1.672 1.722a.42.42 0 0 1-.42.438.433.433 0 0 1-.424-.438.836.836 0 0 0-.824-.849.836.836 0 0 0-.824.849c0 .24-.19.438-.426.438a.43.43 0 0 1-.425-.438c0-.951.75-1.721 1.671-1.721z" style="fill:#111118;stroke-width:1.89187" transform="translate(-57.23 -507.77)"/></g></svg>