<svg width="220" height="220" fill="none" xmlns="http://www.w3.org/2000/svg"><g clip-path="url(#prefix__clip0_1001_261)"><path d="M110 220c60.751 0 110-49.249 110-110S170.751 0 110 0 0 49.249 0 110s49.249 110 110 110z" fill="#B8A6FE"/><path d="M110 220c60.751 0 110-49.249 110-110S170.751 0 110 0 0 49.249 0 110s49.249 110 110 110z" fill="url(#prefix__paint0_diamond_1001_261)"/><path d="M110 220c60.751 0 110-49.249 110-110S170.751 0 110 0 0 49.249 0 110s49.249 110 110 110z" fill="url(#prefix__paint1_diamond_1001_261)"/><path d="M110 220c60.751 0 110-49.249 110-110S170.751 0 110 0 0 49.249 0 110s49.249 110 110 110z" fill="url(#prefix__paint2_diamond_1001_261)"/><path d="M110 220c60.751 0 110-49.249 110-110S170.751 0 110 0 0 49.249 0 110s49.249 110 110 110z" fill="url(#prefix__paint3_diamond_1001_261)"/><path fill-rule="evenodd" clip-rule="evenodd" d="M106.662 33.403L43.178 70.055l28.531 16.473a6.11 6.11 0 014.306-1.767c.458 0 .904.05 1.333.146l29.314-50.773v-.73zM42 73.307v72.825l29.5-51.096a6.107 6.107 0 01-1.615-4.145c0-.48.055-.945.16-1.392L42 73.307zm1.88 77.514l62.713 36.207-29.243-50.649c-.43.095-.877.145-1.335.145a6.11 6.11 0 01-4.309-1.769L43.88 150.821zm69.592 36.65l63.132-36.449-28.176-16.267a6.11 6.11 0 01-4.309 1.769c-.459 0-.905-.05-1.335-.145l-29.312 50.769v.323zm65.36-40.13V72.904L150.09 89.5a6.14 6.14 0 01-1.456 5.538l30.198 52.304zm0-75.596v-1.01l-.875-.504.875 1.514zm-1.527-1.891L113.472 33v1.133l29.314 50.774a6.147 6.147 0 015.639 1.621l28.88-16.674zm-99.743 26.97v27.639a6.124 6.124 0 012.638 1.455l26.462-15.278-26.458-15.275a6.119 6.119 0 01-2.642 1.458zm4.385-4.384l24.715 14.269V40.943l-26.327 45.6a6.14 6.14 0 011.612 5.897zm-12.062 37.955a6.132 6.132 0 014.271-5.842V97.245L46.302 145.49l23.741-13.708a6.144 6.144 0 01-.158-1.387zm12.259 0a6.11 6.11 0 01-1.807 4.346l26.325 45.597v-65.765l-24.717 14.269c.13.496.199 1.017.199 1.553zm67.947 1.388l23.74 13.707-27.854-48.245v27.308a6.132 6.132 0 014.114 7.23zm-7.519-7.32v-27.64a6.114 6.114 0 01-2.642-1.458l-26.458 15.276 26.462 15.277a6.12 6.12 0 012.638-1.455zm-4.384 4.379l-24.716-14.269v65.764l26.325-45.596a6.11 6.11 0 01-1.807-4.346c0-.536.069-1.057.198-1.553zm-.198-37.951c0-1.7.692-3.238 1.809-4.348l-26.327-45.6v65.765l24.715-14.269a6.174 6.174 0 01-.197-1.548z" fill="#fff"/></g><defs><radialGradient id="prefix__paint0_diamond_1001_261" cx="0" cy="0" r="1" gradientUnits="userSpaceOnUse" gradientTransform="rotate(146.418 96.421 78.192) scale(221.464)"><stop stop-color="#BAB1FE"/><stop offset=".193" stop-color="#BAB1FE" stop-opacity=".807"/><stop offset="1" stop-color="#BAB1FE" stop-opacity="0"/></radialGradient><radialGradient id="prefix__paint1_diamond_1001_261" cx="0" cy="0" r="1" gradientUnits="userSpaceOnUse" gradientTransform="rotate(-38.483 284.819 65.668) scale(227.39)"><stop stop-color="#E0CAE4"/><stop offset=".307" stop-color="#E0CAE4" stop-opacity=".807"/><stop offset="1" stop-color="#E0CAE4" stop-opacity="0"/></radialGradient><radialGradient id="prefix__paint2_diamond_1001_261" cx="0" cy="0" r="1" gradientUnits="userSpaceOnUse" gradientTransform="rotate(76.818 13.83 56.307) scale(195.142)"><stop stop-color="#596BFC"/><stop offset=".307" stop-color="#5C6DFC" stop-opacity=".807"/><stop offset="1" stop-color="#5C6DFC" stop-opacity="0"/></radialGradient><radialGradient id="prefix__paint3_diamond_1001_261" cx="0" cy="0" r="1" gradientUnits="userSpaceOnUse" gradientTransform="rotate(-118.081 144.99 57.508) scale(194.382)"><stop stop-color="#C173FB"/><stop offset=".37" stop-color="#C575FF" stop-opacity=".807"/><stop offset="1" stop-color="#C575FF" stop-opacity="0"/></radialGradient><clipPath id="prefix__clip0_1001_261"><path fill="#fff" d="M0 0h220v220H0z"/></clipPath></defs></svg>