<svg xmlns="http://www.w3.org/2000/svg" xmlns:xlink="http://www.w3.org/1999/xlink" xml:space="preserve" viewBox="0 0 3500 3500.1" y="0" x="0" id="Layer_1" version="1.1"><style id="style3250" type="text/css">.st0{fill:#7abdf7}.st1{fill:#0d74f5}.st2{fill:#4494f7}.st3{fill:#005cf4}.st4{fill:#186ef9}.st5{fill:#0246f2}.st6{fill:#0046f8}.st7{fill:#0729f1}</style><g id="g3262"><g id="g3260"><defs id="defs3253"><path d="M1750 0c966.5 0 1750 783.5 1750 1750s-783.5 1750-1750 1750S0 2716.5 0 1750 783.5 0 1750 0z" id="SVGID_1_"/></defs><use height="100%" width="100%" y="0" x="0" id="use3255" xlink:href="#SVGID_1_" clip-rule="evenodd" overflow="visible" fill="#293451" fill-rule="evenodd"/><clipPath id="SVGID_2_"><use height="100%" width="100%" y="0" x="0" id="use3257" xlink:href="#SVGID_1_" overflow="visible"/></clipPath></g></g><path class="st0" d="M1630.69 1637.09c77.8 19.1 159.1 19.1 237 0 44.3-180.3 185.1-321.1 365.4-365.4 65.3-267.3-98.3-536.9-365.6-602.2-267.3-65.3-536.9 98.3-602.2 365.6-19 77.7-19 158.9 0 236.6 180.3 44.3 321.1 185.1 365.4 365.4z" id="path3264"/><path class="st1" d="M1867.69 1873.99c-77.8-19.1-159.1-19.1-237 0-44.3 180.3-185.1 321.1-365.4 365.4-65.3 267.3 98.3 536.9 365.6 602.2 267.3 65.3 536.9-98.3 602.2-365.6 19-77.7 19-158.9 0-236.6-180.3-44.3-321.1-185.1-365.4-365.4z" id="path3266"/><path class="st2" d="M2351.49 1257.39c-39.9 0-79.7 4.8-118.4 14.3-44.3 180.3-185.1 321.1-365.3 365.3-19.1 77.8-19.1 159.1 0 237 180.3 44.3 321 185.1 365.3 365.4 267.3 65.3 536.9-98.5 602.1-365.7 65.2-267.2-98.5-536.9-365.7-602.1-38.6-9.4-78.2-14.2-118-14.2z" id="path3268"/><path class="st3" d="M1630.69 1873.99c19.1-77.8 19.1-159.1 0-237-180.3-44.3-321.1-185.1-365.4-365.3-267.3-65.3-536.9 98.3-602.2 365.6-65.3 267.3 98.3 536.9 365.6 602.2 77.7 19 158.9 19 236.6 0 44.3-180.4 185.1-321.2 365.4-365.5z" id="path3270"/><path class="st4" d="M1867.69 1637.09c180.3-44.3 321.1-185.1 365.4-365.4-180.3 44.3-321.1 185.1-365.4 365.4z" id="path3272"/><path class="st5" d="M1867.69 1873.99c44.3 180.3 185.1 321.1 365.4 365.4-44.3-180.3-185.1-321.1-365.4-365.4z" id="path3274"/><path class="st6" d="M1630.69 1637.09c-44.3-180.3-185.1-321.1-365.4-365.4 44.4 180.3 185.1 321.1 365.4 365.4z" id="path3276"/><path class="st7" d="M1630.69 1873.99c-180.3 44.3-321.1 185.1-365.4 365.4 180.3-44.4 321.1-185.1 365.4-365.4z" id="path3278"/><path class="st0" d="M1630.69 1637.09c77.8 19.1 159.1 19.1 237 0 44.3-180.3 185.1-321.1 365.4-365.4 65.3-267.3-98.3-536.9-365.6-602.2-267.3-65.3-536.9 98.3-602.2 365.6-19 77.7-19 158.9 0 236.6 180.3 44.3 321.1 185.1 365.4 365.4z" id="path3280"/><path class="st1" d="M1867.69 1873.99c-77.8-19.1-159.1-19.1-237 0-44.3 180.3-185.1 321.1-365.4 365.4-65.3 267.3 98.3 536.9 365.6 602.2 267.3 65.3 536.9-98.3 602.2-365.6 19-77.7 19-158.9 0-236.6-180.3-44.3-321.1-185.1-365.4-365.4z" id="path3282"/><path class="st2" d="M2351.49 1257.39c-39.9 0-79.7 4.8-118.4 14.3-44.3 180.3-185.1 321.1-365.3 365.3-19.1 77.8-19.1 159.1 0 237 180.3 44.3 321 185.1 365.3 365.4 267.3 65.3 536.9-98.5 602.1-365.7 65.2-267.2-98.5-536.9-365.7-602.1-38.6-9.4-78.2-14.2-118-14.2z" id="path3284"/><path class="st3" d="M1630.69 1873.99c19.1-77.8 19.1-159.1 0-237-180.3-44.3-321.1-185.1-365.4-365.3-267.3-65.3-536.9 98.3-602.2 365.6-65.3 267.3 98.3 536.9 365.6 602.2 77.7 19 158.9 19 236.6 0 44.3-180.4 185.1-321.2 365.4-365.5z" id="path3286"/><path class="st4" d="M1867.69 1637.09c180.3-44.3 321.1-185.1 365.4-365.4-180.3 44.3-321.1 185.1-365.4 365.4z" id="path3288"/><path class="st5" d="M1867.69 1873.99c44.3 180.3 185.1 321.1 365.4 365.4-44.3-180.3-185.1-321.1-365.4-365.4z" id="path3290"/><path class="st6" d="M1630.69 1637.09c-44.3-180.3-185.1-321.1-365.4-365.4 44.4 180.3 185.1 321.1 365.4 365.4z" id="path3292"/><path class="st7" d="M1630.69 1873.99c-180.3 44.3-321.1 185.1-365.4 365.4 180.3-44.4 321.1-185.1 365.4-365.4z" id="path3294"/></svg>