<svg xmlns="http://www.w3.org/2000/svg" width="203" height="203" fill="none"><path fill="url(#a)" d="M29.729 29.729c39.639-39.638 103.904-39.638 143.543 0 39.638 39.639 39.638 103.904 0 143.543-39.638 39.638-103.904 39.638-143.543 0-39.639-39.638-39.639-103.904 0-143.543z" style="fill:url(#a)"/><path fill="#000" d="M86.963 145.07c-3.644-1.241-8.594-3.546-11-5.121-5.195-3.4-50.261-47.236-51.34-49.94-.586-1.465.835-3.462 6.583-9.25 4.032-4.058 7.848-7.38 8.48-7.38.634 0 11.997 10.595 25.254 23.543 14.163 13.834 25.54 24.143 27.592 25 4.895 2.045 13.355 1.854 17.778-.401 2.006-1.022 14.246-12.158 27.199-24.746 12.954-12.587 24.056-23.054 24.672-23.26 1.276-.425 15.906 13.742 15.906 15.404 0 1.837-47.176 47.994-52.5 51.366-11.342 7.184-26.192 9.024-38.624 4.786zm5.85-63.462c-4.25-4.274-7.727-8.246-7.727-8.826 0-.58 3.627-4.584 8.059-8.897l8.057-7.842 7.942 7.895c4.368 4.343 7.942 8.367 7.942 8.942 0 1.022-15.051 16.5-16.045 16.5-.275 0-3.978-3.497-8.228-7.772z"/><defs><linearGradient id="a" x1="61.165" x2="204.708" y1="211.072" y2="67.529" gradientTransform="translate(-42.042 -42.042)" gradientUnits="userSpaceOnUse"><stop stop-color="#D9D9D9"/><stop offset="0" stop-color="#D7D7D7"/><stop offset="0" stop-color="#F7B893"/><stop offset="1" stop-color="#FF97D6"/></linearGradient></defs></svg>