<svg width="1294.476" height="1294.476" viewBox="0 0 342.497 342.497" xmlns="http://www.w3.org/2000/svg"><g transform="translate(66.248 22.748)"><circle style="fill:#fff;stroke:#000;stroke-width:1.77578;stroke-linejoin:round;stroke-miterlimit:4;stroke-dasharray:none;stroke-opacity:1" cx="105" cy="148.5" r="170.361"/><path style="fill:#000;stroke-width:.264583" d="M-172.221 781.464c-4.283-.37-8.94-1.04-13.626-1.962-2.474-.486-6.403-1.075-8.731-1.308-53.355-5.345-95.335-46.28-102.307-99.76-.822-6.301-.918-42.69-.13-49.08 3.286-26.665 14.521-49.664 33.42-68.412l4.55-4.513-.832-1.68c-3.986-8.04 6.204-15.423 12.842-9.304l1.162 1.07 2.496-1.533c18.042-11.087 38.707-16.96 59.683-16.964h4.269l.185-1.257c1.777-12.053 16.38-17.03 25.04-8.533 3.693 3.624 4.945 7.904 4.14 14.153-.058.445.323.661 2.445 1.389 1.382.474 3.894 1.393 5.582 2.043 2.276.875 3.96 1.317 6.522 1.71 21.339 3.27 40.79 12.326 57.66 26.844 3.316 2.854 3.15 2.784 4.471 1.887 2.99-2.029 7.768-1.513 10.52 1.136 2.962 2.85 3.435 7.769 1.067 11.1-1.137 1.598-1.142 1.557.477 3.687 6.977 9.185 13.47 21.72 17.09 32.991 1.139 3.55.81 3.17 2.694 3.103 7.518-.271 9.575 10.125 2.535 12.814-1.205.46-1.235.498-1.071 1.37.458 2.44.95 7.375 1.24 12.443 1.11 19.333-3.214 39.482-12.316 57.398l-1.715 3.376 1.32 1.395c7.48 7.91.24 20.76-10.434 18.518-2.06-.433-2.182-.433-2.503.009-.186.255-1.63 2.429-3.21 4.83-19.372 29.447-51 48.144-86.36 51.05-3.866.318-14.434.312-18.175-.01zm2.737-1.761c.068-.11-.135-.523-.451-.919l-.574-.72-3.884.306c-2.137.168-3.834.388-3.771.49.062.1 1.455.317 3.094.48 1.64.163 3.338.339 3.775.39 1.496.174 1.689.17 1.811-.027zm20.577-.583c31.58-4.054 59.341-20.791 77.92-46.976 4.47-6.3 4.437-6.64-.19-2.012-9.237 9.235-18.627 16.222-28.971 21.553-2.259 1.164-2.428 1.31-2.742 2.36-1.028 3.434-3.995 7.064-7.025 8.593-4.492 2.267-8.46 2.283-13.785.057-.777-.326-.94-.278-2.91.857-8.374 4.823-19.807 9.482-28.413 11.58-3.024.737-3.34.896-3.515 1.77-.082.412-.456 1.202-.831 1.754-.375.552-.681 1.077-.681 1.166 0 .279 6.882-.155 11.143-.702zm-27.502-2.399c5.528-.366 5.145-.218 5.312-2.06.334-3.686 2.793-5.984 6.416-5.998 2.847-.01 5.656 2.016 6.14 4.43.21 1.047.217 1.047 3.542.18 7.053-1.842 14.797-4.78 21.703-8.234 4.144-2.072 6.538-3.57 4.846-3.034-1.001.318-9.738 1.713-12.947 2.067-1.992.22-6.331.348-11.642.343-10.837-.01-14.765-.44-26.458-2.893a204.157 204.157 0 0 0-8.6-1.57c-7.529-1.176-15.282-3.288-22.621-6.164-2.037-.799-5.948-2.22-8.69-3.16-12.515-4.286-23.62-10.166-33.355-17.66-1.442-1.11-2.677-1.963-2.744-1.896-.179.178 3.485 5.122 6.285 8.48 14.331 17.19 34.148 30.133 55.305 36.124 4.763 1.349 9.065 1.606 17.508 1.045zm-24.938-1.423c-.061-.059-1.718-.74-3.683-1.515-21.702-8.558-40.992-24.421-53.852-44.285-1.534-2.37-2.936-4.08-5.53-6.747-4.273-4.393-7.778-8.48-10.732-12.513l-2.25-3.07-1.851-.02c-5.271-.055-8.283-4.893-5.91-9.494l.837-1.623-1.894-3.933c-3.711-7.708-6.534-15.614-8.416-23.57-.552-2.334-1.08-4.096-1.175-3.916-.217.414.146 8.423.548 12.101 5.193 47.555 40.445 87.023 87.05 97.46 5.141 1.152 7.247 1.497 6.858 1.124zm62.646-13.362c4.208-.575 10.475-1.73 10.939-2.017.16-.099-.111-.687-.666-1.443-.516-.702-1.183-1.833-1.484-2.514-.304-.686-.685-1.184-.857-1.118-8.317 3.178-22.166 5.992-31.558 6.412-3.638.162-5.268.341-5.054.555.98.979 21.76 1.07 28.68.125zm-20.159-2.682c9.025-.941 17.937-2.873 25.93-5.621l1.852-.637-.09-2.224c-.092-2.336.402-5.148 1.166-6.625.619-1.196.343-1.2-1.927-.028-15.017 7.756-31.76 11.836-49.92 12.163-5.426.097-7.76.224-7.439.404.724.405 5.985 1.977 7.715 2.305 4.096.777 16.42.92 22.713.263zm-37.286-3.038c-.588-.445-1.994-.755-2.706-.597-.269.06.285.299 1.23.53 2.154.528 2.082.525 1.476.067zm23.155-2.109c10.92-1.054 20.661-3.396 31.065-7.468 3.998-1.565 13.307-6.208 16.271-8.115a4109.22 4109.22 0 0 1 4.578-2.94c18.975-12.166 35.246-32.955 43.382-55.43 1.96-5.415 5.217-18.058 5.221-20.265 0-.159-.701-.834-1.56-1.5-4.38-3.402-4.566-9.665-.396-13.382l1.451-1.293-.676-3.013c-5.961-26.571-20.89-49.852-42.216-65.835-2.976-2.23-3.099-2.292-5.16-2.608-3.705-.568-7.167-2.817-8.57-5.567-.505-.99-.886-1.266-3.666-2.658-6.714-3.36-15.077-6.535-21.366-8.11l-2.889-.723-7.416.153c-18.01.37-33.538 4.23-49.148 12.212l-3.776 1.932.07 1.419c.15 3.026-1.096 5.415-3.447 6.615-1.612.822-4.455.631-6.019-.404-1.385-.917-1.048-1.075-5.886 2.771-8.145 6.476-19.219 18.489-21.845 23.697-4.675 9.27-8.505 23.42-9.733 35.956l-.42 4.296 1.096 1.815c2.81 4.654 2.898 10.639.22 15.035-.938 1.54-.925 2.178.174 8.667 2.916 17.21 9.94 33.585 20.586 47.992 2.614 3.538 2.511 3.467 4.17 2.882 6.843-2.415 13.832 4.858 10.902 11.344-.321.71-.583 1.43-.583 1.6 0 .66 8.335 7.333 13.24 10.598 5.917 3.94 15.508 9.11 18.377 9.909 2.98.829 17.154 1.076 23.969.418zm-31.906-1.886c-.291-.223-2.018-1.241-3.837-2.263-6.328-3.555-13.506-8.59-18.613-13.055-2.491-2.177-2.596-2.218-3.744-1.439-1.29.876-2.529 1.32-4.158 1.49-1.92.2-1.941.173 2.514 3.192 10.222 6.926 17.09 10.148 25.499 11.96 2.86.616 3.003.623 2.339.115zm104.415-2.37c9.952-5.042 21.78-14.136 29.895-22.983 3.484-3.798 3.481-3.792 2.308-5.128-3.428-3.905-3.29-10.537.3-14.433 2.424-2.629 4.879-3.655 8.867-3.705l2.646-.033.743-2.25c6.232-18.86 6.827-41.151 1.642-61.545-1.395-5.486-1.819-6.42-1.607-3.542 2.54 34.566-7.973 65.18-30.711 89.433-1.158 1.235-2.686 3.079-3.396 4.098-3.037 4.358-7.385 9.664-11.22 13.689l-1.95 2.047.297 1.179c.163.648.297 1.701.297 2.34 0 1.738.056 1.763 1.89.834zm-129.564-5.633c-.138-.127-1.374-.977-2.746-1.89-13.977-9.31-26.391-22.446-35.094-37.139-.851-1.437-1.586-2.496-1.634-2.353-.365 1.096 5.33 14.135 8.815 20.18 2.565 4.45 15.143 13.683 26.548 19.49 3.51 1.786 4.767 2.31 4.111 1.712zm128.746-3.14c2.744-2.899 4.818-5.382 4.643-5.558-.074-.074-1.182.695-2.462 1.707-1.28 1.013-3.07 2.361-3.98 2.996-1.83 1.276-1.844 1.305-1.2 2.397.61 1.032.518 1.08 2.999-1.542zm-2.559-2.507c7.796-5.703 13.563-11.107 15.935-14.934 10.191-16.446 16.027-35.54 16.686-54.596.088-2.547.081-4.558-.015-4.47-.096.089-.703 2.291-1.349 4.895-6.31 25.443-20.71 47.33-41.913 63.697l-2.763 2.133 2.35.34c2.728.393 5.36 1.535 7.397 3.208 1.647 1.352 1.427 1.369 3.672-.273zm-140.722-9.181c-.243-1.764.43-4.301 1.591-5.997 1.154-1.686 1.248-1.29-1.023-4.293-11.578-15.307-19.363-33.973-21.899-52.507-.367-2.68-.25-2.614-2.257-1.297-1.828 1.2-3.343 1.825-5.52 2.278l-1.587.33.07 3.677c.115 5.995 1.155 14.642 2.32 19.288 1.387 5.525 10.136 19.988 17.265 28.538 2.53 3.034 10.557 11.282 10.98 11.282.133 0 .16-.575.06-1.3zm-21.475-12.658c-3.33-7.159-5.692-13.676-7.462-20.58-.596-2.324-1.49-5.237-1.99-6.474-2.551-6.325-6.515-20.241-6.515-22.873 0-.052-.657-.466-1.46-.92-5.876-3.315-8.693-10.96-6.384-17.321 1.054-2.906 2.46-4.713 5.823-7.483.577-.476.698-.796.7-1.852.02-10.427 4.867-28.642 11-41.336 1.082-2.242 1.916-4.128 1.853-4.192-.402-.402-7.71 10.058-10.766 15.412-7.848 13.747-13.909 33.227-13.828 44.45.066 9.257 4.283 24.62 10.2 37.162 2.037 4.315 1.982 4.26 3.726 3.8 6.224-1.636 10.836 6.39 6.173 10.744-.96.896-.94.957 1.467 4.162 3.039 4.048 8.025 9.88 8.446 9.88.12 0-.323-1.16-.983-2.58zm185.975-1.32c12.142-15.844 19.773-34.698 22.304-55.103 1.363-10.994.316-30.137-2.03-37.135-1.269-3.782-6.127-12.644-10.347-18.872-3.614-5.334-11.02-14.332-11.243-13.661-.046.136.564 1.61 1.354 3.274 6.408 13.494 10.061 28.658 10.649 44.204l.176 4.664 1.458.172c9.783 1.15 9.873 15.818.105 17.035l-1.511.188-.17 6.35c-.468 17.423-4.042 32.434-11.367 47.73-2.42 5.054-2.398 5.095.622 1.155zm27.238-13.761c10.225-19.593 14.384-43.452 11.45-65.683-.619-4.694-.498-4.404-2.039-4.916-4.443-1.476-5.758-6.96-2.573-10.737l1.102-1.307-.713-2.302c-3.422-11.038-9.564-23.149-16.499-32.53-1.21-1.638-2.253-2.977-2.319-2.977-.065 0-.859.251-1.764.558-4.11 1.394-8.716-.668-10.598-4.745-.813-1.761-.795-5.263.035-6.849.835-1.593.793-1.703-1.393-3.668-12.502-11.233-28.39-19.896-44.89-24.476-3.038-.843-4.341-.906-2.41-.115 13.527 5.533 27.348 15.034 38.164 26.234 13.943 14.438 23.426 31.456 28.598 51.317.582 2.234 1.335 4.69 1.675 5.458.982 2.222 3.197 8.8 4.217 12.528 5.744 20.982 5.328 43.904-1.168 64.345-1.206 3.797-.908 3.761 1.125-.135zm-223.732-22.262c-.097-.856-.283-3.73-.414-6.386-.264-5.337-.202-5.155-1.831-5.42l-1.163-.19.175 1.315c.096.723.65 3.207 1.23 5.52 1.637 6.515 2.37 8.406 2.003 5.161zm-18.302-40.205c4.307-19.077 14.197-37.796 27.49-52.032 1.495-1.6 3.722-4.323 4.948-6.05 18.713-26.337 48.698-43.947 80.518-47.287l3.132-.33-.175-1.212a26.887 26.887 0 0 0-.326-1.845l-.15-.632-6.776.158c-19.948.464-39.47 6.162-55.707 16.258l-2.894 1.8-.016 2.901c-.019 3.37-.493 4.509-2.679 6.433-2.298 2.022-6.066 2.486-8.893 1.093l-1.237-.61-1.541 1.348c-21.293 18.617-35.318 48.517-36.578 77.981-.266 6.226-.133 6.532.885 2.026zm223.464-5.068c-1.317-16.789-5.993-32.493-13.837-46.467-1.609-2.867-3.002-4.247-9.051-8.963-4.541-3.54-15.358-10.452-16.358-10.452-.141 0-.838.545-1.549 1.21-.71.665-1.954 1.511-2.762 1.882-.809.37-1.37.765-1.249.878.122.113 1.472 1.191 3 2.395 20.43 16.101 34.554 37.942 40.627 62.824.497 2.037.995 4.002 1.106 4.366.352 1.148.396-3.544.073-7.673zm-194.942 3.684c.834-7.312 2.333-14.515 4.443-21.354 1.137-3.686 1.166-4.1.167-2.393-3.057 5.22-7.11 15.18-9.415 23.134-.71 2.452-.739 2.331.712 2.953.691.296 1.674.842 2.183 1.212.51.37 1.043.64 1.185.601.143-.04.469-1.909.725-4.153zm-12.361 1.332c.728-.154 2.144-.246 3.148-.204 2.179.092 1.916.44 3.341-4.415 2.89-9.847 8.085-20.874 14.07-29.867 1.151-1.728 2.743-4.438 3.537-6.022 6.974-13.906 18.083-27.528 30.473-37.365 1.491-1.184 2.543-2.19 2.337-2.234-.205-.045-2.02.588-4.034 1.407-16.825 6.84-34.283 19.513-39.907 28.966-8.819 14.822-14.455 32.073-15.639 47.865l-.186 2.486.769-.168c.422-.093 1.363-.295 2.091-.45zm215.097-29.612c-9.183-26.383-29.848-49.774-55.187-62.467-2.016-1.01-3.806-1.837-3.977-1.837-.44 0 6.29 4.567 8.151 5.531 1.74.902 2.897 1.836 3.982 3.21.406.516 1.81 1.897 3.12 3.07 7.554 6.768 14.863 15.315 20.103 23.512 1.58 2.47 2.828 3.984 5.776 7 6.985 7.146 11.958 13.572 16.963 21.921.986 1.647 1.843 2.944 1.904 2.884.06-.06-.315-1.331-.835-2.824zm-174.897-27.438c1.9-1.667 4.671-3.946 6.156-5.066l2.699-2.035-.155-2.016c-.244-3.176 1.122-5.573 3.753-6.587 1.908-.736 5.12-.127 6.2 1.176.517.622.578.6 5.632-1.943 12.172-6.126 25.028-9.94 38.835-11.52 1.964-.224 4.227-.41 5.027-.412 1.86-.006 2.597-.404 1.159-.627-7.548-1.169-19.696-1.175-28.543-.015-7.732 1.013-15.637 2.852-17.753 4.128-7.7 4.644-19.55 15.775-26.607 24.995-2.31 3.017-6.573 9.319-6.573 9.715 0 .149 1.51-1.312 3.357-3.246 1.846-1.934 4.912-4.88 6.813-6.547zm147.522-3.508c0-1.403-15.895-19.6-17.12-19.6-.118 0-.23.923-.25 2.05-.023 1.346-.234 2.618-.612 3.7-.708 2.025-.876 1.785 2.59 3.726 3.559 1.992 9.107 5.666 12.607 8.347 2.84 2.174 2.785 2.14 2.785 1.777zm-163.2-3.663c10.563-8.324 21.577-14.28 34.563-18.69 3.571-1.213 4.83-1.797 8.03-3.726 9.586-5.78 20.82-10.4 31.821-13.087 1.882-.46 3.52-.896 3.638-.969.479-.296-1.894-3.288-2.507-3.16-.32.066-1.536.196-2.7.288-5.99.472-16.418 2.72-23.325 5.027-19.17 6.404-37.209 18.474-49.859 33.361-2.574 3.03-2.512 3.204.34.956zm122.983-13.535c0-1.536-.017-1.573-.86-1.841-3.01-.96-10.983-2.685-12.332-2.67-.41.005 1.11.754 3.667 1.808 2.401.99 5.437 2.346 6.747 3.013 2.98 1.518 2.778 1.54 2.778-.31zm1.045-5.151c1.562-3.275 4.338-5.569 7.758-6.413.98-.241 1.78-.511 1.78-.6-.004-.451-8.147-5.286-13.007-7.722-5.476-2.745-8.741-3.418-16.585-3.418h-2.841l-1.18 1.208c-4.68 4.791-12.557 5.622-18.274 1.927-1.96-1.266-1.843-1.269-7.593.174a112.796 112.796 0 0 0-23.784 8.901c-5.398 2.739-5.524 3.008-.968 2.069 13.548-2.794 29.225-2.657 44.677.39 2.474.487 6.106 1.027 8.07 1.2 4.887.429 12.033 1.659 16.801 2.891 2.183.564 4.052 1.039 4.154 1.055.102.016.548-.732.992-1.662z" transform="translate(271.114 -499.346)"/></g></svg>
