<svg xmlns="http://www.w3.org/2000/svg" xml:space="preserve" id="Layer_1" width="201.144" height="219.4" x="0" y="0" version="1.1"><style id="style591" type="text/css">.st0{fill:#fff}.st1{fill:#5e12a0}.st4{fill:#a98698;enable-background:new}.st4,.st8{opacity:.6}.st14{opacity:.2;fill:#fff;enable-background:new}.st15{opacity:.4}.st17{opacity:.3;fill:#fff;enable-background:new}</style><path id="path607" d="M200.6 38.9c-2.3-8.7-9.6-17.4-22.4-27C167.7 4.6 156.8 0 148.1 0c-1.8 0-3.2 0-5 .5-4.1.9-7.3 3.7-9.6 8.2-2.7 5-3.2 12.3-1.4 16.5.5 1.4 1.4 2.7 2.3 4.6-8.2 5-13.3 6.9-13.7 6.9 21.9 7.3 40.2 22.9 51.6 43.4v-1.8c.5-5.5 2.3-11.4 4.1-17.8 2.3.5 4.6.9 6.9.9 5.9 0 11-2.3 14.2-6.9 3.1-5.1 4.5-10.6 3.1-15.6z" class="st1"/><radialGradient id="SVGID_1_" cx="-629.011" cy="370.875" r="4.571" gradientTransform="matrix(15.5992 0 0 15.8678 10005.212 -5855.102)" gradientUnits="userSpaceOnUse"><stop id="stop609" offset="0" style="stop-color:#ffeaff;stop-opacity:.6"/><stop id="stop611" offset=".681" style="stop-color:#a087c9"/><stop id="stop613" offset="1" style="stop-color:#10002f"/></radialGradient><path id="path616" d="M177.3 54.9c14.6 4.1 20.6-7.3 18.3-15.1-2.3-7.8-8.7-15.5-20.6-24.2C163.1 6.9 151.3 3.2 143.5 5c-7.8 1.8-10.1 13.3-7.8 17.8.9 1.8 2.7 4.6 5 7.3-3.2 2.3-5.9 3.7-8.2 5 14.6 6.9 27.4 16.9 37 30.2.9-4.6 2.7-8.2 4.1-11.9 1.4 1 2.8 1 3.7 1.5z" style="fill:url(#SVGID_1_)"/><radialGradient id="SVGID_00000033368766583237106410000016781693633718069384_" cx="-661.746" cy="344.372" r="4.571" gradientTransform="matrix(38.1657 0 0 38.8229 25409.452 -13308.742)" gradientUnits="userSpaceOnUse"><stop id="stop618" offset="0" style="stop-color:#ffeaff;stop-opacity:.6"/><stop id="stop620" offset=".681" style="stop-color:#a087c9"/><stop id="stop622" offset="1" style="stop-color:#10002f"/></radialGradient><path id="path625" d="M94.6 213.9c49.4 0 89.1-40.7 89.1-90.5s-40.2-91-89.1-91c-49.4 0-89.1 40.7-89.1 91s39.7 90.5 89.1 90.5z" style="fill:url(#SVGID_00000033368766583237106410000016781693633718069384_)"/><path id="path627" d="M188.8 32.5c-12.3-12.8-22.4-16.5-34.7-19.2-9.6-2.3-6.9-7.8 4.6-6.9-5.5-1.8-11-2.3-14.6-1.8-7.8 1.8-10.1 13.3-7.8 17.8.9 1.8 2.7 4.6 5 7.3-4.1 2.7-7.8 5-11 6.9 1.4.5 3.2 1.4 5.5 2.7 5.5 2.7 11.4 7.8 11.4 7.8-9.1-7.8-6.9-11.4 5.5-20.1 3.7-2.7 11-2.3 17.4.9 6.4 3.2 14.2 11.9 14.2 11.9l-8.2 15.1c.5 0 .9.5 1.4.5 4.6 1.4 8.2.9 11 0 3.5-2.4 12.1-9.7.3-22.9z" class="st4"/><path id="path629" d="M154 21.5c3.2 1.4 7.3 3.7 12.3 6.9 5.9 4.1 11.4 8.7 14.6 12.3-5.5 7.3-9.1 17.8-11.4 24.7.9 1.8 2.3 3.2 3.7 5 .9-4.1 3.2-10.1 5.5-16h2.3c1.8 0 4.1-.5 5.9-1.8 1.4-.9 2.7-2.7 2.7-5.9s-2.3-6.9-7.3-11.9c-3.7-3.2-8.7-7.3-13.3-10.5-13.7-9.1-23.3-11.9-27.4-7.3-2.7 2.7-2.7 6.4-1.4 9.1-5 3.2-9.6 5.9-12.3 7.3 1.8.5 3.7 1.4 5.5 2.3 4.6-2.8 11.9-7.8 20.6-14.2zm30.2 22.8c.5.9.5 1.8.5 2.3 0 1.4-.5 1.8-.9 2.3-.5.5-1.8.9-3.2.9 1.3-2.3 2.2-3.6 3.6-5.5zm-39.3-24.2c.5-.5 1.8-.9 3.7-.5-1.4 1.4-3.2 2.3-4.6 3.7-.5-.9-.5-2.3.9-3.2z" class="st1"/><path id="path631" d="M94.6 27.4C42 27.4 0 70.4 0 123.4s42.1 96 94.6 96c52.1 0 94.6-43 94.6-96s-43-96-94.6-96zm0 186.5c-49.4 0-89.1-40.2-89.1-90.5s39.8-91 89.1-91c48.9 0 89.1 40.7 89.1 91s-40.2 90.5-89.1 90.5z" class="st1"/><linearGradient id="SVGID_00000060738004741768961770000002500887344188009100_" x1="88.169" x2="117.678" y1="1242.299" y2="1063.326" gradientTransform="translate(-8.3 -1029.6)" gradientUnits="userSpaceOnUse"><stop id="stop633" offset="0" style="stop-color:#81ffff"/><stop id="stop635" offset=".62" style="stop-color:#fff;stop-opacity:0"/></linearGradient><path id="path638" d="M94.6 213.9c49.4 0 89.1-40.7 89.1-90.5s-40.2-91-89.1-91c-49.4 0-89.1 40.7-89.1 91s39.7 90.5 89.1 90.5z" style="opacity:.6;fill:url(#SVGID_00000060738004741768961770000002500887344188009100_);enable-background:new"/><path id="path640" d="M93.7 202.9c-48.4-7.8-81.4-54.4-73.6-103.8 3.7-21.9 14.2-40.7 29.7-53.9-22.4 13.3-38.9 36.1-43.4 64-7.8 49.4 25.1 96 73.6 104.2 27 4.6 53.5-4.1 72.7-21-17 9.6-38 14.2-59 10.5z" class="st4"/><linearGradient id="SVGID_00000103237301722660851120000009948123728438741436_" x1="166.283" x2="91.394" y1="1092.117" y2="1159.667" gradientTransform="translate(-8.3 -1029.6)" gradientUnits="userSpaceOnUse"><stop id="stop642" offset=".289" style="stop-color:#fff"/><stop id="stop644" offset=".78" style="stop-color:#fff;stop-opacity:0"/></linearGradient><path id="path647" d="M108.8 33.8c-22.4-3.7-44.3 1.4-62.2 12.8l-.5.5C53 43 63 39.3 63 39.3 37 54.4 29.2 71.8 29.2 71.8c9.6-19.2 39.3-33.4 62.2-34.3 23.3-.9 38.4 5.9 56.7 21 18.3 15.1 29.7 46.6 28.3 71.3-.9 24.7-13.7 44.8-13.7 44.8 8.7-11.4 14.2-20.1 17.4-28.3.5-2.7 1.4-5 1.4-7.8 8.6-50.3-24.3-96.4-72.7-104.7z" style="opacity:.6;fill:url(#SVGID_00000103237301722660851120000009948123728438741436_);enable-background:new"/><linearGradient id="SVGID_00000141443806153591831910000013893056015418748856_" x1="17.886" x2="187.458" y1="1195.294" y2="1195.294" gradientTransform="translate(-8.3 -1029.6)" gradientUnits="userSpaceOnUse"><stop id="stop649" offset="0" style="stop-color:#0002e9"/><stop id="stop651" offset=".995" style="stop-color:#ff00c7"/></linearGradient><path id="path654" d="M179.2 122.5c0 47.5-37.9 86.4-84.6 86.4-46.7 0-85-38.9-85-86.4z" style="fill:url(#SVGID_00000141443806153591831910000013893056015418748856_)"/><g id="g663" class="st8" transform="translate(-8.3 .4)"><linearGradient id="SVGID_00000143609999011855841860000003955105379139731102_" x1="195.798" x2="102.076" y1="1160.094" y2="1247.169" gradientTransform="translate(0 -1030)" gradientUnits="userSpaceOnUse"><stop id="stop656" offset=".289" style="stop-color:#fff"/><stop id="stop658" offset=".78" style="stop-color:#fff;stop-opacity:0"/></linearGradient><path id="path661" d="M180.6 122.1c0 46.6-36.1 84.6-81.4 86.4h3.2c46.6 0 84.6-38.4 84.6-86.4h-6.4z" style="opacity:.6;fill:url(#SVGID_00000143609999011855841860000003955105379139731102_);enable-background:new"/></g><g id="g672" style="opacity:.7" transform="translate(-8.3 .4)"><linearGradient id="SVGID_00000138547201389907199790000015249205417018658706_" x1="17.886" x2="108.497" y1="1195.294" y2="1195.294" gradientTransform="translate(0 -1030)" gradientUnits="userSpaceOnUse"><stop id="stop665" offset="0" style="stop-color:#000292"/><stop id="stop667" offset=".995" style="stop-color:#7d00c7"/></linearGradient><path id="path670" d="M29.8 122.1H17.9c0 47.5 37.9 86.4 84.6 86.4h5.9c-43.9-3.7-78.6-41.1-78.6-86.4z" style="opacity:.7;fill:url(#SVGID_00000138547201389907199790000015249205417018658706_);enable-background:new"/></g><linearGradient id="SVGID_00000034072748007481891130000003516935615580615582_" x1="17.886" x2="187.122" y1="1160.172" y2="1160.172" gradientTransform="translate(-8.3 -1029.6)" gradientUnits="userSpaceOnUse"><stop id="stop674" offset="0" style="stop-color:#000292"/><stop id="stop676" offset=".995" style="stop-color:#be00c7"/></linearGradient><path id="path679" d="M179.2 123.4c0-10.1-16.9-15.5-39.3-17.4-16.5-1.4-32.9.5-51.6 5.9-16.5 5-31.1 4.1-41.6 2.7-23.8-2.7-37-3.2-37 8.7 0 16.9 33.8 37.9 84.6 30.6 25.6-3.7 38.9-11.4 53.9-16.5 16.3-5.3 31-5.3 31-14z" style="fill:url(#SVGID_00000034072748007481891130000003516935615580615582_)"/><path id="path681" d="M122 82.3c7.8 0 14.2-6.4 14.2-14.6s-6.4-14.6-14.2-14.6c-7.8 0-14.2 6.4-14.2 14.6s6.5 14.6 14.2 14.6z" class="st0"/><path id="path683" d="M145.8 93.2c3.2 0 5.9-2.7 5.9-5.9s-2.7-5.9-5.9-5.9-5.9 2.7-5.9 5.9 2.2 5.9 5.9 5.9z" class="st0"/><g id="g692" class="st8" transform="translate(-8.3 .4)"><linearGradient id="SVGID_00000109030831700369883520000005149110332135487626_" x1="184.713" x2="172.246" y1="1067.894" y2="1087.809" gradientTransform="translate(0 -1030)" gradientUnits="userSpaceOnUse"><stop id="stop685" offset=".289" style="stop-color:#fff"/><stop id="stop687" offset=".78" style="stop-color:#fff;stop-opacity:0"/></linearGradient><path id="path690" d="M175.6 55.8s-.5 0 0 0c-1.4 0-1.8-.9-1.8-2.3 1.4-7.3 7.3-14.6 7.8-15.1.5-.9 1.8-.9 2.7 0 .9.5.9 1.8 0 2.7 0 0-5.9 6.9-6.9 13.3 0 1-.9 1.4-1.8 1.4z" style="opacity:.6;fill:url(#SVGID_00000109030831700369883520000005149110332135487626_);enable-background:new"/></g><path id="path694" d="M88.7 191.1c2.3 0 4.6-1.8 4.6-4.6s-1.8-4.6-4.6-4.6-4.6 1.8-4.6 4.6 1.8 4.6 4.6 4.6z" class="st14"/><g id="g703" class="st15" transform="translate(-8.3 .4)"><linearGradient id="SVGID_00000171688919947892699000000000443709647684485263_" x1="92.318" x2="99.067" y1="1215.872" y2="1215.872" gradientTransform="translate(0 -1030)" gradientUnits="userSpaceOnUse"><stop id="stop696" offset=".289" style="stop-color:#fff"/><stop id="stop698" offset=".78" style="stop-color:#fff;stop-opacity:0"/></linearGradient><path id="path701" d="M94.2 188.8c-1.8-1.8-1.8-4.6 0-6.4l.9-.9c-.5 0-.9.5-1.4.9-1.8 1.8-1.8 4.6 0 6.4 1.4 1.4 3.7 1.8 5.5.9-1.8 1-3.6.5-5-.9z" style="opacity:.6;fill:url(#SVGID_00000171688919947892699000000000443709647684485263_);enable-background:new"/></g><path id="path705" d="M90 185.1c.5 0 .9-.5.9-.9 0-.5-.5-.9-.9-.9s-.9.5-.9.9.5.9.9.9z" class="st17"/><path id="path707" d="M112 188.8c2.3 0 4.6-1.8 4.6-4.6 0-2.3-1.8-4.6-4.6-4.6-2.3 0-4.6 1.8-4.6 4.6 0 2.3 1.8 4.6 4.6 4.6z" class="st14"/><g id="g716" class="st15" transform="translate(-8.3 .4)"><linearGradient id="SVGID_00000004532487385887879970000013558370075793784478_" x1="115.588" x2="122.338" y1="1213.586" y2="1213.586" gradientTransform="translate(0 -1030)" gradientUnits="userSpaceOnUse"><stop id="stop709" offset=".289" style="stop-color:#fff"/><stop id="stop711" offset=".78" style="stop-color:#fff;stop-opacity:0"/></linearGradient><path id="path714" d="M117.5 186.5c-1.8-1.8-1.8-4.6 0-6.4l.9-.9c-.5 0-.9.5-1.4.9-1.8 1.8-1.8 4.6 0 6.4 1.4 1.4 3.7 1.8 5.5.9-1.8 1-3.6.5-5-.9z" style="opacity:.6;fill:url(#SVGID_00000004532487385887879970000013558370075793784478_);enable-background:new"/></g><path id="path718" d="M113.3 182.8c.5 0 .9-.5.9-.9 0-.5-.5-.9-.9-.9s-.9.5-.9.9c0 .5.5.9.9.9z" class="st17"/><path id="path720" d="M100.5 199.3c1.8 0 3.2-1.4 3.2-3.2 0-1.8-1.4-3.2-3.2-3.2-1.8 0-3.2 1.4-3.2 3.2 0 1.8 1 3.2 3.2 3.2z" class="st14"/><g id="g729" class="st15" transform="translate(-8.3 .4)"><linearGradient id="SVGID_00000143609232240696843000000016457593810277076621_" x1="105.259" x2="110.326" y1="1225.482" y2="1225.482" gradientTransform="translate(0 -1030)" gradientUnits="userSpaceOnUse"><stop id="stop722" offset=".289" style="stop-color:#fff"/><stop id="stop724" offset=".78" style="stop-color:#fff;stop-opacity:0"/></linearGradient><path id="path727" d="M106.6 197.5c-1.4-1.4-1.4-3.7 0-5l.5-.5c-.5 0-.9.5-.9.9-1.4 1.4-1.4 3.7 0 5 .9.9 2.7 1.4 4.1.5-1 .5-2.8 0-3.7-.9z" style="opacity:.6;fill:url(#SVGID_00000143609232240696843000000016457593810277076621_);enable-background:new"/></g><path id="path731" d="M101.5 194.7c.5 0 .5-.5.5-.5 0-.5-.5-.5-.5-.5-.5 0-.5.5-.5.5s0 .5.5.5z" class="st17"/><path id="path733" d="M121.1 197c1.8 0 3.2-1.4 3.2-3.2 0-1.8-1.4-3.2-3.2-3.2-1.8 0-3.2 1.4-3.2 3.2-.4 1.4 1.4 3.2 3.2 3.2z" class="st14"/><g id="g742" class="st15" transform="translate(-8.3 .4)"><linearGradient id="SVGID_00000090983593467731386640000003319643021286646710_" x1="125.768" x2="130.835" y1="1223.196" y2="1223.196" gradientTransform="translate(0 -1030)" gradientUnits="userSpaceOnUse"><stop id="stop735" offset=".289" style="stop-color:#fff"/><stop id="stop737" offset=".78" style="stop-color:#fff;stop-opacity:0"/></linearGradient><path id="path740" d="M127.1 195.2c-1.4-1.4-1.4-3.7 0-5l.5-.5c-.5 0-.9.5-.9.9-1.4 1.4-1.4 3.7 0 5 .9.9 2.7 1.4 4.1.5-.9.5-2.8 0-3.7-.9z" style="opacity:.6;fill:url(#SVGID_00000090983593467731386640000003319643021286646710_);enable-background:new"/></g><path id="path744" d="M122 192.4c.5 0 .5-.5.5-.5 0-.5-.5-.5-.5-.5-.5 0-.5.5-.5.5s.1.5.5.5z" class="st17"/><path id="path746" d="M69.5 189.2c4.1 0 7.3-3.2 7.3-7.3s-3.2-7.3-7.3-7.3-7.3 3.2-7.3 7.3c-.1 4.1 3.1 7.3 7.3 7.3z" class="st14"/><g id="g755" class="st15" transform="translate(-8.3 .4)"><linearGradient id="SVGID_00000062188962356861115390000004008183984837362594_" x1="70.513" x2="81.535" y1="1211.856" y2="1211.856" gradientTransform="translate(0 -1030)" gradientUnits="userSpaceOnUse"><stop id="stop748" offset=".289" style="stop-color:#fff"/><stop id="stop750" offset=".78" style="stop-color:#fff;stop-opacity:0"/></linearGradient><path id="path753" d="M73.6 186.1c-2.7-2.7-2.7-7.8 0-10.5.5-.5.9-.9 1.4-.9-.9.5-1.8.9-2.7 1.8-2.7 2.7-2.7 7.8 0 10.5 2.3 2.3 5.9 2.7 9.1.9-2.3.9-5.5.5-7.8-1.8z" style="opacity:.6;fill:url(#SVGID_00000062188962356861115390000004008183984837362594_);enable-background:new"/></g><path id="path757" d="M72.2 179.6c.9 0 1.4-.9 1.4-1.8s-.9-1.8-1.4-1.8c-.9 0-1.4.9-1.4 1.8s.5 1.8 1.4 1.8z" class="st17"/><path id="path759" d="M135.3 171c4.1 0 7.3-3.2 7.3-7.3s-3.2-7.3-7.3-7.3-7.3 3.2-7.3 7.3 3.2 7.3 7.3 7.3z" class="st14"/><g id="g768" class="st15" transform="translate(-8.3 .4)"><linearGradient id="SVGID_00000062892460833808766390000012038938717617540790_" x1="135.976" x2="146.999" y1="1193.573" y2="1193.573" gradientTransform="translate(0 -1030)" gradientUnits="userSpaceOnUse"><stop id="stop761" offset=".289" style="stop-color:#fff"/><stop id="stop763" offset=".78" style="stop-color:#fff;stop-opacity:0"/></linearGradient><path id="path766" d="M139 167.8c-2.7-2.7-2.7-7.8 0-10.5.5-.5.9-.9 1.4-.9-.9.5-1.8.9-2.7 1.8-2.7 2.7-2.7 7.8 0 10.5 2.3 2.3 5.9 2.7 9.1.9-2.3 1-5.5.5-7.8-1.8z" style="opacity:.6;fill:url(#SVGID_00000062892460833808766390000012038938717617540790_);enable-background:new"/></g><path id="path770" d="M137.6 161.4c.9 0 1.4-.9 1.4-1.8s-.9-1.8-1.4-1.8c-.9 0-1.4.9-1.4 1.8s.5 1.8 1.4 1.8z" class="st17"/></svg>