<svg xmlns="http://www.w3.org/2000/svg" xmlns:xlink="http://www.w3.org/1999/xlink" xml:space="preserve" width="172.592" height="172.592" viewBox="0 0 45.665 45.665"><defs><radialGradient xlink:href="#a" id="b" cx="74.698" cy="81.662" r="22.632" fx="74.698" fy="81.662" gradientTransform="translate(30.302 66.838)" gradientUnits="userSpaceOnUse"/><linearGradient id="a"><stop offset="0" style="stop-color:#8b24b5;stop-opacity:1"/><stop offset="1" style="stop-color:#1e0130;stop-opacity:1"/></linearGradient></defs><g transform="translate(-82.168 -125.668)"><circle cx="105" cy="148.5" r="22.5" style="fill:url(#b);fill-opacity:1;stroke:#8622c2;stroke-width:.665;stroke-linecap:round;stroke-dasharray:none;stroke-opacity:.972549"/><path d="M101.217 133.908c-1.602-.001-2.82.703-3.787 2.19-.352.541-.803.984-1.002.984-.697 0-2.419 1.052-2.956 1.807-.298.418-.655 1.265-.794 1.883-.14.623-.5 1.297-.807 1.512-.783.548-1.606 2.28-1.606 3.377 0 .51.195 1.338.434 1.84.404.846.404.99 0 1.999-.786 1.964-.526 3.292.972 4.964.519.58.978 1.434 1.084 2.014.238 1.3 1.895 2.999 3.155 3.235.652.122 1.09.441 1.536 1.118 1.52 2.309 4.161 2.936 6.223 1.479.38-.27.838-.597 1.015-.73.213-.158.628-.01 1.22.437 1.614 1.22 3.51 1.402 5.193.502.318-.17.946-.844 1.395-1.496.45-.653 1.009-1.187 1.243-1.187.235 0 .929-.294 1.541-.653 1.105-.647 1.756-1.624 2.12-3.183.103-.437.579-1.21 1.058-1.72 1.22-1.298 1.58-2.8 1.026-4.281-.236-.629-.428-1.322-.428-1.54 0-.218.192-.911.428-1.54.547-1.462.217-2.85-1.008-4.23-.477-.537-1.022-1.543-1.21-2.234-.399-1.459-1.857-2.949-3.167-3.237-.568-.124-1.055-.515-1.52-1.218-1.066-1.61-2.188-2.177-4.043-2.042-1.184.085-1.78.288-2.536.865-.801.612-1.07.696-1.415.445-1.59-1.157-2.09-1.36-3.364-1.36zm-.021.902c.26-.01.51.046.844.156 1.394.46 2.247 1.644 2.252 3.128.005 1.442.3 2.041.895 1.813.303-.116.423-.507.423-1.375 0-2.572 1.835-4.158 4.09-3.536 2.997.828 2.999 5.068.003 6.057-1.046.345-1.325 1.32-.378 1.32 1.434 0 3.694-1.981 3.694-3.24 0-.738.597-.975 1.5-.594 1.103.463 1.747 1.487 1.747 2.776 0 1.385-.66 2.32-2.079 2.948-1.154.51-1.504 1.1-.812 1.366.585.224 2.459-.766 3.107-1.643.333-.45.747-.819.921-.819.562 0 1.172 1.273 1.168 2.438-.006 1.783-.22 1.953-1.921 1.545-1.128-.27-1.643-.277-2.386-.032-1.804.596-3.097 2.089-3.097 3.577 0 .988.747.85 1.194-.22.593-1.42 1.807-2.28 3.218-2.28 1.009 0 1.338.141 2.096.9.795.794.9 1.06.9 2.29 0 1.302-.074 1.46-1.158 2.474-.886.827-1.162 1.28-1.173 1.926-.02 1.135-.446 1.86-1.456 2.477-1.172.714-1.443.652-1.734-.402-.14-.506-.494-1.258-.79-1.673-.61-.857-2.451-1.79-3.067-1.553-.712.274-.448.915.506 1.23 3.066 1.012 2.985 5.189-.118 6.118-.861.258-1.165.23-2.03-.194-1.917-.935-1.95-1.137-1.915-11.433.032-9.294-.046-10.06-.944-9.314-.354.294-.409 1.584-.409 9.664 0 9.165-.01 9.337-.573 10.054-.316.4-.966.893-1.447 1.094-.98.41-.969.409-2.13.072v.001c-.78-.226-1.935-1.334-1.935-1.858 0-.124.487-.532 1.081-.908 1.291-.815 2.344-2.805 1.819-3.438-.421-.506-.633-.332-1.317 1.08-1.05 2.172-3.243 2.644-4.96 1.07-.89-.814-.989-1.039-.989-2.227 0-1.498.686-2.484 2.165-3.115 1.072-.457 1.282-.803.683-1.123-.68-.364-2.054.282-3.161 1.484l-.914.992-.643-.743c-.734-.847-.869-2.419-.277-3.229.325-.444.48-.466 1.373-.192.722.222 1.104.228 1.35.024.477-.396.248-.658-1.097-1.253-1.332-.59-1.992-1.62-1.992-3.108 0-.823.19-1.166 1.15-2.064.921-.862 1.18-1.308 1.303-2.242.435-3.306 4.566-3.94 6.025-.926.54 1.115 1.096 1.464 1.442.904.346-.56-.873-2.61-1.96-3.296-.594-.375-1.081-.748-1.081-.829 0-.552.75-1.297 1.753-1.74.557-.247.906-.366 1.24-.379zm.507.984c-.194-.002-.357.065-.455.224-.187.303 1.428 2.077 1.915 2.104.182.01.33-.27.33-.624 0-.8-1.096-1.696-1.79-1.704zm7.664.024a.544.544 0 0 0-.374.157c-.18.18.02.57.622 1.198 1.002 1.049 1.237 1.14 1.457.568.292-.762-.927-1.957-1.705-1.923zm-11.99 3.267a.314.314 0 0 0-.108.02c-.548.21-.5.352.456 1.338.95.98 1.535 1.12 1.535.367 0-.601-1.295-1.748-1.884-1.725zm11.316 4.113c-.882-.011-2.289 1.32-2.289 2.341 0 .773.994.704 1.358-.094.158-.348.572-.762.92-.92.657-.3.838-.935.352-1.235a.654.654 0 0 0-.34-.092zm-6.633.07a1.986 1.986 0 0 0-.686.165c-.87.36-1.584 1.31-1.584 2.106 0 .717.964.722 1.191.006.093-.292.518-.712.944-.932 1.093-.566.97-1.374.135-1.346zm-7.996.073c-.157.011-.353.083-.613.217-.707.366-1.436 1.537-1.14 1.832.305.306.633.151 1.532-.721.67-.651.828-.958.608-1.178a.468.468 0 0 0-.387-.15zm14.04 3.189a.143.143 0 0 0-.046.006c-.502.174-.397.974.234 1.777.792 1.006 2.124 1.512 2.477.94.211-.341-2.135-2.709-2.666-2.723zm-9.175.872c-.442-.028-1.074.293-1.68.898-.905.906-1.175 1.875-.576 2.075.42.14 2.932-2.367 2.719-2.712a.557.557 0 0 0-.463-.26zm9.067 3.206c-.134-.004-.291.074-.51.212-.89.563 1.179 3.08 2.355 2.865.216-.04.43-.259.473-.486.045-.232-.209-.544-.58-.713-.362-.165-.846-.662-1.075-1.105-.279-.538-.439-.767-.663-.773zm-6.839.112a.434.434 0 0 0-.179.025c-.66.254-.444 1.157.505 2.106.895.895 1.82 1.158 2.156.614.097-.157-.223-.677-.712-1.156-.489-.479-1.038-1.06-1.221-1.293a.79.79 0 0 0-.549-.296zm16.28.65c-.513 0-2.125 1.76-1.92 2.093.269.434.556.354 1.45-.398.824-.693 1.102-1.696.47-1.696zm-18.64 4.252c-.57.023-2.021 1.717-1.79 2.09.217.352.285.345 1.176-.115 1.084-.56 1.536-2.013.614-1.975zm7.962 3.263a.135.135 0 0 0-.077.017c-.462.285-.315.92.371 1.607.685.685 1.734.879 1.73.32-.005-.466-1.565-1.926-2.024-1.944z" style="fill:#fff;stroke:none;stroke-width:.264583;stroke-linecap:round"/></g></svg>