<svg xmlns="http://www.w3.org/2000/svg" height="3500" width="3500">
  <defs>
    <mask id="a" x="0" y="4.82" width="23.84" height="54.6" maskUnits="userSpaceOnUse">
      <path fill="#fff" fill-rule="evenodd" d="M0 4.82h23.84v54.6H0V4.82z"/>
    </mask>
  </defs>
  <circle cy="1750" cx="1750" fill="#fff" stroke="#e5cb22" stroke-width="130.348" stroke-linejoin="round" r="1684.826"/>
  <g mask="url(#a)" transform="matrix(38.81758 0 0 38.81758 353.084 431.98)">
    <path d="M20 8.84c1.37-1.56 2.63-2.88 3.83-4-20.26-.65-14.36 14-21 28.87-7.6 17.14.9 23.67 13.56 25.71a27.56 27.56 0 01-4.28-7C3.94 42.09 7.25 23.26 20 8.84" fill="#efe812"/>
  </g>
  <path d="M3021.792 1483.937a2246.373 2246.373 0 01-397.104 664.945 1905.555 1905.555 0 01-482.502 418.066 1302.718 1302.718 0 01-711.914 202.24 2802.63 2802.63 0 01-439.415-30.667 898.239 898.239 0 00293.849 230.188c711.138 343.924 755.778-294.625 1508.063-618.752 422.335-182.054 423.888-537.623 228.635-866.02M2142.186 820.157a934.34 934.34 0 01293.46 104.03 1636.937 1636.937 0 01586.146 559.75c128.098-361.003 68.32-644.372-211.556-695.61-308.211-56.286-548.88-74.53-780.233-236.012-284.92-197.97-534.906-133.532-751.508 67.931l46.97 1.941c300.447 17.856 587.697 77.635 815.168 197.193" fill="#ede70a"/>
  <path d="M1129.435 775.128c-494.924 559.75-623.41 1290.685-304.718 1691.67a1217.32 1217.32 0 0168.708-1086.892c268.229-447.178 806.629-641.266 1248.761-559.75-229.024-121.11-516.274-179.337-815.17-197.193l-46.968-2.329c-48.134 44.252-97.044 93.939-150.613 154.494" fill="#dec21c"/>
  <path d="M2435.647 923.411a934.34 934.34 0 00-293.461-103.254c301.224 158.375 501.135 426.993 501.135 851.657a1068.648 1068.648 0 01-501.135 895.134 1897.791 1897.791 0 00482.502-418.066 2246.373 2246.373 0 00397.104-664.945 1636.937 1636.937 0 00-586.145-560.526" fill="#e5cb22"/>
  <path d="M2142.186 820.157c-442.132-81.517-980.532 112.57-1248.761 557.808a1216.155 1216.155 0 00-68.708 1088.833 1058.944 1058.944 0 00166.14 271.723 2802.63 2802.63 0 00439.415 30.666 1302.718 1302.718 0 00711.914-202.24 1068.26 1068.26 0 00501.135-895.133c0-424.664-199.91-693.282-501.135-851.657m-49.687 1544.94a735.205 735.205 0 01-1013.915-218.156c-219.707-338.877-111.018-776.351 218.543-1009.257 368.767-262.018 841.565-158.764 1013.915 218.155 168.08 367.214 121.888 791.49-218.543 1009.257" fill="#cca727"/>
</svg>