<svg xmlns="http://www.w3.org/2000/svg" xmlns:xlink="http://www.w3.org/1999/xlink" xml:space="preserve" id="svg5" width="172.917" height="172.917" version="1.1" viewBox="0 0 45.751 45.751"><defs id="defs2"><path id="SVGID_1_" d="M69.7 228.7H718v172.7H69.7z"/></defs><g id="layer1" transform="translate(-18.672 -75.284)"><g id="g366" transform="matrix(.26458 0 0 .26458 .247 14.804)"><defs id="defs339"><path id="rect375" d="M69.7 228.7H718v172.7H69.7z"/></defs><clipPath id="SVGID_00000051367222386384281850000000219410134249860482_"><use xlink:href="#SVGID_1_" id="use341" style="overflow:visible"/></clipPath><g id="g364" clip-path="url(#SVGID_00000051367222386384281850000000219410134249860482_)"><g id="g504" transform="translate(17.377)"><path id="path344" d="M207.8 297.7c0 17.1-6.4 33.7-17.9 46.4a69.101 69.101 0 0 1-44.4 22.4c.8-9.8-2.2-19.6-8.5-27.2-6.3-7.6-15.2-12.5-25-13.7V234c10.5-4.4 21.9-6.2 33.3-5.1 11.3 1.1 22.2 4.9 31.7 11.2 9.5 6.3 17.3 14.9 22.6 24.9 5.4 10.1 8.2 21.3 8.2 32.7z" class="st1"/><path id="path346" d="M69.9 367.7c-.7-5.8 0-11.6 2-17.1 2-5.5 5.1-10.4 9.3-14.5 6.3 9.5 14.9 17.2 24.9 22.6 10 5.4 21.3 8.1 32.6 8.1 2.3 0 4.5-.1 6.8-.3-.8 9.4-5 18.2-11.9 24.7s-15.9 10.1-25.4 10.3c-9.4.1-18.6-3.2-25.7-9.5-7-6.3-11.5-14.9-12.6-24.3z" style="fill:#1e4480"/><path id="path348" d="M112 234.1v91.5c9.8 1.1 18.8 6 25 13.7 6.3 7.6 9.3 17.4 8.5 27.2-2.2.2-4.5.3-6.8.3-11.4 0-22.6-2.8-32.6-8.1-10-5.4-18.6-13.1-24.9-22.6 6-5.8 13.8-9.5 22.1-10.4v-87.3c2.7-1.6 5.6-3.1 8.7-4.3z" style="fill:#152e51"/><path id="path350" d="M69.7 297.7c0-12 3.1-23.7 9-34.1 5.9-10.4 14.4-19.1 24.7-25.2v87.2c-8.3.9-16.1 4.6-22.2 10.5-7.6-11.4-11.6-24.7-11.5-38.4z" class="st1"/></g></g></g></g><style id="style336" type="text/css">.st1{fill:#dedede}</style></svg>