<svg xmlns="http://www.w3.org/2000/svg" width="225" height="219" fill="none"><g clip-path="url(#a)"><path fill="#fff" stroke="#000" stroke-linecap="round" stroke-width=".595" d="M172.082 47.742H92.347c-12.815 0-23.204 10.388-23.204 23.203S79.532 94.15 92.347 94.15h79.735c12.815 0 23.203-10.389 23.203-23.204 0-12.815-10.388-23.203-23.203-23.203Z"/><path fill="#596659" d="M175.926 217.429c-4.675-.402-9.712-1.215-11.193-1.807-3.338-1.333-14.396-8.674-17.932-11.905l-2.626-2.398-2.641 2.447c-1.452 1.347-5.671 3.38-9.374 4.52-5.972 1.838-10.354 2.146-38.739 2.726-33.88.692-41.565.17-54.995-3.733-10.528-3.059-23.08-9.405-27.656-13.981-5.313-5.313-11.803-19.844-8.863-19.844.56 0 1.02.788 1.02 1.75.002 3.529 5.8 13.853 9.814 17.471 7.747 6.985 24.153 13.577 39.185 15.744 9.674 1.395 28.295 1.619 54 .648 22.52-.85 30.68-2.515 35.032-7.147 2.731-2.907 4.541-3.129 5.839-.716.518.963 4.958 4.329 9.867 7.48 7.528 4.833 10.009 5.887 15.844 6.731 20.138 2.91 40.185-.275 48.668-7.732 1.577-1.386 1.75-1.384 1.75.022 0 2.254-7.551 6.342-16.082 8.706-7.734 2.143-15.04 2.383-30.918 1.018Zm44.899-21.225c-5.216-12.613-17.797-27.85-27.836-33.713-3.757-2.194-7.121-4.745-7.475-5.669-.387-1.009.341-3.112 1.828-5.273 3.297-4.794 4.813-9.046 4.157-11.661-.349-1.39.534-3.761 2.512-6.748 2.647-3.996 2.964-5.179 2.398-8.95-.595-3.969-.341-4.716 2.933-8.635 4.426-5.298 4.558-8.456.584-13.942-1.65-2.278-3-4.5-3-4.938 0-.438-1.331-2.354-2.959-4.259-3.341-3.908-3.753-6.126-1.486-8.007 3.052-2.533 3.952-5.592 4.547-15.455.332-5.5.942-10.992 1.356-12.205.638-1.87.06-2.645-3.798-5.092-2.503-1.587-6.387-5.208-8.631-8.047-2.243-2.838-5.835-6.322-7.98-7.742-2.728-1.805-5.32-5.11-8.617-10.983-6.151-10.96-10.508-15.929-16.731-19.083-5.43-2.751-14.196-4.04-20.032-2.946-1.941.365-5.69 2.448-8.33 4.63-5.46 4.512-7.235 4.845-9.933 1.865-1.047-1.157-3.906-3.277-6.353-4.712-3.994-2.34-5.707-2.649-16.748-3.017-11.92-.396-12.472-.322-17.916 2.433-5.55 2.808-10.692 8.044-13.674 13.925-.843 1.664-4.633 6.614-8.42 11-9.559 11.067-13.556 17.263-24.502 37.974C9.527 99.485 7.76 105.225 3.58 142.126c-.634 5.595-1.385 10.402-1.669 10.683-.908.899.063-14.547 1.5-23.855.765-4.95 1.676-11.025 2.026-13.5 1.39-9.832 6.982-24.17 17.137-43.938C34.9 47.522 39.358 40.388 48.995 29.236c3.922-4.54 7.947-9.834 8.944-11.767 3.018-5.851 8.92-11.941 14.35-14.805C77.102.124 78.212-.042 89.925.007c13.804.057 17.089.953 23.205 6.322 1.958 1.719 4.206 3.125 4.997 3.125.791 0 3.313-1.604 5.604-3.566 5.377-4.602 9.096-5.619 17.694-4.834 13.527 1.233 21.95 8.115 30.374 24.815 1.696 3.363 4.362 6.699 6.719 8.408 3.696 2.681 9.247 8.413 11.074 11.436.458.758 2.917 2.794 5.463 4.525 4.832 3.284 6.398 5.594 5.124 7.556-.415.638-.982 5.7-1.262 11.249-.455 9.043-.792 10.46-3.25 13.683-3.053 4.002-3.403 5.935-1.38 7.614.75.622 3.495 4.741 6.101 9.154 5.412 9.166 5.42 10.518.095 16.891-3.141 3.759-3.407 4.566-2.924 8.853.45 3.997.137 5.242-2.051 8.16-1.91 2.547-2.583 4.652-2.583 8.079 0 3.511-.752 5.771-3.107 9.325-3.586 5.414-3.217 6.441 3.54 9.85 5.8 2.925 18.766 16.581 23.595 24.849 4.9 8.39 7.335 13.953 6.107 13.953-.491 0-1.497-1.462-2.236-3.25ZM.005 167.871c.048-1.165.285-1.402.604-.604.29.722.254 1.584-.079 1.916-.332.333-.568-.258-.525-1.312Zm122.012-85.34c-1.172-.741-1.196-1.407-.147-3.942.729-1.758 1.114-5.716.91-9.343l-.354-6.292 5.619-.296c4.771-.251 6.063.078 8.565 2.183 3.288 2.767 7.373 13.013 5.772 14.475-3.332 3.043-17.184 5.23-20.365 3.215Zm14.147-2.266c4.925-1.476 5.423-2.697 3.286-8.063-2.63-6.604-4.105-7.748-9.991-7.748h-5.158l.058 5.75c.03 3.163-.327 6.988-.796 8.5-.848 2.734-.825 2.75 3.889 2.75 2.608 0 6.529-.535 8.712-1.19Zm45.353.336c-.29-.47.003-2.258.651-3.975.925-2.45.896-3.902-.133-6.746-1.991-5.509-.385-6.099 6.768-2.488 6.957 3.512 7.609 5.302 3.373 9.253-4.575 4.267-9.367 6.046-10.659 3.956Zm8.874-4.25c1.945-1.707 3.535-3.444 3.535-3.858 0-.568-9.387-6.039-10.361-6.039-.097 0-.168 2.925-.158 6.499.023 7.706 1.345 8.349 6.984 3.398Zm-36.798 3.436c-.367-.366-.667-1.682-.667-2.923 0-2.629 4.919-8.914 6.042-7.72.419.445.523 3.173.233 6.06-.462 4.587-.808 5.25-2.735 5.25-1.214 0-2.506-.3-2.873-.666Zm4.15-4.66c.174-1.47-.056-2.673-.51-2.673-1.3 0-3.443 3.97-2.749 5.094 1.078 1.743 2.928.369 3.259-2.421Zm7.183.827c0-.825.675-1.5 1.5-1.5s1.5.675 1.5 1.5-.675 1.5-1.5 1.5-1.5-.675-1.5-1.5Zm9.239-.661c-2.68-2.68.037-6.521 3.771-5.336 1.57.499 2.028 1.347 1.798 3.333-.343 2.968-3.477 4.095-5.569 2.002Zm3.616-3.514c-1.495-1.801-3.373-.117-2.476 2.22.526 1.371.921 1.451 2.145.435 1.165-.966 1.239-1.56.331-2.655Zm-75.355 2.675c-.837-1.354.293-3 2.059-3 .793 0 1.441.9 1.441 2 0 2.07-2.412 2.76-3.5 1Zm8.965-.057c-.359-.58-.379-2.149-.044-3.484.785-3.126 5.093-4.373 7.341-2.125 2.502 2.502.202 6.666-3.681 6.666-1.63 0-3.257-.475-3.616-1.057Zm6.355-2.693c.258-1.815-.16-2.25-2.167-2.25-2.564 0-3.718 1.524-2.878 3.803.793 2.154 4.689.955 5.045-1.553Zm-29.57-2.28c-7.267-3.228-5.001-5.927 5-5.956 5.233-.015 5.642.669 3.035 5.082-1.986 3.36-2.35 3.4-8.035.875Zm6.55-1.17c2.115-2.114 1.307-2.8-3.3-2.8-4.905 0-5.778 1.078-2.25 2.78 3.001 1.447 4.12 1.453 5.55.02Zm69.888 2.554c-1.416-1.415-.615-3.354 1.386-3.354 1.398 0 1.968.543 1.75 1.667-.357 1.84-2.064 2.76-3.136 1.688Zm-63.242-2.44c-.941-1.523 1.103-3.3 2.97-2.584.899.344 1.302 1.241.96 2.132-.682 1.779-2.948 2.039-3.93.451Z"/><path fill="#37903A" d="M176.426 214.457c-9.802-1.036-11.94-1.829-20.62-7.653-7.508-5.037-8.863-7.55-8.874-16.45-.004-3.649-.678-5.475-3.256-8.835-7.445-9.704-7.736-10.222-6.753-12.059 2.319-4.333 6.483-3.347 8.641 2.047 1.149 2.87 2.471 4.174 5.44 5.362 3.132 1.253 3.922 2.085 3.922 4.127 0 4.063 2.474 7.807 8.704 13.172 6.325 5.447 9.298 7.286 11.778 7.286.888 0 2.605 1.128 3.816 2.506 1.719 1.956 3.252 2.54 6.988 2.663 3.023.1 5.565.835 6.903 1.995 2.327 2.018 6.887 2.401 9.83.826 2.13-1.14 10.981-11.684 10.981-13.081 0-2.617-4.308-.263-8.501 4.645-3.423 4.006-5.334 5.469-6.861 5.25-3.802-.545-3.111-3.755 1.903-8.845 3.081-3.129 4.523-5.349 4.134-6.365-.905-2.358-2.986-1.041-8.658 5.48-4.671 5.371-5.526 5.926-9.117 5.926-2.764 0-4.155-.5-4.597-1.654-.857-2.233 3.425-10.085 6.9-12.654 1.538-1.137 2.797-2.883 2.797-3.88 0-4.308-5.815-.447-11.142 7.397-4.26 6.273-5.875 6.738-10.2 2.934-5.355-4.709-3.467-9.4 5.89-14.632 8.358-4.675 15.309-10.976 13.81-12.519-.863-.889-1.666-.897-3.279-.034-1.754.938-2.601.776-4.742-.908-4.177-3.285-9.993-2.755-15.908 1.45-5.365 3.815-6.663 4.273-5.81 2.052.306-.797-.271-2.866-1.282-4.597l-1.837-3.149 3.894-3.384c4.44-3.857 11.282-7.422 14.246-7.422 1.105 0 3.775 1.824 5.934 4.055 2.16 2.23 7.618 6.519 12.129 9.532 9.843 6.572 16.89 15.118 23.929 29.019 5.311 10.487 5.284 11.121-.637 15.153-7.504 5.11-22.903 7.104-40.495 5.244Zm-118.864-7.116c-18.798-1.942-39.405-10.108-46.089-18.264-9.241-11.278-9.996-25.712-3.479-66.525 2.64-16.526 5.664-25.636 14.143-42.598 14.955-29.915 17.876-34.75 29.734-49.219 4.155-5.07 9.287-11.95 11.404-15.286C70.051 4.769 81.2.867 97.516 3.465c10.731 1.71 17.229 6.54 19.833 14.747.617 1.942.3 1.989-10.143 1.497-14.166-.667-20.705.713-27.472 5.798-6.163 4.63-7.613 6.7-5.312 7.584.988.38 3.128-.607 5.565-2.566 7.252-5.827 10.093-6.58 24.439-6.478 11.03.078 13.608.403 17.007 2.146 4.538 2.326 13.428 11.3 15.868 16.02 2.093 4.046 2.047 4.537-.309 3.276-1.173-.627-11.001-1.035-24.962-1.035-20.817 0-23.558.198-28.544 2.064-7.093 2.654-14.56 10.68-14.56 15.65 0 2.736.434 3.34 2.75 3.829 6.078 1.283 17.002 6 21.177 9.143 9.913 7.465 34.992 12.564 44.024 8.95 7.146-2.859 9.415-1.427 2.996 1.892-2.496 1.29-5.094 1.366-17.686.512-19.093-1.295-23.344-2.456-30.58-8.35-5.524-4.5-7.68-5.141-7.68-2.287 0 1.57 8.253 8.647 12.863 11.028 3.268 1.689 22.228 4.474 30.886 4.538 2.338.019 4.25.397 4.25.844 0 1.082-4.984 5.688-7.5 6.931-1.1.544-5.712 2.237-10.25 3.762-7.802 2.623-10.076 4.579-6.788 5.841.803.308 5.601-.881 10.66-2.643 7.914-2.756 10.204-4.112 16.387-9.704 3.953-3.575 8.831-7.756 10.84-9.292 4.164-3.185 4.459-4.678 1.68-8.498-2.669-3.67-5.284-10.21-4.082-10.21.535 0 1.512 1.8 2.172 4 .799 2.667 1.775 4 2.931 4 1 0 1.991 1.025 2.342 2.422.974 3.883 6.178 5.078 22.108 5.078 11.524 0 14.575-.314 17.25-1.775 3.905-2.134 4.305-.7.616 2.203-1.634 1.284-4.104 2.072-6.5 2.072-3.199 0-3.866.345-3.866 2 0 1.1.563 2.029 1.25 2.064.688.034.238.47-1 .967-1.237.498-2.25 1.594-2.25 2.437 0 2.103 8.26 2.13 10 .034 1.666-2.007 3.337-1.89 5.388.376 4.204 4.646 2.405 13.92-4.029 20.761-4.476 4.76-11.092 5.768-32.359 4.927-24.465-.967-54.79-5.757-73.861-11.667-9.985-3.094-9.97-3.085-7.144-3.828 1.372-.361 2.643-1.424 2.823-2.363.272-1.409-.474-1.706-4.276-1.706-7.62 0-15.542 4.212-15.542 8.263 0 1.585.473 1.835 2.5 1.326 2.304-.578 2.5-.357 2.5 2.814 0 5.104 5.098 8.877 26.304 19.472 23.821 11.902 27.801 12.661 65.758 12.542 22.13-.069 27.093-.348 29.742-1.669 3.985-1.988 4.789-.799 2.591 3.833-2.176 4.585-3.681 5.126-7 2.515-5.438-4.278-14.097-1.558-24.395 7.663-7.49 6.707-9.026 7.435-12.742 6.032-3.7-1.396-8.636.33-10.923 3.822-1.873 2.858-1.031 7.451 1.838 10.033 1.133 1.02 3.358 3.735 4.944 6.034 2.319 3.362 2.883 5.254 2.883 9.661 0 4.85-.342 5.769-2.969 7.98-5.147 4.331-11.018 5.455-32.531 6.228-31.734 1.14-41.46 1.204-49.864.336ZM173.926 101.93c0-.773-1.35-2.944-3-4.823-3.594-4.093-3.683-4.648-.75-4.668 3.184-.023 5.146-1.511 4.434-3.366-.442-1.153-1.404-1.425-3.536-.998-1.61.322-5.409-.136-8.442-1.018-3.032-.881-6.232-1.603-7.11-1.603-3.065 0-1.561 2.936 2.821 5.504 2.429 1.424 5.533 4.03 6.898 5.792 5.738 7.408 8.685 9.166 8.685 5.18Zm-99.75-5.097c1.998-.586 2.39-3.325.5-3.485-5.773-.49-9.75 1.077-9.75 3.84 0 1.45 3.574 1.313 9.25-.355Zm87.75 89.739c0-.55.45-1.278 1-1.618.55-.34 1-.168 1 .382s-.45 1.278-1 1.618c-.55.34-1 .168-1-.382Zm-3-6.899c0-1.773 11.987-10.565 13-9.535.566.575-11.044 11.316-12.231 11.316-.423 0-.769-.801-.769-1.781Zm14-3.596c0-.208.788-.996 1.75-1.75 1.586-1.244 1.622-1.209.378.377-1.306 1.666-2.128 2.196-2.128 1.373Zm-21.837-3.501c-1.905-1.207-1.038-5.53 1.193-5.955 3-.572 4.214 1.4 2.655 4.313-1.471 2.748-1.848 2.909-3.848 1.642Zm-.588-103.289c.715-6.38-.61-11.65-3.612-14.367-1.08-.977-1.963-2.984-1.963-4.461 0-1.477-2.25-6.43-5-11.005-2.75-4.575-5-8.451-5-8.612 0-.977 8.564-2.377 14.569-2.382 8.041-.007 15.929 2.007 22.306 5.695 4.635 2.68 12.125 9.027 12.125 10.275 0 .408-3.828.981-8.507 1.273-9.262.578-13.972 2.577-13.092 5.557.341 1.155-.758 2.567-3.45 4.435-2.381 1.651-3.951 3.539-3.951 4.75 0 2.762.995 2.55 7-1.49 6.208-4.178 8.975-4.719 3.4-.665-3.894 2.833-8.878 7.998-13.181 13.664l-2.279 3 .635-5.667Zm35.925-5.399c-3.309-1.594-6.775-2.412-10.25-2.42-2.887-.009-5.25-.464-5.25-1.014 0-.58 3.259-1 7.778-1 8.127 0 11.166 1.159 13.25 5.051 1.306 2.442.676 2.371-5.528-.617Zm-49.173-6.765c-4.495-3.943-8.207-7.506-8.25-7.919-.042-.412 1.093-.75 2.523-.75 3.61 0 14.736 10.712 14.247 13.715-.304 1.862-1.349 1.243-8.52-5.046Zm-58.327 5.512c0-1.83 5.127-5.141 10.388-6.708 2.812-.837 9.024-1.802 13.804-2.143 8.093-.578 9.076-.433 14.25 2.098 3.057 1.496 5.558 3.136 5.558 3.646 0 .516-5.42.94-12.25.957-11.468.03-23.265 1.056-29.183 2.542-1.518.38-2.567.22-2.567-.392Zm-5.087-3.017c.54-1.01 2.76-3.443 4.933-5.406 4.616-4.17 13.542-6.788 16.764-4.916 1.729 1.004 1.67 1.1-.678 1.128-5.69.067-13.381 3.245-17.272 7.135-4.31 4.31-5.22 4.81-3.747 2.059Zm117.625-1.872c-2.834-2.45-2.856-2.529-.5-1.814 3.036.921 4.3 2.032 3.825 3.36-.2.558-1.696-.138-3.325-1.546Zm-65.63-1.796c-2.424-1.378-6.358-3.44-8.741-4.584-2.383-1.143-4.131-2.28-3.884-2.528.974-.974 14.194 4.639 16.606 7.05 3.253 3.253 1.677 3.277-3.981.062Zm.384-31.762c-2.058-1.432-3.754-3.848-4.729-6.734-1.511-4.475-1.505-4.513 1.209-6.835 6.22-5.322 8.424-6.158 16.228-6.151 8.287.007 15.661 2.674 19.64 7.104 2.792 3.108 9.641 13.934 9.136 14.44-.215.215-3.966-.342-8.334-1.24-6.859-1.408-9.032-1.457-15.942-.36-13.602 2.162-13.786 2.16-17.208-.223Z"/><path fill="#215E22" d="M171.507 215.347c-4.555-.664-7.783-2.058-14-6.045-9.448-6.059-11.581-8.18-11.581-11.518 0-1.459-.425-2.185-1.053-1.797-.579.358-.887 1.146-.685 1.752.617 1.85-5.766 6.653-11.419 8.592-9.102 3.123-63.858 4.538-80.843 2.088-15.3-2.206-31.672-8.856-39.448-16.024-11.77-10.849-12.957-24.982-6.04-71.917 2.642-17.922 5.618-25.777 20.281-53.524C37.665 46.243 41.662 40.047 51.22 28.98c3.788-4.386 7.578-9.336 8.421-11 2.982-5.881 8.123-11.117 13.673-13.925 5.445-2.755 5.997-2.83 17.917-2.433 11.057.369 12.748.674 16.747 3.026 4.272 2.512 10.081 7.806 8.566 7.806-.402 0-.03 1 .826 2.223 2.015 2.877 1.989 6.436-.056 7.58-1.314.736-1.083 1.008 1.25 1.476 1.574.315 4.841 2.07 7.259 3.897 8.597 6.5 8.21 6.267 7.543 4.527-1.649-4.295 14.552-6.941 26.048-4.254 3.843.898 7.99 2.29 9.215 3.092 1.225.802 2.805 1.47 3.512 1.484 2.19.042 10.255 6.515 13.837 11.105 1.875 2.403 2.702 3.812 1.837 3.129-.865-.683-1.884-.93-2.263-.55-.38.379-2.589.591-4.908.47-2.32-.12-4.893.234-5.718.786-1.068.716.745 1.009 6.3 1.02 5.008.011 8.855.561 10.75 1.54 1.623.84 2.95 1.693 2.95 1.897 0 .205-3.139.286-6.975.18-3.837-.104-6.424.16-5.75.589.674.428 2.717.785 4.541.794 6.286.03 10.982 3.968 10.163 8.523l-.539 2.992-2.896-3-2.897-3 2.055 3.5c1.13 1.925 2.302 5.3 2.605 7.5.302 2.2.322 3.201.043 2.225-.55-1.928-11.888-8.128-13.285-7.265-.47.29-1.113-.144-1.429-.966-.421-1.097-2.176-1.494-6.604-1.494-4.695 0-6.032-.333-6.032-1.5 0-.825.364-1.5.809-1.5.445 0 1.682-.69 2.75-1.532 1.747-1.378 1.559-1.38-1.867-.026-5.38 2.126-9.031 4.932-10.703 8.224-.791 1.559-2.486 4.135-3.767 5.724-3.019 3.747-2.66 7.773.778 8.721 1.375.38 2.05.795 1.5.923-.55.129 1.25.584 4 1.012 6.948 1.082 19.271 1.134 19.92.084.296-.48 1.861-1.136 3.477-1.46 1.617-.322 4.639-2.068 6.717-3.878 2.078-1.81 3.391-2.653 2.918-1.872-.645 1.066-.445 1.26.804.782 1.945-.747 2.129.546.516 3.614-1.399 2.66-5.572 7.76-6.314 7.716-4.258-.252-7.538.17-7.538.968 0 .55.874 1 1.941 1 3.364 0 3.283 1.9-.145 3.397-2.596 1.135-2.848 1.457-1.185 1.522 1.161.045 3.74-1.025 5.731-2.376l3.622-2.457 2.518 3.301c1.385 1.816 2.518 3.674 2.518 4.129 0 .455.763 1.67 1.694 2.699 1.422 1.57 1.444 1.775.137 1.274-1.192-.457-1.703.307-2.174 3.254-.785 4.911-5.612 12.222-9.632 14.589-4.563 2.687-19.027 3.788-34.025 2.589-30.506-2.438-44.185-4.655-67.5-10.938-15.98-4.306-16.91-4.429-18.836-2.503-.915.915-1.664 2.946-1.664 4.514 0 4.404 5.94 8.705 25.482 18.455 23.56 11.754 29.368 12.881 65.747 12.755 20.154-.07 26.437-.403 29-1.539 5.625-2.494 6.771-2.697 6.771-1.198 0 2.169-1.896 6.71-4.241 10.157l-2.125 3.124-3.967-2.874c-2.182-1.58-5.163-2.874-6.626-2.874-3.437 0-12.553 5.514-19.811 11.983-5.672 5.055-5.766 5.094-10.854 4.459-5.224-.653-9.376.564-9.376 2.749 0 .631.798.397 1.829-.536 1.006-.91 2.806-1.655 4-1.655 2.343 0 6.147 3.216 6.21 5.25.023.688.675-.212 1.452-2 1.132-2.604 1.994-3.25 4.338-3.25 3.986 0 5.686 2.138 4.124 5.186-1.131 2.206-1.102 2.234.608.601 1.725-1.647 1.719-1.853-.133-5.346l-1.928-3.632 4.5-4.002c5.29-4.703 14.238-9.183 16.75-8.386.971.308 3.895 2.601 6.499 5.096 2.603 2.494 7.402 6.1 10.664 8.012 7.067 4.141 15.614 13.328 21.374 22.971 10.242 17.151 10.261 20.229.153 25.307-9.74 4.894-27.178 6.519-43.859 4.086Zm37.008-2.288c5.555-1.732 11.117-5.13 12.784-7.81.836-1.344.042-3.717-3.741-11.189-7.039-13.901-14.086-22.447-23.929-29.019-4.511-3.012-9.969-7.302-12.128-9.532-2.16-2.23-4.83-4.055-5.935-4.055-2.964 0-9.806 3.565-14.246 7.423l-3.894 3.383 1.837 3.149c1.011 1.732 1.587 3.8 1.282 4.597-.853 2.221.445 1.763 5.81-2.052 5.915-4.205 11.731-4.735 15.908-1.449 2.141 1.684 2.988 1.846 4.742.907 1.613-.863 2.416-.855 3.279.034 1.499 1.544-5.452 7.845-13.81 12.519-9.357 5.233-11.245 9.923-5.89 14.632 4.325 3.804 5.94 3.34 10.2-2.933 5.327-7.845 11.142-11.705 11.142-7.397 0 .996-1.259 2.742-2.797 3.88-3.475 2.569-7.757 10.421-6.9 12.653.442 1.154 1.833 1.655 4.597 1.655 3.591 0 4.446-.556 9.117-5.926 5.672-6.522 7.753-7.839 8.658-5.48.389 1.015-1.053 3.236-4.134 6.364-5.014 5.091-5.705 8.3-1.903 8.845 1.527.219 3.438-1.244 6.861-5.25 4.193-4.908 8.501-7.262 8.501-4.645 0 1.397-8.851 11.942-10.981 13.081-2.943 1.575-7.503 1.192-9.83-.826-1.338-1.16-3.88-1.895-6.903-1.994-3.736-.123-5.269-.708-6.988-2.664-1.211-1.378-2.928-2.505-3.816-2.505-2.48 0-5.453-1.839-11.778-7.287-6.23-5.365-8.704-9.109-8.704-13.172 0-2.042-.79-2.874-3.922-4.127-2.969-1.188-4.291-2.491-5.44-5.362-2.158-5.394-6.322-6.38-8.641-2.046-.983 1.836-.692 2.354 6.753 12.058 2.578 3.36 3.251 5.187 3.256 8.836.011 8.9 1.366 11.412 8.874 16.449 3.77 2.53 8.151 5.096 9.737 5.703 7.913 3.032 33.943 3.366 42.972.552Zm-6.789-5.021c2.751-1.443 10.957-10.584 9.5-10.583-.44 0-2.737 2.25-5.105 5-4.445 5.161-8.3 6.494-10.995 3.799-2.027-2.027-1.379-3.693 3.437-8.843 2.55-2.726 4.163-4.957 3.584-4.957-.579 0-2.472 1.792-4.206 3.981-4.925 6.219-8.319 8.24-12.517 7.453-1.953-.367-3.958-1.425-4.454-2.351-1.185-2.215 1.621-8.488 6.075-13.579 2.164-2.475 2.661-3.467 1.381-2.756-1.1.61-3.833 3.729-6.074 6.931-5.169 7.384-7.926 8.021-12.956 2.991-1.908-1.909-3.47-4.249-3.47-5.202 0-3.465 3.994-8.138 9.222-10.789 2.903-1.472 7.303-4.522 9.778-6.778 2.731-2.489 3.433-3.472 1.785-2.501-3.492 2.058-4.947 2.028-4.579-.094.335-1.93-3.492-4.269-7.021-4.291-2.806-.019-5.056 1.137-10.887 5.587-3.61 2.756-5.343 3.398-9.174 3.398-2.598 0-5.355-.562-6.125-1.25-1.193-1.063-1.205-.989-.078.5.728.963 1.944 1.75 2.702 1.75 2.565 0 5.377 3.88 5.377 7.421 0 2.953.921 4.252 6.75 9.518 3.713 3.354 8.219 6.505 10.015 7.003 1.796.498 4.643 2.064 6.327 3.482 2.215 1.864 4.216 2.578 7.235 2.583 2.481.004 5.39.812 7.173 1.993 3.587 2.375 3.845 2.396 7.3.584Zm-40.8-21.012c0-1.556 16.558-18.572 18.072-18.572 3.061 0-1.738 7.133-7.058 10.492-2.075 1.309-4.763 3.984-5.974 5.944-2.219 3.59-5.04 4.785-5.04 2.136Zm3-1.69c0-.55-.45-.722-1-.382-.55.34-1 1.068-1 1.618s.45.722 1 .382c.55-.34 1-1.068 1-1.618Zm11.128-10.632c1.244-1.586 1.208-1.621-.378-.377-.962.754-1.75 1.542-1.75 1.75 0 .823.821.293 2.128-1.373Zm-17.128 5.494c0-2.947.736-3.75 7.743-8.457 7.351-4.938 10.071-5.571 8.712-2.031-.766 1.998-13.902 13.744-15.37 13.744-.596 0-1.085-1.465-1.085-3.256Zm8.519-4.148c3.29-2.972 5.756-5.633 5.481-5.912-1.013-1.03-13 7.762-13 9.535 0 2.728 1.047 2.224 7.519-3.623Zm-59.019 30.953c21.513-.773 27.384-1.897 32.531-6.228 2.627-2.211 2.969-3.13 2.969-7.98 0-4.407-.564-6.299-2.883-9.661-1.586-2.299-3.811-5.014-4.944-6.034-2.87-2.582-3.711-7.175-1.839-10.033 2.288-3.491 7.224-5.218 10.924-3.822 3.715 1.403 5.252.676 12.742-6.032 10.298-9.221 18.956-11.941 24.395-7.663 3.319 2.611 4.824 2.07 7-2.515 2.198-4.632 1.394-5.821-2.592-3.833-2.648 1.322-7.612 1.6-29.741 1.669-37.957.119-41.937-.64-65.758-12.542-21.206-10.595-26.304-14.368-26.304-19.472 0-3.171-.196-3.392-2.5-2.813-2.027.508-2.5.258-2.5-1.326 0-4.052 7.921-8.264 15.541-8.264 3.803 0 4.549.298 4.277 1.706-.18.939-1.45 2.002-2.823 2.363-2.825.743-2.841.734 7.143 3.828 19.072 5.91 49.396 10.7 73.862 11.667 21.267.841 27.883-.167 32.359-4.927 6.433-6.841 8.233-16.115 4.029-20.76-2.051-2.267-3.722-2.384-5.388-.377-1.741 2.098-10 2.071-10-.034 0-.843 1.013-1.94 2.25-2.436 1.238-.498 1.688-.933 1-.968-.687-.034-1.25-.964-1.25-2.064 0-1.655.667-2 3.865-2 2.396 0 4.867-.787 6.5-2.072 3.69-2.903 3.29-4.337-.615-2.203-2.675 1.461-5.726 1.775-17.25 1.775-15.93 0-21.134-1.195-22.109-5.077-.35-1.398-1.341-2.423-2.341-2.423-1.156 0-2.132-1.332-2.932-4-.659-2.2-1.636-4-2.171-4-1.203 0 1.412 6.54 4.082 10.21 2.779 3.82 2.484 5.313-1.68 8.498-2.009 1.536-6.887 5.717-10.84 9.292-6.183 5.592-8.473 6.948-16.387 9.704-5.06 1.762-9.857 2.951-10.661 2.643-3.287-1.261-1.013-3.218 6.789-5.84 4.538-1.526 9.15-3.219 10.25-3.762 2.516-1.244 7.5-5.85 7.5-6.932 0-.447-1.912-.827-4.25-.844-8.658-.063-27.618-2.849-30.886-4.538-4.61-2.381-12.864-9.458-12.864-11.028 0-2.854 2.156-2.212 7.68 2.287 7.236 5.894 11.487 7.055 30.58 8.35 12.593.854 15.19.779 17.687-.512 6.418-3.32 4.15-4.75-2.996-1.891-9.032 3.613-34.111-1.486-44.024-8.95-4.175-3.144-15.099-7.861-21.177-9.144-7.448-1.573.944-15.414 11.81-19.479 4.986-1.865 7.727-2.064 28.543-2.064 13.962 0 23.79.408 24.963 1.035 2.356 1.261 2.402.77.309-3.276-2.44-4.719-11.33-13.694-15.868-16.02-3.4-1.743-5.977-2.068-17.007-2.146-14.346-.102-17.187.651-24.439 6.478-2.437 1.959-4.577 2.945-5.565 2.566-2.301-.883-.85-2.954 5.312-7.584 6.767-5.085 13.306-6.465 27.472-5.798 10.443.492 10.76.445 10.143-1.497-2.604-8.206-9.102-13.037-19.833-14.747C81.2.865 70.05 4.767 63.275 15.447c-2.117 3.337-7.249 10.216-11.404 15.286-11.858 14.47-14.779 19.304-29.734 49.22-8.48 16.962-11.504 26.071-14.143 42.598-6.517 40.812-5.762 55.246 3.48 66.524 4.384 5.351 18.108 12.374 30.088 15.398 15.028 3.793 22.576 4.085 65.864 2.53Zm62.458-104.777c-1.189-1.249-3.278-3.714-4.643-5.476-1.365-1.762-4.469-4.368-6.898-5.792-4.382-2.568-5.886-5.504-2.821-5.504.878 0 4.078.722 7.11 1.603 3.033.882 6.832 1.34 8.442 1.018 2.132-.427 3.094-.155 3.536.998.712 1.855-1.25 3.344-4.434 3.366-2.933.019-2.844.575.75 4.668 1.65 1.88 3 4.05 3 4.823 0 2.494-1.824 2.628-4.042.296Zm-.843-5.448c-1.713-2.079-3.115-4.07-3.115-4.427 0-.356 1.463-.99 3.25-1.409 3.114-.73 3.02-.795-2.262-1.559-3.032-.438-6.744-1.266-8.25-1.838-4.016-1.527-3.336.067 1.232 2.89 2.184 1.35 5.605 4.41 7.603 6.8 1.998 2.39 3.864 4.116 4.145 3.834.282-.281-.889-2.213-2.603-4.291Zm-104.115.41c0-2.763 3.977-4.33 9.75-3.84 1.89.16 1.498 2.899-.5 3.486-5.676 1.667-9.25 1.804-9.25.354Zm6.5-1.734 2-.86-2-.054c-1.1-.03-2.675.381-3.5.914-1.333.862-1.333.964 0 .915.825-.03 2.4-.442 3.5-.915Zm71.183 87.271c-3.504-5.062-7.672-9.95-7.678-9.007-.003.421 2.02 3.251 4.495 6.289 2.475 3.039 4.5 6.032 4.5 6.653 0 .62.291.837.647.481.355-.355-.529-2.343-1.964-4.416Zm12.328-11.791c1.559-2.913.345-4.885-2.655-4.313-2.231.425-3.098 4.748-1.193 5.955 2 1.267 2.377 1.106 3.848-1.642Zm-82.93-67.48c2.09 0 4.122-.518 4.513-1.152.52-.841-.479-.964-3.69-.455-5.17.819-11.126 3.565-11.694 5.391-.22.707 1.281.144 3.335-1.25 2.377-1.613 5.116-2.534 7.536-2.534Zm44.553 1.625c9.38-3.191 12.234-4.786 16.366-9.15 1.925-2.034 5.863-5.462 8.75-7.618 5.557-4.149 6.562-6.804 3.425-9.05-1.003-.719-2.662-3.656-3.687-6.528-2.227-6.245-7.087-11.15-13.988-14.119-2.75-1.182-4.297-1.59-3.438-.905.859.685 1.847 2.005 2.195 2.933.862 2.3-1.4 2.514-14.608 1.385-8-.684-11.346-.619-12.736.25-1.037.648-3.804 1.184-6.15 1.191-9.312.03-11.772 2.965-4.785 5.71 2.188.86 4.218 2.318 4.511 3.241 1.407 4.433 19.554 10.673 31.639 10.88 5.14.09 9.397-.477 13.055-1.736 4.616-1.588 5.703-1.665 7.271-.519 1.558 1.14 1.638 1.595.517 2.945-3.831 4.616-10.161 5.33-30.471 3.44-13.856-1.291-16.327-2.113-22.692-7.546-2.84-2.424-5.42-4.145-5.735-3.825-.892.908 6.965 7.345 11.563 9.474 4.036 1.868 18.159 3.87 27.549 3.905 2.577.011 5.951.499 7.498 1.087l2.812 1.07-4.525 4.275c-2.786 2.632-6.821 5.108-10.497 6.441-6.366 2.309-12.348 4.975-11.398 5.08.316.034 3.718-1.005 7.559-2.311Zm41.365-40.039c1.926-2.152 5.256-5.19 7.401-6.75 5.575-4.054 2.808-3.513-3.4.664-6.005 4.041-7 4.253-7 1.49 0-1.21 1.57-3.098 3.951-4.75 2.692-1.867 3.791-3.28 3.45-4.434-.88-2.98 3.83-4.98 13.092-5.557 4.679-.292 8.507-.865 8.507-1.273 0-1.248-7.49-7.594-12.125-10.275-6.377-3.688-14.265-5.702-22.306-5.695-6.005.005-14.569 1.405-14.569 2.382 0 .161 2.25 4.037 5 8.612 2.75 4.576 5 9.528 5 11.005 0 1.477.883 3.484 1.963 4.461 3.002 2.717 4.327 7.987 3.612 14.367l-.635 5.667 2.279-3c1.253-1.65 3.854-4.761 5.78-6.914Zm-9.098 1.473c.088-2.168-.04-2.255-1.151-.776-1.112 1.48-2.274.728-10.518-6.809-5.098-4.66-9.801-8.474-10.45-8.474-.718 0-.809.318-.232.809 10.41 8.856 18.501 16.898 19.55 19.43 1.324 3.197 1.325 3.198 2.013.73.378-1.358.733-3.567.788-4.91Zm-65.9-.059c0-1.467-.667-2-2.5-2-3.016 0-3.412-2.865-.733-5.29 2.558-2.315 10.319-5.66 13.232-5.703 1.375-.02 3.175-.507 4-1.081 1.085-.755.258-.854-2.987-.357-7.569 1.159-12.327 3.332-16.715 7.634-3.56 3.49-4.44 3.924-5.75 2.836-.852-.706-1.548-.869-1.548-.361 0 1.63 2.336 3.322 4.586 3.322 1.202 0 3.475.672 5.05 1.494 3.566 1.86 3.364 1.89 3.364-.494Zm109.027-1.949c-2.084-3.892-5.123-5.05-13.25-5.05-4.519 0-7.778.418-7.778 1 0 .55 2.363 1.005 5.25 1.012 3.475.008 6.941.827 10.25 2.421 6.204 2.988 6.834 3.059 5.528.617ZM140.122 54.25c-4.177-4.037-6.786-5.796-8.596-5.796-1.43 0-2.565.338-2.523.75.043.413 3.755 3.976 8.25 7.919 7.171 6.29 8.216 6.908 8.52 5.046.249-1.527-1.336-3.749-5.651-7.919Zm-48.88 7.2c3.952-.514 12.697-.948 19.434-.965 6.83-.019 12.25-.44 12.25-.957 0-.51-2.501-2.15-5.558-3.646-5.174-2.532-6.157-2.676-14.25-2.098-10.044.717-17.792 2.78-21.554 5.74-3.386 2.664-3.42 4.343-.07 3.503 1.41-.354 5.798-1.065 9.749-1.578Zm-13.656-3.891c3.89-3.89 11.582-7.068 17.272-7.135 2.349-.027 2.407-.124.679-1.128-3.223-1.872-12.149.746-16.765 4.916-3.53 3.19-6.607 7.242-5.499 7.242.23 0 2.17-1.753 4.313-3.895Zm69.873.959c-.835-1.616-1.937-3.196-2.449-3.512-.511-.316-1.23-1.944-1.598-3.616-.367-1.673-1.189-2.864-1.827-2.646-.637.218-2.867-.49-4.955-1.572-3.551-1.841-5.268-1.933-26.595-1.421-26.11.626-29.31 1.45-35.647 9.184-5.085 6.206-4.218 6.252 1.788.094 3.518-3.606 6.57-5.742 9.25-6.473 4.733-1.29 28.356-1.476 31.685-.248 5.493 2.025 7.815 2.223 7.815.665 0-1.164 1.217-1.519 5.208-1.519 5.14 0 5.292.09 11.75 6.893 3.598 3.79 6.666 6.94 6.818 7 .152.059-.408-1.214-1.243-2.83Zm20.221-4.547c3.251-1.194 3.409-1.385 1.192-1.446-2.865-.08-11.946 5.261-11.946 7.026 0 .627 1.577-.062 3.504-1.532s5.189-3.291 7.25-4.048Zm26.609 3.508c-.475-.44-1.971-1.136-3.325-1.547-2.356-.715-2.334-.636.5 1.813 1.629 1.41 3.125 2.105 3.325 1.548.199-.558-.027-1.374-.5-1.814Zm-64.474-1.59c-2.412-2.413-15.632-8.025-16.606-7.05-.247.246 1.501 1.384 3.884 2.527 2.383 1.144 6.317 3.206 8.741 4.584 5.658 3.215 7.234 3.19 3.981-.061Zm-8.886-.932c-2.751-3.315-15.766-5.538-20.503-3.503-1.357.583.571.896 6 .972 5.836.081 8.947.63 11.5 2.028 4.288 2.348 4.573 2.395 3.003.503Zm49.666-7.167c-.702-.703-5.669.804-5.669 1.72 0 .462 1.373.361 3.051-.224 1.678-.585 2.856-1.258 2.618-1.496ZM81.94 27.29c1.933-1.535 4.98-3.085 6.771-3.443 1.791-.358 3.529-1.091 3.861-1.63.37-.598-.315-.711-1.77-.29a299.45 299.45 0 0 1-4.376 1.224c-2.413.65-10.425 6.475-10.469 7.612-.038.996 1.43.144 5.983-3.473Zm25.986-5.836c-3.332-1.067-10.016-1.067-12.5 0-1.318.566.899.85 6.5.83 5.707-.02 7.679-.292 6-.83Zm21.942 119.609c-.278-.278-4.991-1.172-10.473-1.987-9.011-1.34-11.458-2.222-25.469-9.182-23.972-11.909-28.754-15.658-25.555-20.034 1.145-1.565 1.912-1.486 10.645 1.1 5.175 1.533 12.56 3.421 16.41 4.197 3.85.775 11.05 2.266 16 3.312 12.329 2.606 21.108 3.685 41 5.04 29.589 2.015 37.221-.251 44.548-13.23 2.073-3.671 3.698-6.827 3.611-7.012-.087-.185.404.317 1.091 1.116 2.176 2.53 1.434 6.792-1.829 10.508-1.693 1.929-3.454 4.757-3.914 6.285-.756 2.517-.843 2.561-.921.469-.081-2.173-.384-2.058-5.13 1.944-4.839 4.08-5.381 4.276-13.284 4.809-12.069.814-38.173-.523-45.672-2.339-3.575-.867-9.005-1.582-12.066-1.59-3.062-.008-8.237-.499-11.5-1.091-7.022-1.273-25.953-7.563-29.235-9.713-1.584-1.038-2.624-1.186-3.335-.475-3.552 3.552 22.771 12.995 39.971 14.339 5.866.458 13.815 1.533 17.665 2.387 8.711 1.934 33.077 3.067 44.825 2.084 7.763-.649 9.222-1.087 12.132-3.642 3.779-3.318 5.5-3.67 5.643-1.154.066 1.167.367.917.9-.75l.801-2.5.082 2.5c.044 1.375-1.261 4.48-2.901 6.901-1.64 2.42-2.982 3.813-2.982 3.095 0-.958-.475-.875-1.786.311-4.247 3.843-8.046 4.36-33.74 4.586-13.765.122-25.254-.007-25.532-.284Zm66.931-87.359c-1.244-1.586-1.209-1.621.377-.377 1.666 1.306 2.196 2.127 1.373 2.127-.208 0-.995-.787-1.75-1.75ZM164.426 27.42c-8.626-2.358-19.965-2.5-27.64-.346l-5.772 1.62-4.542-2.87c-3.78-2.389-4.847-3.784-6.36-8.32l-1.819-5.449 4.067-3.305c6.669-5.42 10.143-6.587 18.061-6.068 7.857.516 15.234 3.68 19.648 8.429 3.226 3.47 12.816 18.53 11.642 18.283-.156-.033-3.435-.921-7.285-1.974Zm-21-3.007c6.91-1.098 9.083-1.049 15.942.36 4.368.897 8.119 1.454 8.334 1.239.505-.506-6.344-11.332-9.136-14.44-3.979-4.43-11.353-7.098-19.64-7.104-7.804-.007-10.008.829-16.228 6.151-2.713 2.322-2.72 2.36-1.209 6.835 1.853 5.486 6.506 9.145 10.937 8.6 1.65-.204 6.6-.942 11-1.641Z"/><path fill="#102A11" d="M194.426 207.454c-1.783-1.181-4.692-1.989-7.173-1.993-3.019-.004-5.02-.719-7.235-2.583-1.685-1.417-4.532-2.984-6.327-3.482-1.796-.498-6.302-3.649-10.015-7.003-5.829-5.266-6.75-6.565-6.75-9.518 0-3.541-2.812-7.421-5.377-7.421-.758 0-1.974-.787-2.702-1.75-1.127-1.489-1.115-1.563.077-.5.771.688 3.528 1.25 6.126 1.25 3.831 0 5.564-.642 9.174-3.398 5.831-4.45 8.08-5.605 10.886-5.587 3.53.023 7.357 2.361 7.022 4.291-.368 2.122 1.087 2.152 4.579.094 1.648-.971.946.011-1.785 2.501-2.475 2.256-6.875 5.306-9.778 6.778-5.228 2.651-9.222 7.324-9.222 10.789 0 .953 1.561 3.293 3.469 5.202 5.031 5.03 7.788 4.393 12.956-2.991 2.242-3.202 4.975-6.321 6.075-6.931 1.28-.711.783.281-1.381 2.756-4.454 5.091-7.26 11.364-6.075 13.579.496.926 2.501 1.984 4.454 2.351 4.197.787 7.591-1.234 12.517-7.453 1.734-2.189 3.627-3.981 4.206-3.981.579 0-1.034 2.231-3.584 4.957-4.817 5.15-5.464 6.816-3.437 8.843 2.695 2.695 6.55 1.362 10.995-3.799 5.398-6.269 7.262-6.638 2.105-.417-3.426 4.133-7.872 7.427-10 7.41-.44-.004-2.15-.901-3.8-1.994Zm-28.46-22.564c1.211-1.96 3.899-4.635 5.974-5.944 5.32-3.359 10.119-10.492 7.058-10.492-1.514 0-18.072 17.016-18.072 18.572 0 2.649 2.821 1.454 5.04-2.136Zm.968-7.512c3.76-3.343 7.112-6.793 7.447-7.668 1.359-3.54-1.361-2.907-8.712 2.031-7.007 4.707-7.743 5.51-7.743 8.457 0 1.791.488 3.256 1.085 3.256s4.162-2.734 7.923-6.076Zm56.062 26.326c-.038-2.337.103-4.25.314-4.25.849 0 1.221 4.762.513 6.569-.535 1.366-.777.688-.827-2.319Zm-78.624-5.337c-.369-.598-.171-1.588.441-2.2.818-.817 1.113-.528 1.113 1.087 0 2.415-.519 2.787-1.554 1.113Zm-.446-11.707c0-.62-2.025-3.614-4.5-6.653-2.475-3.038-4.498-5.868-4.495-6.289.008-.943 4.174 3.946 7.678 9.007 1.435 2.073 2.319 4.061 1.964 4.416-.356.356-.647.139-.647-.481ZM.703 168.704c-.276-2.612-.176-7.225.22-10.25.632-4.814.74-4.221.862 4.75.078 5.638-.022 10.25-.22 10.25s-.586-2.137-.862-4.75Zm156.176 1.936c1.562-3.048-.138-5.186-4.124-5.186-2.344 0-3.206.646-4.338 3.25-.777 1.788-1.43 2.688-1.452 2-.063-2.034-3.867-5.25-6.21-5.25-1.194 0-2.994.745-4 1.655-1.031.933-1.829 1.167-1.829.535 0-2.184 4.152-3.401 9.376-2.749 5.088.636 5.182.597 10.854-4.458 7.195-6.413 16.366-11.983 19.729-11.983 2.723 0 10.041 4.4 10.041 6.036 0 1.585-1.054 1.124-4.653-2.036-1.879-1.65-3.963-2.995-4.632-2.99-2.559.019-11.408 4.977-15.715 8.802l-4.5 3.997 1.928 3.632c1.852 3.493 1.858 3.699.133 5.346-1.71 1.633-1.739 1.605-.608-.601Zm-22.953-27.217c-19.169-1.522-24.608-3.086-43.49-12.507-19.57-9.762-25.51-14.063-25.51-18.468 0-1.568.749-3.6 1.664-4.515 1.926-1.925 2.856-1.802 18.836 2.504 23.315 6.283 36.994 8.499 67.5 10.938 14.998 1.198 29.462.098 34.025-2.589 4.003-2.357 8.846-9.672 9.624-14.534.651-4.076 1.698-4.787 3.171-2.155 1.376 2.459-5.565 14.17-10.43 17.598-5.978 4.212-15.932 5.242-36.89 3.814-19.892-1.355-28.671-2.434-41-5.04a2093.19 2093.19 0 0 0-16-3.312c-3.85-.776-11.235-2.664-16.41-4.197-8.733-2.586-9.5-2.665-10.645-1.1-3.199 4.375 1.58 8.123 25.555 20.036 20.317 10.095 24.244 10.822 60 11.099 27.547.213 30.721-.168 35.214-4.234 1.672-1.514 1.786-1.448 1.786 1.038 0 1.559-.556 2.655-1.346 2.655-.741 0-2.653.624-4.25 1.387-3.538 1.69-37.056 2.722-51.404 1.582Zm7.517-12.04c-3.84-.445-9.015-1.323-11.5-1.953-2.484-.629-9.316-1.501-15.182-1.939-17.128-1.277-43.543-10.728-39.97-14.301.71-.711 1.75-.563 3.334.475 3.282 2.15 22.213 8.44 29.235 9.713 3.263.592 8.438 1.083 11.5 1.091 3.061.008 8.491.723 12.066 1.59 7.499 1.816 33.603 3.154 45.672 2.339 7.877-.531 8.457-.739 13.198-4.737l4.959-4.181.685 4.054c.377 2.23.415 4.325.086 4.654-.33.33-.6-.151-.6-1.067 0-2.432-1.999-2.042-5.186 1.011-1.942 1.862-4.399 2.907-8.054 3.427-6.811.97-31.269.863-40.243-.176Zm-80.307-24.145c.568-1.826 6.524-4.572 11.693-5.391 3.212-.509 4.21-.386 3.691.455-.391.634-2.422 1.152-4.513 1.152-2.42 0-5.16.921-7.536 2.534-2.054 1.394-3.555 1.957-3.335 1.25Zm50.29-1.337c1.65-.784 5.688-2.4 8.972-3.591 3.677-1.333 7.712-3.81 10.498-6.441l4.525-4.276-2.812-1.07c-1.547-.588-4.921-1.077-7.498-1.086-9.39-.034-23.514-2.037-27.549-3.905-4.599-2.13-12.456-8.566-11.563-9.474.315-.32 2.895 1.4 5.735 3.825 6.365 5.433 8.836 6.255 22.692 7.545 20.31 1.892 26.64 1.177 30.471-3.44 1.122-1.351 1.035-1.81-.571-2.983-1.043-.763-1.571-1.713-1.172-2.111 1.078-1.08 3.772 1.528 3.772 3.651 0 1.063-2.228 3.51-5.25 5.766-2.887 2.156-6.825 5.584-8.75 7.617-4.132 4.365-6.986 5.96-16.366 9.151-7.825 2.661-9.605 2.946-5.134.822Zm56.073-8.665c-1.998-2.39-5.419-5.45-7.603-6.8-4.569-2.824-5.248-4.418-1.232-2.891 1.506.572 5.218 1.4 8.25 1.838 5.282.764 5.376.83 2.262 1.56-1.787.418-3.25 1.052-3.25 1.408 0 .356 1.402 2.348 3.115 4.427 1.714 2.078 2.885 4.01 2.603 4.291-.281.282-2.147-1.443-4.145-3.834Zm-99.573-1.782c.825-.533 2.4-.944 3.5-.914l2 .055-2 .859c-1.1.473-2.675.884-3.5.915-1.333.048-1.333-.053 0-.915Zm115.796-2.603c3.428-1.498 3.51-3.397.145-3.397-1.068 0-1.941-.45-1.941-1s1.575-1 3.5-1 3.838-.022 4.25-.053c.413-.03.893.634 1.068 1.474.374 1.795-5.398 5.608-8.318 5.494-1.471-.057-1.127-.46 1.296-1.518Zm-75.07-11.912c-4.275-1.311-9.542-3.377-11.703-4.592-4.158-2.337-5.973-4.893-3.475-4.893 1.345 0 3.328-3.393 4.902-8.39.556-1.765 1.348-1.844 11.808-1.182 6.167.39 11.431.928 11.697 1.194.744.744.428 13.466-.425 17.128-.923 3.962-2.064 4.028-12.804.735Zm9.109-6.081c4.505-3.156.796-8.924-4.257-6.621-3.049 1.39-3.533 5.561-.828 7.137 2.316 1.35 2.439 1.337 5.085-.516Zm-11.308-.448c.355-.574.083-1.721-.605-2.55-1.094-1.318-1.432-1.324-2.704-.052-.8.8-1.15 1.947-.777 2.55.859 1.39 3.241 1.42 4.086.052Zm-.739-7.091c.365-1.899-1.908-3.027-3.774-1.873-1.815 1.122-.414 4.232 1.722 3.82.958-.184 1.881-1.06 2.052-1.947Zm55.39 15.418c-3.164-.297-4.07-.723-3.383-1.594 1.576-1.995 2.475-11.904 1.155-12.72-2.712-1.676 4.322-8.312 11.561-10.909 2.766-.991 2.844-.959 1.048.434-1.068.829-2.305 1.506-2.75 1.506-.445 0-.809.654-.809 1.453 0 1.08 1.575 1.528 6.14 1.75l6.14.297 1.379 5.404c.758 2.971 1.065 6.346.682 7.5-.384 1.153-.73 3.221-.769 4.596-.07 2.445-.25 2.502-8.072 2.594-4.4.051-9.945-.089-12.322-.311Zm6.443-7.828c-.526-1.37-.921-1.45-2.145-.435-1.165.967-1.239 1.561-.331 2.655 1.495 1.802 3.373.118 2.476-2.22Zm11.879-1.955c0-2.393-.478-3.067-2.365-3.334-3.173-.45-4.53 1.125-3.727 4.324.541 2.155 1.158 2.58 3.377 2.323 2.281-.263 2.715-.793 2.715-3.313Zm-11.836-3.067c.834-2.172-1.282-4.215-2.797-2.7-1.28 1.28-.487 4.267 1.133 4.267.585 0 1.334-.705 1.664-1.567Zm27.231 4.765c1.379-2.578.442-7.69-2.236-12.198l-2.079-3.5 3.103 3.066c2.756 2.724 3.087 3.664 2.96 8.417-.093 3.494-.61 5.506-1.49 5.8-1.061.353-1.116.015-.258-1.585Zm-48.795-3.958c-1.05-2.533-9.141-10.575-19.55-19.431-.577-.491-.486-.809.232-.809.649 0 5.352 3.813 10.45 8.474 8.243 7.537 9.406 8.29 10.518 6.809 1.11-1.479 1.239-1.392 1.15.776-.054 1.343-.409 3.552-.787 4.91-.688 2.468-.689 2.467-2.013-.73Zm-66.464-3.746c-1.575-.822-3.848-1.494-5.05-1.494-2.25 0-4.586-1.692-4.586-3.322 0-.508.697-.345 1.548.361 1.31 1.088 2.19.655 5.75-2.836 4.388-4.302 9.146-6.475 16.715-7.634 3.245-.497 4.072-.398 2.987.357-.825.574-2.625 1.06-4 1.08-2.913.044-10.674 3.39-13.232 5.704-2.68 2.425-2.283 5.29.732 5.29 1.834 0 2.5.534 2.5 2 0 2.383.202 2.354-3.364.494Zm46.645-6.244c-.362-.962-1.36-2.31-2.219-2.995-.859-.685.688-.295 3.438.867 6.833 2.887 7.643 3.878 3.169 3.878-2.637 0-3.924-.513-4.388-1.75Zm15.677-6.357c-6.458-6.804-6.61-6.893-11.75-6.893-3.992 0-5.208.355-5.208 1.52 0 1.557-2.322 1.36-7.815-.666-3.329-1.228-26.952-1.042-31.685.248-2.68.73-5.732 2.867-9.25 6.473-6.006 6.158-6.873 6.113-1.788-.094 6.337-7.733 9.537-8.558 35.647-9.184 21.327-.512 23.044-.42 26.595 1.421 2.088 1.082 4.318 1.79 4.955 1.572.638-.218 1.46.973 1.827 2.646s1.087 3.3 1.598 3.616c.827.511 4.377 6.608 3.692 6.34-.152-.058-3.22-3.208-6.818-7Zm15.042 5.204c0-1.765 9.081-7.105 11.946-7.026 2.216.06 2.059.252-1.192 1.446-2.061.757-5.323 2.579-7.25 4.048-1.927 1.47-3.504 2.16-3.504 1.532Zm38.3-2.45c-1.236-2.094-4.831-3.645-8.484-3.662-1.824-.008-3.867-.366-4.541-.794-.674-.428 1.968-.691 5.872-.585 5.593.153 7.521.618 9.097 2.193 1.099 1.1 1.693 2.495 1.319 3.1-.923 1.492-2.295 1.386-3.263-.253Zm-77.3-2.647c-2.553-1.398-5.664-1.946-11.5-2.028-5.429-.077-7.357-.389-6-.972 4.737-2.035 17.752.189 20.503 3.503 1.57 1.892 1.285 1.845-3.003-.503Zm47-4.943c0-.916 4.967-2.424 5.669-1.721.238.238-.94.912-2.618 1.497-1.678.584-3.051.685-3.051.224Zm10-2.092c.825-.552 3.319-.91 5.541-.796 2.222.114 4.534-.097 5.137-.47.602-.372 1.652-.007 2.331.812 1.077 1.298.223 1.487-6.636 1.474-5.604-.011-7.44-.305-6.373-1.02Zm-46.073-17.526c-4.94-4.127-9.072-6.426-11.627-6.47-1.701-.028-1.704-.086-.05-1.049 2.151-1.252 2.26-4.747.24-7.632-.87-1.241-1.111-2.404-.569-2.739 1.161-.717 1.407-.291 3.446 5.951 1.33 4.07 2.478 5.534 6.177 7.87l4.544 2.87 5.772-1.62c3.174-.891 9.117-1.608 13.206-1.594 8.707.032 20.772 2.933 22.106 5.317 1.176 2.1-.426 2.192-3.469.198-4.231-2.772-15.683-4.776-23.159-4.052-7.888.763-12.994 2.896-12.156 5.079.797 2.077.276 1.829-4.461-2.129Zm-52.896.87c.044-1.137 8.056-6.963 10.47-7.612 1.1-.296 3.068-.847 4.374-1.225 1.456-.42 2.142-.307 1.771.292-.332.538-2.07 1.27-3.86 1.63-1.792.357-4.839 1.907-6.772 3.442-4.553 3.617-6.02 4.47-5.983 3.473Zm19.47-9.309c2.483-1.067 9.167-1.067 12.499 0 1.679.538-.293.81-6 .83-5.601.02-7.818-.264-6.5-.83Z"/></g><defs><clipPath id="a"><path fill="#fff" d="M0 0h224.196v218.279H0z"/></clipPath></defs></svg>