<svg xmlns="http://www.w3.org/2000/svg" width="89.048" height="80.078" fill="none"><path d="M11.062 30.922a6.48 6.48 0 10-9.164 9.164l37.896 37.896 9.164-9.164z" fill="#3ceaaa"/><path d="M40.08 11.067a6.48 6.48 0 10-9.164-9.163L1.898 30.922a6.48 6.48 0 109.164 9.164z" fill="#3ceaaa"/><rect width="12.959" height="38.878" rx="6.48" transform="scale(1 -1) rotate(45)" fill="#3ceaaa" x="14.036" y="-62.086"/><path d="M58.408 29.395a6.48 6.48 0 10-9.164-9.164L20.226 49.25a6.48 6.48 0 109.163 9.163z" fill="#3ceaaa"/><path d="M77.987 30.922a6.48 6.48 0 119.163 9.164L49.172 78.065 40.008 68.9z" fill="#1a5d73"/><path d="M48.968 11.067a6.48 6.48 0 119.163-9.163L87.15 30.922a6.48 6.48 0 11-9.164 9.164z" fill="#1a5d73"/><rect x="-48.931" y=".881" width="12.959" height="38.878" rx="6.48" transform="rotate(-135)" fill="#1a5d73"/><path d="M30.64 29.395a6.48 6.48 0 019.164-9.164L68.822 49.25a6.48 6.48 0 11-9.163 9.163z" fill="#1a5d73"/><path fill="#3ceaaa" d="M34.497 14.902l9.153-9.153 14.765 14.765-9.153 9.153z"/><circle cx="44.51" cy="73.598" r="6.48" fill="#1a5d73"/></svg>