<svg width="220" height="220" viewBox="0 0 220 220" fill="none" xmlns="http://www.w3.org/2000/svg">
<g clip-path="url(#clip0_3991_125)">
<path d="M110 220C170.751 220 220 170.751 220 110C220 49.2487 170.751 0 110 0C49.2487 0 0 49.2487 0 110C0 170.751 49.2487 220 110 220Z" fill="#3CEAAA"/>
<path fill-rule="evenodd" clip-rule="evenodd" d="M83.0057 58.328C89.6702 51.7995 100.332 51.7995 106.997 58.328L124.999 75.9632L128.003 73.0211C134.667 66.4926 145.329 66.4926 151.993 73.0211L169.743 90.4088C176.605 97.1305 176.605 108.178 169.743 114.9L121.996 161.673C115.331 168.202 104.669 168.202 98.0045 161.673L50.2568 114.9C43.395 108.178 43.395 97.1305 50.2568 90.4088L83.0057 58.328ZM112.751 87.9613L95.0012 70.5736L62.2523 102.654L80.0023 120.042L112.751 87.9613ZM92.2501 132.04L110 149.427L127.75 132.04L110 114.652L92.2501 132.04ZM122.248 102.654L139.998 120.042L157.748 102.654L139.998 85.2663L122.248 102.654Z" fill="black" fill-opacity="0.6"/>
</g>
<defs>
<clipPath id="clip0_3991_125">
<rect width="220" height="220" rx="110" fill="white"/>
</clipPath>
</defs>
</svg>
