<svg xmlns="http://www.w3.org/2000/svg" width="351.68" height="351.68"><g data-name="Layer 2" transform="translate(-513.395 43.553)"><circle cx="689.235" cy="132.287" r="175.642" style="fill:#000;stroke:#000;stroke-width:.39685"/><g fill="#fff"><path d="M689.513 204.252h-.25a71.91 71.91 0 1 1-.08-143.81 71.87 71.87 0 0 1 68.22 94.66l32.31 43.4a120.35 120.35 0 1 0-67.19 49.41c-1.24-1.32-33-43.7-33-43.7" data-name="Path 7213"/><path d="m743.34 155-1.47-2c-.36-.46-.84-1-1.34-1.58a49.14 49.14 0 0 0-3.68-3.68c-.57-.51-1.18-1-1.83-1.57l-1-.82-1-.8q-1.1-.81-2.31-1.62c-9.53-6.22-19.76-9.28-32.09-9.28h-31.48s51.77 69.28 64.57 86.72a42.45 42.45 0 0 0 4.85 5.6c.23.22.47.45.72.67.57.51 1.18 1 1.83 1.58l1 .82 1 .8q1.1.81 2.31 1.62a57.4 57.4 0 0 0 32.11 9.29H807Z" data-name="Path 7215" style="fill:#00b3ed;fill-opacity:1" transform="translate(0 11.912)"/></g></g></svg>