<svg xmlns="http://www.w3.org/2000/svg" width="91.972" height="91.972" fill="none"><path fill="#000" d="M45.986 91.972c25.398 0 45.986-20.588 45.986-45.986C91.972 20.59 71.384 0 45.986 0 20.59 0 0 20.589 0 45.986c0 25.398 20.589 45.986 45.986 45.986z"/><path fill="#fff" fill-rule="evenodd" d="M66.748 58.011c0 13.629-10.994 17.866-19.24 17.866-2.538 0-5.138-.456-7.657-.899-2.368-.415-4.664-.819-6.773-.819-3.55 0-5.612.687-7.215 1.604V52.858h.114c3.55 8.36 9.964 21.874 22.333 21.874 6.298 0 10.65-3.436 10.65-10.193 0-4.335-3.545-7.038-9.295-9.57V40.234c10.371 3.721 17.083 8.314 17.083 17.778zm-22.831-19.95c-7.73-3.064-11.526-5.415-11.526-10.513 0-6.757 5.153-10.193 10.994-10.193 7.902 0 14.087 6.757 20.5 19.126H64l-1.031-19.584c-1.031.229-2.405.458-3.665.458-2.181 0-4.033-.26-6.057-.542-2.439-.341-5.128-.718-8.946-.718-8.59 0-19.584 4.925-19.584 17.866 0 7.902 3.436 13.4 16.492 17.751.93.334 1.833.66 2.708.982z" clip-rule="evenodd"/><path fill="#fff" d="M49.435 8.047h-5.748v9.198h5.748ZM49.435 74.727h-5.748v9.197h5.748z"/></svg>