<?xml version="1.0" encoding="UTF-8" standalone="no"?>
<svg
   width="91.972099"
   height="91.972099"
   viewBox="0 0 91.972099 91.972099"
   fill="none"
   version="1.1"
   id="svg506"
   sodipodi:docname="rare.svg"
   inkscape:version="1.2.2 (b0a84865, 2022-12-01)"
   xmlns:inkscape="http://www.inkscape.org/namespaces/inkscape"
   xmlns:sodipodi="http://sodipodi.sourceforge.net/DTD/sodipodi-0.dtd"
   xmlns="http://www.w3.org/2000/svg"
   xmlns:svg="http://www.w3.org/2000/svg">
  <defs
     id="defs510" />
  <sodipodi:namedview
     id="namedview508"
     pagecolor="#505050"
     bordercolor="#ffffff"
     borderopacity="1"
     inkscape:showpageshadow="0"
     inkscape:pageopacity="0"
     inkscape:pagecheckerboard="1"
     inkscape:deskcolor="#505050"
     showgrid="false"
     inkscape:zoom="2.0351822"
     inkscape:cx="142.73906"
     inkscape:cy="47.661581"
     inkscape:window-width="1309"
     inkscape:window-height="456"
     inkscape:window-x="407"
     inkscape:window-y="1304"
     inkscape:window-maximized="0"
     inkscape:current-layer="svg506" />
  <path
     d="m 45.9861,91.9721 c 25.3974,0 45.986,-20.5886 45.986,-45.986 C 91.9721,20.5887 71.3835,0 45.9861,0 20.5887,0 0,20.5887 0,45.9861 c 0,25.3974 20.5887,45.986 45.9861,45.986 z"
     fill="#000000"
     id="path498" />
  <path
     fill-rule="evenodd"
     clip-rule="evenodd"
     d="m 66.7481,58.0112 c 0,13.6285 -10.9944,17.8659 -19.2402,17.8659 -2.5383,0 -5.1375,-0.4564 -7.6564,-0.8987 -2.368,-0.4158 -4.6649,-0.8192 -6.7737,-0.8192 -3.5502,0 -5.6117,0.6872 -7.215,1.6034 v -22.905 h 0.1145 c 3.5502,8.3603 9.9636,21.8742 22.3323,21.8742 6.2988,0 10.6508,-3.4357 10.6508,-10.1926 0,-4.3353 -3.5456,-7.0385 -9.2954,-9.5693 V 40.2331 c 10.3713,3.7209 17.0831,8.3138 17.0831,17.7781 z M 43.9168,38.0615 c -7.7293,-3.0648 -11.5261,-5.416 -11.5261,-10.5138 0,-6.757 5.1536,-10.1927 10.9943,-10.1927 7.9022,0 14.0866,6.757 20.4999,19.1256 h 0.1146 L 62.9688,16.8969 c -1.0308,0.2291 -2.4051,0.4581 -3.6648,0.4581 -2.1813,0 -4.0329,-0.2591 -6.0567,-0.5423 -2.439,-0.3412 -5.1281,-0.7175 -8.9461,-0.7175 -8.5893,0 -19.5837,4.9246 -19.5837,17.8659 0,7.9022 3.4358,13.3994 16.4916,17.7513 0.9293,0.3333 1.8327,0.6595 2.7077,0.9815 z"
     fill="#ffffff"
     id="path500" />
  <path
     d="M 49.435,8.04736 H 43.6868 V 17.2446 H 49.435 Z"
     fill="#ffffff"
     id="path502" />
  <path
     d="m 49.435,74.7271 h -5.7482 v 9.1972 h 5.7482 z"
     fill="#ffffff"
     id="path504" />
</svg>
