<svg xmlns="http://www.w3.org/2000/svg" xml:space="preserve" width="199.193" height="199.319" viewBox="0 0 52.703 52.737"><g transform="translate(-78.648 -122.132)"><circle cx="105" cy="148.5" r="19.781" style="fill:#fff;fill-opacity:1;stroke-width:.376502;stop-color:#000"/><path d="M101.74 174.61c-22.107-3.231-30.9-29.79-14.938-45.114 14.946-14.349 39.73-6.638 44.006 13.69 3.656 17.38-11.685 33.964-29.069 31.424zm7.202-10.17c17.8-4.197 15.356-32.336-2.814-32.399-1.664-.006-1.782 1.988-.133 2.24 5.2.796 8.487 2.774 10.965 6.6 2.898 4.475 2.892 10.691-.013 15.12-7.8 11.888-25.992 6.604-26.026-7.56-.01-4.05 1.93-8.9 3.272-8.181 2.604 1.393 5.992-1.198 5.728-4.381-.471-5.69-8.276-5.07-8.28.656-.002 1.816-.097 2.167-1.12 4.131-6.587 12.654 4.56 27.04 18.42 23.773zm-13.87-26.307c-2.015-.808-1.487-3.803.67-3.803a1.94 1.94 0 0 1 1.94 1.94c0 1.326-1.42 2.34-2.61 1.863zm12.577 16.107c6.209-2.815 4.176-12.143-2.646-12.143-6.744 0-8.861 9.197-2.778 12.065 1.689.797 3.772.827 5.424.078z" style="fill:#cf1011;fill-opacity:1;stroke-width:.264583"/></g></svg>
