<svg width="59" height="59" viewBox="0 0 59 59" fill="none" xmlns="http://www.w3.org/2000/svg"><path fill-rule="evenodd" clip-rule="evenodd" d="M59 29.5C59 13.2031 45.7969 0 29.5 0C13.2031 0 0 13.2031 0 29.5C0 45.7969 13.2031 59 29.5 59C45.7969 59 59 45.7869 59 29.5ZM41.6453 14.4905H28.7216C28.1627 14.4905 27.7037 14.9496 27.7037 15.5085V26.9751C27.7037 28.3324 26.4662 29.49 25.0291 29.49H15.1691C14.75 29.49 14.3907 29.7295 14.2211 30.1187C14.0614 30.5079 14.1412 30.9371 14.4406 31.2365L27.4043 44.2001C27.6039 44.3997 27.8434 44.4995 28.1228 44.4995H40.2382C40.6573 44.4995 41.0166 44.26 41.1862 43.8708C41.3459 43.4816 41.2661 43.0524 40.9667 42.753L28.2426 30.0389L28.003 29.7994L27.6937 29.5H27.7835C35.6275 29.4501 42.0944 23.3126 42.6632 15.5983C42.6832 15.3089 42.5934 15.0394 42.3938 14.8298C42.1942 14.6003 41.9447 14.4905 41.6453 14.4905ZM29.5 2.58474C44.3698 2.58474 56.4153 14.6302 56.4153 29.5C56.4153 44.3598 44.3698 56.4153 29.5 56.4153C14.6402 56.4153 2.58474 44.3698 2.58474 29.5C2.58474 14.6302 14.6302 2.58474 29.5 2.58474Z" fill="white"></path></svg>