<svg xmlns="http://www.w3.org/2000/svg" xml:space="preserve" style="enable-background:new 0 0 600 450" version="1.0" viewBox="0 0 600 450"><path d="M199.1 42.2h201.8c15.6 0 28.3 12.7 28.3 28.3v221.6c0 10.7-4.8 20.8-13.1 27.5L313.3 403c-7.8 6.3-19 6.3-26.8 0l-102.8-83.4c-8.3-6.7-13.1-16.8-13.1-27.5V70.5c.2-15.6 12.9-28.3 28.5-28.3z" style="fill-rule:evenodd;clip-rule:evenodd;fill:#356bb3"/><path d="M365.5 84.7c11.7 0 21.2 9.5 21.2 21.2V175c-.3 14-11.6 25.2-25.5 25.5h-.6.6c14 .3 25.2 11.6 25.5 25.5v43.5c0 6.1-2.6 11.9-7.2 15.9l-53.4 47v-96c0-11.7-9.5-21.2-21.2-21.2h-31.1v117.3l-53.4-47c-4.6-4-7.2-9.8-7.2-15.9V105.9c0-11.7 9.5-21.2 21.2-21.2h131.1zM326.2 114h-52.4v65.3h31.1c11.7 0 21.2-9.5 21.2-21.2V114z" style="fill-rule:evenodd;clip-rule:evenodd;fill:#fff"/></svg>