<svg width="660" height="660" fill="none" xmlns="http://www.w3.org/2000/svg"><defs><linearGradient id="e" x1="84" y1="153" x2="84" y2="456" gradientUnits="userSpaceOnUse"><stop stop-color="#FFE090"/><stop offset="1" stop-color="#FFE090" stop-opacity="0"/></linearGradient><linearGradient id="f" x1="198" y1="195" x2="198" y2="366" gradientUnits="userSpaceOnUse"><stop stop-color="#DF3600"/><stop offset="1" stop-color="#DF3600" stop-opacity="0"/></linearGradient><linearGradient id="g" x1="57" y1="320.283" x2="214.135" y2="320.283" gradientUnits="userSpaceOnUse"><stop stop-color="#DF3600"/><stop offset="1" stop-color="#DF3600" stop-opacity="0"/></linearGradient><linearGradient id="h" x1="428" y1="-12" x2="428" y2="259" gradientUnits="userSpaceOnUse"><stop stop-color="#DF3600"/><stop offset="1" stop-color="#DF3600" stop-opacity="0"/></linearGradient><radialGradient id="b" cx="0" cy="0" r="1" gradientUnits="userSpaceOnUse" gradientTransform="rotate(54.168 -42.31 263.393) scale(497.082)"><stop stop-color="#FFD794"/><stop offset="1" stop-color="#ED5A37"/></radialGradient><radialGradient id="c" cx="0" cy="0" r="1" gradientUnits="userSpaceOnUse" gradientTransform="rotate(54.168 -42.31 263.393) scale(497.082)"><stop stop-color="#FFD794"/><stop offset="1" stop-color="#ED5A37"/></radialGradient><clipPath id="a"><path fill="#fff" d="M0 0h600v600H0z"/></clipPath></defs><g clip-path="url(#a)" transform="translate(30 30)"><path d="M300 600c165.685 0 300-134.315 300-300S465.685 0 300 0 0 134.315 0 300s134.315 300 300 300Z" fill="url(#b)" style="fill:url(#b)"/><mask id="d" maskUnits="userSpaceOnUse" x="0" y="0" width="600" height="600"><path d="M300 600c165.685 0 300-134.315 300-300S465.685 0 300 0 0 134.315 0 300s134.315 300 300 300Z" fill="url(#c)"/></mask><g mask="url(#d)"><path opacity=".2" d="M-10 165c0-6.627 5.373-12 12-12h164c6.627 0 12 5.373 12 12v279c0 6.627-5.373 12-12 12H2c-6.627 0-12-5.373-12-12z" fill="url(#e)" style="fill:url(#e)"/><path opacity=".2" d="M362 407c0-6.627 5.373-12 12-12h214c6.627 0 12 5.373 12 12v104c0 6.627-5.373 12-12 12H374c-6.627 0-12-5.373-12-12z" fill="#e74310"/><path opacity=".2" d="M501 439c6.627 0 12 5.373 12 12v202c0 6.627-5.373 12-12 12h-79c-6.627 0-12-5.373-12-12V451c0-6.627 5.373-12 12-12z" fill="#df3600"/><path opacity=".1" d="M243 195c6.627 0 12 5.373 12 12v161c0 6.627-5.373 12-12 12h-89c-6.627 0-12-5.373-12-12V207c0-6.627 5.373-12 12-12z" fill="url(#f)" style="fill:url(#f)"/><path opacity=".1" d="M57 243c0-6.627 5.373-12 12-12h146c6.627 0 12 5.373 12 12v153c0 6.627-5.373 12-12 12H69c-6.627 0-12-5.373-12-12z" fill="url(#g)" style="fill:url(#g)"/><path opacity=".2" d="M600 82c6.627 0 12 5.373 12 12v202c0 6.627-5.373 12-12 12H414c-6.627 0-12-5.373-12-12V94c0-6.627 5.373-12 12-12z" fill="#ff9776"/><path opacity=".2" d="M487-52c6.627 0 12 5.373 12 12v222c0 6.627-5.373 12-12 12H383c-6.627 0-12-5.373-12-12V-40c0-6.627 5.373-12 12-12z" fill="#ffca8c"/><path opacity=".2" d="M541-12c6.627 0 12 5.373 12 12v247c0 6.627-5.373 12-12 12H315c-6.627 0-12-5.373-12-12V0c0-6.627 5.373-12 12-12Z" fill="url(#h)" style="fill:url(#h)"/><path opacity=".1" d="M212-82c6.627 0 12 5.373 12 12V96c0 6.627-5.373 12-12 12h-79c-6.627 0-12-5.373-12-12V-70c0-6.627 5.373-12 12-12zM221 433c6.627 0 12 5.373 12 12v143c0 6.627-5.373 12-12 12H20c-6.627 0-12-5.373-12-12V445c0-6.627 5.373-12 12-12z" fill="#df3600"/><path opacity=".1" d="M398 353c6.627 0 12 5.373 12 12v223c0 6.627-5.373 12-12 12H168c-6.627 0-12-5.373-12-12V365c0-6.627 5.373-12 12-12z" fill="#ffd494"/><path opacity=".2" d="M322 0c6.627 0 12 5.373 12 12v58c0 6.627-5.373 12-12 12H82c-6.627 0-12-5.373-12-12V12c0-6.627 5.373-12 12-12Z" fill="#ffd494"/><path opacity=".1" fill="#df3600" d="M582.157 144.749 132.748 594.158l-15.413-15.413 449.41-449.409zM548.445 112.036 99.036 561.445 78.97 541.378 528.378 91.969z"/><path opacity=".1" fill="#f45c2c" d="M529.476 91.068 80.067 540.476 60.001 520.41 509.409 71.001z"/><path opacity=".2" fill="#f45c2c" d="M511.476 69.068 62.067 518.476l-16.515-16.515L494.96 52.55z"/><path opacity=".1" fill="#ffbc6e" d="m494.925 52.515-449.41 449.41L29 485.407 478.409 36z"/><path opacity=".1" fill="#df3600" d="m483.925 30.515-449.41 449.41L18 463.407 467.409 14z"/><path opacity=".09" fill="#ffd5a4" d="M335.879-6.439-18.484 347.924-35 331.408 319.363-22.955z"/><path opacity=".08" fill="#ffd5a4" d="M316.879-26.485-37.484 327.878-54 311.362 300.363-43z"/><path opacity=".05" fill="#ffd5a4" d="M299.879-49.485-54.484 304.878-71 288.362 283.363-66z"/><path opacity=".2" fill="#ffd5a4" d="M421.087-15.485 9.515 396.087-7 379.57 404.571-32.001zM432.087 10.515 20.515 422.087 4 405.57 415.571-6.001z"/><path opacity=".1" fill="#ffd5a4" d="M367.799.641 2.516 365.924-14 349.408 351.283-15.875z"/><path opacity=".1" fill="#df3600" d="M581.494 145.085 132.085 594.494l-32.95-32.95 449.41-449.409z"/><path opacity=".1" fill="#df3600" d="M581.494 145.085 132.085 594.494l-33.118-33.118 449.409-449.41z"/></g></g><path style="fill:#fefefe;stroke-width:.920608" d="M280.642 599.493c-41.323-2.55-78.145-12.16-114.998-30.01-33.15-16.057-56.808-32.94-83.2-59.375C34.883 462.47 4.232 394.771.611 329.362L0 318.336h3.443c4.847 0 8.998 1.912 12.46 5.742 3.456 3.82 4.44 7.78 3.755 15.109l-.49 5.248 4.806.388c6.296.507 14.362 4.164 19.675 8.92 5.252 4.7 10.452 14.47 11.329 21.281.588 4.574.844 5.001 2.996 5.001 7.71 0 15.758 5.51 19.753 13.524 1.852 3.716 2.975 4.998 4.198 4.79 3.437-.587 14.75 1.743 19.846 4.086 6.574 3.023 15.204 10.675 18.178 16.12 1.238 2.265 2.526 4.017 2.863 3.892.337-.125 5.593-4.755 11.68-10.29 41.848-38.051 48.556-43.916 50.233-43.916 2.514 0 7.077 4.43 7.077 6.869 0 2.299-2.7 4.91-39.237 37.937l-25.691 23.223-.536 8.397c-.294 4.619-.426 8.542-.292 8.718.133.177 13.618-11.866 29.966-26.762 61.131-55.702 67.722-61.578 70.036-62.443 2.085-.78 2.753-.481 5.549 2.481 1.748 1.853 3.179 3.874 3.179 4.491 0 1.314.627.729-49.887 46.525l-39.018 35.374 5.052.983c2.778.54 5.797 1.26 6.71 1.6 1.266.473 5.108-2.555 16.278-12.827 30.373-27.93 46.033-41.906 46.955-41.906 3.247 0 8.723 6.05 7.736 8.548-.316.8-12.614 12.335-27.33 25.634a29074.935 29074.935 0 0 0-28.98 26.212l-2.228 2.034 2.024 2.76c1.113 1.518 3.164 5.128 4.558 8.022 2.234 4.64 2.53 6.337 2.509 14.334-.022 7.814-.385 9.919-2.619 15.172l-2.593 6.099 2.285 3.88c1.256 2.134 3.019 6.125 3.917 8.87.898 2.744 1.737 5.112 1.865 5.262.129.15 2.19-.93 4.58-2.403 6.443-3.968 14.897-5.915 23.386-5.386 12.543.782 26.13 9.298 31.169 19.536.797 1.622 1.726 2.949 2.062 2.949.337 0 3.097-1.206 6.134-2.68 11.047-5.36 24.545-6.815 37.284-4.018 10.612 2.331 9.96 2.612 11.276-4.868 1.926-10.949 7.606-18.09 18.097-22.754 4.134-1.838 6.59-2.29 12.26-2.254 12.113.075 22.474 6.305 28.091 16.89 1.398 2.632 2.242 3.323 3.567 2.914 3.041-.937 13.412 1.212 18.793 3.895l5.201 2.594 3.09-2.505c1.7-1.378 4.871-3.423 7.048-4.545 2.755-1.418 4.307-2.974 5.104-5.115 3.894-10.457 19.518-17.314 33.86-14.86 3.172.542 5.835.891 5.919.775.083-.116 1.35-2.384 2.816-5.04 6.066-10.995 18.328-15.58 29.35-10.975 4.389 1.833 4.602 1.84 7.647.26 4.787-2.487 15.057-2.282 20.323.406 3.51 1.79 4.302 1.913 5.41.837.993-.964 1.07-1.844.326-3.745-2.614-6.676.488-14.86 6.987-18.435 76.69-35.278 13.247 35.55-27.094 67.365-27.083 20.967-63.778 40.058-95.775 49.826-11.151 3.405-27.69 7.411-40.993 9.57-13.302 2.16-20.383 2.758-33.474 3.552-13.091.793-25.243.518-33.812-.01-8.568-.53 0-.001 0-.001zm32.945-207.5c-.552-.345-4.123-10.017-7.937-21.494l-6.935-20.865-9.782-.082c-5.38-.045-11.816-.612-14.302-1.262l-4.52-1.18-8.11 7.84c-4.461 4.31-8.725 7.838-9.476 7.838-.751 0-4.397-3.15-8.101-7.002-5.56-5.78-6.545-7.244-5.643-8.391.6-.764 3.973-4.542 7.493-8.395l6.401-7.004-2.433-5.908c-1.503-3.646-2.552-8.179-2.743-11.84-.17-3.263-.603-6.218-.963-6.567-.36-.35-10.177-3.709-21.815-7.465-11.639-3.755-21.306-7.299-21.482-7.874-.177-.575 6.9-8.944 15.727-18.597l16.048-17.553 22.242-5.443 22.242-5.443 6.278-7.258c28.4-32.831 75.011-64.7 112.02-76.588 17.337-5.568 28.695-7.569 43.626-7.683 9.382-.072 13.12.217 14.013 1.084.879.854 1.178 4.132 1.076 11.794-.408 30.765-16.982 67.703-46.567 103.781-9.642 11.758-31.183 33.543-41.65 42.12l-7.128 5.84-4.494 20.798c-2.471 11.438-4.74 21.133-5.04 21.544-.561.767-33.039 28.86-35.61 30.802-.789.595-1.884.8-2.435.454zm49.176-117.274c5.477-2.405 9.856-6.545 12.878-12.176 1.998-3.721 2.433-5.759 2.423-11.34-.015-8.091-1.506-11.91-6.843-17.533-12.59-13.263-35.153-10.167-43.428 5.958-3.053 5.95-3.342 16.274-.617 22.1 5.727 12.247 22.957 18.536 35.587 12.99z" transform="translate(30 30)"/><path style="fill:#fdd48f;fill-opacity:1;stroke-width:1.00248" d="M330 0A330 330 0 0 0 0 330a330 330 0 0 0 330 330 330 330 0 0 0 330-330A330 330 0 0 0 330 0Zm0 34.478c163.213 0 295.522 132.31 295.522 295.523 0 163.212-132.31 295.523-295.521 295.523-163.212 0-295.523-132.311-295.523-295.523 0-163.212 132.311-295.523 295.523-295.523z"/></svg>