<svg width="122" height="122" viewBox="0 0 122 122" fill="none" xmlns="http://www.w3.org/2000/svg">
<circle cx="61" cy="61" r="61" fill="url(#paint0_linear)"/>
<path d="M40.3302 46.0482C39.7722 45.4137 39.0812 45.0956 38.2646 45.0956H21.5026C21.3548 45.0956 21.2328 45.0489 21.1405 44.9555C21.0481 44.8635 21 44.7595 21 44.648V33.4477C21 33.3361 21.0481 33.2336 21.1405 33.1402C21.2328 33.0482 21.3548 33 21.5026 33H39.2142C43.6819 33 47.5361 34.8117 50.7769 38.4321L55.0782 43.6396L46.701 53.7759L40.3302 46.0482ZM71.2785 38.3763C74.5193 34.7921 78.392 33 82.9003 33H100.553C100.704 33 100.815 33.0377 100.889 33.1115C100.963 33.1869 101 33.2984 101 33.4477V44.648C101 44.7595 100.963 44.8635 100.889 44.9555C100.815 45.0489 100.704 45.0956 100.553 45.0956H83.7946C82.9743 45.0956 82.2869 45.4137 81.7289 46.0482L69.3792 60.9443L81.7843 75.9518C82.3423 76.5504 83.0112 76.8489 83.7946 76.8489H100.553C100.704 76.8489 100.815 76.8956 100.889 76.9889C100.963 77.0823 101 77.2045 101 77.3523V88.5525C101 88.664 100.963 88.7681 100.889 88.86C100.815 88.9533 100.704 89 100.553 89H82.9003C78.3957 89 74.5415 87.1898 71.3377 83.5679L61.0573 71.1364L50.7769 83.5679C47.5361 87.1898 43.6634 89 39.1588 89H21.5026C21.3548 89 21.2402 88.9533 21.1663 88.86C21.0924 88.7666 21.0555 88.6459 21.0555 88.4951V77.2949C21.0555 77.1834 21.0924 77.0808 21.1663 76.9874C21.2402 76.8941 21.3548 76.8471 21.5026 76.8471H38.2646C39.0443 76.8471 39.7353 76.5307 40.3302 75.8947L52.4546 61.2232L71.2785 38.3763Z" fill="white"/>
<defs>
<linearGradient id="paint0_linear" x1="17" y1="36.5" x2="160.5" y2="61" gradientUnits="userSpaceOnUse">
<stop stop-color="#00D1FF"/>
<stop offset="1" stop-color="#218CA4"/>
</linearGradient>
</defs>
</svg>
