<svg xmlns="http://www.w3.org/2000/svg" width="266" height="266" fill="none"><mask id="a" width="266" height="266" x="123" y="123" maskUnits="userSpaceOnUse"><path fill="#fff" d="M389 123H123v266h266z"/></mask><circle cx="133" cy="133" r="133" style="fill:#000;stroke-width:.229163"/><g mask="url(#a)" transform="translate(-123 -123)"><mask id="b" width="266" height="266" x="123" y="123" maskUnits="userSpaceOnUse"><path fill="#fff" d="M389 123H123v266h266z"/></mask><g mask="url(#b)"><path fill="#999" d="m282.417 133.521 7.09 16.697c13.952 32.478 39.798 58.552 72.504 72.504l16.697 7.09c4.345 1.83 7.776 4.574 10.521 7.776-8.234-59.238-55.121-106.125-114.359-114.359a27.42 27.42 0 0 1 7.547 10.292zm-148.896 96.062 16.697-7.09c32.478-13.952 58.552-39.797 72.504-72.504l7.09-16.696c1.601-4.117 4.346-7.777 7.776-10.522-59.238 8.234-106.125 55.122-114.359 114.36a27.422 27.422 0 0 1 10.292-7.548zm244.958 52.834-16.696 7.09c-32.478 13.952-58.552 39.798-72.504 72.504l-7.09 16.468c-1.602 4.117-4.346 7.777-7.777 10.521 59.238-8.234 106.126-55.121 114.359-114.359-2.515 3.431-6.175 6.175-10.292 7.776zm-148.896 96.062-7.09-16.468c-13.952-32.478-39.797-58.552-72.504-72.504l-16.696-7.09c-4.117-1.601-7.777-4.345-10.522-7.776 8.234 59.238 55.122 106.125 114.36 114.359-3.202-2.744-5.718-6.404-7.548-10.521z"/></g><path fill="#fff" d="m195.732 243.077 8.234-3.431a68.02 68.02 0 0 0 35.68-35.68l3.431-8.234c4.803-11.436 21.042-11.436 26.074 0l3.431 8.234a68.02 68.02 0 0 0 35.68 35.68l8.234 3.431c11.436 4.803 11.436 21.042 0 26.074l-8.234 3.431a68.02 68.02 0 0 0-35.68 35.68l-3.431 8.234c-4.803 11.436-21.042 11.436-26.074 0l-3.431-8.234a68.02 68.02 0 0 0-35.68-35.68l-8.234-3.431c-11.436-5.032-11.436-21.271 0-26.074z"/></g></svg>