<svg xmlns="http://www.w3.org/2000/svg" xml:space="preserve" width="249.023" height="249.27" viewBox="0 0 65.887 65.953"><path d="M46.657 200.95v-4.703l1.72-1.705 1.72-1.704v-13.734l3.664-3.664 3.664-3.665 4.604.073 4.604.073.072 4.583.073 4.583-1.726 1.788-1.726 1.788v13.695l-3.649 3.648-3.648 3.649h-9.372zm-19.415 3.57c-.419-.306-.457-.787-.381-4.76l.084-4.42 4.3-4.304 4.3-4.305v-13.729l6.212-6.23 6.212-6.229 4.335-.083c3.8-.073 4.39-.028 4.785.367.395.395.44.984.367 4.777l-.084 4.328-4.299 4.304-4.3 4.305v13.72l-4.96 5.006c-2.729 2.753-5.652 5.588-6.496 6.3l-1.536 1.294h-4.036c-2.875 0-4.171-.098-4.503-.34zm-9.513-11.212c-.097-.097-.176-2.193-.176-4.656v-4.48l1.72-1.781 1.72-1.782v-13.695l3.648-3.648 3.648-3.649h9.372v9.312l-1.72 1.782-1.72 1.781v6.54c0 5.1-.081 6.698-.371 7.255-.204.393-1.86 2.173-3.68 3.956l-3.31 3.241h-4.477c-2.463 0-4.557-.08-4.654-.176z" style="fill:#70f093;stroke-width:.264583" transform="translate(-9.226 -149.682)"/><path d="M38.587 215.545c-7.656-1.15-14.498-4.465-19.551-9.473-4.638-4.596-7.651-10.193-9.341-17.35-.343-1.453-.469-3.085-.469-6.086 0-4.353.261-5.99 1.625-10.186 1.574-4.84 4.32-9.352 7.872-12.937 4.596-4.637 10.193-7.65 17.35-9.341 2.768-.654 9.403-.654 12.171 0 7.096 1.676 12.518 4.548 17.038 9.028 4.637 4.596 7.65 10.194 9.341 17.35.654 2.769.654 9.404 0 12.172-1.676 7.095-4.548 12.517-9.028 17.037-4.568 4.609-10.23 7.669-17.218 9.303-1.8.42-8.126.733-9.79.483zm21.09-13.539 3.649-3.648v-13.695l1.726-1.788 1.726-1.788-.073-4.583-.072-4.583-4.604-.073-4.604-.073-3.664 3.664-3.665 3.665v13.734l-1.72 1.704-1.72 1.705v9.408H56.03zm-22.36 1.561c.844-.712 3.767-3.547 6.496-6.3l4.96-5.005V178.54l4.3-4.305 4.3-4.304.083-4.328c.073-3.793.028-4.382-.367-4.777-.395-.395-.985-.44-4.785-.367l-4.335.083-6.212 6.23-6.213 6.229v13.729l-4.3 4.305-4.299 4.305-.084 4.42c-.076 3.973-.038 4.453.381 4.76.332.242 1.628.34 4.503.34h4.036zm-7.147-13.324c1.82-1.783 3.476-3.563 3.68-3.956.29-.557.371-2.156.371-7.255v-6.54l1.72-1.781 1.72-1.782v-9.312h-9.372l-3.648 3.649-3.649 3.648v13.695l-1.72 1.782-1.72 1.781v4.48c0 2.463.08 4.559.177 4.656.097.097 2.191.176 4.654.176h4.478z" style="fill:#252423;stroke-width:.264583" transform="translate(-9.226 -149.682)"/></svg>