<svg xmlns="http://www.w3.org/2000/svg" xml:space="preserve" id="katman_1" width="365" height="365" x="0" y="0" version="1.0"><style id="style182" type="text/css">.st1{fill:url(#SVGID_00000028288564939956459670000014497367026864545704_)}.st2{fill:url(#SVGID_00000083797475963312704810000000765018582203311519_)}.st3{fill:url(#SVGID_00000101063411687000149300000012844904408527086523_)}.st4{fill:url(#SVGID_00000088091119665168651380000003037686789308416662_)}.st5{fill:url(#SVGID_00000163053256292546293090000018309403506274004098_)}.st6{fill:url(#SVGID_00000025407199148106215270000001111058239719507369_)}.st7{fill:url(#SVGID_00000055685417348992634750000002418092720931868057_)}.st8{fill:url(#SVGID_00000059992347097878937960000012212856421881491384_)}.st9{fill:url(#SVGID_00000150075097396056296820000002307942953427640468_)}.st10{fill:url(#SVGID_00000061432373717329258680000014982561445099013822_)}.st11{fill:url(#SVGID_00000030477260263808080420000002913063426164929709_)}.st12{fill:url(#SVGID_00000161592838052939543790000001582264804160624575_)}.st13{fill:url(#SVGID_00000049904126070491333290000016890569267951744174_)}.st14{fill:url(#SVGID_00000147212996054368377830000003829897748769077382_)}.st15{fill:url(#SVGID_00000116237749273163590960000000101459058988989105_)}.st17{fill:url(#SVGID_00000029041691576896069690000015927371239048622264_)}.st18{fill:url(#SVGID_00000011017498170789295790000006084903249127809955_)}.st19{fill:url(#SVGID_00000170272229114056514130000013393934070803850425_)}.st20{fill:url(#SVGID_00000009552467718323749870000002389436528128047527_)}.st21{fill:url(#SVGID_00000127039769425199066890000009523911163424725387_)}.st22{fill:url(#SVGID_00000095305359386224015220000007149172223878870446_)}.st23{fill:url(#SVGID_00000081615509120572767900000017486114474995810966_)}.st24{fill:url(#SVGID_00000076602689892556025150000016631404165531830179_)}.st25{fill:url(#SVGID_00000064315430251820936630000002845525624007411072_)}.st26{fill:url(#SVGID_00000168098706703012585500000007848396409478166716_)}.st27{fill:url(#SVGID_00000086662351730881888920000017594394149683119246_)}.st28{fill:url(#SVGID_00000012451467670824485260000016838511122631639693_)}.st29{fill:url(#SVGID_00000094593122495893066280000013692787376747124664_)}.st30{fill:url(#SVGID_00000031910547570108174160000003615207165825217957_)}.st31{fill:url(#SVGID_00000163779931613788433710000008821327137557430155_)}.st32{fill:url(#SVGID_00000021088823297256935550000017528047799812071320_)}.st33{fill:url(#SVGID_00000016060175119950927460000003633272174927908750_)}.st34{fill:url(#SVGID_00000090252674689296987870000015335547813308987576_)}.st35{fill:url(#SVGID_00000091735313453977744660000003648728258023865516_)}.st36{fill:url(#SVGID_00000065753924760517259630000014278715756753511072_)}.st37{fill:url(#SVGID_00000090983604050276427520000004098361687199931522_)}.st38{fill:url(#SVGID_00000011021888295242091560000017324738217640780178_)}.st39{fill:url(#SVGID_00000166643905409252314800000012810663399817041556_)}.st40{fill:url(#SVGID_00000175280597326921352160000010494789142182192013_)}.st41{fill:url(#SVGID_00000029010057359186628730000003419888926604632719_)}.st42{fill:url(#SVGID_00000108307797882139549380000003283709848717340317_)}.st43{fill:url(#SVGID_00000037681324934557747970000017924423015058209464_)}.st44{fill:url(#SVGID_00000022561004996210137050000014413112811256687011_)}.st45{fill:url(#SVGID_00000104687649778213488610000002342491130123571362_)}</style><g id="synapseNodes" transform="translate(-117.6 -42.8)"><radialGradient id="SVGID_1_" cx="427.793" cy="151.998" r="162.852" gradientTransform="matrix(.9717 0 0 -.9754 -115.572 373.628)" gradientUnits="userSpaceOnUse"><stop id="stop184" offset="0" style="stop-color:#299fda"/><stop id="stop186" offset="0" style="stop-color:#a6529a"/><stop id="stop188" offset="1" style="stop-color:#59509d"/></radialGradient><path id="path191" d="M299.7 42.8c-9 0-16.3 7.3-16.3 16.3s7.3 16.3 16.3 16.3S316 68.2 316 59.2s-7.3-16.4-16.3-16.4z" style="fill:url(#SVGID_1_)"/><radialGradient id="SVGID_00000057865456980713553870000011359527732410521270_" cx="427.793" cy="151.998" r="162.852" gradientTransform="matrix(.9717 0 0 -.9754 -115.572 373.628)" gradientUnits="userSpaceOnUse"><stop id="stop193" offset="0" style="stop-color:#299fda"/><stop id="stop195" offset="0" style="stop-color:#a6529a"/><stop id="stop197" offset="1" style="stop-color:#59509d"/></radialGradient><path id="path200" d="M299.7 51.8c4 0 7.3 3.3 7.3 7.4 0 4.1-3.3 7.4-7.3 7.4s-7.3-3.3-7.3-7.4c0-4.1 3.3-7.4 7.3-7.4z" style="fill:url(#SVGID_00000057865456980713553870000011359527732410521270_)"/><radialGradient id="SVGID_00000103230131958108252760000016210606030476205448_" cx="427.793" cy="151.998" r="162.852" gradientTransform="matrix(.9717 0 0 -.9754 -115.572 373.628)" gradientUnits="userSpaceOnUse"><stop id="stop202" offset="0" style="stop-color:#299fda"/><stop id="stop204" offset="0" style="stop-color:#a6529a"/><stop id="stop206" offset="1" style="stop-color:#59509d"/></radialGradient><path id="path209" d="M229.7 86.1c-9 0-16.3 7.3-16.3 16.3s7.3 16.3 16.3 16.3 16.3-7.3 16.3-16.3-7.3-16.3-16.3-16.3z" style="fill:url(#SVGID_00000103230131958108252760000016210606030476205448_)"/><radialGradient id="SVGID_00000052083311670308435680000006014519973273519007_" cx="427.793" cy="151.998" r="162.852" gradientTransform="matrix(.9717 0 0 -.9754 -115.572 373.628)" gradientUnits="userSpaceOnUse"><stop id="stop211" offset="0" style="stop-color:#299fda"/><stop id="stop213" offset="0" style="stop-color:#a6529a"/><stop id="stop215" offset="1" style="stop-color:#59509d"/></radialGradient><path id="path218" d="M371.3 86.9c-9 0-16.3 7.3-16.3 16.3s7.3 16.3 16.3 16.3 16.3-7.3 16.3-16.3-7.3-16.3-16.3-16.3z" style="fill:url(#SVGID_00000052083311670308435680000006014519973273519007_)"/><radialGradient id="SVGID_00000126305333445052686150000015512216377869737629_" cx="427.793" cy="151.998" r="162.852" gradientTransform="matrix(.9717 0 0 -.9754 -115.572 373.628)" gradientUnits="userSpaceOnUse"><stop id="stop220" offset="0" style="stop-color:#299fda"/><stop id="stop222" offset="0" style="stop-color:#a6529a"/><stop id="stop224" offset="1" style="stop-color:#59509d"/></radialGradient><path id="path227" d="M229.7 95.1c4 0 7.3 3.3 7.3 7.4 0 4.1-3.3 7.4-7.3 7.4s-7.3-3.3-7.3-7.4c0-4.1 3.3-7.4 7.3-7.4z" style="fill:url(#SVGID_00000126305333445052686150000015512216377869737629_)"/><radialGradient id="SVGID_00000026882449148424575090000005164884392033746325_" cx="427.793" cy="151.998" r="162.852" gradientTransform="matrix(.9717 0 0 -.9754 -115.572 373.628)" gradientUnits="userSpaceOnUse"><stop id="stop229" offset="0" style="stop-color:#299fda"/><stop id="stop231" offset="0" style="stop-color:#a6529a"/><stop id="stop233" offset="1" style="stop-color:#59509d"/></radialGradient><path id="path236" d="M371.3 95.9c4 0 7.3 3.3 7.3 7.4 0 4.1-3.3 7.4-7.3 7.4s-7.3-3.3-7.3-7.4c0-4.1 3.3-7.4 7.3-7.4z" style="fill:url(#SVGID_00000026882449148424575090000005164884392033746325_)"/><radialGradient id="SVGID_00000110464755908052089410000016950121386940466305_" cx="427.793" cy="151.998" r="162.852" gradientTransform="matrix(.9717 0 0 -.9754 -115.572 373.628)" gradientUnits="userSpaceOnUse"><stop id="stop238" offset="0" style="stop-color:#299fda"/><stop id="stop240" offset="0" style="stop-color:#a6529a"/><stop id="stop242" offset="1" style="stop-color:#59509d"/></radialGradient><path id="path245" d="M299.7 123.7c-10.3 0-18.7 8.4-18.7 18.8s8.4 18.8 18.7 18.8c10.3 0 18.7-8.4 18.7-18.8s-8.3-18.8-18.7-18.8z" style="fill:url(#SVGID_00000110464755908052089410000016950121386940466305_)"/><radialGradient id="SVGID_00000117653271551584488490000012090367515535967882_" cx="427.793" cy="151.998" r="162.852" gradientTransform="matrix(.9717 0 0 -.9754 -115.572 373.628)" gradientUnits="userSpaceOnUse"><stop id="stop247" offset="0" style="stop-color:#299fda"/><stop id="stop249" offset="0" style="stop-color:#a6529a"/><stop id="stop251" offset="1" style="stop-color:#59509d"/></radialGradient><path id="path254" d="M158.1 126.1c-9 0-16.3 7.3-16.3 16.3s7.3 16.3 16.3 16.3 16.3-7.3 16.3-16.3c0-8.9-7.3-16.3-16.3-16.3z" style="fill:url(#SVGID_00000117653271551584488490000012090367515535967882_)"/><radialGradient id="SVGID_00000131327616531877731270000012443933097741481124_" cx="427.793" cy="151.998" r="162.852" gradientTransform="matrix(.9717 0 0 -.9754 -115.572 373.628)" gradientUnits="userSpaceOnUse"><stop id="stop256" offset="0" style="stop-color:#299fda"/><stop id="stop258" offset="0" style="stop-color:#a6529a"/><stop id="stop260" offset="1" style="stop-color:#59509d"/></radialGradient><path id="path263" d="M442.1 126.1c-9 0-16.3 7.3-16.3 16.3s7.3 16.3 16.3 16.3 16.3-7.3 16.3-16.3c0-8.9-7.3-16.3-16.3-16.3z" style="fill:url(#SVGID_00000131327616531877731270000012443933097741481124_)"/><radialGradient id="SVGID_00000089535257669392511690000014592408091469212843_" cx="427.793" cy="151.998" r="162.852" gradientTransform="matrix(.9717 0 0 -.9754 -115.572 373.628)" gradientUnits="userSpaceOnUse"><stop id="stop265" offset="0" style="stop-color:#299fda"/><stop id="stop267" offset="0" style="stop-color:#a6529a"/><stop id="stop269" offset="1" style="stop-color:#59509d"/></radialGradient><path id="path272" d="M299.7 132.7c5.4 0 9.8 4.4 9.8 9.8s-4.4 9.8-9.8 9.8-9.8-4.4-9.8-9.8c.1-5.4 4.4-9.8 9.8-9.8z" style="fill:url(#SVGID_00000089535257669392511690000014592408091469212843_)"/><radialGradient id="SVGID_00000018952660433521582780000005634308865442797205_" cx="427.793" cy="151.998" r="162.852" gradientTransform="matrix(.9717 0 0 -.9754 -115.572 373.628)" gradientUnits="userSpaceOnUse"><stop id="stop274" offset="0" style="stop-color:#299fda"/><stop id="stop276" offset="0" style="stop-color:#a6529a"/><stop id="stop278" offset="1" style="stop-color:#59509d"/></radialGradient><path id="path281" d="M158.1 135.1c4 0 7.3 3.3 7.3 7.4 0 4.1-3.3 7.3-7.3 7.3s-7.3-3.3-7.3-7.3 3.3-7.4 7.3-7.4z" style="fill:url(#SVGID_00000018952660433521582780000005634308865442797205_)"/><radialGradient id="SVGID_00000076597378913511563390000000334527307909264548_" cx="427.793" cy="151.998" r="162.852" gradientTransform="matrix(.9717 0 0 -.9754 -115.572 373.628)" gradientUnits="userSpaceOnUse"><stop id="stop283" offset="0" style="stop-color:#299fda"/><stop id="stop285" offset="0" style="stop-color:#a6529a"/><stop id="stop287" offset="1" style="stop-color:#59509d"/></radialGradient><path id="path290" d="M442.1 135.1c4 0 7.3 3.3 7.3 7.4 0 4.1-3.3 7.3-7.3 7.3s-7.3-3.3-7.3-7.3 3.3-7.4 7.3-7.4z" style="fill:url(#SVGID_00000076597378913511563390000000334527307909264548_)"/><radialGradient id="SVGID_00000000932165469814458390000003944103677060564380_" cx="427.793" cy="151.998" r="162.852" gradientTransform="matrix(.9717 0 0 -.9754 -115.572 373.628)" gradientUnits="userSpaceOnUse"><stop id="stop292" offset="0" style="stop-color:#299fda"/><stop id="stop294" offset="0" style="stop-color:#a6529a"/><stop id="stop296" offset="1" style="stop-color:#59509d"/></radialGradient><path id="path299" d="M227.3 164.5c-10.3 0-18.7 8.4-18.7 18.8s8.4 18.8 18.7 18.8c10.3 0 18.7-8.4 18.7-18.8s-8.4-18.8-18.7-18.8z" style="fill:url(#SVGID_00000000932165469814458390000003944103677060564380_)"/><radialGradient id="SVGID_00000105396359712072752200000000247600646159382185_" cx="427.793" cy="151.998" r="162.852" gradientTransform="matrix(.9717 0 0 -.9754 -115.572 373.628)" gradientUnits="userSpaceOnUse"><stop id="stop301" offset="0" style="stop-color:#299fda"/><stop id="stop303" offset="0" style="stop-color:#a6529a"/><stop id="stop305" offset="1" style="stop-color:#59509d"/></radialGradient><path id="path308" d="M371.3 164.5c-10.3 0-18.7 8.4-18.7 18.8s8.4 18.8 18.7 18.8c10.3 0 18.7-8.4 18.7-18.8s-8.4-18.8-18.7-18.8z" style="fill:url(#SVGID_00000105396359712072752200000000247600646159382185_)"/><radialGradient id="SVGID_00000049925950604874060290000003588571269046665889_" cx="427.793" cy="151.998" r="162.852" gradientTransform="matrix(.9717 0 0 -.9754 -115.572 373.628)" gradientUnits="userSpaceOnUse"><stop id="stop310" offset="0" style="stop-color:#299fda"/><stop id="stop312" offset="0" style="stop-color:#a6529a"/><stop id="stop314" offset="1" style="stop-color:#59509d"/></radialGradient><path id="path317" d="M227.3 173.5c5.4 0 9.8 4.4 9.8 9.8s-4.4 9.8-9.8 9.8-9.8-4.4-9.8-9.8 4.4-9.8 9.8-9.8z" style="fill:url(#SVGID_00000049925950604874060290000003588571269046665889_)"/><radialGradient id="SVGID_00000045609507164545320630000001493842371014949559_" cx="427.793" cy="151.998" r="162.852" gradientTransform="matrix(.9717 0 0 -.9754 -115.572 373.628)" gradientUnits="userSpaceOnUse"><stop id="stop319" offset="0" style="stop-color:#299fda"/><stop id="stop321" offset="0" style="stop-color:#a6529a"/><stop id="stop323" offset="1" style="stop-color:#59509d"/></radialGradient><path id="path326" d="M371.3 173.5c5.4 0 9.8 4.4 9.8 9.8s-4.4 9.8-9.8 9.8-9.8-4.4-9.8-9.8c.1-5.4 4.4-9.8 9.8-9.8z" style="fill:url(#SVGID_00000045609507164545320630000001493842371014949559_)"/><path id="path328" d="M300.5 202.1c-12.6 0-22.8 10.2-22.8 22.9 0 12.6 10.2 22.9 22.8 22.9 12.6 0 22.8-10.2 22.8-22.9s-10.2-22.9-22.8-22.9z" style="fill:none"/><radialGradient id="SVGID_00000096751555495215875480000009662897739496715920_" cx="427.793" cy="151.998" r="162.852" gradientTransform="matrix(.9717 0 0 -.9754 -115.572 373.628)" gradientUnits="userSpaceOnUse"><stop id="stop330" offset="0" style="stop-color:#299fda"/><stop id="stop332" offset="0" style="stop-color:#a6529a"/><stop id="stop334" offset="1" style="stop-color:#59509d"/></radialGradient><path id="path337" d="M158.1 208.6c-9 0-16.3 7.3-16.3 16.3s7.3 16.3 16.3 16.3 16.3-7.3 16.3-16.3-7.3-16.3-16.3-16.3z" style="fill:url(#SVGID_00000096751555495215875480000009662897739496715920_)"/><radialGradient id="SVGID_00000148633089493718646100000003036311651435576229_" cx="427.793" cy="151.998" r="162.852" gradientTransform="matrix(.9717 0 0 -.9754 -115.572 373.628)" gradientUnits="userSpaceOnUse"><stop id="stop339" offset="0" style="stop-color:#299fda"/><stop id="stop341" offset="0" style="stop-color:#a6529a"/><stop id="stop343" offset="1" style="stop-color:#59509d"/></radialGradient><path id="path346" d="M442.1 208.6c-9 0-16.3 7.3-16.3 16.3s7.3 16.3 16.3 16.3 16.3-7.3 16.3-16.3-7.3-16.3-16.3-16.3z" style="fill:url(#SVGID_00000148633089493718646100000003036311651435576229_)"/><radialGradient id="SVGID_00000021109225239058154690000016663248691669835687_" cx="427.793" cy="151.998" r="162.852" gradientTransform="matrix(.9717 0 0 -.9754 -115.572 373.628)" gradientUnits="userSpaceOnUse"><stop id="stop348" offset="0" style="stop-color:#299fda"/><stop id="stop350" offset="0" style="stop-color:#a6529a"/><stop id="stop352" offset="1" style="stop-color:#59509d"/></radialGradient><path id="path355" d="M300.5 211.1c7.6 0 13.8 6.2 13.8 13.9s-6.2 13.9-13.8 13.9c-7.6 0-13.8-6.2-13.8-13.9s6.2-13.9 13.8-13.9z" style="fill:url(#SVGID_00000021109225239058154690000016663248691669835687_)"/><radialGradient id="SVGID_00000152984957425933817730000004867305950371220920_" cx="427.793" cy="151.998" r="162.852" gradientTransform="matrix(.9717 0 0 -.9754 -115.572 373.628)" gradientUnits="userSpaceOnUse"><stop id="stop357" offset="0" style="stop-color:#299fda"/><stop id="stop359" offset="0" style="stop-color:#a6529a"/><stop id="stop361" offset="1" style="stop-color:#59509d"/></radialGradient><path id="path364" d="M158.1 217.6c4 0 7.3 3.3 7.3 7.3 0 4.1-3.3 7.4-7.3 7.4s-7.3-3.3-7.3-7.4c0-4 3.3-7.3 7.3-7.3z" style="fill:url(#SVGID_00000152984957425933817730000004867305950371220920_)"/><radialGradient id="SVGID_00000021098981387945527860000006989218455331460003_" cx="427.793" cy="151.998" r="162.852" gradientTransform="matrix(.9717 0 0 -.9754 -115.572 373.628)" gradientUnits="userSpaceOnUse"><stop id="stop366" offset="0" style="stop-color:#299fda"/><stop id="stop368" offset="0" style="stop-color:#a6529a"/><stop id="stop370" offset="1" style="stop-color:#59509d"/></radialGradient><path id="path373" d="M442.1 217.6c4 0 7.3 3.3 7.3 7.3 0 4.1-3.3 7.4-7.3 7.4s-7.3-3.3-7.3-7.4c0-4 3.3-7.3 7.3-7.3z" style="fill:url(#SVGID_00000021098981387945527860000006989218455331460003_)"/><radialGradient id="SVGID_00000177484132516226505630000011099830933615494826_" cx="427.793" cy="151.998" r="162.852" gradientTransform="matrix(.9717 0 0 -.9754 -115.572 373.628)" gradientUnits="userSpaceOnUse"><stop id="stop375" offset="0" style="stop-color:#299fda"/><stop id="stop377" offset="0" style="stop-color:#a6529a"/><stop id="stop379" offset="1" style="stop-color:#59509d"/></radialGradient><path id="path382" d="M229.7 247c-10.3 0-18.7 8.4-18.7 18.8s8.4 18.8 18.7 18.8c10.3 0 18.7-8.4 18.7-18.8.1-10.4-8.3-18.8-18.7-18.8z" style="fill:url(#SVGID_00000177484132516226505630000011099830933615494826_)"/><radialGradient id="SVGID_00000152950368170687282110000009683561223779996847_" cx="427.793" cy="151.998" r="162.852" gradientTransform="matrix(.9717 0 0 -.9754 -115.572 373.628)" gradientUnits="userSpaceOnUse"><stop id="stop384" offset="0" style="stop-color:#299fda"/><stop id="stop386" offset="0" style="stop-color:#a6529a"/><stop id="stop388" offset="1" style="stop-color:#59509d"/></radialGradient><path id="path391" d="M371.3 247c-10.3 0-18.7 8.4-18.7 18.8s8.4 18.8 18.7 18.8c10.3 0 18.7-8.4 18.7-18.8s-8.4-18.8-18.7-18.8z" style="fill:url(#SVGID_00000152950368170687282110000009683561223779996847_)"/><radialGradient id="SVGID_00000013903117329378099780000000858388131759755947_" cx="427.793" cy="151.998" r="162.852" gradientTransform="matrix(.9717 0 0 -.9754 -115.572 373.628)" gradientUnits="userSpaceOnUse"><stop id="stop393" offset="0" style="stop-color:#299fda"/><stop id="stop395" offset="0" style="stop-color:#a6529a"/><stop id="stop397" offset="1" style="stop-color:#59509d"/></radialGradient><path id="path400" d="M229.7 256c5.4 0 9.8 4.4 9.8 9.8s-4.4 9.8-9.8 9.8-9.8-4.4-9.8-9.8c.1-5.4 4.5-9.8 9.8-9.8z" style="fill:url(#SVGID_00000013903117329378099780000000858388131759755947_)"/><radialGradient id="SVGID_00000038381877316592613440000015936260570629492142_" cx="427.793" cy="151.998" r="162.852" gradientTransform="matrix(.9717 0 0 -.9754 -115.572 373.628)" gradientUnits="userSpaceOnUse"><stop id="stop402" offset="0" style="stop-color:#299fda"/><stop id="stop404" offset="0" style="stop-color:#a6529a"/><stop id="stop406" offset="1" style="stop-color:#59509d"/></radialGradient><path id="path409" d="M371.3 256c5.4 0 9.8 4.4 9.8 9.8s-4.4 9.8-9.8 9.8-9.8-4.4-9.8-9.8c.1-5.4 4.4-9.8 9.8-9.8z" style="fill:url(#SVGID_00000038381877316592613440000015936260570629492142_)"/><radialGradient id="SVGID_00000094603431310930667880000003859016911142937530_" cx="427.793" cy="151.998" r="162.852" gradientTransform="matrix(.9717 0 0 -.9754 -115.572 373.628)" gradientUnits="userSpaceOnUse"><stop id="stop411" offset="0" style="stop-color:#299fda"/><stop id="stop413" offset="0" style="stop-color:#a6529a"/><stop id="stop415" offset="1" style="stop-color:#59509d"/></radialGradient><path id="path418" d="M299.7 287.8c-10.3 0-18.7 8.4-18.7 18.8s8.4 18.8 18.7 18.8c10.3 0 18.7-8.4 18.7-18.8s-8.3-18.8-18.7-18.8z" style="fill:url(#SVGID_00000094603431310930667880000003859016911142937530_)"/><radialGradient id="SVGID_00000029006116276611798350000016952139919959476374_" cx="427.793" cy="151.998" r="162.852" gradientTransform="matrix(.9717 0 0 -.9754 -115.572 373.628)" gradientUnits="userSpaceOnUse"><stop id="stop420" offset="0" style="stop-color:#299fda"/><stop id="stop422" offset="0" style="stop-color:#a6529a"/><stop id="stop424" offset="1" style="stop-color:#59509d"/></radialGradient><path id="path427" d="M158.1 291.1c-9 0-16.3 7.3-16.3 16.3s7.3 16.3 16.3 16.3 16.3-7.3 16.3-16.3-7.3-16.3-16.3-16.3z" style="fill:url(#SVGID_00000029006116276611798350000016952139919959476374_)"/><radialGradient id="SVGID_00000083070408577510475700000008216958974176934057_" cx="427.793" cy="151.998" r="162.852" gradientTransform="matrix(.9717 0 0 -.9754 -115.572 373.628)" gradientUnits="userSpaceOnUse"><stop id="stop429" offset="0" style="stop-color:#299fda"/><stop id="stop431" offset="0" style="stop-color:#a6529a"/><stop id="stop433" offset="1" style="stop-color:#59509d"/></radialGradient><path id="path436" d="M442.1 291.1c-9 0-16.3 7.3-16.3 16.3s7.3 16.3 16.3 16.3 16.3-7.3 16.3-16.3-7.3-16.3-16.3-16.3z" style="fill:url(#SVGID_00000083070408577510475700000008216958974176934057_)"/><radialGradient id="SVGID_00000144340353703204921530000004956649990934365849_" cx="427.793" cy="151.998" r="162.852" gradientTransform="matrix(.9717 0 0 -.9754 -115.572 373.628)" gradientUnits="userSpaceOnUse"><stop id="stop438" offset="0" style="stop-color:#299fda"/><stop id="stop440" offset="0" style="stop-color:#a6529a"/><stop id="stop442" offset="1" style="stop-color:#59509d"/></radialGradient><path id="path445" d="M299.7 296.8c5.4 0 9.8 4.4 9.8 9.8s-4.4 9.8-9.8 9.8-9.8-4.4-9.8-9.8c.1-5.4 4.4-9.8 9.8-9.8z" style="fill:url(#SVGID_00000144340353703204921530000004956649990934365849_)"/><radialGradient id="SVGID_00000055673325744847095030000005587490942413326777_" cx="427.793" cy="151.998" r="162.852" gradientTransform="matrix(.9717 0 0 -.9754 -115.572 373.628)" gradientUnits="userSpaceOnUse"><stop id="stop447" offset="0" style="stop-color:#299fda"/><stop id="stop449" offset="0" style="stop-color:#a6529a"/><stop id="stop451" offset="1" style="stop-color:#59509d"/></radialGradient><path id="path454" d="M158.1 300.1c4 0 7.3 3.3 7.3 7.4 0 4.1-3.3 7.3-7.3 7.3s-7.3-3.3-7.3-7.3c0-4.1 3.3-7.4 7.3-7.4z" style="fill:url(#SVGID_00000055673325744847095030000005587490942413326777_)"/><radialGradient id="SVGID_00000124851451593289272210000009908918102883607685_" cx="427.793" cy="151.998" r="162.852" gradientTransform="matrix(.9717 0 0 -.9754 -115.572 373.628)" gradientUnits="userSpaceOnUse"><stop id="stop456" offset="0" style="stop-color:#299fda"/><stop id="stop458" offset="0" style="stop-color:#a6529a"/><stop id="stop460" offset="1" style="stop-color:#59509d"/></radialGradient><path id="path463" d="M442.1 300.1c4 0 7.3 3.3 7.3 7.4 0 4.1-3.3 7.3-7.3 7.3s-7.3-3.3-7.3-7.3c0-4.1 3.3-7.4 7.3-7.4z" style="fill:url(#SVGID_00000124851451593289272210000009908918102883607685_)"/><radialGradient id="SVGID_00000172410435915495163030000005708675720432258738_" cx="427.793" cy="151.998" r="162.852" gradientTransform="matrix(.9717 0 0 -.9754 -115.572 373.628)" gradientUnits="userSpaceOnUse"><stop id="stop465" offset="0" style="stop-color:#299fda"/><stop id="stop467" offset="0" style="stop-color:#a6529a"/><stop id="stop469" offset="1" style="stop-color:#59509d"/></radialGradient><path id="path472" d="M229.7 331.9c-9 0-16.3 7.3-16.3 16.3s7.3 16.3 16.3 16.3 16.3-7.3 16.3-16.3c0-8.9-7.3-16.3-16.3-16.3z" style="fill:url(#SVGID_00000172410435915495163030000005708675720432258738_)"/><radialGradient id="SVGID_00000123424478214285542660000017147814525341266100_" cx="427.793" cy="151.998" r="162.852" gradientTransform="matrix(.9717 0 0 -.9754 -115.572 373.628)" gradientUnits="userSpaceOnUse"><stop id="stop474" offset="0" style="stop-color:#299fda"/><stop id="stop476" offset="0" style="stop-color:#a6529a"/><stop id="stop478" offset="1" style="stop-color:#59509d"/></radialGradient><path id="path481" d="M371.3 332.8c-9 0-16.3 7.3-16.3 16.3s7.3 16.3 16.3 16.3 16.3-7.3 16.3-16.3-7.3-16.3-16.3-16.3z" style="fill:url(#SVGID_00000123424478214285542660000017147814525341266100_)"/><radialGradient id="SVGID_00000016755703266630172960000008451046926517466014_" cx="427.793" cy="151.998" r="162.852" gradientTransform="matrix(.9717 0 0 -.9754 -115.572 373.628)" gradientUnits="userSpaceOnUse"><stop id="stop483" offset="0" style="stop-color:#299fda"/><stop id="stop485" offset="0" style="stop-color:#a6529a"/><stop id="stop487" offset="1" style="stop-color:#59509d"/></radialGradient><path id="path490" d="M229.7 340.9c4 0 7.3 3.3 7.3 7.3 0 4.1-3.3 7.4-7.3 7.4s-7.3-3.3-7.3-7.4c0-4 3.3-7.3 7.3-7.3z" style="fill:url(#SVGID_00000016755703266630172960000008451046926517466014_)"/><radialGradient id="SVGID_00000037672748468805134730000002278651966286844069_" cx="427.793" cy="151.998" r="162.852" gradientTransform="matrix(.9717 0 0 -.9754 -115.572 373.628)" gradientUnits="userSpaceOnUse"><stop id="stop492" offset="0" style="stop-color:#299fda"/><stop id="stop494" offset="0" style="stop-color:#a6529a"/><stop id="stop496" offset="1" style="stop-color:#59509d"/></radialGradient><path id="path499" d="M371.3 341.7c4 0 7.3 3.3 7.3 7.4 0 4.1-3.3 7.3-7.3 7.3s-7.3-3.3-7.3-7.3 3.3-7.4 7.3-7.4z" style="fill:url(#SVGID_00000037672748468805134730000002278651966286844069_)"/><radialGradient id="SVGID_00000089563566216725827980000002859628994882654627_" cx="427.793" cy="151.998" r="162.852" gradientTransform="matrix(.9717 0 0 -.9754 -115.572 373.628)" gradientUnits="userSpaceOnUse"><stop id="stop501" offset="0" style="stop-color:#299fda"/><stop id="stop503" offset="0" style="stop-color:#a6529a"/><stop id="stop505" offset="1" style="stop-color:#59509d"/></radialGradient><path id="path508" d="M299.7 375.2c-9 0-16.3 7.3-16.3 16.3s7.3 16.3 16.3 16.3 16.3-7.3 16.3-16.3-7.3-16.3-16.3-16.3z" style="fill:url(#SVGID_00000089563566216725827980000002859628994882654627_)"/><radialGradient id="SVGID_00000061446037480844304580000005569595185840510878_" cx="427.793" cy="151.998" r="162.852" gradientTransform="matrix(.9717 0 0 -.9754 -115.572 373.628)" gradientUnits="userSpaceOnUse"><stop id="stop510" offset="0" style="stop-color:#299fda"/><stop id="stop512" offset="0" style="stop-color:#a6529a"/><stop id="stop514" offset="1" style="stop-color:#59509d"/></radialGradient><path id="path517" d="M299.7 384.2c4 0 7.3 3.3 7.3 7.3s-3.3 7.4-7.3 7.4-7.3-3.3-7.3-7.4c0-4.1 3.3-7.3 7.3-7.3z" style="fill:url(#SVGID_00000061446037480844304580000005569595185840510878_)"/><radialGradient id="SVGID_00000052069202199280185550000006865039556504829357_" cx="427.793" cy="151.998" r="162.852" gradientTransform="matrix(.9717 0 0 -.9754 -115.572 373.628)" gradientUnits="userSpaceOnUse"><stop id="stop519" offset="0" style="stop-color:#299fda"/><stop id="stop521" offset="0" style="stop-color:#a6529a"/><stop id="stop523" offset="1" style="stop-color:#59509d"/></radialGradient><path id="path526" d="M364.8 180.7 307 215.8l4.7 7.7 57.8-35.1z" style="fill:url(#SVGID_00000052069202199280185550000006865039556504829357_)"/><radialGradient id="SVGID_00000021830329691847763130000009619293442677381812_" cx="427.793" cy="151.998" r="162.852" gradientTransform="matrix(.9717 0 0 -.9754 -115.572 373.628)" gradientUnits="userSpaceOnUse"><stop id="stop528" offset="0" style="stop-color:#299fda"/><stop id="stop530" offset="0" style="stop-color:#a6529a"/><stop id="stop532" offset="1" style="stop-color:#59509d"/></radialGradient><path id="path535" d="m234.4 179.9-4.8 7.6 58.6 37.6 4.8-7.6z" style="fill:url(#SVGID_00000021830329691847763130000009619293442677381812_)"/><radialGradient id="SVGID_00000096757562790655561670000006902371998225772459_" cx="427.793" cy="151.998" r="162.852" gradientTransform="matrix(.9717 0 0 -.9754 -115.572 373.628)" gradientUnits="userSpaceOnUse"><stop id="stop537" offset="0" style="stop-color:#299fda"/><stop id="stop539" offset="0" style="stop-color:#a6529a"/><stop id="stop541" offset="1" style="stop-color:#59509d"/></radialGradient><path id="path544" d="M218.7 183.9 165 217.4l4.7 7.6 53.7-33.5z" style="fill:url(#SVGID_00000096757562790655561670000006902371998225772459_)"/><radialGradient id="SVGID_00000070824716177459871920000008485015231792930739_" cx="427.793" cy="151.998" r="162.852" gradientTransform="matrix(.9717 0 0 -.9754 -115.572 373.628)" gradientUnits="userSpaceOnUse"><stop id="stop546" offset="0" style="stop-color:#299fda"/><stop id="stop548" offset="0" style="stop-color:#a6529a"/><stop id="stop550" offset="1" style="stop-color:#59509d"/></radialGradient><path id="path553" d="M436.8 223 379 258.1l4.7 7.7 57.8-35.1z" style="fill:url(#SVGID_00000070824716177459871920000008485015231792930739_)"/><radialGradient id="SVGID_00000181088552930119973320000001807561708556249764_" cx="427.793" cy="151.998" r="162.852" gradientTransform="matrix(.9717 0 0 -.9754 -115.572 373.628)" gradientUnits="userSpaceOnUse"><stop id="stop555" offset="0" style="stop-color:#299fda"/><stop id="stop557" offset="0" style="stop-color:#a6529a"/><stop id="stop559" offset="1" style="stop-color:#59509d"/></radialGradient><path id="path562" d="m290.4 226.3-57.8 35.1 4.7 7.7L295 234Z" style="fill:url(#SVGID_00000181088552930119973320000001807561708556249764_)"/><radialGradient id="SVGID_00000091719136736881928950000015035405463666590614_" cx="427.793" cy="151.998" r="162.852" gradientTransform="matrix(.9717 0 0 -.9754 -115.572 373.628)" gradientUnits="userSpaceOnUse"><stop id="stop564" offset="0" style="stop-color:#299fda"/><stop id="stop566" offset="0" style="stop-color:#a6529a"/><stop id="stop568" offset="1" style="stop-color:#59509d"/></radialGradient><path id="path571" d="m310.9 225.3-4.8 7.6 58.6 37.6 4.8-7.6z" style="fill:url(#SVGID_00000091719136736881928950000015035405463666590614_)"/><radialGradient id="SVGID_00000154388687514539283560000018188464176732536744_" cx="427.793" cy="151.998" r="162.852" gradientTransform="matrix(.9717 0 0 -.9754 -115.572 373.628)" gradientUnits="userSpaceOnUse"><stop id="stop573" offset="0" style="stop-color:#299fda"/><stop id="stop575" offset="0" style="stop-color:#a6529a"/><stop id="stop577" offset="1" style="stop-color:#59509d"/></radialGradient><path id="path580" d="m380.7 181.2-4.8 7.6 58.6 37.6 4.8-7.6z" style="fill:url(#SVGID_00000154388687514539283560000018188464176732536744_)"/><radialGradient id="SVGID_00000158000118863099386750000017631489988766815165_" cx="427.793" cy="151.998" r="162.852" gradientTransform="matrix(.9717 0 0 -.9754 -115.572 373.628)" gradientUnits="userSpaceOnUse"><stop id="stop582" offset="0" style="stop-color:#299fda"/><stop id="stop584" offset="0" style="stop-color:#a6529a"/><stop id="stop586" offset="1" style="stop-color:#59509d"/></radialGradient><path id="path589" d="m164.9 224-4.8 7.6 58.6 37.6 4.8-7.6z" style="fill:url(#SVGID_00000158000118863099386750000017631489988766815165_)"/></g></svg>