<svg width="122" height="122" viewBox="0 0 122 122" fill="none" xmlns="http://www.w3.org/2000/svg">
<circle cx="61" cy="61" r="61" fill="url(#paint0_linear)"/>
<path d="M76.21 74.2369H71.7862C71.3871 74.2369 71.0044 74.0785 70.722 73.7966C70.4396 73.5146 70.2806 73.1321 70.28 72.7331V61.0358L62.5061 65.8945C62.1867 66.0956 61.817 66.2023 61.4396 66.2023C61.0622 66.2023 60.6925 66.0956 60.3732 65.8945L52.5993 61.0358V72.7331C52.5986 73.1321 52.4397 73.5146 52.1573 73.7966C51.8749 74.0785 51.4921 74.2369 51.0931 74.2369H46.6863C46.2874 74.2369 45.9049 74.0784 45.6229 73.7964C45.3409 73.5144 45.1825 73.1319 45.1825 72.7331V50.1864C45.1834 49.8217 45.2837 49.4641 45.4725 49.1521C45.6614 48.8401 45.9318 48.5854 46.2545 48.4156C46.5773 48.2457 46.9403 48.167 47.3044 48.1879C47.6685 48.2089 48.0201 48.3287 48.3212 48.5345L60.5991 56.9473C60.8497 57.1182 61.146 57.2097 61.4494 57.2097C61.7527 57.2097 62.049 57.1182 62.2996 56.9473L74.5751 48.5345C74.8762 48.3287 75.2277 48.2089 75.5919 48.1879C75.956 48.167 76.319 48.2457 76.6417 48.4156C76.9645 48.5854 77.2348 48.8401 77.4237 49.1521C77.6126 49.4641 77.7129 49.8217 77.7138 50.1864V72.7307C77.7141 72.9283 77.6754 73.1241 77.6 73.3069C77.5246 73.4896 77.4139 73.6557 77.2742 73.7956C77.1345 73.9354 76.9686 74.0464 76.786 74.1222C76.6034 74.1979 76.4077 74.2369 76.21 74.2369V74.2369Z" fill="white"/>
<path d="M38.548 74.1907H11.0066C10.4744 74.1907 9.96405 73.9793 9.58773 73.603C9.21141 73.2266 9 72.7162 9 72.1841V49.5038C9 49.1049 9.15843 48.7225 9.44044 48.4404C9.72245 48.1584 10.1049 48 10.5038 48H14.93C15.3288 48 15.7113 48.1584 15.9933 48.4404C16.2753 48.7225 16.4338 49.1049 16.4338 49.5038V66.7521H33.1209V49.5038C33.1209 49.1049 33.2793 48.7225 33.5613 48.4404C33.8433 48.1584 34.2258 48 34.6247 48H39.0485C39.4475 48 39.8303 48.1584 40.1127 48.4403C40.3951 48.7222 40.554 49.1047 40.5547 49.5038V72.1841C40.5547 72.7162 40.3433 73.2266 39.9669 73.603C39.5906 73.9793 39.0802 74.1907 38.548 74.1907V74.1907Z" fill="white"/>
<path d="M84.3484 48H111.89C112.422 48 112.932 48.2114 113.309 48.5877C113.685 48.964 113.896 49.4744 113.896 50.0066V72.6845C113.897 72.8822 113.858 73.078 113.783 73.2607C113.707 73.4434 113.597 73.6095 113.457 73.7494C113.317 73.8893 113.151 74.0003 112.969 74.076C112.786 74.1517 112.59 74.1907 112.393 74.1907H107.966C107.769 74.1907 107.573 74.1517 107.39 74.076C107.208 74.0003 107.042 73.8893 106.902 73.7494C106.763 73.6095 106.652 73.4434 106.576 73.2607C106.501 73.078 106.462 72.8822 106.463 72.6845V56.4371C106.463 56.3053 106.437 56.1749 106.386 56.0531C106.336 55.9314 106.262 55.8208 106.169 55.7276C106.076 55.6345 105.965 55.5606 105.843 55.5101C105.722 55.4597 105.591 55.4338 105.459 55.4338H90.7813C90.6495 55.4335 90.5189 55.4592 90.397 55.5095C90.2751 55.5598 90.1644 55.6337 90.0712 55.7269C89.9779 55.8202 89.904 55.9309 89.8537 56.0528C89.8034 56.1746 89.7777 56.3052 89.778 56.4371V72.6845C89.778 73.084 89.6193 73.4671 89.3369 73.7495C89.0544 74.032 88.6713 74.1907 88.2718 74.1907H83.848C83.6503 74.1907 83.4546 74.1517 83.272 74.076C83.0894 74.0003 82.9235 73.8893 82.7838 73.7494C82.6442 73.6095 82.5334 73.4434 82.458 73.2607C82.3826 73.078 82.3439 72.8822 82.3442 72.6845V50.0066C82.3439 49.7432 82.3955 49.4824 82.4961 49.2389C82.5967 48.9955 82.7443 48.7742 82.9304 48.5879C83.1165 48.4015 83.3376 48.2537 83.5809 48.1528C83.8242 48.0519 84.085 48 84.3484 48V48Z" fill="white"/>
<path d="M100.331 60.2026H95.9094C95.0789 60.2026 94.4056 60.8758 94.4056 61.7063V66.203C94.4056 67.0335 95.0789 67.7068 95.9094 67.7068H100.331C101.161 67.7068 101.835 67.0335 101.835 66.203V61.7063C101.835 60.8758 101.161 60.2026 100.331 60.2026Z" fill="white"/>
<defs>
<linearGradient id="paint0_linear" x1="-7.5" y1="72" x2="160.5" y2="61" gradientUnits="userSpaceOnUse">
<stop stop-color="#F74E4E"/>
<stop offset="1" stop-color="#FF0000" stop-opacity="0"/>
</linearGradient>
</defs>
</svg>
