<?xml version="1.0" encoding="UTF-8" standalone="no"?>
<svg
   xmlns:dc="http://purl.org/dc/elements/1.1/"
   xmlns:cc="http://creativecommons.org/ns#"
   xmlns:rdf="http://www.w3.org/1999/02/22-rdf-syntax-ns#"
   xmlns:svg="http://www.w3.org/2000/svg"
   xmlns="http://www.w3.org/2000/svg"
   xmlns:sodipodi="http://sodipodi.sourceforge.net/DTD/sodipodi-0.dtd"
   xmlns:inkscape="http://www.inkscape.org/namespaces/inkscape"
   width="77.25782mm"
   height="77.258331mm"
   viewBox="0 0 77.25782 77.258331"
   version="1.1"
   id="svg8"
   inkscape:version="1.0.2 (e86c870879, 2021-01-15, custom)"
   sodipodi:docname="uos.svg">
  <defs
     id="defs2" />
  <sodipodi:namedview
     id="base"
     pagecolor="#ffffff"
     bordercolor="#666666"
     borderopacity="1.0"
     inkscape:pageopacity="0.0"
     inkscape:pageshadow="2"
     inkscape:zoom="0.98994949"
     inkscape:cx="370.66993"
     inkscape:cy="13.442936"
     inkscape:document-units="mm"
     inkscape:current-layer="layer1"
     inkscape:document-rotation="0"
     showgrid="false"
     inkscape:window-width="1920"
     inkscape:window-height="1018"
     inkscape:window-x="-6"
     inkscape:window-y="-6"
     inkscape:window-maximized="1" />
  <metadata
     id="metadata5">
    <rdf:RDF>
      <cc:Work
         rdf:about="">
        <dc:format>image/svg+xml</dc:format>
        <dc:type
           rdf:resource="http://purl.org/dc/dcmitype/StillImage" />
        <dc:title></dc:title>
      </cc:Work>
    </rdf:RDF>
  </metadata>
  <g
     inkscape:label="Layer 1"
     inkscape:groupmode="layer"
     id="layer1"
     transform="translate(-66.371141,-109.87081)">
    <path
       id="path851"
       style="fill:#7850cf;stroke-width:0.999999"
       d="m 396.84961,415.25977 a 145.99938,145.99938 0 0 0 -145.99805,146 145.99938,145.99938 0 0 0 145.99805,146 145.99938,145.99938 0 0 0 146,-146 145.99938,145.99938 0 0 0 -146,-146 z m -2.49609,69.85742 c 9.28557,0.003 18.57285,0.52928 19.44336,1.57812 0.89128,1.07339 1.1092,12.09034 0.87109,43.75 -0.30852,41.03467 -0.3822,42.43549 -2.46094,46.31446 -2.631,4.90949 -4.83869,6.96873 -9.61133,8.96289 v -0.002 c -6.8722,2.87142 -16.93838,1.38673 -22.07226,-3.25586 -1.03737,-0.93811 -2.85031,-3.50509 -4.0293,-5.70507 -2.07934,-3.87984 -2.15303,-5.27219 -2.45312,-46.32618 -0.23029,-31.48652 -0.006,-42.69052 0.87304,-43.75 0.87009,-1.04791 10.15388,-1.56901 19.43946,-1.5664 z m 90.34375,0.25781 c 7.8871,-8.2e-4 8.36701,0.41701 9.20898,1.99023 1.88202,3.51651 0.6207,93.16674 -1.44727,102.86524 -4.63506,21.73731 -12.89893,37.3675 -26.79296,50.66992 -14.8647,14.23177 -33.22287,22.56528 -55.78907,25.32422 -50.88264,6.22091 -93.59488,-17.13053 -108.94922,-59.56445 -5.80864,-16.05627 -6.12822,-20.01947 -5.83984,-72.90039 l 0.26172,-48 h 19 19 l 0.58984,47 c 0.64812,51.67279 0.84954,53.53547 7.13867,66.31054 6.15697,12.50657 19.39758,22.53167 34.77149,26.32813 7.21259,1.78114 29.78738,1.78114 37,0 15.53767,-3.8369 28.56013,-13.66235 34.7168,-26.19727 6.28044,-12.78693 6.49041,-14.73743 7.16797,-66.4414 l 0.61523,-47 18.70312,-0.27149 c 4.56252,-0.0663 8.0155,-0.11301 10.64454,-0.11328 z"
       transform="scale(0.26458333)" />
  </g>
</svg>
