<svg xmlns="http://www.w3.org/2000/svg" width="2490" height="2100" viewBox="0 0 2490 2100"><defs><clipPath id="1"><circle cx="1000" cy="1000" r="1000" fill="none"/></clipPath><linearGradient id="0" y1="418" x2="0" y2="1800" gradientUnits="userSpaceOnUse"><stop stop-color="#5b62fe"/><stop offset="1" stop-color="#3831ab"/></linearGradient><linearGradient id="2" y1="1010.85" x2="0" y2="1004.08" gradientTransform="matrix(211.63 0 0-210-145295.26 212586)" gradientUnits="userSpaceOnUse"><stop stop-color="#1f1b55" stop-opacity=".98"/><stop offset="1" stop-color="#493ed1"/></linearGradient></defs><circle cx="1000" cy="1000" r="1000" fill="url(#0)"/><g clip-path="url(#1)"><path fill="url(#2)" d="m1423 0l1066 0 1 2100-2116-13 1049-2087"/></g><path d="M978,1668l1,2c4,10,11,14,25,14h1c14,0,21-4,25-14l1-2L1589,576H1345c-15,0-21,3-22,8l-1,3-318,620L686,588l-1-2c-2-8-5-9-22-9H420Z" fill="none" stroke="#fff" stroke-width="51.947"/><path d="M1174,550c-22,0-29,3-39,23L894,1046,653,573c-5-18-17-13-39-13H410c-10,0-20,11-18,18l462,907c7,16,20,25,40,25h1c20,0,34-8,40-25l463-912c3-7,3-12,0-16s-10-7-18-7Z" fill="#fff"/></svg>