<svg xmlns="http://www.w3.org/2000/svg" width="32" height="32" fill="none" class="mr-3"><circle cx="16" cy="16" r="15.917" style="fill:#fff;stroke:#000;stroke-width:.166594;stroke-linecap:round"/><path fill="#000" d="M24.25 21.51a4.81 4.81 0 0 1-4.173 2.416H17.29v-9.398l-4.022 6.985a4.811 4.811 0 0 1-4.174 2.416H6.325v-13.87h5.568v9.374l5.396-9.37v-.004h5.566v9.413l5.848-10.16a1.283 1.283 0 0 0-.024-1.325C25.982 3.727 21.201.92 15.77 1.002 7.483 1.13.958 7.798 1 16.082 1.043 24.327 7.744 31 16 31s15-6.715 15-14.998c0-1.334-.176-2.628-.505-3.861a.432.432 0 0 0-.79-.11l-5.457 9.478z"/></svg>