<svg xmlns="http://www.w3.org/2000/svg" xml:space="preserve" id="Layer_1" x="0" y="0" style="enable-background:new 0 0 2500 2500" version="1.1" viewBox="0 0 2500 2500"><style>.st1{fill:url(#SVGID_00000079470770421910243190000006544161996646554755_)}</style><g id="Layer_x0020_1"><g id="_2251193011968"><linearGradient id="SVGID_1_" x1="78.312" x2="2578.312" y1="2577.588" y2="77.588" gradientTransform="matrix(1 0 0 -1 0 2499.276)" gradientUnits="userSpaceOnUse"><stop offset="0" style="stop-color:#fc829f"/><stop offset=".341" style="stop-color:#ff1c53"/><stop offset=".439" style="stop-color:#ea49f8"/><stop offset=".529" style="stop-color:#b250ff"/><stop offset=".639" style="stop-color:#5e5ff5"/><stop offset="1" style="stop-color:#323cff"/></linearGradient><path d="M1250 0C560 0 0 560 0 1250c0 75 7 148 19 219h278c35 0 57-12 70-34l98-162 125 387c12 39 41 59 80 60 40 0 73-24 81-64l90-426 98 680c6 45 28 67 73 67s66-24 73-69l201-1323c0-3 1-7 1-10 0-37-28-69-65-74-3 0-7-1-10-1-37 0-69 28-75 65l-124 848-83-566c-5-43-38-70-75-71-41-1-71 25-79 68l-120 554-95-297c-8-32-35-56-68-60-43-5-68 17-87 47l-148 233h-88c-1-23-3-46-3-69 0-597 484-1081 1081-1081 482 0 890 315 1029 750h176C2308 391 1823 2 1248 2l2-2z" style="fill:url(#SVGID_1_)"/><linearGradient id="SVGID_00000157304337044832140320000007377768437831247259_" x1="-78.312" x2="2421.688" y1="2420.963" y2="-79.037" gradientTransform="matrix(1 0 0 -1 0 2499.276)" gradientUnits="userSpaceOnUse"><stop offset="0" style="stop-color:#fc829f"/><stop offset=".341" style="stop-color:#ff1c53"/><stop offset=".439" style="stop-color:#ea49f8"/><stop offset=".529" style="stop-color:#b250ff"/><stop offset=".639" style="stop-color:#5e5ff5"/><stop offset="1" style="stop-color:#323cff"/></linearGradient><path d="M2481 1031h-278c-35 0-57 12-70 34l-98 162-125-387c-12-39-41-59-80-60-40 0-73 24-81 64l-90 426-99-680c-6-45-28-67-73-67s-66 24-73 69l-201 1323c-6 41 23 79 64 85 3 0 7 1 10 1 37 0 69-28 75-65l124-848 83 566c5 43 38 70 74 71 41 1 71-25 80-68l120-554 95 297c8 32 36 56 68 60 43 5 68-17 86-47l148-233h89c2 23 3 46 3 69 0 597-484 1081-1081 1081-482 0-890-315-1029-750H46c145 530 630 919 1205 919 690 0 1250-560 1250-1250 0-75-7-148-19-219l-1 1z" style="fill:url(#SVGID_00000157304337044832140320000007377768437831247259_)"/></g></g></svg>