<svg xmlns="http://www.w3.org/2000/svg" width="60" height="68" fill="none"><path fill="url(#a)" d="M14.273 58.874 0 50.684l.273-16.92.272-16.92L15.13 8.422 29.715 0 44.13 8.308l14.415 8.308.273 17.106.274 17.105-14.111 8.138c-7.761 4.476-14.634 8.13-15.273 8.12-.64-.011-7.585-3.706-15.435-8.21Zm26.772-5.117 10.5-6.187.283-11.235.283-11.234-8.783 5.19c-4.83 2.853-9.908 5.827-11.283 6.608-2.362 1.34-3.105 1.059-13.5-5.121l-11-6.54-.285 10.597c-.157 5.828.068 10.949.5 11.378 1.097 1.092 21.638 12.908 22.27 12.811.283-.044 5.24-2.864 11.015-6.267Zm-19.5-5.517c-7.593-4.47-8.016-4.905-8.318-8.558l-.318-3.85 4.318 2.481a643.05 643.05 0 0 0 8.49 4.776l4.173 2.295 4.828-2.772a610.27 610.27 0 0 0 8.077-4.722l3.25-1.95-.006 3.832c-.005 3.131-.507 4.114-2.75 5.378-1.509.85-5.218 2.953-8.243 4.673l-5.5 3.126-8-4.71Zm9.919-18.744c1.194-.458 1.581-2.049 1.581-6.5 0-3.241.227-5.893.503-5.893.277 0 2.585 1.296 5.13 2.88 4.46 2.776 4.728 2.82 7.49 1.25 1.576-.897 2.866-1.855 2.868-2.13.003-.552-15.486-9.527-18.183-10.537-1.612-.602-20.735 9.21-20.786 10.666-.012.346 1.39 1.213 3.113 1.927 2.85 1.18 3.568 1.055 7.898-1.379 2.619-1.472 5.033-2.677 5.365-2.677.331 0 .602 2.625.602 5.833 0 7.09.624 8.016 4.419 6.56Z"/><defs><linearGradient id="a" x1="47.5" x2="8" y1="7" y2="60" gradientUnits="userSpaceOnUse"><stop stop-color="#03E0EA"/><stop offset="1" stop-color="#007AFC"/></linearGradient></defs></svg>