<?xml version="1.0" encoding="UTF-8" standalone="no"?>
<svg
   xmlns:dc="http://purl.org/dc/elements/1.1/"
   xmlns:cc="http://creativecommons.org/ns#"
   xmlns:rdf="http://www.w3.org/1999/02/22-rdf-syntax-ns#"
   xmlns:svg="http://www.w3.org/2000/svg"
   xmlns="http://www.w3.org/2000/svg"
   xmlns:sodipodi="http://sodipodi.sourceforge.net/DTD/sodipodi-0.dtd"
   xmlns:inkscape="http://www.inkscape.org/namespaces/inkscape"
   width="538.88336mm"
   height="538.51031mm"
   viewBox="0 0 538.88336 538.51031"
   version="1.1"
   id="svg8"
   inkscape:version="1.0.2 (e86c870879, 2021-01-15, custom)"
   sodipodi:docname="xvs.svg">
  <defs
     id="defs2" />
  <sodipodi:namedview
     id="base"
     pagecolor="#ffffff"
     bordercolor="#666666"
     borderopacity="1.0"
     inkscape:pageopacity="0.0"
     inkscape:pageshadow="2"
     inkscape:zoom="0.175"
     inkscape:cx="3132.1903"
     inkscape:cy="934.74409"
     inkscape:document-units="mm"
     inkscape:current-layer="layer1"
     inkscape:document-rotation="0"
     showgrid="false"
     inkscape:window-width="1920"
     inkscape:window-height="1018"
     inkscape:window-x="-6"
     inkscape:window-y="-6"
     inkscape:window-maximized="1" />
  <metadata
     id="metadata5">
    <rdf:RDF>
      <cc:Work
         rdf:about="">
        <dc:format>image/svg+xml</dc:format>
        <dc:type
           rdf:resource="http://purl.org/dc/dcmitype/StillImage" />
        <dc:title></dc:title>
      </cc:Work>
    </rdf:RDF>
  </metadata>
  <g
     inkscape:label="Layer 1"
     inkscape:groupmode="layer"
     id="layer1"
     transform="translate(891.61122,-189.00955)">
    <path
       id="path851"
       style="fill:#f3ba4f;stroke-width:0.999999"
       d="m -2334.1133,714.375 c -522.5358,-2.08087 -1036.0241,392.9965 -1035.7558,1017.5527 0.2509,584.1849 486.7776,1045.5268 1071.9414,1016.4512 807.955,-40.1456 1247.4076,-977.0528 762.6465,-1625.9512 -209.7238,-280.73485 -505.7022,-406.88539 -798.8321,-408.0527 z m 411.8125,403.1133 c 31.295,-0.01 61.2957,23.7819 62.6641,60.5156 0.5727,15.3725 4.6221,3.7283 -67.2227,193.3066 -35.5133,93.7099 -64.5683,170.9778 -64.5683,171.7071 0,1.0884 15.1949,1.3879 84.75,1.6699 94.5366,0.3834 89.1543,-0.01 103.75,7.5313 50.7984,26.2381 41.1865,103.5668 -14.5,116.6523 -7.2027,1.6926 -1058.1067,2.2198 -1066.5,0.5351 -54.5003,-10.9393 -68.3696,-83.645 -21.7598,-114.0722 15.7822,-10.3027 20.5792,-10.8411 96.5098,-10.8789 50.1281,-0.024 57.75,-0.2202 57.75,-1.4961 0,-0.8084 -28.8801,-77.6459 -64.1758,-170.75 -69.7441,-183.9728 -67.6896,-178.1781 -67.752,-191.2813 -0.3058,-64.2164 83.5101,-87.2 116.6973,-32 1.6534,2.7501 35.9588,92.075 76.2324,198.5 40.2735,106.425 73.6395,194.2875 74.1465,195.25 2.0687,3.9271 488.6668,2.4385 490.3027,-1.5 0.7425,-1.7875 34.0512,-89.65 74.0196,-195.25 77.8134,-205.5899 75.2971,-199.4431 86.0644,-210.1308 12.7168,-12.6228 28.3082,-18.3042 43.5918,-18.3086 z m -429.0351,670.7422 c 265.0081,0 529.9279,0.5641 534.4472,1.7129 55.6086,14.1354 64.5075,91.3036 13.461,116.7324 -14.4881,7.2172 -2.6061,6.7519 -173.0196,6.7519 -121.3497,0 -153.939,0.2624 -155.2168,1.25 -0.8895,0.6875 -41.0388,105.425 -89.2207,232.75 -107.3328,283.6371 -98.4396,265.57 -134.3437,272.9161 -31.1536,6.3739 -62.5685,-7.433 -75.0313,-32.9747 -2.2655,-4.643 -43.5452,-112.6164 -91.7304,-239.9414 -48.1852,-127.325 -88.076,-232.0625 -88.6465,-232.75 -0.8203,-0.9885 -29.0965,-1.2543 -135.1641,-1.2656 -149.849,-0.016 -140.2207,0.4339 -155.0137,-7.2246 -50.5322,-26.1614 -40.926,-103.1593 14.5,-116.2246 4.8742,-1.1485 269.9705,-1.7276 534.9786,-1.7324 z m -20.1016,125.2441 c -50.9729,0 -101.9459,0.2729 -102.7871,0.8066 -0.9877,0.6265 10.8287,32.8509 49.7695,135.7344 28.0851,74.2022 51.2661,135.4746 51.5137,136.1621 0.9862,2.7399 2.5031,0.8973 5.3516,-6.5 41.1635,-106.899 100.0015,-264.7343 98.9394,-265.4082 -0.8408,-0.533 -51.8142,-0.7975 -102.7871,-0.7949 z"
       transform="scale(0.26458333)"
       sodipodi:nodetypes="sssssssssssssscsssssssssssssssssssssssssssssss" />
  </g>
</svg>
