<svg width="220" height="220" fill="none" xmlns="http://www.w3.org/2000/svg"><g clip-path="url(#prefix__clip0_3991_147)"><path d="M110 220c60.751 0 110-49.249 110-110S170.751 0 110 0 0 49.249 0 110s49.249 110 110 110z" fill="#0657F9"/><path fill-rule="evenodd" clip-rule="evenodd" d="M64.11 43.268l-8.706 8.794L76.51 73.52l21.106 21.458V135.081h24.625V94.978l21.106-21.458 21.107-21.458-8.707-8.881-8.706-8.882-18.468 18.732c-10.113 10.29-18.556 18.732-18.644 18.732-.177 0-8.53-8.355-18.645-18.645-10.113-10.29-18.38-18.644-18.468-18.644-.087 0-4.045 3.958-8.794 8.794h.088zm-9.058 50.216c-3.078 5.452-5.893 15.038-6.684 22.777-.351 3.781-.176 12.048.352 15.83 5.364 34.825 37.727 58.57 71.849 52.502 22.513-3.958 40.981-20.051 48.104-41.949 2.375-7.212 3.166-12.048 3.166-19.963 0-8.53-.968-14.159-3.694-21.986-.967-2.726-3.342-8.003-3.693-8.003-.088 0-4.397 4.221-9.41 9.41-8.53 8.706-9.235 9.409-9.058 10.113.087.439.351 1.583.528 2.638.616 2.99.88 7.123.703 10.465-.264 3.606-.703 5.804-1.758 9.146-3.43 10.905-12.488 20.227-23.393 24.009-4.133 1.407-6.508 1.758-11.872 1.847-5.452 0-7.475-.264-11.697-1.671-11.52-3.781-20.842-13.631-24.184-25.328-1.055-3.781-1.407-6.244-1.407-10.817 0-4.221.177-5.364 1.232-10.289.087-.44-1.935-2.639-9.235-10.026l-9.322-9.497-.528.88v-.088h.001z" fill="#fff"/></g><defs><clipPath id="prefix__clip0_3991_147"><rect width="220" height="220" rx="110" fill="#fff"/></clipPath></defs></svg>