<svg width="122" height="122" viewBox="0 0 122 122" fill="none" xmlns="http://www.w3.org/2000/svg">
<circle cx="61" cy="61" r="61" fill="url(#paint0_linear)"/>
<path d="M50.1212 17.94C35.1516 25.9026 34.6738 45.6498 49.1657 56.7974L54.8988 61.0972V57.2751C54.8988 55.2049 53.147 52.0198 50.9175 50.1088C42.3179 42.624 42.1587 32.1134 50.4397 25.1063C61.2688 16.029 77.194 23.8323 77.194 38.4834C77.194 44.3758 74.8052 45.0128 73.372 39.439C72.2572 34.9799 67.6389 34.0244 67.6389 38.1649C67.6389 42.9425 71.9387 55.3641 73.372 55.3641C74.1682 55.3641 78.6273 53.9308 83.2456 52.3383C89.4564 50.2681 91.5266 48.8348 90.8896 47.083C90.4119 45.809 89.9341 44.535 89.9341 44.0572C89.9341 43.7387 88.3416 44.0572 86.2713 44.8535C82.7678 46.2868 82.6086 45.9683 82.6086 38.0057C82.9271 20.1695 65.7279 9.49966 50.1212 17.94Z" fill="white"/>
<path d="M67.6391 65.7155C67.6391 67.6265 69.8686 71.767 72.4167 74.7928C77.672 80.6851 78.4682 85.7812 74.8054 92.7883C71.7797 98.6806 67.9576 100.751 60.1543 100.751C50.4399 100.751 42.4774 91.355 44.7069 82.2776C46.1401 76.8631 48.5289 77.5001 48.5289 83.2332C48.5289 88.17 49.4844 88.9662 52.8287 86.7367C54.4212 85.7812 54.4212 83.2332 53.3065 76.2261C52.5102 71.13 51.5547 66.671 51.3954 66.5117C51.0769 66.3525 46.4587 67.1488 41.2034 68.4228C33.0815 70.3338 31.489 71.13 32.126 73.5188C32.6038 75.5891 33.8778 76.2261 36.9036 75.5891C40.5663 74.9521 40.7256 75.2706 39.7701 78.6149C33.7185 97.7251 54.7397 114.446 71.9389 103.936C86.59 95.177 86.9085 77.0224 72.7352 66.034L67.6391 62.0527V65.7155Z" fill="white"/>
<rect x="58.0841" y="24.3099" width="6.37006" height="68.4782" fill="white"/>
<defs>
<linearGradient id="paint0_linear" x1="17" y1="36.5" x2="160.5" y2="61" gradientUnits="userSpaceOnUse">
<stop stop-color="#2E8CF7"/>
<stop offset="1" stop-color="#075FB8"/>
</linearGradient>
</defs>
</svg>
