<svg version="1.1" id="svg1779" width="131.325" height="131.343" xmlns:xlink="http://www.w3.org/1999/xlink" xmlns="http://www.w3.org/2000/svg"><defs id="defs1751"><radialGradient id="radial-gradient" cx="218.05" cy="27.12" r="109.45" gradientUnits="userSpaceOnUse"><stop offset=".1" stop-color="#26db8d" id="stop1742"/><stop offset=".26" stop-color="#23d29a" id="stop1744"/><stop offset=".56" stop-color="#1abbbb" id="stop1746"/><stop offset=".89" stop-color="#0e9de5" id="stop1748"/></radialGradient><radialGradient xlink:href="#radial-gradient" id="radialGradient2092" gradientUnits="userSpaceOnUse" cx="218.05" cy="27.12" r="109.45" gradientTransform="translate(-99.48 .596)"/><radialGradient xlink:href="#radial-gradient" id="radialGradient2094" gradientUnits="userSpaceOnUse" cx="218.05" cy="27.12" r="109.45" gradientTransform="translate(-99.48 .596)"/><style id="style1740">.cls-2{fill:url(#radial-gradient)}</style></defs><path class="cls-2" d="m118.52 27.786-10.6 16.49a47.34 47.34 0 0 1-63.59 63.63l-16.48 10.69a65 65 0 0 0 90.67-90.81Z" id="path1767" style="fill:url(#radialGradient2092);stroke:#000;stroke-opacity:1"/><path class="cls-2" d="M65.68 98.226a32.67 32.67 0 0 0 32.12-26.73 74.73 74.73 0 0 0-59.23 12.31 32.64 32.64 0 0 0 27.11 14.42z" id="path1769" style="fill:url(#radialGradient2094);stroke:#000;stroke-opacity:1"/><path d="M81.78 63.886a78 78 0 0 1 16.57 1.78 32.68 32.68 0 0 0-65.35 0 31.44 31.44 0 0 0 .31 4.37 71.63 71.63 0 0 0-12.26 11.36 47.33 47.33 0 0 1 65.92-58l16.49-10.66a65 65 0 0 0-90.12 91.55 78.77 78.77 0 0 1 11.13-15.34s6.41-6.7 11.33-10.06a77.81 77.81 0 0 1 45.98-15z" id="path1771" style="stroke:#000;stroke-opacity:1;fill:#fff"/></svg>
