<svg xmlns="http://www.w3.org/2000/svg" width="40" height="40" fill="none"><path fill="url(#a)" fill-rule="evenodd" d="M33.232 12.515a2.933 2.933 0 0 1 2.93 2.932v6.168c.05 1.617-1.238 2.982-2.854 3.008-1.616.05-2.954-1.239-3.005-2.857v-6.319a2.933 2.933 0 0 1 2.93-2.932Zm-7.575 4.019a2.933 2.933 0 0 1 2.929 2.932v10.515a2.94 2.94 0 0 1-3.03 2.856 2.937 2.937 0 0 1-2.854-2.856V19.466c.025-1.618 1.338-2.932 2.955-2.932ZM18.08 4.477a2.933 2.933 0 0 1 2.93 2.932v26.288a2.923 2.923 0 0 1-3.132 2.73c-1.465-.102-2.652-1.264-2.728-2.73V7.409c.026-1.618 1.314-2.932 2.93-2.932ZM10.505 2c1.616 0 2.93 1.314 2.955 2.932v14.534a2.94 2.94 0 0 1-3.03 2.856 2.937 2.937 0 0 1-2.854-2.856V4.932A2.933 2.933 0 0 1 10.505 2ZM2.929 12.212a2.933 2.933 0 0 1 2.93 2.932v7.406c.05 1.617-1.238 2.982-2.854 3.008A2.912 2.912 0 0 1 0 22.727V15.144a2.933 2.933 0 0 1 2.93-2.932c.025 0 .025 0 0 0Z" clip-rule="evenodd"/><defs><linearGradient id="a" x1="31.334" x2="4.126" y1="29.031" y2="8.549" gradientUnits="userSpaceOnUse"><stop offset=".04" stop-color="#11CED0"/><stop offset=".43" stop-color="#4053C1"/><stop offset=".69" stop-color="#7D33D6"/><stop offset=".95" stop-color="#CF61DC"/></linearGradient></defs></svg>