<svg width="824" height="824" viewBox="0 0 824 824" fill="none" xmlns="http://www.w3.org/2000/svg">
<circle cx="412" cy="412" r="412" fill="black"/>
<path d="M467.586 376.956L536.961 227.924C538.708 224.153 539.469 220.001 539.176 215.856C538.882 211.711 537.543 207.708 535.283 204.221C533.023 200.733 529.915 197.875 526.251 195.913C522.587 193.952 518.485 192.95 514.328 193.002H296.853C292.072 193.076 287.41 194.501 283.405 197.112C279.4 199.723 276.216 203.414 274.22 207.758L195.25 376.956C193.518 380.743 192.766 384.904 193.063 389.057C193.361 393.211 194.697 397.223 196.951 400.724C199.205 404.226 202.303 407.105 205.96 409.097C209.618 411.089 213.718 412.13 217.883 412.124H334.001C338.158 412.072 342.26 413.074 345.924 415.035C349.588 416.997 352.695 419.855 354.956 423.343C357.216 426.83 358.555 430.833 358.849 434.978C359.142 439.123 358.381 443.275 356.634 447.046L287.013 596.078C285.335 599.854 284.626 603.989 284.95 608.108C285.274 612.227 286.62 616.2 288.868 619.667C291.115 623.135 294.192 625.987 297.82 627.966C301.448 629.945 305.513 630.988 309.646 631H527.121C531.909 630.955 536.584 629.542 540.594 626.928C544.604 624.313 547.783 620.606 549.754 616.244L628.724 447.046C630.47 443.275 631.232 439.123 630.939 434.978C630.645 430.833 629.306 426.83 627.045 423.343C624.785 419.855 621.678 416.997 618.014 415.035C614.349 413.074 610.247 412.072 606.091 412.124H490.219C486.054 412.13 481.954 411.089 478.296 409.097C474.638 407.105 471.54 404.226 469.287 400.724C467.033 397.223 465.696 393.211 465.399 389.057C465.102 384.904 465.854 380.743 467.586 376.956V376.956Z" fill="white"/>
</svg>
