<svg xmlns="http://www.w3.org/2000/svg" width="35" height="34" fill="none"><ellipse cx="17.5" cy="17" rx="17.504" ry="16.928" style="fill:#000;stroke-width:7;stroke-linecap:round"/><g fill="#f2f2f2"><path d="M17.5 1.186a9.002 9.002 0 0 0-3.459.71 9.042 9.042 0 0 0-2.924 1.986 9.098 9.098 0 0 0-1.946 2.96 9.137 9.137 0 0 0-.67 3.485v3.019h7.311V8.972a1.571 1.571 0 0 1 .456-1.107 1.555 1.555 0 0 1 1.1-.458h.263a1.548 1.548 0 0 1 1.1.458 1.566 1.566 0 0 1 .456 1.107v11.726a7.279 7.279 0 0 0 5.17-2.154 7.355 7.355 0 0 0 2.142-5.198v-3.02a9.182 9.182 0 0 0-2.636-6.462 8.922 8.922 0 0 0-2.914-1.982 8.884 8.884 0 0 0-3.45-.696Z"/><path d="M17.632 26.633h-.264a1.55 1.55 0 0 1-1.437-.965 1.571 1.571 0 0 1-.118-.599V13.343a7.278 7.278 0 0 0-5.171 2.153A7.386 7.386 0 0 0 8.5 20.695v2.977a9.092 9.092 0 0 0 .658 3.491 9.053 9.053 0 0 0 1.945 2.968 8.999 8.999 0 0 0 2.93 1.985 8.958 8.958 0 0 0 9.863-1.985 9.09 9.09 0 0 0 2.603-6.458v-2.978h-7.312v4.374a1.572 1.572 0 0 1-.456 1.106 1.554 1.554 0 0 1-1.1.458z"/></g></svg>