<?xml version="1.0" encoding="UTF-8" standalone="no"?>
<svg
   width="35"
   height="34"
   viewBox="0 0 35 34"
   fill="none"
   version="1.1"
   id="svg2231"
   sodipodi:docname="zro.svg"
   inkscape:version="1.2.2 (b0a84865, 2022-12-01)"
   xmlns:inkscape="http://www.inkscape.org/namespaces/inkscape"
   xmlns:sodipodi="http://sodipodi.sourceforge.net/DTD/sodipodi-0.dtd"
   xmlns="http://www.w3.org/2000/svg"
   xmlns:svg="http://www.w3.org/2000/svg">
  <defs
     id="defs2235" />
  <sodipodi:namedview
     id="namedview2233"
     pagecolor="#505050"
     bordercolor="#ffffff"
     borderopacity="1"
     inkscape:showpageshadow="0"
     inkscape:pageopacity="0"
     inkscape:pagecheckerboard="1"
     inkscape:deskcolor="#505050"
     showgrid="false"
     inkscape:zoom="6.9411765"
     inkscape:cx="46.389831"
     inkscape:cy="17.144068"
     inkscape:window-width="1892"
     inkscape:window-height="868"
     inkscape:window-x="0"
     inkscape:window-y="44"
     inkscape:window-maximized="0"
     inkscape:current-layer="svg2231" />
  <ellipse
     style="fill:#000000;stroke-width:7;stroke-linecap:round"
     id="path2543"
     cx="17.5"
     cy="17"
     rx="17.504238"
     ry="16.927965" />
  <g
     id="g2403"
     transform="matrix(0.94595941,0,0,0.94595941,8.5,1.1862074)">
    <path
       d="M 9.51364,8.3127e-7 C 8.25792,0.00626346 7.01571,0.26115 5.85798,0.75015 4.70025,1.23915 3.64967,1.95272 2.76624,2.85 1.8828,3.74727 1.18382,4.81074 0.709201,5.97964 0.234586,7.14855 -0.00635202,8.40001 1.2729e-4,9.66256 V 12.8542 H 7.72992 V 8.23017 C 7.72983,8.01301 7.7723,7.79797 7.8549,7.59732 7.9375,7.39667 8.05862,7.21436 8.21132,7.06079 8.36403,6.90722 8.54535,6.78546 8.74489,6.70237 8.94444,6.61927 9.15832,6.57654 9.37431,6.57658 h 0.27867 c 0.21599,-4e-5 0.42992,0.0427 0.62942,0.12579 0.1996,0.08309 0.3809,0.20485 0.5337,0.35842 0.1527,0.15356 0.2738,0.33588 0.3565,0.53653 0.0826,0.20065 0.1251,0.41568 0.1251,0.63285 V 20.626 c 1.0151,0 2.0203,-0.201 2.9581,-0.5915 0.9378,-0.3906 1.79,-0.9631 2.5078,-1.6847 0.7178,-0.7217 1.2871,-1.5785 1.6756,-2.5214 0.3884,-0.9429 0.5883,-1.9536 0.5883,-2.9742 V 9.66256 C 19.033,7.10448 18.0311,4.6482 16.2408,2.83057 15.3624,1.93362 14.3152,1.22142 13.1602,0.735457 12.0053,0.249496 10.7657,-5.26135e-4 9.51364,8.3127e-7 Z"
       fill="#f2f2f2"
       id="path2205" />
    <path
       d="M 9.65335,26.9007 H 9.37468 c -0.21596,0 -0.42981,-0.0428 -0.62933,-0.1258 C 8.54582,26.6918 8.36452,26.57 8.21182,26.4164 8.05911,26.2629 7.93799,26.0807 7.85537,25.8801 7.77275,25.6795 7.73024,25.4644 7.73029,25.2473 V 12.8516 c -1.01512,-10e-5 -2.02032,0.2008 -2.95818,0.5913 -0.93786,0.3906 -1.79,0.963 -2.5078,1.6847 C 1.54652,15.8493 0.977135,16.7061 0.588708,17.6491 0.20028,18.592 4.1149e-4,19.6027 4.98842e-4,20.6233 v 3.1472 C -0.0123788,25.0349 0.22419,26.2893 0.696522,27.4612 c 0.472328,1.1719 1.171048,2.238 2.055758,3.1367 0.8847,0.8986 1.93783,1.612 3.09848,2.0989 1.16065,0.4869 2.4058,0.7376 3.66341,0.7376 1.25763,0 2.50273,-0.2507 3.66343,-0.7376 1.1606,-0.4869 2.2138,-1.2003 3.0985,-2.0989 0.8847,-0.8987 1.5834,-1.9648 2.0557,-3.1367 0.4724,-1.1719 0.7089,-2.4263 0.696,-3.6907 v -3.1472 h -7.7297 v 4.624 c 0,0.2172 -0.0426,0.4322 -0.1252,0.6328 -0.0827,0.2006 -0.2039,0.3829 -0.3566,0.5364 -0.1527,0.1536 -0.334,0.2753 -0.5336,0.3584 -0.1995,0.083 -0.41338,0.1258 -0.62935,0.1258 z"
       fill="#f2f2f2"
       id="path2207" />
  </g>
</svg>
