<svg width="192.883" height="192.883" fill="0" xmlns="http://www.w3.org/2000/svg"><rect width="192.883" height="192.883" ry="26.428" style="fill:#21242a;fill-opacity:1;stroke-width:2.67893"/><rect width="192.883" height="192.883" ry="26.428" style="stroke-width:2.67893"/><g fill="#fff"><path d="M39.694 44.845s11.701 7.008 13.898 7.528c2.197.528 4.139-.857 4.139-.857l34.93-20.692c-.112.07-.104.053 0 0 .215-.145.084-.054 0 0 1.89-1.072 3.183-1.179 3.537-1.187h.498c.348.005 1.645.12 3.534 1.187-.08-.054-.217-.145 0 0 .107.053.12.07 0 0 .375.233 34.933 20.692 34.933 20.692s1.94 1.385 4.125.857c2.197-.52 13.91-7.528 13.91-7.528s1.58-1.128 0-2.43c-1.581-1.293-50.16-29.974-50.16-29.974l-3.277-1.806s-1.894-1.007-3.322-.99c-1.43-.009-3.317.99-3.317.99l-3.279 1.809s-48.58 28.678-50.168 29.972c-1.57 1.301.016 2.43.016 2.43zm113.495 103.193s-11.71-7.02-13.903-7.536c-2.197-.514-4.134.868-4.134.868s-34.553 20.462-34.93 20.695c.12-.067.107-.06 0 0-.215.134-.08.045 0 0-1.886 1.069-3.183 1.173-3.537 1.181h-.495c-.354-.008-1.645-.12-3.534-1.179.08.043.217.134 0 0-.107-.061-.112-.07 0 0-.375-.235-34.933-20.697-34.933-20.697s-1.94-1.382-4.136-.868c-2.197.525-13.899 7.536-13.899 7.536s-1.588 1.128 0 2.422c1.586 1.301 50.16 29.98 50.16 29.98l3.28 1.808s1.888 1.004 3.319.988c1.43.016 3.327-.988 3.327-.988l3.268-1.809s48.586-28.678 50.166-29.98c1.57-1.293-.019-2.421-.019-2.421z"/><path d="m172.39 87.644-.009-28.349c.008-6.196-2.872-8.192-3.828-8.733-3.89-2.205-7.785.129-7.785.129L96.433 87.36l-23.842 13.636-29.79 16.93s-3.493 2.154-4.42.732c-.442-.675-.348-1.554-.337-4.294V79.979c-.009-2.753-.108-3.616.337-4.294.924-1.414 4.42.729 4.42.729l23.931 13.598 1.157.664c.994.488 2.46 1 3.628.617 1.988-.649 12.599-6.8 12.599-6.8s1.918-.956 2.052-1.835c.153-.993-.796-1.596-1.58-2.04l-52.47-29.922s-3.895-2.339-7.793-.126c-.946.541-3.837 2.532-3.82 8.734l-.011 28.345v18.603l.008 28.348c-.008 6.197 2.874 8.19 3.82 8.734 3.898 2.204 7.793-.134 7.793-.134l64.327-36.675 23.845-13.63 29.792-16.926s3.49-2.151 4.415-.734c.445.683.348 1.546.338 4.3v34.373c0 2.754.107 3.617-.338 4.305-.924 1.412-4.415-.731-4.415-.731l-23.925-13.598-1.158-.657c-.994-.485-2.454-.999-3.619-.624-1.988.656-12.602 6.8-12.602 6.8s-1.923.964-2.057 1.845c-.145.991.796 1.594 1.58 2.036l52.478 29.918s3.895 2.339 7.785.134c.954-.544 3.836-2.537 3.828-8.733V96.95Z"/></g></svg>