<svg xmlns="http://www.w3.org/2000/svg" xml:space="preserve" width="40.006" height="40.006" viewBox="0 0 10.585 10.585"><path fill="#ab52ee" d="M104.91 153.792a5.292 5.292 0 1 0 .145-10.584 5.292 5.292 0 0 0-.146 10.584z" style="stroke-width:.264583" transform="translate(-99.708 -143.208)"/><path d="M152.854 411.599a11.515 11.515 0 0 1 1.984 0c.546.057.1.103-.992.103-1.091 0-1.538-.046-.992-.103zm4.502.003c.402-.061.997-.06 1.322.004.326.062-.004.112-.73.11-.728-.003-.995-.053-.592-.114zm58.337.003a3.768 3.768 0 0 1 1.19 0c.328.063.06.114-.595.114s-.923-.051-.595-.114zm4.227-.004c.47-.059 1.303-.06 1.852-.003.549.057.165.105-.854.106-1.019 0-1.468-.046-.998-.104zm-72.353-.257c.258-.067.615-.063.794.01.18.072-.031.127-.468.122-.437-.005-.583-.065-.326-.132zm13.638.003c.19-.077.42-.067.507.02.088.088-.068.151-.347.14-.308-.013-.371-.076-.16-.16zm51.594 0c.19-.077.419-.067.507.02.088.088-.069.151-.347.14-.309-.013-.371-.076-.16-.16zm13.212.006c.182-.074.48-.074.662 0 .182.073.033.133-.331.133s-.513-.06-.33-.133zm-81.21-.27c.19-.077.419-.067.507.02.088.088-.069.15-.347.14-.309-.013-.371-.076-.16-.16zm84.137 0c.191-.077.42-.067.507.02.088.088-.068.15-.347.14-.308-.013-.37-.076-.16-.16zm-86.254-.265c.191-.076.42-.067.507.02.088.089-.068.151-.347.14-.308-.013-.371-.076-.16-.16zm88.37 0c.192-.076.42-.067.508.02.088.089-.068.151-.347.14-.308-.013-.371-.076-.16-.16zm-38.612-8.485c-.33-.42-.32-.429.1-.1.44.346.58.564.363.564-.055 0-.264-.209-.463-.464zm-8.83-1.918c.716-.727 1.362-1.323 1.435-1.323.073 0-.454.596-1.17 1.323-.717.728-1.363 1.323-1.436 1.323-.073 0 .454-.595 1.17-1.323zm78.449-2.513c.342-.364.68-.662.753-.662.073 0-.147.298-.489.662-.341.364-.68.661-.753.661-.073 0 .147-.297.489-.661zm-150.962-.463-.777-.86.86.777c.802.724.982.943.777.943-.045 0-.432-.387-.86-.86zm76.845.397c-.33-.42-.32-.43.1-.1.44.345.58.563.363.563-.055 0-.264-.209-.463-.463zm-78.957-2.514-1.046-1.124 1.124 1.045c.619.576 1.125 1.082 1.125 1.125 0 .2-.23 0-1.203-1.046zm46.513-.388c.4-.06 1.055-.06 1.455 0 .4.06.073.11-.728.11-.8 0-1.127-.05-.727-.11zm62.05-.003c.475-.059 1.19-.058 1.587.003.397.06.008.109-.865.107-.873-.003-1.198-.05-.723-.11zm-68.003-.248c.182-.073.48-.073.661 0 .182.074.033.134-.33.134-.364 0-.513-.06-.331-.134zm10.6-.006c.19-.076.419-.067.507.021.088.088-.069.15-.348.14-.308-.013-.37-.076-.16-.16zm63.748.006c.182-.073.48-.073.661 0 .182.074.033.134-.33.134-.364 0-.513-.06-.331-.134zm41.738-.354c.263-.29.538-.529.61-.529.074 0-.082.238-.346.53-.263.29-.538.529-.611.529-.073 0 .083-.238.347-.53zm-118.716.084c.191-.076.42-.067.508.021.087.088-.069.15-.348.14-.308-.014-.37-.076-.16-.16zm79.905 0c.19-.076.419-.067.507.021.088.088-.069.15-.348.14-.308-.014-.37-.076-.16-.16zm-82.021-.264c.19-.077.419-.067.507.02.088.088-.069.151-.347.14-.309-.013-.371-.076-.16-.16zm84.137 0c.191-.077.42-.067.507.02.088.088-.068.151-.347.14-.308-.013-.37-.076-.16-.16zm-57.894-3.888c0-.055.208-.264.463-.463.42-.33.43-.32.1.1-.346.44-.563.58-.563.363zm30.278-1.554-.777-.86.86.777c.802.725.982.943.777.943-.045 0-.432-.387-.86-.86zm-81.88-5.424-1.447-1.521 1.521 1.446c1.414 1.343 1.643 1.596 1.447 1.596-.042 0-.726-.684-1.522-1.52zm159.618-5.805a2.19 2.19 0 0 1 .926 0c.255.067.047.121-.463.121-.509 0-.717-.054-.463-.12zm4.101-.257c.182-.074.48-.074.662 0 .182.073.033.133-.331.133s-.513-.06-.33-.133zm-185.985-.27c.19-.077.419-.068.507.02.088.088-.068.15-.347.14-.309-.014-.371-.076-.16-.16zm188.912 0c.191-.077.42-.068.507.02.088.088-.068.15-.347.14-.308-.014-.37-.076-.16-.16zm-191.558-.265c.19-.077.42-.067.507.02.088.088-.068.151-.347.14-.308-.013-.371-.076-.16-.16zm193.94 0c.19-.077.419-.067.507.02.088.088-.069.151-.348.14-.308-.013-.37-.076-.16-.16zm1.852-.265c.19-.076.419-.067.507.021.088.088-.069.15-.348.139-.308-.013-.37-.075-.16-.16zm-111.849-1.032c.013-.308.076-.37.16-.16.077.191.067.42-.02.507-.089.088-.151-.068-.14-.347zm16.98-1.3c.002-.583.057-.79.12-.46.063.328.06.805-.005 1.058-.066.253-.118-.017-.115-.599zm126.933-10.552c0-.055.208-.263.463-.463.42-.329.429-.32.1.1-.346.44-.563.581-.563.363zm-264.723-3.14-1.845-1.92 1.918 1.846c1.055 1.015 1.919 1.878 1.919 1.918 0 .194-.278-.063-1.992-1.845zm46.255.927c1.135-.05 2.92-.05 3.969 0 1.048.05.12.09-2.063.09-2.183 0-3.04-.041-1.906-.091zm162.693 0a77.946 77.946 0 0 1 4.763 0c1.353.048.318.087-2.302.088-2.62 0-3.727-.04-2.46-.088zm-168.923-.243c.182-.074.48-.074.662 0 .182.073.033.133-.33.133-.365 0-.514-.06-.332-.133zm180.584-.008c.257-.067.614-.063.793.01.18.072-.031.127-.468.122-.436-.005-.583-.065-.325-.132zm-182.684-.262c.191-.077.42-.067.507.02.088.088-.068.15-.347.14-.308-.013-.37-.076-.16-.16zm186.267 0c.19-.077.42-.067.507.02.088.088-.068.15-.347.14-.308-.013-.371-.076-.16-.16zm2.381-.265c.191-.076.42-.067.507.02.088.089-.068.151-.347.14-.308-.013-.37-.076-.16-.16zm42.383-1.242c0-.055.208-.263.463-.463.42-.33.43-.32.1.1-.346.44-.563.58-.563.363zm-200.223-14.9a2.19 2.19 0 0 1 .926 0c.254.067.046.122-.463.122-.51 0-.718-.055-.463-.121zm2.91 0a2.19 2.19 0 0 1 .926 0c.255.067.046.122-.463.122-.51 0-.718-.055-.463-.121zm123.031 0a2.19 2.19 0 0 1 .926 0c.255.067.047.122-.463.122-.509 0-.717-.055-.463-.121zm2.91 0c.255-.066.672-.066.927 0 .254.067.046.122-.463.122-.51 0-.718-.055-.463-.121zm2.795-.262c.191-.077.42-.067.508.02.087.089-.069.151-.348.14-.308-.013-.37-.076-.16-.16zm-146.298-5.839c-.33-.42-.32-.429.1-.1.254.2.463.409.463.463 0 .218-.218.078-.563-.363zm158.519.363c0-.054.208-.263.463-.463.42-.329.429-.32.1.1-.346.441-.563.581-.563.363zm-125.148-.826c.342-.363.68-.661.754-.661.072 0-.148.298-.49.661-.341.364-.68.662-.753.662-.073 0 .147-.298.489-.662zm-99.463-1.345c.013-.308.076-.37.16-.16.077.192.067.42-.02.508-.088.088-.151-.069-.14-.348zm101.183-.374c.263-.291.538-.53.61-.53.074 0-.082.239-.346.53-.263.29-.538.529-.61.529-.074 0 .082-.238.346-.53zm-37.737-.463c-.33-.42-.32-.43.1-.1.44.345.58.563.363.563-.055 0-.263-.209-.463-.463zm163.81.363c0-.055.21-.264.464-.463.42-.33.429-.32.1.1-.346.44-.563.58-.563.363zm-38.133-.893c-.33-.42-.32-.429.1-.1.255.2.463.409.463.463 0 .218-.217.078-.563-.363zm-189.366-.86c0-.363.06-.512.133-.33.074.182.074.48 0 .661-.073.182-.133.033-.133-.33zm292.343-.154c.013-.308.076-.37.16-.16.077.191.067.42-.02.507-.088.088-.151-.068-.14-.347zm-276.49-2.117c.014-.308.076-.37.16-.16.077.192.068.42-.02.508-.088.088-.15-.069-.14-.348zm276.796-.904c0-.509.054-.717.12-.463.067.255.067.672 0 .926-.066.255-.12.047-.12-.463zm-292.876-1.587c0-.8.05-1.128.11-.728.06.4.06 1.055 0 1.456-.06.4-.11.072-.11-.728zm276.225 0c0-.8.05-1.128.11-.728.06.4.06 1.055 0 1.456-.06.4-.11.072-.11-.728zm-193.419-1.77c.258-.068.615-.064.794.01.18.072-.032.126-.468.121-.437-.005-.583-.065-.326-.132zm125.942 0c.257-.068.614-.064.794.01.179.072-.032.126-.468.121-.437-.005-.584-.065-.326-.132zm67.44-.876c0-.364.06-.512.133-.33.073.181.073.479 0 .66-.074.183-.134.034-.134-.33zm-73.088-1.521-.641-.728.728.642c.4.352.727.68.727.727 0 .208-.214.039-.814-.641zm-187.02.044c.014-.308.076-.371.16-.16.077.191.068.42-.02.507-.088.088-.15-.068-.14-.347zm276.786-.243c.005-.436.064-.583.132-.325.067.257.062.614-.01.793-.073.18-.128-.031-.122-.468zm-292.64-.397c0-.363.06-.512.134-.33.074.182.074.48 0 .661-.073.182-.133.033-.133-.33zm107.665-1.741c.013-.309.076-.371.16-.16.077.19.067.419-.02.507-.089.088-.151-.068-.14-.347zm184.68-.265c.012-.308.075-.37.16-.16.076.191.066.42-.022.507-.087.088-.15-.068-.139-.347zm-292.1-.265c.012-.308.075-.37.16-.16.076.192.066.42-.022.508-.087.088-.15-.069-.139-.348zm233.667-1.697c0-.51.055-.718.121-.463.067.254.067.671 0 .926-.066.254-.12.046-.12-.463zm-176.207-.397c.003-.582.057-.79.12-.46.064.329.061.805-.005 1.058s-.118-.016-.115-.598zm50.286-1.058c.002-.874.05-1.199.11-.723.059.475.057 1.19-.003 1.587-.06.398-.109.008-.107-.864zm109.258 0c.003-.583.057-.79.12-.46.063.329.061.805-.005 1.058s-.118-.016-.115-.598zm-142.89 0c.005-.437.064-.584.131-.326.067.257.063.614-.01.794-.072.179-.127-.032-.122-.468zm58.737 0c.005-.437.065-.584.132-.326.067.257.062.614-.01.794-.073.179-.128-.032-.122-.468zm-75.391-1.059c.003-.582.057-.789.12-.46.064.33.061.806-.005 1.059-.066.253-.118-.017-.115-.599zm176.207-.397c0-.509.055-.717.121-.463.067.255.067.672 0 .926-.066.255-.12.047-.12-.463zm-33.378.11c.013-.308.075-.37.16-.16.076.192.067.42-.021.508-.088.088-.15-.069-.139-.347zM122.096 313.5c.342-.364.681-.662.754-.662.073 0-.147.298-.49.662-.341.363-.68.661-.753.661-.073 0 .147-.298.49-.661zm12.014-.199-.504-.595.595.504c.56.474.716.687.504.687-.05 0-.318-.268-.595-.596zm113.928.231c0-.055.208-.263.463-.463.42-.329.429-.32.1.1-.346.44-.563.58-.563.363zm24.713-11.079-.504-.595.596.504c.559.474.715.687.504.687-.05 0-.319-.268-.596-.596zm40.152.066c0-.363.06-.512.133-.33.073.182.073.48 0 .661-.073.182-.133.033-.133-.33zm-41.866-1.786-.642-.727.728.641c.68.6.849.814.641.814-.047 0-.375-.327-.727-.728zm76.881-5.093c.263-.29.538-.529.611-.529.073 0-.083.238-.346.53-.264.29-.539.528-.612.528-.072 0 .084-.238.347-.529zm-316.343-.992c-.33-.42-.32-.429.1-.1.254.2.463.408.463.463 0 .218-.217.078-.563-.363zm221.958-.522c.475-.06 1.19-.058 1.587.003.398.06.008.108-.864.107-.874-.003-1.199-.051-.723-.11zm97.295-1.396c.264-.291.539-.53.612-.53.072 0-.084.239-.347.53-.263.29-.538.53-.611.53-.073 0 .083-.24.346-.53zm-323.063-1.654-1.845-1.918 1.918 1.845c1.055 1.015 1.919 1.878 1.919 1.918 0 .194-.278-.063-1.992-1.845zm-3.598-3.836c-.33-.42-.32-.43.1-.1.254.2.463.408.463.463 0 .218-.218.078-.563-.363zm309.86-.96c0-.055.209-.263.463-.463.42-.33.43-.32.1.1-.345.44-.563.58-.563.363zM40.85 281.683l-.641-.728.727.641c.68.6.85.814.642.814-.048 0-.375-.327-.728-.727zm297.147.627c0-.055.209-.263.463-.463.42-.329.43-.32.1.1-.346.44-.563.581-.563.363zM37.94 278.772l-.642-.727.728.64c.68.6.849.815.641.815-.047 0-.375-.328-.727-.728zm324.684-14.243c.013-.309.076-.371.16-.16.077.19.067.42-.02.507-.089.088-.151-.068-.14-.347zm-16.668-1.852c.012-.309.075-.371.16-.16.076.19.066.419-.021.507-.088.088-.15-.069-.14-.347zm16.954-.64c0-.364.06-.512.133-.33.074.181.074.479 0 .661-.073.182-.133.033-.133-.33zm-16.669-1.587c0-.364.06-.513.134-.331.073.182.073.48 0 .661-.074.182-.134.034-.134-.33zm-334.983-.42c.012-.307.075-.37.16-.16.076.192.067.42-.021.508-.088.088-.15-.068-.14-.347zm351.936-1.432c0-.51.054-.718.121-.463.067.254.067.671 0 .926-.067.254-.121.046-.121-.463zm-352.2-.42c.012-.308.074-.37.159-.16.076.192.067.42-.021.508-.088.088-.15-.068-.139-.347zm335.531-1.432c0-.51.055-.718.121-.463.067.254.067.67 0 .926-.066.254-.12.046-.12-.463zm-318.863.11c.013-.308.075-.371.16-.16.076.19.067.42-.021.507-.088.088-.15-.068-.14-.347zm-16.893-1.698c0-.51.054-.718.121-.463.067.255.067.671 0 .926s-.121.046-.121-.463zm16.706-3.307c0-1.601.044-2.222.097-1.38a26.89 26.89 0 0 1 0 2.91c-.054.76-.097.07-.097-1.53zm167.954 1.19c0-.363.06-.512.133-.33.073.182.073.48 0 .661-.073.182-.133.033-.133-.33zm58.818-14.287c0-7.494.034-10.56.076-6.813.04 3.747.04 9.879 0 13.626-.042 3.747-.076.681-.076-6.813zm-58.818 12.7c0-.364.06-.513.133-.33.073.181.073.479 0 .66-.073.183-.133.034-.133-.33zm-184.66-2.381c0-.51.054-.718.121-.463.067.254.067.671 0 .926-.067.254-.121.046-.121-.463zm335.737 0c0-.364.06-.513.133-.331.073.182.073.48 0 .661-.073.182-.133.033-.133-.33zm16.668-1.059c0-.364.06-.512.134-.33.073.181.073.48 0 .661-.074.182-.134.033-.134-.33zm-335.512-1.477c.013-.308.075-.37.16-.16.076.191.067.42-.021.507-.088.088-.15-.068-.14-.347zm-16.669-.794c.013-.308.075-.37.16-.16.076.191.067.42-.021.508-.088.087-.15-.069-.139-.348zm351.896-.264c.013-.309.075-.371.16-.16.076.19.067.42-.021.507-.088.088-.15-.068-.14-.347zm-351.631-1.852c.012-.309.075-.371.16-.16.076.19.067.419-.021.507-.088.088-.15-.069-.14-.347zm80.627-8.493c.191-.077.42-.067.507.02.088.088-.068.15-.347.14-.308-.013-.371-.076-.16-.16zm5.01.006c.183-.074.48-.074.662 0 .182.073.033.133-.33.133-.364 0-.513-.06-.331-.133zm241.21-4.654-.505-.595.596.504c.56.474.715.686.504.686-.05 0-.318-.267-.596-.595zm-227.65-.827c0-.055.209-.264.464-.463.42-.33.429-.32.1.1-.346.44-.563.58-.563.363zm-32.436-.76-.504-.596.595.504c.56.474.716.687.504.687-.05 0-.318-.268-.595-.595zm-1.852-1.852-.504-.596.595.504c.56.474.716.687.504.687-.05 0-.318-.268-.595-.595zm-37.281-3.374c.263-.29.538-.529.61-.529.074 0-.082.238-.346.53-.263.29-.538.528-.61.528-.074 0 .082-.238.346-.529zm289.966-2.712-.777-.86.86.777c.802.725.982.943.777.943-.045 0-.432-.387-.86-.86zm-287.453-.066c.342-.364.681-.661.754-.661.073 0-.147.297-.49.661-.34.364-.68.662-.753.662-.073 0 .147-.298.49-.662zm219.869.562c0-.055.208-.264.463-.463.42-.33.429-.32.1.1-.346.44-.563.58-.563.363zm-33.337-2.15c-.643-.654-1.11-1.19-1.037-1.19.073 0 .658.536 1.301 1.19.643.655 1.11 1.191 1.036 1.191-.072 0-.658-.536-1.3-1.19zm122.468.728c-.33-.42-.32-.429.1-.1.254.2.463.408.463.463 0 .218-.218.078-.563-.363zm-292.992-1.389-13.759-.14 13.677-.062c8.9-.04 13.733.03 13.84.202.09.146.127.236.082.202-.045-.034-6.273-.125-13.84-.202zm36.066-.18c.19-.077.419-.068.507.02.088.088-.069.15-.348.14-.308-.013-.37-.076-.16-.16zm2.116 0c.191-.077.42-.068.507.02.088.088-.068.15-.347.14-.308-.013-.37-.076-.16-.16zm252.457-1.017c-.184-.222-.283-.454-.22-.517.062-.063.258.119.436.403.384.615.256.683-.216.114zM119.8 210.18c0-.945.048-1.332.106-.86a8.42 8.42 0 0 1 0 1.72c-.058.473-.106.086-.106-.86zm125.394-.19c.4-.06 1.055-.06 1.455 0 .4.062.073.111-.728.111-.8 0-1.128-.05-.727-.11zm6.548-2.323c.342-.364.681-.662.754-.662.073 0-.148.298-.49.662-.341.364-.68.661-.753.661-.073 0 .147-.297.489-.661zm-30.935-2.933c.012-.308.075-.37.16-.16.076.192.067.42-.021.508-.088.088-.15-.069-.14-.348zm50.006-.529c.013-.308.075-.37.16-.16.076.191.067.42-.021.508-.088.087-.15-.069-.14-.348zm-16.669-1.587c.013-.308.076-.371.16-.16.076.19.067.42-.02.507-.089.088-.151-.068-.14-.347zm.021-1.698c0-.364.06-.513.133-.33.074.181.074.479 0 .66-.073.183-.133.034-.133-.33zm-16.69-.684c.013-.308.076-.37.16-.16.077.192.067.42-.02.508-.089.088-.151-.069-.14-.348zm33.359-.903c0-.364.06-.513.133-.331.074.182.074.48 0 .661-.073.182-.133.033-.133-.33zm-50.027-.684c.012-.308.075-.37.16-.16.076.191.066.42-.021.507-.088.088-.15-.068-.14-.347zm18.235-2.062c0-.055.208-.264.463-.463.42-.33.429-.32.1.1-.346.44-.563.58-.563.363zm12.68-.893-.641-.727.727.641c.4.353.728.68.728.728 0 .207-.215.039-.814-.642zm-6.925-2.358c.182-.073.48-.073.661 0 .182.074.033.134-.33.134-.364 0-.513-.06-.331-.134zm1.587 0c.182-.073.48-.073.662 0 .182.074.033.134-.331.134s-.513-.06-.33-.134zm-168.209-2.041c0-.055.209-.264.463-.463.42-.33.43-.32.1.1-.345.44-.563.58-.563.363zm13.444-6.167c.191-.076.42-.067.508.021.088.088-.069.15-.348.14-.308-.014-.37-.076-.16-.16zm5.821 0c.191-.076.42-.067.507.021.088.088-.068.15-.347.14-.308-.014-.37-.076-.16-.16zm130.622-1.142c.716-.727 1.362-1.323 1.435-1.323.073 0-.454.596-1.17 1.323-.717.728-1.363 1.323-1.436 1.323-.073 0 .454-.595 1.17-1.323zm35.437-.066-.777-.86.86.777c.802.725.982.943.777.943-.045 0-.432-.387-.86-.86zm-20.29-7.253c.182-.073.48-.073.662 0 .182.074.033.134-.331.134s-.513-.06-.33-.134zm4.763 0c.182-.073.48-.073.661 0 .182.074.033.134-.33.134-.364 0-.513-.06-.331-.134zm-219.517-3.419c.012-.308.075-.37.16-.16.076.192.066.42-.021.508-.088.088-.15-.069-.14-.348zm333.904 0c.012-.308.075-.37.16-.16.076.192.067.42-.021.508-.088.088-.15-.069-.14-.348zm-350.838-.529c.013-.308.076-.37.16-.16.077.191.067.42-.02.508-.089.087-.151-.069-.14-.348zm-.264-2.116c.012-.309.075-.371.16-.16.076.19.067.419-.021.507-.088.088-.15-.069-.14-.347zm16.69-1.169c0-.364.06-.513.133-.33.073.181.073.479 0 .66-.074.183-.134.034-.134-.33zm167.46-.419c.012-.308.075-.37.16-.16.076.191.067.42-.021.507-.088.088-.15-.068-.14-.347zm167.48 0c.014-.308.076-.37.16-.16.077.191.068.42-.02.507-.088.088-.15-.068-.14-.347zm-351.874-1.168c0-.364.06-.513.133-.331.074.182.074.48 0 .661-.073.182-.133.033-.133-.33zm184.394-.42c.012-.308.075-.37.16-.16.076.192.067.42-.021.508-.088.088-.15-.068-.14-.347zm150.812 0c.013-.308.076-.37.16-.16.076.192.067.42-.02.508-.089.088-.151-.068-.14-.347zm-318.537-.639c0-.364.06-.512.133-.33.074.181.074.479 0 .66-.073.183-.133.034-.133-.33zm335.511-.794c0-.509.054-.717.121-.463.067.255.067.672 0 .926-.067.255-.121.047-.121-.463zm-16.669-1.587c0-.51.055-.718.121-.463.067.255.067.671 0 .926-.066.255-.12.046-.12-.463zm-335.756-.53c0-.509.054-.717.121-.462.067.254.067.671 0 .926-.067.254-.121.046-.121-.463zm16.712-4.233c0-2.11.042-2.973.092-1.918.05 1.055.05 2.782 0 3.837-.05 1.055-.092.192-.092-1.919zm125.959-.066c-.07-.182-.095-9.677-.056-21.1l.07-20.77.064 20.966.065 20.965 12.633.072 12.634.07-12.642.064c-9.917.05-12.67-.008-12.768-.267zm193.09-2.976c.004-.582.058-.79.121-.46.063.329.06.805-.005 1.058-.066.253-.118-.016-.115-.598zm-335.75-1.19c0-.656.051-.924.114-.596a3.77 3.77 0 0 1 0 1.19c-.063.328-.114.06-.114-.595zm352.404-.398c.005-.436.065-.583.132-.325.067.257.063.614-.01.793-.073.18-.127-.031-.122-.468zm-16.943-2.249c0-.364.06-.512.133-.33.074.181.074.48 0 .661-.073.182-.133.033-.133-.33zm-318.558-.529c0-.364.06-.513.133-.33.074.181.074.479 0 .66-.073.183-.133.034-.133-.33zm335.227-.794c0-.363.06-.512.133-.33.074.182.074.48 0 .661-.073.182-.133.033-.133-.33zm-351.896-.529c0-.364.06-.512.133-.33.074.181.074.479 0 .66-.073.183-.133.034-.133-.33zm82.7.338c.47-.058 1.304-.059 1.853-.002.549.058.164.106-.854.107-1.019 0-1.468-.046-.998-.104zm193.147 0c.47-.058 1.303-.059 1.852-.002.549.058.164.106-.854.107-1.019 0-1.468-.046-.998-.104zm-196.034-.254c.19-.076.419-.067.507.021.088.088-.068.15-.347.139-.309-.013-.371-.075-.16-.16zm200.554 0c.19-.076.42-.067.507.021.088.088-.068.15-.347.139-.308-.013-.371-.075-.16-.16zm54.575-.503c.012-.308.075-.37.16-.16.076.191.066.42-.021.508-.088.087-.15-.069-.14-.348zm-318.009-.904c0-.363.06-.512.134-.33.073.181.073.48 0 .661-.074.182-.134.033-.134-.33zm334.677-.683c.013-.308.076-.371.16-.16.077.19.067.42-.02.507-.089.088-.151-.068-.14-.347zm-16.933-.53c.013-.308.075-.37.16-.16.076.192.067.42-.021.508-.088.088-.15-.069-.14-.347zm-334.412-.374c0-.364.06-.513.133-.33.073.181.073.479 0 .66-.073.182-.133.034-.133-.33zm351.08-1.213c.013-.308.076-.37.16-.16.077.191.068.42-.02.507-.088.088-.15-.068-.14-.347zm-350.837-1.058c.013-.308.076-.371.16-.16.077.19.067.42-.02.507-.089.088-.151-.068-.14-.347zm66.105-1.103-.641-.727.727.641c.68.6.85.814.642.814-.048 0-.375-.327-.728-.728zm226.9.199c.264-.291.539-.53.612-.53.072 0-.084.239-.347.53-.263.29-.538.529-.611.529-.073 0 .083-.238.346-.53zm57.568.11c.013-.308.076-.37.16-.16.076.191.067.42-.02.507-.089.088-.151-.068-.14-.347zM76.04 143.041l-.642-.728.728.642c.68.6.849.813.641.813-.047 0-.375-.327-.727-.727zm230.34-.066c.263-.291.538-.53.61-.53.073 0-.083.239-.346.53-.263.29-.538.529-.611.529-.073 0 .083-.238.346-.53zm-294.064-2.536c.013-.308.075-.37.16-.16.076.191.067.42-.021.507-.088.088-.15-.068-.139-.347zm88.218-8.312c.263-.291.538-.53.61-.53.074 0-.082.239-.346.53-.263.29-.538.529-.611.529-.073 0 .083-.238.347-.53zm181.338.066c-.33-.42-.32-.43.1-.1.254.2.463.408.463.463 0 .218-.218.078-.563-.363zm31.056-4.696c.003-.583.058-.79.12-.46.064.329.062.805-.004 1.058s-.118-.016-.115-.598zm-243.392-1.323c0-1.164.047-1.608.103-.986.056.623.055 1.575-.002 2.117s-.102.033-.101-1.131zm16.63 0c.005-.437.064-.583.131-.326.067.257.063.615-.01.794-.072.179-.127-.032-.122-.468zm92.339 0c.005-.437.065-.583.132-.326.067.257.062.615-.01.794-.073.179-.128-.032-.122-.468zm117.74 0c.005-.437.064-.583.131-.326.067.257.063.615-.01.794-.072.179-.127-.032-.122-.468zm16.684-1.323c.003-.582.057-.79.12-.46.063.329.06.805-.005 1.058-.066.253-.118-.016-.115-.598zm-212.548-4.829-.641-.727.728.64c.68.6.848.815.64.815-.046 0-.374-.328-.727-.728zm181.525.066c.341-.363.68-.661.753-.661.073 0-.147.297-.489.661-.342.364-.68.662-.754.662-.072 0 .148-.298.49-.662zm-187.375-2.43c.19-.076.42-.066.507.022.088.087-.068.15-.347.138-.308-.012-.371-.075-.16-.16zm193.146 0c.19-.076.419-.066.507.022.088.087-.069.15-.347.138-.309-.012-.371-.075-.16-.16zm-212.014-8.02c.263-.292.538-.53.611-.53.073 0-.083.238-.347.53-.263.29-.538.528-.61.528-.074 0 .082-.238.346-.529zm231.08.065c-.33-.42-.32-.429.1-.1.254.2.463.409.463.464 0 .217-.218.077-.563-.364zm-228.699-2.447c.263-.291.538-.53.611-.53.073 0-.083.239-.346.53-.264.291-.539.53-.612.53-.072 0 .084-.239.347-.53zm226.053-.198c-.33-.42-.32-.43.1-.1.44.345.58.563.363.563-.055 0-.264-.209-.463-.463zm20.264-3.043-1.313-1.39 1.39 1.314c1.29 1.22 1.51 1.465 1.312 1.465-.042 0-.667-.625-1.389-1.39zm-2.652-2.646-.777-.86.86.777c.801.725.981.943.777.943-.046 0-.433-.387-.86-.86zm-228.514-.386c.329-.063.805-.06 1.058.005.253.067-.016.118-.599.115-.582-.003-.789-.057-.46-.12zm2.116 0c.33-.063.806-.06 1.059.005.253.067-.017.118-.599.115-.582-.003-.789-.057-.46-.12zm191.03 0c.329-.063.805-.06 1.058.005.253.067-.017.118-.599.115-.582-.003-.789-.057-.46-.12zm2.116 0c.33-.063.805-.06 1.058.005.253.067-.016.118-.598.115-.582-.003-.79-.057-.46-.12zm-237.4-2.194c1.01-1.018 1.897-1.852 1.97-1.852.073 0-.695.834-1.706 1.852-1.01 1.019-1.897 1.852-1.97 1.852-.073 0 .695-.833 1.706-1.852zm268.121.331c-.33-.42-.32-.429.1-.1.255.2.463.408.463.463 0 .218-.217.078-.563-.363zm22.225-.794c-.33-.42-.32-.429.1-.1.255.2.463.408.463.463 0 .218-.217.078-.563-.363zm-1.587-1.852c-.33-.42-.32-.429.1-.1.44.346.58.563.363.563-.055 0-.264-.208-.463-.463zm-285.188-.96c0-.055.209-.263.463-.463.42-.329.43-.32.1.1-.345.441-.563.581-.563.363zm-21.96-1.058c0-.055.208-.263.463-.463.42-.33.429-.32.1.1-.346.44-.563.58-.563.363zm302.942-2.48-2.243-2.315 2.315 2.243c2.15 2.084 2.436 2.387 2.243 2.387-.04 0-1.081-1.041-2.315-2.315zm-301.62.893c0-.055.21-.264.464-.463.42-.33.429-.32.1.1-.346.44-.563.58-.563.363zm3.165-3.406c.649-.691 1.214-1.257 1.257-1.257.198 0-.012.238-1.18 1.334l-1.257 1.18zm294.194-1.455c-.33-.42-.32-.43.1-.1.44.345.58.563.363.563-.055 0-.263-.209-.463-.463zM39.81 86.8c0-.045.387-.432.86-.86l.86-.777-.778.86c-.724.802-.942.982-.942.777zm289.685-.38c-.33-.42-.32-.429.1-.1.44.346.58.563.363.563-.055 0-.264-.208-.463-.463zm-40.762-2.099c.191-.076.42-.067.507.02.088.089-.068.151-.347.14-.308-.013-.371-.075-.16-.16zM42.72 84.137c0-.055.209-.263.463-.463.42-.329.43-.32.1.1-.346.44-.563.581-.563.363zm35.67-.08c.19-.077.419-.068.506.02.088.088-.068.15-.347.14-.308-.013-.37-.076-.16-.16zm2.116-.265c.191-.077.42-.067.507.02.088.089-.068.151-.347.14-.308-.013-.371-.076-.16-.16zm204.258 0c.191-.077.42-.067.507.02.088.089-.068.151-.347.14-.308-.013-.37-.076-.16-.16zm-201.877-.265c.191-.076.42-.067.507.021.088.088-.068.15-.347.14-.308-.014-.37-.076-.16-.16zm199.76 0c.192-.076.42-.067.508.021.088.088-.069.15-.347.14-.309-.014-.371-.076-.16-.16zm-87.172-9.476c.001-1.164.048-1.608.104-.985.056.622.055 1.574-.002 2.116s-.103.033-.102-1.131zm-16.952-2.778c0-.655.052-.923.115-.596a3.77 3.77 0 0 1 0 1.19c-.063.328-.115.06-.115-.594zM71.561 69.317c0-.058.185-.175.41-.262.236-.09.342-.046.25.104-.156.251-.66.372-.66.158zm124.131-1.22c0-.363.06-.512.134-.33.073.182.073.48 0 .661-.074.182-.134.033-.134-.33zM178.23 67.04c0-.364.06-.512.133-.33.073.181.073.48 0 .661-.073.182-.133.033-.133-.33zm-85.238-.876c0-.046.387-.433.86-.86l.86-.777-.777.86c-.725.801-.943.981-.943.777zm102.944-1.13c.013-.308.075-.371.16-.16.076.191.067.42-.021.507-.088.088-.15-.068-.14-.347zm-17.971-.64c0-.363.06-.512.134-.33.073.182.073.48 0 .661-.074.182-.134.033-.134-.33zm-82.327-.876c0-.046.387-.433.86-.86l.86-.777-.777.86c-.725.801-.943.981-.943.777zm100.562-.6c.013-.309.076-.372.16-.16.077.19.067.419-.02.506-.089.088-.151-.068-.14-.347zm74.17-2.03-.504-.595.595.504c.56.474.716.687.504.687-.05 0-.318-.268-.595-.595zm-4.11-4.1c-.329-.42-.32-.43.1-.1.441.345.581.563.363.563-.055 0-.263-.209-.463-.463zM81.747 53.81c.264-.29.539-.529.611-.529.073 0-.083.238-.346.53-.264.29-.539.528-.611.528-.073 0 .083-.238.346-.529zm201.976-1.786c-.33-.42-.32-.429.1-.1.254.2.463.408.463.463 0 .218-.218.078-.563-.363zm-1.588-1.852c-.329-.42-.32-.429.1-.1.441.346.581.563.363.563-.055 0-.263-.208-.463-.463zM87.171 48.42c0-.055.209-.264.463-.463.42-.33.43-.32.1.1-.346.44-.563.58-.563.363zm84.382-2.216-.641-.727.727.641c.4.353.728.68.728.728 0 .207-.214.038-.814-.642zm105.432-1.19-.504-.596.595.504c.56.474.716.687.504.687-.05 0-.318-.268-.595-.595zm-42.49-1.702c.19-.077.419-.067.507.02.088.088-.069.151-.348.14-.308-.013-.37-.076-.16-.16zm-93.134-.265c.191-.076.42-.067.507.02.088.089-.068.151-.347.14-.308-.013-.37-.075-.16-.16zm2.381-.265c.191-.076.42-.067.508.021.087.088-.069.15-.348.14-.308-.013-.37-.076-.16-.16zm86.784 0c.19-.076.419-.067.507.021.088.088-.069.15-.347.14-.309-.013-.371-.076-.16-.16zm-84.419-.259c.182-.073.48-.073.662 0 .181.074.033.134-.331.134s-.513-.06-.33-.134zm17.215-.005c.19-.077.419-.067.507.02.088.089-.069.151-.348.14-.308-.013-.37-.076-.16-.16zm47.095 0c.191-.077.42-.067.508.02.087.089-.069.151-.348.14-.308-.013-.37-.076-.16-.16zm17.182.005c.182-.073.48-.073.661 0 .182.074.033.134-.33.134-.364 0-.513-.06-.331-.134zm-77.52-.276c.33-.063.805-.061 1.058.005s-.016.118-.598.115c-.582-.003-.79-.057-.46-.12zm10.718.004c.257-.067.614-.063.793.01.18.072-.031.127-.468.121-.436-.005-.583-.064-.325-.131zm51.858 0c.257-.067.614-.063.794.01.179.072-.032.127-.468.121-.437-.005-.584-.064-.326-.131zm10.71-.004a3.77 3.77 0 0 1 1.191 0c.327.063.06.115-.595.115s-.923-.052-.596-.115zm-39.62-7.354c-.644-.654-1.11-1.19-1.037-1.19.073 0 .658.536 1.3 1.19.643.655 1.11 1.191 1.037 1.191-.073 0-.658-.536-1.3-1.19zm6.481-.132c.264-.29.539-.529.612-.529.072 0-.084.238-.347.53-.263.29-.538.528-.611.528-.073 0 .083-.238.346-.529zm-52.834-8.118c.191-.077.42-.067.508.02.087.089-.069.151-.348.14-.308-.013-.37-.076-.16-.16zm4.217-.524c.182-.073.48-.073.662 0 .182.074.033.134-.331.134s-.513-.06-.33-.134zm89.71-.005c.191-.077.42-.067.508.02.088.089-.069.151-.348.14-.308-.013-.37-.076-.16-.16zm-86.927-.267c.258-.068.615-.063.794.01.18.072-.031.127-.468.121-.436-.005-.583-.064-.326-.131zm84.138 0c.257-.068.614-.063.794.01.179.072-.032.127-.468.121-.437-.005-.584-.064-.326-.131zm-80.439-.264c.255-.067.672-.067.927 0 .254.066.046.12-.463.12-.51 0-.718-.054-.464-.12zm13.362.007c.182-.073.48-.073.661 0 .182.074.034.134-.33.134s-.513-.06-.331-.134zm50.535 0c.182-.073.48-.073.662 0 .182.074.033.134-.33.134-.365 0-.514-.06-.332-.134zm12.703-.012c.33-.063.806-.06 1.059.006.253.066-.017.118-.599.115-.582-.003-.789-.058-.46-.12zm-68.923-.267c.402-.06.998-.06 1.323.003.325.063-.004.113-.731.111-.728-.002-.994-.053-.592-.114zm61.383 0c.403-.06.998-.06 1.323.003.326.063-.004.113-.73.111-.729-.002-.995-.053-.593-.114z" style="fill:#8c8c8c;fill-opacity:1;stroke-width:.264583" transform="translate(1.896 1.325) scale(.01816)"/><path d="M151.2 411.494c-14.66-.585-27.489-4.411-35.883-10.7-6.881-5.156-12.577-12.426-16.265-20.76l-1.37-3.098-2.1-.175c-9.888-.824-21.07-4.456-29.147-9.465-6.32-3.92-12.22-9.986-15.62-16.058-3.95-7.054-5.69-14.676-5.374-23.54.227-6.373 1.65-13.124 3.992-18.93l.925-2.294-2.562-1.288c-8.176-4.11-14.678-8.812-20.566-14.872-13.515-13.91-18.936-31.267-15.33-49.086 1.613-7.967 5.008-15.225 10.605-22.67l2.422-3.22-.648-1.455c-9.61-21.581-14.127-40.82-13.448-57.282C11.926 130.065 21.055 106.76 37 89.793c9.419-10.022 21.348-17.238 33.043-19.988l2.054-.483 1.274-2.663c2.743-5.73 6.275-10.632 11.276-15.65 13.65-13.694 33.795-22.352 57.838-24.857 5.714-.595 16.017-.806 19.888-.407 6.162.636 11.6 2.302 16.087 4.93 2.171 1.272 6.832 5.5 8.11 7.358l.523.76.968-1.32c3.062-4.171 8.603-7.94 14.513-9.87 5.07-1.657 7.703-1.972 16.36-1.954 10.557.02 17.464.824 26.327 3.06 18.213 4.595 32.976 14.515 42.265 28.403 1.923 2.874 5.214 9.046 5.948 11.152.25.716.477.87 1.702 1.15 12.158 2.782 23.292 8.213 33.56 16.37 3.265 2.592 10.989 10.324 13.523 13.534 13.272 16.818 20.318 36.39 21.052 58.473.525 15.814-3.631 32.67-13.565 55.013l-1.932 4.345 1.49 1.608c6.797 7.332 11.319 15.403 12.992 23.187 1.108 5.159 1.373 10.924.825 17.99-1.17 15.112-5.671 26.332-13.802 34.408-3.781 3.757-9.842 8.073-15.451 11.004-.784.41-1.426.835-1.426.945 0 .11.547 1.48 1.217 3.043 3.744 8.737 4.981 15.144 4.353 22.553-.58 6.84-2.119 12.438-4.943 17.979-2.267 4.447-4.663 7.743-8.177 11.253-10.065 10.051-24.187 15.096-45.962 16.42l-2.844.172-1.542 3.216c-3.549 7.403-8.328 13.66-14.07 18.42-8.614 7.14-21.993 11.472-37.541 12.155-7.12.312-11.282-.06-15.999-1.427-6.687-1.94-13.03-5.9-17.801-11.114l-2.027-2.214-2.643 2.77c-3.48 3.645-6.394 5.793-10.904 8.039-6.93 3.45-12.036 4.35-22.358 3.938zm11.303-17.178c7.022-1.622 12.116-5.955 14.613-12.428 1.686-4.372 1.601-.982 1.601-64.058v-57.38h-42.069v35.336l1.751.763c7.285 3.174 12.884 10.098 14.498 17.93.48 2.335.55 6.785.142 9.091-1.19 6.72-5.186 12.781-10.98 16.66-14.659 9.81-34.754 1.492-38.34-15.872-.539-2.606-.555-7.354-.035-9.801 1.698-7.98 6.8-14.445 13.995-17.735l2.296-1.05.002-25.996.002-25.995h58.738V176.58l-20.97-.068-20.967-.067-.068-20.969-.068-20.968h-18.4l-.762 1.75c-2.95 6.77-9.025 12.036-16.306 14.134-2.514.724-7.65.986-10.456.534-9.595-1.548-17.307-8.496-20.279-18.27-.766-2.518-.948-8.431-.35-11.403 1.945-9.689 9.896-17.684 19.565-19.673 2.62-.54 7.36-.557 9.832-.037 7.927 1.667 14.383 6.763 17.713 13.98l1.058 2.295 17.527.01 17.527.011.068 20.969.067 20.968 12.634.069 12.634.068v-44.107c0-46.356-.044-48.402-1.207-55.333-1.836-10.95-5.427-16.035-12.496-17.694-1.725-.404-3.223-.477-9.712-.472-7.968.006-10.538.203-17.33 1.324-20.178 3.331-37.86 12.92-47.507 25.764-2.313 3.078-3.895 6.353-5.08 10.516l-.992 3.478-2.91.311c-11.805 1.262-21.196 5.935-30.295 15.076-11.674 11.728-19.747 28.405-22.62 46.728-2.558 16.308-.783 31.424 5.823 49.594.925 2.546 1.87 5.076 2.1 5.622l.417.992h34.271l.763-1.75c2.973-6.824 9.371-12.233 16.73-14.144 8.241-2.14 17.386.382 23.527 6.49 3.38 3.362 5.461 6.865 6.78 11.416.521 1.8.605 2.692.605 6.455 0 3.767-.084 4.656-.61 6.482-2.55 8.867-9.62 15.72-18.473 17.904-3.326.82-8.308.824-11.576.007-7.47-1.866-13.691-7.064-16.985-14.192l-.923-2H43.824l-2.514 2.713c-6.91 7.457-9.986 12.096-11.944 18.015-1.363 4.118-1.818 7.253-1.83 12.61-.007 3.768.101 5.185.585 7.61 2.034 10.198 7.755 18.942 16.794 25.668 6.27 4.667 12.183 7.497 23.338 11.175 2.765.911 5.073 1.696 5.128 1.743.055.048-1.363 2.557-3.15 5.576-5.251 8.866-7.374 13.732-8.482 19.449-.61 3.15-.672 8.042-.135 10.843 2.342 12.235 13.254 22.21 28.468 26.022 3.999 1.003 7.762 1.445 13.846 1.628l5.669.17 1.224 4.76c1.766 6.864 3.591 10.866 6.793 14.89 4.57 5.742 12.547 10.061 22.366 12.11 8.273 1.724 17.495 2.115 22.523.954zm59.85.538c14.618-.89 25.384-4.816 32.39-11.814 4.448-4.44 6.788-9.132 8.924-17.881l.887-3.638 3.715-.005c28.935-.04 46.582-7.499 51.494-21.765 1.72-4.995 2.226-12.57 1.108-16.606-.874-3.16-2.331-6.88-4.76-12.16-1.239-2.692-2.412-5.311-2.607-5.82-.284-.74-.358-4.47-.367-18.588l-.012-17.66h-75.67v-43.591l-2.297-1.102c-3.017-1.448-5.095-2.958-7.384-5.368-2.322-2.444-3.319-3.88-4.615-6.647-1.722-3.676-2.23-6.064-2.23-10.497s.508-6.82 2.23-10.497c1.336-2.852 2.339-4.288 4.753-6.804 3.444-3.591 8.014-6.168 12.845-7.243 4.452-.991 10.525-.377 14.965 1.512 5.633 2.397 10.834 7.598 13.231 13.232 2.578 6.058 2.65 13.277.193 19.18-2.41 5.792-7.554 11.032-13.272 13.523l-1.75.763v26.87h75.667l.067 18.548.068 18.548 2.117-1.505c9.681-6.886 14.082-16.7 14.596-32.549.293-9.04-.797-14.231-4.047-19.268-1.775-2.75-2.794-3.916-8.875-10.158l-5.47-5.615 2.649-5.612c9.208-19.504 13.954-33.956 15.456-47.056.522-4.552.393-12.533-.283-17.595-2.482-18.563-10.165-34.52-22.617-46.972-3.92-3.92-6.576-6.093-11.285-9.23-8.257-5.503-16.534-8.607-26.285-9.858-2.406-.309-4.408-.587-4.45-.619-.04-.031-.53-1.652-1.087-3.602-2.014-7.046-4.46-12.048-8.278-16.928-10.805-13.81-30.535-21.107-55.536-20.538-4.446.1-6.362.25-7.652.594-6.552 1.75-10.01 6.35-11.88 15.807-1.417 7.166-1.604 11.472-1.61 37.04l-.003 22.16 34.462-.001h34.462l.87-1.937c2.833-6.3 8.18-11.226 14.607-13.458 5.234-1.818 11.733-1.736 16.911.213 6.6 2.485 12.192 8.076 14.676 14.676 1.53 4.063 1.964 9.6 1.09 13.868-2.053 10.007-10.504 18.094-20.615 19.725-2.806.452-7.942.19-10.456-.534-7.282-2.098-13.357-7.363-16.306-14.133l-.763-1.751H195.39l-.002 88.239-.002 88.238h35.336l.762-1.75c2.494-5.724 7.51-10.636 13.377-13.102 5.13-2.156 11.592-2.426 16.935-.707 8.562 2.753 15.255 10.15 17.072 18.866.687 3.297.582 7.84-.257 11.113-3.917 15.282-20.616 23.275-34.772 16.643-5.506-2.58-9.766-6.907-12.261-12.457l-.87-1.937h-35.322l.001 23.35c.002 24.743.071 26.37 1.272 29.833 1.292 3.724 3.592 7.134 6.214 9.212 4.054 3.212 7.85 4.52 14.605 5.03.291.021 2.485-.08 4.875-.225zm-90.587-67.846c1.79-.802 3.03-1.938 3.97-3.635.718-1.295.78-1.62.78-4.053 0-2.09-.105-2.841-.5-3.572-.949-1.761-1.996-2.828-3.632-3.7-4.071-2.17-9.231-.783-11.387 3.06-4.036 7.196 3.266 15.265 10.769 11.9zm125.662.193c1.855-.598 4.11-2.88 4.781-4.841 1.403-4.095-.22-8.446-3.897-10.448-1.95-1.06-4.964-1.235-7.145-.412-6.35 2.396-7.04 11.817-1.108 15.144 2.345 1.316 4.506 1.479 7.369.557zM98.223 217.855c1.808-.78 3.826-2.957 4.431-4.78.62-1.867.458-4.987-.344-6.627-2.415-4.935-9.031-6.29-13.055-2.672-.726.653-1.64 1.795-2.031 2.538-.628 1.192-.712 1.648-.712 3.865 0 2.212.085 2.674.706 3.853.7 1.33 2.247 2.94 3.436 3.58 2.183 1.173 5.19 1.27 7.569.243zm151.54-8.717c2.969-1.462 4.448-3.874 4.476-7.298.015-1.882-.082-2.321-.852-3.887-.98-1.99-1.918-2.897-4.026-3.89-2.006-.945-5.064-.951-7.012-.015-7.205 3.464-6.183 13.9 1.557 15.895 1.619.418 4.053.083 5.856-.805zM98.584 133.696c5.945-3.033 5.898-11.977-.08-15.026-1.522-.777-1.996-.89-3.739-.89-3.554 0-6.334 1.765-7.75 4.92-2.276 5.07.86 10.947 6.27 11.749 1.756.26 3.915-.047 5.299-.753zm193.326-.113c6.12-3.334 5.798-12.243-.547-15.09-1.267-.57-1.986-.712-3.572-.712-1.73 0-2.207.113-3.727.889-6.453 3.291-5.87 12.94.935 15.471.66.246 1.777.346 3.255.292 1.887-.07 2.475-.206 3.656-.85z" style="fill:#000;fill-opacity:1;stroke-width:5.78198144;stroke-dasharray:none;stroke:#000;stroke-opacity:1" transform="translate(1.896 1.325) scale(.01816)"/></svg>