<svg xmlns="http://www.w3.org/2000/svg" width="40" height="40" fill="none"><g clip-path="url(#a)"><path fill="#2bcea1" d="M20 40c11.046 0 20-8.954 20-20S31.046 0 20 0 0 8.954 0 20s8.954 20 20 20z" opacity=".8" style="stroke-width:.999999"/><path fill="#2bcea1" d="M20 40c11.046 0 20-8.954 20-20S31.046 0 20 0 0 8.954 0 20s8.954 20 20 20Z" style="stroke-width:.999999"/><path d="M73.909 195.456c.45-1.004.922-2.055 1.426-3.13.478 1.033.947 2.07 1.412 3.11l.013.027-.4-.015c-.31-.684-.736-1.65-1.026-2.274-.336.729-.789 1.594-1.09 2.279a3.37 3.37 0 0 1-.335.002zM79.022 195.456c.45-1.004.923-2.055 1.426-3.13.479 1.033.947 2.07 1.413 3.11l.012.027-.4-.015c-.31-.684-.735-1.65-1.026-2.274-.336.729-.789 1.594-1.09 2.279a3.37 3.37 0 0 1-.335.002z" style="fill:#21242a;fill-opacity:1;stroke-width:.889999;stroke-dasharray:none" transform="matrix(3.77953 0 0 3.77953 -274.39 -712.83)"/><g style="stroke-width:1.12592;stroke-dasharray:none"><path d="m77.975 192.345-.002.002a2.108 2.108 0 0 0-.068.13l-.123.264-.216.47a242.23 242.23 0 0 0-.686 1.506 264.224 264.224 0 0 0-.426.95v.001h.004a606.096 606.096 0 0 1 1.497-1.003l.016-.011.756.51c.208.141.398.27.535.361l.224.15a88.502 88.502 0 0 0-.223-.504 396.634 396.634 0 0 0-1.285-2.825l-.003-.001z" style="fill:#2bcea1;fill-opacity:1;stroke-width:1.12592;stroke-dasharray:none" transform="translate(-212.905 -559.605) scale(2.98758)"/><path d="M77.96 195.002c-.804.53-1.622 1.093-2.392 1.63.781-1.76 1.577-3.515 2.39-5.26.812 1.752 1.611 3.5 2.39 5.266-.8-.569-1.74-1.2-2.388-1.636zm-.015-.58c.417.256.871.549 1.232.78-.168-.333-.97-2.056-1.213-2.576-.336.681-.776 1.601-1.225 2.571.408-.251.788-.504 1.206-.775z" style="fill:#21242a;fill-opacity:1;stroke:#2bcea1;stroke-width:1.12592;stroke-linecap:round;stroke-linejoin:round;stroke-dasharray:none;stroke-opacity:1;paint-order:stroke markers fill" transform="translate(-212.905 -559.605) scale(2.98758)"/></g></g><defs><clipPath id="a"><path fill="#fff" d="M0 0h40v40H0z"/></clipPath></defs></svg>