<svg xmlns="http://www.w3.org/2000/svg" width="40" height="40" fill="none"><g clip-path="url(#a)"><path fill="#FFB845" d="M19.823 40a20.003 20.003 0 1 0 .55-40.002A20.003 20.003 0 0 0 19.823 40Z"/><path fill="#21242a" fill-rule="evenodd" d="M26.32 16.233c-.194-2.174-2.06-2.915-4.427-3.141l.022-3.011-1.832-.011L20.06 13c-.481-.003-.973.005-1.463.01l.022-2.952-1.832-.014-.023 3.01c-.396.004-.786.01-1.168.008v-.01l-2.528-.02-.014 1.959s1.356-.016 1.333.007c.744.007.981.441 1.048.814l-.025 3.427c.051 0 .117.005.193.015h-.192l-.035 4.804c-.036.233-.174.602-.694.6.023.024-1.332-.01-1.332-.01l-.38 2.187 2.386.017 1.307.02-.02 3.047 1.83.011.023-3.01c.502.014.99.02 1.464.023l-.02 3 1.83.013.024-3.04c3.082-.153 5.244-.915 5.533-3.808.234-2.329-.854-3.376-2.602-3.807 1.068-.535 1.739-1.483 1.595-3.071v.001zm-2.614 6.49c-.014 2.278-3.91 1.99-5.151 1.983l.031-4.035c1.243.01 5.142-.32 5.122 2.055v-.003zm-.811-5.698c-.015 2.072-3.262 1.806-4.296 1.799l.027-3.661c1.034.008 4.287-.3 4.269 1.862z" clip-rule="evenodd" style="stroke-width:1.42434"/></g><defs><clipPath id="a"><path fill="#fff" d="M0 0h40v40H0z"/></clipPath></defs></svg>
