<svg xmlns="http://www.w3.org/2000/svg" xml:space="preserve" width="41" height="41" fill="none"><g clip-path="url(#a)"><path fill="#3A82FF" d="M19.715 40.002a20.004 20.004 0 0 0 18.728-27.718A20 20 0 0 0 5.749 5.956a20.002 20.002 0 0 0 13.966 34.046Z" style="fill:#ffbb45;fill-opacity:1"/><g stroke="#21242a" stroke-linecap="round" stroke-linejoin="round" stroke-width="2"><path stroke-width="1.23658" d="M5.642 14.77h1.855M5.642 24.866h1.855M10.268 14.77h1.855M10.268 24.866h1.855M14.935 14.77h1.855M14.935 24.866h1.855M5.421 21.335l3.128-3.127 3.179 3.864 4.81-4.461"/></g><path d="M26.7 26.68c-.094-.02-.757-.326-.894-.411a.819.819 0 0 0-.122-.063c-.094-.038-1.16-.547-2.297-1.098a3.857 3.857 0 0 0-.397-.177.538.538 0 0 1-.153-.09c-.106-.078-.12-.112-.118-.294 0-.113.02-.288.043-.389.052-.231.142-.68.2-.996.102-.563.24-.821.418-.78.152.035.37.127.427.18.03.029.079.052.109.052s.106.026.17.058c.063.032.238.114.389.183l.528.243c.14.066.346.159.457.207.314.136.635.284.805.37a.747.747 0 0 0 .21.077c.081 0 .225.325.226.51 0 .089.027.25.06.36.034.11.061.268.061.35 0 .084.028.23.061.325.034.095.061.24.061.323 0 .083.027.241.06.35.075.245.08.574.012.643-.068.068-.192.095-.315.068zm1.395-.33c-.12-.045-.186-.179-.22-.444a9.662 9.662 0 0 0-.18-.962 2.247 2.247 0 0 1-.06-.391c0-.077-.027-.218-.06-.313a1.441 1.441 0 0 1-.061-.397v-.224l.64-.65.904-.923c.146-.15.891-.911 1.658-1.692 3.562-3.63 4.136-4.2 4.245-4.226.087-.02.161.006.346.133l.56.377c.467.314.508.356.508.526 0 .118-.037.186-.193.355a17.64 17.64 0 0 0-.54.607l-.405.464c-.123.142-.252.287-.286.322-.035.035-.19.21-.346.387-.155.178-.31.353-.344.389-.12.13-.352.391-.649.73-.166.19-.32.367-.344.392-.04.043-.42.468-.612.684-.045.05-.155.18-.244.287-.09.107-.218.252-.285.322-.067.07-.222.244-.345.387-.123.144-.251.29-.285.327-.36.393-.754.837-.935 1.055-.1.12-.295.34-.431.487a15.36 15.36 0 0 0-.42.47c-.094.112-.295.34-.446.508a67.45 67.45 0 0 0-.434.486c-.087.1-.187.21-.222.246-.035.036-.09.103-.122.148-.076.106-.278.175-.392.133zm-1.618-3.53a13.822 13.822 0 0 0-.447-.205c-.112-.049-.313-.14-.447-.204a36.96 36.96 0 0 0-.508-.235 53.714 53.714 0 0 1-.538-.247 2.34 2.34 0 0 0-.306-.128c-.107 0-.357-.177-.402-.285-.045-.108-.042-.14.022-.245.04-.067.554-.61 1.14-1.208 3.112-3.171 4.83-4.922 5.294-5.391l.516-.524.17.027a.773.773 0 0 1 .256.087c.047.033.118.06.158.06.04 0 .072.017.072.037 0 .02.041.05.091.064.097.027.335.13.437.19.034.019.089.045.122.058.111.044.669.294 1.139.51l.406.189c.297.136.411.334.264.456-.033.027-.06.064-.06.081 0 .018-.344.377-.763.8a1235.112 1235.112 0 0 0-4.703 4.789c-.128.134-.49.507-.804.828-.666.68-.699.695-1.108.497z" style="fill:#21242a;fill-opacity:1;stroke-width:.0406478"/><path stroke="#21242a" stroke-linecap="round" stroke-linejoin="round" stroke-width="2" d="M20.5 13.77v13.46"/></g><defs><clipPath id="a"><path fill="#fff" d="M.008.002h40v40h-40z"/></clipPath></defs></svg>
