<svg xmlns="http://www.w3.org/2000/svg" width="40" height="40" fill="none"><g clip-path="url(#a)"><path fill="#FFB845" d="M19.823 40a20.003 20.003 0 1 0 .55-40.002A20.003 20.003 0 0 0 19.823 40Z"/><path fill="#21242A" fill-rule="evenodd" d="m33.136 19.76-3.838-6.255-3.84 6.254 3.84 2.228 3.838-2.228Zm.002 1.738-3.84 2.23-3.84-2.227 3.84 5.314 3.84-5.317Z" clip-rule="evenodd"/><path stroke="#21242A" stroke-linecap="round" stroke-linejoin="round" stroke-width="2" d="M20 13.835v13.46"/><path fill="#21242A" fill-rule="evenodd" d="M15.222 17.35c-.136-1.526-1.447-2.046-3.108-2.205l.015-2.114-1.286-.008-.016 2.058c-.338-.003-.683.003-1.027.006l.015-2.072-1.286-.01-.016 2.114c-.278.002-.552.007-.82.005v-.007l-1.775-.014-.01 1.375s.952-.011.936.005c.522.005.689.31.736.572l-.018 2.406c.036 0 .082.003.136.01h-.135l-.025 3.373c-.025.164-.122.423-.487.422.016.016-.935-.007-.935-.007l-.267 1.535 1.675.012.918.014-.014 2.139 1.285.008.016-2.114c.352.01.695.014 1.028.017l-.015 2.106 1.285.009.017-2.134c2.164-.108 3.682-.643 3.885-2.674.164-1.635-.6-2.37-1.827-2.673.75-.375 1.221-1.041 1.12-2.156v.001Zm-1.835 4.557c-.01 1.599-2.745 1.397-3.617 1.392l.022-2.833c.873.007 3.61-.225 3.596 1.443v-.002Zm-.57-4.001c-.01 1.455-2.29 1.268-3.016 1.263l.019-2.57c.726.006 3.01-.21 2.997 1.307Z" clip-rule="evenodd"/></g><defs><clipPath id="a"><path fill="#fff" d="M0 0h40v40H0z"/></clipPath></defs></svg>
