<svg xmlns="http://www.w3.org/2000/svg" xml:space="preserve" width="40" height="41" fill="none"><g clip-path="url(#a)"><path fill="#ffb845" d="M20 40c11.046 0 20-8.954 20-20S31.046 0 20 0 0 8.954 0 20s8.954 20 20 20Z"/><path d="M11.466 33.036c-.133-.121-.244-.238-.246-.26-.004-.045-.2-.363-.598-.976-.153-.235-.279-.457-.279-.492 0-.036-.022-.065-.048-.065-.027 0-.049-.035-.049-.077 0-.043-.02-.078-.043-.078-.023 0-.07-.07-.102-.154-.034-.085-.08-.155-.103-.155-.024 0-.043-.03-.043-.066 0-.054-.253-.456-.437-.692a.23.23 0 0 1-.048-.093c0-.016-.11-.202-.243-.412-.133-.21-.242-.406-.242-.436 0-.03-.022-.053-.048-.053-.026 0-.061-.059-.078-.13-.017-.071-.057-.147-.09-.167-.055-.036-.949-1.428-.949-1.479 0-.013-.065-.126-.145-.252-.08-.126-.146-.255-.146-.286 0-.032-.017-.057-.038-.057-.134 0-.206-.747-.098-1.016.087-.218.341-.634.387-.634.022 0 .04-.026.04-.058s.106-.212.236-.4c.13-.187.323-.48.432-.65.108-.17.236-.357.286-.415.05-.059.114-.151.144-.206.03-.056.09-.094.133-.086.05.01.068-.01.05-.06-.014-.04.025-.155.086-.253l.352-.558c.131-.21.257-.388.278-.398.022-.009.084-.114.138-.232.133-.29.308-.621.347-.653.017-.014.084-.148.149-.297.064-.15.132-.256.15-.236.018.019.033-.037.033-.125s.022-.175.049-.192c.026-.018.048-.087.048-.155s.022-.137.049-.155c.026-.017.048-.078.048-.135 0-.056.022-.088.049-.07.029.018.048-.043.048-.152 0-.101.022-.184.049-.184.027 0 .048-.036.048-.08 0-.046.053-.25.118-.454.283-.898.542-2.339.636-3.538l.075-.98c.064-.836.11-1.053.25-1.157.123-.09.416-.103.652-.028l.343.111c.1.033.267.116.37.186.274.183.397.112.442-.255.041-.34.195-.924.32-1.214.05-.12.093-.253.093-.296 0-.043.02-.078.045-.078.025 0 .052-.051.061-.114.008-.063.112-.189.234-.284l.267-.211c.06-.05 1.45-.778 1.832-.96.155-.072.313-.132.352-.132.04 0 .072-.023.072-.052 0-.028.066-.051.148-.051.082 0 .137-.02.124-.042-.014-.024.056-.072.155-.108a5.17 5.17 0 0 0 .385-.164c.113-.054.233-.099.266-.098a.958.958 0 0 0 .256-.1c.267-.139.877-.38 1.455-.576.267-.09.529-.181.582-.201.269-.102.454-.154.546-.154.057 0 .117-.024.133-.052.017-.028.226-.052.466-.052.475 0 .58.042.844.337.265.296.8 1.11.8 1.216 0 .03.041.117.09.192.08.12.303.606.526 1.142.04.1.094.22.118.27a.53.53 0 0 1 .043.193c0 .057.022.104.048.104.027 0 .049.035.049.078s.02.118.043.167c.077.161.14.342.25.709.06.198.125.407.147.463.021.057.065.196.096.31.032.113.077.246.1.295a.69.69 0 0 1 .043.242c0 .084.022.167.049.184.026.018.048.074.048.126 0 .051.034.124.076.16.063.056.114.047.303-.053.26-.137.96-.207 1.14-.114.059.03.186.068.283.085.109.019.262.11.4.24.183.17.224.241.224.382 0 .096-.018.185-.04.2-.021.013-.069.178-.106.366-.037.188-.084.353-.106.367-.022.014-.04.075-.04.135 0 .1-.057.328-.146.58a5.81 5.81 0 0 0-.11.439c-.042.184-.11.462-.152.618-.043.156-.104.411-.136.567-.032.156-.073.295-.09.31-.016.014-.043.12-.06.235-.062.419-.236.881-.483 1.28a7.207 7.207 0 0 1-.302.464c-.028.031-.148.207-.266.391a85.61 85.61 0 0 1-.387.597l-.386.593a5.806 5.806 0 0 1-.243.357.735.735 0 0 0-.084.129c-.03.056-.081.096-.113.089-.03-.008-.042.01-.024.042.018.03.002.095-.035.143-.095.12-.183.354-.148.39.044.048.207.037.207-.014 0-.025.07-.075.157-.113a.656.656 0 0 0 .182-.103c.045-.065.39-.254.465-.254.041 0 .061-.023.045-.051-.017-.029.014-.052.07-.052.054 0 .1-.017.1-.039 0-.021.06-.068.136-.103.075-.035.18-.105.233-.154.116-.11.225-.178.698-.443.2-.113.37-.224.38-.248.009-.024.034-.044.055-.044.022 0 .184-.093.36-.206.175-.113.338-.206.362-.206.024 0 .073-.037.108-.083a.521.521 0 0 1 .164-.128c.054-.025.199-.11.321-.188s.428-.266.68-.417c.53-.318.498-.298.955-.6.195-.129.375-.234.4-.234.026 0 .047-.019.047-.042 0-.023.077-.073.17-.112.093-.04.17-.09.17-.113 0-.023.043-.042.097-.042.053 0 .097-.018.097-.041 0-.023.099-.092.22-.155.382-.197.798-.139 1.181.165.212.168.536.643.538.788 0 .063.023.128.05.145.106.07.01.902-.105.902-.022 0-.04.024-.04.053 0 .06-.29.411-.34.411-.017 0-.281.158-.586.352-.305.193-.685.427-.845.52-.16.092-.312.189-.338.215a.206.206 0 0 1-.129.047c-.046 0-.09.018-.1.04-.038.094-.53.381-.603.352-.055-.023-.07-.01-.051.044.02.054-.063.123-.286.24-.172.09-.313.183-.313.208 0 .024-.033.044-.075.044-.04 0-.121.046-.178.103-.058.057-.133.103-.168.103s-.064.02-.064.043c0 .024-.027.044-.06.044-.034 0-.16.071-.28.158-.12.086-.316.213-.436.281-.12.069-.31.187-.424.263-.113.077-.228.139-.256.139-.029 0-.095.043-.148.095a1.23 1.23 0 0 1-.228.167c-.073.04-.144.085-.157.1a3.13 3.13 0 0 1-.291.174 3.74 3.74 0 0 0-.326.198 8.632 8.632 0 0 1-.718.451.814.814 0 0 0-.169.11c-.013.019-.1.08-.194.136-.43.26-.483.299-.469.347.022.074.277.096.34.03a.24.24 0 0 1 .15-.056c.112 0 .444-.115.496-.17.018-.02.093-.036.168-.036.074 0 .146-.02.16-.044.014-.025.118-.06.23-.08.113-.019.271-.066.353-.104.18-.083.367-.15.658-.236.12-.036.34-.108.489-.161.148-.053.316-.096.373-.096.056 0 .116-.023.133-.052.016-.028.094-.051.172-.051.079 0 .143-.024.143-.052 0-.028.064-.052.143-.052.078 0 .156-.023.172-.051.017-.028.082-.052.146-.052.063 0 .129-.023.145-.051.017-.029.082-.052.146-.052.063 0 .129-.023.145-.051.017-.029.09-.052.163-.052.074 0 .154-.02.18-.044.025-.024.155-.073.288-.11.134-.035.43-.131.66-.213.23-.082.465-.148.522-.148.057 0 .104-.024.104-.052 0-.028.075-.051.167-.051.091 0 .18-.024.197-.052.06-.104.752.083.752.204 0 .03.024.054.055.054.047 0 .175.132.328.338a.75.75 0 0 1 .15.38c0 .058.022.106.049.106.028 0 .048.172.048.413 0 .226-.02.412-.043.412-.024 0-.056.076-.073.168-.05.286-.463.657-.73.657-.065 0-.132.023-.148.051-.017.029-.08.052-.142.052-.062 0-.219.044-.35.097-.13.053-.4.149-.6.211-.2.063-.402.136-.448.161a.38.38 0 0 1-.144.046c-.033 0-.213.049-.4.109a5.49 5.49 0 0 0-.672.246.74.74 0 0 1-.23.058.456.456 0 0 0-.18.044 4.695 4.695 0 0 1-.448.16c-.2.063-.402.136-.449.161a.44.44 0 0 1-.179.047c-.052 0-.108.023-.124.052-.017.028-.084.051-.15.051a.518.518 0 0 0-.203.045c-.077.04-.562.203-.982.33a1.769 1.769 0 0 0-.254.095.493.493 0 0 1-.196.046c-.062 0-.133.02-.158.043a1.458 1.458 0 0 1-.313.131c-.147.048-.31.122-.364.165-.083.066-.087.084-.024.128.04.029.16.038.266.02.181-.028.634-.068 2.086-.182l1.19-.097c1.225-.103 1.73-.119 1.9-.06.227.08.477.344.617.652l.158.346c.054.118.053.695-.002.731-.023.015-.056.1-.072.188a.685.685 0 0 1-.167.298.849.849 0 0 0-.17.228c-.057.163-.412.277-.98.316-.293.02-.828.058-1.188.086-.36.028-.994.073-1.407.1-.414.028-1.058.075-1.431.106-.374.03-.996.074-1.383.098-.387.023-1.01.069-1.383.1a71.605 71.605 0 0 1-2.91.192c-.32.012-.626.042-.68.069-.053.026-.402.06-.776.074-.373.015-.985.05-1.358.08-.829.064-1.852.142-2.79.212-.387.028-1.1.063-1.585.077l-.881.026-.243-.22zm-.395-1.094c0-.012-.022-.037-.049-.055-.026-.017-.048-.007-.048.023s.022.055.048.055c.027 0 .049-.01.049-.023zm-2.523-3.843a.052.052 0 0 0-.051-.052c-.029 0-.038.023-.022.052.017.028.04.051.052.051.011 0 .021-.023.021-.051zm-.608-1.337c.015-.026.005-.062-.022-.08-.027-.018-.049.004-.049.048 0 .09.03.104.07.032zm24.477-1.086c0-.028-.01-.051-.022-.051-.012 0-.035.023-.051.051-.017.029-.007.052.021.052a.052.052 0 0 0 .052-.052zm-13.9-2.165c.017-.028.106-.051.198-.051.092 0 .206-.02.252-.046.046-.024.172-.073.278-.107.107-.034.282-.103.388-.153l.352-.163c.087-.04.158-.09.158-.11 0-.022.03-.04.068-.04.038 0 .077-.019.085-.041.01-.023.12-.117.247-.21.127-.09.23-.186.23-.211 0-.025.028-.077.061-.114.033-.037.119-.15.19-.248.07-.1.218-.284.327-.41.11-.127.199-.243.199-.259 0-.016.049-.086.109-.157.06-.071.192-.238.293-.372.101-.134.211-.273.244-.309.033-.036.167-.216.298-.4a5.95 5.95 0 0 1 .32-.423c.194-.202.53-.711.53-.8 0-.054.02-.12.042-.146.111-.134.257-.645.226-.794l-.033-.158-.124.103c-.068.057-.151.104-.185.104a.903.903 0 0 0-.248.098c-.301.16-.602.293-.939.417a3.078 3.078 0 0 0-.364.152c-.026.02-.212.09-.412.157-.2.068-.385.141-.41.165-.025.023-.096.042-.158.042a.525.525 0 0 0-.209.052l-.193.103a.542.542 0 0 1-.215.051c-.065 0-.131.02-.146.046-.014.025-.098.058-.185.074a4.791 4.791 0 0 0-.376.088c-.321.09-.826.121-.888.055a.22.22 0 0 0-.14-.057c-.048 0-.088-.023-.088-.051 0-.028-.043-.052-.097-.052-.053 0-.097-.023-.097-.051 0-.029-.043-.052-.097-.052-.053 0-.097-.017-.097-.039 0-.02-.05-.064-.11-.096l-.326-.175a1.196 1.196 0 0 1-.243-.154c-.022-.034-.763-.57-.965-.696-.287-.18-1.51-1.189-1.51-1.245 0-.038-.021-.07-.048-.07-.026 0-.048.024-.048.053 0 .028-.028.051-.062.051-.037 0-.097.153-.149.374l-.135.58a8.482 8.482 0 0 0-.187 1.134 15.12 15.12 0 0 1-.075.619c-.04.258.093 1.384.2 1.683.156.436.28.713.32.713.021 0 .04.035.04.077 0 .043.037.121.084.174l.275.312c.17.192.768.674.836.674.015 0 .096.034.18.076.431.212.816.278 1.666.281.507.002.845-.016.864-.048zm11.231-.67c0-.028-.032-.051-.072-.051-.04 0-.073.023-.073.051 0 .029.033.052.073.052.04 0 .072-.023.072-.052zm-7.81-1.65c0-.028-.022-.05-.049-.05-.026 0-.048.022-.048.05 0 .03.022.052.048.052.027 0 .049-.023.049-.051zm-2.547-2.73c.213-.061.464-.134.558-.163a6.42 6.42 0 0 1 .29-.08.578.578 0 0 0 .17-.067.72.72 0 0 1 .195-.075c.08-.02.21-.067.29-.103.08-.037.386-.165.68-.284.293-.119.626-.261.74-.316.112-.054.225-.099.249-.099.024 0 .17-.07.326-.157.182-.102.32-.147.392-.128.084.022.103.01.081-.049-.02-.054.003-.078.075-.078.056 0 .102-.023.102-.051 0-.029.033-.052.073-.052.04 0 .072-.018.072-.039s.062-.068.137-.103c.076-.036.222-.144.324-.242l.187-.176-.011-.502a4.305 4.305 0 0 0-.088-.79 4.357 4.357 0 0 1-.1-.48c-.012-.107-.042-.194-.066-.194s-.043-.068-.043-.151c0-.084-.022-.166-.049-.184-.026-.017-.048-.111-.048-.209 0-.098-.022-.177-.049-.177-.026 0-.048-.058-.048-.13 0-.07-.022-.128-.049-.128-.026 0-.048-.058-.048-.13 0-.07-.02-.17-.045-.219-.051-.104-.13-.307-.317-.81a8.407 8.407 0 0 0-.177-.451.465.465 0 0 1-.043-.168c0-.043-.022-.078-.049-.078-.027 0-.048-.023-.048-.051 0-.029-.088-.243-.194-.477-.107-.234-.195-.454-.195-.49 0-.035-.016-.064-.036-.064-.02 0-.066-.07-.1-.154-.1-.236-.489-.84-.607-.94-.115-.098-.397-.123-.445-.04-.017.028-.104.051-.194.051-.09 0-.178.024-.194.052-.017.028-.105.051-.197.051-.092 0-.167.024-.167.052 0 .028-.042.052-.093.052s-.195.046-.32.103c-.124.056-.279.103-.343.103s-.117.018-.117.04c0 .022-.1.072-.224.11a3.153 3.153 0 0 0-.41.166.884.884 0 0 1-.259.096.134.134 0 0 0-.105.057c-.02.036-.109.046-.233.026-.18-.028-.192-.024-.11.043.083.068.075.078-.117.133a6.262 6.262 0 0 0-.93.412.372.372 0 0 1-.159.05c-.04 0-.073.024-.073.052 0 .029-.055.052-.121.052-.067 0-.122.019-.122.041 0 .023-.081.072-.181.11-.1.038-.313.133-.473.21-.16.078-.324.155-.364.173-.04.017-.182.102-.316.189-.133.087-.275.17-.315.185-.163.06-.376.558-.485 1.128-.032.17-.077.356-.1.412a1.707 1.707 0 0 0-.066.336c-.013.127-.05.448-.08.712-.03.264-.04.63-.022.81.03.302.05.35.235.535.112.112.356.327.542.477.187.151.35.286.364.3a.84.84 0 0 0 .121.085c.054.032.091.095.083.14-.009.055.01.073.058.054.077-.032.514.26.514.342 0 .027.028.05.061.05.033.001.168.077.299.168.13.092.272.19.315.219.296.2.516.366.53.399.01.02.035.038.057.038.023 0 .223.119.445.264.62.405.523.389 1.18.2zm1.882-1.8c-.134-.227-.119-1.092.036-2.041.028-.17.063-.397.078-.503.015-.107.047-.207.07-.222.025-.016.044-.078.044-.138 0-.106.061-.336.162-.61a.491.491 0 0 1 .178-.212c.122-.074.14-.07.313.056.206.15.453.57.657 1.113.021.057.074.189.117.293.043.104.092.266.109.36a.81.81 0 0 0 .066.224c.02.028.051.23.07.45l.034.398-.16.156c-.088.085-.181.155-.207.155-.025 0-.08.032-.122.07a2.264 2.264 0 0 1-.32.2c-.659.356-1.016.436-1.125.252zm.956-.727c0-.028-.022-.051-.049-.051-.026 0-.048.023-.048.051 0 .029.022.052.048.052.027 0 .049-.023.049-.052zm-5.306-.172c-.164-.057-.293-.178-.565-.531a8.741 8.741 0 0 1-.296-.457 6.475 6.475 0 0 1-.435-.806c-.026-.057-.009-.114.054-.174.11-.107.364-.08.763.08l.533.213c.154.061.314.142.356.18.042.038.108.07.147.07.063 0 .296.118.77.391.266.153.528.381.56.487.043.148-.046.276-.277.396-.32.167-1.298.258-1.61.15zm1.716-.343a.052.052 0 0 0-.052-.052c-.028 0-.037.023-.02.052.016.028.039.051.05.051.012 0 .022-.023.022-.051zm1.237-1.289c-.017-.028-.084-.051-.15-.051a.51.51 0 0 1-.202-.046 3.172 3.172 0 0 0-.206-.098c-.067-.029-.22-.097-.34-.153l-.376-.172c-.086-.04-.157-.09-.157-.111 0-.021-.031-.039-.069-.039-.038 0-.24-.097-.449-.216-.209-.118-.429-.24-.488-.27-.06-.03-.11-.073-.11-.094 0-.021-.031-.038-.07-.038-.075 0-.575-.31-.601-.374-.01-.021-.042-.039-.073-.039-.075 0-.19-.196-.152-.26.057-.098.553-.315 1.163-.51.344-.109.887-.272 1.055-.316.478-.126.608-.169.78-.26a.884.884 0 0 1 .255-.097c.038 0 .069-.023.069-.052 0-.028.039-.051.087-.051a.22.22 0 0 0 .133-.045c.072-.07.96-.47 1.043-.47a.21.21 0 0 0 .122-.042c.025-.022.13-.07.231-.107.252-.091.376.017.353.308-.022.274-.104.39-.799 1.139-.334.36-.646.731-.693.825-.068.136-.086.304-.089.84-.004.647-.007.673-.12.76-.072.056-.129.07-.147.04zm-3.08-2.01c0-.028-.01-.052-.022-.052-.012 0-.035.024-.051.052-.017.028-.007.051.02.051a.052.052 0 0 0 .052-.051zm4.269-.825c0-.028-.022-.051-.049-.051-.027 0-.049.023-.049.051 0 .029.022.052.049.052.027 0 .049-.023.049-.052zm2.255 6.495c.017-.029.007-.052-.021-.052a.052.052 0 0 0-.051.052c0 .028.01.051.02.051.013 0 .036-.023.052-.051zm-.218-.103a.052.052 0 0 0-.051-.052c-.029 0-.038.023-.022.052.017.028.04.051.052.051.012 0 .021-.023.021-.051zm-6.016-.103c0-.029-.021-.052-.048-.052s-.049.023-.049.052c0 .028.022.051.049.051.027 0 .048-.023.048-.051zm-2.037-.722c0-.028-.022-.052-.049-.052-.026 0-.048.024-.048.052 0 .028.022.052.048.052.027 0 .049-.024.049-.052zM27.08 14.8c0-.028-.022-.051-.048-.051-.027 0-.049.023-.049.051 0 .029.022.052.049.052.026 0 .048-.023.048-.052zm-12.904-2.268a.052.052 0 0 0-.052-.051c-.028 0-.038.023-.021.051.016.029.04.052.051.052.012 0 .022-.023.022-.052zm10.187-.315c0-.028-.021-.037-.048-.02a.114.114 0 0 0-.049.084c0 .028.022.037.049.02a.114.114 0 0 0 .048-.084zm1.896.045c-.002-.078-.025-.142-.052-.142-.027 0-.049-.036-.049-.081 0-.097-.243-.483-.44-.696-.154-.168-.563-.44-.706-.469-.15-.03-.102-.151.087-.22.236-.087.613-.384.795-.63.134-.18.184-.278.348-.687.049-.122.054-.123.085-.026.018.056.075.192.126.301.052.109.094.232.094.274 0 .041.021.06.048.043s.049-.01.049.015c0 .06.413.526.468.528.022 0 .096.046.162.102a.448.448 0 0 0 .225.102c.056 0 .13.035.162.076.048.062.035.081-.08.112-.075.02-.203.08-.283.132-.08.052-.205.123-.279.157-.073.034-.145.103-.16.152a.49.49 0 0 1-.139.184.524.524 0 0 0-.146.208c-.019.062-.054.114-.08.114-.024 0-.045.035-.045.078s-.02.118-.043.167c-.024.05-.066.148-.094.219l-.05.128zm-.374-1.096c-.016-.042-.037-.077-.047-.077-.01 0-.02.035-.02.077 0 .043.022.078.048.078.026 0 .034-.035.019-.078zm-.454-.49c0-.028-.022-.05-.049-.05-.027 0-.048.022-.048.05 0 .029.022.052.048.052.027 0 .049-.023.049-.051zm-9.134-2.263a1.368 1.368 0 0 0-.617-.615c-.152-.072-.158-.082-.061-.1.06-.01.109-.04.109-.066 0-.026.032-.048.071-.048.102 0 .444-.394.55-.635l.092-.206.068.163c.037.09.084.163.104.163.02 0 .037.03.037.066 0 .08.345.449.42.449.03 0 .11.031.18.07.132.072.122.136-.021.136-.129 0-.564.444-.659.673-.047.112-.097.203-.112.203-.014 0-.087-.114-.16-.253zm.11-1.035a.052.052 0 0 0-.051-.052c-.028 0-.038.023-.021.052.016.028.04.051.05.051.013 0 .022-.023.022-.051z" style="fill:#000;fill-opacity:1;stroke-width:.0500057"/></g><defs><clipPath id="a"><path fill="#fff" d="M0 .002h40v40H0z"/></clipPath></defs></svg>