<svg xmlns="http://www.w3.org/2000/svg" width="40" height="40" fill="none"><g clip-path="url(#a)"><path fill="#FFB845" d="M20 40c11.046 0 20-8.954 20-20S31.046 0 20 0 0 8.954 0 20s8.954 20 20 20Z"/><path fill="#21242A" fill-rule="evenodd" d="M22.53 6.998s-.956 4.203 1.435 7.96c2.39 3.757 10.554 11.159-.993 18.04 0 0 2.445-3.515 1.213-5.914-1.231-2.4-3.879-4.185-3.438-7.941 0 0-3.493 1.47-1.949 8.126 0 0-1.967-.725-2.795-2.687 0 0-1.223 3.85 1.02 8.35 0 0-11.858-5.72-2.298-16.83 0 0 .202 3.626 1.618 4.63 0 0-2.335-9.819 6.187-13.734Z" clip-rule="evenodd"/></g><defs><clipPath id="a"><path fill="#fff" d="M0 0h40v40H0z"/></clipPath></defs></svg>