<svg xmlns="http://www.w3.org/2000/svg" width="40" height="40" fill="none"><g clip-path="url(#a)"><path fill="#FF4B55" d="M20 40a20 20 0 1 0 0-40 20 20 0 0 0 0 40Z"/><path fill="#21242A" d="M7 21.857h8.357c0 1.858-1.044 2.786-4.178 2.786S7 23.714 7 21.857ZM24.643 21.857H33c0 1.858-1.044 2.786-4.178 2.786s-4.179-.929-4.179-2.786ZM22.963 13.894c.181-.405.287-.851.287-1.323 0-.177-.024-.348-.052-.517 1.498.238 3.273.251 5.095-.363.473-.16.99.112 1.185.646l3.048 8.127h-1.488l-2.216-5.91-2.216 5.91h-1.488l2.503-6.674c-1.63.35-3.078.349-4.658.103ZM8.962 20.464H7.475l3.048-8.127c.195-.534.711-.807 1.184-.647 1.822.615 3.597.602 5.095.364-.027.17-.052.34-.052.517 0 .472.106.918.287 1.323-1.58.245-3.03.246-4.658-.104l2.503 6.674h-1.487l-2.217-5.91-2.216 5.91ZM24.643 30.215v.65c0 .153.125.278.279.278h.65c.512 0 .928.416.928.929v.557a.371.371 0 0 1-.371.371H13.872a.371.371 0 0 1-.372-.371v-.557c0-.513.416-.93.929-.93h.65a.279.279 0 0 0 .278-.278v-.65c0-.512.416-.928.929-.928h7.429c.513 0 .928.415.928.928ZM20 9.321c-.345 0-.672.07-.984.17l.035-1.565A.947.947 0 0 1 19.998 7h.005c.514 0 .935.411.947.926l.034 1.564A3.213 3.213 0 0 0 20 9.321ZM21.12 15.61l.273 12.283h-2.786l.273-12.283c.351.13.725.211 1.12.211.395 0 .77-.081 1.12-.21ZM18.143 12.571a1.857 1.857 0 1 1 3.714 0 1.857 1.857 0 0 1-3.714 0Z"/></g><defs><clipPath id="a"><path fill="#fff" d="M0 0h40v40H0z"/></clipPath></defs></svg>