<svg xmlns="http://www.w3.org/2000/svg" width="40" height="41" fill="none"><g clip-path="url(#a)"><path fill="#FFB845" d="M20 40.002c11.046 0 20-8.954 20-20s-8.954-20-20-20-20 8.954-20 20 8.954 20 20 20Z"/><path fill="#21242A" d="M19.835 12.71a2.604 2.604 0 1 0 0-5.208 2.604 2.604 0 0 0 0 5.209ZM19.806 24.17a4.167 4.167 0 1 0 0-8.334 4.167 4.167 0 0 0 0 8.334ZM19.835 33.545a2.604 2.604 0 1 0 0-5.208 2.604 2.604 0 0 0 0 5.208ZM27.619 20.045a2.604 2.604 0 1 0 5.208 0 2.604 2.604 0 0 0-5.208 0ZM6.784 20.045a2.604 2.604 0 1 0 5.208 0 2.604 2.604 0 0 0-5.208 0ZM25.744 14.788a2.604 2.604 0 1 0 3.683-3.683 2.604 2.604 0 0 0-3.683 3.683ZM10.372 29.84a2.604 2.604 0 1 0 3.683-3.682 2.604 2.604 0 0 0-3.683 3.682ZM25.541 25.1a2.604 2.604 0 1 0 3.683 3.684 2.604 2.604 0 0 0-3.683-3.683ZM10.595 10.475a2.604 2.604 0 1 0 3.683 3.683 2.604 2.604 0 0 0-3.683-3.683Z"/><path stroke="#21242A" stroke-width="2" d="M19.835 9.585V30.42M30.744 20.045H9.909M27.693 12.637 12.96 27.369M27.693 27.369 12.96 12.637"/></g><defs><clipPath id="a"><path fill="#fff" d="M0 .002h40v40H0z"/></clipPath></defs></svg>
