<svg xmlns="http://www.w3.org/2000/svg" width="40" height="40" fill="none"><g clip-path="url(#a)"><path fill="#57C4A6" d="M20 40a20 20 0 1 0 0-40 20 20 0 0 0 0 40Z"/><path d="M28.756 7.777c-.604.31-1.36 1.188-1.85 2.145-.322.63-.619 1.344-.715 1.722a3.97 3.97 0 0 1-.112.342c-.23.61-.658 2.631-.802 3.798-.194 1.562-.28 2.622-.373 4.557-.054 1.141-.04 1.31.148 1.684.222.444.54.678 1.451 1.071.455.196.943.42 1.084.495l.256.138-.01.302c-.012.33-.198.875-.476 1.388-.368.68-.479 1.277-.305 1.64.165.347.806.546 1.773.55.293.002.365-.017.413-.108.04-.075.06-2.76.06-8.29 0-7.253.01-8.188.086-8.252.11-.091.608-.044 1.167.11 1.638.455 2.937 1.755 3.737 3.74.175.435.311.818.365 1.028.105.405.173.456.584.436.198-.01.38-.048.403-.085.023-.037.043-1.354.044-2.926 0-3.167.018-3.027-.366-2.955-.283.053-.468.29-.519.665-.09.653-.154.676-.91.328-.974-.45-2.269-.848-3.251-.999l-.868-.133c-.195-.03-.38-.07-.413-.09-.038-.024-.06-.444-.06-1.15 0-1.025-.037-1.338-.158-1.33a3.185 3.185 0 0 0-.383.179zm-.715 1.829a1.4 1.4 0 0 1-.09.356 6.254 6.254 0 0 0-.142.428c-.031.11-.08.25-.11.313-.053.114-.25.75-.451 1.454-.575 2.017-.945 4.76-1.051 7.8-.068 1.943-.069 1.949-.334 1.951-.135.001-.39-.398-.424-.665-.062-.471.165-3.83.324-4.789.031-.193.083-.552.114-.798.054-.43.085-.59.35-1.788.435-1.971 1.41-4.382 1.773-4.39.024 0 .042.057.04.128zm.536 15.843c.218.171.207.45-.025.646-.226.19-.308.186-.52-.026-.146-.145-.168-.202-.137-.356.04-.205.229-.38.411-.381.067-.001.188.052.271.117zm-3.841-14.78c-.605.203-1.467.614-1.89.9l-.646.44c-.447.306-1.356 1.219-1.787 1.793-.363.485-.936 1.432-1.012 1.672-.023.074-.09.223-.148.332a1 1 0 0 0-.106.256c0 .031-.049.185-.108.343-.346.912-.527 2.02-.539 3.308-.01 1.02.076 1.754.313 2.68.678 2.66 2.474 4.922 4.818 6.07.679.333 1.998.745 2.758.862.204.031.416.07.47.088.144.044.126.262-.051.637-.121.256-.153.41-.157.756-.005.391.012.46.16.673.202.293.697.554 1.032.546.31-.007.776-.255.99-.526.285-.36.39-.673.435-1.306.031-.44.065-.6.14-.668.066-.06.297-.108.693-.145.635-.058 1.097-.155 2.305-.48.318-.086 1.228-.445 1.465-.578.085-.048.257-.123.384-.167.218-.077.234-.075.316.042.05.07.087.246.087.402 0 .24.027.305.19.469.199.198.468.305.551.219.048-.05.173-5.748.13-5.876-.034-.096-.173-.116-.555-.08l-.34.032-.267.77c-.573 1.66-.89 2.26-1.62 3.064a4.63 4.63 0 0 1-1.853 1.235c-.408.145-1.418.32-1.855.32-.51 0-1.614-.197-2.022-.361-1.183-.475-2.093-1.346-2.705-2.587-.977-1.981-1.297-5.251-.885-9.028.152-1.395.484-2.532 1.018-3.491.156-.28.34-.705.408-.946.069-.241.214-.695.322-1.008.314-.908.31-.914-.44-.662zm3.76 19.364c.414.215.255.8-.208.76-.437-.036-.559-.59-.168-.76.223-.098.186-.098.375 0z" style="fill:#000;stroke-width:.0570255" transform="translate(-.664 .188)"/><path d="M77.157 444.086c-.166-2.466-.577-2.182-1.588-1.993-1.31.246-2.169 1.346-2.407 3.084-.097.709-.189 1.252-.316 1.657a42.33 42.33 0 0 1 4.31-2.748zM65.41 453.671a44.747 44.747 0 0 1 6.262-5.95c-.587-.069-1.44-.427-2.73-1.023-4.521-2.089-10.53-3.934-15.088-4.632l-4.025-.617c-.905-.14-1.768-.329-1.918-.422-.174-.107-.274-2.057-.274-5.33 0-4.756-.174-6.21-.737-6.173-.104.007-.904.38-1.777.83-2.803 1.442-6.313 5.512-8.584 9.954-1.494 2.922-2.87 6.236-3.316 7.99a18.6 18.6 0 0 1-.52 1.587c-1.07 2.83-3.05 12.206-3.722 17.621-.897 7.247-1.3 12.164-1.728 21.14-.253 5.296-.184 6.082.685 7.816 1.03 2.057 2.506 3.146 6.734 4.97 2.11.91 4.372 1.943 5.027 2.295l1.19.64-.049 1.4c-.054 1.536-.919 4.06-2.206 6.44-1.706 3.153-2.222 5.925-1.417 7.613.766 1.607 3.74 2.53 8.228 2.552 1.36.007 1.691-.08 1.918-.504.185-.345.274-12.808.274-38.464 0-33.65.045-37.99.402-38.286.511-.424 2.817-.205 5.412.514 4.624 1.281 8.665 4.019 11.958 8.04zm6.262-5.95c.635.073.957-.2 1.173-.887a43.32 43.32 0 0 0-1.173.887zm-30.055-9.474c.11-.002.193.264.187.591-.006.328-.192 1.072-.413 1.654-.22.582-.518 1.475-.662 1.984-.143.51-.372 1.165-.508 1.456-.247.527-1.162 3.474-2.095 6.747-2.668 9.356-4.383 22.086-4.876 36.191-.314 9.013-.319 9.037-1.55 9.048-.626.006-1.806-1.846-1.968-3.086-.285-2.186.769-17.77 1.503-22.217.147-.895.386-2.562.53-3.704.251-1.998.396-2.738 1.623-8.295 2.02-9.148 6.54-20.334 8.23-20.369zm1.42 73.556c.308-.003.873.24 1.257.543 1.012.796.96 2.092-.118 3-1.047.88-1.43.862-2.412-.12-.675-.676-.777-.94-.635-1.654.188-.95 1.062-1.76 1.908-1.77zM56.848 503.31c-.002-.018-.002-.05-.003-.069l-.007-.022c.003.048.006.068.01.091zM56.85 503.33l-.002-.02.002.02zM56.856 503.366c-.001-.014-.004-.021-.006-.036.002.01.004.032.006.036z" style="color:#000;fill:#000;-inkscape-stroke:none" transform="matrix(.21553 0 0 -.21553 5.51 124.789)"/><path d="M76.137 526.5c-.367-.222-.716-.44-1.032-.655a950.158 950.158 0 0 1-3.008-2.049c-1.85-1.266-4.284-3.573-6.362-5.869a32.133 32.133 0 0 1-2.091 2.531 21.48 21.48 0 0 1-8.599 5.73c-1.894.675-6.578 1.482-8.608 1.483-2.364.001-7.487-.914-9.384-1.675-5.484-2.202-9.71-6.243-12.548-12-4.531-9.193-6.02-24.365-4.109-41.886.707-6.474 2.246-11.75 4.727-16.2.723-1.296 1.575-3.271 1.893-4.39.318-1.117.99-3.223 1.493-4.678 1.455-4.213 1.439-4.238-2.039-3.07-2.806.943-6.807 2.849-8.766 4.177-.82.555-2.17 1.475-3 2.043-2.071 1.418-6.29 5.652-8.288 8.317-1.686 2.25-4.347 6.645-4.697 7.76-.107.339-.416 1.032-.686 1.539-.27.507-.492 1.04-.492 1.185 0 .145-.227.861-.504 1.592-1.605 4.23-2.442 9.375-2.498 15.35-.043 4.729.354 8.137 1.451 12.436 3.147 12.337 11.48 22.835 22.356 28.162 3.149 1.542 9.27 3.454 12.797 3.996.946.146 1.928.33 2.183.41.663.206.58 1.215-.243 2.955-.561 1.187-.71 1.903-.727 3.511-.02 1.814.055 2.132.74 3.12.94 1.357 3.236 2.572 4.794 2.534 1.435-.034 3.597-1.183 4.593-2.44 1.322-1.67 1.806-3.124 2.016-6.062.146-2.037.303-2.784.651-3.099.306-.277 1.379-.5 3.214-.67 2.945-.273 5.09-.72 10.692-2.23 1.478-.398 5.7-2.062 6.8-2.68.393-.22 1.194-.57 1.78-.777 1.012-.357 1.087-.347 1.469.198.226.323.403 1.138.403 1.865 0 1.11.123 1.414.883 2.174.92.92 2.168 1.416 2.555 1.015.05-.051.118-1.546.191-3.654zm-33.035 6.774c.195 0 .371.114.811.342 1.927.996 1.186 3.714-.962 3.53-2.026-.173-2.592-2.745-.778-3.534.518-.226.733-.338.929-.338z" style="color:#000;fill:#000;-inkscape-stroke:none" transform="matrix(.21553 0 0 -.21553 5.51 124.789)"/></g><defs><clipPath id="a"><path fill="#fff" d="M0 0h40v40H0z"/></clipPath></defs></svg>