<svg xmlns="http://www.w3.org/2000/svg" xml:space="preserve" width="40" height="40" viewBox="0 0 10.583 10.583"><path fill="#ffaae4" d="M5.219 10.583A5.292 5.292 0 1 0 5.219 0a5.292 5.292 0 0 0 0 10.583z"/><path d="M2.771 8.54c.017-.007.038-.033.158-.19l.146-.188.541-.702c.037-.049.018-.115-.043-.15-.03-.016-.074-.02-.096-.008a.892.892 0 0 0-.09.105l-.21.273a154.667 154.667 0 0 0-.405.524c-.14.18-.156.205-.156.23 0 .018.021.059.04.077.032.029.082.042.115.028zm.63-.045c.027-.016.847-1.084.853-1.109.018-.078-.094-.16-.16-.117-.019.012-.823 1.05-.847 1.092a.062.062 0 0 0-.008.048c.006.03.044.075.075.088.028.012.067.011.088-.002zm2.066-.025a.624.624 0 0 0 .097-.096c.399-.453.635-.935.698-1.424.024-.183.017-.458-.012-.499-.009-.011-.02-.017-.037-.018-.023-.002-.029.001-.066.037a4.95 4.95 0 0 1-1.133.789c-.064.033-.12.064-.124.07a.062.062 0 0 0-.008.032c0 .022.024.076.307.686l.143.31c.042.092.053.107.083.116.03.008.027.008.052-.003zm-2.824-.56c.013-.01.196-.242.436-.553.31-.401.416-.543.42-.56.008-.048-.044-.113-.101-.124-.055-.01-.037-.03-.46.517l-.424.55c-.03.04-.032.044-.03.076.004.044.023.07.067.092.042.02.063.021.092.002zm2.16-.73c.02-.008.232-.128.34-.193a5.95 5.95 0 0 0 1.556-1.328A4.803 4.803 0 0 0 7.673 3.6c.004-.027.004-.027-.022-.035A3.784 3.784 0 0 1 6.233 2.48l-.02-.025-.13.07c-.609.323-1.102.75-1.54 1.331a6.097 6.097 0 0 0-.97 2.025c-.038.146-.072.295-.072.32 0 .03.024.07.06.1a72.12 72.12 0 0 0 1.152.878.202.202 0 0 0 .09.002zm.96-2.126a.704.704 0 0 1-.218-1.299.702.702 0 0 1 1.044.48.7.7 0 0 1-.376.757.693.693 0 0 1-.45.062ZM3.298 6.157c.016-.009.039-.045.039-.063a6.374 6.374 0 0 1 .466-1.342.813.813 0 0 0 .042-.095.062.062 0 0 0-.03-.048c-.013-.006-.033-.005-.084.002-.257.038-.53.148-.784.316-.15.099-.256.187-.403.335a3.14 3.14 0 0 0-.42.517c-.067.103-.075.124-.056.16.018.033-.046.02.989.198.185.032.214.035.24.02zm4.419-2.792a4.564 4.564 0 0 0 .013-1.244c-.005-.033-.01-.044-.03-.061-.028-.027-.046-.028-.17-.008a5.001 5.001 0 0 0-1.127.32c-.003.003.071.09.158.185.257.283.653.578 1.017.758.112.055.139.065.139.05z" style="fill:#000;stroke-width:.00660648"/></svg>