<svg xmlns="http://www.w3.org/2000/svg" xml:space="preserve" width="41" height="41" fill="none"><g clip-path="url(#a)"><path fill="#3a82ff" d="M20 40c11.046 0 20-8.954 20-20S31.046 0 20 0 0 8.954 0 20s8.954 20 20 20Z" style="stroke-width:.999999"/><g style="fill:#21242a;fill-opacity:1"><g style="fill:#21242a;fill-rule:nonzero;stroke:none;stroke-width:0;stroke-linecap:butt;stroke-linejoin:miter;stroke-miterlimit:10;stroke-dasharray:none;fill-opacity:1"><path d="M45 0C25.463 0 9.625 15.838 9.625 35.375c0 8.722 3.171 16.693 8.404 22.861L45 90l26.97-31.765c5.233-6.167 8.404-14.139 8.404-22.861C80.375 15.838 64.537 0 45 0Zm0 48.705c-8.035 0-14.548-6.513-14.548-14.548S36.965 19.609 45 19.609s14.548 6.513 14.548 14.548S53.035 48.705 45 48.705z" style="opacity:1;fill:#21242a;fill-rule:nonzero;stroke:none;stroke-width:1;stroke-linecap:butt;stroke-linejoin:miter;stroke-miterlimit:10;stroke-dasharray:none;fill-opacity:1" transform="matrix(.11497 0 0 .11497 8.12 21.968)"/></g><g style="fill:#21242a;fill-rule:nonzero;stroke:none;stroke-width:0;stroke-linecap:butt;stroke-linejoin:miter;stroke-miterlimit:10;stroke-dasharray:none;fill-opacity:1"><path d="M45 0C25.463 0 9.625 15.838 9.625 35.375c0 8.722 3.171 16.693 8.404 22.861L45 90l26.97-31.765c5.233-6.167 8.404-14.139 8.404-22.861C80.375 15.838 64.537 0 45 0Zm0 48.705c-8.035 0-14.548-6.513-14.548-14.548S36.965 19.609 45 19.609s14.548 6.513 14.548 14.548S53.035 48.705 45 48.705z" style="opacity:1;fill:#21242a;fill-rule:nonzero;stroke:none;stroke-width:1;stroke-linecap:butt;stroke-linejoin:miter;stroke-miterlimit:10;stroke-dasharray:none;fill-opacity:1" transform="matrix(.11556 0 0 .11556 22.035 20.056)"/></g><path d="M-82.308 417.874c-.045-.018-.098-.09-.098-.132a.22.22 0 0 1 .018-.076c.013-.027.376-.287 1.132-.81.863-.596 1.112-.776 1.106-.796a58.042 58.042 0 0 1-.455-1.679c0-.026.017-.065.04-.092.033-.04.051-.048.104-.048.08 0 .125.03.147.096.01.028.12.423.247.88.126.455.232.83.235.833l.797.453c.436.246.812.469.835.494.1.109-.006.276-.15.236-.027-.008-.4-.213-.828-.457l-.778-.444-1.094.757c-.602.416-1.113.766-1.137.778-.047.025-.073.026-.12.007z" style="fill:#21242a;fill-opacity:1;stroke-width:.30976351;stroke-dasharray:none;stroke:#21242a;stroke-opacity:1" transform="matrix(3.22827 0 0 3.22827 279.505 -1316.848)"/><g style="fill:#21242a;fill-rule:nonzero;stroke:none;stroke-width:0;stroke-linecap:butt;stroke-linejoin:miter;stroke-miterlimit:10;stroke-dasharray:none;fill-opacity:1"><path d="M41.222-2.159c-19.537 0-35.375 15.838-35.375 35.375 0 8.722 3.171 16.693 8.404 22.861l26.971 31.764 26.97-31.765c5.233-6.167 8.404-14.139 8.404-22.86C76.597 13.678 60.76-2.16 41.222-2.16Zm0 48.705c-8.035 0-14.548-6.513-14.548-14.548S33.187 17.45 41.222 17.45 55.77 23.963 55.77 31.998s-6.513 14.548-14.548 14.548z" style="opacity:1;fill:#21242a;fill-rule:nonzero;stroke:none;stroke-width:1;stroke-linecap:butt;stroke-linejoin:miter;stroke-miterlimit:10;stroke-dasharray:none;fill-opacity:1" transform="translate(13.036 7.645) scale(.16635)"/></g></g></g><defs><clipPath id="a"><path fill="#fff" d="M.004.002h40v40h-40z"/></clipPath></defs></svg>