<svg xmlns="http://www.w3.org/2000/svg" width="40" height="41" fill="none"><g clip-path="url(#a)"><path fill="#FF4B55" d="M20 40.002a20 20 0 1 0 0-40 20 20 0 0 0 0 40Z"/><path fill="#21242A" d="M19.765 11.25a2.5 2.5 0 1 0 0-5 2.5 2.5 0 0 0 0 5ZM20.164 24.907a4.5 4.5 0 1 0 0-9 4.5 4.5 0 0 0 0 9ZM19.765 33.48a2.5 2.5 0 1 0 0-5 2.5 2.5 0 0 0 0 5ZM27.952 20.021a2.5 2.5 0 1 0 5 0 2.5 2.5 0 0 0-5 0ZM6.996 20.021a2.5 2.5 0 1 0 5 0 2.5 2.5 0 0 0-5 0ZM25.913 14.6a2.5 2.5 0 1 0 3.535-3.535 2.5 2.5 0 0 0-3.535 3.535ZM10.45 29.74a2.5 2.5 0 1 0 3.536-3.536 2.5 2.5 0 0 0-3.535 3.536ZM25.877 25.31a2.5 2.5 0 1 0 3.535 3.536 2.5 2.5 0 0 0-3.535-3.536ZM10.845 10.6a2.5 2.5 0 1 0 3.535 3.535 2.5 2.5 0 0 0-3.535-3.535Z"/></g><defs><clipPath id="a"><path fill="#fff" d="M0 .002h40v40H0z"/></clipPath></defs></svg>
