<svg xmlns="http://www.w3.org/2000/svg" xml:space="preserve" width="41" height="41" fill="none"><g clip-path="url(#a)"><path fill="#3a82ff" d="M20 40c11.046 0 20-8.954 20-20S31.046 0 20 0 0 8.954 0 20s8.954 20 20 20Z" style="stroke-width:.999999"/><g style="fill:none;fill-rule:nonzero;stroke:none;stroke-width:0;stroke-linecap:butt;stroke-linejoin:miter;stroke-miterlimit:10;stroke-dasharray:none"><path d="M45 0C25.463 0 9.625 15.838 9.625 35.375c0 8.722 3.171 16.693 8.404 22.861L45 90l26.97-31.765c5.233-6.167 8.404-14.139 8.404-22.861C80.375 15.838 64.537 0 45 0Zm0 48.705c-8.035 0-14.548-6.513-14.548-14.548S36.965 19.609 45 19.609s14.548 6.513 14.548 14.548S53.035 48.705 45 48.705z" style="opacity:1;fill:#000;fill-rule:nonzero;stroke:none;stroke-width:1;stroke-linecap:butt;stroke-linejoin:miter;stroke-miterlimit:10;stroke-dasharray:none" transform="matrix(.1462 0 0 .1462 5.214 22.394)"/></g><g style="fill:none;fill-rule:nonzero;stroke:none;stroke-width:0;stroke-linecap:butt;stroke-linejoin:miter;stroke-miterlimit:10;stroke-dasharray:none"><path d="M45 0C25.463 0 9.625 15.838 9.625 35.375c0 8.722 3.171 16.693 8.404 22.861L45 90l26.97-31.765c5.233-6.167 8.404-14.139 8.404-22.861C80.375 15.838 64.537 0 45 0Zm0 48.705c-8.035 0-14.548-6.513-14.548-14.548S36.965 19.609 45 19.609s14.548 6.513 14.548 14.548S53.035 48.705 45 48.705z" style="opacity:1;fill:#000;fill-rule:nonzero;stroke:none;stroke-width:1;stroke-linecap:butt;stroke-linejoin:miter;stroke-miterlimit:10;stroke-dasharray:none" transform="translate(22.466 19.963) scale(.14695)"/></g><path d="M-82.488 418.86c-.02-.024-.019-.025.005-.006.015.012.027.024.027.027 0 .013-.012.005-.032-.02zm4.164-.854-.03-.035.035.03a.17.17 0 0 1 .035.034c0 .013-.013.003-.04-.029zm-4.52-.592a.153.153 0 0 1 .062 0c.014.004-.001.007-.035.007s-.046-.003-.027-.007zm-1.088-.398c0-.018.004-.022.01-.01.004.012.003.025-.002.03-.005.005-.009-.004-.008-.02zm2.235-.137c0-.043.003-.058.007-.035a.278.278 0 0 1 0 .077c-.004.02-.007 0-.007-.042zm-.585 0c0-.034.003-.046.007-.027a.169.169 0 0 1 0 .062c-.005.014-.008-.001-.007-.035zm-1.65-.156c0-.017.004-.021.01-.009.004.012.003.025-.002.03-.005.005-.009-.004-.008-.02zm5.929-.017a.122.122 0 0 1 .053 0c.015.004.003.007-.026.007-.03 0-.042-.003-.027-.007zm-5.238-.163c0-.003.023-.025.05-.05l.05-.045-.045.05c-.042.046-.055.057-.055.045zm4.146-.38c0-.047.002-.066.006-.042a.343.343 0 0 1 0 .084c-.004.024-.006.004-.006-.042zm.584.008c0-.034.003-.046.007-.027a.17.17 0 0 1 0 .062c-.004.014-.007-.001-.007-.035zm-3.477-.027-.029-.035.035.03c.032.027.041.04.03.04a.172.172 0 0 1-.036-.035zm-1.63-.042a.427.427 0 0 1 .068-.062.27.27 0 0 1-.052.062.427.427 0 0 1-.068.061.27.27 0 0 1 .052-.061zm1.538-.05-.03-.035.035.03c.033.027.042.04.03.04a.172.172 0 0 1-.035-.035zm5.213-.005c0-.018.004-.022.01-.01.004.012.003.025-.002.03-.005.005-.009-.004-.008-.02zm-.733-.257-.046-.05.05.045c.047.042.058.055.046.055a.388.388 0 0 1-.05-.05zm-5.244-.022a.153.153 0 0 1 .062 0c.014.004-.001.007-.035.007s-.046-.003-.027-.007zm4.865-.138c.01-.004.024-.004.03 0 .004.006-.005.01-.021.009-.018-.001-.022-.004-.01-.01zm-2.751-.214c0-.018.004-.022.009-.01.004.012.004.025-.001.03-.005.005-.01-.004-.008-.02zm1.96-.038a.427.427 0 0 1 .069-.061.27.27 0 0 1-.053.061.427.427 0 0 1-.068.062.27.27 0 0 1 .053-.062zm-1.93-.052a.1.1 0 0 1 .026-.026c.024-.02.025-.02.006.006-.02.025-.033.033-.033.02zm.111-.066a.084.084 0 0 1 .046 0c.01.005-.002.008-.027.008s-.034-.004-.019-.008zm2.44-.2c.011-.004.025-.004.03.001.005.005-.004.01-.02.008-.018 0-.022-.004-.01-.009zm.17-.015c.01-.004.024-.004.03 0 .004.006-.005.01-.021.009-.018-.001-.022-.004-.01-.01zm-2.555-1.432c.01-.004.024-.004.03.001.004.005-.005.01-.021.008-.018 0-.022-.004-.01-.009zm.975-.443c0-.026.004-.034.008-.02a.089.089 0 0 1 0 .047c-.005.01-.008-.002-.008-.027zm0-.131c0-.03.004-.042.008-.027a.126.126 0 0 1 0 .054c-.004.015-.007.003-.007-.027zm-.312-.689-.053-.058.058.053c.032.03.058.056.058.058 0 .012-.013 0-.063-.053zm-.85-.306a.063.063 0 0 1 .04 0c.01.004.001.008-.02.008s-.03-.003-.02-.008zm.186 0a.063.063 0 0 1 .038 0c.01.004.002.008-.02.008-.02 0-.029-.003-.018-.008z" style="fill:#000;fill-opacity:1;stroke-width:.0153921" transform="matrix(4.10503 0 0 4.10503 350.083 -1679.587)"/><path d="M-82.308 417.874c-.045-.018-.098-.09-.098-.132 0-.02.008-.054.018-.076.013-.027.376-.287 1.132-.81.863-.596 1.112-.776 1.106-.796a58.042 58.042 0 0 1-.455-1.679c0-.026.017-.065.04-.092.033-.04.051-.048.104-.048.08 0 .125.03.147.096.01.028.12.423.247.88.126.455.232.83.235.833l.797.453c.436.246.812.469.835.494.1.109-.006.276-.15.236-.027-.008-.4-.213-.828-.457l-.778-.444-1.094.757c-.602.416-1.113.766-1.137.778-.047.025-.073.026-.12.007z" style="fill:#000;fill-opacity:1;stroke-width:.0153921" transform="matrix(4.10503 0 0 4.10503 350.083 -1679.587)"/><g style="fill:none;fill-rule:nonzero;stroke:none;stroke-width:0;stroke-linecap:butt;stroke-linejoin:miter;stroke-miterlimit:10;stroke-dasharray:none"><path d="M41.222-2.159c-19.537 0-35.375 15.838-35.375 35.375 0 8.722 3.171 16.693 8.404 22.861l26.971 31.764 26.97-31.765c5.233-6.167 8.404-14.139 8.404-22.86C76.597 13.678 60.76-2.16 41.222-2.16zm0 48.705c-8.035 0-14.548-6.513-14.548-14.548S33.187 17.45 41.222 17.45 55.77 23.963 55.77 31.998s-6.513 14.548-14.548 14.548z" style="opacity:1;fill:#000;fill-rule:nonzero;stroke:none;stroke-width:1;stroke-linecap:butt;stroke-linejoin:miter;stroke-miterlimit:10;stroke-dasharray:none" transform="matrix(.21153 0 0 .21153 11.244 4.624)"/></g></g><defs><clipPath id="a"><path fill="#fff" d="M.004.002h40v40h-40z"/></clipPath></defs></svg>