<svg xmlns="http://www.w3.org/2000/svg" width="40" height="40" fill="none"><path fill="#57c4a6" d="M20 40a20 20 0 1 0 0-40 20 20 0 0 0 0 40Z" clip-path="url(#clipPath407)"/><g stroke="#21242a" stroke-linecap="round" stroke-linejoin="round" stroke-width="2"><path d="M19.77 23.369v-3.864" clip-path="url(#clipPath383)" transform="translate(.235 -.816)"/><path d="M19.77 23.369v-3.864" clip-path="url(#clipPath383-3)" transform="rotate(-33.474 18.866 10.102)"/><path d="M19.77 23.369v-3.864" clip-path="url(#clipPath383-3-1)" transform="scale(-1 1) rotate(-33.474 -1.002 76.65)"/></g><path fill="#57c4a6" d="M20 40a20 20 0 1 0 0-40 20 20 0 0 0 0 40Z" clip-path="url(#a)"/><path d="M15.5 12.216a4.5 4.5 0 1 0 9 0 4.5 4.5 0 0 0-9 0zm2 16.118a2.5 2.5 0 1 0 5 0 2.5 2.5 0 0 0-5 0z" style="fill:#21242a;fill-opacity:1"/><path stroke="#21242a" stroke-linecap="round" stroke-linejoin="round" stroke-width="2" d="M19.77 23.369v-3.864" clip-path="url(#b)" transform="translate(.23)"/><path d="M17.5 28.334a2.5 2.5 0 1 0 5 0 2.5 2.5 0 0 0-5 0z" style="fill:#21242a;fill-opacity:1" transform="rotate(-33.474 20.334 10.9)"/><path stroke="#21242a" stroke-linecap="round" stroke-linejoin="round" stroke-width="2" d="M19.77 23.369v-3.864" clip-path="url(#c)" transform="rotate(-33.474 20.22 10.518)"/><path d="M17.5 28.334a2.5 2.5 0 1 0 5 0 2.5 2.5 0 0 0-5 0z" style="fill:#21242a;fill-opacity:1" transform="scale(-1 1) rotate(-33.474 .472 77.432)"/><path stroke="#21242a" stroke-linecap="round" stroke-linejoin="round" stroke-width="2" d="M19.77 23.369v-3.864" clip-path="url(#d)" transform="scale(-1 1) rotate(-33.474 .357 77.05)"/><defs><clipPath id="b" clipPathUnits="userSpaceOnUse"/><clipPath id="a" clipPathUnits="userSpaceOnUse"/><clipPath id="c" clipPathUnits="userSpaceOnUse"/><clipPath id="d" clipPathUnits="userSpaceOnUse"/></defs></svg>