<svg xmlns="http://www.w3.org/2000/svg" width="40" height="40" fill="none"><g clip-path="url(#a)"><path fill="#57C4A6" d="M20 40a20 20 0 1 0 0-40 20 20 0 0 0 0 40Z"/><path fill="#21242A" d="M8.231 24.111a2.5 2.5 0 1 0 5 0 2.5 2.5 0 0 0-5 0ZM17.32 28.334a2.5 2.5 0 1 0 5 0 2.5 2.5 0 0 0-5 0ZM14.848 12.216a4.5 4.5 0 1 0 9 0 4.5 4.5 0 0 0-9 0Z"/><path stroke="#21242A" stroke-linecap="round" stroke-linejoin="round" stroke-width="2" d="m26.232 20.761-2.334-2.801M14.735 17.96 12.4 20.76"/><path fill="#21242A" d="M26.867 24.111a2.5 2.5 0 1 0 5 0 2.5 2.5 0 0 0-5 0Z"/><path stroke="#21242A" stroke-linecap="round" stroke-linejoin="round" stroke-width="2" d="M19.77 23.369v-3.864"/></g><defs><clipPath id="a"><path fill="#fff" d="M0 0h40v40H0z"/></clipPath></defs></svg>
