<svg xmlns="http://www.w3.org/2000/svg" width="40" height="40" fill="none"><g clip-path="url(#a)"><path fill="#2BCEA1" d="M20 40c11.046 0 20-8.954 20-20S31.046 0 20 0 0 8.954 0 20s8.954 20 20 20Z" opacity=".8"/><path fill="#2BCEA1" d="M20 40c11.046 0 20-8.954 20-20S31.046 0 20 0 0 8.954 0 20s8.954 20 20 20Z"/><path fill="#21242A" d="M17.906 13.71c-4.035 2.483-4.499 7.982-4.333 10.905.026.445.36.802.802.862 3.157.431 9.274.58 12.244-2.703 2.822-3.12 2.89-7.012 2.91-9.262a1.03 1.03 0 0 0-.823-1.022c-2.473-.485-6.88-1.192-10.8 1.22Z"/><path stroke="#21242A" stroke-linecap="round" stroke-width="2" d="M14.723 24.364c-1.673 1.034-2.361 1.624-4.267 3.631"/></g><defs><clipPath id="a"><path fill="#fff" d="M0 0h40v40H0z"/></clipPath></defs></svg>
