<svg xmlns="http://www.w3.org/2000/svg" xml:space="preserve" width="41" height="41" fill="none"><g clip-path="url(#a)"><path fill="#3a82ff" d="M20 40c11.046 0 20-8.954 20-20S31.046 0 20 0 0 8.954 0 20s8.954 20 20 20Z" style="stroke-width:.999999"/></g><defs><clipPath id="a"><path fill="#fff" d="M.004.002h40v40h-40z"/></clipPath></defs><path d="M9.835 28.103c-.867-.098-1.52-.787-1.777-1.875-.319-1.347-.42-3.516-.239-5.119.283-2.502 1.1-4.856 2.323-6.69.823-1.235 1.845-2.044 3-2.378.51-.147 1.587-.182 2.182-.071.864.16 1.765.532 2.608 1.075.72.464.903.51 2.045.51 1.135 0 1.405-.061 2.004-.452 1.39-.908 2.801-1.324 4.072-1.201 1.156.111 2.037.548 2.946 1.46 1.38 1.384 2.596 4.074 3.036 6.716.302 1.81.318 3.715.046 5.42-.22 1.386-.596 2.074-1.329 2.434-.284.14-.364.157-.82.171-.506.016-.506.016-.89-.174-.89-.44-1.827-1.29-3.74-3.389-.35-.384-.488-.5-.743-.62l-.313-.149h-8.49l-.313.149c-.255.12-.393.236-.743.62-1.512 1.66-2.208 2.337-3.026 2.946-.734.546-1.171.692-1.84.617zm5.286-7.271.227-.101v-.742c0-.408.013-.777.03-.818.024-.065.144-.076.838-.076.925 0 .877.022 1.023-.477.1-.341.096-.525-.017-.823-.165-.433-.15-.427-1.017-.427h-.758l-.014-.803-.013-.804-.192-.096c-.247-.123-1.114-.139-1.343-.023l-.143.072-.024.815-.024.815-.788.013c-.831.014-.888.029-.972.249-.16.419-.133 1.022.06 1.337l.09.15.78.013.782.013.013.773c.014.863.018.872.38 1.007.253.094.793.061 1.082-.067zm10.093.022c.328-.121.574-.347.736-.675.14-.287.153-.347.132-.64-.026-.372-.118-.582-.366-.844-.287-.302-.5-.39-.942-.39-.338-.002-.416.016-.645.142a1.414 1.414 0 0 0-.61.71c-.084.225-.076.655.016.923.1.297.448.652.738.755.251.089.726.098.941.019zm3.274-1.69c.328-.098.674-.416.819-.753.215-.499.063-1.155-.348-1.501a1.377 1.377 0 0 0-1.466-.185c-.491.245-.762.73-.717 1.287.03.371.162.633.45.886.362.319.783.407 1.262.265zM25.166 17.2c.289-.086.648-.386.795-.665.157-.296.151-.88-.011-1.198-.235-.46-.64-.7-1.176-.7-.743 0-1.262.48-1.309 1.215-.027.43.09.734.396 1.035.35.344.822.457 1.305.313z" style="fill:#020203;stroke-width:.0479652"/></svg>