<svg xmlns="http://www.w3.org/2000/svg" width="40" height="40" fill="none"><g clip-path="url(#a)"><path fill="#FF4B55" d="M20 40a20 20 0 1 0 0-40 20 20 0 0 0 0 40Z"/></g><defs><clipPath id="a"><path fill="#fff" d="M0 0h40v40H0z"/></clipPath></defs><path d="M20.383 33.295a6.985 6.985 0 0 1-.377-.103c-.149-.043-.476-.13-.728-.191a54.401 54.401 0 0 1-.756-.192l-.465-.123a1.181 1.181 0 0 1-.23-.082c-.084-.053-.074-.323.022-.552.045-.106.08-.255.08-.331 0-.076.025-.213.054-.304.116-.36.381-1.526.393-1.728.012-.211.009-.216-.204-.252a10.109 10.109 0 0 1-.566-.128 3.615 3.615 0 0 0-.512-.098c-.15-.01-.167.009-.234.26-.076.285-.201.79-.275 1.107-.024.104-.094.383-.157.62-.123.471-.148.57-.197.802-.031.148-.043.154-.26.122-.457-.066-.714-.124-.83-.186a.703.703 0 0 0-.28-.064.893.893 0 0 1-.287-.05 5.305 5.305 0 0 0-.555-.142c-.744-.16-1.027-.266-1.01-.381.034-.248.113-.594.361-1.585.041-.163.11-.454.155-.647.044-.193.143-.593.22-.89.075-.297.138-.58.138-.63 0-.05-.184-.256-.41-.458-.666-.6-1.514-1.61-1.766-2.106-.077-.152-.164-.292-.192-.31-.073-.044-.46-.82-.54-1.08a4.06 4.06 0 0 0-.143-.386.884.884 0 0 1-.076-.24c0-.077-.093-.385-.178-.588a2.239 2.239 0 0 1-.096-.432 4.86 4.86 0 0 0-.098-.512c-.076-.284-.076-2.629 0-2.913.032-.118.075-.349.096-.512.021-.163.066-.35.102-.415a.574.574 0 0 0 .066-.23c0-.061.021-.154.047-.205.025-.052.091-.24.145-.418.15-.492.66-1.509 1.072-2.135.282-.43.565-.755 1.204-1.386.46-.454.923-.874 1.03-.933.183-.1.382-.231.708-.465.207-.149 1.013-.55 1.403-.7.348-.133.528-.189.944-.293.119-.03.239-.077.267-.105.028-.027.137-.05.243-.051.35-.002.429-.048.488-.289.03-.123.078-.308.106-.412.027-.104.187-.759.355-1.456.413-1.71.445-1.803.635-1.825.084-.009.266.019.405.066.138.046.725.199 1.304.34.578.141 1.106.29 1.173.332.135.083.158.27.057.457a1.449 1.449 0 0 0-.104.36c-.022.134-.078.4-.125.594-.167.689-.19.786-.266 1.105-.042.178-.092.361-.11.406-.066.159.095.281.404.307.16.012.365.056.454.095.089.038.25.085.357.104.234.041.297-.019.368-.351.028-.13.09-.395.138-.588.048-.193.106-.435.13-.54.024-.103.072-.297.109-.43l.152-.567c.047-.178.11-.354.137-.391.07-.092.431-.085.667.012.106.045.245.081.308.08.063 0 .224.035.358.078.133.042.534.142.89.221.853.19.89.206.89.389 0 .135-.147.796-.353 1.579-.186.709-.47 1.874-.494 2.026-.024.147.01.197.316.47.44.392.408.36.916.929.49.547.682.804.879 1.169.075.139.158.266.185.283.079.048.582 1.063.657 1.326.039.133.088.267.112.298.021.03.068.164.1.297l.142.564c.045.178.103.457.13.62.027.164.062.37.081.46.025.122.01.187-.07.258-.1.09-.137.086-.854-.099a45.786 45.786 0 0 0-.965-.24 34.088 34.088 0 0 1-.836-.205l-.62-.157-.148-.265a3.206 3.206 0 0 1-.227-.535c-.138-.468-.886-1.522-1.477-2.08-.906-.858-1.685-1.259-3.243-1.67-.34-.088-1.629-.126-2.08-.06-1.013.149-2.091.527-2.615.918a10.13 10.13 0 0 1-.432.291c-.689.443-1.762 1.796-2 2.524a3.917 3.917 0 0 1-.182.459.752.752 0 0 0-.083.276.914.914 0 0 1-.06.27c-.098.246-.173.92-.17 1.527.003.792.11 1.452.323 2.023.045.118.125.342.18.496.086.25.398.756.856 1.391.17.237.877.919 1.251 1.207.298.23 1.52.825 2.016.982 1.125.356 3.265.273 4.11-.158.125-.064.271-.116.324-.116.086 0 .274-.101.856-.458.387-.238.76-.516.937-.698.18-.187.455-.261.564-.153.021.022.165.068.319.103.153.035.437.103.63.151.193.049.448.11.566.134.119.025.289.071.378.101.173.06.56.161.782.206l.256.051c.214.044.153.265-.189.683-.76.929-1.776 1.812-2.558 2.223-.198.104-.376.214-.395.245-.045.074-.592.35-.836.422-.104.031-.37.119-.593.195-.577.199-.702.235-.944.279a2.264 2.264 0 0 0-.388.11c-.215.09-.176-.03-.804 2.527a33 33 0 0 0-.127.54c-.028.118-.093.349-.147.512-.093.281-.108.297-.287.305a1.334 1.334 0 0 1-.297-.015z" style="fill:#21242a;fill-opacity:1;stroke-width:.0539377"/></svg>