<svg xmlns="http://www.w3.org/2000/svg" width="41" height="41" fill="none"><g clip-path="url(#a)"><path fill="#FFAAE4" d="M19.704 40.004a20.002 20.002 0 1 0 0-40.004c-26.307.363-26.307 39.637 0 40v.004Z"/><path stroke="#21242A" stroke-linecap="round" stroke-linejoin="round" stroke-width="2" d="M24.801 10.876a9.909 9.909 0 0 1 1.575 1.272 9.84 9.84 0 0 1 2.743 5.18M13.877 11.586a9.915 9.915 0 0 0-1.574 1.273 9.84 9.84 0 0 0-2.743 5.18M15.828 28.592a9.921 9.921 0 0 0 1.944.564 9.841 9.841 0 0 0 5.819-.714"/><rect width="7.172" height="7.172" x="15.836" y="8" fill="#21242A" rx="1"/><path fill="#21242A" d="M9.756 20.842a1 1 0 0 1 1.644 0l3.42 4.937a1 1 0 0 1-.822 1.57h-6.84a1 1 0 0 1-.823-1.57l3.42-4.937Z"/><circle cx="28.801" cy="23.655" r="4" fill="#21242A"/></g><defs><clipPath id="a"><path fill="#fff" d="M0 0h40.004v40.004H0z"/></clipPath></defs></svg>
