<svg xmlns="http://www.w3.org/2000/svg" width="40" height="40" fill="none"><g clip-path="url(#a)"><path fill="#2BCEA1" d="M20 40c11.046 0 20-8.954 20-20S31.046 0 20 0 0 8.954 0 20s8.954 20 20 20Z" opacity=".8"/><path fill="#2BCEA1" d="M20 40c11.046 0 20-8.954 20-20S31.046 0 20 0 0 8.954 0 20s8.954 20 20 20Z"/><path fill="#21242A" d="M22.71 29.074c-2.328.139-5.618.346-7.287.452a.997.997 0 0 1-1.059-.998v-4.45c0-.278.117-.545.323-.733.89-.812 3.412-3.095 4.97-4.293 2.044-1.573 2.661-.548 2.062.589-.265.502-1.547 3.315-1.547 3.315s10.056-1.993 10.803-2.195c1.108-.3 1.633.685.717 1.423-.583.468-3.031 3.066-4.74 4.899a6.325 6.325 0 0 1-4.243 1.991Z"/><rect width="3.042" height="7.279" x="10.355" y="22.936" fill="#21242A" rx="1"/><circle cx="21.892" cy="12.941" r="4.183" fill="#21242A"/></g><defs><clipPath id="a"><path fill="#fff" d="M0 0h40v40H0z"/></clipPath></defs></svg>
