<svg width="40" height="40" fill="none" xmlns="http://www.w3.org/2000/svg"><g clip-path="url(#prefix__a)"><path fill="#FF4B55" d="M20 40a20 20 0 100-40 20 20 0 000 40z"/><path d="M17.143 35.665c-1.082-.181-1.259-1.456-.385-2.77.288-.432.662-.857.755-.857.036 0 .13.086.211.194.208.275.585.644.825.807.455.308.775.422 1.319.471.33.03.385.026.678-.057.682-.191 1.237-.586 1.715-1.22.082-.107.176-.195.212-.195.068 0 .35.29.602.618.245.318.468.738.589 1.107.094.285.112.4.115.7.002.314-.01.385-.09.557-.126.273-.254.412-.475.52-.75.367-1.901-.01-2.864-.94-.17-.164-.335-.298-.366-.298-.03 0-.094.045-.141.099-.164.189-.54.515-.796.687-.482.325-.932.51-1.407.578-.28.04-.257.04-.498 0zm2.452-3.247c-.534-.203-.929-.579-1.34-1.275-.608-1.029-1.02-2.519-1.192-4.308-.04-.435-.05-.634-.02-.66.025-.026.095.01.229.124.603.513 1.372.86 2.16.977.47.07.657.07 1.127 0a4.475 4.475 0 002.2-1c.103-.087.17-.12.193-.098.064.064-.09 1.454-.247 2.232-.268 1.323-.714 2.447-1.26 3.173-.27.363-.547.6-.874.757-.196.093-.282.112-.54.12-.19.004-.353-.01-.434-.041zm.057-6.164c-1.018-.11-2-.797-2.738-1.915-.614-.933-1.053-2.235-1.163-3.456-.02-.237-.045-.482-.054-.545-.016-.108-.051-.13-.743-.473-.92-.456-1.966-1.113-1.966-1.235 0-.026.101-.076.225-.112.228-.067.712-.296.907-.429.059-.04.2-.152.311-.247.112-.096.232-.174.265-.174.036 0 .162.063.284.14.395.25.8.438.837.389.02-.026.063-.182.098-.35.097-.449.352-1.212.537-1.601.196-.415.49-.916.55-.94.026-.01.154.083.287.206.264.242.679.463 1.016.542a2.316 2.316 0 001.476-.184l.207-.104.263.12c.145.067.353.142.461.168.248.06.71.06.97 0 .336-.078.751-.3 1.016-.542.133-.122.263-.215.287-.205.025.01.122.149.218.31a7.74 7.74 0 01.863 2.196c.06.265.101.38.14.387.064.01.385-.143.72-.347.4-.246.353-.241.588-.046.407.336.778.549 1.201.688.127.04.252.083.28.093.085.03-.052.145-.607.514-.488.324-1.349.792-1.796.976-.11.046-.22.101-.246.125-.03.03-.06.197-.082.47-.189 2.4-1.34 4.497-2.885 5.258-.568.28-1.14.387-1.727.324zm.55-1.847c.238-.124.356-.366.294-.6-.04-.152-.238-.343-.386-.376-.711-.157-1.18-.5-1.521-1.11-.382-.685-.577-1.842-.498-2.947.03-.428.025-.507-.025-.615-.161-.34-.597-.418-.845-.152-.156.167-.191.412-.189 1.306.003.858.057 1.284.247 1.938.372 1.276 1.14 2.16 2.156 2.477.458.143.612.16.765.08zm-8.4-6.831c-.974-.21-1.876-1.2-2.315-2.54-.602-1.842-.37-4.033.58-5.463.231-.347.653-.783.942-.972.269-.175.6-.323.65-.291.021.01.036.202.036.423.001 1.286.353 2.463 1.013 3.385.194.272.27.338.299.259.01-.025.178-.764.377-1.643.41-1.819.422-1.868.463-1.868.015 0 .117.093.225.206.951 1.001 1.47 2.86 1.273 4.558-.163 1.403-.64 2.512-1.381 3.215-.362.342-.564.487-.834.596-.46.185-.89.229-1.327.135zm15.503.003c-.383-.084-.575-.176-.988-.47-.194-.138-.636-.618-.808-.878-.648-.981-1-2.51-.884-3.831.1-1.127.385-2.039.876-2.791.238-.366.615-.777.665-.725.02.02.06.149.09.288.344 1.565.724 3.204.75 3.233.04.04.105-.03.369-.431.588-.886.866-1.807.907-3.01.01-.352.035-.647.05-.656.051-.03.402.127.644.288.28.187.72.634.929.943.217.323.495.91.617 1.303.13.42.18.679.226 1.063.138.974.146 1.58-.1 2.629-.51 2.09-1.905 3.361-3.342 3.045zm-8.856-2.566a1.341 1.341 0 01-.766-.68c-.117-.255-.11-.676.015-.945.209-.444.551-.679 1.032-.706.223-.01.314 0 .49.066.271.102.586.405.681.653.035.094.075.171.089.171.015 0 .067-.096.12-.212.123-.266.386-.51.665-.616.437-.165.996-.03 1.296.31.235.267.306.453.308.806.002.363-.068.55-.309.811-.23.25-.514.374-.859.374-.394 0-.58-.075-.844-.338a1.253 1.253 0 01-.283-.389c-.036-.094-.076-.17-.09-.17-.015 0-.06.087-.104.193-.097.232-.34.489-.572.603-.131.064-.24.085-.475.091a1.946 1.946 0 01-.395-.02z" fill="#060606"/></g><defs id="prefix__defs359"><clipPath id="prefix__a"><path fill="#fff" d="M0 0h40v40H0z" id="prefix__path356"/></clipPath></defs></svg>