<svg xmlns="http://www.w3.org/2000/svg" width="40" height="40" fill="none"><g clip-path="url(#a)"><path fill="#2bcea1" d="M20 40c11.046 0 20-8.954 20-20S31.046 0 20 0 0 8.954 0 20s8.954 20 20 20Z"/><circle cx="20" cy="20" r="13.527" style="stroke-width:.346859"/><circle cx="20" cy="20" r="1.734" style="stroke-width:.346859"/><g style="fill:#000;fill-opacity:1" transform="translate(20 20) scale(.25467)"><path d="M0-39A39 39 0 0 0-39 0 39 39 0 0 0 0 39 39 39 0 0 0 39 0 39 39 0 0 0 0-39Zm0 1A19 19 0 0 1 0 0a19 19 0 0 0 0 38 38 38 0 0 1 0-76Zm0 52a5 5 0 0 1 5 5 5 5 0 0 1-5 5 5 5 0 0 1-5-5 5 5 0 0 1 5-5z" style="fill:#000;fill-opacity:1"/><circle cy="-19" r="5" style="fill:#000;fill-opacity:1"/></g></g><defs><clipPath id="a"><path fill="#fff" d="M0 0h40v40H0z"/></clipPath></defs></svg>