<svg xmlns="http://www.w3.org/2000/svg" xml:space="preserve" width="40" height="40" fill="none"><circle cx="20" cy="20" r="19.813" style="fill:#ffb845;fill-opacity:1;stroke:none;stroke-width:.258"/><g style="fill:#000"><path d="M-172.909 73.096c-.687-.278-1.25-1.593-1.25-2.922v-2.417h450.133l-.316 2.75-.317 2.75-223.5.173c-122.925.094-224.062-.056-224.75-.334zm197.25-33.224-6-1.615 6-.5c5.737-.478 5.736-2 0-2-2.382 0-8.728-2.89-9.333-4.25-.183-.412-1.003-.75-1.821-.75-1.284 0-1.294-.194-.071-1.417.78-.78 1.998-4.154 2.708-7.5.965-4.546 1.72-6.083 2.987-6.083 2.572 0 3.108-1.065 1.396-2.777-1.02-1.02-1.319-2.412-.887-4.13.357-1.426.718-3.343.8-4.26.134-1.494 1.468-1.61 12.756-1.107 8.53.379 14.36.15 18.035-.708 21.46-5.01 36.932-20.79 42.671-43.518l1.768-7 4.241.308c2.967.215 4.554.89 5.281 2.25 1.42 2.65 2.628 2.438 3.39-.599.351-1.397 1.104-2.253 1.673-1.9 1.338.826 12.352.902 13.66.093 2.584-1.596 1.802 13.865-1.281 25.348-1.588 5.915-7.38 17.69-10.223 20.783-.687.748-1.25 1.79-1.25 2.317 0 .526-4.446 5.444-9.881 10.928-5.436 5.485-9.525 9.972-9.09 9.972.883 0 17.612-16.346 19.971-19.514.825-1.107 2.139-3.245 2.92-4.75.78-1.504 1.792-2.736 2.25-2.736.457 0 .83-.9.83-2s.45-2 1-2 1-.675 1-1.5.45-1.5 1-1.5c1.397 0 1.364.105-2.073 6.649-15.004 28.561-47.113 47.69-79.253 47.216-5.045-.075-11.874-.862-15.174-1.75Zm31.23-2.719c-.333-.332-1.195-.368-1.917-.079-.798.32-.56.556.604.604 1.054.044 1.645-.192 1.313-.525zm8.27-2.396c0-.55-.198-1-.44-1-.243 0-.72.45-1.06 1-.34.55-.141 1 .441 1 .583 0 1.06-.45 1.06-1zm20-8c0-.55-.198-1-.44-1-.243 0-.72.45-1.06 1-.34.55-.141 1 .441 1 .583 0 1.06-.45 1.06-1zm6-4.249c0-.422-.9-.206-2 .481-1.1.687-2 1.595-2 2.017 0 .423.9.206 2-.48 1.1-.688 2-1.595 2-2.018zm-223.315 11.6c-.377-.376-.685-30.309-.685-66.517v-65.834h-14.877c-11.427 0-15.143-.32-16.023-1.38-.793-.955-1.06-7.177-.872-20.25l.272-18.87h120l.285 18c.157 9.9.035 19.013-.269 20.25-.55 2.235-.682 2.25-19.527 2.25h-18.974l-.257 66.25-.258 66.25-24.065.268c-13.237.147-24.374-.04-24.75-.417zm272.922-.932c-.333-.87-.607-39.515-.607-85.878 0-72.3.206-84.466 1.446-85.496 1.094-.907 12.961-1.108 48.75-.822l47.304.376 7.267 2.607c15.507 5.563 25.053 14.997 29.135 28.794a1209.46 1209.46 0 0 0 2.215 7.4c.486 1.594.877 8.57.868 15.5-.024 20.13-4.127 33.155-13.45 42.701-6.34 6.492-11.182 9.629-20.035 12.975-6.554 2.478-8.43 2.687-29.5 3.285l-22.5.64-.537 29.5c-.296 16.224-.634 29.612-.75 29.75-.117.137-11.19.25-24.606.25-21.32 0-24.469-.2-25-1.582zm73.893-97.333c3.753-1.525 7.249-4.737 9.165-8.42 1.839-3.536 1.925-15.66.133-18.853-4.59-8.182-10.279-10.813-23.38-10.813h-9.418v39.896l5.25.302c6.57.378 14.332-.52 18.25-2.112zM23.841-6.444C12.264-10.86 1.791-20.36-2.395-30.243c-3.246-7.663-3.593-8.896-4.242-15.083-2.289-21.808 10.965-42.45 31.679-49.336 15.775-5.245 34.022-1.104 46.299 10.507 20.101 19.011 19.226 51.67-1.856 69.222-4.68 3.896-9.191 6.443-16.94 9.564-4.911 1.977-22.419 1.322-28.704-1.075zM45.41-42.547c3.687-3.172 3.923-9.48.49-13.135-3.638-3.872-9.98-3.629-13.469.516-3.433 4.08-3.331 7.917.313 11.818 3.654 3.911 8.68 4.23 12.666.801zm76.432 26.804c0-1.49.431-2.352 1-2 .55.34 1 1.24 1 2s-.45 1.66-1 2c-.569.352-1-.509-1-2zm2-5.44c0-1.133.45-2.06 1-2.06s1 .649 1 1.441c0 .793-.45 1.72-1 2.06-.55.34-1-.31-1-1.442zm2.195-6.56c.02-1.65.245-2.204.498-1.23.254.972.237 2.322-.037 3-.274.676-.481-.12-.46-1.77zM-22.522-51.97c-1.756-.262-3.059-1.171-3.367-2.35-.61-2.334-1.597-2.437-3.33-.349-1.045 1.258-2.827 1.486-8.873 1.133l-7.567-.441.248-9.383c.516-19.515.512-19.453 1.288-17.383l.75 2 .69-2c.38-1.1 1.551-3.727 2.604-5.838 1.124-2.254 1.703-4.937 1.402-6.5-.424-2.201-.355-2.316.396-.662.867 1.91.942 1.916 1.66.15.464-1.14.272-2.15-.499-2.626-.888-.549-.93-.972-.145-1.458.608-.376 1.106-.207 1.106.375 0 .583.45 1.06 1 1.06s1-.676 1-1.5c0-.826.45-1.5 1-1.5s1-.676 1-1.5c0-.826-.476-1.5-1.059-1.5-.582 0-.75-.499-.375-1.107.478-.773.954-.697 1.578.25.718 1.09 1.11.987 2.001-.53.61-1.038 2.663-3.609 4.564-5.713 2.04-2.257 3.154-4.314 2.72-5.017-.467-.755-.311-.93.423-.476.657.407 3.127-.895 5.703-3.006 3.422-2.804 4.223-3.953 3.245-4.657-.926-.665-.77-.761.54-.336 2.415.784 4.328-.37 2.517-1.518-.934-.593-.423-.87 1.643-.89 2.308-.024 2.654-.255 1.5-1-1.153-.746-.807-.977 1.5-1 2.308-.024 2.654-.255 1.5-1-1.127-.73-.63-.978 2-1 2.632-.024 3.128-.272 2-1-1.333-.862-1.333-.985 0-1.1.825-.072 2.4-.059 3.5.029 1.663.133 1.748-.014.5-.87-1.333-.915-1.333-1.043 0-1.155.825-.07 2.625-.056 4 .03 2 .123 2.2-.052 1-.875-1.135-.779-.453-1.033 2.81-1.044 2.614-.01 4.066-.409 3.69-1.016-.38-.617 1.343-1 4.5-1 3.158 0 4.882-.383 4.5-1-.4-.649 4.51-1 14-1 8.291 0 14.38.386 14.068.89-.302.49 1.076 1.196 3.064 1.569s4.347 1.044 5.242 1.49c.894.447 3.764 1.798 6.376 3.002 2.613 1.204 4.75 2.626 4.75 3.16 0 .533-.836 2.639-1.858 4.68-1.022 2.04-2.159 4.96-2.526 6.49-.494 2.054-1.445 2.935-3.642 3.375-3.37.674-3.62 1.15-1.443 2.743 1.35.987 1.363 1.593.11 5.11-.878 2.465-1.942 3.848-2.781 3.616-.748-.206-7.885-.597-15.86-.869-14.44-.492-14.533-.48-22.726 2.689-18.617 7.202-30.22 20.366-35.112 39.835-2.333 9.285-2.776 10.284-4.47 10.07-.656-.082-2.48-.342-4.055-.577zm-26.479-14.273c0-1.375.227-1.937.505-1.25.277.688.277 1.813 0 2.5-.278.688-.505.125-.505-1.25zm2.037-8.5c.02-1.65.245-2.204.498-1.23.254.972.237 2.322-.037 3-.274.676-.481-.12-.46-1.77zm2.805-10.44c0-.518.45-1.22 1-1.56.55-.34 1 .084 1 .941 0 .858-.45 1.56-1 1.56s-1-.424-1-.942zm2.625-3.857c-.27-.44-.08-1.452.426-2.25.717-1.134.922-.96.934.797.016 2.313-.492 2.856-1.36 1.453zm9.918-16.134c-.316-.512-.118-1.213.441-1.559.56-.345 1.016.074 1.016.931 0 1.757-.6 2.015-1.457.628z" style="fill:#000;fill-opacity:1" transform="translate(17.118 15.93) scale(.05621)"/><path d="M-69.582 283.838c-1.538-1.606-2.632-3.414-2.431-4.017.201-.604 3.953-4.015 8.337-7.58l7.971-6.484h49.472l4.037 5.945c2.22 3.27 4.037 6.599 4.037 7.397s-1.59 2.848-3.534 4.555l-3.535 3.103h-61.556zm115.078.09c-2.581-2.852-2.017-5.783 1.595-8.288 1.788-1.239 5.338-3.97 7.89-6.068l4.638-3.815h48.902l4.66 6.002c2.563 3.3 4.66 6.616 4.66 7.367 0 .751-1.79 2.55-3.978 3.998l-3.979 2.633H78.518c-29.117 0-31.485-.13-33.022-1.828zm-8.008-11.362c-3.065-3.7-3.102-3.993-1.264-9.88.76-2.436 1.938-6.454 2.616-8.929.678-2.475 1.58-5.625 2.001-7 .423-1.375 1.323-4.525 2-7a425.218 425.218 0 0 1 1.977-7c1.056-3.545 2.55-8.77 4.004-14 2.31-8.304 3.32-10.483 6.373-13.75 1.671-1.787 3.791-3.25 4.71-3.25 1.948 0 10.936 11.683 10.936 14.214 0 .944-.615 3.645-1.367 6.001-.752 2.357-2.36 7.66-3.572 11.785-2.961 10.077-5.822 19.672-7.259 24.341-1.068 3.472-6.375 8.606-17.405 16.838-.683.51-2.114-.395-3.75-2.37zm80.924-2.82c-5.216-6.86-5.417-8.309-2.542-18.38 1.116-3.91 2.925-10.259 4.021-14.109 1.096-3.85 2.385-8.35 2.865-10 .48-1.65 1.483-5.198 2.229-7.884 1.048-3.772 2.38-5.708 5.852-8.5 2.473-1.989 5.848-4.851 7.5-6.361 1.653-1.51 3.832-2.747 4.844-2.75 2.061-.005 5.576 3.715 5.627 5.955.033 1.451-2.974 12.802-7.693 29.04-1.358 4.675-2.845 10.075-3.304 12-1.201 5.04-4.667 17.191-5.5 19.285-.39.982-2.65 3.119-5.019 4.75l-4.309 2.964zm-114.02 1.667c-1.403-1.84-2.55-3.864-2.55-4.5 0-.636-.378-1.156-.84-1.156-1.244 0-3.289-4.983-2.541-6.193.354-.573.997-2.452 1.428-4.175 1.601-6.398 9.728-37.097 10.533-39.789.575-1.923 16.172-14.87 17.815-14.787.607.03 2.178 1.413 3.49 3.072 2.132 2.696 2.27 3.41 1.287 6.695-2.646 8.846-6.906 24.034-10.148 36.177-.514 1.925-1.8 6.425-2.859 10s-2.2 7.688-2.536 9.139c-.665 2.867-6.83 8.861-9.113 8.861-.778 0-2.563-1.505-3.966-3.344zm-47.126-64.421c-1.305-.891-6.425-8.406-6.425-9.43 0-.403 2.724-2.998 6.052-5.768l6.052-5.037h27.377c30.086 0 28.277-.364 32.554 6.556 2.524 4.083 2.809 3.547-5.516 10.365l-4.982 4.08-27.018-.016c-14.86-.008-27.503-.346-28.094-.75zm-12.844-16.902c-1.37-2.017-2.268-4.03-1.994-4.472.274-.444 1.378-4.081 2.454-8.083a2212.89 2212.89 0 0 1 4.04-14.778 1563.058 1563.058 0 0 0 4.07-15c1.094-4.125 2.381-8.85 2.862-10.5.481-1.65 1.323-4.777 1.87-6.95 1.045-4.14 7.172-10.44 10.224-10.512.883-.02 3.511 2.51 5.84 5.625 5.138 6.87 5.146 6.8-3.966 37.337a756.948 756.948 0 0 0-3.486 12.098c-1.41 5.1-2.257 6.188-9.531 12.25-4.391 3.659-8.413 6.652-8.938 6.652-.524 0-2.075-1.65-3.445-3.667zm115.67-.296c-1.238-1.57-2.25-3.373-2.25-4.008 0-.636 2.253-9.114 5.007-18.842a7675.34 7675.34 0 0 0 6.116-21.687c.61-2.2 1.467-5.125 1.905-6.5.439-1.375 1.4-4.686 2.134-7.359 1.385-5.033 7.756-12.165 10.157-11.37.65.215 3.095 2.83 5.436 5.81 3.922 4.995 4.209 5.762 3.669 9.8-.322 2.409-.942 5.334-1.377 6.5-1.04 2.784-2.322 7.267-5.038 17.62-5.092 19.407-5.875 21.28-10.335 24.712-2.296 1.767-5.482 4.354-7.08 5.75-3.696 3.227-5.537 3.133-8.345-.426zm80.313-3.06-4.732-6.022 1.543-5.727c.849-3.15 2.506-9.103 3.683-13.228 5.22-18.293 6.171-21.694 6.944-24.823.451-1.827 1.63-4.218 2.62-5.311 2.414-2.667 14.877-11.866 16.076-11.866.525 0 2 1.113 3.277 2.473l2.323 2.473-3.271 11.777a2624.404 2624.404 0 0 0-9.042 33.277c-4.342 16.344-4.926 17.688-8.88 20.428-2.041 1.415-4.184 2.572-4.76 2.572-.578 0-3.179-2.71-5.781-6.022zM93.94 122.873c-2.804-3.238-5.099-6.574-5.099-7.414 0-.84 1.89-2.917 4.197-4.614l4.198-3.087h62.408l2.194 3.719 2.194 3.718-2.845 2.328c-1.565 1.28-5.478 4.332-8.695 6.782l-5.849 4.453H99.04Zm-115.587-1.315c-2.481-3.41-4.512-6.483-4.512-6.83 0-.347 1.987-2.057 4.414-3.8l4.413-3.17h59.02l3.077 2.59c1.692 1.423 3.076 3.19 3.076 3.926 0 .736-3.487 4.063-7.75 7.392l-7.75 6.054-24.738.02-24.739.018zm-152.262-47.462c-1.593-.643-1.627-5.56-.05-7.138.927-.926 52.383-1.2 225.522-1.2h224.321l1.082 2.374c.785 1.723.77 2.956-.057 4.5l-1.138 2.126-224.215-.079c-123.318-.043-224.777-.306-225.465-.583Zm196.75-32.89C6.901 37.787-7.784 30.497-19.676 20.1c-4.665-4.079-8.485-7.737-8.487-8.13-.003-.392-1.261-2.063-2.796-3.713-8.598-9.239-15.944-24.688-19.8-41.638-2.162-9.508-1.491-30.356 1.3-40.362 10.547-37.82 43.022-64.666 82.3-68.033 8.707-.746 21.715.763 31 3.596 5.721 1.746 22.651 9.439 24 10.905.275.3 2.3 1.877 4.5 3.507 5.12 3.794 12.51 11.44 12.467 12.9-.018.62-.93.05-2.025-1.266-1.095-1.316-2.278-2.106-2.627-1.756-.35.35.112 1.46 1.025 2.47 2.179 2.407 2.115 4.11-.13 3.522-1.094-.286-3.78 1.114-6.89 3.59-4.308 3.43-5.585 3.962-8.234 3.433-3.035-.607-3.103-.545-2.15 1.965.85 2.234.567 3.01-2.052 5.63-1.67 1.67-3.4 3.037-3.844 3.037-.443 0-4.182-2.063-8.308-4.584-22.385-13.678-49.506-10.64-67.732 7.584-8.296 8.297-12.702 17.103-14.854 29.69-1.454 8.503-1.442 9.957.163 19.5 2.156 12.82 2.152 13.091-.167 12.355-1.073-.34-2.393.054-3.123.933-1.716 2.068-2.326 1.942-5.382-1.114l-2.637-2.636v2.588c0 2.766-6.197 9.684-8.674 9.684-.753 0-1.881 1.125-2.507 2.5-1.486 3.261-2.305 3.154-3.819-.5-.683-1.65-1.668-3-2.188-3-1.053 0-.274 3.094 1.815 7.2.756 1.486 1.373 3.142 1.373 3.68 0 2.365 8.434 13.34 14.577 18.97 3.692 3.382 7.045 6.15 7.451 6.15.91 0 2.09-4.216 1.378-4.927-.283-.283-.974.147-1.536.956-.893 1.286-.97 1.282-.61-.029.227-.825 1.237-1.502 2.245-1.504 1.007-.002 2.053-.669 2.324-1.48.27-.813 1.77-2.599 3.332-3.97 1.562-1.37 2.84-3.074 2.84-3.787 0-.903.803-1.095 2.644-.633 2.435.611 2.604.454 2.138-1.981-.278-1.455-.106-2.645.38-2.645.488 0 1.32-1.136 1.847-2.525 1.505-3.958 3.675-4.06 10.863-.51 12.81 6.326 24.23 8.21 36.853 6.082 15.43-2.603 30.82-13.78 37.925-27.547 6.484-12.561 8.027-29.62 3.88-42.909-2.147-6.884-1.967-7.792 2.058-10.4 3.741-2.424 4.78-2.195 8.189 1.81 1.054 1.238 1.165.672.636-3.25-.593-4.397-.48-4.75 1.515-4.75 2.218 0 3.057-.54 8.16-5.25 3.119-2.878 4.911-3.491 4.911-1.68 0 1.6 2.988 4.283 3.798 3.411.386-.415.14-.956-.548-1.202-.687-.245-1.235-1.196-1.218-2.113.028-1.436.235-1.398 1.5.274.808 1.068 1.468 2.756 1.468 3.75 0 .995.364 1.81.808 1.81.889 0 3.417 5.534 5.027 11 .566 1.924 1.623 5.524 2.348 8 .832 2.84 1.317 10.031 1.317 19.5 0 12.534-.365 16.258-2.222 22.659-9.947 34.29-37.465 59.867-71.316 66.288-9.943 1.886-25.164 1.886-33.962 0zm-157.316-6.098c-.376-.375-.684-30.308-.684-66.516v-65.834h-14.8c-10.177 0-15.174-.374-16-1.2-1.381-1.382-1.72-38.431-.37-40.558.63-.992 13.548-1.203 61.234-1l60.436.258.272 20.428c.208 15.675-.025 20.616-1 21.235-.7.444-9.48.814-19.514.822l-18.243.015-.257 66.25-.258 66.25-25.066.267c-13.787.147-25.374-.04-25.75-.417zm272.777-.6c-.262-.687-.36-40.175-.219-87.75l.258-86.5h98l7.867 2.782c18.799 6.649 28.68 19.028 32.304 40.472 1.383 8.183 1.47 11.44.543 20.307-2.112 20.215-8.254 32.433-20.86 41.496-11.766 8.46-17.02 9.733-42.854 10.387l-22 .556-.537 29.5c-.296 16.225-.634 29.613-.75 29.75-.117.138-11.702.25-25.744.25-19.504 0-25.644-.295-26.008-1.25zm77.366-101.103c7.617-4.874 9.862-15.475 5.28-24.93-3.334-6.882-7.81-8.976-20.357-9.524l-9.75-.425v38.46l10.25-.407c9.11-.36 10.732-.714 14.577-3.174zM31.84-2.912c-4.3-.684-14.341-4.52-17.998-6.875C8.698-13.1.459-22.037-2.584-27.602c-7.84-14.34-7.306-34.22 1.284-47.758 13.102-20.65 38.855-28.544 60.498-18.544 19.63 9.07 31.042 29.96 27.715 50.736C82.777-17.339 57.467 1.162 31.84-2.912zm13.194-41.37c2.545-2.545 2.94-3.564 2.42-6.25-.786-4.073-3.947-6.72-7.974-6.679-3.523.036-5.758 1.427-7.476 4.653-1.799 3.376-1.412 5.22 1.76 8.392 3.833 3.833 7.357 3.797 11.27-.117zm70.885-51.544c.048-1.165.285-1.402.605-.604.288.722.253 1.584-.08 1.917-.332.332-.568-.259-.525-1.313zm-4.079-6.476c0-.582.45-.78 1-.44s1 .816 1 1.058c0 .243-.45.441-1 .441s-1-.476-1-1.059z" style="fill:#000;fill-opacity:1" transform="translate(17.118 15.93) scale(.05621)"/></g></svg>