<svg xmlns="http://www.w3.org/2000/svg" width="40" height="40" fill="none"><g clip-path="url(#a)"><path fill="#2BCEA1" d="M20 40c11.046 0 20-8.954 20-20S31.046 0 20 0 0 8.954 0 20s8.954 20 20 20Z"/><path stroke="#21242A" stroke-linecap="round" stroke-linejoin="round" stroke-width="2" d="m27.76 19.702-1.724-2.65M20.753 18.596l-1.34 3.094M13.752 22.71l-1.93-2.475M18.452 14.062l-3.403.872M25.15 25.285l-3.262.852"/><path fill="#21242A" d="M7.555 16.302a2.5 2.5 0 1 0 5 0 2.5 2.5 0 0 0-5 0ZM14.392 26.122a2.5 2.5 0 1 0 5 0 2.5 2.5 0 0 0-5 0ZM20.64 13.878a2.5 2.5 0 1 0 5 0 2.5 2.5 0 0 0-5 0ZM27.445 23.701a2.5 2.5 0 1 0 5 0 2.5 2.5 0 0 0-5 0Z"/></g><defs><clipPath id="a"><path fill="#fff" d="M0 0h40v40H0z"/></clipPath></defs></svg>
