<svg xmlns="http://www.w3.org/2000/svg" width="41" height="41" fill="none"><g clip-path="url(#a)"><path fill="#FF4B55" d="M20.004 40.002a20 20 0 1 0 0-40 20 20 0 0 0 0 40Z"/><path stroke="#21242A" stroke-linecap="round" stroke-linejoin="round" stroke-width="2" d="M22.65 14.302c.81.18 1.57.58 2.2 1.21l4.43 4.43a4.46 4.46 0 0 1 0 6.32 4.46 4.46 0 0 1-6.32 0l-4.43-4.43a4.46 4.46 0 0 1 0-6.32"/><path stroke="#21242A" stroke-linecap="round" stroke-linejoin="round" stroke-width="2" d="M17.29 25.332c-.93-.13-1.83-.55-2.55-1.27l-4.43-4.43a4.46 4.46 0 0 1 0-6.32 4.46 4.46 0 0 1 6.32 0l4.43 4.43a4.46 4.46 0 0 1 0 6.32"/></g><defs><clipPath id="a"><path fill="#fff" d="M.004.002h40v40h-40z"/></clipPath></defs></svg>
