<svg xmlns="http://www.w3.org/2000/svg" width="41" height="41" fill="none"><g clip-path="url(#a)"><path fill="#3A82FF" d="M20.004 40.002c11.046 0 20-8.954 20-20s-8.954-20-20-20-20 8.954-20 20 8.954 20 20 20Z"/><path fill="#21242A" d="m21.675 20.922 5.718-3.086a1 1 0 0 1 1.475.884l-.027 6.633a1 1 0 0 1-.491.857l-5.692 3.36a1 1 0 0 1-1.508-.862v-6.906a1 1 0 0 1 .525-.88ZM18.132 20.922l-5.718-3.086a1 1 0 0 0-1.475.884l.027 6.633a1 1 0 0 0 .491.857l5.692 3.36a1 1 0 0 0 1.508-.862v-6.906a1 1 0 0 0-.525-.88ZM27.24 13.707l-6.814-3.729a1 1 0 0 0-.958 0l-6.856 3.729a1 1 0 0 0-.007 1.753l6.842 3.793a1 1 0 0 0 .97 0l6.83-3.795a1 1 0 0 0-.006-1.752Z"/></g><defs><clipPath id="a"><path fill="#fff" d="M.004.002h40v40h-40z"/></clipPath></defs></svg>
