<svg xmlns="http://www.w3.org/2000/svg" width="40" height="40" fill="none"><g clip-path="url(#a)"><path fill="#3A82FF" d="M19.726 40a20.004 20.004 0 0 0 18.728-27.718A20 20 0 0 0 5.76 5.954 20.002 20.002 0 0 0 19.726 40Z"/><path fill="#21242A" d="M21.705 9.446a3.455 3.455 0 0 0-3.407 0l-6.585 3.802a3.458 3.458 0 0 0-1.705 2.95v7.603a3.453 3.453 0 0 0 1.705 2.952l6.585 3.8a3.455 3.455 0 0 0 3.407 0l6.582-3.8a3.458 3.458 0 0 0 1.705-2.952V16.2a3.453 3.453 0 0 0-1.705-2.952l-6.582-3.8Z"/><path stroke="#3A82FF" stroke-width="2" d="m26.16 15.434-5.285-3.052a1.779 1.779 0 0 0-1.748 0l-5.287 3.052c-.535.315-.867.89-.875 1.514v6.104c.006.623.338 1.198.875 1.514l.002.002 5.285 3.05a1.778 1.778 0 0 0 1.748 0l5.283-3.05.002-.002a1.78 1.78 0 0 0 .875-1.514v-6.105a1.777 1.777 0 0 0-.875-1.513Z"/></g><defs><clipPath id="a"><path fill="#fff" d="M0 0h40v40H0z"/></clipPath></defs></svg>
