<svg width="40" height="40" fill="none" xmlns="http://www.w3.org/2000/svg"><g clip-path="url(#prefix__a)"><path fill="#3a82ff" d="M19.726 40.001a20.004 20.004 0 0018.728-27.718A20 20 0 005.76 5.955a20.002 20.002 0 0013.966 34.046z"/><path stroke="#3A82FF" stroke-width="2" d="M26.16 15.434l-5.285-3.052a1.779 1.779 0 00-1.748 0l-5.287 3.052c-.535.315-.867.89-.875 1.514v6.104c.006.623.338 1.198.875 1.514l.002.002 5.285 3.05a1.778 1.778 0 001.748 0l5.283-3.05.002-.002a1.78 1.78 0 00.875-1.514v-6.105a1.777 1.777 0 00-.875-1.513z"/><path d="M35.746 13.35a.6.6 0 00-.047.003c-.116.011-.225.068-1.053.548a698.734 698.734 0 01-2.32 1.34 768.165 768.165 0 01-1.391.804l-.619.356a963.87 963.87 0 00-1.29.746A1977.492 1977.492 0 0026.3 18.72a2480.905 2480.905 0 00-3.428 1.98c-.978.562-1.366.79-1.433.841a.932.932 0 00-.247.281c-.074.158-.02.328.126.404.07.037.233.039.357.005.158-.043.235-.082.727-.367a556.543 556.543 0 011.47-.85 4122.86 4122.86 0 013.308-1.91l.715-.412.615-.354.67-.387.718-.415.625-.36.625-.362a1482.875 1482.875 0 002.627-1.517l.663-.382c.974-.563.92-.534.941-.512.027.026.059.212.06.34.002.435-.228.89-.628 1.245-.28.248-.449.356-1.526.973a261.579 261.579 0 00-1.443.832 2771.049 2771.049 0 00-3.37 1.941 2305.17 2305.17 0 01-2.534 1.46l-1.73.996c-.695.4-.783.454-.876.542-.122.114-.163.202-.163.35 0 .103.004.117.042.172.082.117.218.157.403.117.13-.027.27-.094.591-.28l.938-.544a2432.271 2432.271 0 003.225-1.864 3131.837 3131.837 0 012.52-1.457l.974-.563.57-.33c.312-.181.364-.205.458-.205.062 0 .077.006.112.043.039.04.04.048.039.148a1.894 1.894 0 01-.218.768 1.71 1.71 0 01-.373.513c-.263.264-.34.313-1.769 1.133a4664.35 4664.35 0 00-3.936 2.26l-.835.48c-.565.324-.59.341-.711.463-.115.116-.172.214-.183.316a.26.26 0 00.084.235c.094.093.229.114.416.065.149-.04.202-.067.912-.478a941.554 941.554 0 011.63-.942 5595.902 5595.902 0 012.297-1.328c.129-.075.175-.096.189-.085.061.052.075.432.024.642-.135.545-.492.972-1.16 1.385-.196.121-.465.272-1.792 1.005-.632.348-.815.45-.888.499-.263.173-.391.416-.33.628.026.09.075.14.17.177.088.035.166.035.294 0 .184-.052.084.003 1.914-1.067l.732-.427c.609-.355.832-.505 1.048-.703.328-.3.604-.771.719-1.225.065-.256.079-.394.082-.817.003-.319.008-.409.027-.474a.432.432 0 01.285-.32c.116-.048.42-.2.545-.273 1.002-.579 1.595-1.475 1.597-2.413 0-.138-.008-.26-.022-.343a.484.484 0 01.049-.358c.094-.187.258-.314.634-.487.375-.172.571-.301.818-.538.448-.428.732-.954.87-1.61.028-.135.032-.189.032-.51 0-.325-.003-.374-.033-.51-.079-.37-.159-.527-.3-.597a.224.224 0 00-.114-.032zm-31.43.013c-.234 0-.376.21-.484.718-.02.095-.025.182-.025.462 0 .308.004.362.032.498.13.619.399 1.118.815 1.514.174.165.34.282.602.426.588.323.805.49.912.703.063.126.067.158.07.526.002.323.005.367.038.525.064.299.124.475.253.735.335.68.934 1.21 1.627 1.439.178.059.217.08.309.178a.862.862 0 01.184.334c.031.094.032.111.033.642.002.543.002.546.038.677.175.641.69 1.182 1.696 1.777.18.107.53.31 1.277.74a1264.834 1264.834 0 012.617 1.512c.224.129.451.257.505.284a.94.94 0 00.42.112c.102.001.128-.004.187-.034a.268.268 0 00.156-.24c.008-.124-.036-.217-.16-.338-.133-.13-.056-.084-1.529-.93l-.687-.395-1.778-1.024c-.991-.57-1.145-.668-1.428-.917-.433-.38-.68-.92-.628-1.376.018-.162.035-.22.065-.22.013 0 .03.005.037.011.007.007.424.248.925.537a1815.78 1815.78 0 013.21 1.85l.643.37.456.263.456.262a3287.836 3287.836 0 011.201.693c.216.124.346.173.487.18.14.009.215-.016.284-.092a.272.272 0 00.058-.273.694.694 0 00-.064-.143 1.539 1.539 0 00-.302-.299 57.68 57.68 0 00-.919-.532 5829.602 5829.602 0 01-4.26-2.444l-2.686-1.54c-.93-.533-1.137-.67-1.402-.924a1.791 1.791 0 01-.492-.759.877.877 0 01-.058-.353c-.006-.21.018-.392.058-.425.02-.017-.015-.036.499.261a997.104 997.104 0 002.258 1.302l1.036.597a7070.311 7070.311 0 017.374 4.254c.3.174.59.334.642.356.19.079.343.063.44-.046.062-.067.083-.145.075-.27a.46.46 0 00-.152-.31c-.113-.116.032-.029-2.268-1.353a22778.879 22778.879 0 01-7.603-4.378l-1.14-.656a3853.471 3853.471 0 01-1.83-1.053c-.686-.393-.952-.567-1.204-.787-.36-.315-.583-.69-.654-1.096-.035-.203-.008-.523.045-.523.011 0 .18.092.375.205a5963.356 5963.356 0 006.3 3.634 745.544 745.544 0 002.251 1.298 3520.576 3520.576 0 003.694 2.13l1.126.65.76.438a1846.17 1846.17 0 002.016 1.163c2.224 1.28 2.34 1.35 2.686 1.58 1.008.671 1.54 1.385 1.665 2.236.032.217.034.35.005.543-.065.455-.197.594-.415.435l-.263-.199c-.262-.199-.49-.34-.799-.497a5.497 5.497 0 00-2.852-.595c-1.498.093-2.946.852-3.906 2.047-.327.408-.458.659-.458.876 0 .16.053.255.173.313.073.035.185.027.278-.02.15-.077.286-.217.473-.49a4.75 4.75 0 013.268-1.96 5.498 5.498 0 011.056 0 4.803 4.803 0 012.382.988c.145.112.45.407.719.694.17.184.277.233.4.185.088-.033.16-.123.255-.317.2-.41.328-.801.403-1.237.03-.167.033-.228.032-.573 0-.368-.003-.396-.04-.573-.193-.943-.762-1.684-1.876-2.446-.12-.082-.321-.214-.449-.292-.295-.183-.416-.254-2.171-1.267a659.758 659.758 0 01-1.243-.718 966.026 966.026 0 01-1.498-.867l-1.12-.646a2045.198 2045.198 0 00-2.879-1.663 4866.661 4866.661 0 01-4.875-2.818 240.694 240.694 0 01-1.29-.746 593.048 593.048 0 01-1.914-1.105 428.525 428.525 0 00-1.374-.794c-1.057-.613-1.033-.6-1.162-.6zm18.618 12.224c-.016.003-.03.014-.044.035-.018.029-.024.064-.023.149.001.129.027.205.125.373.035.06.097.174.138.252.119.231.384.54.617.718.061.047.334.142.488.17.112.02.294.008.37-.026.063-.028.066-.032.06-.075-.012-.063-.12-.25-.242-.413a2.54 2.54 0 00-.729-.652l-.262-.165a2.258 2.258 0 01-.388-.295c-.05-.052-.083-.075-.11-.07z" fill="#000" stroke="#000" stroke-width=".314"/></g><defs id="prefix__defs971"><clipPath id="prefix__a"><path fill="#fff" d="M0 0h40v40H0z" id="prefix__path968"/></clipPath></defs></svg>