<svg xmlns="http://www.w3.org/2000/svg" xml:space="preserve" width="40" height="40" viewBox="0 0 10.583 10.583"><path fill="#ffaae4" d="M5.219 10.583A5.292 5.292 0 1 0 5.219 0a5.292 5.292 0 0 0 0 10.583z"/><path d="m3.376 6.073-.007-.005-.003-.087-.002-.087-.067-.004-.067-.005-.004-.108-.004-.108-.11-.003L3 5.664v-.01L3 5.644l.001-.155.001-.156-.005-.022-.006-.022h-.256l-.003-.227-.002-.227H.946l-.004.225-.004.225H.479v-.45l.225-.002.225-.002.006-.01.007-.01v-.294l.519-.006.519-.005h8.107l.008.015.009.016-.002.374-.002.374-.116.003-.116.002-.011.01-.011.008v.356l-.106.002-.107.003-.002.106-.002.106-.019.004-.018.005-.05.002-.05.002-.003.09-.002.09-1.123-.003L7.24 6.07v-.175l-.05-.002-.05-.002-.019-.005-.018-.004-.003-.106-.002-.106-.106-.003-.107-.002V5.31L6.88 5.3l-.007-.01-.12-.003-.121-.002-.002-.227-.002-.227h-.541l-.003.227-.002.227-.125.002-.125.003-.006.01-.007.01v.355h-.225v.205l-.01.01-.01.01h-.121l-.003.09-.002.089-1.033.004-1.032.004zm1.305-.336.004-.018.002-.092.002-.092.088-.002.087-.003.019.005.018.005.003.106.002.106.106.002.106.003.005-.02.004-.018.002-.092.002-.092.107-.002.106-.002v-.196l.006-.01.007-.01.104-.002.104-.003.004-.108.004-.109.106-.002.107-.002v-.004l.005-.083.004-.083-.005-.028-.005-.027-.11.002-.11.002-.003.111-.002.11-.106-.001-.106-.003-.004-.108-.004-.109h-.217l-.003.11-.002.111h-.216l-.002.107-.002.106-.109.004-.108.004-.002.11-.003.111h-.214l-.006.1-.006.101.01.012.01.012h.206Zm.225-.225L4.9 5.494l.003-.088.002-.087.106-.003.107-.002v.218H4.91Zm.223-.312.002-.107h.209v.209l-.107.002-.107.003zm3.491.444.004-.109.092-.002.092-.003.018.005.019.005.002.106.002.106h.209l.002-.104.003-.104.01-.006.01-.007h.204v-.217h.207l.009-.01.009-.012.002-.099.002-.1.107-.002.106-.002v-.225l-.11.002-.111.002-.004.109-.004.108H9.29l-.004-.108-.004-.109-.11-.002-.11-.002-.003.11-.002.111-.106.002-.106.003-.003.106-.002.106-.11.002-.11.003-.003.11-.002.11-.108.004-.109.004-.002.1-.002.098.01.012.01.012.1-.003.101-.002zm.231-.118-.006-.006v-.206h.218l-.003.107-.002.106-.1.002-.101.003zm.217-.225-.006-.006v-.197l.019-.005.019-.004.091.002.092.002v.209l-.105.002-.104.002z" style="fill:#000;stroke-width:.00833707"/></svg>