<svg xmlns="http://www.w3.org/2000/svg" width="40" height="40" fill="none"><g clip-path="url(#a)"><path fill="#FFB845" d="M19.82 39.994a20 20 0 1 0 .55-39.996 20 20 0 0 0-.55 39.996Z" style="fill:#2bcea1;fill-opacity:1;stroke-width:.99985"/><path d="M39.922-20.368a20 20.408 0 0 1-10 17.674 20 20.408 0 0 1-20 0 20 20.408 0 0 1-10-17.674h20Z" style="fill:#ff4b55;fill-opacity:1;stroke:none;stroke-width:3.21227;stroke-linecap:round;stroke-dasharray:none" transform="rotate(90)"/><path fill="#FFB845" d="M-18.726-3.98a20.003 20.003 0 1 0 .55-40.003 20.003 20.003 0 0 0-.55 40.002z" style="fill:#ff4b55;fill-opacity:1"/><path fill="#21242a" fill-rule="evenodd" d="M34.809 16.144c-.163-1.822-1.727-2.444-3.712-2.633l.019-2.524-1.536-.01-.02 2.457c-.403-.003-.815.004-1.226.008l.018-2.475-1.535-.011-.02 2.523c-.332.003-.659.008-.979.007v-.009l-2.12-.016-.011 1.642s1.137-.013 1.117.006c.624.006.823.37.879.682l-.02 2.873c.042 0 .097.005.16.013h-.16l-.03 4.027c-.03.196-.145.505-.581.504.019.02-1.117-.009-1.117-.009l-.319 1.834 2 .014 1.097.017-.017 2.554 1.534.01.02-2.524c.42.012.83.017 1.227.02l-.017 2.514 1.534.011.02-2.549c2.584-.128 4.397-.767 4.639-3.192.196-1.953-.716-2.83-2.181-3.192.895-.448 1.457-1.243 1.337-2.574zm-2.192 5.441c-.012 1.91-3.278 1.669-4.318 1.663l.026-3.383c1.042.008 4.31-.268 4.294 1.723v-.003zm-.68-4.777c-.012 1.737-2.734 1.514-3.601 1.508l.022-3.069c.867.007 3.594-.251 3.58 1.561z" clip-rule="evenodd" style="fill:#000;stroke-width:1.19413" transform="translate(.598 .698)"/><path d="M9.124 27.076c-1.742-.139-3.453-1.004-4.575-2.313-.84-.979-1.35-2.056-1.604-3.382-.08-.416-.08-1.756 0-2.202.388-2.196 1.714-4.017 3.637-4.996.217-.11.355-.15.522-.15.583 0 .994.533.843 1.094-.076.28-.228.43-.708.696a5.141 5.141 0 0 0-2.544 3.447c-.115.555-.108 1.524.016 2.067.428 1.885 1.828 3.348 3.665 3.832a5.014 5.014 0 0 0 2.59 0 5.102 5.102 0 0 0 3.342-2.867c1.034-2.396.116-5.162-2.137-6.437-.717-.406-.746-.428-.852-.635a.88.88 0 0 1 .195-1.053c.309-.289.66-.296 1.2-.025.681.341 1.165.698 1.767 1.303.608.609.95 1.076 1.287 1.754.82 1.647.946 3.604.343 5.311a6.843 6.843 0 0 1-6.986 4.556zm.178-7.078c-.206-.062-.36-.19-.486-.406l-.123-.209-.014-3.495c-.01-2.46.002-3.556.037-3.7.183-.74 1.142-.928 1.571-.309l.13.188V19.488l-.139.175c-.245.308-.63.44-.977.335z" style="fill:#090909;stroke-width:.0453951" transform="translate(.598 .698)"/></g><defs><clipPath id="a"><path fill="#fff" d="M0 0h40v40H0z"/></clipPath></defs></svg>