<svg xmlns="http://www.w3.org/2000/svg" width="40" height="40" fill="#FF4B55"><path d="M20 40a20 20 0 1 0 0-40 20 20 0 0 0 0 40z" style="fill:#3a82ff;fill-opacity:1"/><path fill="#21242a" fill-rule="evenodd" d="M23.69 10.07c-.116-1.304-1.234-1.748-2.654-1.883l.014-1.805-1.099-.007-.014 1.757c-.288-.002-.583.003-.877.006l.014-1.77-1.099-.009-.014 1.805c-.237.002-.47.006-.7.005v-.006l-1.515-.012-.009 1.174s.813-.01.8.004c.445.005.587.265.628.488l-.015 2.055c.03 0 .07.003.115.009h-.115l-.02 2.88c-.022.14-.105.361-.417.36.014.014-.798-.006-.798-.006l-.228 1.311 1.43.01.784.012-.012 1.827 1.097.007.014-1.805c.3.008.593.012.878.014l-.012 1.798 1.097.008.014-1.822c1.848-.092 3.144-.549 3.317-2.283.14-1.397-.512-2.024-1.56-2.283.64-.32 1.043-.889.957-1.84zm-1.567 3.89c-.008 1.367-2.344 1.194-3.088 1.19l.019-2.42c.745.007 3.083-.191 3.07 1.233v-.002zm-.486-3.415c-.009 1.242-1.956 1.082-2.575 1.078l.016-2.195c.62.005 2.57-.18 2.56 1.117z" clip-rule="evenodd" style="stroke-width:.853934"/><path stroke="#21242a" stroke-linecap="round" stroke-linejoin="round" stroke-width="2" d="M17.107 24.68v-3.863"/><path fill="#21242a" d="M14.607 29.941a2.5 2.5 0 1 0 5 0 2.5 2.5 0 0 0-5 0z"/><path stroke="#21242a" stroke-linecap="round" stroke-linejoin="round" stroke-width="2" d="M13.674 24.68v-3.863"/><path fill="#21242a" d="M11.174 29.941a2.5 2.5 0 1 0 5 0 2.5 2.5 0 0 0-5 0z"/><path stroke="#21242a" stroke-linecap="round" stroke-linejoin="round" stroke-width="2" d="M20.54 24.593v-3.864"/><path fill="#21242a" d="M18.04 29.853a2.5 2.5 0 1 0 5 0 2.5 2.5 0 0 0-5 0z"/><path stroke="#21242a" stroke-linecap="round" stroke-linejoin="round" stroke-width="2" d="m26.286 24.144-1.36-3.617"/><path fill="#21242a" d="M25.797 29.947a2.5 2.5 0 1 0 4.68-1.759 2.5 2.5 0 0 0-4.68 1.76z"/></svg>