<svg xmlns="http://www.w3.org/2000/svg" xml:space="preserve" width="40" height="40" viewBox="0 0 10.583 10.583"><path fill="#ffaae4" d="M5.219 10.583A5.292 5.292 0 1 0 5.219 0a5.292 5.292 0 0 0 0 10.583z"/><path d="M4.817 2.048c-.02 0-.041.01-.065.033-.035.033-.038.05-.038.26 0 .186.006.23.029.257.037.04.1.04.143-.003.03-.031.034-.057.034-.257 0-.206-.002-.225-.037-.257-.024-.022-.045-.033-.066-.033zm2.228.06a.122.122 0 0 0-.078.044c-.07.076.055.292.18.311.024.004.13.008.234.01.146.001.197-.004.227-.025.048-.034.05-.115.004-.162-.03-.03-.058-.034-.233-.034h-.198l-.025-.06c-.024-.059-.067-.088-.111-.084zm.855.078h-.03c-.096.009-.103.042-.104.435 0 .392.008.42.113.42.049 0 .065-.01.089-.052.028-.049.034-.051.146-.051.198 0 .184-.044.184.547 0 .443-.004.517-.027.54-.023.023-.083.027-.387.027-.335 0-.36-.002-.393-.034-.032-.033-.034-.057-.034-.526 0-.433.003-.495.028-.523.016-.017.043-.031.059-.031.046 0 .119-.068.118-.109 0-.085-.078-.127-.184-.098a.29.29 0 0 0-.192.156c-.032.062-.034.103-.034.613v.545l.049.078c.066.104.145.14.324.149l.14.006V5.31c0 1.018 0 1.032-.035 1.092a.389.389 0 0 1-.317.212c-.115.014-.138.004-.176-.081a.61.61 0 0 0-.232-.241c-.126-.056-.179-.062-.594-.062h-.425l-.01-.042a5.307 5.307 0 0 1-.028-.725c.008-.026.04-.113.07-.193.03-.08.082-.223.115-.317a.825.825 0 0 1 .09-.2c.033-.028.197-.053.369-.055l.103-.002.005.074c.006.085-.03.255-.092.44a.517.517 0 0 0 .027.465c.037.08.068.166.068.191 0 .067.03.162.056.178.037.024.112.016.142-.014.024-.024.027-.051.02-.153a.621.621 0 0 0-.08-.265.788.788 0 0 1-.07-.18c0-.02.02-.093.045-.163.05-.145.07-.231.093-.4.024-.171.008-.242-.073-.324l-.069-.068-.22.008c-.212.008-.22.007-.22-.026 0-.019.038-.14.086-.267a361.356 361.356 0 0 0 .237-.636c.11-.298.131-.39.104-.476a.411.411 0 0 0-.187-.253.295.295 0 0 0-.205-.06.381.381 0 0 0-.314.138c-.04.046-.11.203-.234.517l-.312.798c-.016.04-.067.037-.067-.005 0-.037-.19-.23-.265-.27a.689.689 0 0 0-.84.12.723.723 0 0 0-.116.144c-.039.087-.056.067-.142-.164a7.159 7.159 0 0 0-.086-.224 36.304 36.304 0 0 1-.183-.458c-.172-.438-.208-.495-.346-.562a.474.474 0 0 0-.322-.01.383.383 0 0 0-.245.37c0 .105.01.147.084.344a20.161 20.161 0 0 1 .113.3c.008.018.025.069.039.111.014.042.045.127.068.189l.087.227a.84.84 0 0 1 .045.14c0 .018-.043.021-.227.015l-.228-.009-.064.054c-.08.068-.104.153-.089.307.013.126.06.323.112.462.045.122.043.137-.034.3-.08.169-.112.34-.077.409.026.051.08.07.136.048.044-.016.053-.037.069-.162a.97.97 0 0 1 .078-.225c.085-.178.088-.273.017-.485-.098-.288-.115-.483-.045-.497.045-.008.365.031.422.053.033.012.053.039.072.097.03.086.066.186.15.414.098.263.098.264.082.515-.008.127-.02.28-.028.342l-.012.112-.497.008c-.541.01-.578.015-.7.113-.099.078-.14.15-.267.466-.134.333-.148.394-.12.502.041.163.04.165-.093.48a109.04 109.04 0 0 0-.316.745H1.9l.129-.304c.013-.031.041-.098.061-.15.02-.05.05-.123.068-.162.018-.038.056-.13.087-.203.03-.073.063-.133.074-.132l2.493-.005 2.473-.004.105.266c.059.146.112.273.119.283.006.009.017.036.024.06.013.042.03.086.083.205l.058.146h.234L7.895 8.5c-.082-.19-.125-.297-.25-.609a16.371 16.371 0 0 0-.166-.409c-.023-.05-.024-.072-.006-.164.023-.116.014-.167-.066-.367-.02-.05-.032-.097-.027-.105.004-.007.048-.019.096-.025a.588.588 0 0 0 .448-.333l.056-.114.005-1.05.005-1.05h.132c.164-.001.263-.045.338-.153l.051-.073.006-.517c.006-.601.001-.631-.112-.731-.078-.069-.115-.079-.33-.09l-.078-.005v-.222l.345-.005c.276-.004.349 0 .365.019.014.017.02.967.023 3.63l.003 2.407h.192L8.928 6.1c.003-2.577-.001-3.647-.015-3.679a.302.302 0 0 0-.168-.15 2.39 2.39 0 0 0-.405-.019c-.327 0-.348-.002-.378-.035a.086.086 0 0 0-.062-.03zm-2.22.104c-.048 0-.09.062-.17.228-.098.204-.105.248-.043.295.044.033.1.025.135-.02a1.86 1.86 0 0 0 .115-.206c.09-.18.092-.228.016-.277a.1.1 0 0 0-.052-.02Zm-1.718.002a.097.097 0 0 0-.038.012c-.05.027-.066.05-.067.093 0 .042.127.306.183.382.024.033.057.056.078.056.043 0 .116-.063.116-.099 0-.013-.042-.11-.093-.217-.084-.171-.128-.231-.18-.227Zm-.667.68c.054 0 .138.054.162.104.018.038.327.817.606 1.529.058.148.135.314.17.369.138.214.348.33.594.329.182 0 .34-.064.473-.192.112-.107.148-.172.287-.527.07-.175.139-.349.156-.386a23.743 23.743 0 0 1 .279-.711c.157-.392.181-.44.234-.476.102-.068.214-.037.266.074.034.07.029.119-.025.26a16.802 16.802 0 0 0-.136.368l-.12.33-.122.33-.07.189L6 4.695c-.013.032-.037.096-.12.325l-.069.189-.07.187c-.033.086-.034.107-.017.287.01.107.02.272.023.366l.004.172-.93.004-.93.005v-.09c0-.05.01-.216.02-.37.017-.225.017-.29 0-.342-.021-.06-.149-.41-.225-.613a36.511 36.511 0 0 1-.104-.283 32.911 32.911 0 0 0-.206-.561 53.08 53.08 0 0 0-.22-.6c-.059-.156-.066-.252-.026-.31a.24.24 0 0 1 .165-.09Zm1.523 1.095c.072 0 .147.019.22.055.11.055.182.133.238.255a.69.69 0 0 1-.012.434.555.555 0 0 1-.286.252c-.177.066-.34.027-.492-.117-.106-.101-.14-.19-.14-.371 0-.18.027-.25.137-.36a.468.468 0 0 1 .335-.148zm.193.57-.211.001-.283.006-.005.043c-.008.068.083.194.17.236.16.077.337.029.43-.116.06-.094.063-.15.01-.164a.906.906 0 0 0-.111-.005zm-.23 1.797c.992 0 1.984.008 2.045.022.142.033.189.094.317.416.132.333.142.378.092.442l-.037.047H2.355l-.038-.04a.15.15 0 0 1-.037-.09c0-.028.054-.186.12-.35.135-.341.176-.395.328-.428.065-.014 1.059-.02 2.052-.02z" style="fill:#000;stroke:#000;stroke-width:.0472356;stroke-dasharray:none;stroke-opacity:1"/></svg>