<svg xmlns="http://www.w3.org/2000/svg" width="40" height="41" fill="none"><g clip-path="url(#a)"><path fill="#FFB845" d="M20 40.002c11.046 0 20-8.954 20-20s-8.954-20-20-20-20 8.954-20 20 8.954 20 20 20Z"/><path d="M-3.864 319.68c-.8-.112-2.467-.343-3.704-.513-3.964-.545-6.347-1.009-8.863-1.727-.873-.25-1.945-.548-2.382-.663-1.07-.282-3.783-1.188-4.762-1.59a51.608 51.608 0 0 0-1.323-.522c-1.186-.44-2-.811-5.16-2.354-4.227-2.064-5.615-2.849-8.863-5.013-9.322-6.21-18.47-15.945-23.659-25.18-.849-1.51-3.87-7.622-4.283-8.665a528.962 528.962 0 0 1-1.825-4.696 24.91 24.91 0 0 1-.528-1.72 38.782 38.782 0 0 0-.553-1.852c-1.516-4.405-2.868-14.181-2.873-20.77-.005-6.164 1.05-14.331 2.476-19.182.235-.8.502-1.845.592-2.321.09-.477.268-.93.394-1.008.126-.078.229-.425.229-.772 0-.347.119-.704.264-.794.146-.09.265-.365.264-.61 0-.247.311-1.222.693-2.168.38-.946.786-1.958.9-2.249.367-.933 2.88-6.02 3.987-8.07 1.065-1.97 3.875-6.302 5.051-7.786l2.303-2.91c2.692-3.406 9.689-10.174 12.445-12.038.521-.352 1.008-.715 1.08-.806.073-.091.52-.436.993-.766.472-.33.86-.76.86-.956 0-.195-.923-1.045-2.051-1.888-3.411-2.55-4.52-3.523-8.255-7.249-3.423-3.413-4.772-4.92-6.508-7.272-.43-.583-.928-1.214-1.107-1.403-1.713-1.813-7.302-11.68-8.834-15.597l-.465-1.19a99.054 99.054 0 0 0-.557-1.39 46.51 46.51 0 0 1-.848-2.38c-.469-1.427-.69-2.18-1.586-5.425-1.333-4.817-2.324-12.79-2.32-18.653.005-6.588 1.357-16.364 2.873-20.77.125-.364.374-1.197.553-1.852a24.91 24.91 0 0 1 .528-1.72 855.053 855.053 0 0 1 1.82-4.696c.126-.327.543-1.252.925-2.054.383-.803.696-1.597.696-1.764 0-.168.094-.345.21-.393.114-.049.527-.743.916-1.544 4.956-10.18 14.8-21.154 25.2-28.093 3.058-2.04 4.9-3.077 9.128-5.141 2.902-1.417 3.7-1.78 4.895-2.222.291-.108.886-.343 1.323-.523 1.195-.49 3.85-1.358 4.895-1.6.509-.118 1.58-.413 2.38-.655 2.86-.868 6.178-1.452 12.7-2.237 4.775-.574 14.671-.16 18.724.785.62.145 1.52.263 1.998.263s.982.107 1.12.238c.139.13.728.296 1.31.369 1.279.158 5.598 1.331 5.856 1.59.102.101.405.185.674.185s.695.107.948.237c.253.131 1.352.56 2.444.952 3.762 1.355 11.638 5.23 12.985 6.389.23.197.557.36.728.36.17 0 .31.118.31.264 0 .145.133.264.297.264.256 0 3.566 2.213 3.936 2.632.073.082.609.5 1.19.928.583.428 1.119.848 1.191.933.073.086.728.623 1.456 1.195 1.706 1.34 7.648 7.283 8.996 8.997.572.727 1.108 1.382 1.191 1.455.332.29 2.692 3.519 2.824 3.864.32.833 1.144.307 2.63-1.681 3.959-5.297 9.974-11.412 14.521-14.762.582-.429 1.118-.85 1.19-.935.41-.48 4.755-3.31 7.144-4.65 2.628-1.475 7.366-3.859 8.666-4.36.327-.127.863-.333 1.19-.458a51.664 51.664 0 0 0 1.597-.662c.55-.238 1.228-.433 1.505-.433.278 0 .579-.12.668-.265.09-.145.448-.264.794-.264.347 0 .696-.106.776-.236.08-.13.533-.295 1.008-.369.474-.073 1.517-.335 2.317-.581 1.578-.486 3.09-.833 5.16-1.183l2.249-.38c5.365-.915 13.285-1.22 17.991-.695 6 .67 9.552 1.283 13.097 2.26.873.24 1.917.5 2.318.577.402.076.796.244.876.373.08.128.437.234.794.234.357 0 .856.11 1.109.243.253.134 1.293.565 2.311.957 2.764 1.064 2.682 1.029 5.954 2.607 3.183 1.537 5.406 2.734 7.408 3.992 1.616 1.015 6.093 4.204 6.75 4.808.292.27 1.126.958 1.852 1.53 1.706 1.346 7.664 7.304 9.01 9.01.573.727 1.261 1.56 1.53 1.853.849.923 4.141 5.645 4.141 5.94 0 .154.12.28.265.28.145 0 .264.14.264.31 0 .17.17.498.375.728.694.773 3.704 6.544 5.255 10.075.863 1.964 2.31 5.974 2.309 6.4 0 .247.105.513.234.593.13.08.296.534.37 1.008.072.474.334 1.517.58 2.318 1.457 4.725 2.507 12.892 2.501 19.447-.005 5.568-1.19 14.494-2.513 18.917-.24.8-.496 1.844-.569 2.318-.073.474-.24.928-.369 1.008-.13.08-.235.378-.235.662 0 .285-.11.724-.246.977-.135.253-.689 1.65-1.23 3.105-1.355 3.641-5.047 11.098-6.102 12.324-.198.23-.36.557-.36.728 0 .17-.119.31-.264.31-.146 0-.265.133-.265.297 0 .256-2.212 3.566-2.631 3.936-.083.073-.503.608-.934 1.19a25.526 25.526 0 0 1-1.395 1.72 16.127 16.127 0 0 0-1.199 1.522c-.672.983-6.853 7.072-8.808 8.677-.718.589-2.227 1.76-3.355 2.603-1.308.978-2.05 1.716-2.05 2.038 0 .279.092.506.205.506.258 0 2.424 1.623 5.202 3.898 2.315 1.896 7.804 7.31 8.924 8.802.383.51.916 1.164 1.186 1.456.27.29.84 1.005 1.27 1.587.428.582.848 1.118.933 1.19.374.322 2.123 2.938 2.123 3.176 0 .145.12.264.265.264.145 0 .264.179.264.397 0 .218.12.397.265.397.145 0 .264.14.264.31 0 .17.162.498.36.727.692.805 3.954 7.023 5.153 9.824.966 2.257 1.02 2.39 1.742 4.358.376 1.022.683 2.056.683 2.3 0 .242.106.507.235.587.13.08.296.533.37 1.008.072.474.336 1.517.586 2.317.249.8.507 1.872.573 2.381.067.51.226 1.164.354 1.456.128.29.288 1.005.356 1.587.068.582.37 3.023.672 5.424.915 7.28.682 14.07-.77 22.357-.527 3.01-1.856 8.168-2.191 8.503-.102.101-.185.373-.184.603 0 .403-1.466 4.453-2.308 6.372-1.464 3.34-4.6 9.352-5.253 10.075-.208.23-.378.558-.378.728 0 .17-.119.31-.264.31-.146 0-.265.127-.265.281 0 .295-3.292 5.017-4.14 5.94-.27.292-.958 1.125-1.531 1.851-1.346 1.707-7.304 7.665-9.01 9.01-.726.573-1.56 1.262-1.852 1.531-.923.848-5.645 4.141-5.94 4.141-.154 0-.282.09-.283.199-.003.397-8.917 5.163-11.507 6.152-2.934 1.12-4.307 1.667-4.693 1.872-.253.134-.752.244-1.109.244s-.714.105-.794.234c-.08.129-.474.299-.876.378-.401.08-1.445.341-2.318.582-3.308.912-4.907 1.195-12.568 2.226-4.49.605-14.815.18-18.987-.78-.62-.142-1.52-.259-1.998-.259s-.982-.107-1.12-.238c-.139-.13-.728-.295-1.31-.366-.582-.07-1.713-.334-2.514-.584-.8-.25-1.843-.516-2.317-.59-.475-.073-.928-.238-1.008-.368-.08-.13-.43-.235-.776-.235-.346 0-.704-.12-.794-.265-.09-.145-.364-.264-.61-.264-1 .003-7.88-3.07-12.486-5.573-1.982-1.077-6.321-3.896-7.787-5.058l-2.91-2.302c-3.406-2.692-10.174-9.69-12.038-12.445-.352-.522-.715-1.008-.806-1.08-.09-.074-.435-.52-.766-.993-.532-.761-1.623-1.201-1.623-.654 0 .231-1.226 1.89-3.566 4.823-1.819 2.28-7.578 8.113-9.53 9.653-.728.573-1.383 1.107-1.456 1.186-.072.078-.608.493-1.19.92-.582.429-1.118.848-1.19.933-.322.374-2.938 2.123-3.177 2.123a.265.265 0 0 0-.263.264c0 .146-.18.265-.397.265-.219 0-.397.1-.397.222s-.268.356-.596.519c-.327.162-1.547.835-2.712 1.494a80.616 80.616 0 0 1-10.583 5.027c-1.019.395-2.059.827-2.311.961-.253.134-.752.244-1.11.244-.356 0-.712.103-.79.229-.078.126-.531.303-1.008.393-.476.09-1.521.357-2.321.593-2.617.769-4.662 1.143-10.584 1.934-4.265.57-12.247.716-15.346.281zm13.226-8.497c1.816-.157 3.58-.39 3.92-.52.338-.129 1.137-.234 1.774-.234.636 0 1.231-.12 1.321-.265.09-.145.475-.264.857-.264.381 0 1.059-.112 1.505-.248.447-.136 1.587-.454 2.533-.706.946-.252 1.833-.558 1.97-.678.14-.121.52-.22.845-.22.326 0 .667-.12.757-.265.09-.145.447-.265.793-.265.347 0 .696-.105.776-.235.08-.13.449-.311.82-.404.776-.195 3.62-1.453 5.548-2.453l2.05-1.066c.4-.208.728-.548.728-.756 0-.325-4.552-.377-32.676-.377-35.785 0-34.251-.075-31.154 1.512.836.43 1.759.917 2.05 1.085.895.516 4.043 1.876 4.755 2.055.37.093.74.275.82.404.08.13.428.235.775.235.347 0 .704.12.794.265.09.146.447.265.794.265.346 0 .694.103.772.23.078.127.472.304.876.395.403.09 1.566.4 2.585.688 1.019.288 2.156.527 2.527.531.37.004.787.116.926.248.138.132.846.297 1.574.366.728.07 2.156.26 3.175.422 4.893.78 8.436.84 15.21.255zm125.68-.117c4.22-.473 6.774-.911 9.526-1.634 1.412-.372 4.828-1.411 5.424-1.651.29-.117 1.03-.4 1.642-.628 5.673-2.114 12.666-6.105 17.745-10.126 3.295-2.608 8.39-7.704 11-10.999 4.02-5.079 8.011-12.072 10.125-17.745.228-.613.51-1.352.628-1.643.488-1.212 1.7-5.458 2.153-7.54 2.197-10.113 2.008-21.934-.502-31.486-.371-1.412-1.411-4.828-1.651-5.424-.117-.29-.4-1.03-.628-1.642-1.274-3.42-3.661-8.172-5.819-11.587-1.012-1.6-1.939-2.95-2.06-2.998-.122-.049-.222-.21-.222-.36 0-.242-1.606-2.38-3.44-4.579-1.843-2.21-7.937-8.066-9.921-9.534-.583-.43-1.118-.846-1.191-.924-.288-.307-2.922-2.11-3.085-2.11-.095 0-.55-.288-1.01-.639a23.73 23.73 0 0 0-2.01-1.321c-1.555-.906-7.806-3.951-8.976-4.374a47.472 47.472 0 0 1-1.456-.55c-1.963-.805-4.333-1.583-4.818-1.583-.316 0-.64-.106-.72-.236-.08-.13-.594-.298-1.14-.372-.547-.074-2.066-.374-3.376-.667-6.912-1.544-15.878-1.878-22.49-.838-.872.138-2.158.327-2.857.42-1.816.243-2.08.603-1.89 2.577.244 2.517-.734 11.461-1.45 13.272-.116.29-.42 1.243-.675 2.116-.63 2.15-.866 2.77-2.209 5.803-.447 1.008-.752 1.93-.678 2.05.073.12 13.313.219 29.42.22 25.344.004 29.519.06 31.004.41 3.63.855 5.663 2.781 6.845 6.485.445 1.393.427 55.837-.018 57.59-.562 2.209-2.397 4.51-4.352 5.457-.56.271-1.223.599-1.476.728-.253.13-4.836.237-10.186.24-5.654.001-9.894.108-10.124.254-.526.332-.75 8.284-.251 8.886.25.302 1.185.38 4.517.38h4.2v8.467h-52.916v-3.815c0-2.098.072-4.003.16-4.233.137-.356.75-.419 4.08-.419 2.155 0 4.107-.072 4.337-.16.358-.138.419-.783.419-4.445 0-2.98-.097-4.381-.318-4.602-.235-.235-2.824-.319-9.988-.322-9.805-.004-10.412-.055-12.169-1.032-1.128-.628-2.566-2.116-3.16-3.27-1.35-2.631-1.346-2.552-1.35-24.584-.002-11.305-.1-20.616-.22-20.69-.119-.073-1.042.232-2.05.679-3.1 1.373-6.53 2.6-7.27 2.6-.944 0-1.134.654-.787 2.71 1.243 7.377 1.256 17.634.033 25.15-.817 5.016-2.708 11.66-4.366 15.34-.379.84-.689 1.697-.689 1.902 0 .206-.119.448-.264.538-.146.09-.265.385-.265.655s-.094.531-.21.58c-.413.173-1.374 2.83-1.197 3.31.097.265.454.85.792 1.3.339.451.615.909.615 1.018 0 .243 3.48 4.91 4.745 6.366 3.236 3.72 11.53 11.245 12.395 11.245.153 0 .318.09.367.198.106.239 1.975 1.654 2.184 1.654.081 0 .952.511 1.936 1.136 2.354 1.495 7.492 4.005 10.465 5.113.612.228 1.352.51 1.643.627.29.116 1.6.524 2.91.906 1.31.381 2.747.81 3.194.954a6.33 6.33 0 0 0 1.6.26c.434 0 .902.108 1.04.24s.847.297 1.574.366c.728.07 2.157.26 3.175.422 5.067.808 9.674.847 16.008.138zM-10.53 293.443c.24-.24.317-4.568.317-17.856v-17.538l8.798-.07 8.797-.07.069-13.561.068-13.562-22.426.068-22.425.068-.068 31.204c-.053 24.789.001 31.248.265 31.415.574.365 26.237.27 26.605-.098zm-17.41-13.309v-4.1h8.202v8.201h-8.202zm0-17.992v-4.1h8.202v8.201h-8.202zm0-17.734v-4.372l4.035.073 4.035.073.073 4.3.072 4.299h-8.215zm17.844 4.03c-.072-.188-.098-2.122-.058-4.299l.074-3.957 4.167-.073 4.167-.073v8.745h-4.11c-3.117 0-4.14-.083-4.24-.342zm52.91 45.162c.375-.144.42-1.576.42-13.441 0-9.977-.08-13.36-.318-13.598-.46-.46-43.885-.46-44.344 0-.239.238-.318 3.618-.318 13.582 0 7.295.08 13.344.176 13.44.22.221 43.811.237 44.385.017zm-35.24-13.4.073-4.035h8.202l.073 4.035.073 4.035H7.5zm17.932-.066v-4.1h8.202v8.201h-8.202zm-71.497-19.469c.04-15.777.008-28.953-.071-29.28-.142-.585-.215-.596-4.174-.6-2.216-.002-4.177-.097-4.357-.212-.248-.157-.344-2.483-.397-9.565-.05-6.733-.154-9.385-.372-9.458-.364-.121-3.24 5.64-4.491 8.998a93.24 93.24 0 0 1-.627 1.642c-.117.291-.524 1.601-.906 2.91-.382 1.31-.81 2.748-.954 3.195a6.464 6.464 0 0 0-.26 1.638c0 .454-.12.899-.265.989-.145.09-.264.684-.264 1.321 0 .637-.12 1.47-.264 1.852-.146.382-.443 2.891-.66 5.576-.353 4.344-.352 5.412.004 9.707.22 2.655.47 5.006.555 5.224.085.218.256 1.052.38 1.852.244 1.584.6 3.312.982 4.762.371 1.413 1.41 4.829 1.65 5.424.118.291.4 1.03.629 1.643.726 1.949 3.284 7.472 3.59 7.75.08.073.498.817.93 1.654.43.836.877 1.521.992 1.521.114 0 .207.122.207.27 0 .25 1.044 1.968 1.764 2.902.17.22 1.079 1.423 2.021 2.674 2.15 2.855 3.66 4.505 4.012 4.387.185-.061.297-9.366.346-28.776zm100.404 26.593c2.99-3.506 6.756-9.298 8.761-13.474 1.03-2.142 1.491-3.188 2.572-5.82.311-.758 1.443-4.308 1.771-5.557l.558-2.117c.32-1.215.909-4.033 1.328-6.366.159-.881.296-2.37.305-3.307a44.2 44.2 0 0 1 .238-3.688c.454-4.055-.787-16.076-1.67-16.173-.167-.018-1.316-.013-2.553.012-2.915.058-7.76-.482-11.377-1.268-2.16-.469-5.159-1.4-5.45-1.692-.107-.106-.415-.194-.683-.194-.27 0-.696-.107-.949-.237-.252-.13-1.71-.853-3.237-1.605-3.597-1.771-4.119-2.081-7.276-4.33-2.91-2.07-7.744-6.709-9.922-9.52-.768-.991-1.498-1.701-1.621-1.578-.124.124-.256 4.745-.294 10.269l-.07 10.044-4.365.132-4.366.133v26.987l17.794.068 17.793.068v15.565c0 8.56.082 15.646.182 15.746.337.337.738.006 2.531-2.098zm86.92-7.183c.073-4.548.072-4.558-.528-4.705-.331-.08-4.412-.113-9.069-.072l-8.466.074-.073 4.355c-.04 2.396-.014 4.51.059 4.7.105.275 1.924.33 9.069.275l8.936-.07zm26.623-13.456c.314-.819.178-8.455-.157-8.79-.244-.243-8.474-.317-35.433-.317-19.313 0-35.303.073-35.533.16-.359.138-.419.796-.419 4.587 0 2.434.08 4.505.177 4.602.097.097 16.158.176 35.69.176 32.14 0 35.53-.04 35.675-.418zm.028-35.565v-17.86l-32.443-.067-32.442-.067-3.343 3.342-3.342 3.342v14.475c0 7.96.08 14.554.178 14.651.097.098 16.2.147 35.785.11l35.607-.067zM16.377 217.692v-4.497l-31.205-.068c-24.788-.053-31.247.001-31.415.265-.245.386-.296 7.892-.058 8.513.146.38 3.087.414 31.42.353l31.258-.068zm55.43 4.124c3.943-.702 6.21-1.35 8.935-2.556 5.85-2.589 8.818-4.596 13.046-8.823 4.227-4.228 6.234-7.195 8.823-13.046 2.035-4.598 2.921-9.277 2.921-15.417 0-6.14-.886-10.82-2.921-15.418-2.589-5.85-4.596-8.818-8.823-13.045-4.228-4.228-7.195-6.235-13.046-8.823-4.641-2.054-9.22-2.922-15.417-2.922-5.513 0-9.392.628-13.758 2.228-2.013.737-6.587 2.943-6.703 3.232-.049.12-.206.22-.35.22-.567 0-5.908 4.092-7.766 5.95-1.86 1.86-5.951 7.2-5.951 7.767 0 .144-.099.301-.22.35-.338.136-2.952 5.675-3.538 7.496a42.313 42.313 0 0 0 0 25.93c.586 1.82 3.2 7.36 3.539 7.496.12.048.219.206.219.35 0 .566 4.092 5.907 5.95 7.766 1.86 1.859 7.2 5.95 7.767 5.95.144 0 .301.096.35.213.118.284 3.872 2.17 4.32 2.17.195 0 .394.088.442.198.092.205 2.836 1.254 4.454 1.702 1.516.419 3.194.753 5.16 1.028 1.018.142 1.97.313 2.116.38.448.203 8.907-.101 10.451-.376zm-10.643-13.563-.072-4.822-1.72-.968c-2.567-1.444-4.576-3.453-5.66-5.658-1.19-2.42-1.277-2.839-1.406-6.695l-.108-3.242h8.232v1.878c0 2.743.596 4.526 1.878 5.624 1.167.999 2.07 1.222 4.953 1.227 2.755.004 2.959-.155 2.959-2.314 0-2.807-.5-4.525-1.654-5.683-.546-.548-1.223-.996-1.506-.996-.282 0-.587-.12-.677-.265-.09-.145-.892-.264-1.783-.264-.89 0-2.044-.13-2.564-.29-.941-.289-3.617-1.509-4.12-1.878-2.519-1.854-4.631-4.83-5.315-7.49-.112-.436-.245-4.333-.296-8.658l-.092-7.865 4.44-.073 4.439-.072.072-4.439.073-4.439 4.028.073 4.029.073.132 4.75.132 4.75 1.72.967c1.793 1.009 4.763 3.58 4.763 4.124 0 .173.094.354.21.402.27.113 1.369 2.447 1.725 3.66.149.51.317 2.385.374 4.168l.102 3.24H70.22v-1.847c0-2.708-.467-4.174-1.736-5.452-1.182-1.188-2.087-1.431-5.33-1.431-2.557 0-2.724.156-2.724 2.558 0 3.527.883 5.394 3.026 6.402.787.37 1.722.565 2.707.565.828 0 1.93.133 2.45.295 1.117.35 3.681 1.557 4.25 2.001 2.778 2.172 4.106 4.136 5.26 7.777.193.611.299 3.619.299 8.526v7.582l-4.432.072-4.432.073-.132 4.365-.132 4.366-4.03.073-4.028.073zm-39.525-4.139c.074-.12-.231-1.042-.678-2.05-1.439-3.247-2.6-6.481-2.6-7.241 0-.948-.623-1.145-2.567-.813-3.89.665-7.332.905-12.91.9-5.872-.005-9.456-.284-13.098-1.018-1.091-.22-2.341-.467-2.778-.549-3.487-.658-8.85-2.319-11.847-3.669-.84-.379-1.646-.689-1.79-.689-.143 0-.467-.111-.72-.247a86.923 86.923 0 0 0-2.16-1.06c-1.85-.886-2.273-.868-3.616.155-.45.342-.897.623-.992.623-.162 0-2.796 1.803-3.084 2.11-.073.078-.609.495-1.19.926-3.824 2.831-12.688 12.103-12.117 12.673.25.25 71.992.2 72.147-.05zM7.646 186.47c4.212-.22 8.852-1.024 8.88-1.538.01-.171.005-1.383-.009-2.693-.04-3.71.784-9.812 1.807-13.361.566-1.964.98-3.148 1.167-3.334.106-.107.194-.393.194-.635 0-.243.408-1.28.907-2.306.499-1.025.945-2.086.992-2.358.082-.48-.59-.5-21.082-.634-15.612-.102-21.41-.222-22.092-.46-3.14-1.09-5-2.83-6.008-5.619-.257-.713-.335-5.21-.338-19.558-.004-16.963-.044-18.676-.442-19.117-.241-.266-.696-.483-1.012-.483-.713 0-3.171-1.334-4.26-2.311-1.104-.991-2.136-2.605-2.765-4.325-.588-1.609-.707-4.783-.224-5.986 1.31-3.267 2.059-4.164 6.847-8.196a241.029 241.029 0 0 0 2.944-2.51 108.95 108.95 0 0 1 1.965-1.675 67.567 67.567 0 0 0 1.554-1.323c.156-.146 1.057-.918 2.003-1.717.946-.799 1.899-1.633 2.117-1.855.218-.222.814-.72 1.323-1.109a35.134 35.134 0 0 0 1.72-1.413c.436-.39 1.376-1.202 2.088-1.805a62.85 62.85 0 0 0 1.856-1.626c.308-.291 1.63-1.42 2.938-2.507 1.308-1.087 2.418-2.07 2.466-2.183.049-.113.2-.205.336-.205.137 0 .692-.28 1.235-.622.543-.342 1.76-.904 2.707-1.25 1.506-.549 2.18-.626 5.424-.623 5.72.006 7.52.84 14.157 6.554 1.674 1.441 4.641 4.024 4.76 4.143.073.073.847.727 1.72 1.455.873.727 1.945 1.64 2.381 2.03 1.358 1.21 2.085 1.827 3.018 2.557.495.388 1.151.943 1.458 1.234.306.291 1.33 1.183 2.274 1.983s1.777 1.516 1.85 1.593c.072.077.846.726 1.72 1.442 4.796 3.936 6.55 6.76 6.522 10.5-.01 1.284-.487 3.335-.879 3.783-.12.139-.22.466-.22.728 0 .262-.11.476-.247.476-.135 0-.313.208-.394.463-.45 1.411-4.448 4.3-5.95 4.3-.288 0-.708.264-.935.588-.36.514-.41 2.306-.408 14.221.002 7.498.076 13.901.163 14.229.088.327.295.593.46.59.165-.003 1.633-.94 3.263-2.084 2.71-1.902 8.594-5.055 9.432-5.055.192 0 .427-.078.522-.173.253-.253 4.47-1.675 4.976-1.677.878-.004 1.085-.656.773-2.435-.673-3.832-.916-7.291-.908-12.913.01-6.803.333-10.436 1.33-14.949 1.201-5.447 2.407-9.534 3.639-12.343.233-.531.424-1.038.424-1.127 0-.191.81-2.02 1.917-4.33l.796-1.659-1.001-1.647c-2.422-3.986-5.264-7.493-9.497-11.72-2.762-2.758-7.782-6.995-8.287-6.995-.159 0-.328-.1-.377-.222-.162-.407-5.88-3.886-8.422-5.124-4.922-2.396-5.395-2.575-13.91-5.247a6.444 6.444 0 0 0-1.6-.255c-.434 0-.902-.108-1.04-.24-.138-.133-.846-.3-1.574-.375-.728-.073-2.811-.325-4.63-.559-7.14-.918-16.859-.256-24.077 1.642-1.413.371-4.829 1.41-5.424 1.65-.291.118-1.03.4-1.643.629-5.16 1.923-11.818 5.606-16.481 9.12-2.834 2.134-3.463 2.694-7.019 6.25-3.566 3.566-4.136 4.21-6.224 7.023-2.676 3.606-2.897 3.926-2.897 4.21 0 .156-.119.283-.264.283a.263.263 0 0 0-.265.26c0 .142-.394.886-.876 1.653-1.257 2-3.83 7.35-4.844 10.07a141.44 141.44 0 0 1-.622 1.643c-.249.634-1.437 4.599-1.824 6.085-.364 1.397-.552 2.342-.819 4.101-.121.8-.29 1.634-.376 1.853-.085.218-.337 2.595-.56 5.282-.366 4.42-.365 5.362.015 9.913.231 2.765.485 5.133.565 5.261.08.129.244.907.365 1.729.433 2.943 1.766 8.264 2.172 8.67.104.104.19.409.19.678 0 .268.107.695.238.948.13.252.558 1.293.95 2.311.94 2.44 3.443 7.58 4.548 9.332.483.767.878 1.51.878 1.654 0 .142.119.26.265.26.145 0 .264.126.264.281 0 .308 1.333 2.177 1.654 2.32.109.048.198.201.198.34 0 .473 2.685 3.8 5.512 6.83 3.802 4.076 11.201 10.336 12.216 10.336.145 0 .264.12.264.265 0 .145.14.265.31.265.17 0 .498.166.727.37.93.822 8.327 4.613 10.605 5.435.509.183 1.164.43 1.455.55 1.963.804 4.333 1.582 4.818 1.582.316 0 .64.106.72.235.08.13.533.297 1.008.371.474.074 1.695.334 2.714.577 2.692.642 4.57.9 8.731 1.2 2.038.147 3.943.316 4.234.376.29.059 1.124.062 1.852.007.727-.056 2.632-.17 4.233-.254zm157.236-11.072c2.878-1.939 5.024-3.54 6.409-4.785 2.404-2.16 7.058-6.941 8.34-8.567a98.844 98.844 0 0 1 2.04-2.514c.398-.462.725-.98.728-1.15.003-.17.104-.348.225-.396.122-.049 1.05-1.398 2.061-2.999 3.081-4.875 5.967-11.185 7.261-15.875.12-.436.46-1.627.754-2.646.295-1.018.539-2.155.543-2.526.004-.372.116-.788.248-.926.132-.139.3-.847.374-1.575.074-.727.325-2.81.558-4.63.912-7.107.244-16.907-1.64-24.077-.371-1.412-1.411-4.829-1.651-5.424-.117-.291-.4-1.03-.628-1.642-2.114-5.673-6.104-12.667-10.125-17.746-2.61-3.295-7.705-8.39-11-10.999-5.079-4.021-12.072-8.011-17.745-10.125a90.823 90.823 0 0 1-1.642-.628c-.596-.24-4.012-1.28-5.424-1.651-10.486-2.756-24.417-2.687-34.132.169-.8.235-1.845.502-2.321.592-.477.09-.93.268-1.008.394-.078.126-.374.229-.659.229-.284 0-.723.107-.976.238-.253.13-1.293.559-2.312.95-2.43.936-7.576 3.451-9.314 4.553-.757.48-1.5.873-1.653.873a.272.272 0 0 0-.277.265c0 .145-.127.264-.283.264-.307 0-2.176 1.333-2.32 1.654-.048.11-.2.199-.337.199-.592 0-4.857 3.573-8.052 6.746-3.621 3.597-4.778 4.855-6.081 6.615-.431.582-.848 1.118-.926 1.19-.443.412-2.11 2.896-2.11 3.145 0 .162-.1.295-.222.295s-.357.268-.523.596c-.165.327-.662 1.19-1.103 1.918-.442.727-1.583 2.93-2.536 4.895-2.081 4.29-2.013 4.135-2.89 6.614a98.99 98.99 0 0 1-.947 2.592 3.968 3.968 0 0 0-.245 1.241c0 .349-.106.7-.236.78-.13.08-.296.533-.37 1.007-.075.474-.335 1.696-.577 2.715-.795 3.332-1.49 9.568-1.564 14.022-.038 2.323.308 7.47.631 9.393.135.8.316 2.02.402 2.709.087.69.308 1.404.492 1.587.24.24 1.484.334 4.416.334h4.082l-.101-.793c-.056-.437-.148-5.228-.205-10.646l-.104-9.853.697-1.392c1.15-2.3 3.08-3.89 5.666-4.67 1.273-.385 7.584-1.657 13.199-2.661 2.837-.508 3.367-.83 3.563-2.168a82.21 82.21 0 0 1 .444-2.61l.496-2.645c.354-1.897.833-4.034 1.1-4.914.136-.447.248-1.073.248-1.392 0-.32.109-.787.242-1.04s.434-.876.669-1.385c.69-1.5.988-1.899 2.704-3.63 1.631-1.644 4.351-3.25 5.507-3.25.309 0 .682-.12.829-.267.319-.32 43.711-.218 44.95.105 2.564.667 5.665 2.855 7.547 5.322 1 1.312 1.951 4.082 2.498 7.276.299 1.746.658 3.573 1.067 5.424.225 1.018.483 2.371.573 3.006.22 1.545.393 1.619 6.306 2.687 7.5 1.355 10.584 2.063 12.241 2.81 1.284.578 3.767 3.138 3.767 3.882 0 .188.102.454.227.593 1.113 1.23 1.17 18.575.071 21.418-1.664 4.302-4.582 7.154-8.765 8.569-.51.172-2.758.387-4.998.478l-4.071.166-.427.78c-3.014 5.52-6.656 7.885-12.098 7.854-1.968-.01-4.345-.439-4.763-.857-.104-.104-.408-.19-.675-.19-.266 0-.485-.09-.485-.2 0-.11-.375-.366-.834-.569-1.208-.534-3.614-3.125-4.72-5.082l-.954-1.689-14.31-.068-14.31-.069-.585 1.244c-1.704 3.624-5.096 6.398-8.688 7.105-.483.095-.94.333-1.015.53-.076.196.706 1.538 1.737 2.982 1.032 1.444 1.875 2.76 1.875 2.925 0 .165.09.3.199.302.109.001.33.27.493.595.162.327.714 1.427 1.227 2.446a59.17 59.17 0 0 1 2.058 4.498c.583 1.409 1.58 4.506 1.58 4.907 0 .938.672 1.146 2.586.8 3.807-.687 7.297-.938 12.892-.925 5.937.014 9.46.294 13.229 1.052 7.007 1.408 10.657 2.464 14.493 4.192.84.38 1.697.69 1.903.69.205 0 .447.118.537.264.09.145.385.264.655.264s.531.094.58.21c.163.385 2.729 1.358 3.204 1.215.26-.078 1.39-.762 2.514-1.519zm-175.3-24.578c.033-.036.122-6.02.198-13.295l.139-13.23h25.929l.132 13.23.132 13.229h9.26v-35.719h-44.979l-.068 17.595c-.038 9.677-.012 17.744.058 17.925.094.247 1.271.331 4.633.331 2.478 0 4.533-.03 4.566-.066zm17.869-8.996-.07-9.062h-8.996l-.07 8.73c-.038 4.8-.012 8.878.058 9.061.096.25 1.26.333 4.638.333h4.51zm94.825.022c2.772-.83 4.246-4.25 2.832-6.57-1.264-2.074-3.084-2.905-5.22-2.385-1.487.362-1.881.64-2.78 1.963-.538.794-.695 1.347-.695 2.456 0 2.215 1.05 3.734 3.084 4.459 1.27.453 1.505.46 2.78.077zm54.644-.515c1.694-1.047 2.627-3.212 2.125-4.93-1.09-3.735-5.165-4.881-7.84-2.206-1.756 1.755-1.774 4.621-.041 6.354 1.648 1.648 3.866 1.95 5.756.782zm-67.526-9.892c.474-.938 1.515-2.29 2.547-3.307 1.588-1.565 2.123-1.93 4.208-2.87 1.131-.51 3.765-1.1 4.884-1.092 1.1.007 4.48.803 4.81 1.132.1.101.35.184.555.184.468 0 2.393 1.317 3.579 2.447 1.04.991 2.84 3.543 2.84 4.024 0 .18.22.524.487.767.443.4 1.75.434 14.605.371l14.119-.068.939-1.615c.517-.889 1.287-2.059 1.713-2.6.855-1.086 3.84-3.326 4.432-3.326.207 0 .49-.103.628-.228.385-.349 3.673-1.095 4.804-1.09 1.195.005 4.338.79 5.636 1.407 2.457 1.168 4.55 3.378 6.402 6.76l.45.824h3.18c2.74 0 3.317-.077 4.18-.557 1.362-.76 1.58-.958 2.105-1.918.393-.718.47-1.859.557-8.292.061-4.569 0-7.639-.159-7.922-.267-.477-2.28-.996-7.589-1.954-2.336-.421-3.922-.74-5.953-1.194-2.368-.53-4.147-.867-5.992-1.137-1.687-.246-2.117-.59-2.302-1.84a59.57 59.57 0 0 0-.424-2.372 221.44 221.44 0 0 1-.51-2.646 147.48 147.48 0 0 0-.69-3.373c-.477-2.208-.733-3.51-1.17-5.953-.63-3.53-1.693-5.082-3.939-5.755-1.595-.478-39.519-.478-41.132 0-1.358.402-3.244 2.192-3.44 3.264a145.67 145.67 0 0 1-.598 2.888 129.227 129.227 0 0 0-1.17 6.085 32.763 32.763 0 0 1-.364 1.852c-.075.291-.334 1.541-.576 2.778-.514 2.634-.947 4.28-1.204 4.582-.101.12-.884.333-1.74.474-2.238.37-3.654.64-6.054 1.156-3.751.807-4.475.956-5.821 1.2-5.463.992-7.083 1.35-7.475 1.656-.25.195-.33 2.075-.33 7.776 0 8.693.068 8.998 2.325 10.43 1.227.778 1.278.786 4.543.713l3.302-.073zm-55.715-25.64c.325-.293.557-.826.557-1.277 0-.883-.73-1.68-4.233-4.621a150.657 150.657 0 0 1-2.778-2.374 87.514 87.514 0 0 0-2.115-1.808 91.144 91.144 0 0 1-1.886-1.6 88.25 88.25 0 0 0-1.69-1.456 125.475 125.475 0 0 1-1.686-1.444c-.343-.31-3.59-3.098-5.852-5.023a933.942 933.942 0 0 1-4.053-3.483c-3.463-2.991-4.3-3.384-7.157-3.36-2.969.023-3.43.275-8.36 4.562-2.593 2.255-2.947 2.559-4.513 3.865a92.98 92.98 0 0 0-1.869 1.588c-.425.396-3.111 2.716-5.666 4.893a1810.529 1810.529 0 0 0-3.572 3.053c-.727.624-1.859 1.592-2.513 2.152-4.26 3.638-4.763 4.156-4.763 4.9 0 .844.663 1.743 1.391 1.885.327.064 14.005.102 30.398.085 28.913-.031 29.82-.047 30.36-.536z" style="fill:#000;fill-opacity:1;stroke-width:4.17390288;stroke:#000;stroke-opacity:1;stroke-dasharray:none" transform="translate(13.671 2.371) scale(.09689)"/></g><defs><clipPath id="a"><path fill="#fff" d="M0 .002h40v40H0z"/></clipPath></defs></svg>