<svg xmlns="http://www.w3.org/2000/svg" width="40" height="40" fill="none"><g clip-path="url(#a)"><path fill="#ab52ee" d="M19.707 40a20.003 20.003 0 1 0 .55-40.002A20.003 20.003 0 0 0 19.707 40Z"/><path fill="#21242A" d="m26.784 24.598 6.652-3.859c.357-.208.564-.586.564-1.003v-7.718c0-.416-.225-.795-.564-1.003l-6.652-3.859a1.13 1.13 0 0 0-1.146 0l-6.653 3.86a1.145 1.145 0 0 0-.563 1.002v13.81l-4.66 2.705L9.1 25.828v-5.41l4.66-2.706 3.082 1.779v-3.633l-2.5-1.456a1.198 1.198 0 0 0-.563-.152c-.207 0-.395.057-.564.152L6.564 18.26A1.145 1.145 0 0 0 6 19.264v7.718c0 .416.226.795.564 1.003l6.652 3.859c.357.208.79.208 1.146 0l6.653-3.86c.357-.207.563-.586.563-1.002v-13.81l.076-.057 4.585-2.667 4.66 2.705v5.41l-4.66 2.706-3.063-1.778v3.632l2.5 1.456c.356.209.788.209 1.146 0l-.038.02Z"/></g><defs><clipPath id="a"><path fill="#fff" d="M0 0h40v40H0z"/></clipPath></defs></svg>