<svg xmlns="http://www.w3.org/2000/svg" width="40" height="40" fill="none"><g clip-path="url(#a)"><path fill="#2BCEA1" d="M20 40c11.046 0 20-8.954 20-20S31.046 0 20 0 0 8.954 0 20s8.954 20 20 20Z" opacity=".8"/><path fill="#2BCEA1" d="M20 40c11.046 0 20-8.954 20-20S31.046 0 20 0 0 8.954 0 20s8.954 20 20 20Z"/><path fill="#21242a" d="M22.71 31.074c-2.328.139-5.618.346-7.287.452a.997.997 0 0 1-1.059-.998v-4.45c0-.278.117-.545.323-.733.89-.812 3.412-3.095 4.97-4.293 2.044-1.573 2.661-.548 2.062.589-.265.502-1.547 3.315-1.547 3.315s10.056-1.993 10.803-2.195c1.108-.3 1.633.685.717 1.423-.583.468-3.031 3.066-4.74 4.899a6.325 6.325 0 0 1-4.243 1.991z"/><rect width="3.042" height="7.279" x="10.355" y="24.936" fill="#21242a" rx="1"/><g style="font-size:18.8313px;font-family:chew;-inkscape-font-specification:chew;fill:#21242a;stroke:#21242a;stroke-width:.19616;stroke-linecap:round"><path d="M23.843 9.085q0 .257-.147.441-.128.166-.35.294-.201.11-.44.166-.24.055-.442.055-.312 0-.607-.092-.294-.11-.607-.22-.294-.11-.643-.203-.35-.11-.773-.11-.165 0-.404.037-.22.036-.423.128-.202.092-.35.24-.128.147-.128.367 0 .331.386.607.386.258.975.552.588.276 1.25.625.68.331 1.269.772.589.442.975 1.03.386.57.386 1.361 0 .68-.24 1.085-.238.405-.624.662-.387.24-.883.386l-.993.258q-.092.018-.11.22v.46q0 .258-.019.57 0 .295-.092.552-.092.257-.294.423-.202.184-.589.184-.349 0-.662-.24-.294-.22-.294-.588v-.276q.019-.147.019-.294v-.202q0-.147-.019-.313-.018-.165-.055-.294-.037-.129-.092-.147-.35-.092-.864-.202-.515-.11-.993-.295-.46-.202-.791-.496t-.331-.754q0-.423.312-.699.331-.276.736-.276.35 0 .68.11.35.11.7.24.367.128.735.239.386.11.79.11.148 0 .368-.018.221-.037.423-.11.203-.093.35-.221.147-.147.147-.368 0-.202-.184-.368-.184-.165-.441-.294-.24-.129-.497-.22-.257-.111-.404-.166-.589-.24-1.233-.552-.643-.331-1.195-.754-.533-.441-.901-1.011-.35-.57-.35-1.325 0-.662.258-1.195.276-.552.717-.938.46-.386 1.03-.607.589-.239 1.232-.276.074-.422.129-.845.055-.442.165-.865.166-.57.81-.57.257 0 .496.147.24.129.24.405 0 .368-.056.79-.055.424-.092.791.386.092.81.24.422.128.808.33.405.184.736.46.35.276.552.644.055.11.092.22.036.092.036.203z" aria-label="$" style="font-family:chewy;-inkscape-font-specification:chewy"/></g></g><defs><clipPath id="a"><path fill="#fff" d="M0 0h40v40H0z"/></clipPath></defs></svg>