<svg xmlns="http://www.w3.org/2000/svg" width="41" height="41" fill="none"><g clip-path="url(#a)"><path fill="#3A82FF" d="M19.734 40.002A20.003 20.003 0 1 0 20.284 0a20.003 20.003 0 0 0-.55 40.002Z"/><path fill="#21242A" d="M13.126 13.743s1.42.85 1.685.913c.267.064.502-.104.502-.104l4.236-2.51c-.013.009-.012.007 0 0 .027-.017.01-.006 0 0 .23-.13.387-.143.43-.144h.06c.042.001.2.015.428.145-.01-.007-.026-.018 0 0 .013.006.015.008 0 0l4.237 2.509s.235.168.5.104c.267-.063 1.687-.913 1.687-.913s.192-.137 0-.295c-.191-.157-6.083-3.635-6.083-3.635l-.397-.219s-.23-.122-.404-.12c-.173-.001-.402.12-.402.12l-.397.22s-5.892 3.477-6.084 3.634c-.19.158.002.295.002.295ZM26.89 26.258s-1.42-.852-1.686-.914c-.266-.063-.501.105-.501.105s-4.19 2.481-4.236 2.51c.014-.008.012-.008 0 0-.027.016-.01.005 0 0-.23.13-.386.142-.43.143h-.06c-.042 0-.2-.015-.428-.143.01.005.026.016 0 0-.013-.008-.014-.008 0 0-.046-.029-4.236-2.51-4.236-2.51s-.236-.168-.502-.105c-.267.063-1.686.914-1.686.914s-.193.137 0 .293c.193.158 6.084 3.636 6.084 3.636l.397.22s.23.121.403.12c.173.001.403-.12.403-.12l.397-.22s5.892-3.478 6.083-3.636c.19-.156-.002-.293-.002-.293Z"/><path fill="#21242A" d="m29.219 18.933-.001-3.438c0-.751-.349-.993-.465-1.059-.471-.267-.944.016-.944.016l-7.802 4.447-2.892 1.654-3.612 2.053s-.424.26-.536.088c-.054-.081-.042-.188-.041-.52v-4.17c-.001-.334-.013-.439.04-.521.113-.172.537.088.537.088l2.902 1.65.14.08c.12.06.298.121.44.075.24-.079 1.528-.825 1.528-.825s.232-.116.249-.222c.018-.12-.097-.194-.192-.248l-6.363-3.628s-.473-.284-.945-.016c-.115.066-.466.307-.464 1.06v9.131c0 .752.349.994.464 1.06.472.267.945-.017.945-.017l7.801-4.448L22.9 19.57l3.613-2.053s.423-.26.535-.089c.054.083.043.188.041.522v4.169c0 .334.013.438-.04.522-.113.171-.536-.089-.536-.089l-2.902-1.65-.14-.079c-.12-.059-.298-.121-.439-.075-.24.08-1.528.824-1.528.824s-.233.117-.25.224c-.017.12.097.193.192.247l6.364 3.628s.473.284.944.016c.116-.065.465-.307.465-1.059v-5.695Z"/></g><defs><clipPath id="a"><path fill="#fff" d="M.008.002h40v40h-40z"/></clipPath></defs></svg>
